<svg baseProfile="full" height="544px" version="1.1" width="929px" xmlns="http://www.w3.org/2000/svg" xmlns:ev="http://www.w3.org/2001/xml-events" xmlns:xlink="http://www.w3.org/1999/xlink"><defs /><rect fill="rgb(250, 250, 201)" height="544px" width="929px" x="0" y="0" /><line stroke="rgb(157, 123, 98)" stroke-width="1.5498639146859245" x1="587" x2="534" y1="499" y2="266" /><line stroke="rgb(108, 197, 3)" stroke-width="1.3778930974998085" x1="625" x2="160" y1="96" y2="315" /><line stroke="rgb(64, 50, 203)" stroke-width="1.1302666449446495" x1="279" x2="847" y1="542" y2="512" /><line stroke="rgb(244, 89, 37)" stroke-width="2.6840368184206884" x1="155" x2="693" y1="532" y2="102" /><line stroke="rgb(56, 217, 91)" stroke-width="2.849349163791366" x1="466" x2="873" y1="220" y2="382" /><polygon fill="none" points="569,3 111,276 729,3 323,288 422,34 457,274" stroke="rgb(32, 68, 148)" stroke-width="3.1216027914298627" /><line stroke="rgb(169, 51, 196)" stroke-width="0.6170135236491582" x1="868" x2="691" y1="116" y2="192" /><line stroke="rgb(51, 248, 222)" stroke-width="1.9864343760627627" x1="71" x2="405" y1="157" y2="449" /><line stroke="rgb(218, 58, 16)" stroke-width="1.8420777936752506" x1="207" x2="628" y1="525" y2="458" /><line stroke="rgb(239, 242, 162)" stroke-width="0.8499534618912306" x1="801" x2="875" y1="274" y2="442" /><line stroke="rgb(248, 139, 202)" stroke-width="0.9959174215835762" x1="466" x2="574" y1="233" y2="46" /><line stroke="rgb(157, 14, 22)" stroke-width="0.7802049986155044" x1="714" x2="316" y1="21" y2="102" /><circle cx="743" cy="70" fill="none" opacity="0.5142069556422033" r="10" stroke="rgb(221, 207, 48)" stroke-width="2.203377453461119" /><circle cx="691" cy="365" fill="none" opacity="0.6790337710276859" r="68" stroke="rgb(111, 40, 130)" stroke-width="4.014869266902444" /><path d="M379,116 Q522,278 144,103 C579,144 8,23 118,365 Q688,363 15,113 C874,262 530,435 380,83 C107,453 757,19 64,24" fill="none" stroke="rgb(176, 107, 164)" stroke-width="2.482783491252672" /><rect fill="none" height="141" stroke="rgb(203, 84, 10)" stroke-width="0.9785037533472698" transform="rotate(68 741 481)" width="149" x="609" y="43" /><rect fill="none" height="87" stroke="rgb(81, 249, 179)" stroke-width="3.5338207578432685" transform="rotate(11 499 489)" width="101" x="713" y="8" /><path d="M378,34 C826,538 537,450 473,537 Q565,347 181,461 L172,232 Q213,288 727,359 L676,67" fill="none" stroke="rgb(130, 255, 22)" stroke-width="2.470162158998445" /><line stroke="rgb(241, 188, 46)" stroke-width="0.9760477756811996" x1="81" x2="399" y1="30" y2="113" /><line stroke="rgb(91, 255, 253)" stroke-width="1.9375640235931875" x1="913" x2="374" y1="337" y2="388" /><line stroke="rgb(123, 94, 29)" stroke-width="0.8972255134598296" x1="616" x2="700" y1="531" y2="327" /><line stroke="rgb(117, 190, 45)" stroke-width="0.9480585766616269" x1="884" x2="743" y1="164" y2="359" /><line stroke="rgb(191, 80, 101)" stroke-width="1.4822430935475155" x1="710" x2="47" y1="412" y2="252" /><rect fill="none" height="27" stroke="rgb(185, 73, 245)" stroke-width="0.6908796667251188" transform="rotate(250 525 402)" width="145" x="241" y="70" /><line stroke="rgb(186, 163, 67)" stroke-width="2.4059655022827684" x1="97" x2="145" y1="189" y2="66" /><line stroke="rgb(62, 72, 201)" stroke-width="2.531509659661872" x1="210" x2="287" y1="419" y2="468" /><line stroke="rgb(35, 9, 183)" stroke-width="0.673120280000836" x1="614" x2="32" y1="541" y2="505" /><line stroke="rgb(142, 129, 169)" stroke-width="0.7154808473298409" x1="418" x2="593" y1="276" y2="16" /><line stroke="rgb(11, 18, 86)" stroke-width="2.334062605391751" x1="412" x2="456" y1="536" y2="347" /><line stroke="rgb(124, 128, 109)" stroke-width="0.9545354661027828" x1="837" x2="309" y1="379" y2="184" /><line stroke="rgb(251, 163, 104)" stroke-width="2.0747130642402074" x1="219" x2="443" y1="399" y2="165" /><line stroke="rgb(201, 208, 248)" stroke-width="2.4732905959101354" x1="772" x2="84" y1="133" y2="367" /><line stroke="rgb(188, 251, 145)" stroke-width="0.9490544553076814" x1="75" x2="705" y1="82" y2="501" /><line stroke="rgb(224, 171, 246)" stroke-width="2.4848128359861317" x1="422" x2="566" y1="120" y2="1" /><path d="M403,269 Q347,301 264,1 C10,187 670,83 896,385 L685,63 C633,511 42,515 398,246 C829,77 853,502 480,435" fill="none" stroke="rgb(78, 198, 6)" stroke-width="1.4468507531076922" /><circle cx="598" cy="483" fill="none" opacity="0.99685014065376" r="23" stroke="rgb(214, 111, 93)" stroke-width="3.6280560924908967" /><path d="M289,202 Q240,80 626,224 C357,492 362,515 361,325 Q336,416 415,386" fill="none" stroke="rgb(214, 86, 186)" stroke-width="1.1513205929178054" /><path d="M93,373 Q100,497 407,475 L110,26 C824,433 593,16 514,525 L256,248" fill="none" stroke="rgb(129, 159, 239)" stroke-width="2.7195928992207814" /><polygon fill="none" points="671,413 741,149 3,86 261,123 562,344" stroke="rgb(43, 143, 64)" stroke-width="2.023408672782102" /><rect fill="none" height="119" stroke="rgb(75, 120, 244)" stroke-width="2.8274831736306054" transform="rotate(73 461 491)" width="117" x="464" y="430" /><line stroke="rgb(173, 9, 147)" stroke-width="2.380641177516518" x1="773" x2="531" y1="188" y2="139" /><line stroke="rgb(177, 22, 251)" stroke-width="1.970545667946215" x1="503" x2="141" y1="526" y2="229" /><line stroke="rgb(153, 36, 223)" stroke-width="1.5510960651260493" x1="808" x2="401" y1="453" y2="114" /><line stroke="rgb(66, 90, 191)" stroke-width="2.973881544264035" x1="162" x2="803" y1="61" y2="438" /><line stroke="rgb(187, 169, 93)" stroke-width="1.7222719412907426" x1="778" x2="533" y1="285" y2="500" /><rect fill="none" height="112" stroke="rgb(241, 235, 218)" stroke-width="2.858816722498149" transform="rotate(263 927 449)" width="200" x="432" y="132" /><path d="M605,365 Q336,338 802,470 Q265,212 614,10 L221,407 L580,115 C117,76 169,278 90,471" fill="none" stroke="rgb(247, 211, 144)" stroke-width="1.1447938897009786" /><path d="M818,169 Q33,257 195,317 C614,379 329,194 803,467 C135,488 291,351 314,420 Q333,23 344,461 C164,88 542,400 4,138 C120,478 377,401 230,392 Q440,59 799,263" fill="none" stroke="rgb(41, 132, 252)" stroke-width="1.5825905823067736" /><path d="M345,171 L506,409 Q424,209 909,243 Q902,196 58,20 Q556,425 359,320 C232,34 404,54 517,332 L468,169 Q651,335 758,488" fill="none" stroke="rgb(176, 46, 69)" stroke-width="0.9868489660317812" /><line stroke="rgb(245, 4, 138)" stroke-width="1.8748841012735926" x1="694" x2="160" y1="466" y2="168" /><line stroke="rgb(242, 71, 119)" stroke-width="2.3715097365959545" x1="201" x2="293" y1="422" y2="70" /><line stroke="rgb(71, 54, 196)" stroke-width="1.3448742684636459" x1="230" x2="747" y1="305" y2="278" /><line stroke="rgb(120, 70, 163)" stroke-width="1.5238439107633064" x1="379" x2="463" y1="0" y2="303" /><circle cx="234" cy="169" fill="none" opacity="0.5378124402933608" r="28" stroke="rgb(186, 119, 175)" stroke-width="1.0944204617632893" /><path d="M310,85 Q825,263 86,486 C695,44 682,204 817,366 C319,538 294,537 810,95 C284,382 903,90 915,53 L875,300 L221,325" fill="none" stroke="rgb(86, 199, 83)" stroke-width="2.1200406948328316" /><circle cx="386" cy="483" fill="none" opacity="0.7964880540346624" r="70" stroke="rgb(144, 130, 18)" stroke-width="2.570948283886828" /><rect fill="none" height="113" stroke="rgb(77, 13, 203)" stroke-width="2.502577956572934" transform="rotate(307 913 1)" width="156" x="708" y="303" /><circle cx="711" cy="196" fill="none" opacity="0.41894606069834334" r="14" stroke="rgb(240, 159, 10)" stroke-width="4.07177312271119" /><circle cx="118" cy="489" fill="none" opacity="0.8104261621466964" r="62" stroke="rgb(206, 187, 101)" stroke-width="0.5082823842662842" /><path d="M366,47 C537,274 201,8 710,197 L210,55 C286,207 789,37 582,17 C470,212 425,257 338,414 C885,277 544,316 441,442 C404,285 593,489 460,500 L563,472" fill="none" stroke="rgb(148, 69, 77)" stroke-width="2.7558683210553463" /><path d="M604,417 Q184,45 825,11 Q139,339 643,446 C913,193 244,262 485,0 Q309,67 655,236" fill="none" stroke="rgb(142, 160, 97)" stroke-width="2.1842039917648384" /><line stroke="rgb(60, 42, 47)" stroke-width="1.9556530664943672" x1="123" x2="388" y1="168" y2="527" /><line stroke="rgb(154, 112, 16)" stroke-width="1.0432883930526393" x1="295" x2="713" y1="252" y2="345" /><line stroke="rgb(104, 127, 98)" stroke-width="1.218324584288263" x1="138" x2="515" y1="442" y2="265" /><line stroke="rgb(86, 222, 11)" stroke-width="1.834732237864775" x1="673" x2="54" y1="266" y2="223" /><line stroke="rgb(86, 122, 120)" stroke-width="1.504111601061477" x1="112" x2="480" y1="253" y2="135" /><line stroke="rgb(184, 191, 214)" stroke-width="1.0418364623121905" x1="420" x2="730" y1="167" y2="113" /><polygon fill="none" points="506,162 302,163 427,256 159,410 896,247" stroke="rgb(86, 112, 216)" stroke-width="1.3274245825169582" /><circle cx="784" cy="355" fill="none" opacity="0.4859585587608951" r="130" stroke="rgb(147, 19, 244)" stroke-width="2.5431706281305075" /><rect fill="none" height="97" stroke="rgb(99, 177, 46)" stroke-width="4.4183170045918345" transform="rotate(314 788 20)" width="178" x="766" y="358" /><line stroke="rgb(51, 165, 18)" stroke-width="1.7377340842343107" x1="537" x2="569" y1="206" y2="369" /><line stroke="rgb(254, 44, 134)" stroke-width="0.6572978279622023" x1="443" x2="573" y1="179" y2="18" /><line stroke="rgb(136, 235, 115)" stroke-width="1.8357855278874828" x1="571" x2="416" y1="381" y2="220" /><line stroke="rgb(169, 186, 164)" stroke-width="2.564079811639778" x1="882" x2="907" y1="338" y2="90" /><line stroke="rgb(174, 54, 27)" stroke-width="2.2800631502378934" x1="449" x2="254" y1="386" y2="519" /><rect fill="none" height="187" stroke="rgb(11, 64, 244)" stroke-width="3.030349837177626" transform="rotate(153 551 316)" width="178" x="451" y="123" /><polygon fill="none" points="374,331 718,273 644,36" stroke="rgb(230, 236, 161)" stroke-width="2.019193416204237" /><line stroke="rgb(75, 83, 6)" stroke-width="2.631238957213834" x1="159" x2="330" y1="490" y2="328" /><line stroke="rgb(249, 203, 201)" stroke-width="1.1397826363218204" x1="298" x2="405" y1="417" y2="89" /><line stroke="rgb(19, 129, 7)" stroke-width="2.9211593860100438" x1="634" x2="84" y1="228" y2="173" /><line stroke="rgb(100, 158, 109)" stroke-width="1.7582075207478303" x1="164" x2="875" y1="219" y2="187" /><line stroke="rgb(169, 35, 166)" stroke-width="1.1160168706241667" x1="488" x2="207" y1="537" y2="530" /><line stroke="rgb(208, 103, 193)" stroke-width="2.4964060464777704" x1="153" x2="564" y1="544" y2="3" /><line stroke="rgb(242, 21, 106)" stroke-width="0.8553856013916099" x1="837" x2="516" y1="14" y2="290" /><path d="M297,175 Q395,476 777,444 C806,452 25,14 670,369 L374,75" fill="none" stroke="rgb(139, 34, 117)" stroke-width="1.6268572256877298" /><polygon fill="none" points="289,342 447,512 691,333 8,323 483,541" stroke="rgb(43, 234, 74)" stroke-width="3.835496192335742" /><line stroke="rgb(50, 1, 22)" stroke-width="1.2996414768829017" x1="706" x2="713" y1="196" y2="435" /><line stroke="rgb(69, 121, 197)" stroke-width="2.8435851103137963" x1="437" x2="188" y1="447" y2="303" /><line stroke="rgb(224, 186, 254)" stroke-width="1.102197539454018" x1="896" x2="66" y1="23" y2="464" /><line stroke="rgb(221, 83, 66)" stroke-width="2.1646341085579586" x1="175" x2="57" y1="351" y2="320" /><line stroke="rgb(116, 169, 3)" stroke-width="0.7193764135010395" x1="593" x2="749" y1="484" y2="226" /><line stroke="rgb(4, 1, 172)" stroke-width="2.0932673012502185" x1="440" x2="486" y1="102" y2="6" /><line stroke="rgb(71, 247, 222)" stroke-width="2.5124465666969282" x1="834" x2="472" y1="292" y2="444" /><line stroke="rgb(9, 39, 53)" stroke-width="2.0407255984881627" x1="780" x2="109" y1="434" y2="372" /><line stroke="rgb(176, 198, 165)" stroke-width="2.076215546551636" x1="647" x2="666" y1="452" y2="394" /><rect fill="none" height="28" stroke="rgb(224, 227, 47)" stroke-width="2.917314989826301" transform="rotate(115 888 246)" width="88" x="156" y="184" /><path d="M148,170 Q407,254 604,517 C10,304 682,23 245,155 Q183,212 451,138 L145,286" fill="none" stroke="rgb(143, 194, 58)" stroke-width="2.1199422192166852" /></svg>