<svg baseProfile="full" height="460px" version="1.1" width="642px" xmlns="http://www.w3.org/2000/svg" xmlns:ev="http://www.w3.org/2001/xml-events" xmlns:xlink="http://www.w3.org/1999/xlink"><defs /><rect fill="rgb(221, 235, 249)" height="460px" width="642px" x="0" y="0" /><circle cx="118" cy="79" fill="none" opacity="0.7476601554197604" r="72" stroke="rgb(207, 55, 169)" stroke-width="4.150786419224444" /><line stroke="rgb(237, 189, 248)" stroke-width="2.983510126256689" x1="229" x2="383" y1="361" y2="20" /><line stroke="rgb(13, 23, 119)" stroke-width="0.7905222845578886" x1="537" x2="47" y1="149" y2="144" /><line stroke="rgb(59, 223, 106)" stroke-width="1.3685661125168178" x1="318" x2="380" y1="231" y2="320" /><line stroke="rgb(191, 209, 49)" stroke-width="2.184637569104295" x1="182" x2="435" y1="439" y2="316" /><line stroke="rgb(101, 96, 94)" stroke-width="1.4647665800901009" x1="631" x2="239" y1="151" y2="244" /><line stroke="rgb(181, 76, 242)" stroke-width="2.0535689092170495" x1="264" x2="284" y1="152" y2="209" /><line stroke="rgb(51, 99, 75)" stroke-width="0.5754199917888707" x1="158" x2="78" y1="163" y2="222" /><path d="M264,358 C243,28 349,97 144,227 C187,413 636,287 358,337 C563,241 281,53 255,437 Q574,159 502,68 L416,59 Q213,75 132,46" fill="none" stroke="rgb(160, 227, 233)" stroke-width="1.2340537100558517" /><circle cx="527" cy="159" fill="none" opacity="0.34310710234287056" r="104" stroke="rgb(90, 236, 251)" stroke-width="3.0456495760512476" /><line stroke="rgb(31, 169, 143)" stroke-width="0.6231608135555595" x1="427" x2="515" y1="103" y2="265" /><line stroke="rgb(35, 221, 148)" stroke-width="2.831714502770976" x1="451" x2="402" y1="136" y2="210" /><line stroke="rgb(159, 214, 5)" stroke-width="2.432810957259542" x1="143" x2="519" y1="368" y2="196" /><line stroke="rgb(108, 74, 191)" stroke-width="0.6992683518433755" x1="413" x2="591" y1="261" y2="418" /><line stroke="rgb(137, 66, 39)" stroke-width="2.377594952281323" x1="85" x2="415" y1="48" y2="118" /><line stroke="rgb(167, 252, 78)" stroke-width="2.6240667752014994" x1="320" x2="1" y1="187" y2="368" /><line stroke="rgb(193, 89, 124)" stroke-width="2.8334497114387256" x1="22" x2="268" y1="302" y2="372" /><line stroke="rgb(27, 105, 34)" stroke-width="2.881336918470324" x1="152" x2="319" y1="1" y2="127" /><line stroke="rgb(22, 16, 225)" stroke-width="1.3698727244785283" x1="206" x2="177" y1="100" y2="82" /><line stroke="rgb(86, 242, 191)" stroke-width="1.810334718392256" x1="420" x2="71" y1="101" y2="303" /><line stroke="rgb(202, 80, 109)" stroke-width="0.5416437900540543" x1="451" x2="126" y1="76" y2="201" /><line stroke="rgb(183, 74, 196)" stroke-width="1.600671615988341" x1="585" x2="178" y1="167" y2="90" /><polygon fill="none" points="304,185 632,155 330,117 406,107 39,6" stroke="rgb(215, 182, 86)" stroke-width="3.7914296608964784" /><path d="M590,455 L278,308 C242,148 235,174 281,92 C549,386 193,251 604,160" fill="none" stroke="rgb(150, 155, 209)" stroke-width="0.6944377875187395" /><path d="M293,194 L463,237 C617,229 96,351 253,423 L199,450 C77,413 53,406 502,326 Q393,68 381,254" fill="none" stroke="rgb(91, 217, 180)" stroke-width="1.2953463757137023" /><path d="M230,2 Q294,165 185,227 L597,317 L363,45" fill="none" stroke="rgb(94, 84, 99)" stroke-width="2.9176719638692794" /><polygon fill="none" points="50,380 394,22 476,181" stroke="rgb(229, 118, 143)" stroke-width="2.949932148130155" /><polygon fill="none" points="65,239 51,121 421,451 319,257 225,179 19,303 432,16" stroke="rgb(194, 171, 163)" stroke-width="0.9768796941755835" /><polygon fill="none" points="1,23 260,375 33,119 308,107 476,62 143,53 182,230" stroke="rgb(142, 68, 175)" stroke-width="3.728970036057089" /><rect fill="none" height="65" stroke="rgb(153, 168, 123)" stroke-width="1.5984955437069526" transform="rotate(187 267 163)" width="57" x="121" y="325" /><rect fill="none" height="199" stroke="rgb(96, 212, 34)" stroke-width="1.0771597798428565" transform="rotate(210 353 244)" width="45" x="64" y="114" /><path d="M218,339 Q30,315 196,123 C78,146 110,148 259,150 L488,81 Q194,178 279,301 L160,395 C14,85 136,251 109,102 Q88,3 143,30" fill="none" stroke="rgb(16, 182, 211)" stroke-width="1.5610936936008115" /><circle cx="552" cy="262" fill="none" opacity="0.6229077994715819" r="54" stroke="rgb(66, 161, 110)" stroke-width="1.4518148421660886" /><rect fill="none" height="71" stroke="rgb(0, 64, 127)" stroke-width="4.806802078893532" transform="rotate(331 64 104)" width="132" x="198" y="281" /><rect fill="none" height="164" stroke="rgb(14, 61, 45)" stroke-width="4.268663642543432" transform="rotate(56 34 68)" width="102" x="317" y="191" /><circle cx="214" cy="352" fill="none" opacity="0.7801712574024853" r="66" stroke="rgb(178, 34, 11)" stroke-width="3.4249571746220853" /><polygon fill="none" points="368,324 74,176 192,263 19,310 346,424" stroke="rgb(182, 135, 126)" stroke-width="3.0753905472788556" /><circle cx="394" cy="340" fill="none" opacity="0.4297244181225497" r="86" stroke="rgb(242, 166, 38)" stroke-width="1.9526865096081099" /><polygon fill="none" points="55,337 470,210 35,46 534,30 105,364" stroke="rgb(178, 150, 135)" stroke-width="0.5431979283961481" /><circle cx="259" cy="150" fill="none" opacity="0.646822755921558" r="27" stroke="rgb(229, 250, 74)" stroke-width="1.6015127243849" /><path d="M206,26 L252,363 L609,103 Q488,436 226,198" fill="none" stroke="rgb(212, 153, 62)" stroke-width="1.3462710411121401" /><path d="M212,168 Q498,432 476,331 C526,374 349,426 512,354 C617,312 153,358 144,242 Q588,256 294,428 Q152,65 475,235 L446,116 Q476,305 380,23" fill="none" stroke="rgb(131, 173, 123)" stroke-width="1.8853036921676665" /><circle cx="262" cy="240" fill="none" opacity="0.7617544512432856" r="62" stroke="rgb(62, 237, 168)" stroke-width="3.3812997076365736" /><circle cx="547" cy="96" fill="none" opacity="0.6116502355222131" r="40" stroke="rgb(12, 63, 67)" stroke-width="1.945933642304683" /><polygon fill="none" points="484,430 157,382 164,262 280,194" stroke="rgb(77, 109, 193)" stroke-width="3.0172818656984157" /><circle cx="90" cy="212" fill="none" opacity="0.4971906723687528" r="104" stroke="rgb(111, 196, 191)" stroke-width="1.3941747072236863" /><line stroke="rgb(213, 18, 16)" stroke-width="1.6589591697722628" x1="242" x2="517" y1="346" y2="435" /><line stroke="rgb(159, 164, 1)" stroke-width="1.9152663045933025" x1="389" x2="306" y1="235" y2="453" /><line stroke="rgb(114, 253, 56)" stroke-width="2.492547010333068" x1="7" x2="612" y1="414" y2="246" /><line stroke="rgb(62, 254, 179)" stroke-width="0.5363028491786166" x1="319" x2="103" y1="334" y2="198" /><line stroke="rgb(98, 5, 215)" stroke-width="1.7637456967165166" x1="67" x2="126" y1="122" y2="322" /><line stroke="rgb(163, 48, 6)" stroke-width="1.041296970769332" x1="377" x2="59" y1="369" y2="358" /><line stroke="rgb(168, 80, 55)" stroke-width="0.6354699261358744" x1="245" x2="262" y1="367" y2="309" /><line stroke="rgb(21, 171, 84)" stroke-width="1.7219276190676396" x1="612" x2="78" y1="4" y2="442" /><line stroke="rgb(138, 218, 26)" stroke-width="2.2923471431883797" x1="545" x2="621" y1="220" y2="190" /><line stroke="rgb(202, 134, 152)" stroke-width="1.0079499324943326" x1="390" x2="291" y1="278" y2="5" /><line stroke="rgb(7, 160, 84)" stroke-width="2.1481387414702975" x1="195" x2="359" y1="311" y2="382" /><line stroke="rgb(56, 23, 139)" stroke-width="0.6202238368661801" x1="592" x2="552" y1="423" y2="99" /><line stroke="rgb(16, 228, 111)" stroke-width="2.6774995760890077" x1="141" x2="250" y1="271" y2="166" /><line stroke="rgb(19, 127, 112)" stroke-width="0.5112456858467744" x1="101" x2="475" y1="374" y2="272" /><line stroke="rgb(16, 198, 55)" stroke-width="0.892499479527507" x1="574" x2="216" y1="310" y2="212" /><line stroke="rgb(4, 222, 216)" stroke-width="2.8296041452835134" x1="391" x2="367" y1="232" y2="153" /><line stroke="rgb(122, 104, 138)" stroke-width="1.3341374382750957" x1="590" x2="582" y1="263" y2="21" /><line stroke="rgb(90, 27, 201)" stroke-width="2.6294383063650786" x1="421" x2="84" y1="318" y2="242" /><circle cx="331" cy="109" fill="none" opacity="0.4063109164187883" r="110" stroke="rgb(19, 9, 233)" stroke-width="2.4375584004894386" /><circle cx="187" cy="154" fill="none" opacity="0.31272177184277494" r="51" stroke="rgb(16, 240, 184)" stroke-width="1.8785205638657088" /></svg>