<svg baseProfile="full" height="752px" version="1.1" width="873px" xmlns="http://www.w3.org/2000/svg" xmlns:ev="http://www.w3.org/2001/xml-events" xmlns:xlink="http://www.w3.org/1999/xlink"><defs /><rect fill="rgb(252, 243, 224)" height="752px" width="873px" x="0" y="0" /><rect fill="none" height="115" stroke="rgb(14, 95, 2)" stroke-width="1.1209012197673605" transform="rotate(298 728 354)" width="118" x="199" y="274" /><rect fill="none" height="147" stroke="rgb(46, 160, 58)" stroke-width="1.7849610324565985" transform="rotate(213 836 415)" width="142" x="603" y="396" /><rect fill="none" height="101" stroke="rgb(180, 103, 65)" stroke-width="2.110664607832292" transform="rotate(339 6 211)" width="81" x="365" y="271" /><path d="M323,292 Q77,712 467,719 Q235,114 165,485 C505,131 512,215 214,673 L331,230 C129,414 681,231 185,664 C55,712 569,137 62,555 C657,136 562,684 426,281" fill="none" stroke="rgb(251, 56, 56)" stroke-width="0.7744826706957562" /><rect fill="none" height="114" stroke="rgb(144, 38, 64)" stroke-width="3.294632706405678" transform="rotate(134 77 220)" width="68" x="609" y="89" /><rect fill="none" height="21" stroke="rgb(235, 249, 52)" stroke-width="4.3057700638180325" transform="rotate(311 521 552)" width="38" x="484" y="132" /><line stroke="rgb(124, 75, 235)" stroke-width="1.4505035899403285" x1="619" x2="569" y1="132" y2="412" /><line stroke="rgb(72, 90, 148)" stroke-width="0.6045446797010539" x1="740" x2="581" y1="128" y2="341" /><line stroke="rgb(168, 44, 63)" stroke-width="2.334052404136447" x1="360" x2="799" y1="1" y2="712" /><line stroke="rgb(122, 47, 108)" stroke-width="2.0730901054031836" x1="831" x2="637" y1="178" y2="675" /><line stroke="rgb(166, 27, 128)" stroke-width="1.6726605851300635" x1="828" x2="4" y1="629" y2="304" /><line stroke="rgb(97, 122, 11)" stroke-width="1.5165672405835133" x1="381" x2="813" y1="23" y2="502" /><line stroke="rgb(136, 152, 164)" stroke-width="1.61725403666304" x1="518" x2="573" y1="128" y2="656" /><circle cx="219" cy="63" fill="none" opacity="0.6376975513179561" r="188" stroke="rgb(207, 83, 252)" stroke-width="3.4342059325940104" /><rect fill="none" height="181" stroke="rgb(124, 30, 13)" stroke-width="4.70652821954961" transform="rotate(112 112 86)" width="185" x="295" y="580" /><polygon fill="none" points="666,286 754,417 314,390 419,413 720,600 335,645 19,685 117,414" stroke="rgb(40, 243, 65)" stroke-width="1.0159382614028445" /><line stroke="rgb(186, 141, 81)" stroke-width="2.5171636712678707" x1="656" x2="322" y1="646" y2="514" /><line stroke="rgb(175, 157, 44)" stroke-width="2.4699147538180077" x1="564" x2="392" y1="498" y2="470" /><line stroke="rgb(34, 240, 159)" stroke-width="2.6628425416301895" x1="269" x2="766" y1="266" y2="615" /><line stroke="rgb(56, 44, 94)" stroke-width="2.574595978271813" x1="602" x2="572" y1="153" y2="158" /><line stroke="rgb(76, 112, 29)" stroke-width="1.8986042813248067" x1="519" x2="416" y1="553" y2="178" /><line stroke="rgb(106, 132, 131)" stroke-width="2.050356385335286" x1="603" x2="388" y1="453" y2="163" /><line stroke="rgb(186, 149, 51)" stroke-width="2.6380984363056093" x1="771" x2="547" y1="561" y2="244" /><line stroke="rgb(89, 43, 18)" stroke-width="2.7224887455459013" x1="50" x2="183" y1="117" y2="210" /><line stroke="rgb(100, 48, 96)" stroke-width="1.8856402306417452" x1="807" x2="62" y1="81" y2="43" /><line stroke="rgb(227, 241, 3)" stroke-width="1.3034102239057814" x1="475" x2="423" y1="720" y2="628" /><line stroke="rgb(44, 30, 24)" stroke-width="2.508860741942808" x1="705" x2="747" y1="573" y2="536" /><line stroke="rgb(69, 50, 213)" stroke-width="1.4535244817009407" x1="485" x2="108" y1="655" y2="599" /><line stroke="rgb(221, 202, 75)" stroke-width="2.996642790159313" x1="717" x2="33" y1="432" y2="633" /><line stroke="rgb(1, 70, 176)" stroke-width="0.8634564507667443" x1="291" x2="687" y1="70" y2="618" /><line stroke="rgb(241, 112, 98)" stroke-width="2.132286210855929" x1="283" x2="729" y1="538" y2="10" /><circle cx="672" cy="618" fill="none" opacity="0.7373705535133239" r="73" stroke="rgb(129, 212, 168)" stroke-width="2.155671670174515" /><rect fill="none" height="106" stroke="rgb(235, 230, 51)" stroke-width="1.9516507375688508" transform="rotate(166 365 606)" width="107" x="696" y="325" /><path d="M526,19 Q210,616 686,470 L726,343 C118,129 544,131 131,278 Q538,592 441,86 Q3,282 313,327 C823,113 670,82 520,747 L729,479" fill="none" stroke="rgb(109, 43, 250)" stroke-width="1.6554292152059173" /><polygon fill="none" points="137,4 71,330 709,31 397,256 656,664 846,626 159,694 233,90" stroke="rgb(202, 91, 217)" stroke-width="3.9374717300396775" /><polygon fill="none" points="681,264 469,59 325,210 362,367 666,149 849,532 43,562" stroke="rgb(78, 211, 70)" stroke-width="2.7651461670476083" /></svg>