<svg baseProfile="full" height="654px" version="1.1" width="670px" xmlns="http://www.w3.org/2000/svg" xmlns:ev="http://www.w3.org/2001/xml-events" xmlns:xlink="http://www.w3.org/1999/xlink"><defs /><rect fill="rgb(246, 231, 211)" height="654px" width="670px" x="0" y="0" /><line stroke="rgb(228, 87, 244)" stroke-width="1.2189126220001802" x1="187" x2="634" y1="110" y2="445" /><line stroke="rgb(218, 116, 38)" stroke-width="2.3812195552804405" x1="21" x2="312" y1="330" y2="443" /><line stroke="rgb(25, 60, 203)" stroke-width="2.8310964221893125" x1="186" x2="212" y1="86" y2="74" /><line stroke="rgb(203, 121, 227)" stroke-width="0.980632623691955" x1="506" x2="79" y1="466" y2="99" /><line stroke="rgb(117, 244, 195)" stroke-width="1.842042284610839" x1="335" x2="294" y1="28" y2="546" /><line stroke="rgb(228, 67, 188)" stroke-width="1.9362273571284703" x1="201" x2="564" y1="122" y2="648" /><line stroke="rgb(111, 214, 121)" stroke-width="1.4838767233700731" x1="65" x2="364" y1="68" y2="635" /><line stroke="rgb(232, 178, 56)" stroke-width="1.4889854248097483" x1="326" x2="375" y1="472" y2="324" /><rect fill="none" height="70" stroke="rgb(99, 173, 34)" stroke-width="2.016103337365516" transform="rotate(46 647 450)" width="133" x="72" y="371" /><circle cx="452" cy="451" fill="none" opacity="0.429211961641533" r="137" stroke="rgb(2, 85, 92)" stroke-width="4.486912771948795" /><rect fill="none" height="30" stroke="rgb(254, 198, 176)" stroke-width="3.7925196361703684" transform="rotate(347 460 398)" width="150" x="270" y="183" /><polygon fill="none" points="605,296 43,244 445,157 352,53 140,151 500,581 573,623" stroke="rgb(78, 218, 180)" stroke-width="3.7615713899663152" /><polygon fill="none" points="49,64 130,378 496,40 447,630" stroke="rgb(88, 110, 129)" stroke-width="0.6962464040360012" /><path d="M77,13 Q415,554 144,623 C240,41 412,341 447,652 L141,596 C613,425 578,493 96,467 C662,565 255,155 79,236 C14,457 322,334 272,452 Q275,571 69,187" fill="none" stroke="rgb(103, 126, 227)" stroke-width="1.2357025133356145" /><path d="M115,594 Q656,209 31,200 C574,186 442,283 644,127 C127,575 57,391 586,243 C233,181 587,638 201,142" fill="none" stroke="rgb(137, 18, 105)" stroke-width="2.3070388206809005" /><circle cx="268" cy="537" fill="none" opacity="0.8566451253939744" r="55" stroke="rgb(198, 48, 196)" stroke-width="1.7167020799602697" /><path d="M327,365 Q396,303 339,365 C559,252 44,86 260,244 L549,122 L578,238 Q94,182 129,598 C340,517 241,392 602,558 L119,482" fill="none" stroke="rgb(33, 152, 22)" stroke-width="2.727535331332379" /><line stroke="rgb(44, 189, 127)" stroke-width="2.7683107679310575" x1="255" x2="374" y1="290" y2="154" /><line stroke="rgb(98, 58, 251)" stroke-width="2.0694646793097964" x1="656" x2="657" y1="484" y2="514" /><line stroke="rgb(235, 206, 57)" stroke-width="2.2358335566280525" x1="141" x2="200" y1="302" y2="42" /><line stroke="rgb(14, 31, 37)" stroke-width="1.340435351680315" x1="205" x2="347" y1="402" y2="585" /><line stroke="rgb(101, 70, 175)" stroke-width="2.9366074181477897" x1="132" x2="402" y1="22" y2="135" /><line stroke="rgb(245, 23, 189)" stroke-width="2.5722295065387004" x1="104" x2="78" y1="507" y2="385" /><line stroke="rgb(137, 192, 107)" stroke-width="2.2603001095689135" x1="251" x2="618" y1="584" y2="357" /><line stroke="rgb(96, 60, 216)" stroke-width="2.5968047300224324" x1="200" x2="420" y1="542" y2="88" /><line stroke="rgb(21, 35, 240)" stroke-width="2.96526382024423" x1="128" x2="466" y1="429" y2="257" /><path d="M174,511 C70,598 368,574 229,615 L18,48 L535,490 C6,378 160,542 459,547 Q552,343 420,4 C12,281 641,583 508,410" fill="none" stroke="rgb(139, 123, 92)" stroke-width="1.5565371128595924" /><line stroke="rgb(167, 217, 11)" stroke-width="1.9634909987876794" x1="513" x2="240" y1="181" y2="322" /><line stroke="rgb(18, 94, 110)" stroke-width="2.703606215616189" x1="214" x2="494" y1="410" y2="134" /><line stroke="rgb(170, 149, 139)" stroke-width="2.7851148480048318" x1="51" x2="482" y1="485" y2="541" /><line stroke="rgb(246, 2, 74)" stroke-width="2.4352553474070993" x1="287" x2="365" y1="160" y2="278" /><line stroke="rgb(26, 245, 184)" stroke-width="1.6047131786554798" x1="152" x2="482" y1="391" y2="22" /><line stroke="rgb(8, 64, 165)" stroke-width="2.190035984128518" x1="561" x2="227" y1="558" y2="325" /><line stroke="rgb(254, 76, 24)" stroke-width="0.6388812712951479" x1="193" x2="231" y1="378" y2="276" /><line stroke="rgb(9, 178, 198)" stroke-width="1.3113191842014558" x1="339" x2="625" y1="451" y2="140" /><line stroke="rgb(8, 121, 102)" stroke-width="1.0641231385817125" x1="356" x2="101" y1="71" y2="639" /><circle cx="613" cy="52" fill="none" opacity="0.7388610678767186" r="22" stroke="rgb(98, 6, 42)" stroke-width="0.8422559105705894" /><path d="M669,204 C9,544 324,323 559,247 C546,271 187,237 57,406 Q173,604 373,424 C426,90 133,456 157,623 Q294,331 567,588 C43,349 314,414 626,531 C530,138 251,321 195,295" fill="none" stroke="rgb(228, 8, 12)" stroke-width="2.4451194693302947" /><line stroke="rgb(68, 93, 77)" stroke-width="1.7313420818217458" x1="503" x2="226" y1="428" y2="222" /><line stroke="rgb(203, 104, 135)" stroke-width="2.113794910691922" x1="142" x2="357" y1="18" y2="362" /><line stroke="rgb(100, 16, 37)" stroke-width="0.8821203952178396" x1="67" x2="212" y1="234" y2="208" /><line stroke="rgb(10, 123, 101)" stroke-width="2.2441480483256555" x1="41" x2="91" y1="61" y2="161" /><line stroke="rgb(208, 99, 99)" stroke-width="0.7704840768837546" x1="149" x2="511" y1="465" y2="470" /><line stroke="rgb(116, 104, 242)" stroke-width="1.5762739281503444" x1="493" x2="546" y1="209" y2="554" /><line stroke="rgb(252, 162, 95)" stroke-width="0.9618405586103382" x1="86" x2="437" y1="120" y2="341" /><line stroke="rgb(14, 121, 192)" stroke-width="1.832934123125956" x1="62" x2="454" y1="163" y2="566" /><line stroke="rgb(41, 83, 50)" stroke-width="2.8198021087132643" x1="456" x2="406" y1="37" y2="119" /><line stroke="rgb(83, 240, 82)" stroke-width="2.954002807891105" x1="556" x2="285" y1="5" y2="65" /><line stroke="rgb(160, 220, 194)" stroke-width="0.6516683235742153" x1="155" x2="351" y1="131" y2="143" /><line stroke="rgb(1, 87, 36)" stroke-width="2.7412241107564714" x1="620" x2="148" y1="526" y2="73" /><circle cx="59" cy="111" fill="none" opacity="0.9325376329785477" r="88" stroke="rgb(157, 100, 140)" stroke-width="4.3679480366692545" /><circle cx="164" cy="307" fill="none" opacity="0.316127278660805" r="56" stroke="rgb(102, 197, 50)" stroke-width="4.552918680847463" /><polygon fill="none" points="437,482 398,45 215,622 32,222 547,121 464,370 337,484 68,128" stroke="rgb(200, 182, 40)" stroke-width="3.2683778583804672" /><path d="M546,575 C646,287 429,477 113,463 C85,344 479,325 668,213 C421,420 375,208 395,96 L610,287" fill="none" stroke="rgb(137, 140, 25)" stroke-width="1.2357481960574217" /><rect fill="none" height="124" stroke="rgb(196, 162, 178)" stroke-width="1.0993000087658524" transform="rotate(70 663 10)" width="182" x="137" y="259" /><polygon fill="none" points="517,172 20,224 372,179 316,210 641,502 238,549 63,399 154,339" stroke="rgb(74, 159, 17)" stroke-width="2.9417446574782495" /><line stroke="rgb(163, 167, 8)" stroke-width="2.483515404351642" x1="617" x2="171" y1="617" y2="361" /><line stroke="rgb(164, 15, 124)" stroke-width="1.0703516154894392" x1="501" x2="373" y1="498" y2="507" /><line stroke="rgb(240, 212, 172)" stroke-width="1.7567130431639457" x1="297" x2="525" y1="305" y2="56" /><line stroke="rgb(157, 132, 101)" stroke-width="1.1299576997435898" x1="482" x2="364" y1="251" y2="444" /><line stroke="rgb(72, 125, 105)" stroke-width="1.8541750845456715" x1="370" x2="287" y1="163" y2="339" /><path d="M153,633 Q320,535 341,298 L346,477 L287,629 C285,647 48,165 296,442 Q225,298 179,409 L70,619" fill="none" stroke="rgb(149, 33, 213)" stroke-width="2.6705047367119845" /><line stroke="rgb(67, 206, 72)" stroke-width="2.7233094872269015" x1="45" x2="11" y1="132" y2="13" /><line stroke="rgb(70, 150, 97)" stroke-width="2.8257314736713344" x1="131" x2="611" y1="303" y2="158" /><line stroke="rgb(8, 246, 64)" stroke-width="2.8147501280353318" x1="184" x2="381" y1="542" y2="600" /><line stroke="rgb(26, 167, 99)" stroke-width="2.9713685633225495" x1="219" x2="21" y1="358" y2="370" /><rect fill="none" height="165" stroke="rgb(227, 9, 231)" stroke-width="4.293593658232989" transform="rotate(232 512 89)" width="148" x="83" y="162" /><path d="M249,52 Q631,576 569,189 C201,370 168,370 513,103 C58,111 132,163 393,551 L72,297 L105,510 L387,415" fill="none" stroke="rgb(85, 129, 224)" stroke-width="1.2859381210025527" /><polygon fill="none" points="428,637 549,402 381,330 303,488 608,423 30,181 270,474 524,248" stroke="rgb(52, 150, 144)" stroke-width="2.5004126274656198" /><rect fill="none" height="39" stroke="rgb(145, 46, 22)" stroke-width="3.8371744600160396" transform="rotate(247 316 234)" width="66" x="318" y="310" /><rect fill="none" height="36" stroke="rgb(178, 187, 225)" stroke-width="4.601228114541673" transform="rotate(286 40 49)" width="147" x="321" y="363" /><path d="M341,643 C576,260 649,653 244,365 Q82,180 66,263 C538,277 616,118 112,625 L20,550" fill="none" stroke="rgb(217, 221, 119)" stroke-width="2.6823213472308414" /><line stroke="rgb(130, 153, 110)" stroke-width="1.1449061934686426" x1="457" x2="623" y1="118" y2="612" /><line stroke="rgb(17, 231, 203)" stroke-width="0.5224159659646583" x1="478" x2="171" y1="309" y2="248" /><line stroke="rgb(9, 242, 164)" stroke-width="1.887381139637367" x1="142" x2="248" y1="162" y2="233" /><path d="M37,410 Q222,505 644,448 L508,57 L418,142 Q416,597 517,288 L226,340 Q112,46 188,103" fill="none" stroke="rgb(141, 150, 106)" stroke-width="1.546091897831984" /><line stroke="rgb(188, 172, 226)" stroke-width="2.7274823718172394" x1="270" x2="360" y1="619" y2="348" /><line stroke="rgb(184, 246, 127)" stroke-width="2.0490369742032333" x1="537" x2="222" y1="268" y2="260" /><line stroke="rgb(218, 34, 15)" stroke-width="2.930871584265662" x1="235" x2="456" y1="159" y2="366" /></svg>