<svg baseProfile="full" height="573px" version="1.1" width="807px" xmlns="http://www.w3.org/2000/svg" xmlns:ev="http://www.w3.org/2001/xml-events" xmlns:xlink="http://www.w3.org/1999/xlink"><defs /><rect fill="rgb(219, 255, 251)" height="573px" width="807px" x="0" y="0" /><circle cx="570" cy="213" fill="none" opacity="0.6232710945813145" r="141" stroke="rgb(25, 156, 140)" stroke-width="4.540490120870956" /><rect fill="none" height="21" stroke="rgb(165, 32, 30)" stroke-width="0.543724124190891" transform="rotate(197 594 360)" width="192" x="490" y="423" /><rect fill="none" height="158" stroke="rgb(37, 222, 209)" stroke-width="0.783919705668918" transform="rotate(253 742 140)" width="157" x="26" y="81" /><line stroke="rgb(73, 100, 210)" stroke-width="1.2529367474005968" x1="418" x2="727" y1="544" y2="414" /><line stroke="rgb(216, 245, 104)" stroke-width="0.9439114172131511" x1="536" x2="688" y1="51" y2="255" /><line stroke="rgb(254, 210, 199)" stroke-width="2.161880122705844" x1="135" x2="349" y1="402" y2="95" /><line stroke="rgb(102, 219, 143)" stroke-width="0.7219283025839863" x1="684" x2="486" y1="395" y2="178" /><line stroke="rgb(21, 151, 185)" stroke-width="2.980364857436296" x1="367" x2="45" y1="58" y2="462" /><line stroke="rgb(1, 37, 34)" stroke-width="1.5218250646059224" x1="148" x2="718" y1="146" y2="495" /><line stroke="rgb(240, 40, 11)" stroke-width="1.3908255238174672" x1="181" x2="178" y1="262" y2="113" /><line stroke="rgb(95, 220, 154)" stroke-width="1.9512062014787044" x1="684" x2="178" y1="567" y2="567" /><line stroke="rgb(16, 77, 92)" stroke-width="1.7834359281802703" x1="568" x2="326" y1="299" y2="406" /><line stroke="rgb(106, 254, 239)" stroke-width="1.9721394374450545" x1="153" x2="52" y1="571" y2="563" /><line stroke="rgb(200, 62, 221)" stroke-width="0.8242640371380978" x1="12" x2="749" y1="117" y2="302" /><line stroke="rgb(229, 102, 63)" stroke-width="2.4990583506126285" x1="0" x2="768" y1="397" y2="181" /><line stroke="rgb(12, 70, 60)" stroke-width="0.9105193264862781" x1="499" x2="619" y1="110" y2="9" /><line stroke="rgb(183, 75, 11)" stroke-width="2.9739144572472123" x1="249" x2="133" y1="154" y2="221" /><line stroke="rgb(209, 23, 140)" stroke-width="2.151259736186735" x1="501" x2="423" y1="299" y2="309" /><line stroke="rgb(137, 19, 117)" stroke-width="1.1173951050289161" x1="498" x2="757" y1="378" y2="316" /><line stroke="rgb(91, 24, 227)" stroke-width="1.469048044193685" x1="619" x2="619" y1="532" y2="160" /><line stroke="rgb(115, 104, 188)" stroke-width="1.9843816017251512" x1="47" x2="16" y1="229" y2="403" /><line stroke="rgb(150, 160, 148)" stroke-width="0.755587627123019" x1="727" x2="615" y1="0" y2="346" /><line stroke="rgb(173, 237, 151)" stroke-width="2.350586990357914" x1="626" x2="495" y1="2" y2="340" /><line stroke="rgb(84, 69, 254)" stroke-width="2.295350748965313" x1="287" x2="98" y1="456" y2="239" /><line stroke="rgb(197, 178, 18)" stroke-width="1.832814518254613" x1="34" x2="674" y1="302" y2="470" /><line stroke="rgb(18, 150, 239)" stroke-width="2.313617645133302" x1="84" x2="34" y1="154" y2="44" /><line stroke="rgb(147, 251, 105)" stroke-width="2.809656957448054" x1="680" x2="104" y1="256" y2="247" /><polygon fill="none" points="434,399 82,261 686,551" stroke="rgb(54, 27, 254)" stroke-width="3.486749507369688" /><rect fill="none" height="48" stroke="rgb(216, 0, 218)" stroke-width="2.378366925997662" transform="rotate(212 112 108)" width="153" x="72" y="121" /><rect fill="none" height="146" stroke="rgb(51, 246, 170)" stroke-width="1.51444052268118" transform="rotate(129 91 525)" width="20" x="113" y="288" /><rect fill="none" height="85" stroke="rgb(29, 98, 32)" stroke-width="0.8849576492994238" transform="rotate(169 586 534)" width="144" x="23" y="33" /><line stroke="rgb(28, 56, 101)" stroke-width="2.3118881931384143" x1="555" x2="598" y1="493" y2="289" /><line stroke="rgb(84, 147, 223)" stroke-width="1.4533073849160845" x1="534" x2="603" y1="341" y2="472" /><line stroke="rgb(128, 45, 105)" stroke-width="1.4174780673144045" x1="577" x2="285" y1="360" y2="184" /><line stroke="rgb(37, 13, 30)" stroke-width="1.7433937026713195" x1="734" x2="521" y1="39" y2="204" /><line stroke="rgb(68, 106, 207)" stroke-width="1.671533733314952" x1="766" x2="92" y1="256" y2="67" /><line stroke="rgb(81, 82, 218)" stroke-width="2.8797649451558676" x1="296" x2="155" y1="206" y2="549" /><line stroke="rgb(9, 6, 241)" stroke-width="2.7132597744539324" x1="694" x2="35" y1="443" y2="497" /><line stroke="rgb(78, 152, 135)" stroke-width="2.301644635994732" x1="471" x2="499" y1="302" y2="491" /><line stroke="rgb(146, 173, 178)" stroke-width="2.5675282205443692" x1="560" x2="175" y1="486" y2="15" /><line stroke="rgb(77, 151, 142)" stroke-width="1.9355056519480867" x1="52" x2="296" y1="229" y2="247" /><circle cx="241" cy="471" fill="none" opacity="0.833227899659172" r="36" stroke="rgb(94, 200, 254)" stroke-width="3.311222341944787" /><line stroke="rgb(130, 226, 226)" stroke-width="1.070741912120996" x1="43" x2="685" y1="403" y2="314" /><line stroke="rgb(36, 67, 240)" stroke-width="2.5834589503102996" x1="202" x2="522" y1="9" y2="187" /><line stroke="rgb(185, 4, 242)" stroke-width="2.775336808698674" x1="534" x2="385" y1="479" y2="88" /><line stroke="rgb(40, 157, 229)" stroke-width="2.22659033055836" x1="71" x2="327" y1="218" y2="400" /><line stroke="rgb(183, 113, 16)" stroke-width="0.71319586437271" x1="608" x2="301" y1="458" y2="106" /><line stroke="rgb(17, 124, 91)" stroke-width="2.7556102493558137" x1="7" x2="380" y1="477" y2="440" /></svg>