<svg baseProfile="full" height="629px" version="1.1" width="1015px" xmlns="http://www.w3.org/2000/svg" xmlns:ev="http://www.w3.org/2001/xml-events" xmlns:xlink="http://www.w3.org/1999/xlink"><defs /><rect fill="rgb(223, 232, 216)" height="629px" width="1015px" x="0" y="0" /><path d="M807,114 C324,84 92,63 156,321 Q151,49 825,161 Q500,389 265,287" fill="none" stroke="rgb(96, 176, 61)" stroke-width="2.4356795525557993" /><path d="M802,244 L413,299 C862,623 599,349 932,498 C35,19 961,484 125,239 Q76,496 828,161 L299,434 C520,427 477,277 589,525" fill="none" stroke="rgb(202, 161, 28)" stroke-width="2.9766134904837953" /><path d="M336,189 Q872,188 873,21 Q656,552 140,555 C77,626 231,395 162,612 Q902,453 402,294 L114,450 C1004,108 954,276 874,211" fill="none" stroke="rgb(0, 108, 112)" stroke-width="2.374718238324355" /><line stroke="rgb(68, 100, 184)" stroke-width="0.9334818606300708" x1="662" x2="788" y1="474" y2="147" /><line stroke="rgb(114, 221, 215)" stroke-width="1.1547199117529563" x1="771" x2="497" y1="149" y2="472" /><line stroke="rgb(182, 244, 102)" stroke-width="1.9130343647639232" x1="826" x2="378" y1="507" y2="585" /><line stroke="rgb(49, 69, 42)" stroke-width="0.5249205330022337" x1="8" x2="655" y1="179" y2="378" /><line stroke="rgb(132, 236, 249)" stroke-width="0.5128682814805475" x1="864" x2="358" y1="449" y2="323" /><line stroke="rgb(169, 13, 57)" stroke-width="2.693311797086122" x1="718" x2="236" y1="218" y2="189" /><line stroke="rgb(246, 201, 236)" stroke-width="2.0798348439397154" x1="0" x2="24" y1="310" y2="509" /><line stroke="rgb(184, 217, 73)" stroke-width="1.1820857101940039" x1="59" x2="743" y1="292" y2="54" /><line stroke="rgb(92, 140, 155)" stroke-width="1.4766095106057902" x1="272" x2="699" y1="302" y2="397" /><rect fill="none" height="82" stroke="rgb(21, 126, 180)" stroke-width="1.3075410240211296" transform="rotate(172 278 273)" width="55" x="744" y="165" /><line stroke="rgb(174, 97, 76)" stroke-width="1.0378408883091248" x1="176" x2="819" y1="199" y2="520" /><line stroke="rgb(155, 140, 249)" stroke-width="1.0587044359692783" x1="603" x2="142" y1="595" y2="10" /><line stroke="rgb(123, 213, 30)" stroke-width="1.0695586033978977" x1="479" x2="826" y1="426" y2="123" /><line stroke="rgb(76, 214, 251)" stroke-width="0.6012424932416909" x1="840" x2="905" y1="182" y2="26" /><line stroke="rgb(38, 158, 220)" stroke-width="1.272189998900824" x1="172" x2="137" y1="71" y2="481" /><line stroke="rgb(238, 50, 0)" stroke-width="0.633499208871938" x1="688" x2="779" y1="362" y2="506" /><line stroke="rgb(60, 149, 147)" stroke-width="1.6855859029446492" x1="118" x2="116" y1="395" y2="137" /><path d="M435,457 L770,167 Q545,320 867,7 C496,215 591,259 907,94 L1003,490 L515,490 Q157,278 271,116 Q2,14 485,322" fill="none" stroke="rgb(71, 5, 90)" stroke-width="0.9690836225693545" /><path d="M981,277 L683,432 Q899,569 672,151 L934,156 L906,172 L199,60" fill="none" stroke="rgb(159, 247, 16)" stroke-width="2.296260690732968" /><circle cx="388" cy="241" fill="none" opacity="0.8634711592550846" r="30" stroke="rgb(51, 202, 249)" stroke-width="2.816979439995775" /><line stroke="rgb(51, 158, 97)" stroke-width="2.6388653304863587" x1="703" x2="306" y1="373" y2="321" /><line stroke="rgb(200, 48, 148)" stroke-width="1.4245913507292223" x1="658" x2="512" y1="289" y2="455" /><line stroke="rgb(60, 170, 33)" stroke-width="2.946516875876987" x1="902" x2="262" y1="114" y2="101" /><line stroke="rgb(224, 83, 94)" stroke-width="2.2300971005231274" x1="995" x2="331" y1="520" y2="409" /><line stroke="rgb(132, 231, 4)" stroke-width="2.5158983286749548" x1="37" x2="466" y1="432" y2="592" /><line stroke="rgb(52, 236, 177)" stroke-width="2.243489855567715" x1="19" x2="294" y1="538" y2="572" /><line stroke="rgb(216, 196, 230)" stroke-width="2.3801287874096024" x1="979" x2="183" y1="26" y2="605" /><line stroke="rgb(194, 96, 206)" stroke-width="2.0911832784171787" x1="682" x2="605" y1="347" y2="223" /><line stroke="rgb(11, 103, 17)" stroke-width="0.8248944645430002" x1="792" x2="384" y1="584" y2="150" /><path d="M198,535 C338,165 419,119 627,166 Q843,513 587,583 Q730,116 275,403 L381,324" fill="none" stroke="rgb(0, 114, 251)" stroke-width="0.8926578378016482" /><polygon fill="none" points="344,52 522,241 839,29 152,496 126,604" stroke="rgb(220, 219, 248)" stroke-width="2.6184342526701343" /><path d="M372,562 C658,625 283,142 1013,148 L558,371 Q1015,219 996,628" fill="none" stroke="rgb(37, 199, 223)" stroke-width="2.288356674559516" /><polygon fill="none" points="46,607 561,208 299,71" stroke="rgb(115, 143, 119)" stroke-width="3.600563529799557" /><polygon fill="none" points="133,402 146,390 910,427 997,13 581,70 997,514 875,514" stroke="rgb(26, 55, 77)" stroke-width="1.3927837028407706" /><circle cx="188" cy="200" fill="none" opacity="0.9141277440896891" r="137" stroke="rgb(147, 101, 128)" stroke-width="1.2653103270120856" /><rect fill="none" height="61" stroke="rgb(223, 140, 240)" stroke-width="4.823720710488005" transform="rotate(230 530 525)" width="101" x="726" y="477" /><rect fill="none" height="180" stroke="rgb(152, 80, 100)" stroke-width="0.5424243410796579" transform="rotate(223 511 436)" width="160" x="618" y="495" /><rect fill="none" height="69" stroke="rgb(61, 250, 232)" stroke-width="4.730881231618459" transform="rotate(24 797 625)" width="89" x="425" y="438" /><line stroke="rgb(181, 160, 21)" stroke-width="0.828388321166815" x1="329" x2="345" y1="234" y2="496" /><line stroke="rgb(58, 96, 66)" stroke-width="2.1411866568516666" x1="349" x2="305" y1="38" y2="157" /><line stroke="rgb(210, 7, 247)" stroke-width="1.0161077509542054" x1="254" x2="676" y1="417" y2="278" /><rect fill="none" height="104" stroke="rgb(147, 185, 232)" stroke-width="4.203802852522099" transform="rotate(142 93 235)" width="173" x="371" y="246" /><polygon fill="none" points="233,380 385,391 693,27 487,465 602,609 258,139 716,85 710,222" stroke="rgb(231, 208, 39)" stroke-width="1.98671461202976" /><polygon fill="none" points="997,79 584,578 113,48 147,546 120,280 22,462 717,515" stroke="rgb(163, 0, 195)" stroke-width="2.8946758236556276" /><polygon fill="none" points="185,123 547,594 624,12 455,430 390,561 203,225 858,570 266,190" stroke="rgb(17, 36, 117)" stroke-width="2.248157334223506" /><line stroke="rgb(150, 48, 185)" stroke-width="1.2734680721600546" x1="787" x2="376" y1="99" y2="395" /><line stroke="rgb(124, 131, 90)" stroke-width="1.3741356574492343" x1="179" x2="453" y1="480" y2="14" /><line stroke="rgb(141, 169, 174)" stroke-width="1.5914221593714566" x1="336" x2="293" y1="300" y2="152" /><line stroke="rgb(150, 244, 173)" stroke-width="1.51773730210977" x1="218" x2="967" y1="186" y2="27" /><line stroke="rgb(217, 94, 252)" stroke-width="2.3254929038470102" x1="501" x2="298" y1="292" y2="462" /><line stroke="rgb(109, 49, 94)" stroke-width="1.8906697537219135" x1="647" x2="968" y1="251" y2="454" /><line stroke="rgb(111, 212, 220)" stroke-width="2.9898838652183546" x1="291" x2="162" y1="77" y2="88" /><line stroke="rgb(132, 76, 228)" stroke-width="1.1985457807606044" x1="962" x2="39" y1="266" y2="41" /><line stroke="rgb(90, 154, 232)" stroke-width="1.2175085877265783" x1="888" x2="717" y1="86" y2="610" /><line stroke="rgb(23, 61, 215)" stroke-width="1.0569853547437607" x1="417" x2="771" y1="87" y2="338" /><polygon fill="none" points="940,495 1011,167 725,592 930,258" stroke="rgb(190, 71, 240)" stroke-width="3.691670120080008" /><line stroke="rgb(178, 131, 219)" stroke-width="2.0185263074584823" x1="29" x2="25" y1="480" y2="371" /><line stroke="rgb(4, 156, 52)" stroke-width="1.710608518878567" x1="417" x2="984" y1="224" y2="157" /><line stroke="rgb(147, 169, 61)" stroke-width="0.6973717851563415" x1="574" x2="358" y1="167" y2="258" /><line stroke="rgb(128, 144, 237)" stroke-width="2.8884019958755287" x1="474" x2="923" y1="212" y2="292" /><line stroke="rgb(79, 84, 228)" stroke-width="1.6747444224877632" x1="941" x2="670" y1="313" y2="431" /><circle cx="471" cy="521" fill="none" opacity="0.9602924249848994" r="132" stroke="rgb(221, 252, 33)" stroke-width="3.29695776677295" /></svg>