<svg baseProfile="full" height="587px" version="1.1" width="944px" xmlns="http://www.w3.org/2000/svg" xmlns:ev="http://www.w3.org/2001/xml-events" xmlns:xlink="http://www.w3.org/1999/xlink"><defs /><rect fill="rgb(201, 254, 240)" height="587px" width="944px" x="0" y="0" /><circle cx="457" cy="509" fill="none" opacity="0.8510101240067776" r="122" stroke="rgb(146, 22, 188)" stroke-width="4.183030730136798" /><polygon fill="none" points="477,307 380,526 193,111 479,115 322,60 849,76" stroke="rgb(35, 0, 2)" stroke-width="1.4638250983888812" /><path d="M588,331 Q192,402 107,393 C908,304 883,154 799,539 C831,509 132,509 528,486" fill="none" stroke="rgb(202, 221, 217)" stroke-width="2.6320084939284576" /><rect fill="none" height="112" stroke="rgb(171, 127, 155)" stroke-width="2.1258586458411917" transform="rotate(225 154 128)" width="198" x="356" y="155" /><polygon fill="none" points="941,104 761,305 337,123 786,462 846,389 568,408 924,68" stroke="rgb(205, 192, 195)" stroke-width="1.9224663582364556" /><line stroke="rgb(111, 82, 176)" stroke-width="1.9168634289536708" x1="580" x2="39" y1="19" y2="155" /><line stroke="rgb(33, 154, 49)" stroke-width="2.2006970631503027" x1="257" x2="682" y1="163" y2="250" /><line stroke="rgb(154, 97, 31)" stroke-width="1.9844682264500755" x1="478" x2="452" y1="543" y2="175" /><line stroke="rgb(119, 245, 109)" stroke-width="1.1266460211843632" x1="417" x2="596" y1="558" y2="468" /><line stroke="rgb(75, 78, 19)" stroke-width="1.7346014948034818" x1="273" x2="729" y1="194" y2="37" /><line stroke="rgb(199, 69, 191)" stroke-width="0.9585074827076041" x1="830" x2="732" y1="540" y2="204" /><line stroke="rgb(151, 26, 196)" stroke-width="2.383953862256333" x1="739" x2="713" y1="323" y2="51" /><line stroke="rgb(198, 31, 185)" stroke-width="2.244405629884205" x1="789" x2="392" y1="322" y2="308" /><line stroke="rgb(156, 233, 119)" stroke-width="1.0430663438740504" x1="725" x2="911" y1="571" y2="112" /><line stroke="rgb(108, 221, 59)" stroke-width="0.7788726187585668" x1="718" x2="136" y1="382" y2="406" /><line stroke="rgb(41, 207, 237)" stroke-width="0.8219336817102505" x1="455" x2="453" y1="462" y2="81" /><line stroke="rgb(2, 41, 242)" stroke-width="1.5322675981334313" x1="274" x2="334" y1="50" y2="137" /><line stroke="rgb(19, 35, 27)" stroke-width="2.1252997968324174" x1="6" x2="483" y1="305" y2="115" /><line stroke="rgb(227, 76, 215)" stroke-width="0.677741406929649" x1="924" x2="142" y1="362" y2="260" /><line stroke="rgb(31, 12, 150)" stroke-width="2.2688739944531315" x1="879" x2="270" y1="564" y2="123" /><rect fill="none" height="32" stroke="rgb(104, 233, 57)" stroke-width="1.967862230505876" transform="rotate(298 855 467)" width="79" x="541" y="411" /><rect fill="none" height="43" stroke="rgb(167, 200, 148)" stroke-width="3.4504436814212305" transform="rotate(15 877 107)" width="40" x="135" y="428" /><line stroke="rgb(241, 229, 8)" stroke-width="2.4176479332132654" x1="456" x2="221" y1="278" y2="131" /><line stroke="rgb(97, 94, 122)" stroke-width="2.4750795878105545" x1="452" x2="654" y1="501" y2="339" /><line stroke="rgb(1, 243, 154)" stroke-width="1.6389336764456548" x1="782" x2="680" y1="486" y2="147" /><rect fill="none" height="80" stroke="rgb(122, 78, 32)" stroke-width="4.499396919168981" transform="rotate(84 923 19)" width="199" x="201" y="280" /><circle cx="105" cy="270" fill="none" opacity="0.9810607188867573" r="32" stroke="rgb(180, 124, 253)" stroke-width="2.8509306507766556" /><circle cx="380" cy="67" fill="none" opacity="0.9781715353416327" r="146" stroke="rgb(235, 241, 158)" stroke-width="3.209357309513175" /><rect fill="none" height="178" stroke="rgb(147, 144, 28)" stroke-width="3.269079996916891" transform="rotate(241 751 161)" width="157" x="705" y="163" /><circle cx="429" cy="76" fill="none" opacity="0.6220133832699188" r="20" stroke="rgb(1, 22, 253)" stroke-width="1.9942794485201585" /><rect fill="none" height="35" stroke="rgb(5, 221, 193)" stroke-width="1.8065452710561323" transform="rotate(31 838 371)" width="190" x="754" y="273" /><rect fill="none" height="105" stroke="rgb(88, 71, 74)" stroke-width="0.7472013711522341" transform="rotate(83 253 195)" width="135" x="163" y="414" /><line stroke="rgb(12, 162, 82)" stroke-width="1.9980240940718945" x1="718" x2="115" y1="242" y2="579" /><line stroke="rgb(244, 110, 173)" stroke-width="2.8840160456866024" x1="617" x2="331" y1="489" y2="191" /><line stroke="rgb(14, 139, 247)" stroke-width="1.1774412960212683" x1="82" x2="747" y1="302" y2="406" /><line stroke="rgb(66, 4, 23)" stroke-width="2.8904207325407736" x1="343" x2="665" y1="236" y2="243" /><line stroke="rgb(210, 226, 232)" stroke-width="1.849171514049966" x1="186" x2="772" y1="125" y2="469" /><line stroke="rgb(89, 112, 69)" stroke-width="1.7985737278745577" x1="18" x2="13" y1="58" y2="105" /><line stroke="rgb(128, 144, 27)" stroke-width="0.8390478503396249" x1="496" x2="250" y1="237" y2="249" /><line stroke="rgb(144, 222, 243)" stroke-width="2.658689648613602" x1="423" x2="167" y1="394" y2="578" /><line stroke="rgb(19, 39, 16)" stroke-width="0.5842687275095213" x1="12" x2="70" y1="577" y2="291" /><line stroke="rgb(195, 170, 202)" stroke-width="1.830951159632379" x1="462" x2="204" y1="187" y2="207" /><line stroke="rgb(150, 249, 149)" stroke-width="2.901733565479485" x1="474" x2="315" y1="362" y2="2" /><line stroke="rgb(25, 100, 104)" stroke-width="2.5985832288510795" x1="713" x2="508" y1="520" y2="293" /><line stroke="rgb(219, 241, 51)" stroke-width="1.7744293604127233" x1="349" x2="908" y1="281" y2="444" /><line stroke="rgb(62, 34, 213)" stroke-width="2.3357382265414794" x1="446" x2="80" y1="579" y2="267" /><line stroke="rgb(135, 14, 187)" stroke-width="2.9902558784699322" x1="492" x2="309" y1="286" y2="51" /><line stroke="rgb(163, 56, 85)" stroke-width="1.7315884366002903" x1="887" x2="263" y1="484" y2="437" /><rect fill="none" height="44" stroke="rgb(66, 212, 55)" stroke-width="4.330596274868064" transform="rotate(170 231 556)" width="35" x="138" y="42" /><line stroke="rgb(141, 188, 52)" stroke-width="2.1257396585809625" x1="110" x2="376" y1="200" y2="370" /><line stroke="rgb(168, 39, 135)" stroke-width="0.6971038100094608" x1="14" x2="792" y1="587" y2="412" /><line stroke="rgb(233, 44, 72)" stroke-width="2.9751247716917533" x1="5" x2="847" y1="426" y2="388" /><line stroke="rgb(123, 133, 187)" stroke-width="0.7670994389901271" x1="456" x2="112" y1="102" y2="372" /><line stroke="rgb(184, 241, 254)" stroke-width="0.6270903732091402" x1="178" x2="321" y1="399" y2="200" /><line stroke="rgb(134, 249, 62)" stroke-width="2.7712045686231623" x1="370" x2="673" y1="243" y2="421" /><line stroke="rgb(80, 255, 209)" stroke-width="2.4124082468432912" x1="402" x2="471" y1="156" y2="422" /><line stroke="rgb(236, 195, 152)" stroke-width="1.4380782769919214" x1="188" x2="177" y1="253" y2="533" /><line stroke="rgb(40, 104, 154)" stroke-width="2.2551508614094957" x1="798" x2="260" y1="587" y2="344" /><line stroke="rgb(137, 102, 192)" stroke-width="1.7277553657349303" x1="41" x2="714" y1="65" y2="528" /><path d="M864,116 L909,58 Q675,476 151,242 C942,359 193,496 900,566 L231,355 C368,267 706,463 422,539 Q824,517 119,122" fill="none" stroke="rgb(113, 151, 212)" stroke-width="0.7835693077138999" /><circle cx="220" cy="279" fill="none" opacity="0.7672096452882671" r="144" stroke="rgb(92, 34, 152)" stroke-width="3.3101923976858965" /><polygon fill="none" points="604,310 316,521 395,47 632,212 704,400 670,221 849,455" stroke="rgb(168, 83, 211)" stroke-width="1.9520513421043444" /><rect fill="none" height="196" stroke="rgb(125, 66, 144)" stroke-width="2.6108989700076997" transform="rotate(57 433 111)" width="48" x="307" y="316" /><polygon fill="none" points="796,330 55,309 773,575 289,201 898,52 17,379" stroke="rgb(168, 182, 238)" stroke-width="2.557176342716136" /><polygon fill="none" points="781,254 735,197 37,319 453,21 353,63 869,205 422,85" stroke="rgb(40, 151, 94)" stroke-width="3.5923095492517083" /><path d="M178,351 Q788,530 394,322 C288,464 364,441 919,61 C564,218 92,182 926,233" fill="none" stroke="rgb(40, 30, 213)" stroke-width="0.6381146116863846" /><rect fill="none" height="56" stroke="rgb(73, 99, 144)" stroke-width="3.8949170809363" transform="rotate(70 251 511)" width="69" x="656" y="190" /><line stroke="rgb(72, 163, 253)" stroke-width="0.6922819801376918" x1="299" x2="2" y1="381" y2="200" /><line stroke="rgb(117, 40, 82)" stroke-width="2.385969744016283" x1="767" x2="600" y1="360" y2="255" /><line stroke="rgb(34, 123, 220)" stroke-width="2.468330153199094" x1="581" x2="575" y1="80" y2="160" /><line stroke="rgb(254, 64, 52)" stroke-width="1.3739425473676183" x1="777" x2="116" y1="61" y2="577" /><line stroke="rgb(199, 208, 65)" stroke-width="2.148022208280005" x1="180" x2="520" y1="231" y2="24" /><line stroke="rgb(135, 212, 32)" stroke-width="2.5025752112174233" x1="696" x2="232" y1="295" y2="530" /><line stroke="rgb(5, 130, 160)" stroke-width="1.8419955385308895" x1="402" x2="627" y1="69" y2="168" /><line stroke="rgb(34, 200, 234)" stroke-width="2.663922402418364" x1="604" x2="872" y1="485" y2="400" /><line stroke="rgb(37, 84, 76)" stroke-width="2.196007890327592" x1="858" x2="253" y1="161" y2="291" /><line stroke="rgb(207, 193, 215)" stroke-width="2.5946845149319087" x1="330" x2="785" y1="436" y2="39" /><line stroke="rgb(134, 84, 137)" stroke-width="0.7305761370185468" x1="219" x2="776" y1="45" y2="174" /><line stroke="rgb(72, 225, 110)" stroke-width="0.9191384971726453" x1="944" x2="886" y1="454" y2="358" /><line stroke="rgb(216, 126, 124)" stroke-width="1.0755578507288157" x1="731" x2="245" y1="354" y2="315" /><line stroke="rgb(93, 76, 85)" stroke-width="2.9475466050126213" x1="304" x2="846" y1="310" y2="193" /><line stroke="rgb(2, 39, 146)" stroke-width="2.0555975841555836" x1="346" x2="782" y1="269" y2="303" /><line stroke="rgb(144, 78, 4)" stroke-width="2.3335622056138767" x1="917" x2="879" y1="256" y2="88" /><line stroke="rgb(251, 15, 32)" stroke-width="1.1856546596957527" x1="597" x2="627" y1="22" y2="583" /><line stroke="rgb(154, 95, 193)" stroke-width="2.9288525096043267" x1="639" x2="716" y1="314" y2="28" /><line stroke="rgb(25, 41, 141)" stroke-width="0.9585320087079257" x1="865" x2="32" y1="175" y2="164" /><path d="M664,505 Q2,65 450,60 C516,558 452,554 725,271 C798,480 172,574 626,236 C941,136 820,320 349,133" fill="none" stroke="rgb(97, 73, 46)" stroke-width="2.558696112296926" /><polygon fill="none" points="33,113 715,398 160,77 459,26 532,164 256,278 234,442" stroke="rgb(177, 223, 62)" stroke-width="1.9701039023342704" /><rect fill="none" height="46" stroke="rgb(215, 60, 61)" stroke-width="1.51153368775358" transform="rotate(119 46 486)" width="105" x="768" y="65" /><polygon fill="none" points="403,263 818,250 362,42 759,133 576,373 737,570" stroke="rgb(194, 216, 30)" stroke-width="3.9226726897575577" /><rect fill="none" height="178" stroke="rgb(49, 177, 169)" stroke-width="1.8238229648303093" transform="rotate(324 942 92)" width="182" x="447" y="468" /><line stroke="rgb(201, 247, 116)" stroke-width="1.2007078599451018" x1="437" x2="570" y1="540" y2="167" /><line stroke="rgb(143, 87, 234)" stroke-width="2.810145707438328" x1="520" x2="690" y1="489" y2="429" /><line stroke="rgb(209, 18, 183)" stroke-width="2.938009155126672" x1="344" x2="473" y1="32" y2="529" /><line stroke="rgb(76, 74, 85)" stroke-width="2.590435363726222" x1="501" x2="892" y1="552" y2="290" /><polygon fill="none" points="108,449 800,434 637,27 259,546 618,145 35,288 561,494 72,527" stroke="rgb(164, 88, 234)" stroke-width="3.7951323557569783" /><rect fill="none" height="176" stroke="rgb(233, 153, 87)" stroke-width="4.2327484405223945" transform="rotate(174 158 321)" width="54" x="731" y="378" /><rect fill="none" height="110" stroke="rgb(134, 209, 28)" stroke-width="1.1171332293448337" transform="rotate(277 111 331)" width="152" x="388" y="176" /><polygon fill="none" points="541,584 219,257 600,114 894,31 172,409" stroke="rgb(58, 245, 235)" stroke-width="1.8214585991005272" /><line stroke="rgb(220, 106, 133)" stroke-width="2.79019741331498" x1="294" x2="532" y1="316" y2="309" /><line stroke="rgb(157, 164, 92)" stroke-width="2.7946802362038974" x1="468" x2="441" y1="560" y2="76" /><line stroke="rgb(138, 186, 102)" stroke-width="1.0049618970368321" x1="321" x2="756" y1="275" y2="436" /><line stroke="rgb(211, 0, 46)" stroke-width="2.5440171768806623" x1="710" x2="683" y1="364" y2="442" /><line stroke="rgb(199, 52, 37)" stroke-width="2.529011660710037" x1="142" x2="357" y1="97" y2="487" /><line stroke="rgb(199, 60, 16)" stroke-width="1.3552750632636057" x1="927" x2="525" y1="323" y2="2" /><polygon fill="none" points="362,332 141,570 116,4 80,417 901,240 54,556 21,41 616,382" stroke="rgb(199, 122, 252)" stroke-width="1.5705984021469048" /><line stroke="rgb(83, 58, 79)" stroke-width="1.5428956452825886" x1="690" x2="227" y1="235" y2="60" /><line stroke="rgb(167, 188, 170)" stroke-width="2.2176274113817405" x1="37" x2="443" y1="139" y2="444" /><line stroke="rgb(255, 196, 63)" stroke-width="2.8891256697346086" x1="504" x2="140" y1="453" y2="11" /><line stroke="rgb(252, 59, 43)" stroke-width="1.1455714258010217" x1="195" x2="427" y1="194" y2="318" /><line stroke="rgb(100, 145, 198)" stroke-width="0.6595114082249547" x1="348" x2="337" y1="239" y2="497" /><line stroke="rgb(96, 106, 40)" stroke-width="0.7154374388941807" x1="766" x2="352" y1="309" y2="293" /><line stroke="rgb(154, 70, 110)" stroke-width="1.3265731599128352" x1="779" x2="219" y1="415" y2="277" /><path d="M417,210 C704,105 309,537 468,343 L435,138 C911,355 650,464 243,8 C768,219 42,526 917,213" fill="none" stroke="rgb(226, 247, 40)" stroke-width="0.8531326012015601" /></svg>