<svg baseProfile="full" height="528px" version="1.1" width="1080px" xmlns="http://www.w3.org/2000/svg" xmlns:ev="http://www.w3.org/2001/xml-events" xmlns:xlink="http://www.w3.org/1999/xlink"><defs /><rect fill="rgb(209, 244, 200)" height="528px" width="1080px" x="0" y="0" /><line stroke="rgb(252, 146, 27)" stroke-width="1.4753276731284524" x1="249" x2="267" y1="268" y2="37" /><line stroke="rgb(189, 35, 136)" stroke-width="2.841657050182726" x1="304" x2="1044" y1="137" y2="259" /><line stroke="rgb(5, 201, 159)" stroke-width="2.807232022461993" x1="901" x2="740" y1="266" y2="479" /><line stroke="rgb(120, 31, 208)" stroke-width="2.003881319459554" x1="796" x2="131" y1="472" y2="233" /><line stroke="rgb(246, 231, 46)" stroke-width="1.320052370070326" x1="765" x2="441" y1="471" y2="404" /><line stroke="rgb(199, 153, 56)" stroke-width="2.1917168522071395" x1="4" x2="390" y1="474" y2="43" /><line stroke="rgb(232, 168, 114)" stroke-width="1.881593692988269" x1="183" x2="111" y1="131" y2="92" /><line stroke="rgb(37, 159, 155)" stroke-width="1.5703608377196092" x1="938" x2="16" y1="399" y2="261" /><line stroke="rgb(78, 77, 138)" stroke-width="1.272327275882148" x1="561" x2="199" y1="66" y2="326" /><line stroke="rgb(223, 114, 166)" stroke-width="2.7997465587838097" x1="681" x2="424" y1="119" y2="188" /><circle cx="926" cy="384" fill="none" opacity="0.3230829000341023" r="115" stroke="rgb(50, 84, 108)" stroke-width="1.0216866069422712" /><rect fill="none" height="51" stroke="rgb(139, 77, 217)" stroke-width="0.7340621166851498" transform="rotate(84 201 81)" width="54" x="539" y="111" /><polygon fill="none" points="53,90 315,15 682,405 474,307 320,374 1038,415" stroke="rgb(114, 70, 186)" stroke-width="0.8187492221479663" /><circle cx="888" cy="323" fill="none" opacity="0.8118322894920333" r="50" stroke="rgb(225, 211, 214)" stroke-width="2.9906922735893993" /><path d="M16,278 C782,81 771,16 1003,178 Q758,159 632,230 L309,413" fill="none" stroke="rgb(25, 172, 68)" stroke-width="1.7628951992675777" /><circle cx="766" cy="407" fill="none" opacity="0.7160018659098459" r="130" stroke="rgb(146, 55, 241)" stroke-width="2.5367569210833474" /><path d="M741,317 C67,425 342,233 99,199 L577,509 Q250,39 424,501 C134,202 1048,501 960,137 Q554,408 730,510 C830,372 1072,14 560,68 C533,525 680,336 481,457" fill="none" stroke="rgb(12, 118, 137)" stroke-width="2.8426633049916976" /><path d="M862,312 L665,414 L190,216 L409,466 C948,96 866,359 737,59" fill="none" stroke="rgb(153, 29, 218)" stroke-width="0.5120829971595249" /><polygon fill="none" points="702,492 116,117 210,514 461,334 9,124 463,499 155,413" stroke="rgb(120, 224, 12)" stroke-width="2.2485029880399665" /><path d="M821,232 C587,296 58,367 1061,162 Q171,65 657,66 C489,514 14,433 393,331 C1061,211 577,354 846,383 L467,34 Q418,286 709,510" fill="none" stroke="rgb(204, 117, 57)" stroke-width="2.874444840493882" /><line stroke="rgb(149, 85, 75)" stroke-width="1.1049427366633138" x1="806" x2="261" y1="3" y2="481" /><line stroke="rgb(163, 185, 129)" stroke-width="1.2418379741682168" x1="813" x2="888" y1="377" y2="125" /><line stroke="rgb(3, 171, 86)" stroke-width="0.9904767999376767" x1="141" x2="954" y1="127" y2="314" /><line stroke="rgb(109, 137, 194)" stroke-width="2.739527052417865" x1="169" x2="897" y1="338" y2="523" /><line stroke="rgb(176, 71, 218)" stroke-width="2.484486210528299" x1="192" x2="423" y1="427" y2="392" /><line stroke="rgb(1, 229, 175)" stroke-width="2.7917889191249246" x1="571" x2="853" y1="269" y2="294" /><line stroke="rgb(71, 64, 179)" stroke-width="0.6416886792088828" x1="323" x2="1063" y1="293" y2="355" /><line stroke="rgb(37, 235, 78)" stroke-width="1.0845273996731082" x1="388" x2="681" y1="298" y2="439" /><polygon fill="none" points="511,129 164,299 267,360 370,444" stroke="rgb(204, 3, 128)" stroke-width="3.446508866956735" /><rect fill="none" height="172" stroke="rgb(237, 0, 188)" stroke-width="4.066694132457684" transform="rotate(2 105 528)" width="120" x="967" y="83" /><line stroke="rgb(166, 62, 45)" stroke-width="2.828717101937557" x1="535" x2="250" y1="95" y2="427" /><line stroke="rgb(78, 102, 5)" stroke-width="2.3374485703357655" x1="285" x2="867" y1="511" y2="177" /><line stroke="rgb(87, 132, 95)" stroke-width="0.5840088627536226" x1="666" x2="1068" y1="261" y2="507" /><line stroke="rgb(9, 89, 131)" stroke-width="0.8839955207504853" x1="684" x2="911" y1="217" y2="50" /><line stroke="rgb(49, 239, 169)" stroke-width="1.313480494476464" x1="863" x2="74" y1="1" y2="96" /><line stroke="rgb(228, 130, 164)" stroke-width="2.5957483492975957" x1="474" x2="391" y1="86" y2="176" /><line stroke="rgb(155, 172, 197)" stroke-width="2.0296218180327896" x1="969" x2="799" y1="309" y2="411" /><path d="M525,519 C665,403 461,284 574,474 L513,296 C130,392 403,332 7,503 C414,152 50,394 700,65" fill="none" stroke="rgb(92, 35, 203)" stroke-width="0.6615528965133811" /><rect fill="none" height="195" stroke="rgb(132, 238, 25)" stroke-width="4.162588244199176" transform="rotate(70 1020 140)" width="54" x="367" y="283" /><line stroke="rgb(191, 156, 162)" stroke-width="2.4634588569234337" x1="624" x2="859" y1="521" y2="311" /><line stroke="rgb(64, 230, 86)" stroke-width="0.6119766663664629" x1="1021" x2="679" y1="279" y2="468" /><line stroke="rgb(165, 228, 121)" stroke-width="2.9327759320137337" x1="302" x2="869" y1="517" y2="185" /><line stroke="rgb(133, 95, 135)" stroke-width="0.6537013998987122" x1="1012" x2="12" y1="106" y2="88" /><line stroke="rgb(225, 178, 241)" stroke-width="0.9199608011553815" x1="287" x2="270" y1="149" y2="272" /><line stroke="rgb(149, 255, 95)" stroke-width="1.987760820731533" x1="351" x2="38" y1="365" y2="211" /><circle cx="851" cy="373" fill="none" opacity="0.9480589891270104" r="75" stroke="rgb(97, 123, 77)" stroke-width="2.9579483140622242" /><circle cx="298" cy="180" fill="none" opacity="0.7518832272275637" r="71" stroke="rgb(151, 171, 142)" stroke-width="4.1546477226843095" /><polygon fill="none" points="331,182 232,502 521,166 954,260 996,238 30,303 964,510 911,185" stroke="rgb(156, 56, 135)" stroke-width="2.580500211144634" /><polygon fill="none" points="813,302 509,528 264,350 728,165 39,266 263,504 970,146" stroke="rgb(128, 105, 249)" stroke-width="1.3337122187472796" /><line stroke="rgb(159, 249, 117)" stroke-width="2.7091265561151148" x1="864" x2="906" y1="53" y2="187" /><line stroke="rgb(24, 254, 76)" stroke-width="1.2341706106660297" x1="906" x2="820" y1="189" y2="306" /><line stroke="rgb(84, 93, 46)" stroke-width="1.6942507173371995" x1="466" x2="458" y1="90" y2="294" /><line stroke="rgb(187, 121, 248)" stroke-width="1.549652346655169" x1="868" x2="36" y1="457" y2="508" /><line stroke="rgb(251, 153, 140)" stroke-width="2.161180011787697" x1="437" x2="65" y1="488" y2="282" /><line stroke="rgb(217, 37, 59)" stroke-width="1.2969667232179019" x1="411" x2="933" y1="229" y2="173" /><rect fill="none" height="190" stroke="rgb(25, 196, 97)" stroke-width="0.844536203731312" transform="rotate(84 33 49)" width="54" x="875" y="169" /><rect fill="none" height="32" stroke="rgb(56, 26, 252)" stroke-width="2.708844031613316" transform="rotate(50 424 143)" width="41" x="356" y="408" /><circle cx="673" cy="324" fill="none" opacity="0.7582611174786826" r="54" stroke="rgb(36, 217, 93)" stroke-width="1.3859191479931399" /><rect fill="none" height="124" stroke="rgb(92, 146, 177)" stroke-width="1.3323456101336024" transform="rotate(48 738 393)" width="79" x="108" y="205" /><path d="M758,230 C713,21 669,215 205,50 Q26,493 1024,279 Q567,24 833,424 Q92,23 608,321 L680,450 C344,420 39,308 836,294" fill="none" stroke="rgb(36, 76, 175)" stroke-width="1.8824081704893705" /><rect fill="none" height="177" stroke="rgb(89, 122, 140)" stroke-width="0.6970592133769133" transform="rotate(213 630 499)" width="25" x="257" y="171" /><polygon fill="none" points="255,288 384,415 596,271 40,89 956,271 278,67 517,307 660,207" stroke="rgb(249, 156, 193)" stroke-width="2.036684515698911" /><path d="M98,525 L826,406 L485,80 Q85,387 69,421 L569,116" fill="none" stroke="rgb(135, 25, 12)" stroke-width="2.9588153946496134" /><circle cx="219" cy="60" fill="none" opacity="0.9725293600519429" r="82" stroke="rgb(41, 189, 171)" stroke-width="1.3644064587499112" /><circle cx="336" cy="82" fill="none" opacity="0.5804137684581806" r="97" stroke="rgb(16, 238, 69)" stroke-width="1.0305779627460012" /><path d="M486,144 Q168,489 429,514 L149,289 Q471,111 342,450 L324,74 C934,59 34,477 380,243 C1000,20 1048,202 341,17" fill="none" stroke="rgb(187, 22, 27)" stroke-width="2.1072567717272905" /><rect fill="none" height="153" stroke="rgb(139, 64, 98)" stroke-width="3.125925000898084" transform="rotate(206 178 381)" width="187" x="266" y="144" /><circle cx="719" cy="296" fill="none" opacity="0.6474592739788217" r="84" stroke="rgb(158, 147, 84)" stroke-width="4.825483296351231" /><polygon fill="none" points="142,402 986,87 106,528 821,372 1077,425" stroke="rgb(159, 62, 201)" stroke-width="0.6202255150506192" /><polygon fill="none" points="576,129 997,421 827,89 90,10" stroke="rgb(128, 41, 36)" stroke-width="0.9880828643854651" /><circle cx="795" cy="241" fill="none" opacity="0.4929104719807928" r="110" stroke="rgb(218, 128, 192)" stroke-width="1.3105523892510633" /><path d="M774,254 C335,86 873,379 1020,270 C808,498 659,128 85,243 C417,183 906,237 538,522 Q373,455 289,204" fill="none" stroke="rgb(91, 216, 185)" stroke-width="2.1080520898916753" /><rect fill="none" height="90" stroke="rgb(126, 194, 210)" stroke-width="2.815853346991339" transform="rotate(334 1002 428)" width="166" x="127" y="12" /><path d="M306,242 L170,485 Q791,511 553,507 L623,16 Q1072,377 449,114 Q215,356 959,87 C601,155 713,395 670,302 Q658,507 507,115" fill="none" stroke="rgb(142, 254, 115)" stroke-width="0.9639027257137742" /><polygon fill="none" points="992,141 601,106 28,301 1065,437 771,232" stroke="rgb(87, 50, 236)" stroke-width="1.8056575118400282" /><path d="M254,54 Q394,252 195,22 C272,59 1076,333 363,38 C857,102 380,27 1036,126 Q197,136 992,469 C650,354 242,222 35,374 Q60,442 523,13 L918,295" fill="none" stroke="rgb(146, 235, 217)" stroke-width="1.1778215182426313" /><path d="M162,61 Q84,35 322,355 C358,483 524,189 1008,40 C537,416 156,302 1059,70 C243,474 127,339 947,229 L737,425" fill="none" stroke="rgb(80, 152, 127)" stroke-width="2.5386924556281345" /><rect fill="none" height="56" stroke="rgb(173, 128, 139)" stroke-width="0.5413521873300982" transform="rotate(14 484 235)" width="112" x="354" y="111" /><path d="M126,419 L922,145 C218,249 580,268 201,349 Q896,431 579,381" fill="none" stroke="rgb(45, 16, 150)" stroke-width="1.0593122041042011" /><rect fill="none" height="98" stroke="rgb(191, 60, 157)" stroke-width="2.657039063238792" transform="rotate(84 828 405)" width="109" x="498" y="32" /><rect fill="none" height="32" stroke="rgb(5, 164, 29)" stroke-width="4.414189869745218" transform="rotate(231 1067 12)" width="23" x="517" y="98" /></svg>