<svg baseProfile="full" height="718px" version="1.1" width="611px" xmlns="http://www.w3.org/2000/svg" xmlns:ev="http://www.w3.org/2001/xml-events" xmlns:xlink="http://www.w3.org/1999/xlink"><defs /><rect fill="rgb(212, 232, 222)" height="718px" width="611px" x="0" y="0" /><rect fill="none" height="30" stroke="rgb(137, 210, 12)" stroke-width="2.1136728206068023" transform="rotate(149 433 333)" width="198" x="97" y="349" /><rect fill="none" height="94" stroke="rgb(5, 235, 126)" stroke-width="0.7124221713843526" transform="rotate(289 518 329)" width="60" x="34" y="529" /><path d="M166,280 C218,45 46,479 358,475 L318,429 L280,582" fill="none" stroke="rgb(40, 166, 45)" stroke-width="2.9188084678327653" /><rect fill="none" height="127" stroke="rgb(93, 194, 185)" stroke-width="0.8972120474884181" transform="rotate(211 157 128)" width="81" x="326" y="108" /><polygon fill="none" points="36,140 188,336 507,371 44,246 328,109 231,283 483,555 264,313" stroke="rgb(3, 3, 112)" stroke-width="1.481935982596732" /><polygon fill="none" points="301,378 14,219 283,618 33,201 89,583 320,593 519,507 523,143" stroke="rgb(148, 105, 218)" stroke-width="1.4456097513926125" /><rect fill="none" height="97" stroke="rgb(167, 115, 126)" stroke-width="1.8113548776076445" transform="rotate(294 62 470)" width="102" x="47" y="288" /><path d="M160,208 L343,158 Q249,129 423,4 C129,713 356,60 143,235 Q176,620 38,170 C327,266 89,554 454,524" fill="none" stroke="rgb(56, 208, 82)" stroke-width="2.965482766999508" /><rect fill="none" height="24" stroke="rgb(148, 133, 49)" stroke-width="3.698191435442627" transform="rotate(327 58 552)" width="172" x="45" y="243" /><circle cx="217" cy="521" fill="none" opacity="0.3562320566194114" r="33" stroke="rgb(103, 18, 15)" stroke-width="3.9036487320505806" /><line stroke="rgb(59, 89, 243)" stroke-width="0.5194869410672363" x1="332" x2="152" y1="503" y2="355" /><line stroke="rgb(230, 129, 35)" stroke-width="1.8885896862215712" x1="434" x2="466" y1="426" y2="211" /><line stroke="rgb(151, 34, 46)" stroke-width="2.9124135217312146" x1="481" x2="223" y1="141" y2="458" /><line stroke="rgb(138, 132, 112)" stroke-width="1.853337759083995" x1="599" x2="29" y1="346" y2="697" /><line stroke="rgb(200, 82, 228)" stroke-width="2.255161580332505" x1="387" x2="15" y1="312" y2="368" /><line stroke="rgb(147, 100, 233)" stroke-width="2.94712422605001" x1="117" x2="418" y1="405" y2="169" /><line stroke="rgb(13, 32, 138)" stroke-width="0.9353200582951953" x1="497" x2="86" y1="433" y2="450" /><line stroke="rgb(163, 26, 169)" stroke-width="1.9737862381115663" x1="72" x2="121" y1="26" y2="424" /><polygon fill="none" points="493,325 260,362 199,6" stroke="rgb(99, 216, 124)" stroke-width="1.3826574964859253" /><circle cx="234" cy="265" fill="none" opacity="0.4397714189709946" r="144" stroke="rgb(143, 139, 102)" stroke-width="2.4517267249341765" /><rect fill="none" height="37" stroke="rgb(74, 38, 51)" stroke-width="4.28349843340877" transform="rotate(11 333 647)" width="169" x="131" y="216" /><polygon fill="none" points="137,475 451,709 248,573 589,40" stroke="rgb(79, 120, 18)" stroke-width="0.8277670594547977" /></svg>