<svg baseProfile="full" height="675px" version="1.1" width="956px" xmlns="http://www.w3.org/2000/svg" xmlns:ev="http://www.w3.org/2001/xml-events" xmlns:xlink="http://www.w3.org/1999/xlink"><defs /><rect fill="rgb(238, 217, 229)" height="675px" width="956px" x="0" y="0" /><rect fill="none" height="175" stroke="rgb(122, 207, 61)" stroke-width="2.776568808255221" transform="rotate(339 214 19)" width="153" x="490" y="43" /><rect fill="none" height="103" stroke="rgb(202, 48, 103)" stroke-width="3.6817054294200524" transform="rotate(83 633 574)" width="140" x="374" y="456" /><circle cx="206" cy="261" fill="none" opacity="0.5389169810096825" r="41" stroke="rgb(222, 201, 204)" stroke-width="2.016620239387366" /><circle cx="864" cy="468" fill="none" opacity="0.715646011480362" r="151" stroke="rgb(229, 135, 5)" stroke-width="3.4176261690907954" /><path d="M764,39 Q893,574 805,76 C604,327 58,36 445,593 Q281,542 377,86 C177,649 458,359 356,181 L424,508 Q509,10 312,479 L567,321" fill="none" stroke="rgb(130, 19, 64)" stroke-width="2.8990927722307487" /><line stroke="rgb(158, 178, 52)" stroke-width="0.8805507719659496" x1="578" x2="403" y1="509" y2="290" /><line stroke="rgb(40, 247, 41)" stroke-width="0.82879126037177" x1="925" x2="224" y1="418" y2="397" /><line stroke="rgb(2, 102, 85)" stroke-width="2.887034430377847" x1="812" x2="751" y1="226" y2="503" /><line stroke="rgb(195, 87, 254)" stroke-width="2.924754863848065" x1="759" x2="330" y1="134" y2="96" /><line stroke="rgb(178, 48, 194)" stroke-width="1.1713605784690346" x1="772" x2="672" y1="500" y2="578" /><line stroke="rgb(27, 86, 55)" stroke-width="1.6718676990722061" x1="378" x2="447" y1="324" y2="179" /><line stroke="rgb(157, 121, 36)" stroke-width="2.610775646038803" x1="670" x2="372" y1="116" y2="603" /><line stroke="rgb(21, 226, 157)" stroke-width="1.9611409413571823" x1="414" x2="0" y1="536" y2="115" /><rect fill="none" height="30" stroke="rgb(191, 27, 84)" stroke-width="2.6128162444155" transform="rotate(231 688 486)" width="100" x="579" y="286" /><line stroke="rgb(79, 143, 188)" stroke-width="2.817691269791116" x1="412" x2="158" y1="35" y2="288" /><line stroke="rgb(61, 106, 28)" stroke-width="2.5782279517129347" x1="13" x2="322" y1="131" y2="584" /><line stroke="rgb(221, 239, 203)" stroke-width="1.0506641778163381" x1="414" x2="935" y1="7" y2="190" /><line stroke="rgb(242, 52, 38)" stroke-width="2.6704115150487704" x1="216" x2="872" y1="271" y2="75" /><line stroke="rgb(135, 153, 83)" stroke-width="2.9361172649557714" x1="850" x2="845" y1="478" y2="444" /><line stroke="rgb(226, 250, 178)" stroke-width="0.713968437870454" x1="328" x2="630" y1="619" y2="443" /><line stroke="rgb(160, 75, 101)" stroke-width="0.9934881621249365" x1="870" x2="487" y1="483" y2="491" /><line stroke="rgb(86, 26, 135)" stroke-width="1.7931186784332513" x1="691" x2="173" y1="311" y2="471" /><line stroke="rgb(223, 41, 159)" stroke-width="0.6444830623070046" x1="631" x2="739" y1="433" y2="164" /><line stroke="rgb(252, 4, 116)" stroke-width="0.596750924605141" x1="323" x2="289" y1="273" y2="104" /><line stroke="rgb(73, 194, 86)" stroke-width="1.6865752625453085" x1="955" x2="21" y1="209" y2="438" /><line stroke="rgb(25, 133, 87)" stroke-width="2.640942386153939" x1="49" x2="79" y1="2" y2="471" /><line stroke="rgb(250, 56, 20)" stroke-width="0.9193011905690847" x1="719" x2="660" y1="239" y2="301" /><line stroke="rgb(206, 4, 156)" stroke-width="1.2899392044815086" x1="348" x2="611" y1="89" y2="140" /><line stroke="rgb(177, 119, 56)" stroke-width="0.538975266987335" x1="710" x2="124" y1="230" y2="308" /><line stroke="rgb(68, 209, 124)" stroke-width="2.8919401496646464" x1="645" x2="321" y1="523" y2="89" /><line stroke="rgb(231, 107, 2)" stroke-width="2.2052145735271282" x1="758" x2="694" y1="265" y2="45" /><line stroke="rgb(254, 133, 13)" stroke-width="2.897224213320866" x1="339" x2="335" y1="260" y2="655" /><line stroke="rgb(92, 216, 37)" stroke-width="2.828362407759706" x1="509" x2="522" y1="3" y2="564" /><polygon fill="none" points="665,245 169,675 595,522 820,225 899,80 831,525" stroke="rgb(119, 86, 152)" stroke-width="2.302113922795987" /><path d="M688,170 Q521,20 913,166 L81,534 L578,409 Q949,221 80,78 Q808,549 692,617" fill="none" stroke="rgb(50, 74, 89)" stroke-width="1.69880663992117" /><polygon fill="none" points="900,250 145,285 460,162 117,528 518,510 802,546 704,393" stroke="rgb(55, 35, 104)" stroke-width="3.849159894284492" /><line stroke="rgb(166, 77, 98)" stroke-width="1.1953798838742915" x1="835" x2="603" y1="497" y2="596" /><line stroke="rgb(104, 213, 18)" stroke-width="2.5567938884546337" x1="275" x2="122" y1="260" y2="637" /><line stroke="rgb(59, 27, 178)" stroke-width="0.63633407101804" x1="319" x2="531" y1="508" y2="363" /><line stroke="rgb(137, 244, 90)" stroke-width="1.1626939697133294" x1="811" x2="135" y1="563" y2="431" /><line stroke="rgb(28, 147, 49)" stroke-width="1.850490801439053" x1="395" x2="15" y1="51" y2="286" /><line stroke="rgb(213, 175, 133)" stroke-width="2.623142859924681" x1="463" x2="36" y1="399" y2="181" /><circle cx="260" cy="311" fill="none" opacity="0.9604548583192782" r="74" stroke="rgb(164, 171, 206)" stroke-width="4.465596135723628" /><circle cx="185" cy="594" fill="none" opacity="0.8274719669099264" r="99" stroke="rgb(105, 41, 181)" stroke-width="4.973946320325368" /><circle cx="794" cy="369" fill="none" opacity="0.732986865960398" r="109" stroke="rgb(61, 130, 162)" stroke-width="1.3713644848900124" /><rect fill="none" height="61" stroke="rgb(178, 74, 33)" stroke-width="1.8299439654916043" transform="rotate(185 284 471)" width="140" x="765" y="423" /><path d="M540,449 L415,339 C91,664 540,273 458,369 C414,131 547,286 229,183" fill="none" stroke="rgb(63, 167, 134)" stroke-width="0.6085694154261394" /><polygon fill="none" points="31,364 119,399 478,483 660,355 825,360 23,144 38,468" stroke="rgb(64, 245, 144)" stroke-width="3.645482028982258" /></svg>