<svg baseProfile="full" height="769px" version="1.1" width="667px" xmlns="http://www.w3.org/2000/svg" xmlns:ev="http://www.w3.org/2001/xml-events" xmlns:xlink="http://www.w3.org/1999/xlink"><defs /><rect fill="rgb(238, 218, 243)" height="769px" width="667px" x="0" y="0" /><rect fill="none" height="140" stroke="rgb(233, 129, 15)" stroke-width="4.00234757787374" transform="rotate(287 258 72)" width="124" x="351" y="341" /><circle cx="582" cy="78" fill="none" opacity="0.9934166288295994" r="47" stroke="rgb(222, 186, 114)" stroke-width="3.243461886758702" /><rect fill="none" height="98" stroke="rgb(22, 109, 203)" stroke-width="1.510296851982447" transform="rotate(250 428 663)" width="90" x="466" y="507" /><rect fill="none" height="107" stroke="rgb(86, 29, 175)" stroke-width="3.067934495796935" transform="rotate(20 401 387)" width="60" x="365" y="233" /><rect fill="none" height="83" stroke="rgb(92, 68, 91)" stroke-width="4.507603930424459" transform="rotate(99 422 744)" width="186" x="243" y="569" /><path d="M36,173 Q632,320 78,721 Q589,463 476,229 Q109,600 49,652 Q166,8 193,461 L119,120 L208,401" fill="none" stroke="rgb(250, 45, 74)" stroke-width="0.7624363892588516" /><rect fill="none" height="20" stroke="rgb(231, 28, 252)" stroke-width="1.861382432937397" transform="rotate(309 518 695)" width="101" x="24" y="491" /><circle cx="403" cy="500" fill="none" opacity="0.6778661193495616" r="116" stroke="rgb(92, 244, 179)" stroke-width="2.259134571824781" /><line stroke="rgb(232, 19, 74)" stroke-width="1.7287716769272068" x1="381" x2="656" y1="687" y2="194" /><line stroke="rgb(220, 86, 220)" stroke-width="0.5680585801624811" x1="453" x2="228" y1="715" y2="308" /><line stroke="rgb(46, 62, 188)" stroke-width="2.560003084131996" x1="634" x2="445" y1="578" y2="605" /><line stroke="rgb(37, 41, 13)" stroke-width="2.8513107784099456" x1="91" x2="154" y1="178" y2="174" /><line stroke="rgb(166, 239, 178)" stroke-width="0.9672881568829146" x1="601" x2="94" y1="199" y2="334" /><line stroke="rgb(188, 78, 254)" stroke-width="0.8349961711716376" x1="332" x2="327" y1="256" y2="687" /><line stroke="rgb(218, 211, 58)" stroke-width="1.699468239916216" x1="2" x2="596" y1="417" y2="374" /><line stroke="rgb(24, 242, 86)" stroke-width="2.994342589902355" x1="40" x2="614" y1="471" y2="579" /><line stroke="rgb(113, 72, 68)" stroke-width="0.7816265074172106" x1="453" x2="538" y1="679" y2="530" /><circle cx="216" cy="305" fill="none" opacity="0.5586264812944262" r="23" stroke="rgb(27, 224, 202)" stroke-width="0.6888672629086092" /><path d="M48,218 C642,700 325,516 417,8 C9,757 84,355 332,593 C662,32 310,742 35,541 Q434,759 20,53 C447,296 245,65 66,569 L589,758 Q512,375 201,429" fill="none" stroke="rgb(210, 162, 121)" stroke-width="1.8590698557454979" /><polygon fill="none" points="305,21 654,399 545,373 261,385 585,381" stroke="rgb(134, 163, 237)" stroke-width="2.9243204835115777" /><circle cx="51" cy="717" fill="none" opacity="0.5187203719741041" r="67" stroke="rgb(233, 75, 22)" stroke-width="2.27501120596778" /><path d="M349,25 Q535,95 456,61 Q326,377 502,78 Q123,259 353,726 Q100,395 398,568 L455,421 L364,320" fill="none" stroke="rgb(124, 78, 29)" stroke-width="0.7008919183061539" /><line stroke="rgb(81, 250, 159)" stroke-width="2.1198651321540587" x1="230" x2="123" y1="370" y2="180" /><line stroke="rgb(135, 249, 56)" stroke-width="1.7084821300274484" x1="266" x2="572" y1="602" y2="643" /><line stroke="rgb(121, 28, 135)" stroke-width="1.6676728323445074" x1="308" x2="338" y1="508" y2="339" /><line stroke="rgb(131, 199, 205)" stroke-width="0.5924806974555783" x1="359" x2="487" y1="691" y2="603" /><line stroke="rgb(69, 41, 109)" stroke-width="0.6493082825200496" x1="288" x2="18" y1="705" y2="29" /><line stroke="rgb(194, 86, 83)" stroke-width="1.393671360280697" x1="190" x2="370" y1="764" y2="520" /></svg>