<svg baseProfile="full" height="588px" version="1.1" width="653px" xmlns="http://www.w3.org/2000/svg" xmlns:ev="http://www.w3.org/2001/xml-events" xmlns:xlink="http://www.w3.org/1999/xlink"><defs /><rect fill="rgb(215, 241, 248)" height="588px" width="653px" x="0" y="0" /><line stroke="rgb(148, 52, 91)" stroke-width="2.531473912895196" x1="371" x2="223" y1="472" y2="270" /><line stroke="rgb(7, 75, 222)" stroke-width="2.030193255109567" x1="67" x2="500" y1="316" y2="585" /><line stroke="rgb(119, 249, 45)" stroke-width="2.7862904779472144" x1="35" x2="631" y1="422" y2="259" /><line stroke="rgb(20, 210, 143)" stroke-width="2.4387534764874608" x1="182" x2="274" y1="270" y2="253" /><line stroke="rgb(43, 187, 132)" stroke-width="2.3861714193652683" x1="576" x2="538" y1="277" y2="148" /><line stroke="rgb(139, 89, 86)" stroke-width="2.8179255572173645" x1="102" x2="8" y1="412" y2="447" /><rect fill="none" height="94" stroke="rgb(174, 233, 101)" stroke-width="3.7465342545766354" transform="rotate(169 330 269)" width="65" x="225" y="224" /><line stroke="rgb(115, 76, 215)" stroke-width="2.9013427206779028" x1="566" x2="34" y1="292" y2="70" /><line stroke="rgb(26, 12, 103)" stroke-width="2.5014377083084693" x1="194" x2="267" y1="341" y2="392" /><line stroke="rgb(166, 189, 99)" stroke-width="1.023603358010669" x1="267" x2="225" y1="396" y2="519" /><line stroke="rgb(64, 244, 23)" stroke-width="0.8851409179219378" x1="10" x2="361" y1="174" y2="555" /><line stroke="rgb(18, 168, 43)" stroke-width="2.884303832707562" x1="251" x2="349" y1="498" y2="418" /><line stroke="rgb(12, 15, 174)" stroke-width="1.4091935540262708" x1="91" x2="601" y1="18" y2="100" /><line stroke="rgb(53, 53, 56)" stroke-width="1.7206187639778037" x1="4" x2="30" y1="563" y2="554" /><line stroke="rgb(195, 66, 102)" stroke-width="1.6967686810749847" x1="262" x2="224" y1="579" y2="542" /><line stroke="rgb(126, 98, 191)" stroke-width="1.994085988074447" x1="399" x2="608" y1="454" y2="271" /><line stroke="rgb(30, 15, 172)" stroke-width="1.108872894794175" x1="529" x2="402" y1="470" y2="554" /><circle cx="574" cy="382" fill="none" opacity="0.39679083561628503" r="75" stroke="rgb(168, 235, 189)" stroke-width="0.8392364247182486" /><path d="M603,166 L344,29 L0,34 L224,303 L356,450 C53,394 16,409 549,248 Q500,418 366,78 L323,60" fill="none" stroke="rgb(200, 197, 242)" stroke-width="0.503568137479729" /><polygon fill="none" points="308,230 472,387 185,586 469,61 111,38 136,36 340,438 587,85" stroke="rgb(252, 117, 248)" stroke-width="2.2649004177903005" /><line stroke="rgb(113, 236, 131)" stroke-width="2.3249363956196993" x1="73" x2="489" y1="279" y2="127" /><line stroke="rgb(242, 146, 155)" stroke-width="1.071220491773816" x1="390" x2="471" y1="486" y2="384" /><line stroke="rgb(251, 46, 84)" stroke-width="2.2421330522812166" x1="522" x2="190" y1="223" y2="510" /><line stroke="rgb(196, 17, 116)" stroke-width="0.5116258238615335" x1="133" x2="57" y1="110" y2="348" /><line stroke="rgb(191, 243, 148)" stroke-width="0.5350234255769375" x1="150" x2="374" y1="491" y2="324" /><line stroke="rgb(254, 145, 0)" stroke-width="0.8273171284085208" x1="83" x2="378" y1="8" y2="122" /><line stroke="rgb(40, 178, 35)" stroke-width="2.774321842938403" x1="456" x2="473" y1="288" y2="527" /><line stroke="rgb(150, 20, 215)" stroke-width="2.703216026585137" x1="422" x2="525" y1="54" y2="84" /><line stroke="rgb(177, 161, 254)" stroke-width="2.990745190050746" x1="627" x2="158" y1="451" y2="17" /><line stroke="rgb(108, 35, 243)" stroke-width="0.9261816732011972" x1="70" x2="247" y1="28" y2="131" /><circle cx="58" cy="235" fill="none" opacity="0.4088605599429186" r="34" stroke="rgb(66, 177, 193)" stroke-width="2.9835274944183965" /><rect fill="none" height="45" stroke="rgb(234, 11, 77)" stroke-width="4.022028139066733" transform="rotate(13 203 428)" width="23" x="47" y="64" /><path d="M55,309 Q274,151 160,345 L252,557 L219,140 C559,282 423,183 275,398 L116,109 Q501,579 146,66" fill="none" stroke="rgb(91, 67, 52)" stroke-width="0.7410533715114658" /><path d="M237,53 Q585,506 115,188 Q471,577 626,419 L408,95 L371,572 L382,264 C311,86 165,324 523,113" fill="none" stroke="rgb(10, 254, 166)" stroke-width="0.8348561214474266" /><rect fill="none" height="187" stroke="rgb(218, 152, 143)" stroke-width="4.011259099953942" transform="rotate(115 545 40)" width="189" x="363" y="304" /><polygon fill="none" points="67,198 16,62 544,578 450,353 616,532 152,424" stroke="rgb(96, 216, 6)" stroke-width="2.0179569322548057" /><line stroke="rgb(79, 225, 92)" stroke-width="0.7865289368046825" x1="456" x2="153" y1="379" y2="535" /><line stroke="rgb(7, 105, 199)" stroke-width="1.2580512363735303" x1="139" x2="397" y1="96" y2="156" /><line stroke="rgb(212, 34, 151)" stroke-width="1.9242001635358814" x1="389" x2="78" y1="432" y2="53" /><line stroke="rgb(132, 200, 15)" stroke-width="1.1013146040646535" x1="65" x2="18" y1="242" y2="77" /><line stroke="rgb(58, 172, 202)" stroke-width="0.5087159776726975" x1="566" x2="271" y1="11" y2="136" /><line stroke="rgb(216, 154, 112)" stroke-width="2.742119319413455" x1="406" x2="216" y1="455" y2="222" /><line stroke="rgb(237, 221, 129)" stroke-width="2.1389295158502057" x1="432" x2="73" y1="386" y2="495" /><line stroke="rgb(13, 1, 19)" stroke-width="1.3716914423015873" x1="534" x2="210" y1="418" y2="501" /><line stroke="rgb(81, 31, 153)" stroke-width="0.9537501950762424" x1="327" x2="266" y1="220" y2="273" /><circle cx="170" cy="467" fill="none" opacity="0.8916688936319443" r="137" stroke="rgb(64, 204, 181)" stroke-width="2.984805355488901" /><polygon fill="none" points="619,371 162,362 590,260" stroke="rgb(247, 3, 74)" stroke-width="1.0907313313323004" /><circle cx="183" cy="513" fill="none" opacity="0.7804734632402741" r="46" stroke="rgb(151, 230, 198)" stroke-width="4.767601394820949" /><path d="M318,442 C410,50 521,5 599,438 C296,220 54,322 185,577 C261,146 124,431 488,464 C328,557 534,365 60,569" fill="none" stroke="rgb(104, 57, 16)" stroke-width="1.381285264703437" /><path d="M75,427 C589,437 577,399 60,403 C490,286 545,161 4,281 Q500,257 333,535" fill="none" stroke="rgb(178, 130, 217)" stroke-width="0.7974251106526848" /><polygon fill="none" points="261,180 184,308 32,377 550,97 596,381 502,438" stroke="rgb(100, 134, 80)" stroke-width="1.4009518659386146" /><circle cx="177" cy="413" fill="none" opacity="0.3680535571673932" r="56" stroke="rgb(94, 214, 169)" stroke-width="4.411742802366984" /><circle cx="423" cy="161" fill="none" opacity="0.5285325764881917" r="29" stroke="rgb(24, 144, 83)" stroke-width="2.1413316396493696" /></svg>