<svg baseProfile="full" height="512px" version="1.1" width="774px" xmlns="http://www.w3.org/2000/svg" xmlns:ev="http://www.w3.org/2001/xml-events" xmlns:xlink="http://www.w3.org/1999/xlink"><defs /><rect fill="rgb(213, 227, 223)" height="512px" width="774px" x="0" y="0" /><polygon fill="none" points="347,68 266,142 464,43 397,63" stroke="rgb(191, 3, 5)" stroke-width="2.214207430675641" /><line stroke="rgb(241, 180, 238)" stroke-width="0.5547199172845431" x1="759" x2="293" y1="92" y2="198" /><line stroke="rgb(19, 13, 228)" stroke-width="2.21064269136056" x1="111" x2="482" y1="179" y2="153" /><line stroke="rgb(182, 199, 189)" stroke-width="2.6232908517016154" x1="559" x2="57" y1="63" y2="446" /><polygon fill="none" points="612,61 634,250 419,65 5,161 704,253 145,112" stroke="rgb(96, 17, 87)" stroke-width="3.487021916409808" /><rect fill="none" height="119" stroke="rgb(80, 3, 81)" stroke-width="4.566876350271052" transform="rotate(326 188 72)" width="101" x="161" y="55" /><path d="M557,292 L373,501 Q271,428 114,456 C726,242 205,301 170,69 C31,444 697,6 217,33" fill="none" stroke="rgb(78, 108, 141)" stroke-width="1.6666716239013142" /><polygon fill="none" points="147,14 612,121 449,84 467,151 609,264 450,33" stroke="rgb(176, 25, 242)" stroke-width="0.9893769075227007" /><path d="M652,215 C582,146 632,5 423,372 Q190,417 347,60 Q765,493 664,22 Q705,384 445,72 Q166,117 163,72 C580,268 707,379 662,193 C774,100 257,181 357,322" fill="none" stroke="rgb(13, 7, 134)" stroke-width="2.696205016449923" /><rect fill="none" height="65" stroke="rgb(195, 33, 135)" stroke-width="2.9017913762900447" transform="rotate(63 330 145)" width="159" x="195" y="181" /><polygon fill="none" points="152,244 364,321 761,431 631,432 539,196 130,171" stroke="rgb(1, 84, 31)" stroke-width="3.8493906852132476" /><circle cx="189" cy="91" fill="none" opacity="0.9775870263424917" r="38" stroke="rgb(127, 6, 47)" stroke-width="2.379983324701169" /><rect fill="none" height="188" stroke="rgb(25, 23, 144)" stroke-width="2.186110985145425" transform="rotate(257 247 123)" width="98" x="432" y="328" /><circle cx="205" cy="115" fill="none" opacity="0.721202617715331" r="17" stroke="rgb(55, 41, 24)" stroke-width="0.6843858365022494" /><polygon fill="none" points="710,333 412,194 761,239 600,481" stroke="rgb(186, 198, 209)" stroke-width="3.292861029393793" /><line stroke="rgb(9, 16, 100)" stroke-width="2.5392255584878223" x1="484" x2="636" y1="414" y2="310" /><line stroke="rgb(51, 3, 55)" stroke-width="1.5533976445405764" x1="282" x2="671" y1="476" y2="444" /><line stroke="rgb(16, 244, 170)" stroke-width="1.118021086560693" x1="304" x2="417" y1="387" y2="478" /><line stroke="rgb(7, 63, 160)" stroke-width="0.678709992163171" x1="363" x2="2" y1="327" y2="214" /><line stroke="rgb(0, 123, 220)" stroke-width="2.6528534239915844" x1="189" x2="133" y1="475" y2="359" /><line stroke="rgb(212, 220, 55)" stroke-width="0.5241160541700403" x1="727" x2="577" y1="429" y2="453" /><line stroke="rgb(44, 53, 177)" stroke-width="1.1851091538979501" x1="125" x2="462" y1="93" y2="472" /><line stroke="rgb(192, 107, 194)" stroke-width="2.7709509470681057" x1="540" x2="585" y1="345" y2="417" /><line stroke="rgb(16, 161, 111)" stroke-width="0.8523194810356809" x1="187" x2="127" y1="259" y2="340" /><path d="M463,490 C329,379 474,5 40,484 Q27,507 135,83 C713,220 257,227 113,18 L331,75 L448,188" fill="none" stroke="rgb(196, 115, 120)" stroke-width="1.1254884593488472" /><circle cx="146" cy="267" fill="none" opacity="0.44455029146052805" r="50" stroke="rgb(119, 20, 12)" stroke-width="3.822114155625572" /><path d="M552,416 L231,370 Q207,162 150,137 C572,332 29,45 525,378 C185,140 399,115 108,196 Q637,270 631,128 C182,177 705,222 725,168" fill="none" stroke="rgb(168, 171, 30)" stroke-width="0.8212729901744926" /><circle cx="111" cy="268" fill="none" opacity="0.8669314204312715" r="40" stroke="rgb(200, 59, 59)" stroke-width="4.8693532380715885" /><line stroke="rgb(30, 4, 84)" stroke-width="2.2205310703470396" x1="595" x2="168" y1="206" y2="175" /><line stroke="rgb(58, 229, 93)" stroke-width="0.9410618837503955" x1="650" x2="630" y1="376" y2="462" /><line stroke="rgb(145, 0, 70)" stroke-width="2.879439578949239" x1="102" x2="4" y1="298" y2="340" /><line stroke="rgb(132, 79, 151)" stroke-width="2.834884105587591" x1="621" x2="146" y1="431" y2="164" /><line stroke="rgb(104, 103, 140)" stroke-width="1.3485446931126515" x1="696" x2="23" y1="313" y2="114" /><line stroke="rgb(143, 17, 212)" stroke-width="1.5991268516306654" x1="549" x2="41" y1="299" y2="247" /><line stroke="rgb(67, 163, 165)" stroke-width="1.5515477424132706" x1="123" x2="82" y1="508" y2="436" /><line stroke="rgb(153, 64, 151)" stroke-width="2.7932504290570486" x1="30" x2="203" y1="32" y2="42" /><line stroke="rgb(113, 190, 232)" stroke-width="1.2030574509380993" x1="151" x2="156" y1="16" y2="502" /><path d="M685,479 Q37,126 497,469 Q339,473 442,458 C774,113 578,340 183,55 C301,383 157,448 663,390 L63,153" fill="none" stroke="rgb(150, 196, 64)" stroke-width="2.7507109064026616" /><circle cx="675" cy="123" fill="none" opacity="0.6282885583937174" r="42" stroke="rgb(168, 173, 20)" stroke-width="1.002903322699359" /><polygon fill="none" points="98,296 545,434 47,64 145,464 356,438 369,433 464,429" stroke="rgb(110, 137, 67)" stroke-width="1.5572039803784548" /><line stroke="rgb(172, 79, 11)" stroke-width="0.9996262735596921" x1="339" x2="66" y1="82" y2="103" /><line stroke="rgb(139, 236, 176)" stroke-width="1.3157273836361323" x1="496" x2="55" y1="506" y2="349" /><line stroke="rgb(189, 213, 86)" stroke-width="2.4998855774631146" x1="129" x2="249" y1="78" y2="401" /><line stroke="rgb(124, 205, 202)" stroke-width="2.083741015975736" x1="306" x2="741" y1="468" y2="258" /><line stroke="rgb(74, 72, 192)" stroke-width="0.8521941455990907" x1="675" x2="295" y1="190" y2="343" /><line stroke="rgb(155, 134, 186)" stroke-width="0.600178817177965" x1="183" x2="589" y1="86" y2="500" /><line stroke="rgb(203, 112, 151)" stroke-width="1.8114418206963665" x1="5" x2="710" y1="385" y2="140" /><line stroke="rgb(211, 194, 27)" stroke-width="2.855512499180063" x1="237" x2="516" y1="463" y2="288" /><line stroke="rgb(18, 104, 155)" stroke-width="2.266996995911539" x1="260" x2="484" y1="393" y2="158" /><line stroke="rgb(12, 126, 161)" stroke-width="1.8780051475938686" x1="299" x2="12" y1="158" y2="45" /><line stroke="rgb(82, 249, 189)" stroke-width="2.3966479760783477" x1="182" x2="453" y1="56" y2="425" /><line stroke="rgb(67, 24, 175)" stroke-width="2.657461036570592" x1="737" x2="105" y1="71" y2="368" /><rect fill="none" height="163" stroke="rgb(174, 67, 141)" stroke-width="1.8016195710916592" transform="rotate(16 742 434)" width="151" x="638" y="273" /></svg>