<svg baseProfile="full" height="503px" version="1.1" width="961px" xmlns="http://www.w3.org/2000/svg" xmlns:ev="http://www.w3.org/2001/xml-events" xmlns:xlink="http://www.w3.org/1999/xlink"><defs /><rect fill="rgb(233, 202, 231)" height="503px" width="961px" x="0" y="0" /><rect fill="none" height="144" stroke="rgb(51, 164, 106)" stroke-width="4.7671563490403805" transform="rotate(306 269 489)" width="184" x="365" y="166" /><polygon fill="none" points="337,165 41,405 31,355 893,127 53,228 264,329 239,332 111,315" stroke="rgb(197, 9, 86)" stroke-width="3.868650869304188" /><circle cx="127" cy="107" fill="none" opacity="0.6845249927229442" r="35" stroke="rgb(25, 8, 133)" stroke-width="1.9820019768298085" /><line stroke="rgb(164, 232, 208)" stroke-width="2.051464509481791" x1="279" x2="936" y1="20" y2="398" /><line stroke="rgb(239, 36, 130)" stroke-width="1.1037047777841802" x1="716" x2="93" y1="387" y2="335" /><line stroke="rgb(84, 63, 63)" stroke-width="1.8881444990891527" x1="802" x2="821" y1="245" y2="42" /><line stroke="rgb(99, 112, 36)" stroke-width="2.3981656944405207" x1="828" x2="897" y1="302" y2="325" /><line stroke="rgb(55, 220, 204)" stroke-width="1.7116537422577656" x1="142" x2="746" y1="157" y2="255" /><line stroke="rgb(238, 42, 142)" stroke-width="0.5775140678070863" x1="557" x2="274" y1="465" y2="144" /><line stroke="rgb(108, 68, 66)" stroke-width="0.6208183090644416" x1="373" x2="34" y1="31" y2="448" /><line stroke="rgb(169, 52, 168)" stroke-width="1.5937332955246921" x1="423" x2="402" y1="495" y2="499" /><path d="M321,220 C908,246 533,392 246,259 L243,280 Q550,141 621,319 C143,48 785,225 91,247 L172,171 C779,209 693,481 162,117 Q708,132 75,479" fill="none" stroke="rgb(159, 173, 119)" stroke-width="2.7911423322322495" /><polygon fill="none" points="355,179 807,145 701,54" stroke="rgb(248, 138, 35)" stroke-width="0.5549334202205491" /><circle cx="83" cy="174" fill="none" opacity="0.7157918965991912" r="108" stroke="rgb(218, 117, 142)" stroke-width="3.1605548443273963" /><path d="M865,316 C207,364 427,355 553,216 C209,403 809,208 26,111 Q889,188 373,374 Q839,113 30,409 C131,61 752,325 855,245 L131,80 C758,139 356,290 589,354" fill="none" stroke="rgb(118, 72, 119)" stroke-width="1.3308595348192758" /><line stroke="rgb(146, 118, 146)" stroke-width="2.0816631140937094" x1="938" x2="830" y1="494" y2="462" /><line stroke="rgb(91, 183, 38)" stroke-width="0.8222357441772292" x1="795" x2="413" y1="168" y2="4" /><line stroke="rgb(135, 229, 246)" stroke-width="2.066797166021897" x1="697" x2="78" y1="22" y2="57" /><line stroke="rgb(7, 126, 142)" stroke-width="0.7010927464317869" x1="378" x2="309" y1="493" y2="104" /><line stroke="rgb(49, 193, 136)" stroke-width="2.268251443164686" x1="549" x2="776" y1="276" y2="194" /><line stroke="rgb(19, 69, 134)" stroke-width="2.052989057309073" x1="853" x2="672" y1="138" y2="465" /><line stroke="rgb(124, 19, 102)" stroke-width="2.7980008201352993" x1="633" x2="265" y1="155" y2="136" /><line stroke="rgb(211, 255, 181)" stroke-width="1.5191402572336195" x1="653" x2="671" y1="415" y2="28" /><line stroke="rgb(75, 222, 173)" stroke-width="1.9111151130933943" x1="141" x2="519" y1="48" y2="457" /><line stroke="rgb(62, 122, 250)" stroke-width="0.5017970660550772" x1="54" x2="887" y1="294" y2="351" /><line stroke="rgb(2, 216, 246)" stroke-width="0.9607591650284468" x1="258" x2="798" y1="315" y2="329" /><line stroke="rgb(181, 193, 61)" stroke-width="2.3477624330291245" x1="297" x2="191" y1="274" y2="297" /><line stroke="rgb(150, 163, 237)" stroke-width="1.917515535382773" x1="674" x2="513" y1="334" y2="485" /><line stroke="rgb(185, 51, 170)" stroke-width="0.5087165132711984" x1="229" x2="824" y1="427" y2="5" /><line stroke="rgb(66, 75, 159)" stroke-width="2.9178322640799625" x1="199" x2="47" y1="455" y2="459" /><line stroke="rgb(150, 206, 210)" stroke-width="1.5383565463790938" x1="282" x2="918" y1="239" y2="252" /><line stroke="rgb(113, 60, 4)" stroke-width="1.1896146149644933" x1="152" x2="717" y1="312" y2="396" /><line stroke="rgb(192, 132, 235)" stroke-width="2.678720218924436" x1="671" x2="895" y1="457" y2="105" /><rect fill="none" height="137" stroke="rgb(115, 245, 172)" stroke-width="0.9834005593315449" transform="rotate(139 435 210)" width="81" x="405" y="372" /><rect fill="none" height="80" stroke="rgb(104, 149, 125)" stroke-width="2.268262449408513" transform="rotate(268 298 103)" width="153" x="631" y="52" /><polygon fill="none" points="389,483 648,175 368,275 366,68 478,87 248,134 628,131" stroke="rgb(227, 179, 236)" stroke-width="1.9320582409434128" /><rect fill="none" height="198" stroke="rgb(144, 103, 189)" stroke-width="4.206746384317053" transform="rotate(359 720 479)" width="98" x="319" y="333" /><line stroke="rgb(121, 18, 127)" stroke-width="0.6477953975921844" x1="460" x2="792" y1="334" y2="36" /><line stroke="rgb(107, 163, 179)" stroke-width="1.902491421920655" x1="487" x2="864" y1="43" y2="237" /><line stroke="rgb(87, 223, 47)" stroke-width="2.9069004645299104" x1="346" x2="651" y1="416" y2="37" /><line stroke="rgb(183, 153, 250)" stroke-width="1.9627226694964919" x1="18" x2="591" y1="419" y2="422" /><line stroke="rgb(255, 163, 227)" stroke-width="2.16893405019396" x1="446" x2="567" y1="112" y2="448" /><line stroke="rgb(61, 222, 85)" stroke-width="2.5365118072836546" x1="420" x2="699" y1="327" y2="503" /><line stroke="rgb(34, 164, 137)" stroke-width="1.4135015640769841" x1="867" x2="569" y1="106" y2="71" /><line stroke="rgb(163, 141, 105)" stroke-width="0.5393490894879731" x1="521" x2="778" y1="169" y2="464" /><line stroke="rgb(101, 103, 43)" stroke-width="2.344869640271755" x1="476" x2="950" y1="294" y2="63" /><line stroke="rgb(153, 49, 87)" stroke-width="2.3093440152392324" x1="853" x2="637" y1="170" y2="315" /><line stroke="rgb(115, 185, 110)" stroke-width="0.5763892402875979" x1="305" x2="24" y1="193" y2="326" /><line stroke="rgb(237, 44, 3)" stroke-width="1.89542069329445" x1="144" x2="364" y1="421" y2="176" /><line stroke="rgb(207, 167, 117)" stroke-width="2.6238500500552373" x1="333" x2="839" y1="41" y2="423" /><line stroke="rgb(135, 122, 117)" stroke-width="2.437272367459051" x1="297" x2="534" y1="115" y2="218" /><line stroke="rgb(90, 176, 215)" stroke-width="1.8956473369130415" x1="413" x2="941" y1="67" y2="47" /><line stroke="rgb(142, 124, 128)" stroke-width="0.6194330772842306" x1="498" x2="770" y1="410" y2="174" /><line stroke="rgb(197, 101, 187)" stroke-width="0.8821456759780878" x1="933" x2="222" y1="432" y2="109" /><line stroke="rgb(73, 88, 229)" stroke-width="2.5449586659179713" x1="376" x2="713" y1="316" y2="383" /><line stroke="rgb(100, 223, 171)" stroke-width="1.124101305605287" x1="704" x2="388" y1="252" y2="221" /><rect fill="none" height="60" stroke="rgb(125, 183, 187)" stroke-width="1.128527810325095" transform="rotate(226 742 375)" width="42" x="8" y="67" /><polygon fill="none" points="763,317 240,295 239,270 656,234 854,243 159,8 908,56 46,418" stroke="rgb(228, 53, 121)" stroke-width="3.452563500115842" /><path d="M644,104 L128,367 Q745,107 46,474 Q336,328 702,488 L193,456 C161,260 118,474 587,480 L815,210 Q297,226 621,425" fill="none" stroke="rgb(162, 48, 58)" stroke-width="2.3323028940934196" /><circle cx="80" cy="335" fill="none" opacity="0.7083626452360562" r="84" stroke="rgb(219, 81, 225)" stroke-width="1.6112461772742068" /></svg>