<svg baseProfile="full" height="722px" version="1.1" width="661px" xmlns="http://www.w3.org/2000/svg" xmlns:ev="http://www.w3.org/2001/xml-events" xmlns:xlink="http://www.w3.org/1999/xlink"><defs /><rect fill="rgb(203, 204, 211)" height="722px" width="661px" x="0" y="0" /><rect fill="none" height="180" stroke="rgb(122, 216, 131)" stroke-width="1.7725091311937582" transform="rotate(74 272 25)" width="192" x="426" y="505" /><rect fill="none" height="132" stroke="rgb(244, 178, 27)" stroke-width="1.9771785736514862" transform="rotate(37 537 301)" width="36" x="251" y="6" /><path d="M279,151 C152,226 194,34 524,488 L563,223 L471,639 L482,412 L170,532" fill="none" stroke="rgb(128, 234, 78)" stroke-width="2.2672027498337695" /><path d="M158,423 Q462,561 257,512 C267,594 7,708 72,322 Q607,329 524,279 Q580,20 142,299" fill="none" stroke="rgb(150, 148, 120)" stroke-width="0.9417411385683387" /><circle cx="429" cy="213" fill="none" opacity="0.4246763652315089" r="138" stroke="rgb(207, 224, 133)" stroke-width="4.965444103620095" /><circle cx="159" cy="109" fill="none" opacity="0.5766128403547315" r="160" stroke="rgb(194, 39, 23)" stroke-width="2.797814103183929" /><line stroke="rgb(97, 206, 27)" stroke-width="2.5031427602654177" x1="236" x2="625" y1="31" y2="130" /><line stroke="rgb(157, 24, 254)" stroke-width="1.9633667254834504" x1="412" x2="507" y1="74" y2="415" /><line stroke="rgb(183, 173, 112)" stroke-width="0.5051932816568436" x1="262" x2="85" y1="572" y2="561" /><line stroke="rgb(255, 236, 168)" stroke-width="1.8342547602707406" x1="284" x2="157" y1="653" y2="54" /><line stroke="rgb(55, 22, 29)" stroke-width="1.8745469151912726" x1="213" x2="75" y1="318" y2="19" /><line stroke="rgb(11, 77, 128)" stroke-width="1.0069441629986162" x1="173" x2="642" y1="361" y2="400" /><line stroke="rgb(114, 227, 241)" stroke-width="0.6668003356181482" x1="224" x2="546" y1="187" y2="99" /><line stroke="rgb(152, 224, 45)" stroke-width="2.6957150000931898" x1="416" x2="24" y1="288" y2="502" /><line stroke="rgb(154, 137, 98)" stroke-width="2.3327069827743028" x1="277" x2="368" y1="80" y2="648" /><polygon fill="none" points="497,689 27,704 292,492" stroke="rgb(239, 34, 24)" stroke-width="2.444627010975214" /><circle cx="256" cy="226" fill="none" opacity="0.9865173917635492" r="107" stroke="rgb(245, 205, 214)" stroke-width="3.921129406102158" /><line stroke="rgb(94, 132, 85)" stroke-width="1.6650269772650819" x1="575" x2="368" y1="50" y2="181" /><line stroke="rgb(48, 65, 43)" stroke-width="2.647926365304891" x1="109" x2="335" y1="80" y2="320" /><line stroke="rgb(23, 78, 55)" stroke-width="1.3992788415780022" x1="95" x2="518" y1="466" y2="587" /><line stroke="rgb(234, 22, 142)" stroke-width="1.6086224430999545" x1="393" x2="254" y1="259" y2="519" /><line stroke="rgb(215, 0, 170)" stroke-width="1.3076551602954272" x1="91" x2="351" y1="645" y2="327" /><line stroke="rgb(99, 113, 31)" stroke-width="0.8155376272216206" x1="498" x2="335" y1="213" y2="162" /><line stroke="rgb(13, 174, 69)" stroke-width="1.5368702917825616" x1="101" x2="120" y1="231" y2="485" /><line stroke="rgb(10, 233, 127)" stroke-width="2.369677507763887" x1="357" x2="191" y1="535" y2="515" /><line stroke="rgb(47, 143, 39)" stroke-width="0.883474661753947" x1="163" x2="312" y1="350" y2="668" /><polygon fill="none" points="553,333 548,540 321,628 590,424 362,492 478,310 336,605" stroke="rgb(151, 11, 241)" stroke-width="1.4194272133256913" /><line stroke="rgb(78, 231, 134)" stroke-width="1.2205721874067894" x1="213" x2="134" y1="444" y2="675" /><line stroke="rgb(231, 172, 36)" stroke-width="2.3547888441773597" x1="262" x2="88" y1="500" y2="706" /><line stroke="rgb(206, 86, 63)" stroke-width="2.380626931528265" x1="431" x2="414" y1="295" y2="583" /><line stroke="rgb(189, 228, 129)" stroke-width="2.5120530452631002" x1="489" x2="70" y1="647" y2="330" /><line stroke="rgb(230, 76, 115)" stroke-width="0.6361522678340552" x1="616" x2="359" y1="357" y2="716" /><line stroke="rgb(205, 236, 212)" stroke-width="1.706496146884092" x1="647" x2="264" y1="432" y2="418" /><line stroke="rgb(249, 255, 206)" stroke-width="0.6273719590218481" x1="244" x2="299" y1="93" y2="125" /><line stroke="rgb(14, 179, 108)" stroke-width="2.2945495907864513" x1="16" x2="125" y1="143" y2="530" /><line stroke="rgb(2, 5, 138)" stroke-width="1.8387993653892105" x1="79" x2="462" y1="424" y2="36" /><circle cx="140" cy="249" fill="none" opacity="0.30559983326340506" r="60" stroke="rgb(186, 224, 22)" stroke-width="2.7620341005910043" /><path d="M277,177 Q267,580 95,660 Q17,447 456,106 Q597,162 284,647 C292,626 57,569 34,78 Q250,474 220,479" fill="none" stroke="rgb(23, 78, 123)" stroke-width="2.6551222586850267" /><rect fill="none" height="94" stroke="rgb(28, 135, 41)" stroke-width="2.131767933596659" transform="rotate(16 365 251)" width="148" x="250" y="591" /><path d="M604,560 L40,630 C481,158 578,73 73,2 L503,71 Q10,63 654,272 C497,718 148,633 192,90 L490,140" fill="none" stroke="rgb(66, 118, 175)" stroke-width="2.6059836849173488" /><polygon fill="none" points="601,313 597,65 498,227 647,443 654,147" stroke="rgb(240, 46, 197)" stroke-width="0.530693695414474" /><path d="M138,94 L24,627 C418,311 451,164 122,116 L569,687" fill="none" stroke="rgb(173, 244, 172)" stroke-width="2.9750929313785837" /><path d="M204,326 C206,263 355,615 410,556 L129,687 C206,24 619,349 430,579 C648,194 261,406 280,162 C269,422 207,502 499,539 Q483,686 268,157 Q158,67 460,553" fill="none" stroke="rgb(229, 222, 130)" stroke-width="1.32831406201211" /><polygon fill="none" points="341,312 97,204 125,362 509,126 367,69" stroke="rgb(103, 145, 181)" stroke-width="1.3571900177582565" /><path d="M415,394 C557,10 294,501 539,71 C617,70 419,265 403,77 C638,18 523,665 145,249" fill="none" stroke="rgb(30, 56, 24)" stroke-width="1.5646351558299867" /><path d="M218,95 C298,458 559,495 99,105 Q86,166 21,60 L146,675" fill="none" stroke="rgb(216, 151, 182)" stroke-width="0.7476533647910064" /><line stroke="rgb(18, 37, 174)" stroke-width="2.6626399447246696" x1="434" x2="203" y1="276" y2="345" /><line stroke="rgb(192, 162, 214)" stroke-width="2.6255347820418606" x1="563" x2="139" y1="169" y2="250" /><line stroke="rgb(121, 23, 206)" stroke-width="2.5624678997909878" x1="1" x2="316" y1="566" y2="543" /><line stroke="rgb(125, 116, 229)" stroke-width="0.7969524340790225" x1="92" x2="210" y1="37" y2="301" /><line stroke="rgb(209, 37, 152)" stroke-width="1.422196943534612" x1="485" x2="507" y1="113" y2="47" /><line stroke="rgb(228, 51, 228)" stroke-width="1.7931765110728493" x1="232" x2="519" y1="206" y2="387" /><line stroke="rgb(167, 6, 210)" stroke-width="2.03682964396865" x1="406" x2="219" y1="51" y2="71" /><line stroke="rgb(94, 223, 186)" stroke-width="1.3219129298099992" x1="643" x2="377" y1="232" y2="365" /><line stroke="rgb(193, 214, 155)" stroke-width="1.0349663004319187" x1="405" x2="623" y1="342" y2="400" /><circle cx="200" cy="574" fill="none" opacity="0.3869766539366045" r="51" stroke="rgb(255, 234, 192)" stroke-width="4.157111653256266" /><line stroke="rgb(52, 6, 0)" stroke-width="0.6673043976335387" x1="134" x2="463" y1="154" y2="476" /><line stroke="rgb(145, 210, 134)" stroke-width="2.326668200033857" x1="465" x2="502" y1="58" y2="118" /><line stroke="rgb(149, 116, 12)" stroke-width="0.5400903751461062" x1="550" x2="650" y1="352" y2="679" /><line stroke="rgb(192, 244, 209)" stroke-width="2.9356929840549215" x1="387" x2="223" y1="631" y2="366" /><line stroke="rgb(164, 160, 225)" stroke-width="0.9695662246601731" x1="172" x2="430" y1="9" y2="673" /><line stroke="rgb(255, 114, 22)" stroke-width="0.9558794613508127" x1="229" x2="186" y1="685" y2="576" /><circle cx="591" cy="636" fill="none" opacity="0.3496279364144683" r="77" stroke="rgb(73, 158, 126)" stroke-width="1.5409600096879899" /><polygon fill="none" points="573,350 129,470 636,376" stroke="rgb(8, 244, 159)" stroke-width="1.5904134792641402" /><circle cx="532" cy="126" fill="none" opacity="0.5916589519315356" r="91" stroke="rgb(207, 174, 80)" stroke-width="4.139652288553627" /><circle cx="181" cy="271" fill="none" opacity="0.8565551972757703" r="117" stroke="rgb(135, 6, 3)" stroke-width="2.0092049673757826" /><polygon fill="none" points="290,644 589,424 124,517 651,372 330,590 183,515 321,442" stroke="rgb(47, 213, 218)" stroke-width="3.4535961993970408" /><circle cx="565" cy="381" fill="none" opacity="0.37793918211435495" r="20" stroke="rgb(150, 84, 57)" stroke-width="3.6540961045471905" /><polygon fill="none" points="597,334 453,340 353,202 624,624 468,667 503,46 9,681" stroke="rgb(119, 38, 240)" stroke-width="1.8789009822583804" /><rect fill="none" height="186" stroke="rgb(85, 116, 220)" stroke-width="2.486423441239215" transform="rotate(354 154 96)" width="99" x="512" y="33" /><path d="M8,396 C459,92 380,464 275,89 Q409,570 604,491 C75,248 333,665 629,94 C153,308 60,284 318,429 Q263,114 319,507 Q451,28 466,196" fill="none" stroke="rgb(35, 249, 221)" stroke-width="2.2827680810092454" /><path d="M406,592 C377,704 379,638 392,709 C354,178 658,37 434,111 C542,379 394,11 188,671 C360,350 478,391 59,119" fill="none" stroke="rgb(141, 214, 71)" stroke-width="2.1772796995526065" /><polygon fill="none" points="449,381 590,416 640,527 407,501 284,587 340,396 290,29 470,151" stroke="rgb(64, 151, 134)" stroke-width="1.980942839846084" /><circle cx="306" cy="59" fill="none" opacity="0.42328749915466984" r="124" stroke="rgb(150, 112, 100)" stroke-width="1.736776684455339" /><polygon fill="none" points="273,201 173,718 190,721 285,643 599,158 64,475 20,657" stroke="rgb(98, 131, 146)" stroke-width="2.2769679829454024" /><polygon fill="none" points="274,6 626,236 660,268 140,246 621,569 595,352 121,278 629,16" stroke="rgb(109, 108, 129)" stroke-width="2.792307116653915" /><circle cx="117" cy="475" fill="none" opacity="0.4328232249456643" r="47" stroke="rgb(53, 21, 69)" stroke-width="1.7974475413650595" /><circle cx="408" cy="223" fill="none" opacity="0.33945018249437153" r="144" stroke="rgb(104, 199, 239)" stroke-width="3.2105994486888183" /><polygon fill="none" points="631,398 112,626 301,511 5,428 209,318" stroke="rgb(162, 124, 98)" stroke-width="0.857490383660622" /><polygon fill="none" points="61,593 570,340 523,474 416,338 320,636 107,496 401,625" stroke="rgb(45, 14, 210)" stroke-width="3.6313198914404174" /></svg>