<svg baseProfile="full" height="575px" version="1.1" width="695px" xmlns="http://www.w3.org/2000/svg" xmlns:ev="http://www.w3.org/2001/xml-events" xmlns:xlink="http://www.w3.org/1999/xlink"><defs /><rect fill="rgb(249, 231, 205)" height="575px" width="695px" x="0" y="0" /><line stroke="rgb(68, 127, 167)" stroke-width="0.7551633056562694" x1="328" x2="535" y1="171" y2="202" /><line stroke="rgb(47, 16, 79)" stroke-width="1.2042170743973621" x1="688" x2="298" y1="521" y2="152" /><line stroke="rgb(78, 126, 232)" stroke-width="2.2977498008876385" x1="377" x2="216" y1="150" y2="262" /><path d="M564,478 C101,324 436,322 265,127 L262,395 C64,77 548,272 679,380 Q552,135 136,117" fill="none" stroke="rgb(156, 26, 181)" stroke-width="1.4154622726752146" /><polygon fill="none" points="152,14 358,16 526,522 534,231 603,144 73,325" stroke="rgb(109, 94, 7)" stroke-width="3.1686345518257393" /><rect fill="none" height="111" stroke="rgb(244, 230, 64)" stroke-width="1.1414486359331573" transform="rotate(121 240 137)" width="120" x="456" y="453" /><path d="M36,68 L17,449 Q112,209 445,258 Q264,414 36,363 L613,388 C129,290 367,194 155,536 Q160,533 393,340 C650,308 691,476 224,119" fill="none" stroke="rgb(0, 60, 203)" stroke-width="1.73509760521853" /><path d="M200,195 Q665,354 303,371 Q248,162 337,330 C573,382 68,96 16,499 L327,292 Q502,492 659,429" fill="none" stroke="rgb(200, 217, 107)" stroke-width="1.72448887225973" /><line stroke="rgb(55, 117, 76)" stroke-width="2.514764747392948" x1="135" x2="185" y1="210" y2="379" /><line stroke="rgb(229, 85, 206)" stroke-width="0.549609343796089" x1="122" x2="520" y1="190" y2="338" /><line stroke="rgb(20, 164, 187)" stroke-width="1.690159196140135" x1="681" x2="616" y1="561" y2="47" /><line stroke="rgb(156, 161, 117)" stroke-width="2.5468811419357476" x1="419" x2="87" y1="204" y2="117" /><line stroke="rgb(139, 37, 212)" stroke-width="2.8852256870012503" x1="414" x2="272" y1="519" y2="194" /><line stroke="rgb(150, 2, 141)" stroke-width="2.5190688556163168" x1="506" x2="534" y1="125" y2="246" /><line stroke="rgb(93, 120, 97)" stroke-width="0.8620099064450888" x1="328" x2="25" y1="387" y2="336" /><line stroke="rgb(129, 136, 170)" stroke-width="1.9278453831049178" x1="411" x2="52" y1="466" y2="138" /><line stroke="rgb(121, 228, 109)" stroke-width="2.8342084940769188" x1="608" x2="510" y1="488" y2="287" /><line stroke="rgb(149, 123, 237)" stroke-width="2.904840469127457" x1="88" x2="554" y1="422" y2="444" /><line stroke="rgb(209, 151, 139)" stroke-width="1.9485916625835986" x1="5" x2="222" y1="93" y2="394" /><line stroke="rgb(59, 224, 19)" stroke-width="0.5976373057904728" x1="373" x2="379" y1="335" y2="463" /><line stroke="rgb(244, 253, 138)" stroke-width="0.7878108765800869" x1="123" x2="551" y1="207" y2="504" /><line stroke="rgb(77, 67, 2)" stroke-width="1.489114859272926" x1="692" x2="172" y1="562" y2="317" /><line stroke="rgb(232, 140, 211)" stroke-width="2.7349581016642133" x1="222" x2="283" y1="363" y2="70" /><line stroke="rgb(216, 70, 90)" stroke-width="1.3833008535983726" x1="124" x2="306" y1="146" y2="521" /><path d="M432,519 L345,95 L112,2 Q486,390 206,267 L101,334 Q146,468 512,427" fill="none" stroke="rgb(141, 123, 116)" stroke-width="1.3378172164497548" /><rect fill="none" height="37" stroke="rgb(5, 150, 63)" stroke-width="1.2546372858899622" transform="rotate(232 103 99)" width="73" x="31" y="100" /><rect fill="none" height="59" stroke="rgb(66, 85, 133)" stroke-width="4.391660652279871" transform="rotate(108 188 227)" width="133" x="331" y="123" /><path d="M493,161 L256,546 Q671,230 232,247 Q320,269 625,503 L448,473 L371,93 Q41,472 647,419 L199,18" fill="none" stroke="rgb(31, 217, 146)" stroke-width="1.1457936623571348" /></svg>