<svg baseProfile="full" height="593px" version="1.1" width="615px" xmlns="http://www.w3.org/2000/svg" xmlns:ev="http://www.w3.org/2001/xml-events" xmlns:xlink="http://www.w3.org/1999/xlink"><defs /><rect fill="rgb(250, 242, 220)" height="593px" width="615px" x="0" y="0" /><circle cx="330" cy="80" fill="none" opacity="0.780115971055447" r="22" stroke="rgb(166, 180, 21)" stroke-width="1.8663493583518562" /><path d="M161,319 Q479,355 394,369 L500,491 Q238,218 227,319" fill="none" stroke="rgb(73, 111, 116)" stroke-width="0.7709008542555219" /><circle cx="482" cy="538" fill="none" opacity="0.6268845332663466" r="144" stroke="rgb(121, 114, 188)" stroke-width="3.730990956869003" /><polygon fill="none" points="468,526 358,306 469,224 127,419 218,375" stroke="rgb(151, 145, 193)" stroke-width="0.6743662811368891" /><path d="M235,476 C580,142 540,225 244,6 Q216,110 321,270 Q390,512 571,557 C68,183 38,469 172,51 L454,191 L174,321" fill="none" stroke="rgb(206, 53, 110)" stroke-width="2.1056662071676917" /><circle cx="476" cy="269" fill="none" opacity="0.5377990908005439" r="46" stroke="rgb(93, 144, 101)" stroke-width="3.0137358735559583" /><circle cx="426" cy="132" fill="none" opacity="0.6188291639071565" r="56" stroke="rgb(110, 32, 224)" stroke-width="3.2551316363794838" /><polygon fill="none" points="517,431 497,141 128,24 343,54 234,470 376,353 288,109 115,278" stroke="rgb(52, 61, 139)" stroke-width="2.207945330635799" /><circle cx="445" cy="278" fill="none" opacity="0.8459958706973729" r="132" stroke="rgb(123, 108, 110)" stroke-width="1.1590026093248025" /><circle cx="377" cy="155" fill="none" opacity="0.33933841441820445" r="128" stroke="rgb(107, 212, 101)" stroke-width="2.8903970882589736" /><path d="M568,506 Q277,255 170,426 L96,510 C133,295 108,226 562,335" fill="none" stroke="rgb(29, 120, 59)" stroke-width="2.793735727441062" /><line stroke="rgb(110, 227, 244)" stroke-width="1.7519345304090521" x1="459" x2="374" y1="85" y2="353" /><line stroke="rgb(97, 146, 218)" stroke-width="1.5185258898682794" x1="526" x2="570" y1="106" y2="488" /><line stroke="rgb(175, 30, 136)" stroke-width="1.9357843930981982" x1="19" x2="167" y1="185" y2="150" /><line stroke="rgb(30, 72, 87)" stroke-width="1.5752865248534058" x1="102" x2="230" y1="168" y2="430" /><line stroke="rgb(37, 50, 94)" stroke-width="1.8307185942247854" x1="570" x2="419" y1="556" y2="555" /><circle cx="82" cy="538" fill="none" opacity="0.860985803192549" r="135" stroke="rgb(215, 197, 109)" stroke-width="4.909272351316979" /><path d="M131,174 C211,555 237,178 414,348 Q186,585 334,325 C77,12 581,312 376,306" fill="none" stroke="rgb(88, 246, 110)" stroke-width="2.2140972942748065" /><polygon fill="none" points="499,84 164,540 447,298 296,454 322,565 3,410" stroke="rgb(253, 112, 105)" stroke-width="2.026404542122607" /><circle cx="174" cy="135" fill="none" opacity="0.5531236714256902" r="117" stroke="rgb(152, 211, 56)" stroke-width="3.0733873276015626" /><rect fill="none" height="97" stroke="rgb(74, 188, 141)" stroke-width="3.2689780517821343" transform="rotate(270 589 429)" width="183" x="311" y="383" /><circle cx="502" cy="89" fill="none" opacity="0.9630148803265417" r="51" stroke="rgb(184, 170, 46)" stroke-width="1.2421805791752227" /><line stroke="rgb(109, 205, 110)" stroke-width="0.6483907982874924" x1="215" x2="591" y1="158" y2="452" /><line stroke="rgb(195, 209, 1)" stroke-width="1.0002372881755615" x1="452" x2="521" y1="141" y2="373" /><line stroke="rgb(76, 124, 152)" stroke-width="1.879479786312362" x1="223" x2="308" y1="590" y2="433" /><line stroke="rgb(84, 57, 43)" stroke-width="2.1377255999030114" x1="281" x2="109" y1="160" y2="113" /><line stroke="rgb(98, 36, 188)" stroke-width="1.6740942660178835" x1="537" x2="180" y1="434" y2="267" /><line stroke="rgb(50, 22, 234)" stroke-width="1.430588875111968" x1="82" x2="2" y1="409" y2="84" /><circle cx="541" cy="120" fill="none" opacity="0.7085637897679461" r="41" stroke="rgb(30, 91, 155)" stroke-width="1.2636635042052888" /><rect fill="none" height="110" stroke="rgb(239, 79, 230)" stroke-width="1.611964888165116" transform="rotate(201 353 137)" width="134" x="262" y="315" /><line stroke="rgb(254, 84, 128)" stroke-width="0.786753525848412" x1="244" x2="208" y1="195" y2="168" /><line stroke="rgb(139, 228, 225)" stroke-width="0.8654352355666699" x1="71" x2="110" y1="436" y2="531" /><line stroke="rgb(187, 234, 247)" stroke-width="1.1143453769096086" x1="123" x2="513" y1="441" y2="145" /><line stroke="rgb(36, 129, 215)" stroke-width="1.1969786060591465" x1="556" x2="453" y1="54" y2="206" /><line stroke="rgb(41, 84, 2)" stroke-width="0.8327030768066854" x1="154" x2="568" y1="443" y2="524" /><line stroke="rgb(245, 11, 202)" stroke-width="2.7047272603399746" x1="502" x2="583" y1="404" y2="81" /><line stroke="rgb(216, 48, 71)" stroke-width="0.8263436409271014" x1="474" x2="219" y1="353" y2="441" /><line stroke="rgb(29, 62, 196)" stroke-width="1.711183019962299" x1="101" x2="427" y1="553" y2="590" /><line stroke="rgb(80, 61, 240)" stroke-width="0.7021410433410092" x1="264" x2="605" y1="359" y2="274" /><line stroke="rgb(234, 212, 108)" stroke-width="1.5869563611053654" x1="197" x2="152" y1="570" y2="455" /><line stroke="rgb(226, 129, 158)" stroke-width="2.9211826408876327" x1="35" x2="288" y1="317" y2="334" /><line stroke="rgb(98, 206, 252)" stroke-width="2.177173381564967" x1="168" x2="493" y1="510" y2="225" /><line stroke="rgb(14, 17, 226)" stroke-width="1.3374030592486963" x1="483" x2="211" y1="527" y2="38" /><line stroke="rgb(153, 144, 77)" stroke-width="0.5482375027342283" x1="159" x2="294" y1="10" y2="177" /><line stroke="rgb(10, 125, 38)" stroke-width="2.9719494441629934" x1="279" x2="225" y1="73" y2="440" /><line stroke="rgb(250, 93, 23)" stroke-width="1.4483299540254628" x1="62" x2="376" y1="79" y2="561" /><line stroke="rgb(55, 170, 100)" stroke-width="1.0865697243465893" x1="199" x2="371" y1="541" y2="37" /><line stroke="rgb(37, 65, 200)" stroke-width="1.2842268082309585" x1="182" x2="242" y1="288" y2="320" /><line stroke="rgb(233, 226, 132)" stroke-width="0.8993525513287355" x1="65" x2="4" y1="107" y2="199" /><line stroke="rgb(9, 222, 70)" stroke-width="2.956621845325195" x1="490" x2="436" y1="189" y2="247" /><line stroke="rgb(229, 97, 112)" stroke-width="0.9217381505104476" x1="553" x2="354" y1="395" y2="159" /><line stroke="rgb(238, 111, 199)" stroke-width="1.806067425138824" x1="343" x2="293" y1="420" y2="148" /><circle cx="100" cy="369" fill="none" opacity="0.35279613513533836" r="50" stroke="rgb(191, 61, 72)" stroke-width="1.1075983940153709" /><polygon fill="none" points="366,170 241,586 412,369 562,360" stroke="rgb(4, 247, 235)" stroke-width="1.0096645395278303" /><circle cx="83" cy="319" fill="none" opacity="0.6245235754070086" r="94" stroke="rgb(239, 14, 252)" stroke-width="0.9675225162801645" /><polygon fill="none" points="4,122 526,549 50,174 311,376 159,394 366,532" stroke="rgb(245, 28, 50)" stroke-width="2.488464378056734" /><rect fill="none" height="124" stroke="rgb(187, 158, 218)" stroke-width="2.385644054335253" transform="rotate(356 587 560)" width="87" x="395" y="142" /><circle cx="467" cy="273" fill="none" opacity="0.7694021157349025" r="100" stroke="rgb(134, 77, 127)" stroke-width="4.2534948040454985" /><circle cx="186" cy="299" fill="none" opacity="0.9429488562463411" r="81" stroke="rgb(10, 55, 58)" stroke-width="3.6548186257578283" /><rect fill="none" height="105" stroke="rgb(173, 36, 92)" stroke-width="2.7291926670159414" transform="rotate(141 444 453)" width="78" x="382" y="43" /><line stroke="rgb(135, 39, 124)" stroke-width="0.7271581429615874" x1="367" x2="589" y1="34" y2="563" /><line stroke="rgb(241, 163, 135)" stroke-width="2.0201539393103785" x1="394" x2="148" y1="146" y2="576" /><line stroke="rgb(203, 252, 213)" stroke-width="2.2878413921273584" x1="573" x2="469" y1="584" y2="64" /><line stroke="rgb(57, 0, 138)" stroke-width="1.2951666328920524" x1="199" x2="169" y1="320" y2="242" /><line stroke="rgb(147, 86, 178)" stroke-width="0.8591107468594135" x1="368" x2="567" y1="508" y2="12" /><line stroke="rgb(10, 231, 18)" stroke-width="1.4172207098532528" x1="353" x2="157" y1="249" y2="334" /><line stroke="rgb(48, 228, 79)" stroke-width="1.4829228395038236" x1="418" x2="382" y1="333" y2="572" /><line stroke="rgb(104, 214, 78)" stroke-width="1.5698343705165758" x1="341" x2="165" y1="351" y2="311" /><line stroke="rgb(132, 228, 253)" stroke-width="0.9553782556435648" x1="3" x2="391" y1="464" y2="14" /><line stroke="rgb(227, 183, 218)" stroke-width="1.86953475667144" x1="607" x2="267" y1="79" y2="159" /><line stroke="rgb(25, 97, 196)" stroke-width="2.204428203213225" x1="556" x2="570" y1="100" y2="394" /><line stroke="rgb(180, 117, 128)" stroke-width="1.6704046303163917" x1="533" x2="333" y1="342" y2="362" /><line stroke="rgb(197, 161, 48)" stroke-width="0.9253820436715747" x1="91" x2="281" y1="133" y2="382" /><line stroke="rgb(212, 83, 95)" stroke-width="0.9050955698691641" x1="296" x2="492" y1="586" y2="506" /><line stroke="rgb(155, 60, 55)" stroke-width="1.847819653720622" x1="480" x2="47" y1="393" y2="539" /><rect fill="none" height="54" stroke="rgb(216, 14, 153)" stroke-width="4.744797793982725" transform="rotate(355 95 309)" width="79" x="224" y="215" /><circle cx="143" cy="503" fill="none" opacity="0.9797937922191455" r="109" stroke="rgb(20, 139, 33)" stroke-width="0.547435294596021" /><rect fill="none" height="91" stroke="rgb(47, 224, 9)" stroke-width="3.646396258490887" transform="rotate(216 82 412)" width="141" x="413" y="169" /><polygon fill="none" points="240,71 303,531 371,368 245,49 470,316 36,257" stroke="rgb(73, 122, 85)" stroke-width="3.498808767828839" /><polygon fill="none" points="525,158 130,432 367,18 359,333 237,389 388,87 233,276 411,110" stroke="rgb(220, 60, 110)" stroke-width="0.6563544698741974" /><polygon fill="none" points="527,527 173,45 166,452 457,360 1,148 343,565 602,214" stroke="rgb(225, 119, 112)" stroke-width="0.9954929773535847" /><polygon fill="none" points="299,465 158,460 437,236 383,196 99,489 381,459 473,180 209,449" stroke="rgb(185, 43, 148)" stroke-width="3.2612505099258686" /><rect fill="none" height="134" stroke="rgb(42, 136, 67)" stroke-width="2.6954792706251762" transform="rotate(234 186 180)" width="43" x="331" y="350" /></svg>