<svg baseProfile="full" height="753px" version="1.1" width="1164px" xmlns="http://www.w3.org/2000/svg" xmlns:ev="http://www.w3.org/2001/xml-events" xmlns:xlink="http://www.w3.org/1999/xlink"><defs /><rect fill="rgb(226, 222, 245)" height="753px" width="1164px" x="0" y="0" /><line stroke="rgb(105, 242, 102)" stroke-width="2.724423902745116" x1="1160" x2="617" y1="238" y2="47" /><line stroke="rgb(248, 79, 135)" stroke-width="1.3434586525723322" x1="382" x2="63" y1="641" y2="0" /><line stroke="rgb(85, 218, 181)" stroke-width="2.795534727643802" x1="227" x2="659" y1="241" y2="578" /><rect fill="none" height="62" stroke="rgb(38, 19, 192)" stroke-width="2.259538993945439" transform="rotate(20 1080 389)" width="89" x="574" y="233" /><circle cx="817" cy="432" fill="none" opacity="0.7340643181394555" r="151" stroke="rgb(60, 64, 249)" stroke-width="3.6082769004354462" /><rect fill="none" height="176" stroke="rgb(252, 178, 155)" stroke-width="3.362285838757385" transform="rotate(38 972 5)" width="28" x="434" y="264" /><polygon fill="none" points="52,556 388,432 408,540 587,502" stroke="rgb(228, 154, 169)" stroke-width="2.349541506568544" /><circle cx="179" cy="340" fill="none" opacity="0.3956976773219701" r="53" stroke="rgb(234, 204, 60)" stroke-width="4.944753712330336" /><rect fill="none" height="166" stroke="rgb(200, 161, 226)" stroke-width="1.4609256991485262" transform="rotate(338 721 368)" width="96" x="1010" y="41" /><path d="M563,44 Q845,488 766,711 L1093,57 L53,56 Q611,69 424,510 C142,74 1159,682 586,257 C729,63 986,538 23,690 L670,464" fill="none" stroke="rgb(222, 14, 22)" stroke-width="1.3582952825621288" /><circle cx="943" cy="655" fill="none" opacity="0.8944871725372718" r="181" stroke="rgb(4, 89, 3)" stroke-width="1.079288494851757" /><line stroke="rgb(62, 28, 55)" stroke-width="2.1898055807358183" x1="444" x2="1122" y1="173" y2="212" /><line stroke="rgb(192, 106, 235)" stroke-width="2.2775066245478355" x1="99" x2="542" y1="617" y2="347" /><line stroke="rgb(150, 90, 253)" stroke-width="1.9347220240883622" x1="859" x2="326" y1="593" y2="514" /></svg>