<svg baseProfile="full" height="750px" version="1.1" width="1094px" xmlns="http://www.w3.org/2000/svg" xmlns:ev="http://www.w3.org/2001/xml-events" xmlns:xlink="http://www.w3.org/1999/xlink"><defs /><rect fill="rgb(214, 214, 240)" height="750px" width="1094px" x="0" y="0" /><polygon fill="none" points="16,471 304,386 631,288 844,562 681,437 802,364" stroke="rgb(67, 104, 10)" stroke-width="2.5957010207544946" /><path d="M770,69 C743,673 855,230 281,128 L384,124 Q824,725 283,660" fill="none" stroke="rgb(170, 47, 188)" stroke-width="1.8472312110454132" /><path d="M501,68 L550,588 L617,474 C562,473 1072,558 681,594" fill="none" stroke="rgb(29, 86, 31)" stroke-width="2.459875000707898" /><line stroke="rgb(237, 172, 241)" stroke-width="0.9306342882059316" x1="703" x2="628" y1="490" y2="45" /><line stroke="rgb(210, 153, 75)" stroke-width="2.9463599722342426" x1="393" x2="118" y1="90" y2="80" /><line stroke="rgb(23, 151, 54)" stroke-width="2.9808124135414245" x1="1003" x2="219" y1="702" y2="582" /><line stroke="rgb(209, 207, 209)" stroke-width="2.6117793055422323" x1="54" x2="1086" y1="691" y2="44" /><line stroke="rgb(149, 57, 195)" stroke-width="2.0932687804521355" x1="321" x2="973" y1="509" y2="164" /><line stroke="rgb(99, 127, 1)" stroke-width="2.842258011313613" x1="887" x2="106" y1="168" y2="245" /><rect fill="none" height="114" stroke="rgb(14, 121, 233)" stroke-width="2.8316553399015567" transform="rotate(310 1025 475)" width="200" x="117" y="444" /><rect fill="none" height="124" stroke="rgb(202, 83, 138)" stroke-width="2.036528307251416" transform="rotate(327 883 189)" width="76" x="367" y="449" /><path d="M247,587 C34,143 976,632 408,692 Q868,292 828,273 L116,328 C105,659 132,307 18,619 L498,146 C272,715 215,378 567,606 C452,304 681,35 271,704" fill="none" stroke="rgb(131, 177, 192)" stroke-width="1.5686976928634886" /><path d="M744,32 C1028,648 973,682 783,365 Q7,37 162,269 Q941,390 411,487 C33,553 1004,276 890,577 Q123,211 531,385" fill="none" stroke="rgb(121, 79, 93)" stroke-width="0.6603570627366008" /><path d="M94,457 Q864,745 719,70 Q592,535 40,389 C729,127 539,631 819,151 C929,462 433,117 940,184 L333,668" fill="none" stroke="rgb(228, 83, 61)" stroke-width="1.3358641510218807" /><rect fill="none" height="192" stroke="rgb(65, 77, 172)" stroke-width="3.0245686448924927" transform="rotate(97 918 550)" width="78" x="555" y="309" /><polygon fill="none" points="592,435 610,59 325,233" stroke="rgb(253, 119, 30)" stroke-width="3.8631422559654967" /><path d="M715,535 C601,735 671,368 1034,488 L616,561 C892,732 588,379 283,642 Q654,61 626,30 Q239,615 941,221 C902,113 872,39 528,26 L136,579" fill="none" stroke="rgb(91, 102, 30)" stroke-width="2.0069435193785403" /><path d="M443,93 C936,149 265,91 382,431 L248,365 L41,361 L269,703 C34,662 277,531 138,33 C186,118 751,369 744,558" fill="none" stroke="rgb(244, 97, 197)" stroke-width="1.8409861757151065" /><rect fill="none" height="129" stroke="rgb(246, 204, 143)" stroke-width="2.6239392584989503" transform="rotate(334 967 499)" width="88" x="829" y="122" /><circle cx="815" cy="683" fill="none" opacity="0.31403249737203276" r="74" stroke="rgb(65, 166, 43)" stroke-width="4.8946787461304195" /><path d="M531,120 Q116,28 754,510 C966,15 880,546 967,329 C1030,138 58,277 636,191 C697,114 300,155 581,630 Q353,0 649,481 L507,170" fill="none" stroke="rgb(132, 11, 208)" stroke-width="2.5607871365988433" /><line stroke="rgb(50, 92, 120)" stroke-width="0.7231784775624579" x1="194" x2="942" y1="402" y2="412" /><line stroke="rgb(141, 205, 193)" stroke-width="1.5904396489496857" x1="500" x2="839" y1="513" y2="124" /><line stroke="rgb(87, 234, 100)" stroke-width="1.3850468754404899" x1="307" x2="721" y1="123" y2="37" /><line stroke="rgb(133, 86, 42)" stroke-width="1.2392257394824717" x1="581" x2="917" y1="578" y2="176" /><line stroke="rgb(43, 243, 104)" stroke-width="2.1370894557063997" x1="894" x2="630" y1="133" y2="123" /><line stroke="rgb(136, 69, 147)" stroke-width="1.807312836377727" x1="1084" x2="875" y1="498" y2="286" /><line stroke="rgb(157, 10, 172)" stroke-width="1.970170642434736" x1="484" x2="196" y1="544" y2="619" /><line stroke="rgb(84, 237, 31)" stroke-width="2.0352869957656954" x1="817" x2="838" y1="84" y2="729" /><line stroke="rgb(141, 8, 36)" stroke-width="1.3029572966946725" x1="801" x2="331" y1="587" y2="725" /><line stroke="rgb(142, 42, 206)" stroke-width="0.5257591209243582" x1="217" x2="349" y1="518" y2="481" /><line stroke="rgb(16, 87, 235)" stroke-width="1.7976305588038346" x1="813" x2="622" y1="349" y2="81" /></svg>