<svg baseProfile="full" height="640px" version="1.1" width="1055px" xmlns="http://www.w3.org/2000/svg" xmlns:ev="http://www.w3.org/2001/xml-events" xmlns:xlink="http://www.w3.org/1999/xlink"><defs /><rect fill="rgb(255, 206, 238)" height="640px" width="1055px" x="0" y="0" /><polygon fill="none" points="334,416 506,448 819,168" stroke="rgb(212, 152, 141)" stroke-width="0.8234304966975408" /><polygon fill="none" points="24,495 270,334 49,259 31,636" stroke="rgb(29, 32, 114)" stroke-width="2.7369989154353305" /><path d="M794,382 C1022,497 592,435 868,379 L125,426 L331,405 C685,265 978,356 85,538 L907,420 C447,140 670,333 111,339 L925,413" fill="none" stroke="rgb(197, 93, 23)" stroke-width="2.234588125168578" /><rect fill="none" height="186" stroke="rgb(33, 130, 77)" stroke-width="3.6185500059488716" transform="rotate(136 113 471)" width="185" x="782" y="235" /><polygon fill="none" points="482,562 221,301 237,11 887,603 877,103 415,515" stroke="rgb(232, 156, 39)" stroke-width="1.0624385670970367" /><path d="M121,51 C402,161 533,435 213,164 C288,0 810,227 512,589 L6,419 C573,514 981,97 950,65" fill="none" stroke="rgb(115, 21, 146)" stroke-width="1.7059222967088625" /><circle cx="177" cy="469" fill="none" opacity="0.7296767084694402" r="147" stroke="rgb(127, 95, 67)" stroke-width="2.152548582979712" /><line stroke="rgb(112, 156, 159)" stroke-width="1.1667884599309157" x1="275" x2="133" y1="455" y2="300" /><line stroke="rgb(51, 44, 139)" stroke-width="2.1516785848516546" x1="801" x2="83" y1="492" y2="146" /><line stroke="rgb(201, 119, 120)" stroke-width="2.235149481134127" x1="566" x2="475" y1="212" y2="549" /><line stroke="rgb(180, 169, 182)" stroke-width="1.7194176393692602" x1="572" x2="183" y1="177" y2="200" /><line stroke="rgb(116, 6, 179)" stroke-width="1.0940594909372692" x1="1008" x2="298" y1="13" y2="358" /><line stroke="rgb(130, 137, 215)" stroke-width="2.1206617005853707" x1="360" x2="198" y1="517" y2="280" /><line stroke="rgb(188, 202, 48)" stroke-width="2.3187228049030195" x1="115" x2="514" y1="464" y2="274" /><path d="M163,264 C37,637 838,278 603,134 L170,634 Q241,525 375,123 C686,459 739,232 999,109 Q724,442 225,353 L460,622 L691,572" fill="none" stroke="rgb(25, 28, 243)" stroke-width="1.8948726540265541" /><polygon fill="none" points="966,362 838,144 223,362 553,293 675,385 552,220" stroke="rgb(144, 23, 156)" stroke-width="1.9347645171529155" /><polygon fill="none" points="552,358 130,459 781,506 100,349 627,316 1015,412 1019,57" stroke="rgb(165, 148, 167)" stroke-width="1.2639742496378477" /></svg>