<svg baseProfile="full" height="522px" version="1.1" width="787px" xmlns="http://www.w3.org/2000/svg" xmlns:ev="http://www.w3.org/2001/xml-events" xmlns:xlink="http://www.w3.org/1999/xlink"><defs /><rect fill="rgb(232, 232, 232)" height="522px" width="787px" x="0" y="0" /><circle cx="167" cy="348" fill="none" opacity="0.3739510467291072" r="67" stroke="rgb(93, 57, 22)" stroke-width="1.329039477649783" /><path d="M383,404 L686,431 L475,111 L396,487 L171,266 C683,250 379,459 338,494" fill="none" stroke="rgb(165, 176, 193)" stroke-width="2.004259374512375" /><polygon fill="none" points="275,228 446,425 281,439" stroke="rgb(165, 43, 89)" stroke-width="2.081607501757103" /><rect fill="none" height="96" stroke="rgb(24, 35, 159)" stroke-width="0.9500521442748708" transform="rotate(5 433 16)" width="122" x="176" y="172" /><polygon fill="none" points="197,373 584,131 747,412 41,229 727,443 578,6 27,33 183,305" stroke="rgb(46, 244, 198)" stroke-width="1.5584435831045216" /><rect fill="none" height="145" stroke="rgb(96, 238, 250)" stroke-width="2.5964831358371723" transform="rotate(87 152 164)" width="58" x="620" y="22" /><line stroke="rgb(64, 191, 168)" stroke-width="2.6446389398847234" x1="505" x2="648" y1="310" y2="219" /><line stroke="rgb(240, 166, 69)" stroke-width="1.9542258864496718" x1="492" x2="136" y1="242" y2="128" /><line stroke="rgb(225, 4, 238)" stroke-width="2.1315343071437294" x1="427" x2="453" y1="479" y2="358" /><line stroke="rgb(107, 187, 221)" stroke-width="1.7876975071403756" x1="235" x2="342" y1="153" y2="501" /><line stroke="rgb(153, 182, 85)" stroke-width="2.176902729705958" x1="128" x2="739" y1="271" y2="79" /><line stroke="rgb(16, 122, 210)" stroke-width="2.629476057876195" x1="92" x2="238" y1="185" y2="46" /><line stroke="rgb(27, 127, 27)" stroke-width="1.2238397449831313" x1="109" x2="525" y1="479" y2="307" /><line stroke="rgb(10, 60, 194)" stroke-width="2.4933539495728976" x1="493" x2="132" y1="179" y2="89" /><line stroke="rgb(123, 130, 170)" stroke-width="2.2497624875756275" x1="510" x2="332" y1="224" y2="402" /><circle cx="290" cy="347" fill="none" opacity="0.8826869675347704" r="38" stroke="rgb(28, 133, 134)" stroke-width="1.6525809776529323" /><line stroke="rgb(87, 2, 91)" stroke-width="0.7877274871533803" x1="220" x2="113" y1="521" y2="324" /><line stroke="rgb(63, 227, 165)" stroke-width="1.0152545983061416" x1="639" x2="53" y1="407" y2="175" /><line stroke="rgb(71, 80, 59)" stroke-width="1.8601458453037687" x1="291" x2="160" y1="409" y2="90" /><line stroke="rgb(253, 101, 173)" stroke-width="1.438974035191086" x1="638" x2="594" y1="340" y2="119" /><line stroke="rgb(134, 60, 143)" stroke-width="2.3648453539952654" x1="505" x2="602" y1="470" y2="363" /><line stroke="rgb(222, 139, 99)" stroke-width="1.8985110276989676" x1="202" x2="374" y1="308" y2="302" /><line stroke="rgb(205, 68, 11)" stroke-width="0.603725860813515" x1="556" x2="659" y1="133" y2="500" /><line stroke="rgb(216, 44, 88)" stroke-width="0.8661816780897725" x1="776" x2="50" y1="3" y2="484" /><line stroke="rgb(192, 52, 88)" stroke-width="2.0320716442431945" x1="309" x2="24" y1="98" y2="215" /><line stroke="rgb(157, 228, 98)" stroke-width="0.6897780599178336" x1="175" x2="427" y1="248" y2="105" /><rect fill="none" height="28" stroke="rgb(152, 243, 13)" stroke-width="1.4958344820635485" transform="rotate(293 119 217)" width="172" x="533" y="256" /><rect fill="none" height="65" stroke="rgb(2, 48, 14)" stroke-width="2.637361148409445" transform="rotate(42 787 142)" width="186" x="200" y="108" /><line stroke="rgb(216, 74, 122)" stroke-width="1.9213040820888523" x1="704" x2="450" y1="338" y2="485" /><line stroke="rgb(227, 81, 203)" stroke-width="0.6977481165186784" x1="119" x2="28" y1="518" y2="73" /><line stroke="rgb(43, 107, 98)" stroke-width="2.4073868752228895" x1="464" x2="90" y1="464" y2="460" /><line stroke="rgb(11, 179, 78)" stroke-width="2.6246597852416835" x1="297" x2="339" y1="246" y2="194" /><line stroke="rgb(215, 41, 42)" stroke-width="2.9701933454116327" x1="23" x2="65" y1="101" y2="342" /><line stroke="rgb(244, 174, 134)" stroke-width="2.9060963188678812" x1="416" x2="196" y1="59" y2="495" /><line stroke="rgb(202, 123, 131)" stroke-width="1.1786872378194593" x1="522" x2="321" y1="274" y2="423" /><line stroke="rgb(76, 146, 6)" stroke-width="2.830455687625141" x1="428" x2="448" y1="374" y2="229" /><line stroke="rgb(33, 195, 87)" stroke-width="2.652274858668931" x1="578" x2="7" y1="54" y2="181" /><line stroke="rgb(99, 5, 211)" stroke-width="1.287397456334317" x1="461" x2="277" y1="310" y2="66" /><path d="M345,271 C481,425 740,188 278,419 Q383,362 642,223 L185,456 Q493,276 455,372 Q689,354 145,379 C0,91 179,201 4,93 Q44,334 249,276" fill="none" stroke="rgb(246, 55, 224)" stroke-width="1.7431075860378544" /><line stroke="rgb(164, 207, 155)" stroke-width="0.7506377632529253" x1="132" x2="334" y1="454" y2="63" /><line stroke="rgb(178, 174, 231)" stroke-width="1.26183658690048" x1="496" x2="762" y1="222" y2="346" /><line stroke="rgb(189, 101, 36)" stroke-width="1.5280325812502353" x1="587" x2="560" y1="247" y2="251" /><rect fill="none" height="63" stroke="rgb(47, 27, 185)" stroke-width="1.5634103877263588" transform="rotate(8 555 505)" width="47" x="206" y="312" /><path d="M123,207 C526,519 301,147 33,296 Q187,225 388,226 Q185,52 778,496 C118,201 623,424 701,159 C695,34 362,397 676,375" fill="none" stroke="rgb(105, 176, 238)" stroke-width="2.5383927030151368" /><rect fill="none" height="144" stroke="rgb(142, 118, 92)" stroke-width="4.714483917912231" transform="rotate(60 561 302)" width="30" x="556" y="130" /><rect fill="none" height="96" stroke="rgb(207, 52, 216)" stroke-width="4.7177948654481385" transform="rotate(135 675 156)" width="142" x="295" y="253" /><rect fill="none" height="90" stroke="rgb(24, 231, 219)" stroke-width="0.6967309704562736" transform="rotate(264 208 155)" width="156" x="251" y="421" /><circle cx="547" cy="367" fill="none" opacity="0.40908594249297703" r="11" stroke="rgb(85, 189, 227)" stroke-width="0.9261548630301276" /><polygon fill="none" points="477,435 551,265 497,99 648,443" stroke="rgb(62, 177, 86)" stroke-width="0.5673616309285116" /><circle cx="641" cy="341" fill="none" opacity="0.7187923002271339" r="109" stroke="rgb(145, 95, 199)" stroke-width="1.6128137487801792" /><rect fill="none" height="107" stroke="rgb(97, 76, 213)" stroke-width="3.9179742178938577" transform="rotate(251 71 39)" width="89" x="197" y="81" /><rect fill="none" height="72" stroke="rgb(215, 115, 171)" stroke-width="3.0803839701899016" transform="rotate(147 432 189)" width="123" x="502" y="264" /><rect fill="none" height="77" stroke="rgb(30, 210, 22)" stroke-width="3.992935913630298" transform="rotate(216 438 207)" width="95" x="572" y="320" /><circle cx="510" cy="323" fill="none" opacity="0.7137826450317368" r="110" stroke="rgb(226, 7, 169)" stroke-width="2.062866796071111" /></svg>