<svg baseProfile="full" height="729px" version="1.1" width="611px" xmlns="http://www.w3.org/2000/svg" xmlns:ev="http://www.w3.org/2001/xml-events" xmlns:xlink="http://www.w3.org/1999/xlink"><defs /><rect fill="rgb(248, 232, 215)" height="729px" width="611px" x="0" y="0" /><circle cx="90" cy="322" fill="none" opacity="0.6713998046264004" r="117" stroke="rgb(194, 222, 138)" stroke-width="3.6603739416828214" /><circle cx="383" cy="419" fill="none" opacity="0.5409616247549908" r="150" stroke="rgb(74, 210, 249)" stroke-width="1.3777265345581462" /><circle cx="174" cy="191" fill="none" opacity="0.7906465695356462" r="84" stroke="rgb(158, 66, 70)" stroke-width="3.9064790854314206" /><line stroke="rgb(34, 183, 174)" stroke-width="0.9496803080891326" x1="423" x2="362" y1="538" y2="464" /><line stroke="rgb(229, 69, 235)" stroke-width="0.7385913786645166" x1="486" x2="365" y1="128" y2="132" /><line stroke="rgb(5, 193, 212)" stroke-width="2.4212979745966505" x1="196" x2="108" y1="137" y2="222" /><line stroke="rgb(146, 212, 127)" stroke-width="2.2838381471908695" x1="481" x2="274" y1="108" y2="611" /><line stroke="rgb(60, 50, 192)" stroke-width="2.6595654102369704" x1="504" x2="295" y1="170" y2="183" /><line stroke="rgb(55, 228, 191)" stroke-width="2.643758641014945" x1="24" x2="86" y1="263" y2="569" /><line stroke="rgb(202, 99, 110)" stroke-width="0.8503751832722701" x1="359" x2="400" y1="32" y2="433" /><line stroke="rgb(86, 122, 54)" stroke-width="2.855245112528986" x1="261" x2="12" y1="33" y2="252" /><circle cx="316" cy="232" fill="none" opacity="0.748965159755661" r="111" stroke="rgb(217, 118, 31)" stroke-width="4.107812778985853" /><line stroke="rgb(158, 201, 79)" stroke-width="2.2191983892233624" x1="511" x2="118" y1="190" y2="225" /><line stroke="rgb(25, 53, 153)" stroke-width="1.5154479381423123" x1="607" x2="325" y1="295" y2="626" /><line stroke="rgb(18, 203, 62)" stroke-width="2.6574593504188684" x1="137" x2="309" y1="122" y2="323" /><line stroke="rgb(21, 227, 14)" stroke-width="1.108482419274187" x1="366" x2="409" y1="404" y2="527" /><line stroke="rgb(80, 152, 201)" stroke-width="1.1371502664946485" x1="243" x2="73" y1="42" y2="726" /><line stroke="rgb(253, 97, 31)" stroke-width="2.100831509607472" x1="320" x2="323" y1="654" y2="194" /><line stroke="rgb(55, 126, 145)" stroke-width="1.5957767538935697" x1="311" x2="267" y1="59" y2="426" /><line stroke="rgb(165, 176, 242)" stroke-width="2.3898023664212715" x1="423" x2="255" y1="57" y2="196" /><line stroke="rgb(116, 234, 243)" stroke-width="0.7625203643626837" x1="75" x2="268" y1="696" y2="479" /><line stroke="rgb(222, 35, 180)" stroke-width="2.49839505083631" x1="488" x2="296" y1="674" y2="504" /><line stroke="rgb(26, 120, 69)" stroke-width="2.003581283044372" x1="17" x2="219" y1="284" y2="222" /><circle cx="430" cy="551" fill="none" opacity="0.960843350164873" r="131" stroke="rgb(19, 207, 195)" stroke-width="1.85334866034969" /><line stroke="rgb(209, 3, 38)" stroke-width="0.8155655491959783" x1="134" x2="544" y1="513" y2="391" /><line stroke="rgb(148, 153, 193)" stroke-width="1.7493550843783074" x1="106" x2="274" y1="140" y2="6" /><line stroke="rgb(69, 203, 40)" stroke-width="2.6692920638195927" x1="275" x2="576" y1="642" y2="551" /><line stroke="rgb(220, 134, 157)" stroke-width="2.510428642611013" x1="173" x2="215" y1="708" y2="138" /><line stroke="rgb(243, 196, 135)" stroke-width="1.4754416798064396" x1="348" x2="37" y1="137" y2="479" /><line stroke="rgb(152, 48, 206)" stroke-width="1.7793292832337577" x1="340" x2="165" y1="186" y2="616" /><line stroke="rgb(65, 85, 177)" stroke-width="1.0791168068434047" x1="590" x2="290" y1="576" y2="226" /><line stroke="rgb(23, 250, 180)" stroke-width="1.3242631414518362" x1="406" x2="321" y1="334" y2="575" /><line stroke="rgb(26, 224, 102)" stroke-width="0.9768504004387802" x1="514" x2="316" y1="213" y2="232" /><line stroke="rgb(91, 144, 87)" stroke-width="1.5716877833861373" x1="259" x2="370" y1="307" y2="30" /><line stroke="rgb(132, 133, 82)" stroke-width="0.9182455935096335" x1="578" x2="14" y1="323" y2="51" /><circle cx="181" cy="640" fill="none" opacity="0.5624746021591769" r="57" stroke="rgb(154, 238, 250)" stroke-width="4.003004072026575" /><path d="M367,461 L304,635 C345,155 491,598 548,475 L222,130 Q188,227 455,363 L199,351 L270,599" fill="none" stroke="rgb(140, 134, 80)" stroke-width="2.0526743093499684" /><line stroke="rgb(167, 7, 12)" stroke-width="1.3749423356769133" x1="608" x2="207" y1="180" y2="462" /><line stroke="rgb(65, 164, 14)" stroke-width="1.2932676159136944" x1="44" x2="98" y1="317" y2="283" /><line stroke="rgb(192, 22, 155)" stroke-width="2.5823067833179194" x1="571" x2="390" y1="719" y2="172" /><line stroke="rgb(140, 146, 245)" stroke-width="2.6899554631463696" x1="448" x2="45" y1="498" y2="132" /><line stroke="rgb(138, 2, 157)" stroke-width="0.5100575646772855" x1="221" x2="592" y1="268" y2="98" /><line stroke="rgb(255, 255, 211)" stroke-width="1.5929085199117123" x1="324" x2="554" y1="530" y2="417" /><line stroke="rgb(41, 193, 135)" stroke-width="2.7668958676173827" x1="145" x2="202" y1="497" y2="309" /><line stroke="rgb(81, 101, 242)" stroke-width="0.58453330848085" x1="85" x2="534" y1="43" y2="50" /><line stroke="rgb(133, 61, 123)" stroke-width="2.5952931128574983" x1="544" x2="345" y1="45" y2="299" /><line stroke="rgb(54, 123, 247)" stroke-width="1.1635365541092315" x1="580" x2="213" y1="121" y2="441" /><path d="M453,657 L545,199 L272,372 Q592,362 124,339 L346,158 Q79,309 415,154 Q494,23 348,253 Q170,503 241,67" fill="none" stroke="rgb(198, 202, 78)" stroke-width="1.6325368506701303" /><line stroke="rgb(170, 13, 84)" stroke-width="1.7377183440081894" x1="56" x2="3" y1="11" y2="230" /><line stroke="rgb(253, 210, 164)" stroke-width="1.8974355918728885" x1="346" x2="245" y1="288" y2="568" /><line stroke="rgb(246, 16, 125)" stroke-width="1.62583124666087" x1="86" x2="475" y1="387" y2="158" /><line stroke="rgb(128, 32, 233)" stroke-width="1.7389057259872673" x1="516" x2="145" y1="673" y2="589" /><line stroke="rgb(78, 68, 122)" stroke-width="1.8618095063057176" x1="370" x2="79" y1="259" y2="491" /><line stroke="rgb(232, 89, 182)" stroke-width="2.442086193853622" x1="494" x2="453" y1="234" y2="418" /><line stroke="rgb(120, 82, 98)" stroke-width="2.9146758428548316" x1="440" x2="89" y1="435" y2="628" /><line stroke="rgb(115, 223, 210)" stroke-width="0.5931588973541869" x1="329" x2="130" y1="134" y2="674" /><line stroke="rgb(24, 14, 206)" stroke-width="1.3941428632362534" x1="417" x2="138" y1="269" y2="237" /><line stroke="rgb(163, 49, 197)" stroke-width="2.346029997311625" x1="387" x2="587" y1="611" y2="220" /><path d="M475,281 Q130,641 355,113 C408,356 163,620 167,196 L155,526 Q508,129 311,659 Q610,513 186,358 Q472,625 98,104" fill="none" stroke="rgb(25, 155, 194)" stroke-width="2.332939072425823" /><polygon fill="none" points="550,257 313,395 65,218 326,41 241,172 565,150 43,723" stroke="rgb(238, 131, 217)" stroke-width="2.794542799763814" /><polygon fill="none" points="160,129 200,262 448,361 25,308 222,356 508,670 248,201 298,718" stroke="rgb(6, 148, 44)" stroke-width="1.4155814403983538" /><rect fill="none" height="134" stroke="rgb(56, 7, 247)" stroke-width="0.9906158697557546" transform="rotate(168 78 201)" width="176" x="460" y="139" /><polygon fill="none" points="38,420 38,3 316,460 41,170 25,546 308,463 115,489 170,726" stroke="rgb(221, 106, 43)" stroke-width="1.1129129668704865" /><polygon fill="none" points="225,45 207,551 434,365 240,11" stroke="rgb(152, 67, 137)" stroke-width="1.9235047133717749" /><line stroke="rgb(115, 163, 64)" stroke-width="1.57857684951322" x1="521" x2="343" y1="379" y2="296" /><line stroke="rgb(251, 214, 183)" stroke-width="1.4445022629476023" x1="46" x2="390" y1="38" y2="174" /><line stroke="rgb(96, 81, 31)" stroke-width="2.842784946662177" x1="219" x2="20" y1="8" y2="398" /><circle cx="324" cy="431" fill="none" opacity="0.4825015144062584" r="71" stroke="rgb(227, 90, 71)" stroke-width="2.478117134929677" /><line stroke="rgb(57, 86, 136)" stroke-width="0.658154656231192" x1="429" x2="375" y1="311" y2="91" /><line stroke="rgb(234, 74, 140)" stroke-width="0.7237087953326877" x1="314" x2="13" y1="220" y2="215" /><line stroke="rgb(240, 31, 208)" stroke-width="1.1267306206508847" x1="298" x2="188" y1="82" y2="724" /><line stroke="rgb(206, 198, 237)" stroke-width="1.7892123804222768" x1="515" x2="327" y1="49" y2="97" /><line stroke="rgb(225, 240, 147)" stroke-width="2.9758737024620476" x1="520" x2="21" y1="581" y2="240" /><path d="M139,5 L20,622 Q450,669 45,634 Q156,108 301,470 C577,142 587,721 515,536 L337,517 L211,727" fill="none" stroke="rgb(6, 11, 245)" stroke-width="2.5085133199041305" /><polygon fill="none" points="80,221 268,348 143,42" stroke="rgb(255, 197, 173)" stroke-width="3.2328318321684075" /><path d="M589,648 L121,441 L208,12 L598,531 Q385,406 463,472 L256,510 L318,709" fill="none" stroke="rgb(3, 218, 237)" stroke-width="1.1745341196916077" /><path d="M169,212 L339,724 C113,237 30,241 392,207 C409,280 601,208 494,335 Q269,590 461,665" fill="none" stroke="rgb(221, 231, 202)" stroke-width="2.7319069235558704" /><line stroke="rgb(225, 221, 186)" stroke-width="0.6116135030301818" x1="292" x2="451" y1="136" y2="646" /><line stroke="rgb(84, 216, 71)" stroke-width="0.565216333764708" x1="371" x2="396" y1="639" y2="478" /><line stroke="rgb(41, 20, 251)" stroke-width="1.9500725239209533" x1="72" x2="114" y1="303" y2="236" /><line stroke="rgb(114, 136, 89)" stroke-width="2.3553512775056094" x1="372" x2="345" y1="442" y2="637" /><line stroke="rgb(66, 136, 109)" stroke-width="2.271101533265402" x1="54" x2="425" y1="703" y2="109" /><line stroke="rgb(25, 181, 195)" stroke-width="1.7048899063350424" x1="550" x2="231" y1="617" y2="595" /><polygon fill="none" points="212,367 339,143 371,413 37,428 590,38 47,121 519,416 510,336" stroke="rgb(151, 146, 48)" stroke-width="0.852437445415218" /><circle cx="512" cy="225" fill="none" opacity="0.685537151836708" r="58" stroke="rgb(142, 44, 5)" stroke-width="2.3306986610959486" /><polygon fill="none" points="333,16 86,724 324,430 97,155 369,432" stroke="rgb(145, 50, 86)" stroke-width="3.6947330114225494" /><polygon fill="none" points="305,325 322,683 58,140 103,606" stroke="rgb(200, 102, 121)" stroke-width="2.1283685598110966" /></svg>