<svg baseProfile="full" height="761px" version="1.1" width="755px" xmlns="http://www.w3.org/2000/svg" xmlns:ev="http://www.w3.org/2001/xml-events" xmlns:xlink="http://www.w3.org/1999/xlink"><defs /><rect fill="rgb(213, 238, 226)" height="761px" width="755px" x="0" y="0" /><polygon fill="none" points="250,415 681,426 416,610 606,551 65,82 317,45 49,459" stroke="rgb(208, 55, 1)" stroke-width="3.553585167500067" /><circle cx="98" cy="154" fill="none" opacity="0.3923150817836706" r="164" stroke="rgb(190, 75, 124)" stroke-width="2.8243955357081556" /><polygon fill="none" points="351,486 222,415 603,158 440,506" stroke="rgb(119, 4, 40)" stroke-width="2.173584672682506" /><line stroke="rgb(236, 2, 62)" stroke-width="2.5731174896017346" x1="47" x2="632" y1="47" y2="374" /><line stroke="rgb(196, 55, 39)" stroke-width="0.6081245198414984" x1="471" x2="331" y1="1" y2="417" /><line stroke="rgb(90, 82, 165)" stroke-width="1.3004410189665978" x1="482" x2="58" y1="172" y2="224" /><rect fill="none" height="105" stroke="rgb(243, 51, 119)" stroke-width="4.667624387166079" transform="rotate(189 73 291)" width="22" x="613" y="18" /><rect fill="none" height="94" stroke="rgb(173, 210, 17)" stroke-width="3.0781410592103526" transform="rotate(215 145 237)" width="45" x="208" y="354" /><circle cx="677" cy="306" fill="none" opacity="0.39595618485212764" r="110" stroke="rgb(203, 197, 23)" stroke-width="2.7756700263631338" /><circle cx="419" cy="395" fill="none" opacity="0.6583977150521383" r="69" stroke="rgb(53, 97, 135)" stroke-width="1.6840095394467425" /><polygon fill="none" points="634,171 192,474 424,722 566,542 258,294 419,247 164,11" stroke="rgb(181, 32, 247)" stroke-width="3.696368792264562" /><path d="M91,344 Q652,543 252,460 Q412,198 403,5 Q139,475 555,417 C43,555 747,705 302,168 L188,639" fill="none" stroke="rgb(186, 138, 233)" stroke-width="1.5001057259353057" /><circle cx="276" cy="311" fill="none" opacity="0.36980870287633244" r="115" stroke="rgb(227, 97, 186)" stroke-width="1.114946209775693" /><polygon fill="none" points="524,745 717,512 269,652" stroke="rgb(151, 245, 10)" stroke-width="0.9901184424957719" /><circle cx="226" cy="372" fill="none" opacity="0.4711340259680216" r="116" stroke="rgb(83, 140, 129)" stroke-width="4.654472677342113" /><line stroke="rgb(41, 200, 239)" stroke-width="0.7147942541536572" x1="158" x2="377" y1="610" y2="325" /><line stroke="rgb(161, 45, 178)" stroke-width="2.8491816413738515" x1="372" x2="297" y1="724" y2="452" /><line stroke="rgb(142, 37, 41)" stroke-width="1.5074101563844358" x1="309" x2="667" y1="234" y2="535" /><line stroke="rgb(83, 40, 152)" stroke-width="2.8282661821770274" x1="284" x2="706" y1="181" y2="586" /><line stroke="rgb(254, 76, 152)" stroke-width="1.9846600583707819" x1="417" x2="539" y1="57" y2="471" /><line stroke="rgb(234, 179, 188)" stroke-width="0.9196404639292861" x1="445" x2="360" y1="465" y2="710" /><line stroke="rgb(71, 155, 187)" stroke-width="0.8782501908669158" x1="726" x2="83" y1="447" y2="728" /><line stroke="rgb(84, 228, 7)" stroke-width="2.0414294097861987" x1="169" x2="665" y1="198" y2="234" /><line stroke="rgb(233, 152, 82)" stroke-width="2.8885269683135033" x1="425" x2="116" y1="424" y2="186" /><path d="M225,446 Q248,715 558,270 C14,110 99,339 44,533 Q111,522 423,29 C21,536 329,74 66,364 C132,157 211,50 281,648" fill="none" stroke="rgb(216, 2, 140)" stroke-width="1.3375754115350806" /><line stroke="rgb(83, 86, 128)" stroke-width="1.0182174196520868" x1="627" x2="445" y1="308" y2="509" /><line stroke="rgb(22, 250, 51)" stroke-width="1.4031352158080352" x1="250" x2="427" y1="205" y2="619" /><line stroke="rgb(66, 211, 241)" stroke-width="1.039276196590699" x1="82" x2="667" y1="469" y2="466" /><line stroke="rgb(21, 122, 169)" stroke-width="1.1070235268354576" x1="293" x2="223" y1="291" y2="102" /><line stroke="rgb(164, 165, 206)" stroke-width="1.0710928595182507" x1="184" x2="377" y1="540" y2="699" /><line stroke="rgb(238, 175, 78)" stroke-width="0.5423468060879826" x1="414" x2="673" y1="4" y2="41" /><line stroke="rgb(238, 248, 113)" stroke-width="1.9152981760106242" x1="707" x2="507" y1="303" y2="473" /><line stroke="rgb(102, 85, 129)" stroke-width="2.8900471504402794" x1="188" x2="235" y1="384" y2="423" /><circle cx="204" cy="604" fill="none" opacity="0.6104626586043118" r="58" stroke="rgb(16, 250, 238)" stroke-width="4.577382862603484" /><path d="M135,122 L287,139 C507,181 117,259 662,68 L650,404 L629,111 L104,304 C121,121 732,310 336,628 C545,5 634,109 56,742" fill="none" stroke="rgb(52, 56, 37)" stroke-width="2.6190509716141768" /><path d="M371,402 C681,689 717,499 741,228 C718,339 734,37 750,479 Q654,302 153,70 C546,432 456,8 285,376 C404,359 568,423 166,568 Q631,660 12,245" fill="none" stroke="rgb(177, 128, 17)" stroke-width="0.6462173925804722" /><line stroke="rgb(34, 143, 70)" stroke-width="2.976575015702338" x1="619" x2="436" y1="731" y2="286" /><line stroke="rgb(162, 238, 186)" stroke-width="2.775642951716888" x1="644" x2="327" y1="272" y2="641" /><line stroke="rgb(13, 214, 145)" stroke-width="2.787784169206409" x1="625" x2="184" y1="279" y2="85" /><line stroke="rgb(157, 192, 203)" stroke-width="2.7768478454546632" x1="479" x2="472" y1="236" y2="434" /><circle cx="507" cy="484" fill="none" opacity="0.9379852634776542" r="183" stroke="rgb(122, 12, 183)" stroke-width="1.3127700137264864" /><rect fill="none" height="108" stroke="rgb(234, 240, 11)" stroke-width="1.635201542703332" transform="rotate(241 653 40)" width="109" x="13" y="592" /><circle cx="460" cy="209" fill="none" opacity="0.7812446631494863" r="99" stroke="rgb(63, 149, 155)" stroke-width="4.5605407318336955" /><path d="M481,528 Q88,147 204,628 L597,711 L297,111 Q486,332 445,348 L41,458 Q261,467 120,627 L3,199" fill="none" stroke="rgb(242, 53, 214)" stroke-width="2.6902732688569957" /><path d="M290,456 C622,700 111,702 129,749 C570,624 2,747 381,244 L199,304 L389,67" fill="none" stroke="rgb(49, 188, 38)" stroke-width="2.35491508549695" /><line stroke="rgb(165, 189, 156)" stroke-width="1.1132041206939713" x1="124" x2="543" y1="103" y2="761" /><line stroke="rgb(50, 243, 91)" stroke-width="1.5394415549240679" x1="686" x2="189" y1="741" y2="635" /><line stroke="rgb(208, 73, 187)" stroke-width="2.0541591031035917" x1="682" x2="657" y1="179" y2="409" /><line stroke="rgb(143, 164, 96)" stroke-width="1.4921466440548232" x1="348" x2="91" y1="359" y2="524" /><line stroke="rgb(119, 20, 181)" stroke-width="2.394268746906742" x1="189" x2="233" y1="101" y2="747" /><line stroke="rgb(53, 150, 179)" stroke-width="0.6633955419031285" x1="98" x2="413" y1="448" y2="135" /><line stroke="rgb(61, 241, 172)" stroke-width="0.7998869188582707" x1="638" x2="594" y1="354" y2="25" /><line stroke="rgb(248, 166, 118)" stroke-width="1.612847623871496" x1="396" x2="443" y1="104" y2="391" /><line stroke="rgb(203, 212, 207)" stroke-width="2.342575978248197" x1="437" x2="121" y1="687" y2="26" /><line stroke="rgb(13, 247, 136)" stroke-width="1.8796978711179895" x1="664" x2="721" y1="19" y2="4" /><line stroke="rgb(211, 17, 77)" stroke-width="2.6722484782948115" x1="419" x2="306" y1="346" y2="11" /><line stroke="rgb(112, 227, 185)" stroke-width="2.2563878989693653" x1="655" x2="625" y1="370" y2="458" /><line stroke="rgb(250, 228, 147)" stroke-width="2.028144384199971" x1="653" x2="203" y1="130" y2="422" /><polygon fill="none" points="158,757 349,574 329,89 289,629 202,623 329,420 707,451" stroke="rgb(106, 173, 201)" stroke-width="1.6181778796398678" /><circle cx="663" cy="562" fill="none" opacity="0.49263979769011157" r="178" stroke="rgb(242, 243, 242)" stroke-width="4.903074021436827" /><polygon fill="none" points="524,109 220,640 137,512" stroke="rgb(130, 102, 73)" stroke-width="1.615651583930363" /><polygon fill="none" points="489,46 740,347 389,531 538,226 672,247" stroke="rgb(237, 43, 64)" stroke-width="1.5753252460577425" /><path d="M628,389 L542,661 Q109,327 47,371 L5,48" fill="none" stroke="rgb(252, 168, 68)" stroke-width="2.431116793305591" /><polygon fill="none" points="721,406 715,341 432,34 131,239 193,668 382,82 403,758 15,457" stroke="rgb(43, 213, 96)" stroke-width="1.3470690856073995" /><polygon fill="none" points="571,628 532,655 130,191 268,174 149,342" stroke="rgb(211, 48, 250)" stroke-width="0.8809728716152079" /><polygon fill="none" points="549,350 410,297 510,704 327,221 480,287 675,516" stroke="rgb(134, 18, 93)" stroke-width="2.1786500787189786" /><line stroke="rgb(50, 64, 109)" stroke-width="1.0853819116856975" x1="118" x2="564" y1="597" y2="240" /><line stroke="rgb(39, 8, 195)" stroke-width="0.6491829441857475" x1="286" x2="670" y1="276" y2="91" /><line stroke="rgb(180, 245, 69)" stroke-width="2.9370404368461456" x1="444" x2="643" y1="244" y2="738" /><line stroke="rgb(86, 95, 53)" stroke-width="0.9429222690964518" x1="301" x2="444" y1="277" y2="465" /><line stroke="rgb(167, 219, 111)" stroke-width="0.9097811748891061" x1="663" x2="398" y1="285" y2="741" /><line stroke="rgb(234, 170, 69)" stroke-width="1.1001329235526789" x1="301" x2="227" y1="80" y2="233" /><line stroke="rgb(129, 181, 86)" stroke-width="2.867534930782069" x1="746" x2="260" y1="743" y2="216" /><circle cx="148" cy="399" fill="none" opacity="0.8586721907900441" r="65" stroke="rgb(69, 181, 137)" stroke-width="3.8932787500027546" /><circle cx="562" cy="388" fill="none" opacity="0.9348405366867147" r="177" stroke="rgb(118, 149, 224)" stroke-width="0.8893704657306959" /><rect fill="none" height="72" stroke="rgb(96, 68, 227)" stroke-width="0.5305757201754947" transform="rotate(281 319 362)" width="185" x="430" y="78" /><circle cx="177" cy="225" fill="none" opacity="0.6830438187620188" r="80" stroke="rgb(18, 187, 106)" stroke-width="2.2909021269468592" /><line stroke="rgb(208, 67, 74)" stroke-width="0.7184840810151323" x1="210" x2="420" y1="130" y2="603" /><line stroke="rgb(16, 105, 230)" stroke-width="2.4481628032489033" x1="59" x2="293" y1="349" y2="358" /><line stroke="rgb(191, 139, 214)" stroke-width="1.0609861445470603" x1="472" x2="655" y1="259" y2="61" /><line stroke="rgb(183, 38, 23)" stroke-width="2.174802386857616" x1="437" x2="401" y1="201" y2="292" /><line stroke="rgb(122, 132, 179)" stroke-width="1.68676700342013" x1="170" x2="413" y1="396" y2="122" /><line stroke="rgb(185, 125, 43)" stroke-width="2.7110252076452768" x1="398" x2="191" y1="200" y2="384" /><line stroke="rgb(3, 27, 102)" stroke-width="1.5953646693976495" x1="499" x2="179" y1="222" y2="592" /><line stroke="rgb(183, 226, 58)" stroke-width="2.8381344792472354" x1="242" x2="242" y1="103" y2="535" /><line stroke="rgb(165, 221, 230)" stroke-width="0.7647461504521773" x1="498" x2="40" y1="635" y2="311" /><rect fill="none" height="140" stroke="rgb(28, 29, 93)" stroke-width="4.731641461103642" transform="rotate(333 388 700)" width="183" x="14" y="17" /><rect fill="none" height="89" stroke="rgb(228, 183, 118)" stroke-width="2.2929032345871248" transform="rotate(326 637 358)" width="104" x="435" y="422" /><path d="M375,660 L69,674 C631,136 289,273 459,661 C78,414 44,407 615,589 C295,659 666,462 212,656 L563,464" fill="none" stroke="rgb(138, 95, 96)" stroke-width="2.3470823175347735" /><rect fill="none" height="138" stroke="rgb(108, 191, 3)" stroke-width="3.6242706847156043" transform="rotate(75 85 385)" width="88" x="361" y="641" /><rect fill="none" height="194" stroke="rgb(164, 131, 26)" stroke-width="3.0616696364036278" transform="rotate(312 302 584)" width="199" x="451" y="251" /><path d="M185,727 L684,643 Q663,643 287,488 Q400,136 155,688 Q311,449 252,434" fill="none" stroke="rgb(242, 2, 52)" stroke-width="1.36750956584823" /><circle cx="124" cy="156" fill="none" opacity="0.9271873816564236" r="113" stroke="rgb(40, 210, 223)" stroke-width="3.9744647640324273" /></svg>