<svg baseProfile="full" height="594px" version="1.1" width="813px" xmlns="http://www.w3.org/2000/svg" xmlns:ev="http://www.w3.org/2001/xml-events" xmlns:xlink="http://www.w3.org/1999/xlink"><defs /><rect fill="rgb(204, 217, 201)" height="594px" width="813px" x="0" y="0" /><path d="M574,334 C9,286 208,22 768,549 Q486,224 721,58 C716,275 173,41 320,584 Q113,471 187,366 L23,575 Q256,39 154,545 C632,471 152,571 314,571" fill="none" stroke="rgb(104, 188, 160)" stroke-width="2.7727264377081653" /><circle cx="535" cy="286" fill="none" opacity="0.9990699620236716" r="39" stroke="rgb(247, 216, 10)" stroke-width="1.488718329121463" /><path d="M810,295 Q83,314 627,284 Q242,314 124,414 L724,378 C362,444 457,14 226,575 C182,18 722,357 269,588" fill="none" stroke="rgb(20, 145, 249)" stroke-width="2.8752755918630655" /><line stroke="rgb(7, 4, 83)" stroke-width="1.8426724405804555" x1="254" x2="460" y1="42" y2="434" /><line stroke="rgb(117, 43, 197)" stroke-width="2.6148734677297174" x1="516" x2="569" y1="275" y2="405" /><line stroke="rgb(178, 182, 212)" stroke-width="1.4025462853709096" x1="305" x2="667" y1="9" y2="589" /><path d="M39,229 L546,7 C121,481 39,499 632,480 Q163,559 658,402" fill="none" stroke="rgb(71, 79, 129)" stroke-width="2.223394303107282" /><rect fill="none" height="188" stroke="rgb(226, 93, 246)" stroke-width="3.116772828213135" transform="rotate(249 285 380)" width="96" x="441" y="12" /><circle cx="665" cy="409" fill="none" opacity="0.6489080389839126" r="17" stroke="rgb(131, 139, 74)" stroke-width="4.759892064820078" /><rect fill="none" height="101" stroke="rgb(20, 4, 59)" stroke-width="1.8736198550952354" transform="rotate(240 466 397)" width="112" x="520" y="453" /><path d="M404,240 L624,70 L151,540 C265,362 188,289 421,43 Q531,361 208,544" fill="none" stroke="rgb(7, 220, 109)" stroke-width="1.9706129419647809" /><circle cx="440" cy="343" fill="none" opacity="0.7891883694828279" r="14" stroke="rgb(25, 189, 150)" stroke-width="2.948685589631146" /><circle cx="91" cy="341" fill="none" opacity="0.99055331968666" r="37" stroke="rgb(128, 87, 102)" stroke-width="3.2125179550126037" /><path d="M449,192 C290,257 184,299 386,409 L314,333 Q761,61 373,43" fill="none" stroke="rgb(211, 183, 138)" stroke-width="1.530350117091945" /><rect fill="none" height="186" stroke="rgb(168, 110, 156)" stroke-width="3.9818782768722496" transform="rotate(263 64 96)" width="160" x="125" y="145" /><line stroke="rgb(18, 233, 125)" stroke-width="1.3449434767827357" x1="745" x2="655" y1="495" y2="447" /><line stroke="rgb(55, 223, 220)" stroke-width="2.897931910430693" x1="220" x2="118" y1="116" y2="241" /><line stroke="rgb(144, 167, 121)" stroke-width="2.1014901738156166" x1="253" x2="670" y1="353" y2="183" /><line stroke="rgb(195, 22, 49)" stroke-width="2.4552516759762795" x1="704" x2="526" y1="406" y2="71" /><line stroke="rgb(19, 61, 33)" stroke-width="2.4138497851880523" x1="62" x2="285" y1="85" y2="502" /><line stroke="rgb(18, 11, 141)" stroke-width="0.6569995873313299" x1="133" x2="201" y1="369" y2="171" /><line stroke="rgb(29, 131, 203)" stroke-width="1.4730646298535237" x1="555" x2="641" y1="117" y2="18" /><line stroke="rgb(107, 64, 109)" stroke-width="2.7644868157916678" x1="114" x2="476" y1="29" y2="208" /><line stroke="rgb(216, 164, 9)" stroke-width="0.9644176566796989" x1="771" x2="493" y1="336" y2="65" /><line stroke="rgb(92, 38, 248)" stroke-width="2.3280889729507317" x1="312" x2="298" y1="176" y2="590" /><line stroke="rgb(46, 126, 173)" stroke-width="2.812118975166034" x1="630" x2="667" y1="211" y2="447" /><line stroke="rgb(198, 78, 146)" stroke-width="2.8260885702208585" x1="743" x2="180" y1="424" y2="81" /><line stroke="rgb(36, 106, 192)" stroke-width="2.407903719746975" x1="112" x2="593" y1="580" y2="120" /><line stroke="rgb(180, 222, 164)" stroke-width="2.297660644658126" x1="616" x2="679" y1="237" y2="239" /><line stroke="rgb(9, 111, 9)" stroke-width="0.5989139249540525" x1="463" x2="549" y1="292" y2="443" /><line stroke="rgb(68, 206, 29)" stroke-width="2.1688796640450514" x1="358" x2="233" y1="328" y2="229" /><line stroke="rgb(209, 183, 165)" stroke-width="2.648367050927752" x1="645" x2="234" y1="139" y2="508" /><line stroke="rgb(112, 249, 162)" stroke-width="2.011830738088525" x1="617" x2="295" y1="427" y2="489" /><line stroke="rgb(157, 91, 14)" stroke-width="1.0390392676079783" x1="381" x2="651" y1="390" y2="581" /><line stroke="rgb(42, 122, 78)" stroke-width="2.4894542800974895" x1="9" x2="762" y1="249" y2="164" /><line stroke="rgb(24, 10, 75)" stroke-width="1.6157995140913868" x1="303" x2="374" y1="370" y2="168" /><polygon fill="none" points="388,317 210,99 27,196" stroke="rgb(157, 240, 74)" stroke-width="3.9792674879213803" /><rect fill="none" height="118" stroke="rgb(97, 160, 171)" stroke-width="0.6237020552050522" transform="rotate(19 59 216)" width="98" x="435" y="128" /><rect fill="none" height="58" stroke="rgb(108, 96, 20)" stroke-width="4.762413046707524" transform="rotate(117 643 333)" width="31" x="703" y="101" /><rect fill="none" height="170" stroke="rgb(195, 205, 193)" stroke-width="4.081798604703052" transform="rotate(360 217 473)" width="84" x="161" y="486" /><polygon fill="none" points="247,449 448,539 56,252 147,177 800,161 647,554 737,464" stroke="rgb(176, 48, 106)" stroke-width="3.352683075186277" /><circle cx="87" cy="388" fill="none" opacity="0.7351506376633928" r="59" stroke="rgb(252, 153, 104)" stroke-width="4.432448188723178" /><circle cx="603" cy="80" fill="none" opacity="0.32758965948939134" r="55" stroke="rgb(193, 175, 248)" stroke-width="1.5032139958893809" /><line stroke="rgb(135, 97, 178)" stroke-width="1.0895459760953337" x1="355" x2="212" y1="213" y2="238" /><line stroke="rgb(161, 57, 104)" stroke-width="2.9337655091765624" x1="175" x2="686" y1="209" y2="377" /><line stroke="rgb(237, 118, 46)" stroke-width="2.7649994691080675" x1="201" x2="128" y1="382" y2="554" /><line stroke="rgb(51, 57, 160)" stroke-width="0.859929343526143" x1="225" x2="485" y1="25" y2="534" /><line stroke="rgb(222, 89, 165)" stroke-width="1.1306626894602008" x1="149" x2="771" y1="552" y2="95" /><line stroke="rgb(158, 130, 157)" stroke-width="2.756326433202857" x1="317" x2="630" y1="0" y2="378" /><line stroke="rgb(210, 106, 44)" stroke-width="1.2319599345412295" x1="314" x2="314" y1="322" y2="197" /><line stroke="rgb(249, 15, 239)" stroke-width="2.8082913346046046" x1="566" x2="186" y1="583" y2="3" /><line stroke="rgb(254, 252, 229)" stroke-width="1.3318006328189225" x1="614" x2="523" y1="479" y2="125" /><line stroke="rgb(239, 175, 79)" stroke-width="1.8147255695763684" x1="363" x2="122" y1="114" y2="575" /><line stroke="rgb(247, 192, 65)" stroke-width="1.0756703921620825" x1="246" x2="126" y1="247" y2="31" /><line stroke="rgb(162, 137, 188)" stroke-width="1.4886673142190272" x1="141" x2="482" y1="185" y2="301" /><line stroke="rgb(45, 47, 208)" stroke-width="1.5831040798368474" x1="628" x2="701" y1="494" y2="161" /><polygon fill="none" points="769,75 301,515 580,395 552,204" stroke="rgb(101, 96, 191)" stroke-width="0.6055813285747527" /><path d="M71,0 L152,175 C177,391 526,590 616,233 C52,336 472,125 40,203" fill="none" stroke="rgb(217, 219, 144)" stroke-width="2.4254855327406863" /><circle cx="423" cy="542" fill="none" opacity="0.4246435526624741" r="144" stroke="rgb(77, 194, 141)" stroke-width="1.8513064560718948" /><circle cx="82" cy="287" fill="none" opacity="0.34415688574496645" r="35" stroke="rgb(232, 29, 223)" stroke-width="4.838568384095381" /></svg>