<svg baseProfile="full" height="600px" version="1.1" width="837px" xmlns="http://www.w3.org/2000/svg" xmlns:ev="http://www.w3.org/2001/xml-events" xmlns:xlink="http://www.w3.org/1999/xlink"><defs /><rect fill="rgb(236, 220, 220)" height="600px" width="837px" x="0" y="0" /><line stroke="rgb(57, 163, 211)" stroke-width="2.0989571513576264" x1="742" x2="351" y1="147" y2="51" /><line stroke="rgb(131, 146, 164)" stroke-width="1.9971789686094756" x1="39" x2="265" y1="488" y2="176" /><line stroke="rgb(51, 252, 193)" stroke-width="2.9867795318430894" x1="595" x2="829" y1="1" y2="442" /><line stroke="rgb(180, 29, 197)" stroke-width="2.565044742337034" x1="336" x2="24" y1="200" y2="47" /><line stroke="rgb(165, 187, 129)" stroke-width="1.4841901839049472" x1="551" x2="468" y1="524" y2="315" /><line stroke="rgb(122, 159, 37)" stroke-width="1.175448783014221" x1="837" x2="492" y1="34" y2="314" /><polygon fill="none" points="493,573 42,328 74,531 45,281 358,141 670,18 399,302" stroke="rgb(240, 39, 252)" stroke-width="2.903669328060895" /><circle cx="536" cy="359" fill="none" opacity="0.5814400229822825" r="95" stroke="rgb(115, 151, 45)" stroke-width="1.5096844853421527" /><line stroke="rgb(19, 126, 104)" stroke-width="1.5062173314160041" x1="266" x2="282" y1="233" y2="274" /><line stroke="rgb(24, 2, 79)" stroke-width="1.6660448726989552" x1="742" x2="188" y1="207" y2="53" /><line stroke="rgb(59, 153, 165)" stroke-width="1.8322309009744318" x1="665" x2="67" y1="563" y2="510" /><line stroke="rgb(9, 241, 138)" stroke-width="2.1397283177831024" x1="8" x2="205" y1="412" y2="107" /><line stroke="rgb(163, 88, 182)" stroke-width="2.0489982820948063" x1="270" x2="539" y1="538" y2="309" /><line stroke="rgb(146, 195, 52)" stroke-width="1.1275196733799837" x1="220" x2="28" y1="216" y2="153" /><line stroke="rgb(106, 172, 210)" stroke-width="2.624228841386719" x1="555" x2="78" y1="490" y2="330" /><line stroke="rgb(105, 200, 145)" stroke-width="2.80942848036229" x1="594" x2="67" y1="422" y2="499" /><line stroke="rgb(128, 202, 51)" stroke-width="2.2887907680876785" x1="425" x2="458" y1="496" y2="412" /><rect fill="none" height="180" stroke="rgb(156, 153, 110)" stroke-width="1.2047915624507917" transform="rotate(62 728 383)" width="86" x="386" y="331" /><path d="M397,528 C668,94 212,180 554,561 Q368,321 449,522 C471,108 226,456 448,285 L221,300 Q186,596 806,282 Q500,558 83,447 C4,56 521,387 139,28" fill="none" stroke="rgb(102, 136, 227)" stroke-width="1.5368171437341867" /><circle cx="651" cy="358" fill="none" opacity="0.5406767478531491" r="115" stroke="rgb(125, 186, 139)" stroke-width="2.2733607406655016" /><line stroke="rgb(123, 194, 67)" stroke-width="1.9846654329254394" x1="653" x2="486" y1="51" y2="383" /><line stroke="rgb(214, 80, 82)" stroke-width="2.419037991613468" x1="837" x2="835" y1="599" y2="278" /><line stroke="rgb(10, 221, 91)" stroke-width="0.9565550040461417" x1="115" x2="327" y1="21" y2="116" /><line stroke="rgb(28, 246, 230)" stroke-width="1.5607538873079663" x1="234" x2="152" y1="220" y2="25" /><line stroke="rgb(99, 102, 190)" stroke-width="1.416927502645648" x1="791" x2="241" y1="451" y2="150" /><line stroke="rgb(114, 87, 219)" stroke-width="2.5143645038830247" x1="341" x2="86" y1="73" y2="171" /><line stroke="rgb(190, 242, 251)" stroke-width="2.149480566140417" x1="203" x2="648" y1="363" y2="355" /><line stroke="rgb(254, 9, 146)" stroke-width="1.1896081354063301" x1="121" x2="20" y1="563" y2="267" /><line stroke="rgb(49, 0, 189)" stroke-width="1.4894557528242363" x1="82" x2="715" y1="197" y2="465" /><line stroke="rgb(140, 53, 10)" stroke-width="1.4599568618840602" x1="580" x2="630" y1="520" y2="381" /><line stroke="rgb(110, 193, 10)" stroke-width="0.6707161219341852" x1="367" x2="565" y1="593" y2="345" /><line stroke="rgb(203, 49, 237)" stroke-width="1.2985985691706547" x1="557" x2="417" y1="138" y2="62" /><line stroke="rgb(246, 35, 154)" stroke-width="0.5301037202832288" x1="565" x2="632" y1="518" y2="431" /><polygon fill="none" points="292,122 210,97 302,582" stroke="rgb(82, 104, 223)" stroke-width="2.4607360730662933" /><path d="M84,242 L460,264 C415,150 789,440 709,184 C229,558 8,377 324,286 L140,394" fill="none" stroke="rgb(90, 142, 175)" stroke-width="2.1568803995915182" /><line stroke="rgb(233, 2, 160)" stroke-width="2.8125496954330598" x1="752" x2="806" y1="46" y2="295" /><line stroke="rgb(238, 123, 33)" stroke-width="0.8939654718599692" x1="380" x2="163" y1="226" y2="502" /><line stroke="rgb(92, 240, 181)" stroke-width="2.800801951895451" x1="145" x2="272" y1="151" y2="398" /><line stroke="rgb(28, 203, 118)" stroke-width="2.3118494406333063" x1="505" x2="290" y1="355" y2="495" /><line stroke="rgb(101, 19, 97)" stroke-width="2.442028493254403" x1="262" x2="663" y1="256" y2="477" /><line stroke="rgb(146, 165, 144)" stroke-width="2.1118774258685025" x1="604" x2="221" y1="315" y2="55" /><line stroke="rgb(40, 233, 174)" stroke-width="2.98939860580546" x1="736" x2="499" y1="19" y2="187" /><line stroke="rgb(45, 91, 180)" stroke-width="1.0039341762925864" x1="13" x2="131" y1="152" y2="549" /><line stroke="rgb(55, 224, 45)" stroke-width="2.1513322984150824" x1="321" x2="756" y1="259" y2="307" /><path d="M389,505 L174,122 Q703,293 481,594 Q142,339 331,246 Q698,368 617,479 L96,184 L32,260" fill="none" stroke="rgb(27, 162, 67)" stroke-width="2.62736109710116" /><line stroke="rgb(240, 27, 100)" stroke-width="2.340904574701548" x1="354" x2="84" y1="39" y2="12" /><line stroke="rgb(255, 239, 112)" stroke-width="2.1106026989390676" x1="615" x2="543" y1="448" y2="509" /><line stroke="rgb(20, 102, 72)" stroke-width="2.669743589560432" x1="150" x2="178" y1="467" y2="52" /><line stroke="rgb(29, 4, 100)" stroke-width="2.164180836130309" x1="60" x2="463" y1="64" y2="423" /><line stroke="rgb(145, 106, 125)" stroke-width="2.3818405777769645" x1="585" x2="181" y1="135" y2="102" /><line stroke="rgb(193, 147, 27)" stroke-width="1.947320507522467" x1="507" x2="152" y1="552" y2="555" /><line stroke="rgb(51, 190, 43)" stroke-width="1.6533069081225658" x1="456" x2="316" y1="500" y2="368" /><rect fill="none" height="150" stroke="rgb(51, 233, 165)" stroke-width="4.434226178222323" transform="rotate(303 152 79)" width="119" x="720" y="398" /><path d="M498,414 L628,321 L13,395 C731,431 316,438 262,447" fill="none" stroke="rgb(92, 197, 117)" stroke-width="1.6355325268474874" /><circle cx="681" cy="504" fill="none" opacity="0.33009716701454206" r="105" stroke="rgb(26, 39, 53)" stroke-width="0.8405618194588055" /><circle cx="758" cy="225" fill="none" opacity="0.5432053881391775" r="90" stroke="rgb(24, 96, 107)" stroke-width="4.182549275543016" /><circle cx="645" cy="195" fill="none" opacity="0.6178153218476257" r="120" stroke="rgb(158, 6, 245)" stroke-width="2.072180760976546" /><rect fill="none" height="46" stroke="rgb(248, 36, 169)" stroke-width="3.4857921682285693" transform="rotate(152 161 45)" width="140" x="578" y="70" /><path d="M352,514 L662,320 C680,33 807,434 748,553 Q752,539 718,161 Q77,223 253,535 C814,98 711,472 215,39" fill="none" stroke="rgb(77, 116, 50)" stroke-width="1.0709406946647066" /><circle cx="376" cy="470" fill="none" opacity="0.5163263418698436" r="100" stroke="rgb(20, 126, 0)" stroke-width="1.5114198422767784" /><circle cx="503" cy="319" fill="none" opacity="0.5276259011921394" r="19" stroke="rgb(89, 220, 245)" stroke-width="3.2874475075111644" /><polygon fill="none" points="1,499 261,362 772,526 789,122 255,334 458,466" stroke="rgb(104, 92, 102)" stroke-width="0.6553845456415814" /><path d="M431,323 C517,414 789,307 690,352 Q561,222 811,446 L10,139 L579,530 L58,396 Q326,234 605,40 Q441,274 51,435" fill="none" stroke="rgb(46, 77, 98)" stroke-width="1.17265884582878" /><circle cx="451" cy="439" fill="none" opacity="0.7197619134224174" r="75" stroke="rgb(6, 242, 174)" stroke-width="2.624360648776854" /><line stroke="rgb(5, 7, 143)" stroke-width="2.7321029958160343" x1="190" x2="670" y1="202" y2="316" /><line stroke="rgb(142, 194, 97)" stroke-width="2.1679930540877645" x1="394" x2="571" y1="88" y2="332" /><line stroke="rgb(4, 82, 185)" stroke-width="2.529215217127398" x1="518" x2="589" y1="20" y2="430" /><line stroke="rgb(87, 204, 147)" stroke-width="1.569888205750561" x1="170" x2="237" y1="365" y2="440" /><line stroke="rgb(17, 83, 2)" stroke-width="1.242567691809137" x1="592" x2="528" y1="53" y2="385" /><line stroke="rgb(84, 11, 135)" stroke-width="2.2475857622311506" x1="319" x2="595" y1="326" y2="440" /><circle cx="635" cy="513" fill="none" opacity="0.5461016324378729" r="148" stroke="rgb(220, 196, 128)" stroke-width="2.9064308946541617" /><path d="M158,422 Q427,128 699,113 L55,468 L685,589 Q237,595 752,343 L646,516 L533,245" fill="none" stroke="rgb(73, 23, 22)" stroke-width="0.5279534122541247" /><line stroke="rgb(242, 85, 217)" stroke-width="1.4679386010900215" x1="334" x2="333" y1="271" y2="551" /><line stroke="rgb(134, 97, 66)" stroke-width="1.5362639798231372" x1="698" x2="161" y1="192" y2="245" /><line stroke="rgb(16, 198, 70)" stroke-width="0.5118294842893409" x1="580" x2="373" y1="62" y2="9" /><line stroke="rgb(22, 25, 213)" stroke-width="2.151635576045704" x1="816" x2="27" y1="371" y2="71" /><line stroke="rgb(143, 181, 147)" stroke-width="2.4077239445229117" x1="226" x2="77" y1="267" y2="281" /><line stroke="rgb(178, 206, 240)" stroke-width="1.7752556390476304" x1="496" x2="296" y1="531" y2="57" /><line stroke="rgb(70, 57, 219)" stroke-width="1.6805336690927035" x1="59" x2="755" y1="314" y2="101" /><line stroke="rgb(102, 133, 140)" stroke-width="2.5243782719814734" x1="287" x2="582" y1="519" y2="379" /><line stroke="rgb(167, 15, 223)" stroke-width="1.2795967143202711" x1="600" x2="443" y1="595" y2="130" /><line stroke="rgb(216, 68, 106)" stroke-width="2.5168266294976283" x1="90" x2="165" y1="197" y2="471" /><line stroke="rgb(91, 178, 89)" stroke-width="2.9774080376880447" x1="591" x2="746" y1="133" y2="592" /><line stroke="rgb(184, 27, 100)" stroke-width="2.6517554954462943" x1="366" x2="389" y1="140" y2="582" /><line stroke="rgb(191, 205, 247)" stroke-width="0.5036784402210319" x1="497" x2="745" y1="442" y2="85" /></svg>