<svg baseProfile="full" height="767px" version="1.1" width="616px" xmlns="http://www.w3.org/2000/svg" xmlns:ev="http://www.w3.org/2001/xml-events" xmlns:xlink="http://www.w3.org/1999/xlink"><defs /><rect fill="rgb(223, 202, 206)" height="767px" width="616px" x="0" y="0" /><path d="M506,307 C403,443 547,130 37,420 Q149,344 336,245 C342,271 587,133 38,281 L386,309" fill="none" stroke="rgb(92, 138, 22)" stroke-width="2.126210529765976" /><path d="M543,434 L74,86 Q460,499 328,352 C223,76 539,267 606,704 L274,201 Q572,689 522,528" fill="none" stroke="rgb(100, 208, 82)" stroke-width="2.3174879547523703" /><polygon fill="none" points="262,365 348,634 219,201 213,450 125,97" stroke="rgb(122, 2, 38)" stroke-width="1.8622931081882594" /><rect fill="none" height="112" stroke="rgb(178, 141, 124)" stroke-width="3.7005019099765493" transform="rotate(247 142 551)" width="135" x="107" y="5" /><line stroke="rgb(190, 153, 28)" stroke-width="1.1970299860499731" x1="331" x2="488" y1="493" y2="453" /><line stroke="rgb(191, 18, 94)" stroke-width="0.8607437832354341" x1="140" x2="440" y1="311" y2="711" /><line stroke="rgb(175, 64, 238)" stroke-width="1.119491287662655" x1="247" x2="514" y1="231" y2="508" /><line stroke="rgb(56, 78, 90)" stroke-width="2.4756712002371613" x1="104" x2="601" y1="303" y2="471" /><line stroke="rgb(160, 28, 126)" stroke-width="0.5790971367692193" x1="578" x2="359" y1="138" y2="280" /><line stroke="rgb(167, 210, 235)" stroke-width="0.9198309412465304" x1="103" x2="235" y1="476" y2="651" /><line stroke="rgb(129, 231, 78)" stroke-width="1.7941682550782296" x1="483" x2="172" y1="312" y2="724" /><line stroke="rgb(217, 186, 146)" stroke-width="1.4262338757420265" x1="616" x2="381" y1="254" y2="365" /><line stroke="rgb(53, 138, 255)" stroke-width="1.6840233999432526" x1="565" x2="570" y1="452" y2="442" /><line stroke="rgb(141, 52, 139)" stroke-width="2.8228565798362575" x1="99" x2="204" y1="153" y2="493" /><line stroke="rgb(33, 229, 203)" stroke-width="1.2200555358895788" x1="168" x2="120" y1="605" y2="609" /><line stroke="rgb(161, 169, 104)" stroke-width="2.447646151939884" x1="580" x2="182" y1="431" y2="704" /><line stroke="rgb(235, 224, 108)" stroke-width="2.6814809920142726" x1="410" x2="216" y1="293" y2="544" /><line stroke="rgb(26, 171, 240)" stroke-width="1.111961671746967" x1="206" x2="236" y1="546" y2="592" /><line stroke="rgb(9, 39, 50)" stroke-width="2.6932271916710318" x1="502" x2="146" y1="239" y2="587" /><line stroke="rgb(112, 88, 152)" stroke-width="1.4616018692379469" x1="361" x2="492" y1="619" y2="376" /><line stroke="rgb(104, 199, 53)" stroke-width="2.512072017125112" x1="166" x2="457" y1="346" y2="656" /><line stroke="rgb(98, 81, 47)" stroke-width="1.1608768110903351" x1="255" x2="516" y1="399" y2="243" /><line stroke="rgb(54, 222, 2)" stroke-width="1.4908352734439962" x1="415" x2="493" y1="103" y2="439" /><line stroke="rgb(23, 210, 89)" stroke-width="2.2818539701499914" x1="485" x2="140" y1="115" y2="689" /><line stroke="rgb(218, 95, 87)" stroke-width="1.823644210822311" x1="351" x2="108" y1="228" y2="637" /><line stroke="rgb(146, 115, 36)" stroke-width="1.839860367539015" x1="315" x2="373" y1="269" y2="337" /><line stroke="rgb(154, 245, 185)" stroke-width="1.2800682483831554" x1="79" x2="601" y1="80" y2="692" /><line stroke="rgb(237, 105, 200)" stroke-width="1.9306075450302718" x1="598" x2="550" y1="747" y2="351" /><line stroke="rgb(169, 144, 167)" stroke-width="2.4780061010448353" x1="50" x2="481" y1="197" y2="667" /><line stroke="rgb(163, 109, 77)" stroke-width="2.0699865373720443" x1="2" x2="32" y1="146" y2="170" /><line stroke="rgb(245, 229, 168)" stroke-width="0.8351406483117638" x1="31" x2="368" y1="251" y2="662" /><path d="M604,266 L444,676 Q16,326 196,27 Q48,351 257,765 L391,115 L423,691 Q508,730 299,408" fill="none" stroke="rgb(28, 166, 127)" stroke-width="1.4076943917900615" /><rect fill="none" height="133" stroke="rgb(174, 37, 14)" stroke-width="2.0033108275832463" transform="rotate(2 37 455)" width="65" x="67" y="80" /><line stroke="rgb(179, 39, 64)" stroke-width="0.6274993441170708" x1="164" x2="122" y1="49" y2="223" /><line stroke="rgb(119, 141, 46)" stroke-width="1.4653622456582238" x1="375" x2="586" y1="57" y2="34" /><line stroke="rgb(53, 3, 86)" stroke-width="0.5552556945378122" x1="209" x2="422" y1="334" y2="135" /><line stroke="rgb(89, 207, 101)" stroke-width="0.7831582854023124" x1="60" x2="490" y1="318" y2="78" /><line stroke="rgb(65, 4, 231)" stroke-width="1.9920398202099334" x1="435" x2="348" y1="314" y2="509" /><line stroke="rgb(79, 54, 19)" stroke-width="2.3508432556682477" x1="285" x2="300" y1="135" y2="176" /><line stroke="rgb(250, 198, 108)" stroke-width="2.6512999339826724" x1="478" x2="338" y1="122" y2="708" /><line stroke="rgb(23, 62, 152)" stroke-width="1.7523562718509085" x1="229" x2="301" y1="600" y2="608" /><line stroke="rgb(235, 26, 34)" stroke-width="0.5542576569912828" x1="600" x2="612" y1="661" y2="517" /><line stroke="rgb(223, 72, 92)" stroke-width="2.874870733894144" x1="83" x2="436" y1="541" y2="664" /><line stroke="rgb(85, 232, 56)" stroke-width="0.9367587279462676" x1="394" x2="557" y1="504" y2="448" /><line stroke="rgb(102, 108, 227)" stroke-width="2.361789112397089" x1="449" x2="607" y1="365" y2="18" /><line stroke="rgb(145, 110, 72)" stroke-width="1.8961071940401246" x1="616" x2="419" y1="664" y2="481" /><line stroke="rgb(183, 90, 219)" stroke-width="1.67140200233949" x1="25" x2="395" y1="613" y2="494" /><line stroke="rgb(146, 26, 108)" stroke-width="2.157639067005375" x1="330" x2="269" y1="43" y2="323" /><line stroke="rgb(225, 58, 254)" stroke-width="1.629651508228492" x1="326" x2="337" y1="507" y2="670" /><line stroke="rgb(40, 85, 193)" stroke-width="1.2576091249896488" x1="241" x2="302" y1="229" y2="232" /><line stroke="rgb(232, 115, 177)" stroke-width="2.82912056215735" x1="297" x2="45" y1="252" y2="299" /><rect fill="none" height="134" stroke="rgb(114, 122, 124)" stroke-width="3.408685004420768" transform="rotate(280 207 518)" width="58" x="255" y="599" /><polygon fill="none" points="363,130 420,44 381,637 185,641 559,703 392,373 290,261 309,375" stroke="rgb(182, 123, 50)" stroke-width="0.9102445888908662" /><circle cx="387" cy="454" fill="none" opacity="0.822826707640445" r="45" stroke="rgb(199, 0, 142)" stroke-width="3.4235160156866504" /><rect fill="none" height="142" stroke="rgb(40, 191, 195)" stroke-width="4.424574936589153" transform="rotate(96 487 450)" width="58" x="0" y="141" /><polygon fill="none" points="314,260 29,688 436,31 589,738 319,291 575,537" stroke="rgb(148, 211, 14)" stroke-width="1.2840630384093021" /><path d="M180,297 Q146,476 387,67 Q432,555 174,216 L3,650 Q585,43 470,612 Q243,457 319,100 C511,189 489,526 589,691" fill="none" stroke="rgb(60, 116, 201)" stroke-width="1.8128472762106222" /><line stroke="rgb(238, 147, 168)" stroke-width="2.807357159966104" x1="72" x2="100" y1="709" y2="19" /><line stroke="rgb(124, 228, 72)" stroke-width="2.4663381226682097" x1="137" x2="596" y1="670" y2="154" /><line stroke="rgb(162, 0, 253)" stroke-width="0.9355551507084265" x1="113" x2="303" y1="732" y2="552" /><line stroke="rgb(180, 103, 128)" stroke-width="2.7282522281638806" x1="526" x2="62" y1="90" y2="279" /><line stroke="rgb(204, 90, 147)" stroke-width="1.8527598241688539" x1="87" x2="118" y1="105" y2="687" /><line stroke="rgb(57, 178, 134)" stroke-width="2.9864464331132554" x1="253" x2="176" y1="736" y2="139" /><line stroke="rgb(144, 169, 146)" stroke-width="2.1301199420791326" x1="355" x2="135" y1="604" y2="705" /><line stroke="rgb(244, 240, 50)" stroke-width="1.9069730760754777" x1="607" x2="207" y1="343" y2="158" /><line stroke="rgb(197, 150, 37)" stroke-width="2.9879240334163066" x1="160" x2="258" y1="34" y2="460" /><line stroke="rgb(151, 229, 6)" stroke-width="0.8336475383307977" x1="433" x2="171" y1="312" y2="418" /><line stroke="rgb(66, 190, 222)" stroke-width="2.585741643854596" x1="456" x2="302" y1="563" y2="202" /><line stroke="rgb(7, 161, 5)" stroke-width="0.6206377789645424" x1="9" x2="451" y1="714" y2="532" /><line stroke="rgb(70, 122, 112)" stroke-width="0.9225640220924937" x1="427" x2="9" y1="293" y2="145" /><line stroke="rgb(75, 112, 180)" stroke-width="1.459098237719599" x1="256" x2="124" y1="156" y2="473" /><line stroke="rgb(230, 151, 95)" stroke-width="2.1947259886699775" x1="255" x2="52" y1="516" y2="299" /><line stroke="rgb(174, 217, 54)" stroke-width="2.4077897763033596" x1="127" x2="535" y1="657" y2="93" /><line stroke="rgb(192, 188, 47)" stroke-width="2.05716753089447" x1="522" x2="71" y1="362" y2="42" /><line stroke="rgb(83, 105, 40)" stroke-width="0.647685082530469" x1="494" x2="263" y1="467" y2="294" /><line stroke="rgb(168, 255, 211)" stroke-width="2.822740273630112" x1="208" x2="36" y1="230" y2="316" /><line stroke="rgb(139, 203, 234)" stroke-width="1.5362335166437986" x1="332" x2="308" y1="47" y2="344" /><line stroke="rgb(190, 0, 242)" stroke-width="2.2312976960576716" x1="219" x2="422" y1="157" y2="391" /><line stroke="rgb(55, 236, 52)" stroke-width="2.1771965160329687" x1="217" x2="302" y1="64" y2="206" /><line stroke="rgb(92, 56, 125)" stroke-width="0.6520447212538778" x1="439" x2="265" y1="702" y2="488" /><line stroke="rgb(224, 29, 187)" stroke-width="1.1944154912212048" x1="571" x2="13" y1="196" y2="542" /><circle cx="453" cy="298" fill="none" opacity="0.823051497454248" r="27" stroke="rgb(34, 237, 104)" stroke-width="1.7667337004056547" /><polygon fill="none" points="415,108 456,265 360,86 268,495" stroke="rgb(162, 111, 73)" stroke-width="0.6807107213812116" /><rect fill="none" height="185" stroke="rgb(59, 171, 115)" stroke-width="0.8202804635222475" transform="rotate(39 265 492)" width="23" x="94" y="56" /><polygon fill="none" points="172,310 239,270 394,219 159,358 302,321 75,366 320,692" stroke="rgb(113, 165, 241)" stroke-width="1.7014697185968806" /><circle cx="55" cy="545" fill="none" opacity="0.586692088049033" r="67" stroke="rgb(145, 242, 181)" stroke-width="2.255943357525897" /><polygon fill="none" points="259,584 137,58 566,283 256,656 449,63" stroke="rgb(168, 110, 111)" stroke-width="1.9426277168792752" /><rect fill="none" height="76" stroke="rgb(169, 190, 0)" stroke-width="4.221224282201791" transform="rotate(57 101 413)" width="162" x="44" y="435" /></svg>