<svg baseProfile="full" height="687px" version="1.1" width="830px" xmlns="http://www.w3.org/2000/svg" xmlns:ev="http://www.w3.org/2001/xml-events" xmlns:xlink="http://www.w3.org/1999/xlink"><defs /><rect fill="rgb(253, 216, 225)" height="687px" width="830px" x="0" y="0" /><path d="M650,655 Q404,529 221,641 L39,633 L308,430 C537,16 257,144 398,46" fill="none" stroke="rgb(45, 47, 51)" stroke-width="2.929327699255375" /><circle cx="565" cy="275" fill="none" opacity="0.6174179094826246" r="33" stroke="rgb(163, 245, 68)" stroke-width="4.08712842847009" /><path d="M94,636 C86,82 323,612 537,466 L140,399 L801,45" fill="none" stroke="rgb(65, 139, 39)" stroke-width="2.7319040059650836" /><circle cx="256" cy="623" fill="none" opacity="0.4342268252295028" r="29" stroke="rgb(73, 118, 249)" stroke-width="2.4729152513299963" /><line stroke="rgb(67, 203, 68)" stroke-width="1.714590229252349" x1="48" x2="526" y1="260" y2="658" /><line stroke="rgb(94, 19, 2)" stroke-width="2.959809770826062" x1="561" x2="75" y1="515" y2="393" /><line stroke="rgb(245, 99, 227)" stroke-width="1.2119160840162078" x1="64" x2="627" y1="435" y2="505" /><line stroke="rgb(185, 51, 210)" stroke-width="2.779532079859037" x1="495" x2="534" y1="116" y2="450" /><line stroke="rgb(173, 161, 75)" stroke-width="2.517811549954314" x1="671" x2="389" y1="260" y2="474" /><line stroke="rgb(255, 116, 144)" stroke-width="1.5708099623249636" x1="534" x2="695" y1="287" y2="597" /><line stroke="rgb(211, 71, 78)" stroke-width="1.4511014791896435" x1="443" x2="215" y1="19" y2="331" /><line stroke="rgb(173, 113, 113)" stroke-width="2.4507739945882205" x1="624" x2="817" y1="274" y2="445" /><line stroke="rgb(191, 68, 185)" stroke-width="2.4104770619604565" x1="523" x2="777" y1="437" y2="47" /><line stroke="rgb(181, 22, 88)" stroke-width="0.7274533955005544" x1="269" x2="347" y1="288" y2="160" /><line stroke="rgb(124, 193, 125)" stroke-width="0.5274511139364941" x1="515" x2="107" y1="468" y2="407" /><line stroke="rgb(72, 238, 172)" stroke-width="2.6894207551452265" x1="110" x2="305" y1="674" y2="486" /><line stroke="rgb(66, 222, 116)" stroke-width="2.3462138749582038" x1="684" x2="645" y1="283" y2="137" /><line stroke="rgb(16, 80, 195)" stroke-width="1.3635263158507889" x1="646" x2="549" y1="461" y2="503" /><line stroke="rgb(74, 23, 217)" stroke-width="1.883432681975796" x1="758" x2="768" y1="375" y2="111" /><line stroke="rgb(204, 191, 121)" stroke-width="1.68267882093964" x1="299" x2="180" y1="537" y2="328" /><line stroke="rgb(90, 41, 217)" stroke-width="0.9536716203689839" x1="240" x2="621" y1="355" y2="441" /><line stroke="rgb(144, 242, 31)" stroke-width="1.703027721092681" x1="236" x2="340" y1="648" y2="147" /><line stroke="rgb(59, 148, 33)" stroke-width="2.3200385382169886" x1="560" x2="353" y1="543" y2="568" /><circle cx="415" cy="197" fill="none" opacity="0.5058016699072608" r="79" stroke="rgb(253, 111, 104)" stroke-width="1.2198206908912916" /><rect fill="none" height="48" stroke="rgb(103, 114, 67)" stroke-width="0.6934121204931807" transform="rotate(154 104 440)" width="153" x="655" y="510" /><line stroke="rgb(167, 90, 135)" stroke-width="1.2726184558792548" x1="300" x2="122" y1="235" y2="211" /><line stroke="rgb(65, 117, 121)" stroke-width="1.6570856935149376" x1="709" x2="136" y1="591" y2="546" /><line stroke="rgb(98, 80, 76)" stroke-width="2.947026314645821" x1="440" x2="720" y1="456" y2="560" /><line stroke="rgb(59, 137, 20)" stroke-width="1.473266828498688" x1="797" x2="589" y1="290" y2="673" /><line stroke="rgb(0, 77, 25)" stroke-width="0.9288593601783088" x1="553" x2="820" y1="627" y2="524" /><line stroke="rgb(172, 136, 133)" stroke-width="1.986084522687869" x1="486" x2="543" y1="536" y2="323" /><path d="M688,655 L346,137 Q713,7 69,157 Q599,78 647,504 C215,177 352,245 116,458 Q502,495 789,363 C573,543 465,99 553,626 Q91,571 199,259" fill="none" stroke="rgb(56, 177, 44)" stroke-width="1.8399990560881276" /><polygon fill="none" points="257,136 742,94 529,436 652,600" stroke="rgb(84, 59, 9)" stroke-width="3.6924896391843878" /><line stroke="rgb(223, 94, 218)" stroke-width="0.8357819732422371" x1="812" x2="552" y1="636" y2="558" /><line stroke="rgb(187, 254, 133)" stroke-width="1.0849329891988337" x1="555" x2="570" y1="676" y2="338" /><line stroke="rgb(52, 62, 231)" stroke-width="1.414562348911053" x1="783" x2="314" y1="501" y2="380" /><line stroke="rgb(231, 13, 39)" stroke-width="1.7665717516335886" x1="298" x2="646" y1="15" y2="299" /><line stroke="rgb(200, 96, 217)" stroke-width="2.45190810491104" x1="292" x2="161" y1="41" y2="100" /><line stroke="rgb(106, 132, 91)" stroke-width="2.1163891431357813" x1="176" x2="219" y1="168" y2="20" /><line stroke="rgb(90, 151, 158)" stroke-width="2.7302247540970397" x1="746" x2="325" y1="296" y2="289" /><line stroke="rgb(210, 211, 128)" stroke-width="0.9181565911246024" x1="532" x2="730" y1="467" y2="394" /><line stroke="rgb(222, 60, 202)" stroke-width="1.3777888030092995" x1="720" x2="454" y1="447" y2="542" /><polygon fill="none" points="280,493 515,88 657,633" stroke="rgb(129, 158, 48)" stroke-width="0.7753154358048399" /><path d="M184,274 Q513,19 183,547 Q724,12 818,462 L746,618" fill="none" stroke="rgb(122, 216, 164)" stroke-width="2.6520164951657774" /><path d="M478,349 Q604,572 6,56 L728,420 L167,162 C581,677 91,626 478,487 L245,291" fill="none" stroke="rgb(241, 74, 79)" stroke-width="1.861035399820312" /><path d="M450,480 Q201,429 788,150 Q132,397 231,296 C640,153 202,355 344,438 C274,285 288,343 707,685 L75,289 C398,40 142,462 214,134 L42,601" fill="none" stroke="rgb(26, 195, 241)" stroke-width="0.6399886119854408" /><line stroke="rgb(250, 178, 180)" stroke-width="2.589148259938278" x1="182" x2="787" y1="578" y2="652" /><line stroke="rgb(246, 139, 160)" stroke-width="2.5623079661735715" x1="19" x2="264" y1="428" y2="288" /><line stroke="rgb(13, 16, 207)" stroke-width="1.1052726191610023" x1="495" x2="697" y1="344" y2="610" /><line stroke="rgb(108, 219, 158)" stroke-width="2.153933668016662" x1="261" x2="718" y1="660" y2="247" /><line stroke="rgb(94, 124, 155)" stroke-width="1.438979411069849" x1="457" x2="482" y1="0" y2="382" /><line stroke="rgb(154, 225, 222)" stroke-width="2.001028717560555" x1="786" x2="694" y1="271" y2="483" /><line stroke="rgb(40, 83, 92)" stroke-width="1.4772599865544607" x1="728" x2="514" y1="563" y2="667" /><line stroke="rgb(245, 240, 120)" stroke-width="2.9340676384344073" x1="399" x2="458" y1="402" y2="396" /><line stroke="rgb(38, 249, 203)" stroke-width="2.08989945601759" x1="448" x2="783" y1="517" y2="443" /><line stroke="rgb(224, 205, 179)" stroke-width="2.4962833632026546" x1="520" x2="386" y1="236" y2="50" /><path d="M651,565 Q618,283 117,284 C93,481 81,653 582,135 L318,141 Q431,562 253,40 C782,421 152,278 492,319 Q775,399 744,596" fill="none" stroke="rgb(32, 68, 172)" stroke-width="2.1616330642172388" /><path d="M55,6 C499,584 228,447 554,24 Q128,461 673,394 L181,506 C393,302 430,393 453,316" fill="none" stroke="rgb(70, 161, 133)" stroke-width="1.2307484225813008" /><path d="M323,601 L426,415 Q531,247 269,270 Q710,616 396,669" fill="none" stroke="rgb(124, 43, 185)" stroke-width="1.659767503482306" /><line stroke="rgb(199, 2, 63)" stroke-width="0.8150621470444783" x1="227" x2="315" y1="121" y2="169" /><line stroke="rgb(89, 239, 62)" stroke-width="1.685298997645152" x1="159" x2="612" y1="114" y2="271" /><line stroke="rgb(244, 211, 233)" stroke-width="1.4252657854801347" x1="723" x2="315" y1="593" y2="667" /><line stroke="rgb(135, 18, 68)" stroke-width="2.9921860958493087" x1="558" x2="520" y1="281" y2="449" /><line stroke="rgb(235, 20, 230)" stroke-width="1.353951009002516" x1="689" x2="368" y1="593" y2="267" /><line stroke="rgb(31, 36, 22)" stroke-width="2.30242280581629" x1="528" x2="91" y1="496" y2="6" /><line stroke="rgb(47, 210, 79)" stroke-width="2.359319189187636" x1="4" x2="787" y1="348" y2="587" /><line stroke="rgb(208, 37, 84)" stroke-width="1.7045343567802036" x1="347" x2="616" y1="416" y2="637" /><line stroke="rgb(233, 217, 126)" stroke-width="1.0187331432378104" x1="370" x2="551" y1="276" y2="318" /><path d="M268,592 Q138,387 174,554 C550,192 532,540 504,40 C680,217 90,658 811,247 L123,227 Q776,319 824,1 Q86,23 1,490" fill="none" stroke="rgb(189, 217, 117)" stroke-width="2.584489464885911" /><path d="M470,599 L613,85 C723,486 827,288 667,427 Q686,313 196,230 Q96,662 505,406 Q612,486 570,117" fill="none" stroke="rgb(216, 155, 194)" stroke-width="2.755022650007232" /><path d="M315,246 C293,19 88,338 6,42 L679,372 Q570,248 343,269 L285,30 L108,595 L301,513 L398,538" fill="none" stroke="rgb(74, 186, 216)" stroke-width="0.5171201167107488" /><line stroke="rgb(40, 232, 90)" stroke-width="2.400005147009204" x1="379" x2="309" y1="434" y2="126" /><line stroke="rgb(68, 111, 17)" stroke-width="2.361172938075555" x1="676" x2="381" y1="672" y2="482" /><line stroke="rgb(56, 26, 168)" stroke-width="1.1214527861471661" x1="304" x2="171" y1="554" y2="680" /><line stroke="rgb(242, 233, 163)" stroke-width="1.0807488344246838" x1="339" x2="35" y1="385" y2="33" /><line stroke="rgb(133, 179, 26)" stroke-width="1.4899108593234471" x1="798" x2="479" y1="150" y2="247" /><line stroke="rgb(51, 89, 189)" stroke-width="1.5647350657291952" x1="130" x2="830" y1="571" y2="576" /><line stroke="rgb(179, 67, 66)" stroke-width="1.275644379584586" x1="175" x2="102" y1="623" y2="85" /><line stroke="rgb(76, 126, 64)" stroke-width="2.486447432281497" x1="652" x2="389" y1="606" y2="442" /><line stroke="rgb(21, 76, 122)" stroke-width="2.2665183007058864" x1="558" x2="561" y1="90" y2="660" /><line stroke="rgb(178, 141, 16)" stroke-width="1.7527731507522386" x1="463" x2="711" y1="387" y2="451" /><circle cx="487" cy="373" fill="none" opacity="0.42464866653076405" r="108" stroke="rgb(166, 83, 160)" stroke-width="1.2147152665532355" /><path d="M20,437 L501,83 C33,677 450,348 597,641 L342,605 Q683,49 794,160 Q40,583 340,132 L430,625 Q678,589 64,358" fill="none" stroke="rgb(134, 170, 205)" stroke-width="1.00764333403152" /><path d="M473,640 Q420,248 403,341 Q416,488 167,370 L492,157 C715,387 640,325 456,113 L300,293 Q68,199 818,220" fill="none" stroke="rgb(93, 180, 96)" stroke-width="1.457562172336507" /><path d="M394,112 Q504,556 478,273 L738,39 L628,54 L609,385 Q274,217 136,114" fill="none" stroke="rgb(173, 197, 109)" stroke-width="0.8946062084501143" /><circle cx="472" cy="480" fill="none" opacity="0.7392143548069303" r="143" stroke="rgb(93, 248, 96)" stroke-width="3.320187302730444" /><polygon fill="none" points="167,378 564,638 171,258 436,641 464,628 574,50 766,129" stroke="rgb(22, 160, 101)" stroke-width="1.7585961319102448" /><polygon fill="none" points="356,127 280,181 57,611 196,597 618,83 277,162 134,573 565,91" stroke="rgb(26, 228, 44)" stroke-width="3.666567275476753" /><polygon fill="none" points="748,547 270,353 823,580 400,161 373,485" stroke="rgb(179, 121, 131)" stroke-width="3.820390569491514" /><circle cx="482" cy="540" fill="none" opacity="0.31301344531764663" r="42" stroke="rgb(46, 196, 164)" stroke-width="3.943716256048856" /><circle cx="614" cy="144" fill="none" opacity="0.718567147905514" r="111" stroke="rgb(228, 151, 209)" stroke-width="2.9874882250656114" /><circle cx="386" cy="232" fill="none" opacity="0.6275938766713511" r="125" stroke="rgb(242, 41, 245)" stroke-width="0.5295534753238165" /></svg>