<svg baseProfile="full" height="570px" version="1.1" width="938px" xmlns="http://www.w3.org/2000/svg" xmlns:ev="http://www.w3.org/2001/xml-events" xmlns:xlink="http://www.w3.org/1999/xlink"><defs /><rect fill="rgb(211, 207, 245)" height="570px" width="938px" x="0" y="0" /><line stroke="rgb(146, 249, 134)" stroke-width="1.986832361083568" x1="255" x2="418" y1="12" y2="563" /><line stroke="rgb(246, 111, 216)" stroke-width="1.767659815762441" x1="464" x2="837" y1="52" y2="465" /><line stroke="rgb(232, 25, 118)" stroke-width="1.7952748469005115" x1="652" x2="394" y1="245" y2="34" /><line stroke="rgb(54, 215, 106)" stroke-width="1.2599734903449975" x1="411" x2="214" y1="431" y2="535" /><circle cx="383" cy="432" fill="none" opacity="0.3061505386022444" r="50" stroke="rgb(48, 163, 185)" stroke-width="2.806503790409532" /><path d="M387,490 L928,545 Q217,518 591,105 Q726,277 789,541 C108,200 265,506 583,73 C632,343 497,547 761,150 Q772,300 781,37 C554,478 867,184 467,49" fill="none" stroke="rgb(140, 39, 234)" stroke-width="1.7778355969073054" /><rect fill="none" height="186" stroke="rgb(52, 190, 9)" stroke-width="4.571882944327395" transform="rotate(342 16 458)" width="128" x="632" y="321" /><line stroke="rgb(113, 64, 231)" stroke-width="0.6717968179029999" x1="663" x2="683" y1="373" y2="145" /><line stroke="rgb(193, 55, 132)" stroke-width="0.7988928520776504" x1="144" x2="137" y1="267" y2="323" /><line stroke="rgb(138, 201, 231)" stroke-width="0.7718233088885966" x1="862" x2="265" y1="89" y2="274" /><line stroke="rgb(231, 97, 91)" stroke-width="1.1038078450538988" x1="612" x2="358" y1="241" y2="105" /><line stroke="rgb(135, 179, 228)" stroke-width="0.7749415435773985" x1="514" x2="593" y1="445" y2="146" /><line stroke="rgb(76, 73, 25)" stroke-width="1.9497224298816151" x1="455" x2="92" y1="501" y2="128" /><polygon fill="none" points="840,66 748,342 214,154 938,238 302,140 643,364 43,223 450,37" stroke="rgb(147, 78, 159)" stroke-width="1.536839882210645" /><rect fill="none" height="49" stroke="rgb(126, 61, 29)" stroke-width="1.7389597544321496" transform="rotate(146 563 298)" width="27" x="291" y="320" /><path d="M155,230 C186,112 843,465 25,260 C451,50 446,189 527,147 L813,100" fill="none" stroke="rgb(212, 88, 58)" stroke-width="2.5900778852626285" /><circle cx="283" cy="96" fill="none" opacity="0.9787972458962229" r="33" stroke="rgb(206, 99, 235)" stroke-width="4.1211932913137" /><line stroke="rgb(232, 109, 88)" stroke-width="2.943222269563978" x1="84" x2="906" y1="520" y2="85" /><line stroke="rgb(165, 81, 240)" stroke-width="0.79488808432929" x1="755" x2="124" y1="167" y2="176" /><line stroke="rgb(9, 27, 27)" stroke-width="2.651179191483892" x1="100" x2="490" y1="124" y2="550" /><line stroke="rgb(113, 243, 45)" stroke-width="1.400793353421816" x1="78" x2="25" y1="91" y2="0" /><line stroke="rgb(28, 57, 122)" stroke-width="0.5660953895914856" x1="890" x2="396" y1="113" y2="515" /><line stroke="rgb(35, 218, 21)" stroke-width="2.5072453986370262" x1="512" x2="272" y1="506" y2="279" /><line stroke="rgb(57, 248, 23)" stroke-width="1.7585945464936663" x1="379" x2="250" y1="334" y2="248" /><line stroke="rgb(108, 5, 103)" stroke-width="1.6458516689021163" x1="572" x2="567" y1="10" y2="565" /><line stroke="rgb(38, 111, 175)" stroke-width="1.826528942089476" x1="294" x2="344" y1="293" y2="554" /><line stroke="rgb(210, 17, 197)" stroke-width="1.3157478825042648" x1="222" x2="187" y1="226" y2="262" /><rect fill="none" height="186" stroke="rgb(79, 202, 73)" stroke-width="1.8691625291048184" transform="rotate(144 611 157)" width="165" x="706" y="248" /><polygon fill="none" points="624,166 605,443 850,453 367,317 306,40 271,534" stroke="rgb(236, 82, 114)" stroke-width="3.8061435379649775" /><circle cx="144" cy="117" fill="none" opacity="0.3698658271360451" r="29" stroke="rgb(58, 138, 136)" stroke-width="1.4647507041239356" /><polygon fill="none" points="163,459 215,209 760,535 388,230 150,139 45,360 21,435" stroke="rgb(22, 206, 101)" stroke-width="3.6442124720006643" /><rect fill="none" height="187" stroke="rgb(134, 160, 240)" stroke-width="2.0685249982762866" transform="rotate(257 67 154)" width="189" x="607" y="383" /><polygon fill="none" points="513,346 366,144 385,169" stroke="rgb(162, 103, 151)" stroke-width="1.3936991441639945" /><rect fill="none" height="135" stroke="rgb(132, 143, 96)" stroke-width="2.244987198168076" transform="rotate(331 564 548)" width="152" x="125" y="100" /><circle cx="714" cy="388" fill="none" opacity="0.8941407143124445" r="26" stroke="rgb(109, 62, 154)" stroke-width="3.0848788413578667" /><circle cx="538" cy="105" fill="none" opacity="0.4896872881934786" r="34" stroke="rgb(121, 133, 195)" stroke-width="2.2894148081779844" /><circle cx="314" cy="136" fill="none" opacity="0.9312253566493576" r="14" stroke="rgb(81, 99, 7)" stroke-width="3.8350474417716516" /><polygon fill="none" points="4,469 725,65 453,256" stroke="rgb(141, 234, 50)" stroke-width="2.7223460848660954" /><polygon fill="none" points="556,135 584,189 612,43 658,229 344,119 66,288 189,370 838,251" stroke="rgb(178, 83, 118)" stroke-width="0.784143122354411" /><rect fill="none" height="59" stroke="rgb(123, 172, 10)" stroke-width="2.6083139075800053" transform="rotate(190 861 44)" width="139" x="621" y="429" /><line stroke="rgb(131, 2, 139)" stroke-width="0.9984910931351855" x1="518" x2="786" y1="210" y2="517" /><line stroke="rgb(39, 172, 136)" stroke-width="0.724036657285859" x1="33" x2="778" y1="241" y2="269" /><line stroke="rgb(64, 100, 139)" stroke-width="2.0346673858655593" x1="760" x2="830" y1="417" y2="2" /><polygon fill="none" points="66,530 867,481 373,260 495,263 381,403 299,170 574,503 196,67" stroke="rgb(186, 133, 150)" stroke-width="3.0937722483858057" /><circle cx="717" cy="324" fill="none" opacity="0.6033400074755202" r="138" stroke="rgb(202, 186, 253)" stroke-width="2.4966729582302682" /><polygon fill="none" points="215,320 779,85 200,53 892,406" stroke="rgb(208, 79, 28)" stroke-width="2.934401785940799" /><polygon fill="none" points="268,420 434,99 731,146" stroke="rgb(25, 192, 20)" stroke-width="2.735502283810882" /><polygon fill="none" points="773,323 196,361 159,235" stroke="rgb(123, 80, 0)" stroke-width="0.898582877196902" /><polygon fill="none" points="464,361 172,444 792,196 819,459 753,502 895,469 916,567" stroke="rgb(180, 172, 100)" stroke-width="3.4817033770678787" /><rect fill="none" height="171" stroke="rgb(86, 152, 206)" stroke-width="1.3223327031569523" transform="rotate(227 794 370)" width="181" x="588" y="245" /><rect fill="none" height="113" stroke="rgb(100, 63, 151)" stroke-width="4.166892101574828" transform="rotate(91 757 493)" width="23" x="110" y="104" /><polygon fill="none" points="850,561 661,461 59,243 133,129 224,322 220,418 317,474 663,252" stroke="rgb(72, 51, 125)" stroke-width="1.5267976477751215" /><rect fill="none" height="69" stroke="rgb(91, 186, 100)" stroke-width="4.567708802039104" transform="rotate(331 540 391)" width="42" x="508" y="345" /><polygon fill="none" points="759,370 315,159 497,551 198,395 316,463 199,66" stroke="rgb(146, 195, 240)" stroke-width="3.6019798314399334" /><line stroke="rgb(245, 13, 150)" stroke-width="0.6775164478193734" x1="74" x2="386" y1="224" y2="241" /><line stroke="rgb(32, 108, 175)" stroke-width="2.732898733317155" x1="138" x2="733" y1="216" y2="197" /><line stroke="rgb(74, 43, 157)" stroke-width="2.911709008570356" x1="623" x2="353" y1="220" y2="82" /><line stroke="rgb(231, 109, 155)" stroke-width="0.9454735373448246" x1="590" x2="600" y1="196" y2="454" /><line stroke="rgb(21, 165, 234)" stroke-width="1.4371820310432664" x1="81" x2="118" y1="279" y2="132" /><line stroke="rgb(118, 119, 224)" stroke-width="2.960029929192689" x1="456" x2="508" y1="135" y2="208" /><polygon fill="none" points="867,104 815,503 824,542 189,429" stroke="rgb(53, 104, 254)" stroke-width="2.6454599762588735" /><line stroke="rgb(86, 76, 226)" stroke-width="1.2435537827420369" x1="800" x2="488" y1="522" y2="559" /><line stroke="rgb(238, 234, 226)" stroke-width="0.7868128439995168" x1="32" x2="394" y1="306" y2="425" /><line stroke="rgb(48, 18, 247)" stroke-width="1.7622218652092934" x1="153" x2="260" y1="295" y2="553" /><line stroke="rgb(152, 110, 239)" stroke-width="0.5820085783855953" x1="297" x2="929" y1="522" y2="109" /><line stroke="rgb(197, 113, 119)" stroke-width="2.925669739004768" x1="897" x2="576" y1="120" y2="560" /><circle cx="849" cy="176" fill="none" opacity="0.7504716895623945" r="88" stroke="rgb(201, 76, 68)" stroke-width="1.4574119245543191" /><line stroke="rgb(130, 201, 83)" stroke-width="2.1892396615816425" x1="55" x2="654" y1="310" y2="310" /><line stroke="rgb(140, 97, 85)" stroke-width="0.618017737478112" x1="499" x2="243" y1="485" y2="271" /><line stroke="rgb(116, 113, 77)" stroke-width="1.2263263141270064" x1="225" x2="697" y1="423" y2="362" /><line stroke="rgb(224, 194, 39)" stroke-width="1.7597717775216446" x1="333" x2="927" y1="397" y2="69" /><line stroke="rgb(251, 45, 108)" stroke-width="1.4511656084453888" x1="292" x2="808" y1="97" y2="513" /><line stroke="rgb(67, 29, 237)" stroke-width="1.9576983770016274" x1="181" x2="398" y1="165" y2="492" /><line stroke="rgb(45, 125, 97)" stroke-width="1.956699488367301" x1="650" x2="615" y1="370" y2="228" /><polygon fill="none" points="714,457 756,119 270,550 299,94 189,364 823,390" stroke="rgb(254, 42, 191)" stroke-width="3.522314321075314" /></svg>