<svg baseProfile="full" height="797px" version="1.1" width="983px" xmlns="http://www.w3.org/2000/svg" xmlns:ev="http://www.w3.org/2001/xml-events" xmlns:xlink="http://www.w3.org/1999/xlink"><defs /><rect fill="rgb(242, 215, 224)" height="797px" width="983px" x="0" y="0" /><rect fill="none" height="129" stroke="rgb(217, 253, 164)" stroke-width="4.238031882260551" transform="rotate(4 624 104)" width="87" x="771" y="577" /><circle cx="106" cy="140" fill="none" opacity="0.40860173746746714" r="177" stroke="rgb(129, 80, 30)" stroke-width="1.6276016591573785" /><polygon fill="none" points="686,382 89,270 522,758 75,26" stroke="rgb(196, 178, 31)" stroke-width="2.308089992586008" /><polygon fill="none" points="586,153 440,628 332,575 379,153 554,126 762,498 508,624" stroke="rgb(38, 226, 170)" stroke-width="2.75753792463828" /><circle cx="861" cy="281" fill="none" opacity="0.5965885295536251" r="152" stroke="rgb(229, 247, 8)" stroke-width="1.0624833052710771" /><circle cx="209" cy="260" fill="none" opacity="0.7637312863548674" r="145" stroke="rgb(226, 33, 38)" stroke-width="4.880538452041769" /><path d="M949,785 L460,65 Q398,713 562,714 L224,279 L831,590 L929,466" fill="none" stroke="rgb(43, 19, 233)" stroke-width="2.511638669910504" /><polygon fill="none" points="329,166 275,100 920,689 788,129 297,53 962,18 631,286 259,56" stroke="rgb(11, 169, 35)" stroke-width="0.7864714113893879" /><path d="M302,298 C756,489 766,15 558,448 L10,404 C158,295 124,176 929,662" fill="none" stroke="rgb(217, 135, 57)" stroke-width="1.4691239020185247" /><circle cx="138" cy="99" fill="none" opacity="0.6695247375471043" r="148" stroke="rgb(143, 167, 80)" stroke-width="2.682857499237281" /><line stroke="rgb(168, 124, 148)" stroke-width="1.6301364887192187" x1="388" x2="27" y1="486" y2="251" /><line stroke="rgb(65, 208, 109)" stroke-width="1.1726936961974963" x1="904" x2="541" y1="195" y2="385" /><line stroke="rgb(69, 216, 96)" stroke-width="1.0285688286360952" x1="619" x2="765" y1="467" y2="72" /><line stroke="rgb(21, 33, 84)" stroke-width="2.2183927702127" x1="230" x2="960" y1="3" y2="145" /><line stroke="rgb(146, 10, 73)" stroke-width="2.8104069912538643" x1="938" x2="551" y1="560" y2="660" /><line stroke="rgb(230, 106, 84)" stroke-width="2.158332708772715" x1="726" x2="63" y1="366" y2="603" /><line stroke="rgb(15, 28, 71)" stroke-width="1.0748299386243105" x1="68" x2="655" y1="674" y2="345" /><line stroke="rgb(238, 13, 130)" stroke-width="2.2066290184812853" x1="208" x2="543" y1="28" y2="447" /><line stroke="rgb(140, 127, 211)" stroke-width="1.2631088958940864" x1="276" x2="199" y1="25" y2="742" /><line stroke="rgb(145, 217, 26)" stroke-width="1.829182514931829" x1="159" x2="475" y1="560" y2="275" /><path d="M894,273 C317,522 31,111 5,200 Q417,87 359,629 C982,592 68,413 533,157 Q881,437 740,201 C639,688 279,274 238,388 Q362,415 541,66" fill="none" stroke="rgb(196, 30, 223)" stroke-width="0.8807719206577315" /><line stroke="rgb(80, 108, 55)" stroke-width="2.4745378488529757" x1="649" x2="421" y1="187" y2="2" /><line stroke="rgb(83, 161, 33)" stroke-width="0.8750573299074587" x1="358" x2="929" y1="18" y2="774" /><line stroke="rgb(187, 125, 158)" stroke-width="2.2799570530009152" x1="62" x2="457" y1="248" y2="126" /><line stroke="rgb(247, 86, 30)" stroke-width="2.0108608827799066" x1="537" x2="413" y1="445" y2="256" /><line stroke="rgb(28, 88, 122)" stroke-width="2.087082815372124" x1="37" x2="131" y1="544" y2="605" /><line stroke="rgb(204, 40, 51)" stroke-width="0.6153548964279192" x1="323" x2="250" y1="0" y2="7" /><line stroke="rgb(216, 11, 166)" stroke-width="1.8758200180907578" x1="92" x2="852" y1="730" y2="352" /><line stroke="rgb(100, 87, 162)" stroke-width="2.86909710614632" x1="917" x2="944" y1="604" y2="155" /><rect fill="none" height="184" stroke="rgb(10, 65, 196)" stroke-width="2.2301791290961175" transform="rotate(155 825 155)" width="148" x="63" y="444" /><circle cx="599" cy="485" fill="none" opacity="0.6032679604811406" r="27" stroke="rgb(161, 167, 57)" stroke-width="1.5320552691595497" /><line stroke="rgb(208, 56, 63)" stroke-width="1.7372556301505582" x1="246" x2="17" y1="250" y2="127" /><line stroke="rgb(30, 192, 157)" stroke-width="2.401788485123585" x1="956" x2="538" y1="795" y2="376" /><line stroke="rgb(198, 152, 19)" stroke-width="2.0491093787853343" x1="810" x2="829" y1="786" y2="322" /><line stroke="rgb(255, 46, 25)" stroke-width="2.5404893646210076" x1="800" x2="553" y1="611" y2="48" /><circle cx="426" cy="88" fill="none" opacity="0.8842544072737251" r="106" stroke="rgb(228, 68, 106)" stroke-width="1.0124977713027838" /><line stroke="rgb(63, 227, 199)" stroke-width="0.7708472812995588" x1="27" x2="711" y1="495" y2="11" /><line stroke="rgb(144, 156, 76)" stroke-width="2.336180401240081" x1="231" x2="95" y1="367" y2="547" /><line stroke="rgb(61, 98, 196)" stroke-width="1.0208451533533287" x1="843" x2="511" y1="225" y2="456" /><line stroke="rgb(238, 242, 64)" stroke-width="0.8134717505719747" x1="828" x2="964" y1="145" y2="539" /><line stroke="rgb(124, 69, 86)" stroke-width="1.1236576178333042" x1="736" x2="434" y1="717" y2="109" /><line stroke="rgb(96, 85, 3)" stroke-width="0.6506031729276716" x1="320" x2="356" y1="385" y2="135" /><line stroke="rgb(200, 219, 175)" stroke-width="2.319356993027063" x1="476" x2="185" y1="175" y2="737" /><line stroke="rgb(112, 232, 25)" stroke-width="2.7515862808926097" x1="383" x2="938" y1="265" y2="399" /><line stroke="rgb(55, 253, 194)" stroke-width="0.6762536411721658" x1="398" x2="967" y1="452" y2="221" /><path d="M427,271 L753,322 Q132,525 273,181 Q45,380 150,178" fill="none" stroke="rgb(240, 231, 159)" stroke-width="0.7690011160848302" /><polygon fill="none" points="901,709 104,228 183,766 462,446 318,579 2,259 890,772" stroke="rgb(88, 94, 190)" stroke-width="0.881252567124843" /><polygon fill="none" points="233,501 605,422 786,141 57,772 430,367 481,211 318,402" stroke="rgb(10, 220, 180)" stroke-width="3.3210240806962523" /><circle cx="854" cy="570" fill="none" opacity="0.7519684138914542" r="122" stroke="rgb(227, 0, 21)" stroke-width="0.8962585797182923" /></svg>