<svg baseProfile="full" height="587px" version="1.1" width="1055px" xmlns="http://www.w3.org/2000/svg" xmlns:ev="http://www.w3.org/2001/xml-events" xmlns:xlink="http://www.w3.org/1999/xlink"><defs /><rect fill="rgb(246, 225, 252)" height="587px" width="1055px" x="0" y="0" /><rect fill="none" height="55" stroke="rgb(61, 105, 83)" stroke-width="4.653976598954024" transform="rotate(113 700 375)" width="139" x="566" y="317" /><line stroke="rgb(220, 81, 140)" stroke-width="2.2267873534008222" x1="603" x2="47" y1="471" y2="279" /><line stroke="rgb(107, 143, 14)" stroke-width="2.2790463356338533" x1="70" x2="271" y1="238" y2="62" /><line stroke="rgb(172, 28, 54)" stroke-width="0.6889390454923932" x1="692" x2="145" y1="327" y2="246" /><line stroke="rgb(103, 161, 11)" stroke-width="2.754844685387975" x1="934" x2="652" y1="187" y2="376" /><line stroke="rgb(111, 152, 137)" stroke-width="1.8611749408141698" x1="878" x2="10" y1="22" y2="538" /><line stroke="rgb(204, 74, 34)" stroke-width="2.039597734258626" x1="1" x2="478" y1="170" y2="69" /><line stroke="rgb(17, 248, 40)" stroke-width="1.8073931872136724" x1="170" x2="1048" y1="161" y2="71" /><line stroke="rgb(198, 97, 187)" stroke-width="2.201769634444066" x1="5" x2="1001" y1="269" y2="43" /><line stroke="rgb(113, 55, 36)" stroke-width="2.9195042696369957" x1="904" x2="872" y1="579" y2="21" /><line stroke="rgb(38, 107, 36)" stroke-width="2.5869966640909694" x1="914" x2="1001" y1="452" y2="573" /><line stroke="rgb(188, 8, 247)" stroke-width="1.3400254034940584" x1="680" x2="1026" y1="288" y2="571" /><line stroke="rgb(254, 254, 158)" stroke-width="1.7838867224242323" x1="442" x2="322" y1="70" y2="170" /><circle cx="664" cy="500" fill="none" opacity="0.42371564284608976" r="33" stroke="rgb(227, 169, 83)" stroke-width="2.484209363520491" /><line stroke="rgb(51, 67, 156)" stroke-width="2.946154347909671" x1="848" x2="178" y1="171" y2="14" /><line stroke="rgb(163, 222, 215)" stroke-width="1.1653012974619705" x1="969" x2="744" y1="312" y2="310" /><line stroke="rgb(50, 106, 137)" stroke-width="0.8345903030955222" x1="258" x2="903" y1="488" y2="383" /><line stroke="rgb(95, 173, 5)" stroke-width="2.210523336820339" x1="815" x2="835" y1="128" y2="244" /><line stroke="rgb(99, 164, 169)" stroke-width="1.97384989501699" x1="922" x2="64" y1="236" y2="163" /><line stroke="rgb(125, 128, 240)" stroke-width="2.3706112265572337" x1="768" x2="1001" y1="401" y2="417" /><line stroke="rgb(36, 233, 129)" stroke-width="2.343790065978598" x1="399" x2="788" y1="553" y2="338" /><line stroke="rgb(16, 96, 177)" stroke-width="0.953777549810182" x1="848" x2="503" y1="454" y2="419" /><line stroke="rgb(42, 218, 52)" stroke-width="1.0850638837790492" x1="985" x2="514" y1="167" y2="191" /><path d="M884,40 L15,480 C784,581 548,189 41,376 C743,19 751,45 720,375 Q133,339 810,345 C218,15 868,486 232,463 C1051,76 1037,383 861,363" fill="none" stroke="rgb(85, 77, 61)" stroke-width="1.6705818165961888" /><line stroke="rgb(22, 200, 56)" stroke-width="1.2527180010850931" x1="135" x2="515" y1="107" y2="584" /><line stroke="rgb(222, 174, 61)" stroke-width="1.730670039551902" x1="856" x2="121" y1="43" y2="419" /><line stroke="rgb(197, 147, 78)" stroke-width="0.7118352118674081" x1="206" x2="955" y1="381" y2="58" /><line stroke="rgb(74, 244, 137)" stroke-width="0.6268653479270471" x1="713" x2="395" y1="180" y2="326" /><path d="M780,558 Q761,97 551,114 L159,70 C820,347 344,39 903,311 L301,30 L696,36 L882,400 C755,358 900,501 646,306" fill="none" stroke="rgb(137, 189, 142)" stroke-width="0.8507833093250506" /><circle cx="599" cy="307" fill="none" opacity="0.3580530078792834" r="70" stroke="rgb(108, 161, 114)" stroke-width="3.8866459022648865" /><circle cx="808" cy="322" fill="none" opacity="0.5876387072244544" r="127" stroke="rgb(89, 168, 234)" stroke-width="1.3375040374667488" /><line stroke="rgb(0, 23, 115)" stroke-width="1.9525420473153878" x1="728" x2="999" y1="262" y2="443" /><line stroke="rgb(10, 62, 162)" stroke-width="2.342341529235129" x1="734" x2="566" y1="133" y2="99" /><line stroke="rgb(165, 20, 108)" stroke-width="1.6010248665487088" x1="259" x2="941" y1="209" y2="405" /><line stroke="rgb(213, 145, 71)" stroke-width="2.9006897585137503" x1="324" x2="536" y1="188" y2="307" /><line stroke="rgb(69, 103, 136)" stroke-width="1.7544583326693795" x1="449" x2="514" y1="545" y2="498" /><line stroke="rgb(71, 57, 60)" stroke-width="2.1624002936919435" x1="630" x2="479" y1="187" y2="340" /><rect fill="none" height="147" stroke="rgb(194, 127, 172)" stroke-width="4.1202427405695445" transform="rotate(272 440 43)" width="60" x="142" y="388" /><line stroke="rgb(39, 207, 74)" stroke-width="0.7310511019351252" x1="1014" x2="925" y1="101" y2="565" /><line stroke="rgb(194, 174, 250)" stroke-width="2.834372744556357" x1="77" x2="146" y1="428" y2="399" /><line stroke="rgb(127, 152, 188)" stroke-width="1.6116526980272226" x1="14" x2="340" y1="444" y2="247" /><line stroke="rgb(240, 0, 188)" stroke-width="2.159576513128397" x1="17" x2="521" y1="158" y2="517" /><line stroke="rgb(242, 233, 18)" stroke-width="2.6786701397676" x1="179" x2="645" y1="363" y2="75" /><path d="M482,351 Q474,406 155,405 Q698,150 715,335 Q199,585 456,546" fill="none" stroke="rgb(36, 161, 117)" stroke-width="1.0581624270784393" /><path d="M221,64 L513,226 L579,384 C436,254 333,66 990,444" fill="none" stroke="rgb(94, 139, 110)" stroke-width="2.399286383289861" /><rect fill="none" height="162" stroke="rgb(102, 96, 75)" stroke-width="1.509149970294538" transform="rotate(248 360 165)" width="35" x="594" y="147" /><circle cx="603" cy="511" fill="none" opacity="0.38213709282287145" r="55" stroke="rgb(145, 199, 152)" stroke-width="1.9137299387552758" /><rect fill="none" height="20" stroke="rgb(129, 35, 93)" stroke-width="2.9675050574779522" transform="rotate(231 972 233)" width="124" x="911" y="214" /><circle cx="666" cy="179" fill="none" opacity="0.583156112218917" r="109" stroke="rgb(148, 82, 75)" stroke-width="0.6151196828206864" /><line stroke="rgb(148, 211, 235)" stroke-width="0.9977913343159681" x1="53" x2="537" y1="495" y2="285" /><line stroke="rgb(189, 188, 232)" stroke-width="2.2215191415290487" x1="912" x2="834" y1="415" y2="370" /><line stroke="rgb(80, 118, 175)" stroke-width="1.9866549792617727" x1="221" x2="1001" y1="437" y2="281" /><line stroke="rgb(101, 205, 166)" stroke-width="1.092559972808938" x1="567" x2="393" y1="336" y2="183" /><line stroke="rgb(154, 21, 115)" stroke-width="1.6428317137960056" x1="483" x2="341" y1="510" y2="58" /><line stroke="rgb(107, 108, 187)" stroke-width="2.336598000987015" x1="701" x2="824" y1="527" y2="570" /><line stroke="rgb(170, 65, 53)" stroke-width="1.1590234476952064" x1="418" x2="756" y1="299" y2="323" /><line stroke="rgb(26, 183, 144)" stroke-width="2.25992015423013" x1="897" x2="870" y1="489" y2="286" /><path d="M447,44 L486,378 Q540,380 588,522 C586,248 417,446 396,251" fill="none" stroke="rgb(255, 214, 143)" stroke-width="2.469312198913978" /><rect fill="none" height="134" stroke="rgb(139, 109, 135)" stroke-width="2.7331440754575125" transform="rotate(112 360 40)" width="148" x="116" y="135" /><line stroke="rgb(141, 150, 158)" stroke-width="0.9536339703213099" x1="129" x2="837" y1="112" y2="113" /><line stroke="rgb(68, 55, 215)" stroke-width="1.2652459344182059" x1="482" x2="323" y1="276" y2="585" /><line stroke="rgb(151, 231, 118)" stroke-width="1.4692069890769095" x1="801" x2="128" y1="78" y2="37" /><line stroke="rgb(107, 159, 2)" stroke-width="0.7088821404445698" x1="215" x2="217" y1="541" y2="509" /><line stroke="rgb(133, 6, 94)" stroke-width="2.6189078100721255" x1="823" x2="317" y1="342" y2="164" /><line stroke="rgb(36, 101, 181)" stroke-width="1.1829465927546523" x1="684" x2="624" y1="54" y2="542" /><line stroke="rgb(249, 195, 181)" stroke-width="2.9232083529358466" x1="534" x2="911" y1="283" y2="261" /><line stroke="rgb(150, 10, 136)" stroke-width="2.657676355604631" x1="182" x2="570" y1="201" y2="367" /><rect fill="none" height="32" stroke="rgb(183, 221, 131)" stroke-width="1.0498101308132726" transform="rotate(11 874 461)" width="121" x="126" y="339" /><line stroke="rgb(104, 67, 91)" stroke-width="1.06228356264217" x1="586" x2="568" y1="445" y2="94" /><line stroke="rgb(86, 250, 111)" stroke-width="2.3892863946166805" x1="354" x2="424" y1="49" y2="454" /><line stroke="rgb(126, 161, 178)" stroke-width="1.1587134575892435" x1="545" x2="131" y1="274" y2="2" /><line stroke="rgb(209, 174, 120)" stroke-width="2.1538043565730645" x1="1007" x2="769" y1="532" y2="469" /><rect fill="none" height="103" stroke="rgb(157, 227, 151)" stroke-width="3.572263961559948" transform="rotate(324 1 483)" width="85" x="769" y="117" /><polygon fill="none" points="249,434 857,511 384,456 762,131" stroke="rgb(57, 125, 68)" stroke-width="3.4153451379973467" /><rect fill="none" height="55" stroke="rgb(12, 130, 239)" stroke-width="2.781653870091955" transform="rotate(313 657 339)" width="161" x="174" y="183" /><circle cx="764" cy="347" fill="none" opacity="0.6166013704732096" r="117" stroke="rgb(158, 80, 46)" stroke-width="3.6542905092177085" /><polygon fill="none" points="104,435 477,314 459,64 697,147 719,105 677,209" stroke="rgb(177, 51, 82)" stroke-width="3.9764493752660504" /><circle cx="364" cy="127" fill="none" opacity="0.6582827467532224" r="53" stroke="rgb(18, 3, 204)" stroke-width="3.772516922557511" /><circle cx="895" cy="343" fill="none" opacity="0.6035907309706248" r="122" stroke="rgb(206, 71, 92)" stroke-width="1.3789035250480643" /><polygon fill="none" points="892,81 629,335 726,364 252,496 639,294 822,478 872,162 873,316" stroke="rgb(147, 200, 25)" stroke-width="0.6760438254719692" /><rect fill="none" height="84" stroke="rgb(187, 200, 114)" stroke-width="4.174084615080478" transform="rotate(270 835 272)" width="171" x="232" y="129" /><polygon fill="none" points="99,152 909,444 827,378 522,85" stroke="rgb(176, 216, 112)" stroke-width="1.797302363778665" /><path d="M406,360 L142,464 Q787,356 872,417 L1010,384 C85,129 299,72 676,328" fill="none" stroke="rgb(135, 229, 50)" stroke-width="2.3234120071606226" /><polygon fill="none" points="727,428 960,455 584,53 896,398 670,151 543,326" stroke="rgb(90, 11, 151)" stroke-width="2.079722634203837" /><path d="M912,310 Q644,561 560,533 L948,359 Q264,242 425,9 C396,562 163,247 900,346" fill="none" stroke="rgb(72, 245, 3)" stroke-width="2.73529702290667" /><rect fill="none" height="66" stroke="rgb(146, 46, 19)" stroke-width="2.948655799582761" transform="rotate(98 17 262)" width="42" x="945" y="23" /><circle cx="994" cy="296" fill="none" opacity="0.8677930441416561" r="16" stroke="rgb(18, 15, 176)" stroke-width="1.8615560973859195" /><polygon fill="none" points="79,1 639,568 789,375 333,174 586,370" stroke="rgb(27, 229, 151)" stroke-width="1.468265232492291" /><rect fill="none" height="105" stroke="rgb(78, 112, 253)" stroke-width="1.995527256738334" transform="rotate(173 689 548)" width="77" x="830" y="228" /><path d="M1005,522 L322,532 C1005,446 698,230 457,147 C186,436 46,361 51,132 Q298,517 694,539" fill="none" stroke="rgb(175, 227, 36)" stroke-width="1.311976123766081" /><path d="M316,438 Q76,188 581,308 C754,440 779,120 980,426 C409,110 390,581 41,478 C217,29 10,23 95,233 L860,448" fill="none" stroke="rgb(109, 234, 220)" stroke-width="0.9557705508171034" /><line stroke="rgb(4, 159, 78)" stroke-width="2.904225699042935" x1="70" x2="544" y1="492" y2="97" /><line stroke="rgb(248, 70, 197)" stroke-width="2.9305778613329343" x1="171" x2="674" y1="265" y2="447" /><line stroke="rgb(10, 147, 45)" stroke-width="2.735497258635799" x1="1008" x2="674" y1="340" y2="493" /><line stroke="rgb(91, 234, 104)" stroke-width="1.5567576794791211" x1="290" x2="689" y1="177" y2="310" /><line stroke="rgb(181, 120, 37)" stroke-width="0.7898308018111623" x1="444" x2="355" y1="529" y2="246" /><line stroke="rgb(86, 4, 94)" stroke-width="0.914661813491865" x1="847" x2="676" y1="191" y2="133" /><line stroke="rgb(100, 12, 100)" stroke-width="1.0486382938327128" x1="873" x2="763" y1="79" y2="509" /><line stroke="rgb(93, 92, 191)" stroke-width="1.424929626601033" x1="615" x2="1014" y1="434" y2="252" /><line stroke="rgb(137, 131, 127)" stroke-width="2.9188898157737384" x1="175" x2="795" y1="390" y2="53" /><line stroke="rgb(219, 58, 119)" stroke-width="1.9776583041231228" x1="242" x2="199" y1="253" y2="138" /><line stroke="rgb(105, 184, 25)" stroke-width="1.3425719678915233" x1="612" x2="917" y1="21" y2="18" /><line stroke="rgb(181, 51, 171)" stroke-width="2.157065180741535" x1="116" x2="990" y1="499" y2="554" /><circle cx="453" cy="277" fill="none" opacity="0.8816374757026684" r="121" stroke="rgb(247, 133, 127)" stroke-width="4.671000309366401" /><circle cx="968" cy="111" fill="none" opacity="0.4355086425500443" r="69" stroke="rgb(17, 62, 220)" stroke-width="4.957460095038599" /><line stroke="rgb(183, 134, 225)" stroke-width="1.0524555739971504" x1="748" x2="510" y1="74" y2="198" /><line stroke="rgb(176, 215, 241)" stroke-width="1.5854851502982927" x1="270" x2="812" y1="289" y2="461" /><line stroke="rgb(125, 60, 163)" stroke-width="2.13907004605181" x1="734" x2="229" y1="274" y2="130" /><line stroke="rgb(249, 206, 155)" stroke-width="1.7580558236789026" x1="571" x2="712" y1="107" y2="216" /><line stroke="rgb(195, 90, 118)" stroke-width="1.6754650847281831" x1="930" x2="982" y1="91" y2="201" /><line stroke="rgb(206, 51, 253)" stroke-width="1.5738018952895931" x1="805" x2="709" y1="480" y2="505" /><line stroke="rgb(186, 70, 211)" stroke-width="0.6164574916651445" x1="98" x2="534" y1="103" y2="78" /><line stroke="rgb(32, 95, 176)" stroke-width="1.4506128691508762" x1="178" x2="649" y1="493" y2="532" /><line stroke="rgb(93, 35, 217)" stroke-width="0.7431096737813829" x1="1021" x2="97" y1="339" y2="534" /></svg>