<svg baseProfile="full" height="733px" version="1.1" width="729px" xmlns="http://www.w3.org/2000/svg" xmlns:ev="http://www.w3.org/2001/xml-events" xmlns:xlink="http://www.w3.org/1999/xlink"><defs /><rect fill="rgb(202, 251, 208)" height="733px" width="729px" x="0" y="0" /><polygon fill="none" points="499,472 407,596 625,69" stroke="rgb(248, 200, 15)" stroke-width="3.767485923183527" /><rect fill="none" height="43" stroke="rgb(44, 70, 244)" stroke-width="4.502587036175278" transform="rotate(169 288 525)" width="188" x="488" y="30" /><circle cx="445" cy="658" fill="none" opacity="0.42089578297315533" r="31" stroke="rgb(198, 205, 57)" stroke-width="2.1211231469332157" /><circle cx="224" cy="398" fill="none" opacity="0.37894503816896463" r="170" stroke="rgb(99, 84, 168)" stroke-width="3.709371531349389" /><polygon fill="none" points="726,238 640,334 318,215 86,315 216,550 58,352 288,582" stroke="rgb(236, 18, 45)" stroke-width="2.2036716548967643" /><line stroke="rgb(88, 9, 199)" stroke-width="1.3135212292533331" x1="601" x2="31" y1="14" y2="638" /><line stroke="rgb(207, 20, 7)" stroke-width="2.2800273637684656" x1="15" x2="89" y1="344" y2="658" /><line stroke="rgb(216, 219, 209)" stroke-width="0.8395900382299394" x1="268" x2="269" y1="563" y2="154" /><line stroke="rgb(235, 68, 167)" stroke-width="1.3743091272952708" x1="717" x2="676" y1="619" y2="433" /><line stroke="rgb(123, 96, 172)" stroke-width="1.3068046639953652" x1="672" x2="299" y1="632" y2="501" /><line stroke="rgb(82, 27, 186)" stroke-width="2.667500045004772" x1="242" x2="62" y1="407" y2="194" /><line stroke="rgb(246, 113, 67)" stroke-width="1.9207430474064333" x1="292" x2="206" y1="69" y2="442" /><line stroke="rgb(40, 140, 182)" stroke-width="2.3654943737671634" x1="300" x2="70" y1="272" y2="176" /><polygon fill="none" points="542,54 50,216 437,340 476,515 308,698" stroke="rgb(203, 175, 35)" stroke-width="1.043796566105561" /><polygon fill="none" points="203,270 517,140 367,433 370,284 60,136 24,607" stroke="rgb(136, 214, 43)" stroke-width="2.7806014028576387" /><path d="M423,399 Q519,426 334,390 C83,49 604,169 667,182 L294,469 C553,700 417,460 53,345 Q79,150 677,683 C605,183 324,119 470,671" fill="none" stroke="rgb(233, 195, 220)" stroke-width="0.6588578140289987" /><line stroke="rgb(140, 55, 63)" stroke-width="1.6247725993219515" x1="540" x2="350" y1="536" y2="642" /><line stroke="rgb(83, 27, 107)" stroke-width="1.215696967140895" x1="402" x2="45" y1="190" y2="637" /><line stroke="rgb(221, 191, 224)" stroke-width="2.6483935936467677" x1="525" x2="273" y1="235" y2="597" /><line stroke="rgb(57, 206, 120)" stroke-width="2.9128686951852676" x1="285" x2="615" y1="9" y2="421" /><line stroke="rgb(129, 153, 240)" stroke-width="2.77619776658768" x1="175" x2="517" y1="152" y2="357" /><line stroke="rgb(204, 80, 94)" stroke-width="0.8296416849209655" x1="699" x2="161" y1="279" y2="670" /><rect fill="none" height="77" stroke="rgb(35, 177, 56)" stroke-width="1.1814965149446" transform="rotate(55 125 669)" width="55" x="382" y="153" /><line stroke="rgb(252, 231, 201)" stroke-width="1.511014737970145" x1="545" x2="370" y1="577" y2="701" /><line stroke="rgb(195, 213, 146)" stroke-width="1.2073025372199682" x1="7" x2="423" y1="259" y2="296" /><line stroke="rgb(86, 250, 164)" stroke-width="1.146392779642384" x1="447" x2="141" y1="290" y2="340" /><polygon fill="none" points="119,536 260,658 522,704" stroke="rgb(236, 22, 150)" stroke-width="1.5727448732219322" /><path d="M687,711 L67,725 Q510,165 528,399 C449,275 309,230 192,94 Q270,229 168,484 L200,606 C182,205 655,381 262,456 L449,170" fill="none" stroke="rgb(212, 50, 138)" stroke-width="1.2015925413871371" /><circle cx="362" cy="61" fill="none" opacity="0.6700008193415388" r="148" stroke="rgb(28, 57, 93)" stroke-width="0.765958122315341" /><polygon fill="none" points="435,528 426,325 547,291" stroke="rgb(231, 67, 53)" stroke-width="3.5334372486026933" /><path d="M142,539 Q523,113 162,652 C468,437 154,213 578,59 L307,328" fill="none" stroke="rgb(11, 172, 72)" stroke-width="0.9204493385642618" /><polygon fill="none" points="497,167 679,133 470,5 577,180 386,447" stroke="rgb(74, 111, 249)" stroke-width="2.3772627094154917" /><circle cx="251" cy="218" fill="none" opacity="0.7245916482144181" r="58" stroke="rgb(40, 10, 19)" stroke-width="4.685626960769958" /><path d="M26,258 Q290,169 716,232 C530,558 541,558 264,671 Q469,157 574,468 C228,52 173,200 352,268 L446,388 Q344,670 714,512 Q714,503 103,124" fill="none" stroke="rgb(212, 30, 18)" stroke-width="2.3457460429716126" /><line stroke="rgb(202, 213, 234)" stroke-width="1.6719611057713788" x1="215" x2="238" y1="532" y2="591" /><line stroke="rgb(76, 168, 188)" stroke-width="1.2363935658382617" x1="704" x2="15" y1="276" y2="38" /><line stroke="rgb(114, 137, 185)" stroke-width="1.7059762124396636" x1="10" x2="76" y1="119" y2="381" /><line stroke="rgb(228, 98, 44)" stroke-width="1.2460807004753929" x1="203" x2="183" y1="731" y2="477" /><line stroke="rgb(75, 185, 50)" stroke-width="2.5019148859640286" x1="285" x2="350" y1="48" y2="409" /><line stroke="rgb(83, 32, 51)" stroke-width="2.985336343943327" x1="43" x2="683" y1="323" y2="132" /><line stroke="rgb(34, 16, 86)" stroke-width="1.9153944328433261" x1="467" x2="94" y1="690" y2="239" /><line stroke="rgb(87, 77, 34)" stroke-width="2.8040764658565687" x1="250" x2="165" y1="231" y2="515" /><line stroke="rgb(35, 12, 182)" stroke-width="2.066025715686905" x1="592" x2="604" y1="484" y2="542" /></svg>