<svg baseProfile="full" height="510px" version="1.1" width="767px" xmlns="http://www.w3.org/2000/svg" xmlns:ev="http://www.w3.org/2001/xml-events" xmlns:xlink="http://www.w3.org/1999/xlink"><defs /><rect fill="rgb(201, 251, 227)" height="510px" width="767px" x="0" y="0" /><line stroke="rgb(152, 205, 17)" stroke-width="1.4089154682134557" x1="32" x2="656" y1="354" y2="371" /><line stroke="rgb(58, 249, 121)" stroke-width="1.845307352234928" x1="381" x2="602" y1="172" y2="408" /><line stroke="rgb(113, 94, 20)" stroke-width="1.8603725785116207" x1="220" x2="737" y1="30" y2="228" /><line stroke="rgb(74, 178, 214)" stroke-width="1.499766626086505" x1="702" x2="563" y1="494" y2="492" /><line stroke="rgb(11, 185, 117)" stroke-width="1.4076013353520436" x1="658" x2="489" y1="266" y2="154" /><line stroke="rgb(74, 6, 69)" stroke-width="2.69225396739894" x1="713" x2="536" y1="375" y2="459" /><line stroke="rgb(20, 174, 66)" stroke-width="1.2166362900773011" x1="395" x2="682" y1="420" y2="119" /><line stroke="rgb(212, 246, 166)" stroke-width="2.7771679305648" x1="390" x2="170" y1="230" y2="79" /><circle cx="582" cy="108" fill="none" opacity="0.5816562738903699" r="35" stroke="rgb(196, 200, 20)" stroke-width="1.6067026064719574" /><path d="M108,363 C40,122 586,249 561,258 Q486,291 414,189 L110,377 Q720,322 586,473" fill="none" stroke="rgb(170, 96, 173)" stroke-width="2.9146104577325596" /><circle cx="91" cy="354" fill="none" opacity="0.5125860847727187" r="71" stroke="rgb(15, 147, 157)" stroke-width="2.5537868466386735" /><rect fill="none" height="197" stroke="rgb(170, 80, 167)" stroke-width="1.655627102733548" transform="rotate(134 402 16)" width="157" x="41" y="353" /><circle cx="61" cy="366" fill="none" opacity="0.8803796986536085" r="22" stroke="rgb(72, 4, 91)" stroke-width="4.425577105422254" /><path d="M383,61 Q167,13 62,421 Q232,113 540,409 Q147,237 115,26 C735,386 181,83 343,293 C192,248 288,146 76,183 C740,487 600,402 6,128 L568,228" fill="none" stroke="rgb(101, 15, 123)" stroke-width="1.9495662266671991" /><rect fill="none" height="39" stroke="rgb(141, 142, 35)" stroke-width="3.3844660008302743" transform="rotate(197 542 135)" width="65" x="505" y="407" /><line stroke="rgb(8, 140, 26)" stroke-width="1.4441759414069752" x1="302" x2="665" y1="436" y2="21" /><line stroke="rgb(185, 206, 217)" stroke-width="2.197247705025713" x1="89" x2="138" y1="257" y2="46" /><line stroke="rgb(133, 183, 243)" stroke-width="2.117515753451948" x1="206" x2="417" y1="35" y2="245" /><line stroke="rgb(240, 56, 141)" stroke-width="0.5748756531080802" x1="734" x2="131" y1="292" y2="52" /><line stroke="rgb(29, 154, 132)" stroke-width="1.9873333892247476" x1="750" x2="542" y1="94" y2="304" /><line stroke="rgb(217, 159, 69)" stroke-width="1.118147039575104" x1="275" x2="639" y1="267" y2="228" /><line stroke="rgb(87, 141, 102)" stroke-width="2.5616698469797408" x1="216" x2="613" y1="279" y2="70" /><circle cx="443" cy="435" fill="none" opacity="0.8486843590408757" r="90" stroke="rgb(99, 17, 250)" stroke-width="3.9798520641857484" /><rect fill="none" height="180" stroke="rgb(126, 113, 110)" stroke-width="4.034577979037705" transform="rotate(349 582 402)" width="138" x="15" y="83" /><circle cx="128" cy="347" fill="none" opacity="0.9130634113284828" r="36" stroke="rgb(16, 145, 251)" stroke-width="3.4215971401917704" /><polygon fill="none" points="589,144 154,417 184,385 455,269 317,223 360,384" stroke="rgb(82, 235, 100)" stroke-width="3.7309443875193233" /><circle cx="636" cy="348" fill="none" opacity="0.6863741050410523" r="22" stroke="rgb(176, 147, 36)" stroke-width="0.8356952057757709" /><path d="M64,182 C556,313 63,214 525,397 C12,194 440,447 59,190 Q479,391 230,70 C54,293 126,473 130,234 C130,288 21,510 519,225" fill="none" stroke="rgb(190, 204, 19)" stroke-width="2.250733785064803" /><rect fill="none" height="114" stroke="rgb(46, 126, 47)" stroke-width="4.923217469735118" transform="rotate(296 273 317)" width="123" x="112" y="2" /><line stroke="rgb(98, 47, 11)" stroke-width="1.7719857818329683" x1="463" x2="620" y1="482" y2="284" /><line stroke="rgb(5, 125, 251)" stroke-width="2.5157342066740425" x1="522" x2="715" y1="284" y2="463" /><line stroke="rgb(17, 13, 221)" stroke-width="0.8744167341868687" x1="416" x2="285" y1="186" y2="102" /><line stroke="rgb(187, 29, 247)" stroke-width="2.7346446901201844" x1="198" x2="707" y1="312" y2="403" /><path d="M373,104 C110,103 173,73 297,9 Q411,277 326,56 Q542,258 741,84 C636,110 141,271 190,397 Q239,350 439,485 L64,43" fill="none" stroke="rgb(165, 206, 95)" stroke-width="2.2952969580025067" /><circle cx="344" cy="445" fill="none" opacity="0.8684525658109283" r="65" stroke="rgb(73, 14, 180)" stroke-width="0.8018346524428484" /><path d="M423,181 L617,324 C43,100 255,96 498,29 L223,280 Q758,47 220,231 C151,157 219,302 595,14 Q338,212 326,169 Q548,180 203,387" fill="none" stroke="rgb(255, 30, 127)" stroke-width="2.3702859269970857" /><path d="M84,394 C673,337 154,101 636,376 Q36,42 655,356 L683,254" fill="none" stroke="rgb(155, 238, 159)" stroke-width="1.0851670840562562" /><path d="M343,45 Q569,401 608,108 Q158,423 359,213 C767,454 61,281 613,211 L449,29 C40,453 662,265 345,82" fill="none" stroke="rgb(12, 36, 159)" stroke-width="2.671586210812805" /><line stroke="rgb(179, 244, 125)" stroke-width="1.3580830615336774" x1="74" x2="422" y1="12" y2="209" /><line stroke="rgb(141, 14, 86)" stroke-width="1.2413441470525608" x1="470" x2="454" y1="241" y2="43" /><line stroke="rgb(151, 128, 87)" stroke-width="2.0447040717642624" x1="219" x2="576" y1="434" y2="300" /><line stroke="rgb(254, 45, 46)" stroke-width="2.42385968010023" x1="357" x2="63" y1="24" y2="485" /><line stroke="rgb(14, 201, 220)" stroke-width="1.8558883902839425" x1="535" x2="645" y1="445" y2="239" /><circle cx="585" cy="460" fill="none" opacity="0.8805050294350008" r="77" stroke="rgb(247, 88, 196)" stroke-width="4.9110444088682765" /><path d="M509,195 L646,444 L711,197 L636,184 L202,314 C359,313 128,138 482,102" fill="none" stroke="rgb(39, 4, 143)" stroke-width="1.8401224248179424" /><polygon fill="none" points="432,106 588,492 648,82 557,227 59,287 77,502 54,200" stroke="rgb(185, 120, 74)" stroke-width="2.6590968904013694" /><rect fill="none" height="102" stroke="rgb(89, 177, 211)" stroke-width="1.5317206264585264" transform="rotate(14 741 71)" width="164" x="653" y="193" /></svg>