<svg baseProfile="full" height="504px" version="1.1" width="1154px" xmlns="http://www.w3.org/2000/svg" xmlns:ev="http://www.w3.org/2001/xml-events" xmlns:xlink="http://www.w3.org/1999/xlink"><defs /><rect fill="rgb(224, 237, 231)" height="504px" width="1154px" x="0" y="0" /><line stroke="rgb(72, 232, 141)" stroke-width="1.1794096028482044" x1="246" x2="1139" y1="302" y2="7" /><line stroke="rgb(84, 64, 232)" stroke-width="0.8373279708016765" x1="1051" x2="137" y1="443" y2="137" /><line stroke="rgb(35, 46, 2)" stroke-width="2.134047219565355" x1="998" x2="956" y1="18" y2="200" /><line stroke="rgb(14, 110, 203)" stroke-width="2.730825907199699" x1="840" x2="1125" y1="427" y2="358" /><line stroke="rgb(6, 145, 227)" stroke-width="1.92542274155638" x1="597" x2="734" y1="71" y2="68" /><line stroke="rgb(151, 3, 218)" stroke-width="0.9996773221634915" x1="180" x2="119" y1="176" y2="362" /><line stroke="rgb(195, 221, 254)" stroke-width="2.6126547970984024" x1="815" x2="417" y1="33" y2="131" /><line stroke="rgb(47, 246, 202)" stroke-width="2.114157256209296" x1="175" x2="19" y1="182" y2="157" /><line stroke="rgb(119, 40, 193)" stroke-width="2.728875168073418" x1="994" x2="675" y1="251" y2="140" /><polygon fill="none" points="317,200 56,126 174,298 222,71 629,83 491,117" stroke="rgb(79, 124, 131)" stroke-width="2.7747586572824368" /><path d="M441,193 L1152,282 Q269,184 1102,21 C411,313 880,200 826,198 L1083,344" fill="none" stroke="rgb(249, 224, 10)" stroke-width="1.5038162331101275" /><circle cx="126" cy="235" fill="none" opacity="0.9593469139951543" r="112" stroke="rgb(248, 227, 140)" stroke-width="1.624189277449056" /><polygon fill="none" points="629,355 857,430 214,383 933,292 0,346 46,286 279,96" stroke="rgb(63, 136, 150)" stroke-width="2.9440551847403684" /><rect fill="none" height="51" stroke="rgb(39, 113, 157)" stroke-width="3.9621908416327445" transform="rotate(240 52 296)" width="155" x="834" y="265" /><line stroke="rgb(204, 6, 176)" stroke-width="1.7052313602347455" x1="841" x2="45" y1="73" y2="492" /><line stroke="rgb(81, 20, 170)" stroke-width="2.8446076942748832" x1="886" x2="764" y1="161" y2="262" /><line stroke="rgb(221, 195, 101)" stroke-width="2.850875166686846" x1="186" x2="1058" y1="406" y2="53" /><line stroke="rgb(19, 165, 18)" stroke-width="1.3622372707360293" x1="123" x2="991" y1="53" y2="300" /><line stroke="rgb(250, 50, 25)" stroke-width="2.7144850587639424" x1="739" x2="681" y1="332" y2="86" /><line stroke="rgb(116, 83, 211)" stroke-width="2.979806015430728" x1="1039" x2="158" y1="493" y2="491" /><line stroke="rgb(78, 5, 11)" stroke-width="2.2680610615186034" x1="1093" x2="33" y1="499" y2="454" /><line stroke="rgb(227, 88, 83)" stroke-width="2.7269639156932013" x1="452" x2="1038" y1="14" y2="364" /><circle cx="975" cy="282" fill="none" opacity="0.506181564994705" r="124" stroke="rgb(210, 51, 163)" stroke-width="3.5804086827494355" /><rect fill="none" height="167" stroke="rgb(137, 105, 30)" stroke-width="1.3361185763365149" transform="rotate(26 1124 173)" width="192" x="105" y="83" /><line stroke="rgb(250, 230, 76)" stroke-width="1.581553492716232" x1="51" x2="323" y1="46" y2="229" /><line stroke="rgb(143, 79, 243)" stroke-width="0.7095860570798325" x1="425" x2="706" y1="70" y2="197" /><line stroke="rgb(69, 249, 78)" stroke-width="0.5283427370761119" x1="31" x2="105" y1="448" y2="439" /><line stroke="rgb(178, 250, 235)" stroke-width="2.2997561785889054" x1="1132" x2="451" y1="455" y2="439" /><line stroke="rgb(252, 226, 24)" stroke-width="2.2889936989971433" x1="744" x2="112" y1="329" y2="109" /><rect fill="none" height="72" stroke="rgb(19, 162, 76)" stroke-width="0.6878502585933544" transform="rotate(360 97 314)" width="64" x="796" y="385" /><circle cx="720" cy="378" fill="none" opacity="0.7933523536450402" r="62" stroke="rgb(203, 13, 159)" stroke-width="0.6472907185120256" /><circle cx="766" cy="52" fill="none" opacity="0.6812340158359527" r="43" stroke="rgb(173, 158, 100)" stroke-width="4.6721339226324865" /><line stroke="rgb(73, 170, 219)" stroke-width="1.686221332968792" x1="804" x2="923" y1="444" y2="189" /><line stroke="rgb(220, 243, 64)" stroke-width="0.6824189689667612" x1="528" x2="95" y1="366" y2="430" /><line stroke="rgb(111, 235, 168)" stroke-width="1.5872583145668946" x1="133" x2="148" y1="194" y2="116" /><line stroke="rgb(136, 149, 129)" stroke-width="2.721766466506846" x1="1058" x2="619" y1="215" y2="405" /><line stroke="rgb(62, 124, 106)" stroke-width="1.8625112896652771" x1="132" x2="38" y1="73" y2="48" /><line stroke="rgb(73, 41, 121)" stroke-width="2.178022043512335" x1="60" x2="239" y1="142" y2="209" /><line stroke="rgb(144, 74, 190)" stroke-width="2.9692863188062995" x1="341" x2="34" y1="152" y2="357" /><line stroke="rgb(50, 234, 49)" stroke-width="0.9024044599726349" x1="308" x2="318" y1="294" y2="429" /><line stroke="rgb(156, 207, 151)" stroke-width="1.920122915458439" x1="214" x2="244" y1="406" y2="98" /><polygon fill="none" points="1102,447 569,398 1060,396 1100,136 401,326 919,56 26,117 922,85" stroke="rgb(226, 222, 139)" stroke-width="3.651441210062802" /><path d="M804,176 L238,438 C324,24 471,383 788,436 L422,123 L547,74" fill="none" stroke="rgb(182, 74, 24)" stroke-width="0.7177016283237382" /><path d="M860,493 Q391,37 276,412 Q224,124 690,397 L191,371" fill="none" stroke="rgb(88, 181, 56)" stroke-width="0.8602301834572091" /><line stroke="rgb(88, 145, 202)" stroke-width="0.8690628664186696" x1="613" x2="274" y1="467" y2="199" /><line stroke="rgb(72, 72, 42)" stroke-width="1.0215698636941042" x1="1135" x2="916" y1="477" y2="421" /><line stroke="rgb(136, 126, 202)" stroke-width="0.751812235941872" x1="816" x2="986" y1="462" y2="236" /><line stroke="rgb(172, 224, 242)" stroke-width="0.7333064672716972" x1="336" x2="1146" y1="399" y2="168" /><path d="M776,401 L150,20 Q816,78 222,304 Q346,42 713,311" fill="none" stroke="rgb(234, 238, 77)" stroke-width="2.86610735441352" /><path d="M221,245 C391,372 911,10 923,159 C602,325 591,98 424,393 C114,73 1058,200 808,173 Q793,66 634,400 Q973,497 755,293" fill="none" stroke="rgb(107, 108, 190)" stroke-width="2.6101821483035232" /><rect fill="none" height="78" stroke="rgb(8, 182, 83)" stroke-width="3.336472151420359" transform="rotate(75 177 453)" width="23" x="1034" y="81" /><polygon fill="none" points="372,109 870,201 1068,197 3,425 896,387 179,240" stroke="rgb(135, 36, 154)" stroke-width="0.7269556668927966" /><line stroke="rgb(186, 44, 32)" stroke-width="2.8112758691485973" x1="434" x2="829" y1="501" y2="302" /><line stroke="rgb(46, 92, 195)" stroke-width="2.5148105331949298" x1="1078" x2="432" y1="291" y2="181" /><line stroke="rgb(231, 8, 39)" stroke-width="1.2645067850384215" x1="449" x2="284" y1="304" y2="37" /><line stroke="rgb(85, 240, 63)" stroke-width="1.8792827710279072" x1="160" x2="810" y1="10" y2="138" /><line stroke="rgb(94, 114, 168)" stroke-width="2.9193838553970095" x1="12" x2="42" y1="402" y2="151" /><line stroke="rgb(163, 113, 101)" stroke-width="0.8549408943660413" x1="169" x2="1060" y1="99" y2="197" /><line stroke="rgb(152, 236, 217)" stroke-width="2.5793227998280224" x1="197" x2="891" y1="263" y2="257" /><circle cx="415" cy="106" fill="none" opacity="0.3135599289426481" r="79" stroke="rgb(199, 61, 187)" stroke-width="0.6079674332753741" /><circle cx="1058" cy="406" fill="none" opacity="0.9442689530884893" r="45" stroke="rgb(119, 108, 136)" stroke-width="1.435513753594751" /><circle cx="724" cy="120" fill="none" opacity="0.763880798573875" r="21" stroke="rgb(199, 136, 54)" stroke-width="1.0516395539799404" /><rect fill="none" height="166" stroke="rgb(73, 36, 137)" stroke-width="3.2325348709253663" transform="rotate(256 35 210)" width="81" x="26" y="205" /><rect fill="none" height="127" stroke="rgb(193, 195, 36)" stroke-width="1.7081436532961611" transform="rotate(341 901 196)" width="84" x="838" y="391" /><circle cx="277" cy="109" fill="none" opacity="0.6719342057443036" r="55" stroke="rgb(24, 31, 149)" stroke-width="2.1562653204596662" /><line stroke="rgb(175, 212, 163)" stroke-width="1.7438403882689297" x1="39" x2="1122" y1="389" y2="52" /><line stroke="rgb(159, 6, 102)" stroke-width="2.4522634359726236" x1="379" x2="87" y1="68" y2="465" /><line stroke="rgb(170, 131, 141)" stroke-width="1.7963453697646403" x1="277" x2="797" y1="122" y2="295" /><rect fill="none" height="29" stroke="rgb(207, 33, 174)" stroke-width="1.9853668228815775" transform="rotate(323 677 378)" width="131" x="385" y="297" /><rect fill="none" height="193" stroke="rgb(88, 162, 123)" stroke-width="2.87312198119524" transform="rotate(175 951 373)" width="199" x="624" y="146" /><circle cx="496" cy="300" fill="none" opacity="0.7059267081370125" r="29" stroke="rgb(154, 162, 159)" stroke-width="4.41694245166155" /><polygon fill="none" points="230,54 244,486 1060,60 802,419 1127,97" stroke="rgb(23, 207, 49)" stroke-width="2.2807030768628804" /><line stroke="rgb(214, 178, 5)" stroke-width="1.0545257740303622" x1="628" x2="1123" y1="223" y2="64" /><line stroke="rgb(160, 201, 5)" stroke-width="2.6975451009974303" x1="609" x2="415" y1="241" y2="46" /><line stroke="rgb(156, 208, 38)" stroke-width="0.9564538169526133" x1="742" x2="28" y1="395" y2="408" /><path d="M609,89 Q1062,78 144,442 Q992,139 983,402 Q539,140 830,405 Q803,243 978,55 C47,409 191,323 456,125" fill="none" stroke="rgb(109, 40, 106)" stroke-width="1.967169873426809" /><rect fill="none" height="197" stroke="rgb(55, 133, 133)" stroke-width="0.6583038053198741" transform="rotate(60 952 249)" width="25" x="122" y="284" /><circle cx="496" cy="334" fill="none" opacity="0.8964228633100397" r="40" stroke="rgb(99, 105, 96)" stroke-width="3.358178150662277" /><circle cx="508" cy="371" fill="none" opacity="0.8254568528448534" r="40" stroke="rgb(238, 5, 243)" stroke-width="2.1151962197817387" /><line stroke="rgb(241, 20, 22)" stroke-width="1.635003230151212" x1="357" x2="22" y1="422" y2="232" /><line stroke="rgb(23, 65, 255)" stroke-width="1.9836007175227932" x1="485" x2="599" y1="156" y2="52" /><line stroke="rgb(251, 230, 150)" stroke-width="0.7972417422635476" x1="1083" x2="140" y1="316" y2="213" /><line stroke="rgb(247, 117, 221)" stroke-width="2.1748734101811524" x1="496" x2="489" y1="151" y2="84" /><line stroke="rgb(204, 149, 13)" stroke-width="1.4702140938218191" x1="475" x2="145" y1="315" y2="167" /><line stroke="rgb(43, 174, 91)" stroke-width="0.6802824856391263" x1="136" x2="720" y1="23" y2="479" /><line stroke="rgb(185, 85, 14)" stroke-width="2.698639198071668" x1="366" x2="107" y1="404" y2="435" /><line stroke="rgb(144, 23, 255)" stroke-width="2.0802230202770673" x1="912" x2="103" y1="381" y2="393" /><polygon fill="none" points="1135,67 740,92 220,230 706,380 684,222" stroke="rgb(65, 150, 149)" stroke-width="0.8472296856181631" /><circle cx="402" cy="152" fill="none" opacity="0.7509191128196475" r="80" stroke="rgb(241, 5, 194)" stroke-width="2.4349602771154415" /><polygon fill="none" points="871,37 21,256 1058,299 372,259 781,156" stroke="rgb(168, 191, 11)" stroke-width="0.5430886556878822" /></svg>