<svg baseProfile="full" height="486px" version="1.1" width="952px" xmlns="http://www.w3.org/2000/svg" xmlns:ev="http://www.w3.org/2001/xml-events" xmlns:xlink="http://www.w3.org/1999/xlink"><defs /><rect fill="rgb(249, 234, 220)" height="486px" width="952px" x="0" y="0" /><path d="M613,76 L19,295 L608,57 C574,460 853,184 74,482 C313,104 560,459 289,480 C738,236 510,442 716,245" fill="none" stroke="rgb(102, 204, 102)" stroke-width="2.164857906282495" /><circle cx="160" cy="368" fill="none" opacity="0.9412384866326429" r="83" stroke="rgb(227, 106, 114)" stroke-width="1.5877395498458557" /><rect fill="none" height="46" stroke="rgb(245, 175, 36)" stroke-width="3.5394025539501826" transform="rotate(144 389 287)" width="52" x="47" y="385" /><line stroke="rgb(196, 0, 226)" stroke-width="1.2807667279063093" x1="428" x2="512" y1="14" y2="203" /><line stroke="rgb(56, 57, 59)" stroke-width="2.488473707867188" x1="637" x2="479" y1="264" y2="8" /><line stroke="rgb(142, 216, 31)" stroke-width="1.2376527312295902" x1="881" x2="833" y1="62" y2="37" /><line stroke="rgb(93, 139, 14)" stroke-width="2.992404396629219" x1="614" x2="638" y1="187" y2="250" /><line stroke="rgb(171, 50, 184)" stroke-width="0.5475176662171056" x1="427" x2="411" y1="114" y2="24" /><line stroke="rgb(41, 185, 223)" stroke-width="1.0831098231154763" x1="706" x2="913" y1="369" y2="284" /><line stroke="rgb(74, 161, 183)" stroke-width="2.949348782550107" x1="160" x2="59" y1="128" y2="128" /><rect fill="none" height="162" stroke="rgb(181, 186, 63)" stroke-width="4.596909004711503" transform="rotate(280 597 427)" width="190" x="371" y="130" /><line stroke="rgb(248, 217, 107)" stroke-width="2.5434350599831563" x1="437" x2="231" y1="479" y2="25" /><line stroke="rgb(111, 177, 114)" stroke-width="1.9968046405032065" x1="18" x2="372" y1="286" y2="411" /><line stroke="rgb(11, 109, 225)" stroke-width="2.9884328688300656" x1="131" x2="170" y1="183" y2="255" /><line stroke="rgb(199, 176, 32)" stroke-width="1.2861835701046975" x1="554" x2="331" y1="381" y2="295" /><line stroke="rgb(191, 113, 92)" stroke-width="2.367027766094872" x1="211" x2="690" y1="222" y2="149" /><line stroke="rgb(208, 51, 186)" stroke-width="1.8785617491729087" x1="488" x2="378" y1="41" y2="218" /><line stroke="rgb(107, 136, 187)" stroke-width="1.2516857230483658" x1="493" x2="124" y1="310" y2="18" /><line stroke="rgb(60, 69, 73)" stroke-width="0.9758309895955193" x1="914" x2="585" y1="342" y2="5" /><circle cx="505" cy="254" fill="none" opacity="0.7024808770951021" r="42" stroke="rgb(87, 36, 140)" stroke-width="3.823086206088871" /><circle cx="296" cy="335" fill="none" opacity="0.9888739094676562" r="85" stroke="rgb(133, 73, 170)" stroke-width="1.0670904869059017" /><polygon fill="none" points="28,378 169,478 796,145 78,8" stroke="rgb(127, 139, 242)" stroke-width="3.443907964368843" /><line stroke="rgb(0, 145, 169)" stroke-width="0.646166689103463" x1="294" x2="198" y1="314" y2="368" /><line stroke="rgb(101, 131, 253)" stroke-width="0.5704639645736607" x1="224" x2="534" y1="310" y2="480" /><line stroke="rgb(49, 248, 172)" stroke-width="2.8486899747609806" x1="851" x2="745" y1="347" y2="296" /><line stroke="rgb(231, 166, 63)" stroke-width="2.0463390477592025" x1="66" x2="493" y1="239" y2="229" /><line stroke="rgb(13, 240, 203)" stroke-width="2.5942242164493283" x1="582" x2="87" y1="403" y2="296" /><line stroke="rgb(45, 114, 42)" stroke-width="1.708864733925511" x1="563" x2="189" y1="303" y2="436" /><line stroke="rgb(127, 68, 117)" stroke-width="1.6447081166157578" x1="45" x2="851" y1="203" y2="198" /><line stroke="rgb(111, 124, 186)" stroke-width="2.074757609748248" x1="450" x2="416" y1="178" y2="373" /><line stroke="rgb(50, 236, 122)" stroke-width="2.5486662183449544" x1="406" x2="523" y1="126" y2="299" /><line stroke="rgb(118, 139, 204)" stroke-width="2.0290542101534665" x1="504" x2="137" y1="220" y2="84" /><rect fill="none" height="79" stroke="rgb(241, 102, 72)" stroke-width="2.5765175256160324" transform="rotate(17 930 47)" width="155" x="415" y="137" /><line stroke="rgb(68, 141, 198)" stroke-width="2.785648709725358" x1="171" x2="631" y1="91" y2="70" /><line stroke="rgb(229, 46, 33)" stroke-width="1.6144841467157227" x1="348" x2="58" y1="1" y2="475" /><line stroke="rgb(7, 108, 228)" stroke-width="2.245268193577007" x1="463" x2="506" y1="135" y2="118" /><line stroke="rgb(141, 224, 146)" stroke-width="1.62194249284429" x1="47" x2="318" y1="243" y2="25" /><circle cx="766" cy="147" fill="none" opacity="0.6039582208965065" r="109" stroke="rgb(75, 160, 129)" stroke-width="4.19590339911504" /><path d="M611,207 L684,169 Q131,130 487,179 C498,184 740,42 565,311 Q250,205 569,466" fill="none" stroke="rgb(22, 162, 163)" stroke-width="2.0707309012335857" /><rect fill="none" height="53" stroke="rgb(131, 147, 27)" stroke-width="0.5689905201946407" transform="rotate(300 46 319)" width="90" x="121" y="12" /><path d="M549,288 C607,57 213,308 104,228 C54,430 292,260 331,161 L302,306" fill="none" stroke="rgb(122, 25, 209)" stroke-width="1.1495669159599142" /><line stroke="rgb(70, 22, 133)" stroke-width="2.4473076483801504" x1="473" x2="394" y1="484" y2="121" /><line stroke="rgb(187, 55, 44)" stroke-width="1.6353333465376223" x1="656" x2="914" y1="175" y2="33" /><line stroke="rgb(69, 49, 124)" stroke-width="1.3761001822279944" x1="269" x2="677" y1="16" y2="5" /><line stroke="rgb(27, 108, 239)" stroke-width="2.9395694489480895" x1="707" x2="299" y1="91" y2="470" /><polygon fill="none" points="72,348 647,182 879,278 9,295" stroke="rgb(108, 38, 151)" stroke-width="3.6115969637025653" /><line stroke="rgb(83, 214, 28)" stroke-width="0.7509867440119016" x1="395" x2="436" y1="125" y2="175" /><line stroke="rgb(115, 136, 51)" stroke-width="0.7046633089240211" x1="522" x2="304" y1="282" y2="72" /><line stroke="rgb(125, 233, 77)" stroke-width="0.5731665157931116" x1="90" x2="640" y1="473" y2="126" /><line stroke="rgb(29, 217, 197)" stroke-width="1.6737770917063277" x1="420" x2="243" y1="37" y2="414" /><circle cx="644" cy="375" fill="none" opacity="0.9005377355559145" r="80" stroke="rgb(245, 24, 150)" stroke-width="3.2622588183925836" /><polygon fill="none" points="178,139 469,67 859,241 334,244 381,278" stroke="rgb(121, 66, 222)" stroke-width="1.3211467457212123" /><circle cx="178" cy="270" fill="none" opacity="0.8741087033461679" r="103" stroke="rgb(141, 208, 85)" stroke-width="2.898954326845416" /><rect fill="none" height="142" stroke="rgb(243, 42, 67)" stroke-width="0.9379452102499628" transform="rotate(270 873 281)" width="79" x="306" y="56" /><circle cx="821" cy="99" fill="none" opacity="0.8831073950913351" r="116" stroke="rgb(133, 6, 234)" stroke-width="3.106823190596352" /><rect fill="none" height="108" stroke="rgb(180, 153, 20)" stroke-width="1.525943998589491" transform="rotate(62 314 46)" width="124" x="92" y="21" /><circle cx="194" cy="392" fill="none" opacity="0.6959839173845633" r="41" stroke="rgb(138, 135, 76)" stroke-width="0.6927834937322159" /><path d="M255,167 Q349,153 694,286 L175,172 Q219,50 44,370 C155,161 353,399 916,187 Q649,410 784,176" fill="none" stroke="rgb(7, 218, 41)" stroke-width="1.6102711033564496" /><line stroke="rgb(111, 199, 247)" stroke-width="2.8629487223085945" x1="849" x2="108" y1="332" y2="95" /><line stroke="rgb(241, 63, 7)" stroke-width="2.1612410787824032" x1="228" x2="239" y1="107" y2="24" /><line stroke="rgb(146, 201, 1)" stroke-width="1.0897076794144076" x1="879" x2="83" y1="340" y2="372" /><line stroke="rgb(157, 207, 192)" stroke-width="1.292794538141655" x1="511" x2="500" y1="255" y2="423" /><line stroke="rgb(58, 90, 123)" stroke-width="2.0496852585817478" x1="888" x2="895" y1="418" y2="348" /><line stroke="rgb(219, 169, 99)" stroke-width="2.480103810627933" x1="316" x2="700" y1="334" y2="349" /><line stroke="rgb(60, 245, 169)" stroke-width="1.6385690953047354" x1="489" x2="526" y1="411" y2="300" /><line stroke="rgb(185, 179, 128)" stroke-width="1.9601779199215745" x1="1" x2="629" y1="65" y2="122" /><polygon fill="none" points="680,90 758,454 481,141" stroke="rgb(174, 215, 20)" stroke-width="2.476950119943223" /><rect fill="none" height="157" stroke="rgb(29, 143, 84)" stroke-width="2.9030803375350436" transform="rotate(208 337 382)" width="62" x="567" y="362" /></svg>