<svg baseProfile="full" height="686px" version="1.1" width="1186px" xmlns="http://www.w3.org/2000/svg" xmlns:ev="http://www.w3.org/2001/xml-events" xmlns:xlink="http://www.w3.org/1999/xlink"><defs /><rect fill="rgb(247, 255, 253)" height="686px" width="1186px" x="0" y="0" /><line stroke="rgb(115, 183, 238)" stroke-width="1.7499180712621951" x1="1164" x2="691" y1="243" y2="467" /><line stroke="rgb(141, 232, 212)" stroke-width="1.4592717446715073" x1="669" x2="568" y1="399" y2="667" /><line stroke="rgb(161, 76, 92)" stroke-width="2.586640395520098" x1="145" x2="119" y1="155" y2="257" /><line stroke="rgb(126, 202, 1)" stroke-width="0.6886570006041538" x1="679" x2="883" y1="154" y2="90" /><line stroke="rgb(88, 138, 31)" stroke-width="2.8056151877100897" x1="326" x2="106" y1="90" y2="269" /><line stroke="rgb(144, 144, 200)" stroke-width="1.7797388852181655" x1="860" x2="904" y1="404" y2="418" /><line stroke="rgb(137, 121, 37)" stroke-width="2.9028804082921638" x1="1161" x2="705" y1="265" y2="190" /><line stroke="rgb(145, 250, 70)" stroke-width="0.9772767368311154" x1="556" x2="223" y1="41" y2="518" /><line stroke="rgb(234, 247, 190)" stroke-width="1.9671028878925791" x1="442" x2="660" y1="628" y2="410" /><line stroke="rgb(150, 29, 147)" stroke-width="2.877293209090801" x1="125" x2="1131" y1="662" y2="189" /><polygon fill="none" points="888,492 808,116 1097,54" stroke="rgb(65, 162, 200)" stroke-width="2.8456788962895536" /><rect fill="none" height="153" stroke="rgb(179, 228, 24)" stroke-width="2.5779047289837655" transform="rotate(191 598 8)" width="177" x="49" y="131" /><polygon fill="none" points="667,45 294,68 886,154 975,377 258,537 1073,64" stroke="rgb(124, 145, 249)" stroke-width="1.173674038104429" /><rect fill="none" height="184" stroke="rgb(215, 155, 52)" stroke-width="3.0524534029300305" transform="rotate(328 438 639)" width="24" x="770" y="236" /><circle cx="1011" cy="147" fill="none" opacity="0.5400476560633121" r="33" stroke="rgb(126, 117, 222)" stroke-width="0.6746365156608582" /><rect fill="none" height="129" stroke="rgb(89, 159, 139)" stroke-width="1.9947860224214884" transform="rotate(81 738 473)" width="35" x="531" y="547" /><polygon fill="none" points="177,128 931,409 416,633 767,164" stroke="rgb(195, 66, 11)" stroke-width="2.434036821678629" /><rect fill="none" height="142" stroke="rgb(132, 132, 59)" stroke-width="0.7407459836163138" transform="rotate(233 93 459)" width="165" x="688" y="223" /><polygon fill="none" points="489,421 922,506 837,305 864,187 393,338 975,358" stroke="rgb(52, 28, 43)" stroke-width="1.722713392849947" /><rect fill="none" height="46" stroke="rgb(222, 195, 248)" stroke-width="3.7433529516362007" transform="rotate(69 989 281)" width="50" x="760" y="21" /><circle cx="433" cy="283" fill="none" opacity="0.35653500937006694" r="66" stroke="rgb(145, 108, 169)" stroke-width="0.6897715155492743" /><circle cx="718" cy="383" fill="none" opacity="0.5579439551735954" r="143" stroke="rgb(44, 22, 182)" stroke-width="3.403819643224854" /><line stroke="rgb(181, 110, 223)" stroke-width="1.9764583207516235" x1="470" x2="637" y1="104" y2="351" /><line stroke="rgb(164, 140, 101)" stroke-width="0.708373510833661" x1="931" x2="204" y1="251" y2="291" /><line stroke="rgb(40, 240, 66)" stroke-width="2.8044440152730563" x1="981" x2="77" y1="603" y2="310" /><line stroke="rgb(186, 51, 169)" stroke-width="1.7417031795102176" x1="3" x2="77" y1="596" y2="620" /><line stroke="rgb(157, 27, 7)" stroke-width="1.0890213205079389" x1="702" x2="452" y1="588" y2="187" /><line stroke="rgb(203, 63, 153)" stroke-width="1.533421989270265" x1="988" x2="382" y1="660" y2="18" /><line stroke="rgb(164, 31, 4)" stroke-width="1.655350971266601" x1="133" x2="45" y1="345" y2="673" /><polygon fill="none" points="288,142 476,438 905,343 132,546 46,330" stroke="rgb(92, 113, 29)" stroke-width="2.6483341318780695" /><path d="M1005,345 L361,116 C501,496 582,551 155,424 L901,491 Q32,387 500,592" fill="none" stroke="rgb(130, 208, 152)" stroke-width="0.8625737893958993" /><circle cx="312" cy="622" fill="none" opacity="0.7910505404633179" r="168" stroke="rgb(79, 25, 68)" stroke-width="2.954816167103124" /><path d="M863,419 Q791,308 889,600 Q1096,17 674,13 C478,478 236,62 1108,38 Q898,73 963,638 C390,652 1111,414 106,119 L238,139" fill="none" stroke="rgb(38, 98, 235)" stroke-width="1.9495888657987193" /></svg>