<svg baseProfile="full" height="569px" version="1.1" width="1002px" xmlns="http://www.w3.org/2000/svg" xmlns:ev="http://www.w3.org/2001/xml-events" xmlns:xlink="http://www.w3.org/1999/xlink"><defs /><rect fill="rgb(201, 209, 246)" height="569px" width="1002px" x="0" y="0" /><line stroke="rgb(163, 85, 221)" stroke-width="2.9830655502509895" x1="697" x2="579" y1="53" y2="194" /><line stroke="rgb(177, 75, 32)" stroke-width="1.7405124234599505" x1="156" x2="838" y1="431" y2="471" /><line stroke="rgb(207, 237, 252)" stroke-width="2.6121666268195733" x1="449" x2="336" y1="338" y2="255" /><line stroke="rgb(236, 109, 171)" stroke-width="1.3295181967110274" x1="382" x2="525" y1="465" y2="362" /><line stroke="rgb(223, 165, 50)" stroke-width="0.8648581231230424" x1="143" x2="467" y1="40" y2="246" /><line stroke="rgb(233, 50, 130)" stroke-width="2.0040369229191306" x1="503" x2="756" y1="141" y2="556" /><line stroke="rgb(131, 22, 212)" stroke-width="0.8488319720532834" x1="407" x2="122" y1="414" y2="453" /><line stroke="rgb(103, 253, 175)" stroke-width="0.7041577869167697" x1="284" x2="148" y1="241" y2="90" /><line stroke="rgb(51, 147, 175)" stroke-width="1.7982318347659536" x1="616" x2="514" y1="46" y2="530" /><polygon fill="none" points="821,311 773,387 231,144 822,105" stroke="rgb(109, 141, 157)" stroke-width="2.8293071925512274" /><circle cx="164" cy="427" fill="none" opacity="0.9282292798560521" r="42" stroke="rgb(159, 177, 80)" stroke-width="3.0416345745366304" /><polygon fill="none" points="933,155 175,273 994,318 202,118" stroke="rgb(164, 55, 175)" stroke-width="1.066918013526669" /><path d="M502,374 L795,25 Q56,254 835,440 C382,70 587,100 408,351" fill="none" stroke="rgb(170, 212, 242)" stroke-width="2.9418601270124127" /><polygon fill="none" points="428,227 927,180 154,370 692,488 347,368 833,325 0,20" stroke="rgb(97, 54, 15)" stroke-width="1.1877773806294343" /><path d="M692,483 L738,409 Q715,86 356,217 L475,421 L852,483 L853,3 Q556,95 747,404" fill="none" stroke="rgb(29, 30, 163)" stroke-width="1.8256898139826234" /><line stroke="rgb(161, 92, 150)" stroke-width="2.829590155021738" x1="246" x2="910" y1="511" y2="545" /><line stroke="rgb(205, 230, 56)" stroke-width="1.016180373026291" x1="301" x2="359" y1="523" y2="428" /><line stroke="rgb(223, 208, 198)" stroke-width="2.1641438129056456" x1="523" x2="286" y1="310" y2="286" /><line stroke="rgb(111, 221, 253)" stroke-width="1.5410949201692254" x1="376" x2="232" y1="425" y2="275" /><line stroke="rgb(54, 235, 196)" stroke-width="1.2846060542098887" x1="826" x2="670" y1="255" y2="296" /><line stroke="rgb(120, 5, 223)" stroke-width="1.4914910708925848" x1="599" x2="711" y1="367" y2="285" /><line stroke="rgb(49, 230, 50)" stroke-width="1.8811205006497378" x1="20" x2="173" y1="539" y2="0" /><line stroke="rgb(47, 160, 3)" stroke-width="1.856625896800682" x1="817" x2="321" y1="416" y2="434" /><line stroke="rgb(121, 157, 127)" stroke-width="2.3448925251815167" x1="890" x2="531" y1="523" y2="161" /><circle cx="121" cy="436" fill="none" opacity="0.7643519359031261" r="31" stroke="rgb(233, 188, 241)" stroke-width="2.78469616556313" /><line stroke="rgb(168, 253, 43)" stroke-width="2.1782699659387874" x1="939" x2="290" y1="565" y2="485" /><line stroke="rgb(177, 104, 195)" stroke-width="2.0655955914470194" x1="562" x2="155" y1="373" y2="399" /><line stroke="rgb(166, 49, 29)" stroke-width="0.7457607904501835" x1="230" x2="755" y1="337" y2="553" /><line stroke="rgb(218, 143, 246)" stroke-width="1.6159680314791318" x1="100" x2="494" y1="374" y2="31" /><line stroke="rgb(67, 12, 182)" stroke-width="1.5308535473009077" x1="784" x2="20" y1="169" y2="539" /><line stroke="rgb(247, 168, 247)" stroke-width="1.0061791917977478" x1="853" x2="393" y1="263" y2="172" /><line stroke="rgb(135, 250, 32)" stroke-width="1.5489899704142738" x1="389" x2="950" y1="279" y2="292" /><line stroke="rgb(195, 167, 216)" stroke-width="2.5216627120776662" x1="225" x2="388" y1="440" y2="554" /><line stroke="rgb(228, 235, 4)" stroke-width="0.559363571824736" x1="568" x2="890" y1="133" y2="14" /><circle cx="587" cy="446" fill="none" opacity="0.5255860411329444" r="111" stroke="rgb(245, 150, 66)" stroke-width="3.0065360438659328" /><line stroke="rgb(42, 26, 170)" stroke-width="1.9113054789738824" x1="475" x2="241" y1="226" y2="175" /><line stroke="rgb(127, 3, 204)" stroke-width="0.6969424850790857" x1="649" x2="98" y1="203" y2="184" /><line stroke="rgb(161, 93, 240)" stroke-width="0.8618498049186805" x1="743" x2="500" y1="497" y2="316" /><line stroke="rgb(131, 121, 141)" stroke-width="2.110999193200865" x1="52" x2="980" y1="234" y2="502" /><line stroke="rgb(126, 44, 111)" stroke-width="1.7422015979383207" x1="156" x2="838" y1="82" y2="280" /><line stroke="rgb(168, 55, 7)" stroke-width="2.177120987365069" x1="832" x2="859" y1="421" y2="507" /><line stroke="rgb(0, 130, 120)" stroke-width="1.323920890571352" x1="874" x2="569" y1="246" y2="328" /><line stroke="rgb(166, 154, 238)" stroke-width="1.5302022539168045" x1="776" x2="903" y1="548" y2="356" /><circle cx="796" cy="158" fill="none" opacity="0.4060359502931108" r="138" stroke="rgb(62, 140, 127)" stroke-width="3.752373183502784" /><line stroke="rgb(228, 191, 45)" stroke-width="1.0884051877673944" x1="607" x2="161" y1="122" y2="540" /><line stroke="rgb(20, 7, 225)" stroke-width="1.9946941154825182" x1="516" x2="288" y1="491" y2="353" /><line stroke="rgb(183, 28, 72)" stroke-width="2.917327398325923" x1="576" x2="629" y1="222" y2="231" /><line stroke="rgb(87, 164, 73)" stroke-width="2.237298952756638" x1="747" x2="748" y1="482" y2="19" /><line stroke="rgb(80, 172, 171)" stroke-width="1.3647156202353878" x1="75" x2="957" y1="567" y2="511" /><line stroke="rgb(130, 132, 12)" stroke-width="1.312626481682437" x1="808" x2="705" y1="340" y2="393" /><line stroke="rgb(122, 77, 7)" stroke-width="2.1627494169806596" x1="32" x2="198" y1="193" y2="90" /><circle cx="144" cy="492" fill="none" opacity="0.31912720758844976" r="65" stroke="rgb(215, 142, 125)" stroke-width="1.987893520000137" /><circle cx="523" cy="146" fill="none" opacity="0.36021331166389087" r="49" stroke="rgb(213, 246, 98)" stroke-width="2.7089120721382214" /><path d="M901,46 Q855,105 542,464 C448,507 560,387 607,341 C326,545 200,258 282,169 C775,534 713,524 707,21" fill="none" stroke="rgb(182, 186, 157)" stroke-width="1.5430154765262878" /><path d="M645,453 L133,138 L232,405 Q598,117 607,493 L921,233 L358,213" fill="none" stroke="rgb(156, 19, 121)" stroke-width="1.5428265338708247" /><polygon fill="none" points="954,514 41,1 186,410 300,188 954,312" stroke="rgb(174, 51, 207)" stroke-width="1.427106466091703" /><rect fill="none" height="193" stroke="rgb(152, 182, 205)" stroke-width="2.651059438301459" transform="rotate(24 73 401)" width="129" x="631" y="298" /><line stroke="rgb(25, 217, 116)" stroke-width="1.8619175296078543" x1="528" x2="239" y1="123" y2="412" /><line stroke="rgb(18, 45, 75)" stroke-width="1.6608841858627783" x1="89" x2="647" y1="478" y2="453" /><line stroke="rgb(125, 62, 173)" stroke-width="1.6543146533826343" x1="215" x2="277" y1="474" y2="555" /><line stroke="rgb(244, 247, 239)" stroke-width="2.1071889385259963" x1="942" x2="63" y1="492" y2="435" /><line stroke="rgb(95, 115, 104)" stroke-width="1.0285285619242788" x1="938" x2="641" y1="436" y2="207" /><line stroke="rgb(76, 6, 36)" stroke-width="2.7377935348099283" x1="2" x2="644" y1="164" y2="278" /><rect fill="none" height="115" stroke="rgb(84, 45, 27)" stroke-width="0.8571734416955014" transform="rotate(284 638 518)" width="99" x="671" y="253" /><circle cx="193" cy="244" fill="none" opacity="0.7433616921692698" r="96" stroke="rgb(24, 236, 26)" stroke-width="1.603041446098692" /><polygon fill="none" points="417,240 727,242 487,445 897,394 865,160 682,132 556,243 759,238" stroke="rgb(250, 207, 139)" stroke-width="0.6469188811569757" /><circle cx="713" cy="214" fill="none" opacity="0.8311669793267191" r="92" stroke="rgb(247, 158, 85)" stroke-width="0.9566390096297042" /><line stroke="rgb(254, 116, 92)" stroke-width="1.758657777371094" x1="758" x2="929" y1="487" y2="366" /><line stroke="rgb(49, 247, 224)" stroke-width="0.8805386895877985" x1="140" x2="571" y1="156" y2="326" /><line stroke="rgb(223, 182, 176)" stroke-width="1.3658864594917914" x1="856" x2="974" y1="496" y2="154" /><line stroke="rgb(8, 64, 193)" stroke-width="2.490525703565158" x1="112" x2="422" y1="476" y2="502" /><line stroke="rgb(105, 106, 163)" stroke-width="0.8796844757616974" x1="188" x2="866" y1="28" y2="314" /><path d="M559,456 Q234,349 29,84 L189,44 L291,352" fill="none" stroke="rgb(192, 66, 32)" stroke-width="1.0142226374377037" /><line stroke="rgb(44, 169, 231)" stroke-width="2.6729264726250155" x1="623" x2="476" y1="219" y2="96" /><line stroke="rgb(163, 62, 2)" stroke-width="2.5805715441958" x1="824" x2="770" y1="187" y2="435" /><line stroke="rgb(235, 193, 136)" stroke-width="1.9953646850081777" x1="216" x2="587" y1="25" y2="139" /><line stroke="rgb(175, 252, 4)" stroke-width="1.7260848948904686" x1="673" x2="121" y1="422" y2="347" /><line stroke="rgb(230, 186, 224)" stroke-width="0.5437464414959663" x1="790" x2="195" y1="535" y2="366" /><line stroke="rgb(139, 59, 7)" stroke-width="0.6488339521977358" x1="373" x2="434" y1="494" y2="402" /><line stroke="rgb(60, 251, 87)" stroke-width="2.696885470215133" x1="46" x2="719" y1="207" y2="111" /><line stroke="rgb(63, 219, 242)" stroke-width="1.5482590279243666" x1="291" x2="436" y1="289" y2="235" /><line stroke="rgb(221, 20, 157)" stroke-width="1.79434677965517" x1="212" x2="213" y1="484" y2="41" /><line stroke="rgb(56, 48, 206)" stroke-width="2.8341145736655884" x1="593" x2="332" y1="148" y2="421" /><line stroke="rgb(250, 103, 242)" stroke-width="1.788476185741367" x1="513" x2="62" y1="552" y2="483" /><line stroke="rgb(120, 244, 161)" stroke-width="1.9292850825443482" x1="412" x2="343" y1="98" y2="293" /><line stroke="rgb(43, 46, 24)" stroke-width="2.033169373617831" x1="350" x2="31" y1="151" y2="156" /><circle cx="866" cy="110" fill="none" opacity="0.5476043022533668" r="130" stroke="rgb(17, 99, 12)" stroke-width="2.288150608911298" /><path d="M473,241 L293,3 L567,342 C816,529 822,486 207,200" fill="none" stroke="rgb(217, 193, 65)" stroke-width="1.9195998195041706" /><path d="M345,144 L443,47 C526,440 397,90 790,495 L977,220" fill="none" stroke="rgb(134, 171, 84)" stroke-width="1.8151795038819982" /><circle cx="270" cy="377" fill="none" opacity="0.8999889632184981" r="122" stroke="rgb(27, 144, 124)" stroke-width="2.048358682392048" /><line stroke="rgb(34, 130, 68)" stroke-width="1.0025537481962155" x1="141" x2="669" y1="279" y2="29" /><line stroke="rgb(212, 203, 178)" stroke-width="2.473501397521158" x1="653" x2="415" y1="65" y2="271" /><line stroke="rgb(211, 138, 195)" stroke-width="0.8240140691071691" x1="786" x2="412" y1="154" y2="458" /><line stroke="rgb(110, 72, 39)" stroke-width="1.0947428059328954" x1="326" x2="359" y1="399" y2="131" /><line stroke="rgb(5, 122, 198)" stroke-width="2.1166421952405323" x1="946" x2="729" y1="234" y2="439" /><line stroke="rgb(160, 248, 109)" stroke-width="2.22635742603387" x1="919" x2="357" y1="464" y2="517" /><line stroke="rgb(125, 201, 120)" stroke-width="2.349192854444586" x1="976" x2="726" y1="384" y2="30" /><line stroke="rgb(250, 92, 120)" stroke-width="2.2023624563888733" x1="820" x2="19" y1="224" y2="71" /><line stroke="rgb(125, 132, 74)" stroke-width="2.4368829653929023" x1="938" x2="343" y1="106" y2="541" /><line stroke="rgb(4, 89, 129)" stroke-width="0.7744269909018549" x1="417" x2="407" y1="194" y2="319" /><rect fill="none" height="133" stroke="rgb(78, 44, 55)" stroke-width="1.786917485473734" transform="rotate(344 638 501)" width="76" x="231" y="270" /><polygon fill="none" points="753,117 92,560 881,388" stroke="rgb(110, 233, 178)" stroke-width="2.747444739919388" /><path d="M490,410 L597,289 Q196,350 383,148 L136,119 C148,569 7,532 337,258" fill="none" stroke="rgb(239, 223, 255)" stroke-width="1.0031680666015" /><line stroke="rgb(43, 250, 237)" stroke-width="1.1277353224115618" x1="404" x2="394" y1="419" y2="352" /><line stroke="rgb(189, 221, 26)" stroke-width="1.2804301563035683" x1="26" x2="25" y1="79" y2="78" /><line stroke="rgb(238, 44, 248)" stroke-width="1.710012868561001" x1="466" x2="222" y1="518" y2="399" /><line stroke="rgb(1, 134, 203)" stroke-width="2.2352185488364498" x1="996" x2="97" y1="62" y2="78" /><line stroke="rgb(255, 240, 59)" stroke-width="0.5469071824067396" x1="593" x2="232" y1="48" y2="274" /><line stroke="rgb(176, 217, 154)" stroke-width="1.9270024709481675" x1="784" x2="827" y1="30" y2="462" /><line stroke="rgb(144, 239, 224)" stroke-width="2.516370760209497" x1="384" x2="873" y1="291" y2="516" /><path d="M558,29 L178,317 L585,348 Q367,56 92,34 L691,356 Q657,348 855,376 L737,374 Q849,280 579,359" fill="none" stroke="rgb(242, 96, 57)" stroke-width="2.034714713373467" /></svg>