<svg baseProfile="full" height="552px" version="1.1" width="839px" xmlns="http://www.w3.org/2000/svg" xmlns:ev="http://www.w3.org/2001/xml-events" xmlns:xlink="http://www.w3.org/1999/xlink"><defs /><rect fill="rgb(223, 200, 212)" height="552px" width="839px" x="0" y="0" /><path d="M620,549 C557,203 124,67 647,113 L70,64 C414,111 345,183 336,447" fill="none" stroke="rgb(6, 69, 98)" stroke-width="0.6752813854435614" /><line stroke="rgb(7, 146, 0)" stroke-width="1.905215743159516" x1="364" x2="462" y1="403" y2="180" /><line stroke="rgb(126, 146, 9)" stroke-width="0.5327627446954228" x1="738" x2="35" y1="362" y2="503" /><line stroke="rgb(140, 68, 10)" stroke-width="1.643362176126006" x1="792" x2="140" y1="287" y2="428" /><path d="M233,449 Q301,471 333,197 L303,415 L668,529 Q0,273 663,280 Q340,146 809,283 C145,375 511,171 560,139" fill="none" stroke="rgb(163, 159, 72)" stroke-width="0.7468527632297344" /><polygon fill="none" points="725,5 774,50 325,117 366,66 818,219 675,528 419,536 777,156" stroke="rgb(199, 239, 51)" stroke-width="2.247401633776236" /><rect fill="none" height="133" stroke="rgb(139, 243, 137)" stroke-width="4.71042973837533" transform="rotate(132 537 237)" width="94" x="131" y="153" /><polygon fill="none" points="138,175 232,167 383,60" stroke="rgb(93, 142, 186)" stroke-width="2.350585992849453" /><polygon fill="none" points="681,524 55,174 363,352 610,183 461,358 278,107 775,364 234,484" stroke="rgb(254, 59, 26)" stroke-width="3.498153116575213" /><polygon fill="none" points="182,347 499,89 480,299 790,509 639,165 390,315 227,266 165,266" stroke="rgb(41, 51, 207)" stroke-width="3.7301420543261354" /><circle cx="447" cy="261" fill="none" opacity="0.39688282568242433" r="43" stroke="rgb(179, 148, 223)" stroke-width="4.941523709175007" /><circle cx="316" cy="452" fill="none" opacity="0.38771871915744077" r="61" stroke="rgb(230, 1, 180)" stroke-width="3.595103310859159" /><line stroke="rgb(167, 146, 15)" stroke-width="2.6774873921200504" x1="371" x2="516" y1="514" y2="24" /><line stroke="rgb(149, 152, 73)" stroke-width="1.9967208481231262" x1="617" x2="751" y1="286" y2="300" /><line stroke="rgb(198, 76, 2)" stroke-width="1.4665407758084446" x1="142" x2="374" y1="258" y2="204" /><line stroke="rgb(167, 136, 20)" stroke-width="2.1397783252296168" x1="517" x2="380" y1="226" y2="75" /><line stroke="rgb(156, 243, 86)" stroke-width="1.7906040435289314" x1="21" x2="62" y1="404" y2="401" /><line stroke="rgb(38, 167, 205)" stroke-width="1.619376493475551" x1="356" x2="819" y1="473" y2="132" /><line stroke="rgb(80, 85, 169)" stroke-width="1.4928344581898432" x1="759" x2="775" y1="173" y2="408" /><line stroke="rgb(201, 178, 182)" stroke-width="1.7523301909866107" x1="162" x2="580" y1="132" y2="342" /><line stroke="rgb(95, 130, 92)" stroke-width="2.712808735461749" x1="369" x2="81" y1="466" y2="16" /></svg>