<svg baseProfile="full" height="521px" version="1.1" width="1076px" xmlns="http://www.w3.org/2000/svg" xmlns:ev="http://www.w3.org/2001/xml-events" xmlns:xlink="http://www.w3.org/1999/xlink"><defs /><rect fill="rgb(224, 240, 222)" height="521px" width="1076px" x="0" y="0" /><circle cx="256" cy="384" fill="none" opacity="0.8443207498719936" r="42" stroke="rgb(195, 120, 86)" stroke-width="2.922775712645315" /><circle cx="180" cy="159" fill="none" opacity="0.5190161070240811" r="26" stroke="rgb(61, 133, 11)" stroke-width="1.2690305737428849" /><rect fill="none" height="166" stroke="rgb(172, 125, 89)" stroke-width="1.6253647772992006" transform="rotate(132 748 26)" width="85" x="133" y="369" /><line stroke="rgb(21, 152, 106)" stroke-width="1.0820665932277056" x1="83" x2="348" y1="298" y2="439" /><line stroke="rgb(240, 69, 99)" stroke-width="2.747436066450264" x1="566" x2="880" y1="309" y2="13" /><line stroke="rgb(200, 72, 231)" stroke-width="0.8221627667834039" x1="539" x2="781" y1="268" y2="232" /><line stroke="rgb(126, 216, 129)" stroke-width="2.0874969275447848" x1="205" x2="124" y1="116" y2="453" /><line stroke="rgb(38, 99, 112)" stroke-width="1.5471883890459541" x1="349" x2="327" y1="127" y2="443" /><line stroke="rgb(103, 187, 53)" stroke-width="0.7442593751669025" x1="920" x2="1040" y1="146" y2="125" /><line stroke="rgb(227, 255, 4)" stroke-width="1.0436689784036624" x1="923" x2="658" y1="354" y2="183" /><line stroke="rgb(37, 87, 77)" stroke-width="2.9700971857909138" x1="830" x2="943" y1="137" y2="141" /><line stroke="rgb(2, 174, 145)" stroke-width="1.7345483826960408" x1="529" x2="1006" y1="180" y2="106" /><line stroke="rgb(22, 201, 72)" stroke-width="0.9094280592333083" x1="1072" x2="579" y1="22" y2="336" /><path d="M346,28 Q373,324 1026,286 C70,460 260,231 265,399 Q961,123 532,394 L396,321 C431,60 334,99 189,259 L549,265 L415,435" fill="none" stroke="rgb(221, 201, 210)" stroke-width="1.339941615285943" /><polygon fill="none" points="387,217 954,124 894,484 73,218 1054,106" stroke="rgb(31, 124, 54)" stroke-width="3.4620502497419916" /><line stroke="rgb(251, 131, 125)" stroke-width="2.589627411971791" x1="899" x2="935" y1="184" y2="396" /><line stroke="rgb(61, 34, 124)" stroke-width="2.89219891003902" x1="953" x2="924" y1="35" y2="371" /><line stroke="rgb(39, 244, 151)" stroke-width="0.6642949096169475" x1="1072" x2="163" y1="15" y2="296" /><line stroke="rgb(108, 236, 15)" stroke-width="1.0915659484596736" x1="23" x2="388" y1="132" y2="456" /><line stroke="rgb(51, 53, 180)" stroke-width="0.6225000767541393" x1="160" x2="643" y1="490" y2="168" /><line stroke="rgb(49, 116, 64)" stroke-width="1.7915860453484247" x1="268" x2="597" y1="452" y2="86" /><rect fill="none" height="96" stroke="rgb(60, 26, 27)" stroke-width="3.2318389902260027" transform="rotate(112 557 85)" width="75" x="605" y="52" /><line stroke="rgb(80, 181, 162)" stroke-width="2.593853231308716" x1="163" x2="69" y1="379" y2="2" /><line stroke="rgb(34, 55, 237)" stroke-width="1.247516193550719" x1="77" x2="1000" y1="104" y2="131" /><line stroke="rgb(37, 151, 163)" stroke-width="1.797060891230155" x1="197" x2="603" y1="382" y2="191" /><line stroke="rgb(170, 58, 5)" stroke-width="2.8622535228512676" x1="509" x2="1013" y1="79" y2="453" /><line stroke="rgb(182, 77, 171)" stroke-width="0.8356817416993196" x1="603" x2="33" y1="93" y2="369" /><line stroke="rgb(128, 238, 208)" stroke-width="1.962418303457056" x1="800" x2="47" y1="99" y2="270" /><rect fill="none" height="20" stroke="rgb(178, 118, 2)" stroke-width="4.514293126253386" transform="rotate(140 279 273)" width="152" x="185" y="342" /><circle cx="889" cy="322" fill="none" opacity="0.756762953816162" r="83" stroke="rgb(136, 162, 146)" stroke-width="4.054340857719882" /><rect fill="none" height="136" stroke="rgb(183, 27, 157)" stroke-width="3.2674043496351044" transform="rotate(128 902 419)" width="180" x="106" y="22" /><polygon fill="none" points="593,515 363,307 290,202 349,83 493,78 636,405 736,338 199,106" stroke="rgb(93, 100, 54)" stroke-width="3.2689891462527814" /><polygon fill="none" points="533,97 1066,294 740,11 6,360" stroke="rgb(59, 242, 138)" stroke-width="2.3237886602477262" /><polygon fill="none" points="1034,226 613,335 612,209 739,187 150,477 196,82 918,294" stroke="rgb(20, 228, 241)" stroke-width="3.1413566497080962" /><polygon fill="none" points="238,426 202,260 970,216 576,492 119,437" stroke="rgb(31, 108, 73)" stroke-width="1.9089910465755002" /><path d="M986,78 C608,485 12,392 446,438 L550,352 C321,327 435,454 382,368 Q440,370 287,28 Q7,348 732,10 L721,338" fill="none" stroke="rgb(172, 51, 154)" stroke-width="2.0885623016685866" /><polygon fill="none" points="241,262 176,494 444,336 702,239 471,460 989,93 498,385" stroke="rgb(108, 155, 252)" stroke-width="1.9116270453266804" /><path d="M594,70 Q512,484 589,199 Q23,283 116,52 C345,45 423,342 44,329 L909,155 Q957,493 189,39 Q392,327 317,122 C464,519 250,93 56,225" fill="none" stroke="rgb(62, 84, 209)" stroke-width="1.5583924813704728" /><line stroke="rgb(237, 220, 169)" stroke-width="2.7499921550119977" x1="805" x2="505" y1="422" y2="255" /><line stroke="rgb(182, 90, 82)" stroke-width="1.3676201537349577" x1="115" x2="549" y1="50" y2="222" /><line stroke="rgb(150, 12, 54)" stroke-width="1.411722524228179" x1="249" x2="965" y1="408" y2="165" /><line stroke="rgb(50, 114, 243)" stroke-width="2.274336151895053" x1="387" x2="830" y1="401" y2="312" /><line stroke="rgb(152, 226, 244)" stroke-width="2.0375796371186192" x1="1062" x2="43" y1="44" y2="391" /><line stroke="rgb(189, 251, 198)" stroke-width="0.8975562286012382" x1="483" x2="990" y1="118" y2="453" /><line stroke="rgb(136, 23, 142)" stroke-width="2.3622050750688146" x1="393" x2="804" y1="288" y2="504" /><polygon fill="none" points="299,368 1037,180 672,181 998,435 206,406 976,379 42,52" stroke="rgb(212, 101, 162)" stroke-width="3.4195547394786785" /><polygon fill="none" points="73,227 411,128 896,196 864,89" stroke="rgb(157, 216, 104)" stroke-width="2.733332851461783" /><rect fill="none" height="140" stroke="rgb(140, 214, 32)" stroke-width="0.8454353157873101" transform="rotate(255 887 83)" width="195" x="171" y="348" /><circle cx="812" cy="434" fill="none" opacity="0.3178854405813232" r="99" stroke="rgb(176, 31, 72)" stroke-width="3.0425810572882033" /><path d="M428,252 L310,454 L554,292 C906,103 525,44 113,464" fill="none" stroke="rgb(223, 231, 65)" stroke-width="1.7032195255333398" /><rect fill="none" height="125" stroke="rgb(152, 110, 175)" stroke-width="0.8568489496310734" transform="rotate(219 1038 354)" width="79" x="92" y="418" /><path d="M733,103 C388,348 536,218 1016,68 C1035,150 345,6 364,483 C1068,441 473,12 1076,133 Q283,128 50,382 L1003,456 C496,284 386,249 782,148" fill="none" stroke="rgb(52, 44, 67)" stroke-width="0.9800183438803934" /><circle cx="623" cy="278" fill="none" opacity="0.39465246767430595" r="130" stroke="rgb(193, 207, 8)" stroke-width="1.0620983409673452" /><path d="M372,111 C461,400 192,43 560,58 C825,433 731,322 1027,130 Q451,290 3,224 L778,380 L414,485" fill="none" stroke="rgb(27, 124, 158)" stroke-width="1.5339213412968542" /><path d="M764,87 Q202,481 742,125 L379,459 C590,137 203,487 957,503 C9,497 115,126 824,328 L488,110 Q873,11 317,127" fill="none" stroke="rgb(52, 51, 243)" stroke-width="1.8845253391977144" /><polygon fill="none" points="394,310 631,101 575,270 538,216 367,44" stroke="rgb(142, 36, 133)" stroke-width="2.9430062120091094" /><rect fill="none" height="22" stroke="rgb(145, 138, 167)" stroke-width="1.779438647605775" transform="rotate(261 214 210)" width="31" x="486" y="250" /><circle cx="683" cy="89" fill="none" opacity="0.928487958648943" r="32" stroke="rgb(118, 89, 233)" stroke-width="1.8877690905842166" /><circle cx="818" cy="368" fill="none" opacity="0.7641701896229347" r="116" stroke="rgb(104, 43, 171)" stroke-width="4.474242970653515" /><rect fill="none" height="173" stroke="rgb(44, 232, 189)" stroke-width="3.59588963075948" transform="rotate(186 627 164)" width="35" x="432" y="184" /><rect fill="none" height="36" stroke="rgb(133, 228, 15)" stroke-width="3.466249992213236" transform="rotate(184 330 235)" width="44" x="596" y="246" /><line stroke="rgb(145, 34, 251)" stroke-width="1.4481775933695462" x1="993" x2="1028" y1="224" y2="177" /><line stroke="rgb(234, 231, 41)" stroke-width="1.6221903619906437" x1="125" x2="348" y1="449" y2="444" /><line stroke="rgb(31, 191, 175)" stroke-width="1.1779786110006678" x1="841" x2="81" y1="422" y2="268" /><line stroke="rgb(14, 151, 236)" stroke-width="0.7669791512112709" x1="47" x2="936" y1="462" y2="476" /><line stroke="rgb(136, 199, 145)" stroke-width="1.1878756479677621" x1="1044" x2="719" y1="277" y2="116" /><line stroke="rgb(49, 205, 60)" stroke-width="2.268199541422424" x1="169" x2="989" y1="141" y2="79" /><line stroke="rgb(27, 29, 209)" stroke-width="1.7932621439791856" x1="483" x2="27" y1="434" y2="352" /><line stroke="rgb(179, 113, 229)" stroke-width="0.6267322904792761" x1="990" x2="189" y1="230" y2="437" /><line stroke="rgb(201, 165, 84)" stroke-width="2.134587947622987" x1="1032" x2="577" y1="383" y2="413" /><line stroke="rgb(196, 33, 138)" stroke-width="1.4272180783478752" x1="786" x2="785" y1="411" y2="25" /><line stroke="rgb(52, 91, 60)" stroke-width="0.9518300524930827" x1="803" x2="723" y1="42" y2="357" /><line stroke="rgb(140, 180, 89)" stroke-width="1.9605217906481633" x1="548" x2="547" y1="255" y2="305" /><line stroke="rgb(136, 201, 42)" stroke-width="1.8074728890628862" x1="219" x2="725" y1="449" y2="96" /><line stroke="rgb(87, 243, 209)" stroke-width="1.2671277165045762" x1="943" x2="194" y1="195" y2="456" /><line stroke="rgb(216, 252, 130)" stroke-width="2.737530332526169" x1="644" x2="452" y1="264" y2="312" /><line stroke="rgb(227, 68, 182)" stroke-width="1.0269871844023943" x1="814" x2="647" y1="173" y2="74" /><rect fill="none" height="142" stroke="rgb(227, 194, 68)" stroke-width="1.4575927226660235" transform="rotate(4 13 340)" width="194" x="778" y="192" /><circle cx="282" cy="367" fill="none" opacity="0.6339283265297866" r="130" stroke="rgb(45, 112, 174)" stroke-width="0.7198920089482554" /><line stroke="rgb(102, 123, 198)" stroke-width="1.2767510603352163" x1="345" x2="371" y1="304" y2="174" /><line stroke="rgb(20, 72, 236)" stroke-width="2.73219699694184" x1="437" x2="1045" y1="446" y2="463" /><line stroke="rgb(194, 128, 103)" stroke-width="2.1756093101096337" x1="857" x2="1021" y1="321" y2="349" /><line stroke="rgb(56, 44, 7)" stroke-width="0.7897533330251092" x1="942" x2="645" y1="402" y2="467" /><line stroke="rgb(189, 186, 124)" stroke-width="2.049611904241587" x1="641" x2="454" y1="184" y2="341" /><line stroke="rgb(109, 217, 170)" stroke-width="1.6308067266531592" x1="509" x2="393" y1="327" y2="521" /><line stroke="rgb(180, 114, 169)" stroke-width="1.1395167587687858" x1="117" x2="1006" y1="476" y2="400" /><line stroke="rgb(151, 93, 86)" stroke-width="2.463358868161712" x1="1046" x2="454" y1="62" y2="272" /><line stroke="rgb(192, 246, 170)" stroke-width="2.9204771187863043" x1="222" x2="466" y1="499" y2="62" /><line stroke="rgb(50, 180, 162)" stroke-width="1.4489375204757309" x1="554" x2="756" y1="312" y2="55" /><circle cx="704" cy="289" fill="none" opacity="0.6736238253592357" r="35" stroke="rgb(103, 141, 210)" stroke-width="4.804546515955424" /><line stroke="rgb(187, 37, 163)" stroke-width="1.6360580337246216" x1="596" x2="824" y1="290" y2="352" /><line stroke="rgb(221, 39, 159)" stroke-width="2.6198601551764535" x1="455" x2="735" y1="307" y2="141" /><line stroke="rgb(221, 119, 37)" stroke-width="1.5072092074309766" x1="1006" x2="377" y1="386" y2="99" /><line stroke="rgb(167, 242, 229)" stroke-width="1.5729423774624134" x1="183" x2="629" y1="281" y2="320" /><line stroke="rgb(51, 128, 243)" stroke-width="1.8328599158421834" x1="183" x2="642" y1="69" y2="154" /><line stroke="rgb(63, 186, 153)" stroke-width="1.5958930275289325" x1="615" x2="104" y1="23" y2="49" /><line stroke="rgb(124, 130, 44)" stroke-width="2.892205630109566" x1="829" x2="966" y1="315" y2="416" /><line stroke="rgb(20, 249, 223)" stroke-width="2.0116415898309024" x1="705" x2="362" y1="355" y2="45" /></svg>