<svg baseProfile="full" height="558px" version="1.1" width="1032px" xmlns="http://www.w3.org/2000/svg" xmlns:ev="http://www.w3.org/2001/xml-events" xmlns:xlink="http://www.w3.org/1999/xlink"><defs /><rect fill="rgb(210, 253, 215)" height="558px" width="1032px" x="0" y="0" /><line stroke="rgb(56, 131, 20)" stroke-width="1.2029204673066782" x1="375" x2="19" y1="62" y2="288" /><line stroke="rgb(252, 70, 244)" stroke-width="2.383624686790549" x1="211" x2="363" y1="40" y2="445" /><line stroke="rgb(40, 136, 192)" stroke-width="1.2713976135725131" x1="684" x2="320" y1="187" y2="83" /><polygon fill="none" points="617,308 529,284 339,86 842,371 345,399 246,451" stroke="rgb(63, 218, 131)" stroke-width="2.4954994542250786" /><polygon fill="none" points="931,41 749,524 685,415 454,384" stroke="rgb(243, 169, 5)" stroke-width="3.918452538295986" /><line stroke="rgb(93, 14, 16)" stroke-width="0.98388021563488" x1="23" x2="169" y1="40" y2="80" /><line stroke="rgb(83, 14, 114)" stroke-width="1.5462944110972665" x1="292" x2="985" y1="543" y2="113" /><line stroke="rgb(60, 146, 191)" stroke-width="0.6962814714194003" x1="984" x2="611" y1="13" y2="197" /><rect fill="none" height="142" stroke="rgb(106, 168, 224)" stroke-width="3.1039757276966604" transform="rotate(151 543 320)" width="97" x="825" y="327" /><polygon fill="none" points="156,55 712,300 839,360 496,501 952,337 442,497 678,115 5,242" stroke="rgb(223, 247, 139)" stroke-width="2.3855259358394236" /><line stroke="rgb(67, 241, 97)" stroke-width="0.760929567687706" x1="667" x2="983" y1="219" y2="53" /><line stroke="rgb(196, 163, 169)" stroke-width="1.301372489495244" x1="105" x2="480" y1="467" y2="87" /><line stroke="rgb(92, 240, 110)" stroke-width="0.9110649398920942" x1="207" x2="307" y1="354" y2="152" /><polygon fill="none" points="126,531 179,428 117,486 539,428 744,469 950,312 855,344" stroke="rgb(198, 100, 25)" stroke-width="3.1755650784637144" /><path d="M440,132 C404,413 484,41 920,466 L575,352 C397,441 448,207 649,482 Q522,98 698,448 C627,314 483,478 59,356 C660,95 478,45 311,200" fill="none" stroke="rgb(8, 62, 143)" stroke-width="1.5042216029973419" /><path d="M301,464 Q781,197 865,469 Q1021,288 56,468 C914,57 898,280 51,498 Q1014,429 439,386" fill="none" stroke="rgb(0, 18, 213)" stroke-width="2.5566419153493882" /><polygon fill="none" points="128,179 638,47 243,375 291,454 379,308 219,73 432,452 113,169" stroke="rgb(113, 174, 252)" stroke-width="1.473398640375715" /><polygon fill="none" points="458,428 233,81 481,215" stroke="rgb(144, 130, 174)" stroke-width="2.600974375079722" /><path d="M800,517 L888,512 Q762,208 117,420 L378,50 L206,367" fill="none" stroke="rgb(203, 120, 46)" stroke-width="1.8920972183227107" /><circle cx="525" cy="121" fill="none" opacity="0.8257105382021424" r="68" stroke="rgb(215, 143, 103)" stroke-width="3.8335302474530994" /><polygon fill="none" points="227,119 282,149 145,403 98,221 370,277 442,262 527,446" stroke="rgb(13, 199, 42)" stroke-width="2.4093267881255462" /><rect fill="none" height="117" stroke="rgb(63, 72, 83)" stroke-width="0.523603693744532" transform="rotate(81 85 261)" width="128" x="537" y="311" /><line stroke="rgb(37, 60, 8)" stroke-width="1.333273365845617" x1="680" x2="83" y1="325" y2="433" /><line stroke="rgb(241, 169, 187)" stroke-width="2.6749591377449824" x1="501" x2="347" y1="424" y2="371" /><line stroke="rgb(59, 187, 149)" stroke-width="1.3968931635512714" x1="230" x2="203" y1="38" y2="423" /><line stroke="rgb(75, 170, 12)" stroke-width="2.045775266633763" x1="292" x2="919" y1="468" y2="552" /><line stroke="rgb(253, 110, 63)" stroke-width="1.094581994570831" x1="579" x2="578" y1="44" y2="34" /><line stroke="rgb(232, 77, 1)" stroke-width="2.7975418947364497" x1="359" x2="866" y1="63" y2="285" /><line stroke="rgb(219, 255, 166)" stroke-width="0.8511760199794228" x1="86" x2="678" y1="93" y2="553" /><line stroke="rgb(49, 150, 249)" stroke-width="2.2374510846432516" x1="66" x2="621" y1="335" y2="515" /><line stroke="rgb(231, 157, 56)" stroke-width="1.9194948016730822" x1="87" x2="46" y1="179" y2="157" /><line stroke="rgb(130, 174, 101)" stroke-width="1.293010793448901" x1="424" x2="685" y1="457" y2="139" /><circle cx="408" cy="158" fill="none" opacity="0.718206513149735" r="79" stroke="rgb(29, 201, 238)" stroke-width="1.6044054359994386" /><circle cx="727" cy="360" fill="none" opacity="0.5668252447710193" r="10" stroke="rgb(228, 25, 251)" stroke-width="1.0791271022210138" /><rect fill="none" height="99" stroke="rgb(131, 103, 231)" stroke-width="1.8165426880518993" transform="rotate(15 927 369)" width="168" x="700" y="21" /><circle cx="698" cy="84" fill="none" opacity="0.8883054261139645" r="74" stroke="rgb(88, 211, 168)" stroke-width="2.35169661850925" /><rect fill="none" height="28" stroke="rgb(36, 186, 50)" stroke-width="2.7879676221416654" transform="rotate(181 754 537)" width="153" x="111" y="52" /><line stroke="rgb(101, 123, 216)" stroke-width="0.6202500451804595" x1="390" x2="955" y1="0" y2="66" /><line stroke="rgb(130, 64, 226)" stroke-width="2.3641268517676703" x1="224" x2="759" y1="241" y2="223" /><line stroke="rgb(1, 214, 142)" stroke-width="2.8458737663090417" x1="622" x2="896" y1="450" y2="221" /><line stroke="rgb(209, 128, 57)" stroke-width="1.30616718281305" x1="1026" x2="939" y1="433" y2="2" /><line stroke="rgb(3, 240, 208)" stroke-width="1.0930925829985432" x1="816" x2="319" y1="487" y2="335" /><line stroke="rgb(173, 155, 124)" stroke-width="2.8246764080395663" x1="984" x2="49" y1="275" y2="434" /><line stroke="rgb(197, 22, 99)" stroke-width="1.6592805291744646" x1="293" x2="633" y1="336" y2="424" /><line stroke="rgb(75, 154, 188)" stroke-width="0.6370547868746599" x1="94" x2="297" y1="216" y2="424" /><path d="M563,181 L774,150 C124,374 952,149 988,89 Q390,157 959,379" fill="none" stroke="rgb(132, 61, 98)" stroke-width="2.488839250590594" /><circle cx="455" cy="187" fill="none" opacity="0.4550481159865784" r="136" stroke="rgb(205, 29, 161)" stroke-width="4.400987200353638" /><polygon fill="none" points="560,243 227,526 650,478 967,224 456,295 51,39 518,158 8,77" stroke="rgb(246, 121, 90)" stroke-width="2.187385827988837" /><rect fill="none" height="93" stroke="rgb(244, 206, 53)" stroke-width="2.1332042814554653" transform="rotate(290 945 557)" width="56" x="260" y="151" /><path d="M844,479 Q220,347 820,92 Q289,21 217,176 C630,6 191,282 346,520 Q35,416 815,21" fill="none" stroke="rgb(160, 188, 204)" stroke-width="2.500094233214317" /><path d="M858,3 L156,355 Q175,80 662,300 C357,526 368,54 515,130" fill="none" stroke="rgb(19, 153, 212)" stroke-width="2.6890074653046194" /><line stroke="rgb(224, 149, 19)" stroke-width="2.002947246959284" x1="177" x2="740" y1="15" y2="177" /><line stroke="rgb(253, 38, 190)" stroke-width="2.9503262680337414" x1="965" x2="102" y1="501" y2="474" /><line stroke="rgb(233, 246, 242)" stroke-width="1.82292000783811" x1="252" x2="1013" y1="7" y2="261" /><line stroke="rgb(246, 182, 126)" stroke-width="1.652590325831884" x1="82" x2="101" y1="439" y2="509" /><line stroke="rgb(134, 87, 121)" stroke-width="0.6207896180936088" x1="263" x2="861" y1="105" y2="552" /><line stroke="rgb(197, 55, 161)" stroke-width="1.8980468756443452" x1="639" x2="184" y1="530" y2="407" /><line stroke="rgb(45, 11, 99)" stroke-width="0.6363649071604753" x1="224" x2="963" y1="18" y2="251" /><line stroke="rgb(130, 237, 36)" stroke-width="1.9727632637601569" x1="494" x2="984" y1="108" y2="368" /><line stroke="rgb(138, 155, 206)" stroke-width="2.7845462329750204" x1="850" x2="292" y1="252" y2="445" /><line stroke="rgb(233, 207, 158)" stroke-width="1.1941912204139202" x1="1001" x2="877" y1="155" y2="153" /><line stroke="rgb(17, 184, 68)" stroke-width="1.7018216449509411" x1="127" x2="622" y1="442" y2="298" /><line stroke="rgb(127, 153, 30)" stroke-width="1.8550698236638994" x1="386" x2="627" y1="29" y2="470" /><line stroke="rgb(148, 243, 17)" stroke-width="2.9121250293565804" x1="667" x2="216" y1="528" y2="202" /><line stroke="rgb(122, 18, 234)" stroke-width="2.0710813272195594" x1="435" x2="95" y1="261" y2="14" /><line stroke="rgb(155, 12, 145)" stroke-width="2.7270923516429106" x1="835" x2="35" y1="404" y2="295" /><line stroke="rgb(72, 37, 13)" stroke-width="2.9294690190292503" x1="9" x2="295" y1="532" y2="382" /><line stroke="rgb(226, 51, 188)" stroke-width="0.8155138606591484" x1="813" x2="484" y1="558" y2="73" /><polygon fill="none" points="496,56 155,249 688,94 15,84 778,315" stroke="rgb(166, 120, 154)" stroke-width="1.4227584952552301" /><path d="M129,269 Q486,20 1015,236 C719,138 557,554 478,451 Q667,328 205,479 Q820,189 307,127" fill="none" stroke="rgb(54, 91, 29)" stroke-width="2.9316938913306636" /><circle cx="119" cy="401" fill="none" opacity="0.8543065020390253" r="49" stroke="rgb(51, 160, 58)" stroke-width="2.8567906756954904" /><circle cx="131" cy="144" fill="none" opacity="0.6985033555355011" r="46" stroke="rgb(41, 191, 96)" stroke-width="4.648523134921408" /><polygon fill="none" points="837,394 168,29 456,48" stroke="rgb(244, 21, 108)" stroke-width="2.299899692178941" /><path d="M1031,332 C392,373 974,491 2,337 C207,200 414,482 454,115 C362,538 179,206 926,160 Q292,404 714,482 L269,400" fill="none" stroke="rgb(34, 207, 145)" stroke-width="0.6511068609789201" /><path d="M913,176 Q115,478 710,328 L115,347 L166,463" fill="none" stroke="rgb(18, 198, 229)" stroke-width="1.5259646528636504" /><rect fill="none" height="53" stroke="rgb(238, 36, 248)" stroke-width="4.518142003854462" transform="rotate(205 548 95)" width="43" x="701" y="200" /><circle cx="706" cy="436" fill="none" opacity="0.8056999847073085" r="115" stroke="rgb(7, 12, 8)" stroke-width="3.259159529628485" /><rect fill="none" height="113" stroke="rgb(103, 179, 60)" stroke-width="4.430878511452063" transform="rotate(261 32 533)" width="60" x="911" y="52" /><polygon fill="none" points="773,408 404,340 704,43 907,160 833,533 58,301" stroke="rgb(53, 85, 150)" stroke-width="3.6197699549088513" /><path d="M962,474 Q542,286 722,205 L896,552 Q393,465 851,167" fill="none" stroke="rgb(200, 47, 234)" stroke-width="1.8048508699542145" /><path d="M854,14 C695,211 392,185 523,486 L752,337 L119,220 Q971,498 987,227 C432,288 675,204 993,471" fill="none" stroke="rgb(196, 61, 7)" stroke-width="1.8145459520392924" /><circle cx="420" cy="466" fill="none" opacity="0.35084114353755697" r="138" stroke="rgb(21, 87, 4)" stroke-width="4.9708187368316885" /><rect fill="none" height="34" stroke="rgb(238, 239, 118)" stroke-width="2.207325070229158" transform="rotate(352 987 77)" width="165" x="590" y="235" /><rect fill="none" height="145" stroke="rgb(252, 137, 3)" stroke-width="0.6237080002978896" transform="rotate(91 822 167)" width="186" x="200" y="87" /></svg>