<svg baseProfile="full" height="521px" version="1.1" width="805px" xmlns="http://www.w3.org/2000/svg" xmlns:ev="http://www.w3.org/2001/xml-events" xmlns:xlink="http://www.w3.org/1999/xlink"><defs /><rect fill="rgb(247, 210, 221)" height="521px" width="805px" x="0" y="0" /><rect fill="none" height="47" stroke="rgb(11, 59, 201)" stroke-width="3.4425622945179897" transform="rotate(207 184 364)" width="91" x="154" y="74" /><polygon fill="none" points="511,475 581,451 250,34 16,137 388,384 678,490 138,4 634,470" stroke="rgb(88, 82, 84)" stroke-width="1.9719624153512196" /><circle cx="434" cy="381" fill="none" opacity="0.3686338492050046" r="64" stroke="rgb(199, 255, 197)" stroke-width="4.528291745036524" /><path d="M400,459 Q479,84 511,371 L803,248 L479,498" fill="none" stroke="rgb(147, 107, 153)" stroke-width="1.7639027922077064" /><polygon fill="none" points="381,307 66,335 390,448 736,424 15,232 653,145 137,2 774,69" stroke="rgb(80, 33, 101)" stroke-width="0.722254486598655" /><path d="M37,342 L488,177 Q480,198 319,36 Q535,252 226,378 L187,347" fill="none" stroke="rgb(242, 27, 32)" stroke-width="2.0377087314463433" /><rect fill="none" height="181" stroke="rgb(187, 36, 220)" stroke-width="1.5207292326662687" transform="rotate(274 798 365)" width="59" x="2" y="172" /><circle cx="483" cy="193" fill="none" opacity="0.54121857924843" r="54" stroke="rgb(37, 51, 131)" stroke-width="3.112673615429519" /><path d="M615,518 L484,413 L77,516 Q713,145 161,241 L673,370 C212,515 315,169 457,438" fill="none" stroke="rgb(96, 163, 184)" stroke-width="1.3750244684903619" /><circle cx="110" cy="352" fill="none" opacity="0.4081049950350535" r="33" stroke="rgb(63, 227, 239)" stroke-width="4.417110533850299" /><path d="M448,377 L684,28 C642,339 734,296 486,31 L50,68" fill="none" stroke="rgb(232, 19, 149)" stroke-width="1.7000309796608963" /><line stroke="rgb(103, 131, 107)" stroke-width="0.7474423943808433" x1="643" x2="611" y1="407" y2="406" /><line stroke="rgb(203, 169, 238)" stroke-width="1.7265451529353202" x1="46" x2="735" y1="219" y2="115" /><line stroke="rgb(78, 161, 176)" stroke-width="2.1322544884589814" x1="779" x2="296" y1="232" y2="194" /><line stroke="rgb(211, 179, 1)" stroke-width="1.0906784614266916" x1="749" x2="118" y1="229" y2="151" /><line stroke="rgb(85, 200, 234)" stroke-width="1.8107384621431704" x1="480" x2="523" y1="290" y2="115" /><line stroke="rgb(193, 4, 168)" stroke-width="2.0257761252553728" x1="553" x2="108" y1="390" y2="426" /><line stroke="rgb(86, 236, 116)" stroke-width="2.293307465165573" x1="687" x2="358" y1="139" y2="53" /><line stroke="rgb(153, 218, 195)" stroke-width="0.9880784940131588" x1="600" x2="797" y1="369" y2="140" /><line stroke="rgb(208, 65, 212)" stroke-width="2.971746673993504" x1="768" x2="741" y1="421" y2="193" /><line stroke="rgb(61, 254, 115)" stroke-width="1.9411861445415617" x1="62" x2="679" y1="273" y2="410" /><line stroke="rgb(185, 178, 18)" stroke-width="1.5552698010792063" x1="400" x2="750" y1="104" y2="108" /><line stroke="rgb(88, 25, 102)" stroke-width="0.6968832741673726" x1="690" x2="235" y1="255" y2="463" /><line stroke="rgb(10, 240, 93)" stroke-width="1.9910513469894473" x1="773" x2="501" y1="438" y2="90" /><line stroke="rgb(185, 104, 193)" stroke-width="0.8599542722921514" x1="162" x2="319" y1="274" y2="155" /><line stroke="rgb(92, 66, 156)" stroke-width="0.8769864663005601" x1="434" x2="732" y1="332" y2="374" /><polygon fill="none" points="401,519 339,83 403,401 760,440 408,193 296,252" stroke="rgb(183, 29, 47)" stroke-width="3.422329384332045" /><circle cx="261" cy="183" fill="none" opacity="0.5866432258244205" r="64" stroke="rgb(14, 45, 108)" stroke-width="3.5781479284932702" /><polygon fill="none" points="88,355 270,239 287,48 626,502 454,194" stroke="rgb(128, 78, 220)" stroke-width="3.314378257057587" /><polygon fill="none" points="83,168 197,312 320,158 478,86 379,333" stroke="rgb(89, 82, 110)" stroke-width="3.0084957493374" /><rect fill="none" height="116" stroke="rgb(156, 64, 20)" stroke-width="4.536696571505799" transform="rotate(165 585 23)" width="103" x="364" y="118" /><line stroke="rgb(196, 78, 133)" stroke-width="2.631678018007216" x1="759" x2="373" y1="43" y2="39" /><line stroke="rgb(57, 195, 110)" stroke-width="2.2823567718653006" x1="563" x2="422" y1="436" y2="104" /><line stroke="rgb(143, 2, 209)" stroke-width="1.25517604874382" x1="582" x2="620" y1="25" y2="354" /><line stroke="rgb(113, 84, 160)" stroke-width="2.5474272529905955" x1="369" x2="593" y1="195" y2="345" /><line stroke="rgb(242, 27, 253)" stroke-width="2.6653609940161282" x1="373" x2="200" y1="512" y2="45" /><line stroke="rgb(35, 240, 14)" stroke-width="2.44001379984271" x1="678" x2="649" y1="207" y2="349" /><line stroke="rgb(115, 233, 165)" stroke-width="2.682070798380806" x1="558" x2="748" y1="153" y2="192" /><polygon fill="none" points="271,275 474,258 11,360 77,185 725,8 698,204 256,180 455,199" stroke="rgb(174, 19, 20)" stroke-width="3.720591541650223" /><rect fill="none" height="167" stroke="rgb(163, 98, 68)" stroke-width="0.5252969316245346" transform="rotate(20 292 300)" width="120" x="272" y="344" /><rect fill="none" height="122" stroke="rgb(161, 218, 142)" stroke-width="2.289414372710319" transform="rotate(281 340 114)" width="80" x="660" y="78" /><line stroke="rgb(155, 113, 157)" stroke-width="1.0412207682818793" x1="657" x2="622" y1="474" y2="400" /><line stroke="rgb(144, 169, 83)" stroke-width="0.9117766176336677" x1="66" x2="565" y1="460" y2="407" /><line stroke="rgb(236, 182, 158)" stroke-width="2.9093615495663685" x1="671" x2="447" y1="276" y2="460" /><line stroke="rgb(1, 107, 140)" stroke-width="2.235987450060013" x1="23" x2="22" y1="430" y2="474" /><line stroke="rgb(4, 234, 217)" stroke-width="2.541242321813138" x1="688" x2="575" y1="390" y2="251" /><line stroke="rgb(186, 65, 129)" stroke-width="1.3893499533913227" x1="324" x2="39" y1="516" y2="356" /><line stroke="rgb(97, 162, 139)" stroke-width="1.7199144079540498" x1="6" x2="584" y1="237" y2="413" /><line stroke="rgb(138, 196, 46)" stroke-width="2.271359145022471" x1="92" x2="790" y1="446" y2="98" /><line stroke="rgb(129, 0, 66)" stroke-width="2.823123073904628" x1="704" x2="243" y1="304" y2="491" /><line stroke="rgb(236, 162, 82)" stroke-width="2.2434759983160184" x1="459" x2="191" y1="376" y2="340" /><rect fill="none" height="198" stroke="rgb(10, 225, 104)" stroke-width="2.5477899078703157" transform="rotate(306 58 282)" width="61" x="106" y="43" /><rect fill="none" height="37" stroke="rgb(216, 34, 109)" stroke-width="2.8986837822898046" transform="rotate(263 92 61)" width="175" x="495" y="165" /><line stroke="rgb(221, 62, 105)" stroke-width="1.862160267388731" x1="573" x2="739" y1="69" y2="384" /><line stroke="rgb(26, 247, 185)" stroke-width="1.7113551715283868" x1="636" x2="423" y1="367" y2="152" /><line stroke="rgb(194, 180, 187)" stroke-width="2.0857740939010023" x1="534" x2="552" y1="478" y2="293" /><line stroke="rgb(133, 170, 130)" stroke-width="2.24425135632979" x1="716" x2="437" y1="202" y2="18" /><line stroke="rgb(14, 88, 169)" stroke-width="2.5300586784765935" x1="212" x2="561" y1="516" y2="189" /><line stroke="rgb(169, 66, 115)" stroke-width="1.490782491209739" x1="685" x2="306" y1="83" y2="74" /><line stroke="rgb(27, 185, 105)" stroke-width="0.96890514312042" x1="658" x2="440" y1="273" y2="139" /></svg>