<svg baseProfile="full" height="799px" version="1.1" width="1018px" xmlns="http://www.w3.org/2000/svg" xmlns:ev="http://www.w3.org/2001/xml-events" xmlns:xlink="http://www.w3.org/1999/xlink"><defs /><rect fill="rgb(234, 234, 231)" height="799px" width="1018px" x="0" y="0" /><circle cx="739" cy="375" fill="none" opacity="0.8675363647679526" r="14" stroke="rgb(109, 150, 128)" stroke-width="2.1559078382522623" /><polygon fill="none" points="863,191 939,260 75,523" stroke="rgb(81, 138, 159)" stroke-width="2.128949492055372" /><circle cx="131" cy="137" fill="none" opacity="0.8450996864834459" r="140" stroke="rgb(116, 161, 206)" stroke-width="1.6876587359861233" /><path d="M39,82 Q175,170 935,433 C949,639 728,242 858,211 Q648,147 882,61" fill="none" stroke="rgb(111, 13, 124)" stroke-width="2.1383125172910247" /><polygon fill="none" points="416,491 175,707 275,103" stroke="rgb(119, 196, 237)" stroke-width="3.7533093901284924" /><path d="M780,652 C247,254 864,7 322,385 Q550,373 375,733 C860,747 331,709 308,20 Q149,344 741,416 C714,590 308,667 882,669 L176,14 Q793,720 864,325" fill="none" stroke="rgb(136, 53, 212)" stroke-width="1.610278110743446" /><polygon fill="none" points="652,536 600,799 636,413 360,553 569,277" stroke="rgb(186, 75, 125)" stroke-width="1.3469817983216998" /><rect fill="none" height="83" stroke="rgb(56, 150, 70)" stroke-width="3.568994014215767" transform="rotate(210 734 286)" width="89" x="684" y="469" /><circle cx="623" cy="729" fill="none" opacity="0.8601370580173664" r="138" stroke="rgb(29, 199, 159)" stroke-width="4.833742965504247" /><rect fill="none" height="88" stroke="rgb(35, 219, 126)" stroke-width="3.248746679496845" transform="rotate(129 448 517)" width="47" x="547" y="678" /><path d="M872,102 Q59,684 155,1 C1004,760 941,325 93,117 C484,165 512,84 625,361 Q63,156 615,161 Q929,681 810,446" fill="none" stroke="rgb(70, 152, 64)" stroke-width="0.6720938738121127" /><line stroke="rgb(145, 66, 182)" stroke-width="2.9973463256103416" x1="167" x2="771" y1="479" y2="686" /><line stroke="rgb(249, 238, 8)" stroke-width="2.7876879612701577" x1="363" x2="256" y1="401" y2="220" /><line stroke="rgb(76, 196, 167)" stroke-width="2.5967210915212107" x1="786" x2="838" y1="487" y2="303" /><line stroke="rgb(97, 115, 36)" stroke-width="1.8204449763068986" x1="609" x2="962" y1="77" y2="613" /><line stroke="rgb(57, 217, 244)" stroke-width="1.2495701671199266" x1="901" x2="459" y1="531" y2="459" /><line stroke="rgb(123, 110, 182)" stroke-width="1.4980309649520422" x1="764" x2="839" y1="331" y2="653" /><line stroke="rgb(170, 247, 244)" stroke-width="0.7626494969954787" x1="382" x2="10" y1="689" y2="634" /><line stroke="rgb(96, 176, 188)" stroke-width="0.5168441073623102" x1="0" x2="392" y1="673" y2="186" /><line stroke="rgb(236, 207, 220)" stroke-width="0.8040579710552125" x1="940" x2="958" y1="214" y2="689" /><line stroke="rgb(57, 133, 129)" stroke-width="1.673795974054547" x1="590" x2="361" y1="81" y2="485" /><line stroke="rgb(192, 146, 126)" stroke-width="2.1217496232839324" x1="356" x2="379" y1="425" y2="706" /><line stroke="rgb(167, 108, 153)" stroke-width="1.8659006849096391" x1="113" x2="655" y1="132" y2="153" /><line stroke="rgb(103, 13, 23)" stroke-width="1.4118228770763297" x1="149" x2="668" y1="329" y2="741" /><line stroke="rgb(142, 157, 83)" stroke-width="0.988663936994263" x1="214" x2="687" y1="164" y2="577" /><line stroke="rgb(151, 243, 117)" stroke-width="1.3944173164696716" x1="172" x2="717" y1="641" y2="135" /><line stroke="rgb(22, 167, 138)" stroke-width="1.1866721499247266" x1="1009" x2="285" y1="256" y2="97" /><line stroke="rgb(29, 249, 65)" stroke-width="0.7830885052986922" x1="1007" x2="799" y1="606" y2="670" /><rect fill="none" height="193" stroke="rgb(118, 213, 252)" stroke-width="4.981855020548585" transform="rotate(330 0 674)" width="124" x="812" y="333" /><circle cx="458" cy="192" fill="none" opacity="0.6634456053995339" r="119" stroke="rgb(90, 177, 242)" stroke-width="3.16139663449177" /><polygon fill="none" points="148,646 123,194 496,229 750,129 649,518 410,552 822,240" stroke="rgb(174, 135, 175)" stroke-width="1.6320721401456453" /><polygon fill="none" points="323,699 223,21 161,498 263,215 133,164 506,442 117,197 239,409" stroke="rgb(204, 104, 134)" stroke-width="3.7043427964381523" /><rect fill="none" height="163" stroke="rgb(209, 108, 135)" stroke-width="0.8952218773063856" transform="rotate(356 372 460)" width="167" x="530" y="441" /><circle cx="146" cy="535" fill="none" opacity="0.9967564364741199" r="44" stroke="rgb(179, 81, 160)" stroke-width="2.5084328618444864" /><circle cx="331" cy="160" fill="none" opacity="0.7601675642364794" r="175" stroke="rgb(114, 90, 164)" stroke-width="4.970010788062952" /><rect fill="none" height="88" stroke="rgb(50, 140, 67)" stroke-width="1.5597884373821245" transform="rotate(285 834 223)" width="54" x="903" y="174" /><line stroke="rgb(25, 208, 54)" stroke-width="2.692411719525784" x1="129" x2="383" y1="278" y2="552" /><line stroke="rgb(102, 80, 49)" stroke-width="2.2202137812804406" x1="934" x2="596" y1="193" y2="493" /><line stroke="rgb(168, 5, 246)" stroke-width="0.6827745368578635" x1="75" x2="945" y1="668" y2="282" /><polygon fill="none" points="621,254 78,142 875,458" stroke="rgb(76, 223, 9)" stroke-width="2.080063103349068" /><circle cx="205" cy="309" fill="none" opacity="0.45585414939764746" r="132" stroke="rgb(224, 20, 172)" stroke-width="2.260121002908113" /><line stroke="rgb(99, 100, 55)" stroke-width="2.2846115819157915" x1="907" x2="687" y1="165" y2="0" /><line stroke="rgb(127, 96, 52)" stroke-width="1.5187621238026043" x1="741" x2="808" y1="440" y2="50" /><line stroke="rgb(150, 113, 137)" stroke-width="1.2542842212229803" x1="940" x2="441" y1="578" y2="489" /><line stroke="rgb(10, 63, 115)" stroke-width="0.7659854074392037" x1="816" x2="294" y1="609" y2="634" /><line stroke="rgb(142, 52, 75)" stroke-width="0.672756679864357" x1="273" x2="940" y1="113" y2="694" /><circle cx="447" cy="430" fill="none" opacity="0.7428323758349042" r="33" stroke="rgb(44, 199, 87)" stroke-width="3.189164987277291" /><line stroke="rgb(7, 189, 63)" stroke-width="1.3218947535194552" x1="258" x2="992" y1="295" y2="443" /><line stroke="rgb(6, 32, 115)" stroke-width="2.8844887484848805" x1="625" x2="942" y1="689" y2="415" /><line stroke="rgb(225, 69, 199)" stroke-width="2.7129389264157457" x1="819" x2="546" y1="221" y2="312" /><line stroke="rgb(110, 45, 123)" stroke-width="0.5287607447918087" x1="752" x2="377" y1="296" y2="251" /><line stroke="rgb(173, 134, 237)" stroke-width="1.5635000999937438" x1="496" x2="179" y1="186" y2="775" /><line stroke="rgb(185, 187, 80)" stroke-width="2.6866182644308063" x1="176" x2="1" y1="335" y2="754" /><line stroke="rgb(190, 249, 139)" stroke-width="1.2068608007069945" x1="483" x2="636" y1="175" y2="563" /><rect fill="none" height="125" stroke="rgb(45, 9, 39)" stroke-width="2.274424944970521" transform="rotate(298 928 525)" width="161" x="607" y="188" /><line stroke="rgb(170, 47, 86)" stroke-width="2.4941267313829867" x1="1003" x2="409" y1="26" y2="288" /><line stroke="rgb(145, 164, 253)" stroke-width="2.0595538788242918" x1="738" x2="885" y1="783" y2="758" /><line stroke="rgb(130, 135, 191)" stroke-width="2.63211707214319" x1="409" x2="482" y1="315" y2="333" /><line stroke="rgb(150, 241, 34)" stroke-width="0.9337469876656724" x1="255" x2="953" y1="251" y2="591" /><line stroke="rgb(214, 11, 56)" stroke-width="2.201423945780898" x1="486" x2="729" y1="181" y2="93" /><line stroke="rgb(208, 107, 132)" stroke-width="2.2953719107632296" x1="345" x2="766" y1="419" y2="181" /><line stroke="rgb(247, 120, 72)" stroke-width="1.9810226959294905" x1="480" x2="96" y1="15" y2="761" /><polygon fill="none" points="740,232 189,697 37,137 842,348 589,57 276,792 296,449" stroke="rgb(170, 154, 116)" stroke-width="0.6011931746523289" /><circle cx="449" cy="344" fill="none" opacity="0.7361071453990591" r="52" stroke="rgb(18, 173, 158)" stroke-width="1.1528986995068906" /><polygon fill="none" points="114,502 990,132 216,304 164,330" stroke="rgb(135, 150, 97)" stroke-width="0.8005867875027042" /><path d="M491,595 L510,176 C735,617 36,571 557,325 L268,552 Q927,763 510,158 C489,353 724,575 719,758" fill="none" stroke="rgb(12, 244, 40)" stroke-width="0.8637036471696788" /><path d="M492,208 Q381,412 551,197 C863,585 983,499 72,54 L846,713 L331,595 C284,387 558,470 198,672 L87,188" fill="none" stroke="rgb(206, 205, 129)" stroke-width="2.998520581179065" /><rect fill="none" height="174" stroke="rgb(149, 203, 245)" stroke-width="0.971297894165846" transform="rotate(58 990 523)" width="69" x="651" y="88" /><line stroke="rgb(31, 83, 81)" stroke-width="2.281369346701362" x1="522" x2="165" y1="96" y2="394" /><line stroke="rgb(177, 227, 17)" stroke-width="2.6823013306138845" x1="182" x2="751" y1="486" y2="780" /><line stroke="rgb(13, 3, 158)" stroke-width="0.7749047034361538" x1="801" x2="344" y1="325" y2="514" /><line stroke="rgb(86, 47, 235)" stroke-width="2.670313903727263" x1="634" x2="434" y1="373" y2="626" /><line stroke="rgb(92, 32, 75)" stroke-width="2.8136337124122246" x1="217" x2="768" y1="742" y2="359" /><polygon fill="none" points="918,610 763,280 381,70 830,490 833,625 495,276 767,216" stroke="rgb(86, 188, 133)" stroke-width="1.7635151544217003" /><line stroke="rgb(29, 55, 203)" stroke-width="2.1386384853588947" x1="849" x2="254" y1="417" y2="690" /><line stroke="rgb(239, 11, 236)" stroke-width="0.5855537414985699" x1="937" x2="765" y1="567" y2="530" /><line stroke="rgb(233, 11, 228)" stroke-width="0.7934437114629198" x1="218" x2="924" y1="57" y2="572" /><line stroke="rgb(201, 233, 187)" stroke-width="0.8885702293937265" x1="835" x2="955" y1="536" y2="223" /><line stroke="rgb(203, 49, 96)" stroke-width="1.6408987808831461" x1="990" x2="493" y1="587" y2="331" /><line stroke="rgb(134, 226, 184)" stroke-width="0.896530006504884" x1="349" x2="47" y1="97" y2="766" /><line stroke="rgb(250, 176, 43)" stroke-width="2.855887960768521" x1="86" x2="809" y1="344" y2="732" /><line stroke="rgb(245, 237, 181)" stroke-width="0.9571190422831367" x1="667" x2="908" y1="657" y2="703" /><line stroke="rgb(49, 155, 28)" stroke-width="2.37714738798637" x1="148" x2="157" y1="569" y2="428" /><circle cx="394" cy="369" fill="none" opacity="0.6711120406647983" r="105" stroke="rgb(99, 93, 191)" stroke-width="2.330976176706141" /><line stroke="rgb(98, 169, 32)" stroke-width="2.9723834833553995" x1="1013" x2="305" y1="192" y2="498" /><line stroke="rgb(99, 3, 1)" stroke-width="2.993845568920162" x1="980" x2="1017" y1="123" y2="723" /><line stroke="rgb(222, 227, 80)" stroke-width="1.1700996371829109" x1="480" x2="122" y1="66" y2="729" /><line stroke="rgb(11, 97, 175)" stroke-width="1.4835762171607016" x1="964" x2="601" y1="131" y2="673" /><line stroke="rgb(254, 231, 252)" stroke-width="1.3960161518401077" x1="497" x2="133" y1="643" y2="502" /><line stroke="rgb(0, 228, 100)" stroke-width="0.7728090019975477" x1="930" x2="512" y1="82" y2="598" /><line stroke="rgb(244, 166, 90)" stroke-width="0.9504680736560742" x1="671" x2="118" y1="361" y2="533" /><line stroke="rgb(100, 200, 32)" stroke-width="2.067490532056528" x1="898" x2="832" y1="340" y2="423" /><line stroke="rgb(178, 43, 18)" stroke-width="1.6622670404231106" x1="812" x2="65" y1="30" y2="430" /><line stroke="rgb(151, 86, 84)" stroke-width="0.8517847439062614" x1="79" x2="858" y1="557" y2="487" /><line stroke="rgb(125, 186, 157)" stroke-width="2.1600815428836375" x1="136" x2="288" y1="661" y2="210" /><line stroke="rgb(251, 20, 44)" stroke-width="0.9161161641033961" x1="12" x2="272" y1="235" y2="699" /><line stroke="rgb(189, 0, 157)" stroke-width="2.8093037697456578" x1="427" x2="820" y1="155" y2="205" /><line stroke="rgb(56, 164, 76)" stroke-width="1.67017458574779" x1="846" x2="648" y1="596" y2="276" /><line stroke="rgb(196, 42, 250)" stroke-width="2.5978694077163076" x1="55" x2="176" y1="275" y2="547" /><line stroke="rgb(74, 114, 84)" stroke-width="2.3213398136392467" x1="941" x2="751" y1="211" y2="362" /><line stroke="rgb(92, 103, 138)" stroke-width="0.9928860025130993" x1="514" x2="588" y1="308" y2="87" /><line stroke="rgb(197, 137, 101)" stroke-width="2.6541672811056953" x1="431" x2="583" y1="339" y2="210" /><line stroke="rgb(212, 35, 244)" stroke-width="1.0869186821551517" x1="459" x2="817" y1="109" y2="682" /><line stroke="rgb(153, 221, 109)" stroke-width="1.9528400009115123" x1="133" x2="331" y1="679" y2="297" /><line stroke="rgb(40, 217, 179)" stroke-width="1.7436703698398202" x1="1015" x2="712" y1="198" y2="212" /><rect fill="none" height="180" stroke="rgb(216, 242, 94)" stroke-width="0.7152136262797855" transform="rotate(347 304 462)" width="42" x="275" y="226" /></svg>