<svg baseProfile="full" height="502px" version="1.1" width="832px" xmlns="http://www.w3.org/2000/svg" xmlns:ev="http://www.w3.org/2001/xml-events" xmlns:xlink="http://www.w3.org/1999/xlink"><defs /><rect fill="rgb(202, 204, 243)" height="502px" width="832px" x="0" y="0" /><polygon fill="none" points="440,127 341,259 654,364 60,414 647,316 754,62" stroke="rgb(7, 229, 68)" stroke-width="2.3239303635922344" /><path d="M694,364 L437,328 Q231,192 709,262 C242,486 216,265 111,468 C361,318 750,449 12,308 Q570,275 211,129 C790,259 400,409 804,140" fill="none" stroke="rgb(19, 86, 129)" stroke-width="2.8058472366608593" /><line stroke="rgb(88, 177, 44)" stroke-width="0.5877557161467388" x1="774" x2="20" y1="13" y2="430" /><line stroke="rgb(32, 91, 227)" stroke-width="1.2467667007152308" x1="501" x2="343" y1="312" y2="319" /><line stroke="rgb(129, 192, 46)" stroke-width="2.887574000380676" x1="310" x2="651" y1="99" y2="354" /><line stroke="rgb(247, 185, 120)" stroke-width="1.4262112206235338" x1="620" x2="669" y1="163" y2="377" /><line stroke="rgb(96, 105, 111)" stroke-width="1.58949558221445" x1="522" x2="658" y1="78" y2="300" /><line stroke="rgb(165, 25, 201)" stroke-width="2.2114563917071397" x1="415" x2="69" y1="90" y2="133" /><line stroke="rgb(45, 120, 190)" stroke-width="2.9810205444538895" x1="259" x2="620" y1="121" y2="2" /><line stroke="rgb(95, 16, 219)" stroke-width="0.64201961139532" x1="436" x2="25" y1="205" y2="14" /><line stroke="rgb(95, 225, 166)" stroke-width="1.973627243586885" x1="572" x2="449" y1="105" y2="246" /><polygon fill="none" points="517,358 70,365 589,488" stroke="rgb(115, 243, 13)" stroke-width="3.7562881750644594" /><circle cx="582" cy="82" fill="none" opacity="0.5443997049119588" r="100" stroke="rgb(159, 71, 59)" stroke-width="1.690037441705218" /><path d="M339,185 C616,407 19,211 593,172 Q217,484 401,399 C56,255 219,377 138,189 Q97,302 55,474 C577,432 728,182 648,401 C429,202 581,423 742,115" fill="none" stroke="rgb(59, 140, 109)" stroke-width="2.8515405607496302" /><circle cx="571" cy="315" fill="none" opacity="0.6029046332043223" r="120" stroke="rgb(198, 222, 73)" stroke-width="4.222536305105305" /><line stroke="rgb(207, 175, 67)" stroke-width="1.9650332093315421" x1="790" x2="372" y1="241" y2="425" /><line stroke="rgb(129, 226, 164)" stroke-width="1.2593682108393351" x1="373" x2="662" y1="141" y2="304" /><line stroke="rgb(169, 85, 208)" stroke-width="0.6287852987986243" x1="251" x2="174" y1="25" y2="206" /><line stroke="rgb(54, 5, 89)" stroke-width="1.3691722793010295" x1="714" x2="663" y1="168" y2="246" /><line stroke="rgb(79, 201, 190)" stroke-width="0.6170711016502204" x1="784" x2="805" y1="225" y2="193" /><line stroke="rgb(1, 110, 178)" stroke-width="0.6010668660870842" x1="325" x2="756" y1="101" y2="466" /><line stroke="rgb(203, 38, 103)" stroke-width="1.1231776353036396" x1="521" x2="673" y1="348" y2="489" /><line stroke="rgb(125, 136, 63)" stroke-width="2.0599735027410775" x1="358" x2="409" y1="221" y2="29" /><path d="M325,161 C260,385 606,434 76,221 Q139,94 407,349 L368,27 Q556,163 713,271 L621,340 C350,61 315,363 820,67 L78,210" fill="none" stroke="rgb(109, 106, 229)" stroke-width="1.3098592900297927" /><circle cx="502" cy="173" fill="none" opacity="0.8370959342442355" r="61" stroke="rgb(132, 136, 66)" stroke-width="4.441295759381269" /><rect fill="none" height="139" stroke="rgb(81, 0, 86)" stroke-width="4.5884155979047" transform="rotate(318 32 302)" width="57" x="669" y="71" /><path d="M568,424 L662,437 L423,249 C813,127 79,265 558,386 Q321,275 797,263 Q693,102 201,500 L426,455 L235,29" fill="none" stroke="rgb(19, 198, 172)" stroke-width="1.3804767120968815" /><rect fill="none" height="100" stroke="rgb(91, 240, 152)" stroke-width="0.8060192810434781" transform="rotate(97 602 101)" width="116" x="719" y="255" /><polygon fill="none" points="442,307 248,48 192,417 373,444 485,305 818,284" stroke="rgb(145, 121, 8)" stroke-width="2.2030666278924853" /><rect fill="none" height="77" stroke="rgb(182, 252, 86)" stroke-width="3.5694993176424776" transform="rotate(128 276 293)" width="79" x="459" y="121" /><path d="M277,309 C139,200 1,124 304,405 C644,170 668,468 628,244 C514,381 543,42 570,129" fill="none" stroke="rgb(31, 58, 117)" stroke-width="2.295688256203955" /><line stroke="rgb(164, 209, 164)" stroke-width="0.8128826847663955" x1="492" x2="390" y1="455" y2="239" /><line stroke="rgb(161, 40, 32)" stroke-width="2.1745741208028946" x1="422" x2="418" y1="355" y2="256" /><line stroke="rgb(207, 253, 212)" stroke-width="0.571388148726681" x1="708" x2="483" y1="189" y2="73" /><line stroke="rgb(146, 240, 132)" stroke-width="1.7581928202454624" x1="654" x2="690" y1="478" y2="308" /><line stroke="rgb(214, 116, 8)" stroke-width="1.210838478314029" x1="52" x2="461" y1="420" y2="461" /><line stroke="rgb(191, 139, 40)" stroke-width="1.0942798660539665" x1="0" x2="76" y1="233" y2="24" /><circle cx="390" cy="325" fill="none" opacity="0.6919233215367948" r="62" stroke="rgb(14, 48, 198)" stroke-width="1.175048524207893" /><line stroke="rgb(209, 192, 93)" stroke-width="1.2655498135562397" x1="14" x2="219" y1="468" y2="84" /><line stroke="rgb(166, 217, 188)" stroke-width="2.1891896414946466" x1="58" x2="548" y1="209" y2="350" /><line stroke="rgb(19, 176, 168)" stroke-width="0.9555022673939585" x1="321" x2="48" y1="162" y2="237" /><line stroke="rgb(38, 100, 71)" stroke-width="2.08920656621917" x1="405" x2="399" y1="329" y2="181" /><line stroke="rgb(215, 37, 30)" stroke-width="0.8523755984688054" x1="502" x2="353" y1="283" y2="223" /><polygon fill="none" points="598,246 512,145 189,109 120,341 233,35" stroke="rgb(201, 227, 50)" stroke-width="3.8401141170663604" /><circle cx="214" cy="208" fill="none" opacity="0.7414128986768805" r="119" stroke="rgb(87, 58, 39)" stroke-width="3.9346147193415075" /><rect fill="none" height="67" stroke="rgb(152, 175, 103)" stroke-width="1.7392978832732031" transform="rotate(255 343 223)" width="46" x="728" y="37" /><rect fill="none" height="178" stroke="rgb(181, 254, 161)" stroke-width="3.1199778303246246" transform="rotate(39 675 486)" width="119" x="259" y="375" /><circle cx="530" cy="136" fill="none" opacity="0.885719509518158" r="119" stroke="rgb(132, 217, 249)" stroke-width="2.497355797746729" /><polygon fill="none" points="576,55 821,69 622,409 289,154 659,25 40,483" stroke="rgb(128, 145, 151)" stroke-width="3.613535098108436" /><rect fill="none" height="31" stroke="rgb(1, 64, 219)" stroke-width="2.6622525772682795" transform="rotate(186 329 427)" width="49" x="645" y="44" /><polygon fill="none" points="393,43 2,237 490,95" stroke="rgb(107, 220, 212)" stroke-width="1.5443190418280142" /><path d="M287,89 C482,419 195,467 762,31 L199,381 C517,337 115,343 197,246 L197,407 C215,232 408,94 360,298 C651,112 194,21 535,461 C45,337 536,284 334,325" fill="none" stroke="rgb(189, 44, 84)" stroke-width="1.3140624407854218" /><circle cx="379" cy="247" fill="none" opacity="0.583551398796406" r="92" stroke="rgb(62, 143, 236)" stroke-width="3.9201132495371533" /><line stroke="rgb(174, 249, 108)" stroke-width="1.843635334480918" x1="343" x2="622" y1="446" y2="455" /><line stroke="rgb(38, 82, 166)" stroke-width="1.5156551084590837" x1="290" x2="615" y1="181" y2="0" /><line stroke="rgb(96, 238, 142)" stroke-width="1.1764392852747085" x1="250" x2="655" y1="110" y2="187" /><line stroke="rgb(132, 191, 83)" stroke-width="2.2438721749405377" x1="59" x2="356" y1="291" y2="345" /><line stroke="rgb(143, 240, 235)" stroke-width="2.7379693586875056" x1="403" x2="241" y1="15" y2="450" /><rect fill="none" height="94" stroke="rgb(33, 181, 166)" stroke-width="0.7686443849269033" transform="rotate(259 433 65)" width="104" x="101" y="329" /><line stroke="rgb(16, 188, 197)" stroke-width="0.5946468547726509" x1="156" x2="277" y1="251" y2="242" /><line stroke="rgb(240, 113, 98)" stroke-width="1.2229537142949483" x1="364" x2="511" y1="378" y2="208" /><line stroke="rgb(232, 71, 72)" stroke-width="0.9934025759862204" x1="799" x2="419" y1="183" y2="501" /><line stroke="rgb(63, 146, 127)" stroke-width="2.886503657353289" x1="125" x2="579" y1="246" y2="152" /><line stroke="rgb(86, 142, 4)" stroke-width="2.2887443023590825" x1="560" x2="653" y1="323" y2="495" /><line stroke="rgb(192, 2, 26)" stroke-width="1.4431263084447286" x1="207" x2="160" y1="343" y2="0" /><circle cx="711" cy="432" fill="none" opacity="0.8825217697656458" r="59" stroke="rgb(1, 231, 166)" stroke-width="0.6542508557086203" /><polygon fill="none" points="97,109 801,56 815,492" stroke="rgb(10, 98, 96)" stroke-width="2.7908120056537182" /><line stroke="rgb(78, 185, 160)" stroke-width="1.9145312593809158" x1="450" x2="750" y1="206" y2="489" /><line stroke="rgb(45, 165, 97)" stroke-width="2.1305354339935283" x1="469" x2="140" y1="319" y2="377" /><line stroke="rgb(225, 110, 93)" stroke-width="0.6655081675795883" x1="92" x2="167" y1="85" y2="419" /><line stroke="rgb(233, 159, 57)" stroke-width="2.4631907753288704" x1="662" x2="478" y1="37" y2="318" /><line stroke="rgb(119, 208, 137)" stroke-width="2.8667056736845122" x1="370" x2="524" y1="105" y2="91" /><line stroke="rgb(138, 239, 66)" stroke-width="2.2577010781249336" x1="638" x2="484" y1="276" y2="94" /><path d="M442,175 Q318,121 369,114 L398,27 C78,122 584,299 714,303 Q148,426 483,17" fill="none" stroke="rgb(215, 125, 58)" stroke-width="1.168866271917036" /><polygon fill="none" points="739,81 259,405 152,97 182,382 624,177 94,272 155,416" stroke="rgb(209, 30, 125)" stroke-width="2.6363052589555895" /><circle cx="645" cy="367" fill="none" opacity="0.5247580213799174" r="59" stroke="rgb(0, 252, 164)" stroke-width="2.796124572052757" /><path d="M267,57 Q37,383 598,293 L624,167 C339,92 147,51 594,99" fill="none" stroke="rgb(53, 66, 156)" stroke-width="2.560975570921397" /><line stroke="rgb(205, 43, 25)" stroke-width="1.6564223874675923" x1="789" x2="753" y1="319" y2="494" /><line stroke="rgb(245, 233, 189)" stroke-width="1.8667709538613" x1="621" x2="406" y1="16" y2="420" /><line stroke="rgb(31, 248, 112)" stroke-width="0.6448485281360181" x1="52" x2="45" y1="337" y2="206" /><line stroke="rgb(242, 221, 236)" stroke-width="0.5877059625943823" x1="735" x2="178" y1="132" y2="143" /><line stroke="rgb(52, 235, 38)" stroke-width="1.9953136512003415" x1="385" x2="813" y1="21" y2="169" /><line stroke="rgb(5, 39, 131)" stroke-width="1.1418517417076341" x1="56" x2="270" y1="20" y2="248" /><line stroke="rgb(137, 229, 187)" stroke-width="2.8297145951611826" x1="670" x2="218" y1="313" y2="254" /><rect fill="none" height="25" stroke="rgb(92, 232, 112)" stroke-width="1.9726550325903767" transform="rotate(304 309 202)" width="90" x="416" y="307" /><circle cx="212" cy="191" fill="none" opacity="0.960836038035692" r="112" stroke="rgb(109, 164, 29)" stroke-width="4.484498473968616" /></svg>