<svg baseProfile="full" height="587px" version="1.1" width="1045px" xmlns="http://www.w3.org/2000/svg" xmlns:ev="http://www.w3.org/2001/xml-events" xmlns:xlink="http://www.w3.org/1999/xlink"><defs /><rect fill="rgb(241, 226, 202)" height="587px" width="1045px" x="0" y="0" /><rect fill="none" height="194" stroke="rgb(156, 68, 235)" stroke-width="3.6014874171562465" transform="rotate(276 285 222)" width="185" x="437" y="329" /><circle cx="225" cy="328" fill="none" opacity="0.4159790269722388" r="73" stroke="rgb(254, 134, 221)" stroke-width="1.7189072340060314" /><circle cx="633" cy="79" fill="none" opacity="0.9020657930093139" r="125" stroke="rgb(147, 58, 87)" stroke-width="3.244260151362817" /><line stroke="rgb(146, 169, 71)" stroke-width="1.5571434664536312" x1="628" x2="207" y1="373" y2="207" /><line stroke="rgb(145, 228, 100)" stroke-width="1.6481860855861967" x1="142" x2="367" y1="584" y2="366" /><line stroke="rgb(240, 125, 187)" stroke-width="2.673529208020712" x1="164" x2="338" y1="458" y2="258" /><line stroke="rgb(30, 16, 95)" stroke-width="2.4642171730629348" x1="487" x2="874" y1="304" y2="377" /><line stroke="rgb(190, 229, 87)" stroke-width="1.9011790508025008" x1="917" x2="648" y1="375" y2="396" /><line stroke="rgb(152, 118, 230)" stroke-width="1.8600058861688955" x1="890" x2="71" y1="299" y2="102" /><line stroke="rgb(23, 179, 93)" stroke-width="1.0281268091047333" x1="617" x2="723" y1="160" y2="142" /><line stroke="rgb(87, 129, 146)" stroke-width="0.7214855736001011" x1="398" x2="938" y1="354" y2="149" /><line stroke="rgb(146, 162, 139)" stroke-width="1.0993394906262264" x1="233" x2="867" y1="80" y2="55" /><line stroke="rgb(101, 22, 56)" stroke-width="0.7203311194314781" x1="687" x2="94" y1="476" y2="477" /><circle cx="253" cy="458" fill="none" opacity="0.6431742428083518" r="52" stroke="rgb(226, 201, 171)" stroke-width="3.4443792094294605" /><circle cx="727" cy="193" fill="none" opacity="0.6718594762038759" r="146" stroke="rgb(190, 46, 203)" stroke-width="3.3889524662885706" /><polygon fill="none" points="650,328 342,572 919,463 429,485 272,487" stroke="rgb(33, 190, 93)" stroke-width="3.6449417912474638" /><line stroke="rgb(128, 80, 180)" stroke-width="2.5345149980145973" x1="796" x2="915" y1="191" y2="427" /><line stroke="rgb(1, 13, 236)" stroke-width="2.3879960424487283" x1="173" x2="416" y1="51" y2="495" /><line stroke="rgb(21, 219, 176)" stroke-width="0.9416359882131521" x1="74" x2="679" y1="141" y2="156" /><line stroke="rgb(1, 120, 100)" stroke-width="1.5191370265137858" x1="722" x2="262" y1="97" y2="577" /><line stroke="rgb(119, 108, 207)" stroke-width="2.2918713013623178" x1="492" x2="715" y1="499" y2="279" /><line stroke="rgb(191, 246, 70)" stroke-width="2.471814106393269" x1="416" x2="611" y1="373" y2="461" /><line stroke="rgb(140, 29, 55)" stroke-width="1.4762305431366674" x1="209" x2="448" y1="163" y2="278" /><line stroke="rgb(179, 80, 193)" stroke-width="1.3531840090611786" x1="694" x2="394" y1="209" y2="283" /><circle cx="452" cy="328" fill="none" opacity="0.922604853457208" r="89" stroke="rgb(57, 205, 58)" stroke-width="4.773000625553123" /><circle cx="845" cy="320" fill="none" opacity="0.57187020227559" r="34" stroke="rgb(92, 74, 71)" stroke-width="1.773407609124949" /><line stroke="rgb(62, 221, 1)" stroke-width="0.5576308439545994" x1="976" x2="775" y1="186" y2="524" /><line stroke="rgb(249, 4, 49)" stroke-width="1.1032479132420963" x1="932" x2="666" y1="584" y2="296" /><line stroke="rgb(19, 103, 0)" stroke-width="1.711618259561348" x1="123" x2="96" y1="477" y2="490" /><path d="M409,464 C831,174 37,156 85,20 Q538,234 228,372 C1011,330 57,254 648,387 C673,467 396,443 142,316 C701,149 242,64 658,562" fill="none" stroke="rgb(129, 60, 69)" stroke-width="2.5362169284917524" /><rect fill="none" height="35" stroke="rgb(42, 52, 66)" stroke-width="2.1031243135600937" transform="rotate(101 294 72)" width="117" x="84" y="400" /><polygon fill="none" points="777,514 164,537 46,292 1017,185" stroke="rgb(14, 115, 88)" stroke-width="1.4730230401729836" /><line stroke="rgb(88, 255, 105)" stroke-width="1.9968988613954206" x1="869" x2="360" y1="520" y2="557" /><line stroke="rgb(103, 25, 21)" stroke-width="2.9334842052461423" x1="266" x2="916" y1="363" y2="466" /><line stroke="rgb(225, 75, 131)" stroke-width="0.5044039073417215" x1="827" x2="456" y1="124" y2="354" /><line stroke="rgb(179, 98, 89)" stroke-width="0.7959169531547137" x1="938" x2="250" y1="438" y2="413" /><line stroke="rgb(42, 91, 121)" stroke-width="2.7453347643513504" x1="496" x2="648" y1="73" y2="524" /><line stroke="rgb(212, 14, 127)" stroke-width="2.5993319373138806" x1="960" x2="914" y1="490" y2="5" /><line stroke="rgb(191, 167, 237)" stroke-width="1.9738986169002166" x1="149" x2="874" y1="436" y2="134" /><line stroke="rgb(255, 219, 141)" stroke-width="1.4969440235275717" x1="578" x2="509" y1="391" y2="570" /><line stroke="rgb(214, 35, 22)" stroke-width="0.6477943815359067" x1="605" x2="783" y1="251" y2="283" /><line stroke="rgb(136, 48, 143)" stroke-width="1.9895918851242806" x1="242" x2="405" y1="103" y2="235" /><polygon fill="none" points="274,196 895,6 222,120 693,122 421,114 186,143 204,513 850,202" stroke="rgb(129, 187, 230)" stroke-width="3.2268877429165803" /><polygon fill="none" points="268,269 306,461 1000,274 797,484 641,533" stroke="rgb(231, 151, 21)" stroke-width="0.5996450739579893" /><circle cx="776" cy="220" fill="none" opacity="0.34856507612115006" r="57" stroke="rgb(9, 218, 1)" stroke-width="4.759074376177193" /><polygon fill="none" points="481,170 668,299 624,462" stroke="rgb(135, 240, 113)" stroke-width="0.5270432478086342" /><line stroke="rgb(38, 5, 10)" stroke-width="1.773323027697264" x1="967" x2="340" y1="185" y2="67" /><line stroke="rgb(21, 119, 149)" stroke-width="0.6910154858479693" x1="631" x2="741" y1="96" y2="342" /><line stroke="rgb(186, 247, 170)" stroke-width="1.8924692635820097" x1="447" x2="479" y1="267" y2="541" /><line stroke="rgb(166, 6, 169)" stroke-width="2.210928032246704" x1="202" x2="468" y1="227" y2="386" /><line stroke="rgb(89, 40, 64)" stroke-width="2.0256401371544266" x1="366" x2="58" y1="364" y2="489" /><line stroke="rgb(232, 5, 169)" stroke-width="1.8463613309894389" x1="611" x2="863" y1="549" y2="346" /><line stroke="rgb(67, 251, 31)" stroke-width="1.5382006168436066" x1="618" x2="392" y1="48" y2="176" /><line stroke="rgb(122, 22, 114)" stroke-width="2.3057880614372634" x1="247" x2="436" y1="436" y2="174" /><line stroke="rgb(46, 75, 222)" stroke-width="1.0993611134311498" x1="5" x2="389" y1="521" y2="34" /><line stroke="rgb(72, 59, 255)" stroke-width="1.0790770153757832" x1="114" x2="872" y1="44" y2="138" /><path d="M784,487 Q1042,298 266,273 C974,377 45,203 998,221 L50,92 L554,352" fill="none" stroke="rgb(198, 100, 8)" stroke-width="1.943798893385869" /><polygon fill="none" points="355,434 572,170 541,567" stroke="rgb(174, 172, 3)" stroke-width="2.8913384679762615" /><line stroke="rgb(18, 45, 17)" stroke-width="0.6281972234317632" x1="598" x2="715" y1="548" y2="64" /><line stroke="rgb(43, 253, 121)" stroke-width="2.181630136644201" x1="222" x2="331" y1="308" y2="259" /><line stroke="rgb(242, 182, 174)" stroke-width="2.1219113442308393" x1="798" x2="529" y1="353" y2="114" /><line stroke="rgb(176, 116, 123)" stroke-width="2.9076488099881095" x1="232" x2="985" y1="90" y2="138" /><line stroke="rgb(158, 125, 6)" stroke-width="2.179431430624101" x1="145" x2="915" y1="184" y2="286" /><line stroke="rgb(11, 154, 179)" stroke-width="0.7929730146343706" x1="515" x2="732" y1="511" y2="139" /><line stroke="rgb(163, 188, 147)" stroke-width="1.548377709273571" x1="116" x2="720" y1="421" y2="466" /><line stroke="rgb(255, 27, 108)" stroke-width="0.8291825177880656" x1="124" x2="142" y1="521" y2="124" /><line stroke="rgb(255, 125, 100)" stroke-width="2.595567486793965" x1="400" x2="700" y1="314" y2="148" /><line stroke="rgb(87, 197, 105)" stroke-width="2.050601627394399" x1="760" x2="314" y1="566" y2="167" /><line stroke="rgb(211, 101, 89)" stroke-width="1.7411410135804946" x1="586" x2="261" y1="294" y2="537" /><line stroke="rgb(227, 91, 97)" stroke-width="1.1021630623541014" x1="207" x2="727" y1="507" y2="245" /></svg>