<svg baseProfile="full" height="561px" version="1.1" width="955px" xmlns="http://www.w3.org/2000/svg" xmlns:ev="http://www.w3.org/2001/xml-events" xmlns:xlink="http://www.w3.org/1999/xlink"><defs /><rect fill="rgb(224, 242, 251)" height="561px" width="955px" x="0" y="0" /><polygon fill="none" points="389,270 790,243 557,253 182,109 895,378 853,392 90,208 935,273" stroke="rgb(15, 2, 254)" stroke-width="1.821476282346601" /><polygon fill="none" points="640,215 81,118 829,59 333,50" stroke="rgb(30, 149, 43)" stroke-width="1.7903205367039798" /><line stroke="rgb(121, 80, 154)" stroke-width="0.5229983947206567" x1="46" x2="481" y1="154" y2="54" /><line stroke="rgb(144, 46, 49)" stroke-width="1.9053189236574979" x1="654" x2="748" y1="233" y2="49" /><line stroke="rgb(48, 195, 132)" stroke-width="1.5665222594793669" x1="411" x2="434" y1="54" y2="512" /><rect fill="none" height="47" stroke="rgb(17, 108, 231)" stroke-width="2.971361919755419" transform="rotate(147 746 25)" width="188" x="182" y="115" /><line stroke="rgb(105, 188, 217)" stroke-width="2.38789169410935" x1="923" x2="332" y1="270" y2="365" /><line stroke="rgb(106, 52, 53)" stroke-width="1.1425060263943358" x1="948" x2="109" y1="310" y2="136" /><line stroke="rgb(232, 103, 62)" stroke-width="2.181882130961346" x1="266" x2="233" y1="544" y2="376" /><line stroke="rgb(247, 253, 253)" stroke-width="1.513855409475914" x1="618" x2="41" y1="557" y2="359" /><line stroke="rgb(93, 209, 52)" stroke-width="2.526643212717543" x1="386" x2="468" y1="537" y2="54" /><line stroke="rgb(149, 224, 134)" stroke-width="2.7368328574056147" x1="577" x2="166" y1="206" y2="452" /><line stroke="rgb(31, 158, 235)" stroke-width="1.936788722382825" x1="196" x2="617" y1="266" y2="343" /><path d="M909,430 C566,216 415,319 143,86 Q150,11 293,344 L433,503" fill="none" stroke="rgb(116, 45, 120)" stroke-width="2.4849481233067428" /><circle cx="368" cy="308" fill="none" opacity="0.3482032007038151" r="66" stroke="rgb(147, 3, 229)" stroke-width="0.9265150295162199" /><path d="M487,394 Q458,351 248,444 L194,98 Q87,151 48,286" fill="none" stroke="rgb(60, 34, 84)" stroke-width="1.6099230974054939" /><path d="M341,140 Q2,432 106,46 L846,422 L437,397 Q855,49 584,174 L266,186" fill="none" stroke="rgb(129, 33, 70)" stroke-width="0.8684661810511545" /><line stroke="rgb(40, 163, 145)" stroke-width="0.6164976371789433" x1="187" x2="597" y1="208" y2="202" /><line stroke="rgb(110, 12, 248)" stroke-width="1.7188458421729278" x1="934" x2="524" y1="383" y2="176" /><line stroke="rgb(218, 5, 242)" stroke-width="1.6203147255673709" x1="859" x2="208" y1="140" y2="334" /><line stroke="rgb(112, 248, 23)" stroke-width="0.8080981634055067" x1="765" x2="361" y1="195" y2="352" /><line stroke="rgb(246, 157, 60)" stroke-width="2.768709795095716" x1="360" x2="840" y1="300" y2="408" /><line stroke="rgb(130, 188, 8)" stroke-width="0.747341295452923" x1="271" x2="535" y1="251" y2="223" /><line stroke="rgb(146, 203, 97)" stroke-width="2.3731670210869753" x1="445" x2="840" y1="306" y2="95" /><line stroke="rgb(182, 63, 132)" stroke-width="2.3350489371742027" x1="841" x2="579" y1="448" y2="142" /><line stroke="rgb(92, 217, 55)" stroke-width="2.6618122394543393" x1="97" x2="699" y1="300" y2="269" /><line stroke="rgb(35, 64, 96)" stroke-width="1.4088362385037105" x1="407" x2="419" y1="446" y2="335" /><path d="M357,557 C327,45 70,509 556,524 L873,541 C213,174 408,310 342,346 L513,93" fill="none" stroke="rgb(120, 98, 6)" stroke-width="2.4880945108314974" /><polygon fill="none" points="560,527 503,435 393,46 567,266 932,546" stroke="rgb(86, 4, 202)" stroke-width="3.939476510189045" /><path d="M664,351 C177,200 742,381 760,353 L388,215 L95,547 Q923,47 50,322" fill="none" stroke="rgb(251, 118, 172)" stroke-width="2.54472422595901" /><rect fill="none" height="61" stroke="rgb(213, 30, 48)" stroke-width="4.9250059896486915" transform="rotate(122 398 270)" width="21" x="388" y="11" /><line stroke="rgb(187, 139, 240)" stroke-width="1.0775346567492468" x1="810" x2="101" y1="321" y2="32" /><line stroke="rgb(131, 123, 20)" stroke-width="2.033338696580445" x1="511" x2="371" y1="261" y2="1" /><line stroke="rgb(51, 48, 114)" stroke-width="2.8016531788178343" x1="200" x2="852" y1="297" y2="64" /><line stroke="rgb(136, 190, 207)" stroke-width="0.9945280289189122" x1="443" x2="15" y1="242" y2="3" /><line stroke="rgb(152, 108, 98)" stroke-width="1.4368757761248365" x1="908" x2="511" y1="344" y2="119" /><line stroke="rgb(171, 253, 52)" stroke-width="2.9774805540716334" x1="808" x2="425" y1="426" y2="402" /><line stroke="rgb(192, 111, 7)" stroke-width="1.2450847318482154" x1="178" x2="175" y1="464" y2="496" /><line stroke="rgb(118, 130, 239)" stroke-width="1.2270019511241195" x1="204" x2="404" y1="232" y2="480" /><circle cx="641" cy="295" fill="none" opacity="0.7747487261286208" r="86" stroke="rgb(139, 176, 199)" stroke-width="4.172278844816262" /><circle cx="574" cy="352" fill="none" opacity="0.6105090119949815" r="36" stroke="rgb(46, 112, 94)" stroke-width="0.5883927849016658" /><line stroke="rgb(88, 20, 151)" stroke-width="1.4756692049608204" x1="226" x2="837" y1="67" y2="514" /><line stroke="rgb(11, 0, 143)" stroke-width="1.8075426845989297" x1="596" x2="469" y1="138" y2="231" /><line stroke="rgb(183, 52, 242)" stroke-width="1.978723060449305" x1="931" x2="388" y1="546" y2="346" /><line stroke="rgb(155, 1, 90)" stroke-width="1.2980845459130044" x1="809" x2="273" y1="285" y2="318" /><line stroke="rgb(21, 31, 148)" stroke-width="2.366122021329069" x1="481" x2="824" y1="372" y2="0" /><line stroke="rgb(214, 100, 122)" stroke-width="2.209128428904485" x1="20" x2="178" y1="443" y2="224" /><line stroke="rgb(111, 243, 224)" stroke-width="2.640274435730426" x1="556" x2="866" y1="134" y2="494" /><line stroke="rgb(19, 104, 42)" stroke-width="0.5012381707153954" x1="27" x2="324" y1="54" y2="162" /><line stroke="rgb(182, 7, 231)" stroke-width="2.1349912245800367" x1="80" x2="764" y1="514" y2="457" /><line stroke="rgb(104, 204, 70)" stroke-width="0.9093253697873911" x1="165" x2="821" y1="497" y2="210" /><line stroke="rgb(180, 36, 129)" stroke-width="2.0750035268746694" x1="35" x2="298" y1="110" y2="400" /><line stroke="rgb(133, 103, 125)" stroke-width="2.045850449068732" x1="927" x2="868" y1="107" y2="27" /><line stroke="rgb(148, 99, 178)" stroke-width="1.7028418206679485" x1="421" x2="353" y1="54" y2="43" /><line stroke="rgb(191, 249, 181)" stroke-width="2.508867290987717" x1="124" x2="425" y1="396" y2="537" /><line stroke="rgb(118, 208, 49)" stroke-width="2.1278793780391916" x1="927" x2="295" y1="518" y2="106" /><line stroke="rgb(151, 100, 185)" stroke-width="0.827433907159169" x1="790" x2="945" y1="420" y2="147" /><circle cx="419" cy="218" fill="none" opacity="0.30311410769174796" r="51" stroke="rgb(40, 207, 45)" stroke-width="2.951161340903206" /><rect fill="none" height="94" stroke="rgb(37, 66, 142)" stroke-width="3.9959130145526207" transform="rotate(209 390 332)" width="93" x="551" y="248" /><circle cx="668" cy="203" fill="none" opacity="0.3245302153983469" r="91" stroke="rgb(64, 40, 184)" stroke-width="1.2824547126352233" /><rect fill="none" height="43" stroke="rgb(209, 213, 98)" stroke-width="1.4240015864603748" transform="rotate(113 382 445)" width="185" x="2" y="410" /><polygon fill="none" points="860,22 853,33 43,505 502,71 858,150 674,186 880,138" stroke="rgb(53, 130, 144)" stroke-width="2.450136198359832" /></svg>