<svg baseProfile="full" height="404px" version="1.1" width="896px" xmlns="http://www.w3.org/2000/svg" xmlns:ev="http://www.w3.org/2001/xml-events" xmlns:xlink="http://www.w3.org/1999/xlink"><defs /><rect fill="rgb(207, 215, 243)" height="404px" width="896px" x="0" y="0" /><line stroke="rgb(217, 167, 205)" stroke-width="2.8176807251861855" x1="742" x2="23" y1="275" y2="374" /><line stroke="rgb(11, 252, 58)" stroke-width="1.3508455624989497" x1="775" x2="889" y1="248" y2="340" /><line stroke="rgb(45, 5, 64)" stroke-width="1.763711048270669" x1="301" x2="720" y1="152" y2="187" /><line stroke="rgb(104, 255, 98)" stroke-width="0.5263289650493642" x1="178" x2="719" y1="167" y2="310" /><line stroke="rgb(199, 5, 131)" stroke-width="1.4049436646535922" x1="530" x2="841" y1="291" y2="381" /><line stroke="rgb(57, 67, 153)" stroke-width="2.0187380976782627" x1="122" x2="739" y1="119" y2="136" /><path d="M343,89 Q323,205 402,165 C108,14 673,267 595,78 Q360,55 567,350 L784,134" fill="none" stroke="rgb(121, 86, 105)" stroke-width="2.0558926684588807" /><path d="M702,97 L674,250 Q54,124 540,179 C608,9 857,155 657,54 Q537,58 871,307 C729,248 828,188 865,202 Q426,386 199,122 Q732,371 227,323" fill="none" stroke="rgb(18, 82, 53)" stroke-width="1.5672653147685864" /><circle cx="629" cy="85" fill="none" opacity="0.4469496025945608" r="16" stroke="rgb(226, 104, 43)" stroke-width="3.711937560596718" /><circle cx="392" cy="63" fill="none" opacity="0.5402632117416521" r="18" stroke="rgb(69, 185, 184)" stroke-width="4.509654509217307" /><rect fill="none" height="182" stroke="rgb(0, 125, 123)" stroke-width="4.437435445800839" transform="rotate(169 846 354)" width="82" x="9" y="11" /><polygon fill="none" points="829,308 234,396 260,398 474,333 561,211 815,286" stroke="rgb(74, 4, 47)" stroke-width="1.8726042599022565" /><circle cx="501" cy="77" fill="none" opacity="0.9620276960999463" r="73" stroke="rgb(133, 7, 125)" stroke-width="2.4265918204080537" /><circle cx="128" cy="92" fill="none" opacity="0.5490018090879002" r="93" stroke="rgb(141, 28, 2)" stroke-width="4.647301912433927" /><rect fill="none" height="184" stroke="rgb(150, 143, 68)" stroke-width="2.7072541598619067" transform="rotate(73 284 282)" width="105" x="643" y="245" /><line stroke="rgb(168, 183, 59)" stroke-width="1.4207378622760978" x1="721" x2="35" y1="73" y2="213" /><line stroke="rgb(190, 147, 227)" stroke-width="1.923575135341194" x1="472" x2="94" y1="286" y2="125" /><line stroke="rgb(77, 236, 38)" stroke-width="2.99511246453673" x1="168" x2="29" y1="299" y2="166" /><line stroke="rgb(46, 103, 126)" stroke-width="1.0981682497965746" x1="80" x2="807" y1="362" y2="169" /><line stroke="rgb(2, 219, 230)" stroke-width="1.6636177115572155" x1="722" x2="768" y1="47" y2="61" /></svg>