<svg baseProfile="full" height="717px" version="1.1" width="1043px" xmlns="http://www.w3.org/2000/svg" xmlns:ev="http://www.w3.org/2001/xml-events" xmlns:xlink="http://www.w3.org/1999/xlink"><defs /><rect fill="rgb(232, 218, 255)" height="717px" width="1043px" x="0" y="0" /><rect fill="none" height="22" stroke="rgb(144, 118, 159)" stroke-width="2.7585549532630584" transform="rotate(359 457 328)" width="129" x="578" y="540" /><path d="M519,516 C465,622 842,312 107,624 Q862,264 71,102 L642,686" fill="none" stroke="rgb(34, 253, 94)" stroke-width="0.7185689159866413" /><path d="M248,538 L463,37 C205,74 534,76 443,72 Q493,483 544,710 C1035,71 543,500 448,567" fill="none" stroke="rgb(242, 125, 23)" stroke-width="0.9041887973994982" /><line stroke="rgb(251, 154, 99)" stroke-width="1.7851507784663156" x1="305" x2="741" y1="481" y2="700" /><line stroke="rgb(52, 133, 188)" stroke-width="0.7898754319628802" x1="544" x2="917" y1="123" y2="185" /><line stroke="rgb(169, 177, 33)" stroke-width="0.9141314700389533" x1="0" x2="217" y1="112" y2="156" /><line stroke="rgb(251, 171, 108)" stroke-width="2.0266934528713354" x1="601" x2="720" y1="270" y2="301" /><line stroke="rgb(244, 20, 154)" stroke-width="1.4358443279098017" x1="843" x2="203" y1="76" y2="259" /><line stroke="rgb(45, 145, 20)" stroke-width="2.9741706623215007" x1="631" x2="670" y1="378" y2="51" /><line stroke="rgb(75, 55, 52)" stroke-width="1.462559011203246" x1="326" x2="54" y1="413" y2="25" /><line stroke="rgb(146, 206, 66)" stroke-width="1.7050998699206052" x1="848" x2="614" y1="172" y2="151" /><line stroke="rgb(186, 194, 105)" stroke-width="1.3174732955227522" x1="550" x2="795" y1="619" y2="363" /><line stroke="rgb(95, 100, 205)" stroke-width="2.0210841978087917" x1="685" x2="224" y1="530" y2="154" /><line stroke="rgb(228, 104, 123)" stroke-width="2.554972125291374" x1="607" x2="839" y1="259" y2="161" /><line stroke="rgb(33, 37, 156)" stroke-width="2.714139703548407" x1="584" x2="41" y1="180" y2="212" /><line stroke="rgb(110, 101, 175)" stroke-width="2.2874166047905673" x1="150" x2="43" y1="318" y2="17" /><line stroke="rgb(221, 243, 197)" stroke-width="1.4695042744892013" x1="449" x2="79" y1="167" y2="9" /><line stroke="rgb(131, 147, 97)" stroke-width="0.5149874708793829" x1="1004" x2="851" y1="544" y2="630" /><line stroke="rgb(140, 151, 70)" stroke-width="2.902023138302867" x1="430" x2="769" y1="165" y2="436" /><line stroke="rgb(61, 138, 33)" stroke-width="0.8918785917219672" x1="451" x2="425" y1="138" y2="121" /><line stroke="rgb(221, 46, 6)" stroke-width="2.9326029005843233" x1="378" x2="517" y1="237" y2="232" /><line stroke="rgb(83, 140, 220)" stroke-width="0.9327356727733036" x1="994" x2="982" y1="679" y2="698" /><path d="M956,479 L270,408 Q976,492 441,330 C911,394 137,153 495,520 C755,377 749,559 92,629" fill="none" stroke="rgb(120, 45, 226)" stroke-width="0.8540136854331521" /><path d="M621,130 Q1031,309 476,427 C892,648 812,258 81,364 C233,446 216,270 380,656 C938,610 302,562 502,503 Q324,190 271,580 C716,551 236,546 104,365 L371,581" fill="none" stroke="rgb(246, 192, 179)" stroke-width="2.9591588824064905" /><polygon fill="none" points="833,72 598,652 686,629 369,215 952,8 676,208 842,568 478,348" stroke="rgb(80, 125, 138)" stroke-width="2.422324080774996" /><line stroke="rgb(23, 77, 204)" stroke-width="2.634595183634044" x1="329" x2="833" y1="40" y2="32" /><line stroke="rgb(26, 18, 9)" stroke-width="1.7284612227657723" x1="508" x2="4" y1="556" y2="510" /><line stroke="rgb(142, 130, 40)" stroke-width="1.1213598124307516" x1="64" x2="361" y1="699" y2="396" /><line stroke="rgb(66, 156, 34)" stroke-width="2.1868199895050164" x1="528" x2="769" y1="601" y2="524" /><line stroke="rgb(169, 79, 95)" stroke-width="1.3733010377146355" x1="66" x2="21" y1="702" y2="669" /><line stroke="rgb(72, 183, 39)" stroke-width="2.0746357836044593" x1="700" x2="142" y1="221" y2="572" /><line stroke="rgb(81, 189, 247)" stroke-width="2.4614485650600457" x1="145" x2="110" y1="484" y2="654" /><line stroke="rgb(81, 8, 142)" stroke-width="1.3349665703195317" x1="353" x2="535" y1="123" y2="589" /><line stroke="rgb(207, 249, 30)" stroke-width="0.6023505580879667" x1="122" x2="310" y1="11" y2="304" /><line stroke="rgb(38, 249, 116)" stroke-width="0.9164994796139729" x1="589" x2="761" y1="275" y2="334" /><rect fill="none" height="134" stroke="rgb(34, 82, 48)" stroke-width="4.752560303663027" transform="rotate(39 780 665)" width="164" x="12" y="297" /><line stroke="rgb(85, 234, 176)" stroke-width="1.2109510211977126" x1="175" x2="13" y1="183" y2="583" /><line stroke="rgb(98, 221, 124)" stroke-width="2.44622226295198" x1="241" x2="569" y1="14" y2="225" /><line stroke="rgb(137, 130, 65)" stroke-width="1.5358990782009714" x1="723" x2="776" y1="378" y2="112" /><line stroke="rgb(149, 185, 17)" stroke-width="0.7269489819412176" x1="978" x2="428" y1="273" y2="475" /><line stroke="rgb(89, 194, 51)" stroke-width="0.9591124070142507" x1="165" x2="600" y1="582" y2="349" /><line stroke="rgb(7, 90, 225)" stroke-width="2.159359367720342" x1="685" x2="142" y1="219" y2="498" /><line stroke="rgb(138, 196, 186)" stroke-width="2.005073923037126" x1="907" x2="908" y1="345" y2="390" /><line stroke="rgb(7, 82, 203)" stroke-width="2.8388246403439688" x1="795" x2="582" y1="108" y2="596" /><line stroke="rgb(155, 65, 19)" stroke-width="2.806700303377722" x1="6" x2="704" y1="98" y2="656" /><rect fill="none" height="160" stroke="rgb(139, 249, 239)" stroke-width="2.8353119134591775" transform="rotate(29 13 50)" width="185" x="570" y="493" /><line stroke="rgb(88, 134, 29)" stroke-width="2.5043099676599825" x1="39" x2="723" y1="132" y2="219" /><line stroke="rgb(120, 191, 107)" stroke-width="0.6189797002792747" x1="990" x2="981" y1="113" y2="606" /><line stroke="rgb(130, 23, 238)" stroke-width="1.3522093485690383" x1="988" x2="829" y1="112" y2="517" /><line stroke="rgb(44, 18, 150)" stroke-width="1.1091371891589412" x1="737" x2="17" y1="29" y2="614" /><line stroke="rgb(58, 141, 248)" stroke-width="0.8494850104810565" x1="499" x2="611" y1="531" y2="707" /><line stroke="rgb(253, 99, 226)" stroke-width="2.191176991418011" x1="445" x2="1007" y1="528" y2="421" /><line stroke="rgb(150, 151, 188)" stroke-width="2.2716240174449625" x1="73" x2="301" y1="239" y2="267" /><line stroke="rgb(215, 111, 180)" stroke-width="2.9493339620247774" x1="135" x2="467" y1="381" y2="82" /><line stroke="rgb(177, 97, 173)" stroke-width="1.3092409106407796" x1="1022" x2="721" y1="29" y2="116" /><line stroke="rgb(232, 66, 120)" stroke-width="2.2262677038471383" x1="441" x2="56" y1="135" y2="274" /><circle cx="166" cy="595" fill="none" opacity="0.9726772906124648" r="56" stroke="rgb(193, 178, 22)" stroke-width="1.685587215392129" /><circle cx="964" cy="328" fill="none" opacity="0.6782994335562526" r="146" stroke="rgb(147, 63, 93)" stroke-width="1.7758610303673974" /><circle cx="954" cy="210" fill="none" opacity="0.5104441819206782" r="58" stroke="rgb(209, 195, 11)" stroke-width="3.198405239765391" /><rect fill="none" height="85" stroke="rgb(1, 245, 202)" stroke-width="2.6563555589306285" transform="rotate(12 364 98)" width="132" x="665" y="594" /><line stroke="rgb(250, 221, 248)" stroke-width="2.7586629263886775" x1="746" x2="824" y1="487" y2="711" /><line stroke="rgb(8, 48, 22)" stroke-width="2.1041687259357067" x1="154" x2="1017" y1="221" y2="346" /><line stroke="rgb(129, 115, 145)" stroke-width="2.30320800924104" x1="667" x2="305" y1="339" y2="643" /><line stroke="rgb(11, 151, 172)" stroke-width="1.2684913412562744" x1="167" x2="50" y1="114" y2="118" /><line stroke="rgb(72, 121, 33)" stroke-width="0.7487440276184444" x1="93" x2="234" y1="489" y2="87" /><line stroke="rgb(25, 9, 32)" stroke-width="2.5494554117388546" x1="638" x2="434" y1="256" y2="520" /><line stroke="rgb(9, 237, 41)" stroke-width="1.255157475858369" x1="102" x2="1012" y1="4" y2="225" /><line stroke="rgb(38, 63, 45)" stroke-width="2.925127750589374" x1="305" x2="421" y1="158" y2="437" /><line stroke="rgb(201, 128, 99)" stroke-width="2.42082056016142" x1="820" x2="390" y1="9" y2="107" /><line stroke="rgb(253, 70, 185)" stroke-width="2.6168797945245945" x1="93" x2="66" y1="508" y2="234" /><polygon fill="none" points="688,95 961,408 161,196" stroke="rgb(120, 24, 144)" stroke-width="2.1132454111979904" /><path d="M503,158 L159,397 L904,585 C610,477 25,117 280,535 Q169,404 265,422 Q316,82 184,653 Q798,471 62,292" fill="none" stroke="rgb(239, 1, 27)" stroke-width="1.8152049070458294" /><line stroke="rgb(201, 86, 52)" stroke-width="2.6034106395593484" x1="90" x2="62" y1="86" y2="215" /><line stroke="rgb(227, 127, 152)" stroke-width="1.491789122271061" x1="947" x2="540" y1="69" y2="656" /><line stroke="rgb(235, 220, 87)" stroke-width="2.9961430361814902" x1="621" x2="647" y1="439" y2="639" /><line stroke="rgb(238, 109, 118)" stroke-width="1.3789736627265632" x1="203" x2="471" y1="605" y2="669" /><line stroke="rgb(54, 37, 0)" stroke-width="2.5208067018028255" x1="203" x2="465" y1="49" y2="335" /><line stroke="rgb(164, 114, 180)" stroke-width="0.8464434666681981" x1="814" x2="912" y1="688" y2="531" /><line stroke="rgb(187, 214, 41)" stroke-width="2.984561677934479" x1="375" x2="75" y1="375" y2="195" /><line stroke="rgb(250, 129, 61)" stroke-width="1.0136181937658315" x1="630" x2="643" y1="67" y2="693" /><line stroke="rgb(13, 241, 95)" stroke-width="1.1816911991809422" x1="162" x2="36" y1="519" y2="35" /><circle cx="846" cy="344" fill="none" opacity="0.6379312238954835" r="119" stroke="rgb(234, 233, 51)" stroke-width="4.487373211828363" /><path d="M483,491 Q277,416 609,136 C653,340 1040,406 452,566 Q1030,195 252,69" fill="none" stroke="rgb(205, 186, 59)" stroke-width="1.1741759191207857" /><rect fill="none" height="153" stroke="rgb(214, 211, 159)" stroke-width="2.076213237950146" transform="rotate(134 614 193)" width="165" x="594" y="280" /><rect fill="none" height="132" stroke="rgb(107, 190, 141)" stroke-width="1.8463432053956226" transform="rotate(53 1013 66)" width="175" x="315" y="377" /><rect fill="none" height="169" stroke="rgb(30, 3, 255)" stroke-width="2.9619710180784207" transform="rotate(331 361 4)" width="59" x="619" y="440" /><line stroke="rgb(59, 91, 78)" stroke-width="2.4349481680485114" x1="430" x2="828" y1="445" y2="344" /><line stroke="rgb(214, 214, 226)" stroke-width="2.0514655609177153" x1="970" x2="24" y1="571" y2="458" /><line stroke="rgb(187, 78, 128)" stroke-width="1.67496382187418" x1="856" x2="143" y1="251" y2="29" /><line stroke="rgb(186, 50, 94)" stroke-width="2.926790098153724" x1="749" x2="72" y1="571" y2="691" /><line stroke="rgb(69, 180, 223)" stroke-width="2.8775731559317688" x1="166" x2="257" y1="220" y2="138" /><line stroke="rgb(5, 218, 251)" stroke-width="0.6249253464390001" x1="707" x2="196" y1="672" y2="375" /><line stroke="rgb(199, 156, 166)" stroke-width="2.8503836397640048" x1="642" x2="844" y1="688" y2="168" /><line stroke="rgb(66, 54, 234)" stroke-width="1.0763863425698623" x1="556" x2="246" y1="440" y2="35" /><line stroke="rgb(49, 57, 232)" stroke-width="0.7628672103371033" x1="4" x2="385" y1="553" y2="654" /><line stroke="rgb(21, 246, 233)" stroke-width="0.8629226077877856" x1="243" x2="612" y1="306" y2="426" /><line stroke="rgb(72, 246, 238)" stroke-width="1.3703936257794311" x1="0" x2="84" y1="233" y2="590" /><line stroke="rgb(64, 132, 45)" stroke-width="2.517897668166059" x1="127" x2="426" y1="139" y2="672" /><line stroke="rgb(161, 143, 29)" stroke-width="2.6253720245869108" x1="63" x2="412" y1="602" y2="168" /><line stroke="rgb(44, 111, 97)" stroke-width="2.9530460113739996" x1="923" x2="600" y1="654" y2="369" /><line stroke="rgb(194, 32, 170)" stroke-width="2.5539362300628965" x1="597" x2="23" y1="706" y2="706" /><line stroke="rgb(107, 248, 204)" stroke-width="2.5602990691705725" x1="647" x2="118" y1="5" y2="707" /><circle cx="188" cy="523" fill="none" opacity="0.8940363848993667" r="163" stroke="rgb(31, 203, 184)" stroke-width="2.8246541393776914" /><circle cx="389" cy="637" fill="none" opacity="0.5983442854949381" r="63" stroke="rgb(190, 249, 104)" stroke-width="1.5298426280017783" /><line stroke="rgb(205, 54, 104)" stroke-width="0.7924426259382507" x1="427" x2="727" y1="349" y2="300" /><line stroke="rgb(186, 60, 84)" stroke-width="2.1774948823491522" x1="366" x2="585" y1="121" y2="285" /><line stroke="rgb(134, 85, 132)" stroke-width="2.343804110621325" x1="619" x2="744" y1="280" y2="288" /><line stroke="rgb(228, 139, 116)" stroke-width="2.74216366882434" x1="787" x2="801" y1="292" y2="332" /><line stroke="rgb(73, 204, 221)" stroke-width="0.7135274451584895" x1="231" x2="978" y1="510" y2="636" /><line stroke="rgb(13, 74, 213)" stroke-width="2.3435177278251835" x1="21" x2="333" y1="596" y2="21" /><line stroke="rgb(158, 74, 91)" stroke-width="1.2942414135514557" x1="659" x2="339" y1="144" y2="428" /><line stroke="rgb(182, 217, 208)" stroke-width="0.7665213067981459" x1="524" x2="346" y1="193" y2="127" /><circle cx="202" cy="553" fill="none" opacity="0.9860743208827754" r="173" stroke="rgb(80, 17, 57)" stroke-width="2.9334680172900627" /><line stroke="rgb(106, 200, 200)" stroke-width="0.7459327108783549" x1="278" x2="1013" y1="471" y2="420" /><line stroke="rgb(125, 131, 4)" stroke-width="0.9737953995062119" x1="544" x2="765" y1="636" y2="528" /><line stroke="rgb(249, 91, 50)" stroke-width="0.900625532912601" x1="504" x2="681" y1="370" y2="360" /><line stroke="rgb(239, 248, 125)" stroke-width="1.7067066342118418" x1="766" x2="90" y1="496" y2="248" /><line stroke="rgb(90, 141, 184)" stroke-width="2.574306364974248" x1="122" x2="705" y1="645" y2="426" /><path d="M277,126 Q573,622 879,653 C562,85 322,625 920,15 C660,581 444,222 520,397 L542,90" fill="none" stroke="rgb(73, 151, 139)" stroke-width="0.7374507230492386" /><line stroke="rgb(209, 247, 51)" stroke-width="2.1856852263936846" x1="1041" x2="413" y1="65" y2="366" /><line stroke="rgb(244, 169, 156)" stroke-width="2.1657756788217446" x1="695" x2="135" y1="468" y2="455" /><line stroke="rgb(39, 200, 204)" stroke-width="2.4976203881285013" x1="773" x2="158" y1="513" y2="646" /><line stroke="rgb(116, 122, 253)" stroke-width="2.8895197229005287" x1="235" x2="931" y1="643" y2="361" /><line stroke="rgb(111, 229, 38)" stroke-width="0.5751604004655446" x1="37" x2="142" y1="677" y2="592" /><line stroke="rgb(60, 86, 192)" stroke-width="1.4242180415067431" x1="631" x2="217" y1="370" y2="321" /><circle cx="570" cy="174" fill="none" opacity="0.8212374868940144" r="75" stroke="rgb(78, 141, 112)" stroke-width="2.0669675432953816" /><path d="M756,287 Q457,540 856,593 Q469,263 616,403 C19,88 1040,153 161,26 C564,210 350,277 190,537" fill="none" stroke="rgb(133, 245, 15)" stroke-width="1.0092181722269065" /><polygon fill="none" points="75,111 766,661 30,668 804,227 819,625 830,459 4,376" stroke="rgb(146, 79, 224)" stroke-width="2.125376606590042" /><path d="M875,27 L314,350 L864,523 L770,16 L681,403" fill="none" stroke="rgb(64, 199, 183)" stroke-width="0.9104647045459873" /><rect fill="none" height="22" stroke="rgb(119, 219, 218)" stroke-width="1.0875655000385833" transform="rotate(25 181 329)" width="36" x="256" y="28" /><polygon fill="none" points="71,484 1032,358 439,562 1028,131 397,551 651,104 281,452" stroke="rgb(248, 250, 23)" stroke-width="1.0509148114266347" /><circle cx="477" cy="636" fill="none" opacity="0.5790983567615424" r="135" stroke="rgb(88, 29, 161)" stroke-width="3.612331744846734" /><rect fill="none" height="28" stroke="rgb(209, 5, 5)" stroke-width="4.859089775718437" transform="rotate(70 837 637)" width="36" x="836" y="132" /></svg>