<svg baseProfile="full" height="477px" version="1.1" width="924px" xmlns="http://www.w3.org/2000/svg" xmlns:ev="http://www.w3.org/2001/xml-events" xmlns:xlink="http://www.w3.org/1999/xlink"><defs /><rect fill="rgb(225, 217, 208)" height="477px" width="924px" x="0" y="0" /><circle cx="644" cy="151" fill="none" opacity="0.847105245238799" r="111" stroke="rgb(204, 226, 88)" stroke-width="2.881712813451876" /><circle cx="591" cy="389" fill="none" opacity="0.6185331616169278" r="41" stroke="rgb(93, 207, 143)" stroke-width="1.391589722883531" /><polygon fill="none" points="848,92 329,378 557,39 551,377" stroke="rgb(159, 29, 89)" stroke-width="3.4198469013134" /><rect fill="none" height="106" stroke="rgb(147, 244, 161)" stroke-width="2.2671005968221887" transform="rotate(94 762 46)" width="122" x="126" y="19" /><circle cx="575" cy="266" fill="none" opacity="0.871020414628902" r="50" stroke="rgb(51, 243, 234)" stroke-width="1.159835333489035" /><polygon fill="none" points="682,248 900,265 654,358 836,310 305,183 201,160 494,74" stroke="rgb(92, 32, 39)" stroke-width="2.350096856139877" /><polygon fill="none" points="236,335 27,39 196,286 521,327 196,385 167,158 449,79 498,146" stroke="rgb(24, 216, 39)" stroke-width="3.0735616696110366" /><path d="M868,364 L816,56 C307,391 174,0 320,361 Q575,320 11,407" fill="none" stroke="rgb(22, 188, 195)" stroke-width="1.0641911221214713" /><path d="M919,216 L831,89 C922,381 10,419 14,86 L652,115 L728,39 L414,405 Q906,287 461,210 L830,1" fill="none" stroke="rgb(93, 130, 10)" stroke-width="1.8544588627079837" /><path d="M275,118 L831,29 L921,0 Q291,266 784,40 Q433,338 625,10 C696,205 728,317 265,261 L671,39" fill="none" stroke="rgb(132, 83, 139)" stroke-width="1.6709783929081947" /><polygon fill="none" points="143,399 518,296 510,168 424,31 543,282 135,354" stroke="rgb(112, 43, 123)" stroke-width="1.7302619524072214" /><circle cx="652" cy="202" fill="none" opacity="0.9491669375508265" r="40" stroke="rgb(45, 162, 249)" stroke-width="1.5317213961918297" /><rect fill="none" height="189" stroke="rgb(106, 129, 16)" stroke-width="4.274276291730983" transform="rotate(155 366 150)" width="79" x="46" y="128" /><circle cx="538" cy="410" fill="none" opacity="0.9812759508931823" r="85" stroke="rgb(52, 113, 108)" stroke-width="2.997905658057728" /><rect fill="none" height="73" stroke="rgb(95, 212, 73)" stroke-width="1.3157326361893407" transform="rotate(222 902 110)" width="70" x="176" y="222" /><polygon fill="none" points="713,411 315,316 5,338 392,142 504,299 97,311 253,351" stroke="rgb(151, 130, 137)" stroke-width="1.0821226818528822" /><path d="M730,164 Q540,469 655,172 L786,448 L793,268 Q156,107 125,397 C555,171 772,339 79,177" fill="none" stroke="rgb(107, 22, 117)" stroke-width="0.5293551730487535" /><polygon fill="none" points="422,29 194,18 273,223 568,284 853,302 103,4 825,203 613,264" stroke="rgb(11, 136, 128)" stroke-width="1.8685646649311587" /><circle cx="184" cy="136" fill="none" opacity="0.44623914832014555" r="110" stroke="rgb(146, 62, 232)" stroke-width="3.46488425927043" /><polygon fill="none" points="305,160 532,189 190,306 233,354 235,429 864,249 582,228" stroke="rgb(212, 200, 183)" stroke-width="3.033757943288111" /><line stroke="rgb(93, 40, 53)" stroke-width="2.6292237617784817" x1="341" x2="825" y1="139" y2="392" /><line stroke="rgb(79, 4, 63)" stroke-width="1.440075539487904" x1="747" x2="470" y1="24" y2="243" /><line stroke="rgb(217, 185, 246)" stroke-width="2.1059126200188576" x1="156" x2="551" y1="203" y2="96" /><line stroke="rgb(126, 50, 211)" stroke-width="2.4634895183887924" x1="177" x2="47" y1="320" y2="404" /><line stroke="rgb(170, 117, 25)" stroke-width="0.7851332583941759" x1="73" x2="895" y1="398" y2="52" /><line stroke="rgb(65, 180, 219)" stroke-width="2.7497149895237074" x1="63" x2="210" y1="395" y2="381" /><line stroke="rgb(99, 201, 181)" stroke-width="0.6273388654696297" x1="593" x2="285" y1="123" y2="293" /><line stroke="rgb(252, 124, 240)" stroke-width="2.2646313545247416" x1="434" x2="180" y1="245" y2="386" /><line stroke="rgb(11, 10, 218)" stroke-width="2.5079149681168342" x1="753" x2="54" y1="200" y2="383" /><path d="M17,266 Q231,266 776,131 Q216,447 475,234 L826,4" fill="none" stroke="rgb(18, 211, 199)" stroke-width="2.576015396705223" /><circle cx="359" cy="291" fill="none" opacity="0.4325222738180578" r="94" stroke="rgb(60, 46, 111)" stroke-width="0.8812008241935887" /><circle cx="453" cy="331" fill="none" opacity="0.44325811953530475" r="63" stroke="rgb(77, 59, 85)" stroke-width="3.739839928973336" /><line stroke="rgb(158, 167, 163)" stroke-width="1.8210327488817435" x1="332" x2="273" y1="340" y2="126" /><line stroke="rgb(45, 58, 244)" stroke-width="1.3079669226034834" x1="887" x2="385" y1="151" y2="17" /><line stroke="rgb(191, 11, 77)" stroke-width="1.2288939841176865" x1="605" x2="365" y1="107" y2="328" /><line stroke="rgb(244, 123, 147)" stroke-width="0.9417756529721117" x1="501" x2="707" y1="450" y2="456" /><line stroke="rgb(73, 100, 144)" stroke-width="0.5727000929244939" x1="6" x2="90" y1="345" y2="352" /><line stroke="rgb(21, 203, 116)" stroke-width="2.617715193104939" x1="238" x2="64" y1="201" y2="188" /><line stroke="rgb(222, 181, 30)" stroke-width="2.9239662885292264" x1="913" x2="5" y1="0" y2="20" /><line stroke="rgb(212, 73, 7)" stroke-width="2.081562205714405" x1="814" x2="208" y1="273" y2="331" /><line stroke="rgb(65, 186, 149)" stroke-width="1.2733564069462975" x1="253" x2="657" y1="331" y2="311" /><line stroke="rgb(98, 200, 122)" stroke-width="2.573378466325306" x1="751" x2="908" y1="231" y2="231" /><line stroke="rgb(206, 21, 236)" stroke-width="2.271990979789348" x1="34" x2="336" y1="464" y2="173" /><line stroke="rgb(102, 105, 148)" stroke-width="1.5455789893904235" x1="126" x2="634" y1="286" y2="320" /><line stroke="rgb(200, 188, 130)" stroke-width="0.9549137606060325" x1="758" x2="676" y1="86" y2="281" /><line stroke="rgb(65, 59, 98)" stroke-width="1.0623963966955017" x1="661" x2="275" y1="277" y2="129" /><line stroke="rgb(4, 90, 216)" stroke-width="2.3765527295622437" x1="144" x2="821" y1="432" y2="94" /><line stroke="rgb(2, 204, 99)" stroke-width="0.8560515658703323" x1="837" x2="90" y1="148" y2="210" /><line stroke="rgb(222, 191, 167)" stroke-width="1.4893092471692067" x1="182" x2="724" y1="201" y2="198" /><line stroke="rgb(119, 170, 101)" stroke-width="1.7174887926480675" x1="642" x2="323" y1="157" y2="297" /><circle cx="806" cy="225" fill="none" opacity="0.8082380852982887" r="101" stroke="rgb(226, 223, 66)" stroke-width="2.4724111972638165" /><line stroke="rgb(251, 227, 70)" stroke-width="2.1157437872960188" x1="573" x2="725" y1="354" y2="463" /><line stroke="rgb(37, 2, 242)" stroke-width="2.2216521370281503" x1="163" x2="387" y1="466" y2="193" /><line stroke="rgb(242, 242, 153)" stroke-width="1.8310264470646138" x1="353" x2="497" y1="33" y2="273" /><line stroke="rgb(13, 83, 159)" stroke-width="2.998738048092512" x1="345" x2="844" y1="258" y2="204" /><line stroke="rgb(122, 61, 31)" stroke-width="2.1544164808342723" x1="914" x2="920" y1="347" y2="185" /><line stroke="rgb(52, 176, 35)" stroke-width="2.0895207292843856" x1="447" x2="112" y1="100" y2="10" /><line stroke="rgb(35, 130, 188)" stroke-width="0.9335086107446678" x1="349" x2="31" y1="373" y2="354" /><line stroke="rgb(92, 140, 137)" stroke-width="1.256396798197259" x1="837" x2="785" y1="101" y2="463" /><rect fill="none" height="195" stroke="rgb(117, 118, 23)" stroke-width="4.567023361750337" transform="rotate(94 570 197)" width="23" x="175" y="224" /><rect fill="none" height="169" stroke="rgb(232, 217, 37)" stroke-width="4.31770124276562" transform="rotate(39 671 114)" width="101" x="525" y="64" /><polygon fill="none" points="304,14 21,22 422,333 510,87 583,251 302,423" stroke="rgb(254, 31, 110)" stroke-width="2.065651622321227" /><polygon fill="none" points="557,335 642,231 101,74 76,64" stroke="rgb(34, 85, 4)" stroke-width="3.8093975974575915" /><rect fill="none" height="172" stroke="rgb(165, 139, 254)" stroke-width="3.249859452774584" transform="rotate(273 0 192)" width="60" x="363" y="74" /><polygon fill="none" points="735,235 673,431 761,154 902,423 68,233" stroke="rgb(198, 175, 165)" stroke-width="3.4363921235274173" /><rect fill="none" height="163" stroke="rgb(130, 83, 151)" stroke-width="3.018767160733344" transform="rotate(60 843 397)" width="129" x="598" y="305" /><polygon fill="none" points="309,170 387,38 340,143 610,359 698,155 38,428" stroke="rgb(211, 217, 2)" stroke-width="2.105107094088833" /><polygon fill="none" points="699,195 553,42 841,428" stroke="rgb(190, 200, 16)" stroke-width="0.9041812251238418" /><circle cx="282" cy="314" fill="none" opacity="0.5378005333005378" r="91" stroke="rgb(199, 79, 77)" stroke-width="4.130135272922241" /><circle cx="388" cy="77" fill="none" opacity="0.8463006347761577" r="50" stroke="rgb(44, 61, 9)" stroke-width="1.5820078708625214" /><line stroke="rgb(154, 113, 141)" stroke-width="0.5544255938914271" x1="772" x2="897" y1="141" y2="82" /><line stroke="rgb(254, 251, 134)" stroke-width="1.3306805701767759" x1="559" x2="718" y1="456" y2="195" /><line stroke="rgb(189, 18, 98)" stroke-width="0.8968038701173626" x1="120" x2="29" y1="471" y2="257" /><line stroke="rgb(33, 135, 146)" stroke-width="1.4857200371672956" x1="184" x2="915" y1="275" y2="331" /><line stroke="rgb(42, 198, 58)" stroke-width="0.9704492561211271" x1="574" x2="903" y1="73" y2="30" /><line stroke="rgb(148, 7, 47)" stroke-width="1.1637011532106964" x1="308" x2="645" y1="252" y2="307" /><line stroke="rgb(51, 15, 45)" stroke-width="0.5690017806654506" x1="837" x2="826" y1="454" y2="60" /><line stroke="rgb(213, 40, 176)" stroke-width="2.1187585155711908" x1="623" x2="475" y1="7" y2="286" /><line stroke="rgb(24, 49, 223)" stroke-width="2.9816467086186713" x1="777" x2="592" y1="393" y2="464" /><path d="M890,5 C591,273 218,471 477,374 L539,370 Q679,136 640,115 C65,153 120,239 908,206" fill="none" stroke="rgb(153, 102, 31)" stroke-width="1.2941847195148855" /></svg>