<svg baseProfile="full" height="789px" version="1.1" width="856px" xmlns="http://www.w3.org/2000/svg" xmlns:ev="http://www.w3.org/2001/xml-events" xmlns:xlink="http://www.w3.org/1999/xlink"><defs /><rect fill="rgb(248, 223, 228)" height="789px" width="856px" x="0" y="0" /><polygon fill="none" points="72,218 224,300 417,52 386,217 466,509 853,693 234,544 688,720" stroke="rgb(7, 170, 22)" stroke-width="0.7210616925832323" /><path d="M496,217 Q329,612 83,163 L718,723 Q697,709 748,553 C773,756 241,363 242,351 Q392,131 612,343" fill="none" stroke="rgb(18, 23, 67)" stroke-width="0.9456315227350882" /><line stroke="rgb(46, 63, 158)" stroke-width="0.9683230712007075" x1="331" x2="468" y1="545" y2="94" /><line stroke="rgb(38, 252, 33)" stroke-width="2.0290946901438973" x1="325" x2="278" y1="534" y2="591" /><line stroke="rgb(239, 146, 48)" stroke-width="1.691378610699415" x1="702" x2="630" y1="95" y2="227" /><line stroke="rgb(82, 234, 217)" stroke-width="1.408493781581627" x1="430" x2="551" y1="262" y2="345" /><line stroke="rgb(77, 21, 42)" stroke-width="1.0651774761992132" x1="519" x2="196" y1="36" y2="325" /><polygon fill="none" points="606,655 431,512 780,180 353,657 471,218" stroke="rgb(14, 227, 48)" stroke-width="2.092069180983914" /><circle cx="387" cy="126" fill="none" opacity="0.6753217832254038" r="72" stroke="rgb(172, 0, 28)" stroke-width="0.9492408221769184" /><circle cx="546" cy="520" fill="none" opacity="0.7739223595361086" r="174" stroke="rgb(105, 64, 135)" stroke-width="4.5210390709917965" /><polygon fill="none" points="40,543 829,589 111,709 206,661 356,235 137,54 647,71" stroke="rgb(82, 63, 97)" stroke-width="2.5320416373333914" /><path d="M195,124 C573,146 252,568 487,729 L235,338 Q541,632 164,5" fill="none" stroke="rgb(138, 14, 137)" stroke-width="1.1143527442669634" /><polygon fill="none" points="75,203 698,336 288,702 187,748" stroke="rgb(153, 44, 206)" stroke-width="0.6881664911285277" /><polygon fill="none" points="672,762 831,610 4,603 358,712" stroke="rgb(214, 26, 1)" stroke-width="3.1145538649638924" /><line stroke="rgb(154, 156, 71)" stroke-width="2.8523941040191394" x1="741" x2="581" y1="482" y2="164" /><line stroke="rgb(170, 127, 51)" stroke-width="2.5788883611066957" x1="203" x2="304" y1="212" y2="9" /><line stroke="rgb(249, 9, 121)" stroke-width="1.737549481941779" x1="359" x2="218" y1="90" y2="555" /><line stroke="rgb(234, 16, 92)" stroke-width="1.6756543839757438" x1="307" x2="442" y1="405" y2="538" /><line stroke="rgb(87, 139, 244)" stroke-width="1.0036513628685624" x1="775" x2="373" y1="730" y2="297" /><line stroke="rgb(123, 81, 119)" stroke-width="1.4244845440589697" x1="69" x2="406" y1="729" y2="709" /><line stroke="rgb(153, 179, 90)" stroke-width="0.8725194535251721" x1="618" x2="272" y1="767" y2="415" /><line stroke="rgb(96, 207, 73)" stroke-width="1.5174171500515785" x1="732" x2="319" y1="84" y2="230" /><line stroke="rgb(189, 158, 143)" stroke-width="1.9128804480641994" x1="810" x2="42" y1="739" y2="232" /><line stroke="rgb(137, 160, 80)" stroke-width="1.7565392274421523" x1="359" x2="375" y1="394" y2="597" /><line stroke="rgb(197, 51, 67)" stroke-width="1.7135967670769434" x1="164" x2="702" y1="162" y2="370" /><line stroke="rgb(220, 40, 9)" stroke-width="1.3690785564149688" x1="287" x2="810" y1="536" y2="358" /><line stroke="rgb(33, 126, 103)" stroke-width="1.187058571124837" x1="38" x2="91" y1="471" y2="170" /><polygon fill="none" points="334,426 532,662 592,391" stroke="rgb(58, 6, 91)" stroke-width="3.8936442707947605" /><polygon fill="none" points="519,591 541,202 717,566 660,475 508,630 572,788" stroke="rgb(155, 135, 100)" stroke-width="1.4248378189443418" /><path d="M484,635 L406,569 Q437,199 750,660 C108,114 531,640 8,378 Q778,772 465,414 Q488,106 131,557" fill="none" stroke="rgb(140, 242, 59)" stroke-width="1.264493165332237" /><line stroke="rgb(120, 241, 114)" stroke-width="2.2613702832681395" x1="844" x2="741" y1="680" y2="139" /><line stroke="rgb(238, 222, 119)" stroke-width="2.702467433553281" x1="739" x2="212" y1="540" y2="593" /><line stroke="rgb(237, 161, 221)" stroke-width="1.0206391563515904" x1="761" x2="829" y1="282" y2="783" /><line stroke="rgb(35, 253, 56)" stroke-width="0.6598850845135649" x1="487" x2="85" y1="771" y2="444" /><line stroke="rgb(19, 48, 253)" stroke-width="2.629199071333204" x1="321" x2="161" y1="603" y2="624" /><line stroke="rgb(92, 176, 6)" stroke-width="0.7459262810422977" x1="53" x2="168" y1="202" y2="201" /><line stroke="rgb(123, 50, 228)" stroke-width="1.2660587606672167" x1="599" x2="170" y1="712" y2="679" /><rect fill="none" height="145" stroke="rgb(64, 160, 151)" stroke-width="1.8123618044838792" transform="rotate(26 782 665)" width="85" x="565" y="291" /><circle cx="564" cy="120" fill="none" opacity="0.9426448392848872" r="131" stroke="rgb(75, 150, 161)" stroke-width="4.135414969678429" /><line stroke="rgb(53, 248, 28)" stroke-width="1.3465828464712684" x1="759" x2="723" y1="229" y2="550" /><line stroke="rgb(205, 45, 179)" stroke-width="2.7711697318751027" x1="666" x2="809" y1="492" y2="482" /><line stroke="rgb(120, 207, 22)" stroke-width="0.8290249560972212" x1="621" x2="836" y1="600" y2="11" /><polygon fill="none" points="405,445 133,30 596,131 244,221" stroke="rgb(104, 43, 164)" stroke-width="2.809747984305133" /><path d="M295,171 Q402,14 638,224 Q610,109 408,67 L141,8 L576,326 L194,289 C632,187 538,155 482,303" fill="none" stroke="rgb(219, 235, 40)" stroke-width="1.660492668513815" /><line stroke="rgb(129, 61, 206)" stroke-width="0.9141781876864375" x1="443" x2="184" y1="181" y2="631" /><line stroke="rgb(232, 199, 97)" stroke-width="0.8909160203077424" x1="6" x2="467" y1="302" y2="449" /><line stroke="rgb(73, 149, 54)" stroke-width="1.7338657022505426" x1="844" x2="821" y1="664" y2="537" /><line stroke="rgb(44, 4, 6)" stroke-width="2.5905182284013573" x1="705" x2="152" y1="697" y2="296" /><line stroke="rgb(10, 175, 220)" stroke-width="2.1884682674227074" x1="549" x2="469" y1="533" y2="438" /><line stroke="rgb(36, 197, 177)" stroke-width="2.5677416780250346" x1="198" x2="8" y1="633" y2="459" /><line stroke="rgb(131, 117, 185)" stroke-width="1.660292699306349" x1="404" x2="296" y1="693" y2="386" /><line stroke="rgb(166, 180, 109)" stroke-width="1.7470268995211897" x1="583" x2="654" y1="642" y2="545" /><line stroke="rgb(125, 68, 77)" stroke-width="2.14139024243934" x1="257" x2="465" y1="450" y2="608" /><line stroke="rgb(155, 202, 102)" stroke-width="0.6389215065743263" x1="327" x2="1" y1="361" y2="642" /><line stroke="rgb(136, 116, 89)" stroke-width="2.238859941928446" x1="92" x2="187" y1="664" y2="234" /><line stroke="rgb(2, 99, 226)" stroke-width="2.8313320237236943" x1="847" x2="830" y1="128" y2="481" /><line stroke="rgb(237, 150, 208)" stroke-width="1.1360562713995097" x1="202" x2="551" y1="45" y2="574" /><line stroke="rgb(26, 141, 245)" stroke-width="1.2381907693610548" x1="538" x2="729" y1="585" y2="524" /><line stroke="rgb(197, 23, 96)" stroke-width="0.5271080946725968" x1="564" x2="830" y1="727" y2="346" /><line stroke="rgb(9, 85, 239)" stroke-width="1.5381137111592587" x1="725" x2="53" y1="548" y2="564" /><line stroke="rgb(252, 220, 224)" stroke-width="2.944077222405889" x1="233" x2="707" y1="178" y2="558" /><line stroke="rgb(67, 219, 240)" stroke-width="1.1637161641018363" x1="423" x2="684" y1="626" y2="641" /><rect fill="none" height="135" stroke="rgb(82, 103, 238)" stroke-width="4.814503065613319" transform="rotate(229 734 147)" width="57" x="346" y="176" /><rect fill="none" height="78" stroke="rgb(86, 192, 4)" stroke-width="1.2986887663595548" transform="rotate(339 214 718)" width="26" x="304" y="332" /><rect fill="none" height="163" stroke="rgb(120, 232, 39)" stroke-width="2.124649293080501" transform="rotate(81 505 473)" width="34" x="560" y="438" /><polygon fill="none" points="1,329 793,577 391,44 225,244 379,740 351,538 232,405" stroke="rgb(102, 255, 36)" stroke-width="0.6949837985907548" /><rect fill="none" height="120" stroke="rgb(74, 176, 41)" stroke-width="3.608621944408641" transform="rotate(144 445 616)" width="129" x="316" y="593" /><path d="M117,313 L52,152 Q841,25 742,500 Q828,369 789,443 Q578,495 260,316 L826,460 L363,273 Q30,279 72,181" fill="none" stroke="rgb(3, 62, 208)" stroke-width="0.5328817570089626" /><circle cx="164" cy="428" fill="none" opacity="0.8443872260883443" r="167" stroke="rgb(89, 196, 88)" stroke-width="1.811851941695292" /><path d="M25,679 Q104,591 642,491 Q395,611 374,39 Q764,606 779,645" fill="none" stroke="rgb(182, 36, 124)" stroke-width="0.9874265238055033" /><line stroke="rgb(24, 57, 214)" stroke-width="1.640522136575899" x1="238" x2="409" y1="753" y2="60" /><line stroke="rgb(116, 167, 172)" stroke-width="1.105311097222895" x1="371" x2="777" y1="396" y2="31" /><line stroke="rgb(54, 11, 77)" stroke-width="1.9425929160677906" x1="250" x2="125" y1="293" y2="64" /><line stroke="rgb(128, 240, 253)" stroke-width="2.973268826827003" x1="121" x2="502" y1="270" y2="361" /><line stroke="rgb(222, 44, 225)" stroke-width="2.2031290086693347" x1="523" x2="601" y1="54" y2="107" /><line stroke="rgb(255, 232, 52)" stroke-width="2.953538400962717" x1="707" x2="59" y1="74" y2="45" /><rect fill="none" height="138" stroke="rgb(114, 86, 173)" stroke-width="4.053913275003637" transform="rotate(170 59 27)" width="130" x="356" y="114" /><rect fill="none" height="96" stroke="rgb(55, 165, 185)" stroke-width="2.475772498243547" transform="rotate(356 258 92)" width="134" x="253" y="156" /><path d="M701,95 L852,647 Q457,214 403,286 L807,195" fill="none" stroke="rgb(95, 13, 238)" stroke-width="0.8742548133798942" /><rect fill="none" height="105" stroke="rgb(121, 48, 57)" stroke-width="2.4300931070289344" transform="rotate(257 94 473)" width="179" x="594" y="652" /><polygon fill="none" points="35,760 380,383 494,192" stroke="rgb(189, 99, 44)" stroke-width="2.3755971307074812" /></svg>