<svg baseProfile="full" height="730px" version="1.1" width="734px" xmlns="http://www.w3.org/2000/svg" xmlns:ev="http://www.w3.org/2001/xml-events" xmlns:xlink="http://www.w3.org/1999/xlink"><defs /><rect fill="rgb(226, 235, 243)" height="730px" width="734px" x="0" y="0" /><line stroke="rgb(66, 13, 73)" stroke-width="1.9151772883064875" x1="263" x2="213" y1="484" y2="160" /><line stroke="rgb(21, 203, 9)" stroke-width="2.566424285937395" x1="624" x2="678" y1="147" y2="602" /><line stroke="rgb(185, 197, 175)" stroke-width="0.9644747472633746" x1="123" x2="518" y1="280" y2="463" /><line stroke="rgb(221, 144, 81)" stroke-width="2.521142927780267" x1="406" x2="614" y1="246" y2="718" /><line stroke="rgb(126, 203, 41)" stroke-width="2.8525226306296174" x1="374" x2="324" y1="352" y2="220" /><line stroke="rgb(214, 36, 203)" stroke-width="2.6786673450796306" x1="488" x2="604" y1="708" y2="155" /><line stroke="rgb(217, 11, 140)" stroke-width="0.9352473360327613" x1="329" x2="92" y1="340" y2="407" /><line stroke="rgb(96, 151, 151)" stroke-width="2.3937046662571317" x1="160" x2="303" y1="675" y2="333" /><line stroke="rgb(242, 92, 219)" stroke-width="1.8207481589228067" x1="238" x2="303" y1="723" y2="531" /><line stroke="rgb(219, 72, 66)" stroke-width="1.9696921804296008" x1="474" x2="86" y1="712" y2="485" /><line stroke="rgb(153, 63, 40)" stroke-width="2.1854183500545226" x1="34" x2="352" y1="234" y2="336" /><line stroke="rgb(39, 50, 97)" stroke-width="2.0296456060120587" x1="260" x2="651" y1="129" y2="67" /><line stroke="rgb(99, 223, 145)" stroke-width="2.5441437110522527" x1="229" x2="600" y1="609" y2="242" /><line stroke="rgb(34, 175, 6)" stroke-width="0.777133797563211" x1="434" x2="100" y1="34" y2="124" /><line stroke="rgb(109, 151, 43)" stroke-width="1.5453887937457393" x1="109" x2="653" y1="502" y2="354" /><line stroke="rgb(178, 137, 200)" stroke-width="1.4300036315808344" x1="109" x2="528" y1="232" y2="174" /><line stroke="rgb(157, 187, 66)" stroke-width="2.5395087675875203" x1="326" x2="670" y1="129" y2="351" /><circle cx="634" cy="569" fill="none" opacity="0.47467098219715476" r="177" stroke="rgb(38, 204, 168)" stroke-width="4.496645011193895" /><circle cx="563" cy="359" fill="none" opacity="0.41938546996070003" r="101" stroke="rgb(100, 224, 145)" stroke-width="1.2383336131141687" /><line stroke="rgb(226, 249, 25)" stroke-width="1.2701734308478094" x1="490" x2="674" y1="79" y2="715" /><line stroke="rgb(20, 91, 159)" stroke-width="0.7968995846726254" x1="474" x2="262" y1="487" y2="311" /><line stroke="rgb(108, 243, 76)" stroke-width="2.27878042594646" x1="693" x2="595" y1="545" y2="335" /><line stroke="rgb(140, 162, 232)" stroke-width="0.5434100799547901" x1="675" x2="110" y1="179" y2="235" /><line stroke="rgb(205, 58, 205)" stroke-width="2.2757833937387844" x1="62" x2="338" y1="542" y2="520" /><line stroke="rgb(71, 63, 232)" stroke-width="2.3079902526014666" x1="95" x2="230" y1="383" y2="663" /><line stroke="rgb(179, 236, 52)" stroke-width="0.9392613690869487" x1="189" x2="267" y1="528" y2="649" /><line stroke="rgb(144, 66, 235)" stroke-width="1.2282179718037083" x1="334" x2="622" y1="360" y2="563" /><path d="M359,411 C125,617 713,179 621,398 C274,171 491,559 157,39 L128,24 Q539,32 378,475 Q570,646 694,163" fill="none" stroke="rgb(23, 23, 34)" stroke-width="1.2738253695944608" /><circle cx="354" cy="478" fill="none" opacity="0.8229706103898067" r="72" stroke="rgb(179, 217, 105)" stroke-width="2.557992392904089" /><line stroke="rgb(133, 189, 5)" stroke-width="1.3165198030136742" x1="28" x2="136" y1="147" y2="576" /><line stroke="rgb(25, 170, 4)" stroke-width="1.4888509259661473" x1="712" x2="88" y1="599" y2="502" /><line stroke="rgb(214, 32, 79)" stroke-width="1.6615474952763771" x1="457" x2="370" y1="587" y2="377" /><line stroke="rgb(57, 28, 73)" stroke-width="1.6165541099155976" x1="429" x2="658" y1="6" y2="20" /><line stroke="rgb(99, 254, 109)" stroke-width="1.4789966808124548" x1="391" x2="704" y1="406" y2="530" /><line stroke="rgb(138, 31, 49)" stroke-width="1.9132248276165642" x1="678" x2="166" y1="454" y2="354" /><line stroke="rgb(102, 30, 90)" stroke-width="1.2556212124833894" x1="265" x2="517" y1="169" y2="270" /><line stroke="rgb(245, 149, 35)" stroke-width="1.5320793245872033" x1="18" x2="363" y1="620" y2="303" /><line stroke="rgb(214, 138, 215)" stroke-width="0.9503564545361999" x1="532" x2="656" y1="348" y2="357" /><line stroke="rgb(2, 129, 161)" stroke-width="2.8943232909015704" x1="603" x2="352" y1="598" y2="64" /><line stroke="rgb(169, 89, 100)" stroke-width="1.8449541690621474" x1="190" x2="711" y1="384" y2="554" /><line stroke="rgb(134, 174, 231)" stroke-width="0.9053982815779735" x1="726" x2="420" y1="131" y2="381" /><line stroke="rgb(56, 246, 111)" stroke-width="0.904884417747541" x1="641" x2="60" y1="543" y2="4" /><line stroke="rgb(232, 95, 83)" stroke-width="1.7686897797075358" x1="714" x2="346" y1="592" y2="685" /><line stroke="rgb(102, 146, 83)" stroke-width="0.8876126325324697" x1="102" x2="249" y1="487" y2="215" /><line stroke="rgb(174, 159, 182)" stroke-width="0.7067071247627028" x1="442" x2="280" y1="27" y2="239" /><line stroke="rgb(101, 13, 181)" stroke-width="1.357209189694951" x1="283" x2="382" y1="138" y2="104" /><line stroke="rgb(161, 247, 105)" stroke-width="0.7022069304463348" x1="45" x2="234" y1="654" y2="390" /><line stroke="rgb(242, 29, 248)" stroke-width="1.834537905358137" x1="128" x2="45" y1="310" y2="547" /><line stroke="rgb(170, 208, 174)" stroke-width="2.461016946233487" x1="262" x2="201" y1="585" y2="599" /><line stroke="rgb(36, 199, 199)" stroke-width="2.866019381960242" x1="157" x2="137" y1="85" y2="559" /><line stroke="rgb(90, 221, 44)" stroke-width="2.670817491435398" x1="719" x2="331" y1="577" y2="495" /><line stroke="rgb(199, 150, 113)" stroke-width="0.8329350307020568" x1="677" x2="155" y1="422" y2="679" /><line stroke="rgb(97, 23, 68)" stroke-width="2.928102062868345" x1="704" x2="693" y1="178" y2="435" /><line stroke="rgb(61, 65, 60)" stroke-width="2.258039865189394" x1="138" x2="235" y1="241" y2="439" /><polygon fill="none" points="209,588 153,463 226,102 452,104" stroke="rgb(87, 224, 105)" stroke-width="1.18657245428731" /></svg>