<svg baseProfile="full" height="789px" version="1.1" width="714px" xmlns="http://www.w3.org/2000/svg" xmlns:ev="http://www.w3.org/2001/xml-events" xmlns:xlink="http://www.w3.org/1999/xlink"><defs /><rect fill="rgb(234, 238, 225)" height="789px" width="714px" x="0" y="0" /><path d="M466,682 C128,529 507,131 608,408 L502,293 C643,262 584,635 107,715 L346,435 L265,282 C668,478 324,186 469,199" fill="none" stroke="rgb(129, 154, 242)" stroke-width="1.944249471805053" /><circle cx="662" cy="468" fill="none" opacity="0.7205002459035366" r="133" stroke="rgb(146, 183, 136)" stroke-width="0.6710154522027301" /><circle cx="135" cy="728" fill="none" opacity="0.9138723913895108" r="141" stroke="rgb(37, 172, 149)" stroke-width="4.0396290695650094" /><polygon fill="none" points="224,714 497,182 266,406 598,196 549,571 133,44 68,212 464,358" stroke="rgb(212, 46, 90)" stroke-width="1.4674760943877165" /><line stroke="rgb(209, 92, 151)" stroke-width="2.6626950468107746" x1="37" x2="650" y1="727" y2="46" /><line stroke="rgb(205, 210, 23)" stroke-width="0.9737779188531033" x1="562" x2="523" y1="58" y2="381" /><line stroke="rgb(94, 136, 75)" stroke-width="1.610317167169512" x1="437" x2="368" y1="772" y2="731" /><line stroke="rgb(86, 222, 43)" stroke-width="0.7916784063776817" x1="214" x2="5" y1="596" y2="410" /><line stroke="rgb(26, 126, 192)" stroke-width="1.436614502645006" x1="626" x2="148" y1="19" y2="396" /><line stroke="rgb(70, 17, 49)" stroke-width="1.9684506951516374" x1="534" x2="365" y1="110" y2="224" /><line stroke="rgb(34, 19, 149)" stroke-width="2.7518294453644176" x1="355" x2="244" y1="32" y2="121" /><line stroke="rgb(97, 41, 105)" stroke-width="1.8123867518288073" x1="507" x2="453" y1="375" y2="384" /><path d="M489,100 Q149,521 104,316 L440,598 Q594,308 354,127 C246,586 504,156 195,305 C624,89 333,444 193,699 Q410,691 136,48" fill="none" stroke="rgb(136, 102, 117)" stroke-width="2.9627619657831286" /><rect fill="none" height="164" stroke="rgb(196, 210, 8)" stroke-width="0.6934134950918316" transform="rotate(325 236 280)" width="186" x="566" y="200" /><rect fill="none" height="49" stroke="rgb(83, 212, 121)" stroke-width="3.5043669132229347" transform="rotate(239 255 612)" width="53" x="550" y="372" /><circle cx="482" cy="305" fill="none" opacity="0.8684306252384117" r="175" stroke="rgb(29, 189, 71)" stroke-width="0.784546763103221" /><line stroke="rgb(214, 13, 60)" stroke-width="2.579045812535293" x1="389" x2="648" y1="762" y2="510" /><line stroke="rgb(127, 60, 25)" stroke-width="2.040577264765041" x1="438" x2="105" y1="348" y2="654" /><line stroke="rgb(0, 35, 148)" stroke-width="1.2694418899706048" x1="612" x2="13" y1="523" y2="277" /><polygon fill="none" points="542,610 651,490 676,260 46,29" stroke="rgb(163, 25, 186)" stroke-width="1.5108135724188803" /><line stroke="rgb(189, 124, 66)" stroke-width="2.5187414705677185" x1="74" x2="134" y1="400" y2="162" /><line stroke="rgb(250, 111, 234)" stroke-width="2.151970635948617" x1="323" x2="4" y1="733" y2="220" /><line stroke="rgb(83, 182, 175)" stroke-width="2.46600030183518" x1="680" x2="455" y1="724" y2="497" /><line stroke="rgb(240, 20, 194)" stroke-width="2.577823013313596" x1="580" x2="166" y1="622" y2="762" /><line stroke="rgb(200, 113, 206)" stroke-width="2.118238557292723" x1="91" x2="158" y1="35" y2="20" /><line stroke="rgb(243, 10, 155)" stroke-width="2.2173795991521716" x1="233" x2="148" y1="531" y2="694" /><circle cx="658" cy="106" fill="none" opacity="0.8314318385322792" r="128" stroke="rgb(58, 225, 236)" stroke-width="0.5415954852896762" /><line stroke="rgb(124, 171, 19)" stroke-width="1.6500087890176798" x1="474" x2="191" y1="696" y2="617" /><line stroke="rgb(45, 63, 69)" stroke-width="1.9955545281313785" x1="127" x2="229" y1="569" y2="767" /><line stroke="rgb(27, 113, 175)" stroke-width="1.846170537114681" x1="249" x2="61" y1="309" y2="233" /><line stroke="rgb(75, 35, 146)" stroke-width="2.896256517264829" x1="677" x2="267" y1="677" y2="769" /><line stroke="rgb(123, 138, 47)" stroke-width="0.7444994440651957" x1="586" x2="75" y1="571" y2="698" /><line stroke="rgb(87, 86, 28)" stroke-width="1.1568846821496996" x1="366" x2="580" y1="276" y2="115" /><line stroke="rgb(74, 85, 159)" stroke-width="2.1205009109468103" x1="583" x2="425" y1="81" y2="458" /><line stroke="rgb(188, 237, 144)" stroke-width="2.4488299730125282" x1="294" x2="359" y1="106" y2="103" /><line stroke="rgb(3, 217, 163)" stroke-width="0.7532041128478563" x1="439" x2="560" y1="135" y2="406" /><line stroke="rgb(59, 207, 37)" stroke-width="0.7936584685760899" x1="212" x2="639" y1="720" y2="402" /><circle cx="108" cy="294" fill="none" opacity="0.643774675323707" r="75" stroke="rgb(140, 118, 254)" stroke-width="2.606316408665275" /><line stroke="rgb(201, 253, 200)" stroke-width="1.57586955249238" x1="151" x2="91" y1="257" y2="71" /><line stroke="rgb(11, 23, 254)" stroke-width="0.7538914164627095" x1="267" x2="433" y1="312" y2="642" /><line stroke="rgb(158, 93, 216)" stroke-width="2.558369955808961" x1="647" x2="477" y1="589" y2="619" /><line stroke="rgb(171, 46, 110)" stroke-width="0.7004180763766183" x1="351" x2="31" y1="56" y2="385" /></svg>