<svg baseProfile="full" height="576px" version="1.1" width="943px" xmlns="http://www.w3.org/2000/svg" xmlns:ev="http://www.w3.org/2001/xml-events" xmlns:xlink="http://www.w3.org/1999/xlink"><defs /><rect fill="rgb(241, 203, 248)" height="576px" width="943px" x="0" y="0" /><polygon fill="none" points="398,362 666,203 586,282 654,425 158,81" stroke="rgb(20, 183, 81)" stroke-width="1.5371342834623598" /><line stroke="rgb(114, 18, 12)" stroke-width="1.933911259846087" x1="298" x2="529" y1="480" y2="20" /><line stroke="rgb(56, 29, 40)" stroke-width="2.2605857703407257" x1="678" x2="609" y1="215" y2="30" /><line stroke="rgb(128, 35, 134)" stroke-width="2.074617673802493" x1="435" x2="395" y1="452" y2="191" /><line stroke="rgb(138, 248, 47)" stroke-width="2.8309740168394435" x1="132" x2="886" y1="503" y2="498" /><line stroke="rgb(86, 225, 60)" stroke-width="1.3807560925134938" x1="684" x2="103" y1="367" y2="53" /><line stroke="rgb(210, 81, 152)" stroke-width="2.0200338750372744" x1="167" x2="680" y1="347" y2="32" /><rect fill="none" height="30" stroke="rgb(206, 183, 67)" stroke-width="4.373502767326061" transform="rotate(2 582 408)" width="54" x="809" y="356" /><path d="M497,450 L444,191 C665,60 731,114 162,409 C144,554 455,414 705,557 L661,230" fill="none" stroke="rgb(83, 48, 97)" stroke-width="0.9545821446410534" /><rect fill="none" height="92" stroke="rgb(192, 232, 54)" stroke-width="2.331957518035285" transform="rotate(99 597 86)" width="173" x="621" y="253" /><polygon fill="none" points="459,168 347,512 108,356 762,356 628,45 454,431" stroke="rgb(145, 188, 108)" stroke-width="3.022037563569409" /><rect fill="none" height="174" stroke="rgb(205, 199, 230)" stroke-width="4.008707276084239" transform="rotate(51 623 514)" width="47" x="682" y="233" /><rect fill="none" height="108" stroke="rgb(54, 69, 179)" stroke-width="2.295360709182113" transform="rotate(115 699 407)" width="95" x="604" y="309" /><polygon fill="none" points="383,268 166,67 321,536 17,426 155,376 195,139 454,39" stroke="rgb(218, 217, 109)" stroke-width="3.942984023097861" /><polygon fill="none" points="581,564 670,28 527,441 243,154 919,342 69,35" stroke="rgb(245, 94, 55)" stroke-width="1.6840231592525643" /><path d="M188,461 L904,344 Q12,38 19,490 L362,426 L580,373 C508,141 99,124 773,274" fill="none" stroke="rgb(109, 64, 100)" stroke-width="1.3577368288865226" /><circle cx="277" cy="153" fill="none" opacity="0.8748065486445613" r="32" stroke="rgb(41, 110, 43)" stroke-width="3.17377839193235" /><polygon fill="none" points="29,241 617,67 237,527 790,358 177,156" stroke="rgb(231, 140, 143)" stroke-width="2.3584594068346343" /><polygon fill="none" points="834,17 571,268 392,297 248,25" stroke="rgb(90, 73, 33)" stroke-width="0.6205666932426046" /><path d="M767,304 Q431,157 583,317 L700,543 L158,96 L939,378 C725,143 272,549 477,539" fill="none" stroke="rgb(159, 8, 255)" stroke-width="2.2525296408594926" /><polygon fill="none" points="524,300 187,98 762,435 499,571 851,108 226,342" stroke="rgb(9, 151, 71)" stroke-width="3.03207695703252" /><polygon fill="none" points="237,357 111,557 858,157 118,489 681,286 405,251 878,569 89,106" stroke="rgb(40, 202, 134)" stroke-width="0.9243208605708958" /><line stroke="rgb(200, 3, 130)" stroke-width="1.5296497799383486" x1="42" x2="153" y1="418" y2="73" /><line stroke="rgb(191, 157, 33)" stroke-width="1.0219559318869629" x1="182" x2="662" y1="231" y2="70" /><line stroke="rgb(154, 141, 77)" stroke-width="2.358662574766732" x1="153" x2="569" y1="187" y2="358" /><path d="M803,166 C288,396 628,92 870,415 C733,83 242,164 926,182 C300,189 99,155 861,342 Q881,559 479,82 C552,351 801,306 59,29" fill="none" stroke="rgb(25, 191, 5)" stroke-width="1.3218733629261705" /><polygon fill="none" points="136,56 364,471 787,49" stroke="rgb(58, 173, 32)" stroke-width="1.0377624967929069" /><path d="M510,513 L396,527 L800,225 L57,322" fill="none" stroke="rgb(145, 52, 129)" stroke-width="1.59697950990892" /><circle cx="634" cy="408" fill="none" opacity="0.7477057235589402" r="21" stroke="rgb(23, 137, 42)" stroke-width="4.055816195783425" /><circle cx="196" cy="513" fill="none" opacity="0.6056372206993714" r="99" stroke="rgb(23, 203, 216)" stroke-width="4.1056515031404714" /><path d="M580,333 Q336,134 195,390 L312,306 L794,81 C750,543 481,13 654,452 L306,10 Q679,128 103,29 Q720,422 614,536" fill="none" stroke="rgb(104, 147, 55)" stroke-width="1.6937253906239333" /><rect fill="none" height="31" stroke="rgb(33, 150, 189)" stroke-width="4.473657567010756" transform="rotate(189 497 201)" width="129" x="493" y="267" /><circle cx="246" cy="271" fill="none" opacity="0.9045456584650811" r="46" stroke="rgb(77, 249, 249)" stroke-width="1.0658981732168864" /><circle cx="863" cy="275" fill="none" opacity="0.6551078267911936" r="77" stroke="rgb(179, 29, 201)" stroke-width="1.197316693075947" /><polygon fill="none" points="375,230 575,13 71,156 504,73 171,529 608,533 650,2 714,157" stroke="rgb(143, 174, 155)" stroke-width="2.984959014866347" /><line stroke="rgb(83, 171, 124)" stroke-width="2.5495760941794696" x1="453" x2="670" y1="502" y2="459" /><line stroke="rgb(16, 144, 138)" stroke-width="0.6337003903395637" x1="553" x2="381" y1="430" y2="286" /><line stroke="rgb(128, 57, 92)" stroke-width="0.6146845354325932" x1="456" x2="55" y1="310" y2="202" /><line stroke="rgb(225, 197, 119)" stroke-width="1.0551349013682159" x1="77" x2="208" y1="555" y2="258" /><line stroke="rgb(4, 62, 191)" stroke-width="2.1977521724780376" x1="863" x2="910" y1="154" y2="235" /><line stroke="rgb(12, 237, 217)" stroke-width="2.932225562072129" x1="656" x2="81" y1="542" y2="469" /><line stroke="rgb(115, 235, 27)" stroke-width="0.5024947694288247" x1="468" x2="23" y1="100" y2="464" /><line stroke="rgb(4, 37, 44)" stroke-width="2.8961429125171385" x1="345" x2="101" y1="400" y2="258" /><path d="M781,295 Q897,333 662,265 Q883,262 219,128 Q568,460 21,468 L800,249" fill="none" stroke="rgb(94, 43, 170)" stroke-width="1.7777241825110965" /><rect fill="none" height="166" stroke="rgb(236, 246, 92)" stroke-width="0.952311880879072" transform="rotate(301 402 466)" width="60" x="692" y="342" /><path d="M141,241 L881,249 C611,456 432,223 764,565 C216,131 398,47 292,484" fill="none" stroke="rgb(127, 85, 236)" stroke-width="2.3231708970620635" /><rect fill="none" height="125" stroke="rgb(32, 59, 209)" stroke-width="2.260312678989759" transform="rotate(170 335 297)" width="162" x="269" y="87" /><rect fill="none" height="150" stroke="rgb(147, 177, 28)" stroke-width="1.289390461756081" transform="rotate(64 908 530)" width="22" x="657" y="185" /><path d="M210,346 C282,64 942,213 404,308 L266,477 L188,270 C623,429 432,314 363,518 C324,390 719,172 584,85 L139,166 C844,141 396,498 109,491" fill="none" stroke="rgb(58, 226, 238)" stroke-width="1.8589575259010704" /><line stroke="rgb(199, 199, 190)" stroke-width="1.976879758465445" x1="59" x2="733" y1="346" y2="147" /><line stroke="rgb(107, 73, 121)" stroke-width="1.2107143418811641" x1="724" x2="130" y1="443" y2="61" /><line stroke="rgb(167, 51, 38)" stroke-width="2.7817373614039713" x1="161" x2="288" y1="445" y2="496" /><line stroke="rgb(124, 105, 246)" stroke-width="2.2149775053822913" x1="76" x2="581" y1="414" y2="168" /><line stroke="rgb(251, 42, 206)" stroke-width="1.7943810528954542" x1="586" x2="704" y1="144" y2="97" /><line stroke="rgb(122, 56, 170)" stroke-width="1.0023177153987142" x1="213" x2="299" y1="382" y2="367" /><line stroke="rgb(18, 196, 230)" stroke-width="1.5009375305130055" x1="370" x2="288" y1="103" y2="298" /><path d="M217,375 Q498,360 572,497 L150,547 L679,419 L812,180" fill="none" stroke="rgb(203, 171, 219)" stroke-width="2.239080848080161" /><path d="M326,247 L756,414 C898,502 468,561 600,344 C524,310 380,460 62,363 Q693,344 668,370 Q185,508 221,142 C169,32 890,152 300,173" fill="none" stroke="rgb(147, 58, 118)" stroke-width="2.0760641794330117" /><path d="M574,383 C918,256 65,436 300,533 Q756,539 858,123 C688,539 848,145 715,395 L545,324 Q937,409 155,375 L675,408" fill="none" stroke="rgb(205, 250, 71)" stroke-width="1.681246388034605" /><polygon fill="none" points="931,461 306,375 314,519 353,242 69,68 205,4" stroke="rgb(75, 112, 29)" stroke-width="3.137517024534732" /><polygon fill="none" points="229,383 897,265 319,390 264,566 823,339 481,243 305,554" stroke="rgb(64, 31, 133)" stroke-width="3.577741531968936" /><rect fill="none" height="35" stroke="rgb(215, 146, 46)" stroke-width="4.4015842509628476" transform="rotate(317 424 272)" width="199" x="639" y="251" /><circle cx="74" cy="428" fill="none" opacity="0.589567353265481" r="115" stroke="rgb(41, 50, 128)" stroke-width="1.0855601510619626" /><rect fill="none" height="44" stroke="rgb(33, 235, 109)" stroke-width="3.6003599780354802" transform="rotate(24 797 347)" width="70" x="802" y="316" /><rect fill="none" height="25" stroke="rgb(110, 150, 127)" stroke-width="1.3390145512399914" transform="rotate(103 828 112)" width="87" x="833" y="440" /><circle cx="376" cy="309" fill="none" opacity="0.924685722887743" r="29" stroke="rgb(253, 48, 118)" stroke-width="4.520500442465191" /><line stroke="rgb(99, 101, 116)" stroke-width="0.5049259042817096" x1="398" x2="644" y1="387" y2="303" /><line stroke="rgb(90, 3, 111)" stroke-width="2.2442321556033837" x1="795" x2="607" y1="424" y2="357" /><line stroke="rgb(145, 147, 201)" stroke-width="1.0628572737013957" x1="792" x2="653" y1="423" y2="168" /><line stroke="rgb(16, 164, 143)" stroke-width="2.176026701451194" x1="846" x2="81" y1="495" y2="453" /><line stroke="rgb(145, 236, 201)" stroke-width="1.8345279176879112" x1="480" x2="860" y1="88" y2="461" /><line stroke="rgb(42, 113, 100)" stroke-width="2.3021564881330656" x1="175" x2="267" y1="221" y2="147" /><line stroke="rgb(158, 243, 163)" stroke-width="1.1006879414168727" x1="791" x2="214" y1="381" y2="10" /><line stroke="rgb(101, 54, 196)" stroke-width="0.7827261636527495" x1="39" x2="643" y1="270" y2="344" /><path d="M414,201 C499,416 591,267 601,47 C421,328 292,418 33,216 Q301,358 212,127 L424,183" fill="none" stroke="rgb(76, 214, 193)" stroke-width="1.9651511832311137" /></svg>