<svg baseProfile="full" height="475px" version="1.1" width="873px" xmlns="http://www.w3.org/2000/svg" xmlns:ev="http://www.w3.org/2001/xml-events" xmlns:xlink="http://www.w3.org/1999/xlink"><defs /><rect fill="rgb(240, 227, 208)" height="475px" width="873px" x="0" y="0" /><polygon fill="none" points="258,340 103,55 1,265" stroke="rgb(85, 167, 106)" stroke-width="0.5557376688382948" /><circle cx="115" cy="422" fill="none" opacity="0.9976154073190266" r="115" stroke="rgb(218, 210, 215)" stroke-width="4.753128532799576" /><polygon fill="none" points="591,113 265,13 298,386 262,44 759,132" stroke="rgb(144, 121, 234)" stroke-width="0.5902317974722845" /><circle cx="733" cy="391" fill="none" opacity="0.49978837981643337" r="24" stroke="rgb(141, 216, 215)" stroke-width="4.51610654796715" /><rect fill="none" height="177" stroke="rgb(102, 85, 188)" stroke-width="0.5390284067958069" transform="rotate(123 873 350)" width="95" x="62" y="161" /><line stroke="rgb(167, 155, 100)" stroke-width="2.928648218643966" x1="831" x2="625" y1="400" y2="446" /><line stroke="rgb(178, 41, 176)" stroke-width="2.705244758702812" x1="414" x2="381" y1="13" y2="471" /><line stroke="rgb(9, 138, 185)" stroke-width="1.4248598521266882" x1="300" x2="569" y1="386" y2="70" /><line stroke="rgb(2, 220, 163)" stroke-width="2.498173085418247" x1="361" x2="481" y1="442" y2="103" /><line stroke="rgb(22, 14, 241)" stroke-width="1.6409551847453172" x1="424" x2="190" y1="69" y2="394" /><line stroke="rgb(100, 66, 202)" stroke-width="2.5064798357874807" x1="776" x2="247" y1="166" y2="335" /><line stroke="rgb(12, 221, 20)" stroke-width="2.2753421078005616" x1="28" x2="788" y1="386" y2="369" /><line stroke="rgb(57, 155, 157)" stroke-width="0.657546118522936" x1="841" x2="239" y1="157" y2="316" /><rect fill="none" height="46" stroke="rgb(242, 8, 49)" stroke-width="1.1153502035810885" transform="rotate(357 581 83)" width="137" x="261" y="206" /><rect fill="none" height="191" stroke="rgb(167, 0, 252)" stroke-width="2.2104934557123355" transform="rotate(24 79 111)" width="123" x="590" y="117" /><circle cx="814" cy="365" fill="none" opacity="0.7659960280155931" r="113" stroke="rgb(227, 52, 129)" stroke-width="1.0888773510595544" /><circle cx="369" cy="103" fill="none" opacity="0.6580673621586355" r="11" stroke="rgb(33, 108, 12)" stroke-width="1.9286649602791908" /><line stroke="rgb(166, 120, 132)" stroke-width="1.062364502114105" x1="624" x2="817" y1="63" y2="138" /><line stroke="rgb(189, 168, 145)" stroke-width="1.0576433865366035" x1="53" x2="86" y1="77" y2="56" /><line stroke="rgb(153, 68, 83)" stroke-width="0.715160614484279" x1="852" x2="524" y1="225" y2="457" /><line stroke="rgb(55, 29, 189)" stroke-width="1.219003493669369" x1="379" x2="451" y1="8" y2="443" /><line stroke="rgb(215, 133, 60)" stroke-width="1.664586906821797" x1="489" x2="618" y1="96" y2="57" /><line stroke="rgb(122, 33, 118)" stroke-width="1.5600065937889702" x1="320" x2="270" y1="316" y2="354" /><line stroke="rgb(130, 172, 118)" stroke-width="2.161397756757835" x1="143" x2="632" y1="16" y2="98" /><circle cx="558" cy="72" fill="none" opacity="0.7604720381379066" r="77" stroke="rgb(239, 200, 192)" stroke-width="3.726176066609292" /><rect fill="none" height="147" stroke="rgb(54, 38, 213)" stroke-width="2.0614357460939754" transform="rotate(253 299 236)" width="20" x="10" y="167" /><line stroke="rgb(157, 191, 29)" stroke-width="1.2957159412923618" x1="402" x2="718" y1="414" y2="219" /><line stroke="rgb(161, 132, 74)" stroke-width="2.5574992010613915" x1="110" x2="145" y1="176" y2="82" /><line stroke="rgb(73, 3, 7)" stroke-width="2.161057524041408" x1="285" x2="407" y1="363" y2="296" /><line stroke="rgb(238, 83, 206)" stroke-width="0.6053254490039259" x1="577" x2="153" y1="228" y2="317" /><line stroke="rgb(176, 47, 103)" stroke-width="1.911975167987952" x1="578" x2="822" y1="55" y2="457" /><line stroke="rgb(144, 159, 142)" stroke-width="1.2552837344245535" x1="617" x2="563" y1="425" y2="8" /><line stroke="rgb(151, 223, 202)" stroke-width="0.6742015291271154" x1="298" x2="664" y1="310" y2="269" /><path d="M280,187 L502,217 L867,132 Q747,320 131,286 C746,337 96,138 624,243" fill="none" stroke="rgb(153, 181, 112)" stroke-width="2.5001025865830586" /><rect fill="none" height="181" stroke="rgb(143, 191, 177)" stroke-width="1.2466636672673563" transform="rotate(311 702 272)" width="179" x="54" y="138" /><line stroke="rgb(11, 51, 215)" stroke-width="1.6648580139978493" x1="863" x2="687" y1="428" y2="80" /><line stroke="rgb(87, 34, 106)" stroke-width="2.9369154453492667" x1="169" x2="866" y1="34" y2="49" /><line stroke="rgb(46, 80, 233)" stroke-width="0.6505822331415261" x1="597" x2="381" y1="63" y2="129" /><line stroke="rgb(175, 118, 147)" stroke-width="1.4756650059953489" x1="523" x2="498" y1="264" y2="451" /><line stroke="rgb(116, 207, 114)" stroke-width="1.567592652568365" x1="595" x2="189" y1="167" y2="369" /><line stroke="rgb(114, 10, 54)" stroke-width="1.042111448314206" x1="685" x2="456" y1="443" y2="38" /><line stroke="rgb(160, 69, 158)" stroke-width="1.8291031448855704" x1="245" x2="122" y1="107" y2="149" /><line stroke="rgb(72, 44, 145)" stroke-width="0.9398868648872809" x1="873" x2="77" y1="381" y2="190" /><polygon fill="none" points="275,45 66,421 609,121 314,122 218,224" stroke="rgb(140, 202, 186)" stroke-width="2.058683685354401" /><rect fill="none" height="29" stroke="rgb(215, 134, 89)" stroke-width="4.4478233561872695" transform="rotate(140 568 118)" width="107" x="40" y="174" /><line stroke="rgb(161, 226, 162)" stroke-width="0.6025319475013153" x1="21" x2="784" y1="4" y2="252" /><line stroke="rgb(40, 229, 93)" stroke-width="2.7997336173834286" x1="173" x2="534" y1="340" y2="122" /><line stroke="rgb(21, 138, 223)" stroke-width="0.9707833438844139" x1="7" x2="313" y1="280" y2="203" /><rect fill="none" height="29" stroke="rgb(140, 46, 242)" stroke-width="1.2894298566396838" transform="rotate(155 735 21)" width="120" x="149" y="321" /><polygon fill="none" points="325,424 491,84 673,18 317,207 43,8 633,235" stroke="rgb(205, 157, 219)" stroke-width="2.72935912120279" /><polygon fill="none" points="20,44 487,79 81,239 54,292" stroke="rgb(10, 46, 92)" stroke-width="2.237508799526329" /><circle cx="381" cy="405" fill="none" opacity="0.46383967622538025" r="112" stroke="rgb(139, 192, 127)" stroke-width="3.7772170127640265" /><rect fill="none" height="137" stroke="rgb(90, 2, 129)" stroke-width="4.300865225504502" transform="rotate(308 593 202)" width="185" x="151" y="297" /><line stroke="rgb(195, 56, 118)" stroke-width="2.496872080606315" x1="844" x2="633" y1="414" y2="178" /><line stroke="rgb(198, 64, 124)" stroke-width="2.9027457343092773" x1="60" x2="327" y1="419" y2="223" /><line stroke="rgb(197, 6, 206)" stroke-width="1.8640380960521372" x1="464" x2="747" y1="100" y2="23" /><line stroke="rgb(81, 187, 218)" stroke-width="1.399585274157563" x1="321" x2="788" y1="396" y2="31" /><rect fill="none" height="67" stroke="rgb(194, 202, 91)" stroke-width="1.9921003649116733" transform="rotate(84 680 470)" width="145" x="351" y="176" /><line stroke="rgb(129, 20, 171)" stroke-width="2.813610699253" x1="685" x2="755" y1="247" y2="376" /><line stroke="rgb(127, 165, 216)" stroke-width="2.9342068286660106" x1="688" x2="695" y1="388" y2="158" /><line stroke="rgb(104, 148, 77)" stroke-width="2.4564944148259062" x1="451" x2="113" y1="259" y2="84" /><line stroke="rgb(211, 178, 150)" stroke-width="1.543958308088882" x1="485" x2="544" y1="318" y2="234" /><rect fill="none" height="23" stroke="rgb(134, 191, 69)" stroke-width="3.151628743681681" transform="rotate(99 508 389)" width="119" x="613" y="11" /><polygon fill="none" points="302,157 739,234 274,344 283,76 311,114 821,424 256,24 224,340" stroke="rgb(205, 233, 208)" stroke-width="3.599614859452486" /><line stroke="rgb(97, 254, 184)" stroke-width="1.3266059330489735" x1="777" x2="704" y1="97" y2="122" /><line stroke="rgb(3, 170, 72)" stroke-width="2.684812143545734" x1="525" x2="611" y1="457" y2="212" /><line stroke="rgb(66, 46, 88)" stroke-width="1.4715692744225355" x1="842" x2="475" y1="317" y2="231" /><line stroke="rgb(38, 33, 193)" stroke-width="1.1008854454507722" x1="480" x2="591" y1="60" y2="162" /><line stroke="rgb(226, 248, 226)" stroke-width="2.103128388772569" x1="188" x2="669" y1="135" y2="40" /><line stroke="rgb(187, 103, 37)" stroke-width="1.3045475923339" x1="628" x2="799" y1="404" y2="251" /><polygon fill="none" points="397,387 295,160 181,334" stroke="rgb(239, 64, 209)" stroke-width="1.0995271383551453" /><line stroke="rgb(232, 9, 104)" stroke-width="1.258796270794804" x1="705" x2="546" y1="468" y2="346" /><line stroke="rgb(95, 78, 126)" stroke-width="2.827420424986253" x1="137" x2="262" y1="64" y2="415" /><line stroke="rgb(187, 61, 18)" stroke-width="1.9546288994399963" x1="237" x2="798" y1="368" y2="424" /><line stroke="rgb(9, 196, 130)" stroke-width="1.1881727407850458" x1="549" x2="577" y1="412" y2="377" /><line stroke="rgb(175, 111, 215)" stroke-width="1.0132845084131676" x1="58" x2="248" y1="147" y2="406" /><line stroke="rgb(21, 134, 230)" stroke-width="1.5477872918203661" x1="160" x2="544" y1="302" y2="187" /><line stroke="rgb(132, 239, 100)" stroke-width="1.181146207957744" x1="292" x2="835" y1="98" y2="12" /><polygon fill="none" points="326,143 494,127 362,238" stroke="rgb(210, 215, 93)" stroke-width="3.785426510177368" /><rect fill="none" height="48" stroke="rgb(93, 4, 115)" stroke-width="0.8188667742388189" transform="rotate(23 790 78)" width="146" x="391" y="238" /><path d="M39,194 L558,382 Q624,89 734,147 C656,228 800,405 496,424 L652,247 L491,406 L777,304" fill="none" stroke="rgb(161, 27, 95)" stroke-width="1.4811165473755843" /></svg>