<svg baseProfile="full" height="666px" version="1.1" width="674px" xmlns="http://www.w3.org/2000/svg" xmlns:ev="http://www.w3.org/2001/xml-events" xmlns:xlink="http://www.w3.org/1999/xlink"><defs /><rect fill="rgb(242, 237, 212)" height="666px" width="674px" x="0" y="0" /><path d="M657,545 C351,526 556,540 602,349 Q658,82 439,546 C139,174 547,156 444,47 L594,55" fill="none" stroke="rgb(8, 215, 179)" stroke-width="0.8945632152650352" /><rect fill="none" height="128" stroke="rgb(89, 203, 81)" stroke-width="4.016644122780186" transform="rotate(272 82 234)" width="94" x="23" y="231" /><circle cx="550" cy="515" fill="none" opacity="0.5316682512142414" r="11" stroke="rgb(82, 219, 95)" stroke-width="3.8122586868929087" /><rect fill="none" height="27" stroke="rgb(243, 3, 232)" stroke-width="2.868113913203029" transform="rotate(340 65 418)" width="34" x="50" y="307" /><line stroke="rgb(75, 63, 206)" stroke-width="1.364196871598829" x1="42" x2="339" y1="416" y2="165" /><line stroke="rgb(34, 169, 11)" stroke-width="1.5793659926321284" x1="40" x2="152" y1="323" y2="102" /><line stroke="rgb(219, 154, 247)" stroke-width="0.8075039769498528" x1="78" x2="548" y1="620" y2="188" /><line stroke="rgb(13, 70, 49)" stroke-width="0.5070610256950163" x1="532" x2="341" y1="270" y2="385" /><line stroke="rgb(117, 172, 104)" stroke-width="1.7868966596152802" x1="612" x2="336" y1="484" y2="654" /><line stroke="rgb(143, 142, 174)" stroke-width="1.4041557271649847" x1="40" x2="658" y1="523" y2="560" /><line stroke="rgb(136, 219, 230)" stroke-width="1.5527805748330552" x1="589" x2="489" y1="227" y2="62" /><line stroke="rgb(73, 76, 131)" stroke-width="2.8113185994559817" x1="302" x2="30" y1="403" y2="293" /><line stroke="rgb(111, 142, 224)" stroke-width="0.737846749012238" x1="324" x2="641" y1="395" y2="415" /><rect fill="none" height="91" stroke="rgb(235, 23, 176)" stroke-width="4.306584066738433" transform="rotate(127 657 353)" width="34" x="341" y="413" /><polygon fill="none" points="334,367 366,168 105,607 206,520 468,73 383,41 555,446 8,495" stroke="rgb(218, 234, 55)" stroke-width="2.065690875287886" /><rect fill="none" height="130" stroke="rgb(212, 92, 74)" stroke-width="1.3430208149121006" transform="rotate(359 364 367)" width="46" x="44" y="361" /><polygon fill="none" points="541,259 476,255 330,596 364,462" stroke="rgb(100, 3, 76)" stroke-width="3.2254076889925263" /><path d="M151,119 L61,408 Q540,358 85,533 C615,599 525,539 180,613 C201,478 380,119 243,480 L272,315" fill="none" stroke="rgb(141, 63, 220)" stroke-width="0.5358016097323749" /><path d="M523,626 Q137,304 186,384 C591,437 629,472 643,4 L498,5" fill="none" stroke="rgb(28, 237, 184)" stroke-width="1.9865565903489433" /><path d="M456,373 L197,139 C43,133 171,389 484,105 C368,605 630,637 184,415 Q41,645 669,61 L24,534 L446,659" fill="none" stroke="rgb(23, 132, 51)" stroke-width="1.5244146191521522" /><line stroke="rgb(109, 138, 208)" stroke-width="2.656173963283205" x1="358" x2="225" y1="400" y2="207" /><line stroke="rgb(63, 173, 123)" stroke-width="1.3209388758979017" x1="23" x2="246" y1="219" y2="267" /><line stroke="rgb(103, 68, 106)" stroke-width="2.554922274132493" x1="458" x2="87" y1="483" y2="18" /><line stroke="rgb(255, 158, 247)" stroke-width="2.416729193427269" x1="429" x2="265" y1="321" y2="50" /><line stroke="rgb(18, 82, 126)" stroke-width="2.259543663463193" x1="311" x2="47" y1="193" y2="201" /><line stroke="rgb(36, 70, 179)" stroke-width="0.5552648546748393" x1="275" x2="99" y1="483" y2="469" /><line stroke="rgb(32, 234, 66)" stroke-width="2.052939289324802" x1="582" x2="312" y1="322" y2="438" /><line stroke="rgb(227, 65, 152)" stroke-width="1.9539811129670144" x1="304" x2="198" y1="195" y2="460" /><line stroke="rgb(12, 14, 187)" stroke-width="2.6650366180505114" x1="394" x2="555" y1="523" y2="617" /><line stroke="rgb(151, 1, 115)" stroke-width="1.510199219287353" x1="105" x2="323" y1="52" y2="304" /><line stroke="rgb(239, 129, 239)" stroke-width="1.5407975390201845" x1="65" x2="382" y1="281" y2="419" /><polygon fill="none" points="427,118 266,464 304,385 128,314 355,270 476,643" stroke="rgb(13, 210, 130)" stroke-width="2.29180261127365" /><line stroke="rgb(199, 70, 39)" stroke-width="1.2448890371052594" x1="86" x2="78" y1="16" y2="49" /><line stroke="rgb(167, 41, 176)" stroke-width="2.342466472946147" x1="578" x2="601" y1="263" y2="645" /><line stroke="rgb(123, 22, 9)" stroke-width="1.6615654426717974" x1="582" x2="587" y1="346" y2="427" /><line stroke="rgb(67, 139, 181)" stroke-width="2.122616376517204" x1="167" x2="616" y1="394" y2="387" /><line stroke="rgb(58, 115, 1)" stroke-width="2.3729920455703377" x1="262" x2="298" y1="449" y2="513" /><line stroke="rgb(91, 238, 84)" stroke-width="2.177527070988707" x1="403" x2="540" y1="654" y2="663" /><line stroke="rgb(94, 132, 27)" stroke-width="2.1393498598201615" x1="567" x2="231" y1="649" y2="246" /><line stroke="rgb(198, 112, 152)" stroke-width="1.8111954590702355" x1="455" x2="304" y1="646" y2="482" /><line stroke="rgb(234, 51, 118)" stroke-width="1.0233790801242737" x1="94" x2="94" y1="415" y2="639" /><line stroke="rgb(144, 3, 119)" stroke-width="0.5125872251010506" x1="411" x2="346" y1="618" y2="532" /><line stroke="rgb(120, 58, 61)" stroke-width="1.2105847052309784" x1="229" x2="344" y1="448" y2="336" /><line stroke="rgb(109, 199, 102)" stroke-width="0.7168548190957298" x1="213" x2="170" y1="290" y2="12" /><polygon fill="none" points="365,306 35,284 543,149 313,107 141,355 470,180 239,359" stroke="rgb(4, 39, 49)" stroke-width="1.6087109814389897" /><rect fill="none" height="178" stroke="rgb(77, 178, 100)" stroke-width="4.822290847893817" transform="rotate(44 124 566)" width="160" x="461" y="543" /><circle cx="379" cy="420" fill="none" opacity="0.9614465907257805" r="31" stroke="rgb(126, 207, 106)" stroke-width="3.480468053566018" /><line stroke="rgb(185, 107, 141)" stroke-width="2.3476116408801526" x1="309" x2="358" y1="285" y2="182" /><line stroke="rgb(42, 131, 5)" stroke-width="2.520025864638595" x1="104" x2="621" y1="87" y2="622" /><line stroke="rgb(134, 221, 53)" stroke-width="2.136904800988385" x1="648" x2="115" y1="387" y2="542" /><line stroke="rgb(165, 69, 94)" stroke-width="0.5555174830449384" x1="184" x2="21" y1="583" y2="307" /><rect fill="none" height="95" stroke="rgb(102, 167, 240)" stroke-width="3.3796214942526426" transform="rotate(295 612 481)" width="140" x="517" y="452" /><polygon fill="none" points="158,585 128,38 388,125 344,380 31,500 163,179 195,358 415,481" stroke="rgb(24, 189, 178)" stroke-width="3.7989396285683625" /><path d="M357,115 C355,196 279,368 351,276 L382,247 C292,493 190,16 142,643 C241,54 668,176 640,348 L39,356 C9,91 66,379 34,194 L293,181" fill="none" stroke="rgb(61, 147, 156)" stroke-width="0.8539693587263057" /><circle cx="404" cy="390" fill="none" opacity="0.8547810275441159" r="155" stroke="rgb(20, 64, 151)" stroke-width="4.083685473459271" /><line stroke="rgb(22, 211, 204)" stroke-width="1.5928838714875913" x1="588" x2="419" y1="422" y2="445" /><line stroke="rgb(149, 232, 105)" stroke-width="0.6349324122501494" x1="402" x2="144" y1="60" y2="549" /><line stroke="rgb(103, 75, 99)" stroke-width="2.411780063386753" x1="330" x2="287" y1="427" y2="320" /><line stroke="rgb(56, 16, 10)" stroke-width="1.0068956784726317" x1="630" x2="594" y1="8" y2="600" /><line stroke="rgb(190, 86, 23)" stroke-width="2.135244298673033" x1="603" x2="355" y1="557" y2="326" /><line stroke="rgb(208, 23, 135)" stroke-width="2.2044778232961764" x1="510" x2="267" y1="658" y2="162" /><line stroke="rgb(111, 98, 51)" stroke-width="2.811544124192549" x1="307" x2="30" y1="281" y2="348" /><line stroke="rgb(159, 228, 58)" stroke-width="2.8999125769815377" x1="232" x2="248" y1="604" y2="20" /><line stroke="rgb(196, 4, 168)" stroke-width="2.7092677376543826" x1="77" x2="68" y1="302" y2="376" /><rect fill="none" height="119" stroke="rgb(38, 60, 44)" stroke-width="1.63847236015219" transform="rotate(81 415 103)" width="21" x="193" y="464" /><line stroke="rgb(213, 185, 104)" stroke-width="2.560284198383082" x1="254" x2="55" y1="496" y2="441" /><line stroke="rgb(99, 50, 1)" stroke-width="2.4993380834439884" x1="483" x2="170" y1="530" y2="45" /><line stroke="rgb(137, 167, 3)" stroke-width="2.9034213353387517" x1="181" x2="674" y1="589" y2="38" /><rect fill="none" height="159" stroke="rgb(247, 92, 109)" stroke-width="4.690294946365911" transform="rotate(163 441 501)" width="26" x="162" y="117" /><polygon fill="none" points="372,472 175,261 134,441 144,563 406,38" stroke="rgb(236, 45, 205)" stroke-width="3.5592100171154692" /><line stroke="rgb(115, 250, 141)" stroke-width="0.9076931972070547" x1="594" x2="319" y1="186" y2="190" /><line stroke="rgb(198, 224, 192)" stroke-width="2.1676340310243685" x1="608" x2="573" y1="584" y2="20" /><line stroke="rgb(215, 49, 99)" stroke-width="1.6748073036570976" x1="289" x2="664" y1="93" y2="482" /><line stroke="rgb(90, 187, 117)" stroke-width="0.8794996364115888" x1="601" x2="222" y1="467" y2="595" /><line stroke="rgb(137, 218, 133)" stroke-width="0.6249502560230966" x1="175" x2="139" y1="4" y2="484" /><line stroke="rgb(105, 255, 120)" stroke-width="1.1361165741136388" x1="148" x2="83" y1="666" y2="124" /><line stroke="rgb(127, 214, 17)" stroke-width="0.5235646635245432" x1="223" x2="617" y1="485" y2="543" /><line stroke="rgb(80, 205, 135)" stroke-width="1.0559264397079986" x1="326" x2="279" y1="75" y2="67" /><line stroke="rgb(115, 218, 17)" stroke-width="1.6088403201954977" x1="473" x2="177" y1="46" y2="275" /><rect fill="none" height="172" stroke="rgb(93, 187, 40)" stroke-width="3.5593903149065524" transform="rotate(276 335 87)" width="108" x="270" y="397" /><polygon fill="none" points="258,401 594,130 171,83 672,606" stroke="rgb(38, 177, 124)" stroke-width="1.0112400937744215" /><line stroke="rgb(135, 115, 60)" stroke-width="0.9592142923287015" x1="79" x2="647" y1="656" y2="355" /><line stroke="rgb(61, 219, 13)" stroke-width="1.4639503932570783" x1="585" x2="237" y1="412" y2="373" /><line stroke="rgb(175, 142, 54)" stroke-width="2.6056009287904756" x1="264" x2="651" y1="154" y2="14" /><line stroke="rgb(56, 238, 0)" stroke-width="1.399023556399047" x1="34" x2="259" y1="191" y2="129" /><line stroke="rgb(111, 115, 227)" stroke-width="0.7174786999225586" x1="289" x2="293" y1="81" y2="588" /><line stroke="rgb(43, 170, 136)" stroke-width="0.9332487916846772" x1="51" x2="487" y1="5" y2="591" /><line stroke="rgb(216, 143, 111)" stroke-width="2.826432198896373" x1="318" x2="183" y1="79" y2="168" /><rect fill="none" height="47" stroke="rgb(187, 58, 120)" stroke-width="4.471917367130091" transform="rotate(3 134 386)" width="132" x="89" y="463" /><line stroke="rgb(244, 230, 195)" stroke-width="1.3468364848013752" x1="273" x2="132" y1="222" y2="278" /><line stroke="rgb(98, 56, 43)" stroke-width="2.916925063591655" x1="72" x2="407" y1="479" y2="153" /><line stroke="rgb(17, 101, 228)" stroke-width="1.0873330300900823" x1="289" x2="277" y1="619" y2="221" /><line stroke="rgb(31, 197, 15)" stroke-width="1.743895301259055" x1="296" x2="609" y1="84" y2="85" /><line stroke="rgb(210, 75, 214)" stroke-width="2.2415436985561596" x1="294" x2="400" y1="9" y2="646" /><circle cx="278" cy="248" fill="none" opacity="0.4119388389031316" r="129" stroke="rgb(162, 214, 60)" stroke-width="2.985806048744055" /><line stroke="rgb(97, 94, 79)" stroke-width="1.1490184798410612" x1="303" x2="364" y1="206" y2="343" /><line stroke="rgb(148, 108, 24)" stroke-width="2.8532462494365767" x1="567" x2="383" y1="441" y2="257" /><line stroke="rgb(33, 153, 221)" stroke-width="2.567568418724574" x1="349" x2="402" y1="543" y2="251" /><line stroke="rgb(137, 90, 33)" stroke-width="2.635594764024541" x1="92" x2="148" y1="289" y2="372" /><line stroke="rgb(43, 242, 35)" stroke-width="1.2822769820979811" x1="19" x2="248" y1="655" y2="642" /><line stroke="rgb(139, 41, 238)" stroke-width="0.5418933830401441" x1="674" x2="546" y1="486" y2="275" /><path d="M573,527 L152,368 C224,336 48,69 27,608 Q427,455 382,206 C51,298 614,282 457,565 C221,232 121,528 271,354" fill="none" stroke="rgb(179, 215, 155)" stroke-width="1.0244533312501323" /><polygon fill="none" points="101,229 325,366 642,344 21,560 352,493 344,298 350,622 261,234" stroke="rgb(43, 81, 252)" stroke-width="1.771534761361894" /><line stroke="rgb(149, 238, 97)" stroke-width="1.0411492981759336" x1="640" x2="320" y1="462" y2="628" /><line stroke="rgb(157, 47, 236)" stroke-width="1.9808259687986212" x1="422" x2="512" y1="222" y2="646" /><line stroke="rgb(109, 243, 109)" stroke-width="0.6816361537933286" x1="548" x2="648" y1="107" y2="35" /><line stroke="rgb(39, 91, 65)" stroke-width="2.125156756299662" x1="592" x2="310" y1="633" y2="354" /><line stroke="rgb(15, 0, 142)" stroke-width="1.5064745294198327" x1="513" x2="568" y1="25" y2="593" /><line stroke="rgb(213, 192, 100)" stroke-width="1.3198243789799486" x1="280" x2="201" y1="236" y2="366" /><line stroke="rgb(153, 68, 199)" stroke-width="2.736207950902737" x1="108" x2="547" y1="122" y2="275" /><line stroke="rgb(146, 80, 197)" stroke-width="2.5703974569410697" x1="587" x2="620" y1="35" y2="323" /><path d="M90,593 L308,267 C460,192 553,392 538,195 Q98,576 425,644 C413,296 439,265 393,388" fill="none" stroke="rgb(171, 166, 130)" stroke-width="1.0236240287721838" /><circle cx="83" cy="454" fill="none" opacity="0.8478522328634921" r="57" stroke="rgb(17, 229, 101)" stroke-width="2.4719695883452752" /><path d="M366,191 C532,597 602,663 405,597 Q33,15 534,657 L572,491" fill="none" stroke="rgb(49, 189, 81)" stroke-width="1.9550368967411764" /></svg>