<svg baseProfile="full" height="664px" version="1.1" width="955px" xmlns="http://www.w3.org/2000/svg" xmlns:ev="http://www.w3.org/2001/xml-events" xmlns:xlink="http://www.w3.org/1999/xlink"><defs /><rect fill="rgb(250, 222, 249)" height="664px" width="955px" x="0" y="0" /><polygon fill="none" points="361,294 933,269 589,614 259,551" stroke="rgb(191, 85, 165)" stroke-width="3.95153968419727" /><circle cx="723" cy="273" fill="none" opacity="0.3131587929680907" r="127" stroke="rgb(247, 34, 9)" stroke-width="3.243450240383531" /><line stroke="rgb(120, 195, 95)" stroke-width="2.282613921332809" x1="325" x2="805" y1="252" y2="428" /><line stroke="rgb(32, 205, 30)" stroke-width="2.2841650135808225" x1="740" x2="447" y1="639" y2="302" /><line stroke="rgb(246, 165, 95)" stroke-width="1.5373940557359786" x1="573" x2="226" y1="466" y2="619" /><line stroke="rgb(138, 247, 97)" stroke-width="1.9639418382932492" x1="69" x2="143" y1="400" y2="180" /><line stroke="rgb(109, 28, 225)" stroke-width="1.145185843117309" x1="837" x2="941" y1="371" y2="300" /><line stroke="rgb(233, 253, 55)" stroke-width="1.9393197760581191" x1="537" x2="154" y1="123" y2="604" /><polygon fill="none" points="259,71 576,57 492,429 814,325 825,225 148,365 565,330 479,315" stroke="rgb(141, 152, 18)" stroke-width="3.5358753424294327" /><circle cx="63" cy="472" fill="none" opacity="0.9170645205249794" r="166" stroke="rgb(45, 79, 162)" stroke-width="1.0192223004587821" /><rect fill="none" height="51" stroke="rgb(128, 141, 139)" stroke-width="2.5103421075602244" transform="rotate(102 753 292)" width="132" x="79" y="334" /><rect fill="none" height="179" stroke="rgb(18, 209, 226)" stroke-width="4.320682800274339" transform="rotate(172 246 126)" width="116" x="307" y="420" /><line stroke="rgb(53, 95, 254)" stroke-width="1.2832936313666252" x1="424" x2="33" y1="458" y2="144" /><line stroke="rgb(223, 50, 20)" stroke-width="1.1133629966944512" x1="511" x2="931" y1="342" y2="419" /><line stroke="rgb(128, 16, 234)" stroke-width="0.5878879449113181" x1="479" x2="577" y1="313" y2="269" /><line stroke="rgb(196, 18, 128)" stroke-width="1.6699641623697852" x1="350" x2="669" y1="87" y2="28" /><line stroke="rgb(88, 20, 25)" stroke-width="1.9614023754062093" x1="864" x2="748" y1="116" y2="216" /><line stroke="rgb(140, 164, 156)" stroke-width="1.6285091370547993" x1="579" x2="522" y1="250" y2="283" /><line stroke="rgb(97, 99, 173)" stroke-width="0.6674560588988947" x1="606" x2="63" y1="411" y2="458" /><line stroke="rgb(89, 92, 252)" stroke-width="1.5770423648609428" x1="384" x2="848" y1="486" y2="320" /><line stroke="rgb(152, 69, 110)" stroke-width="2.0047520073573657" x1="156" x2="206" y1="56" y2="577" /><line stroke="rgb(231, 108, 71)" stroke-width="1.3582638448892461" x1="831" x2="580" y1="64" y2="279" /><circle cx="230" cy="295" fill="none" opacity="0.9866861213664486" r="93" stroke="rgb(58, 252, 181)" stroke-width="4.1545524860140945" /><circle cx="250" cy="333" fill="none" opacity="0.7711446918308384" r="95" stroke="rgb(22, 224, 94)" stroke-width="0.9217900928447933" /><line stroke="rgb(181, 161, 53)" stroke-width="2.3660847449791547" x1="916" x2="694" y1="625" y2="548" /><line stroke="rgb(47, 122, 203)" stroke-width="1.372947240039709" x1="563" x2="535" y1="270" y2="589" /><line stroke="rgb(77, 225, 69)" stroke-width="2.823622651021175" x1="144" x2="883" y1="485" y2="375" /><line stroke="rgb(179, 11, 98)" stroke-width="0.50326145844948" x1="955" x2="531" y1="265" y2="637" /><line stroke="rgb(80, 177, 216)" stroke-width="1.5448048189755712" x1="175" x2="315" y1="78" y2="453" /><line stroke="rgb(94, 228, 253)" stroke-width="1.300183536802321" x1="867" x2="153" y1="43" y2="331" /><line stroke="rgb(13, 80, 135)" stroke-width="2.0201141407692242" x1="114" x2="148" y1="422" y2="105" /><line stroke="rgb(48, 239, 164)" stroke-width="0.8354819298669667" x1="7" x2="205" y1="45" y2="484" /><line stroke="rgb(27, 75, 70)" stroke-width="0.7341058785458403" x1="419" x2="571" y1="606" y2="232" /><line stroke="rgb(117, 231, 129)" stroke-width="1.103686147699708" x1="218" x2="510" y1="232" y2="378" /><rect fill="none" height="25" stroke="rgb(218, 243, 230)" stroke-width="0.554322952445844" transform="rotate(19 45 220)" width="115" x="513" y="389" /><polygon fill="none" points="570,355 627,92 787,55 223,65 71,406" stroke="rgb(241, 96, 146)" stroke-width="1.0612630057564383" /><polygon fill="none" points="346,480 22,504 408,146 64,651 32,640 303,340 322,311" stroke="rgb(21, 224, 193)" stroke-width="1.950670803380968" /><circle cx="805" cy="514" fill="none" opacity="0.41983840829288605" r="50" stroke="rgb(234, 40, 110)" stroke-width="1.306914706299676" /><path d="M898,33 C298,569 182,497 97,33 Q50,20 757,468 C761,646 459,572 157,23 Q610,377 738,523 L822,589 C306,328 129,619 371,270 Q516,205 786,141" fill="none" stroke="rgb(94, 76, 145)" stroke-width="2.59629719832245" /><polygon fill="none" points="819,167 634,238 121,167 531,161 450,625 576,538" stroke="rgb(7, 21, 77)" stroke-width="2.710979909212476" /><rect fill="none" height="62" stroke="rgb(217, 184, 22)" stroke-width="1.6139629951928138" transform="rotate(201 822 8)" width="189" x="633" y="317" /><polygon fill="none" points="918,185 660,515 255,189 28,164 240,576 19,471" stroke="rgb(174, 171, 33)" stroke-width="1.4913822361752733" /><path d="M630,180 L896,266 L448,16 C524,17 520,91 290,485 L910,447" fill="none" stroke="rgb(45, 26, 36)" stroke-width="2.874220504136548" /><circle cx="776" cy="590" fill="none" opacity="0.4959040473317168" r="146" stroke="rgb(108, 14, 238)" stroke-width="4.584943644593389" /><polygon fill="none" points="378,569 532,262 104,461 732,535 733,175" stroke="rgb(200, 73, 227)" stroke-width="0.5593164615278795" /><path d="M583,266 L627,241 Q872,433 707,533 Q516,337 335,264 C453,635 644,326 382,251 Q402,405 13,584" fill="none" stroke="rgb(127, 169, 238)" stroke-width="2.593494993762152" /><circle cx="155" cy="91" fill="none" opacity="0.6438475047425285" r="27" stroke="rgb(205, 151, 249)" stroke-width="2.1631170856591337" /><rect fill="none" height="151" stroke="rgb(124, 118, 234)" stroke-width="4.941105211421491" transform="rotate(115 122 574)" width="115" x="29" y="206" /><path d="M224,446 L174,378 C628,252 779,656 814,522 L24,141 Q259,19 98,447" fill="none" stroke="rgb(23, 17, 132)" stroke-width="1.6756851920754585" /><line stroke="rgb(9, 8, 148)" stroke-width="0.725241484681738" x1="77" x2="623" y1="105" y2="277" /><line stroke="rgb(226, 222, 95)" stroke-width="0.6733498464405614" x1="515" x2="590" y1="232" y2="84" /><line stroke="rgb(116, 194, 65)" stroke-width="0.8525951018809657" x1="869" x2="715" y1="649" y2="208" /><circle cx="522" cy="80" fill="none" opacity="0.5302150289603159" r="90" stroke="rgb(212, 201, 89)" stroke-width="4.402028713732186" /><polygon fill="none" points="204,318 558,661 471,63" stroke="rgb(95, 190, 200)" stroke-width="3.4175186616025313" /><line stroke="rgb(176, 11, 149)" stroke-width="2.8666784072852036" x1="218" x2="635" y1="511" y2="322" /><line stroke="rgb(110, 20, 18)" stroke-width="1.5495664210983748" x1="497" x2="664" y1="533" y2="331" /><line stroke="rgb(130, 92, 169)" stroke-width="1.4447000332063393" x1="713" x2="748" y1="440" y2="295" /><line stroke="rgb(9, 245, 136)" stroke-width="2.9466101288335063" x1="168" x2="344" y1="31" y2="616" /><line stroke="rgb(118, 159, 249)" stroke-width="2.443187706504448" x1="41" x2="107" y1="448" y2="223" /><line stroke="rgb(129, 130, 26)" stroke-width="0.9283173776068921" x1="235" x2="449" y1="663" y2="135" /><line stroke="rgb(27, 100, 83)" stroke-width="1.145670482581193" x1="164" x2="387" y1="627" y2="132" /><line stroke="rgb(5, 102, 242)" stroke-width="1.951016756835633" x1="516" x2="707" y1="595" y2="78" /><polygon fill="none" points="660,149 486,528 56,226 714,621 554,145 378,644 858,385" stroke="rgb(140, 249, 57)" stroke-width="0.6929352174387688" /><path d="M409,394 C427,29 557,406 135,330 Q935,639 907,501 Q742,260 144,245 Q902,18 523,42 Q137,22 316,626 C64,39 264,321 450,452" fill="none" stroke="rgb(101, 80, 35)" stroke-width="1.874196908744553" /><polygon fill="none" points="289,23 406,296 226,507 179,346 614,551 184,60 154,84" stroke="rgb(55, 161, 203)" stroke-width="3.017509145656459" /><circle cx="759" cy="403" fill="none" opacity="0.42855236539380503" r="123" stroke="rgb(133, 2, 117)" stroke-width="4.450728499236634" /><circle cx="436" cy="125" fill="none" opacity="0.6452768447786454" r="125" stroke="rgb(30, 241, 254)" stroke-width="2.2195260230102383" /><path d="M358,15 C634,429 687,190 227,307 L428,526 C223,266 88,36 861,223 L69,521 Q315,271 318,86 C282,4 721,625 17,371" fill="none" stroke="rgb(92, 158, 126)" stroke-width="2.2584982379901084" /><circle cx="686" cy="351" fill="none" opacity="0.4961280004329465" r="99" stroke="rgb(38, 67, 139)" stroke-width="1.9147028946429523" /></svg>