<svg baseProfile="full" height="765px" version="1.1" width="870px" xmlns="http://www.w3.org/2000/svg" xmlns:ev="http://www.w3.org/2001/xml-events" xmlns:xlink="http://www.w3.org/1999/xlink"><defs /><rect fill="rgb(252, 211, 243)" height="765px" width="870px" x="0" y="0" /><line stroke="rgb(160, 50, 172)" stroke-width="1.42776173865047" x1="299" x2="489" y1="397" y2="321" /><line stroke="rgb(43, 164, 52)" stroke-width="1.4217175681581737" x1="530" x2="428" y1="396" y2="645" /><line stroke="rgb(110, 180, 94)" stroke-width="2.55260151831546" x1="300" x2="306" y1="765" y2="139" /><line stroke="rgb(26, 108, 237)" stroke-width="1.770139984619683" x1="572" x2="286" y1="346" y2="509" /><line stroke="rgb(158, 237, 10)" stroke-width="2.858904463191439" x1="660" x2="556" y1="498" y2="418" /><line stroke="rgb(64, 227, 153)" stroke-width="1.6227286527222162" x1="402" x2="464" y1="288" y2="522" /><line stroke="rgb(138, 75, 0)" stroke-width="1.424881138314532" x1="263" x2="361" y1="405" y2="508" /><line stroke="rgb(93, 151, 231)" stroke-width="1.5334380709720818" x1="650" x2="372" y1="50" y2="194" /><line stroke="rgb(43, 162, 113)" stroke-width="0.6819099395225043" x1="732" x2="735" y1="605" y2="357" /><line stroke="rgb(94, 124, 91)" stroke-width="1.081540917398341" x1="728" x2="54" y1="420" y2="677" /><circle cx="588" cy="529" fill="none" opacity="0.7204400240345585" r="26" stroke="rgb(240, 245, 96)" stroke-width="3.2796310721490025" /><path d="M463,322 C363,437 711,625 138,276 L846,26 C288,21 534,434 733,538 Q73,478 351,185 L310,348" fill="none" stroke="rgb(236, 219, 118)" stroke-width="1.8074771917591654" /><rect fill="none" height="89" stroke="rgb(229, 45, 33)" stroke-width="1.4443303060034496" transform="rotate(197 572 85)" width="139" x="130" y="332" /><polygon fill="none" points="503,607 425,204 830,580 621,358 852,174 310,484" stroke="rgb(43, 54, 26)" stroke-width="1.4514462820028615" /><line stroke="rgb(62, 17, 26)" stroke-width="0.9963415633948218" x1="418" x2="340" y1="410" y2="252" /><line stroke="rgb(137, 85, 177)" stroke-width="1.970594502674982" x1="333" x2="161" y1="491" y2="600" /><line stroke="rgb(196, 171, 161)" stroke-width="1.9689695959647917" x1="156" x2="557" y1="212" y2="687" /><line stroke="rgb(133, 199, 247)" stroke-width="0.7775259601293989" x1="806" x2="769" y1="649" y2="595" /><line stroke="rgb(111, 152, 69)" stroke-width="0.7075068319723455" x1="197" x2="551" y1="195" y2="208" /><line stroke="rgb(53, 227, 72)" stroke-width="2.572613631304848" x1="815" x2="268" y1="12" y2="676" /><line stroke="rgb(102, 241, 122)" stroke-width="0.5462337876986438" x1="410" x2="245" y1="300" y2="22" /><line stroke="rgb(87, 129, 69)" stroke-width="0.7249685220406719" x1="830" x2="131" y1="718" y2="26" /><line stroke="rgb(150, 60, 65)" stroke-width="1.6046846977183957" x1="804" x2="130" y1="53" y2="228" /><rect fill="none" height="97" stroke="rgb(219, 186, 237)" stroke-width="2.8399395219247445" transform="rotate(269 37 687)" width="25" x="77" y="49" /><circle cx="810" cy="507" fill="none" opacity="0.4775628108922585" r="24" stroke="rgb(210, 55, 59)" stroke-width="1.9234830441133273" /><line stroke="rgb(116, 90, 7)" stroke-width="1.0639677585046372" x1="413" x2="550" y1="526" y2="713" /><line stroke="rgb(110, 249, 8)" stroke-width="2.312486456150245" x1="262" x2="563" y1="749" y2="568" /><line stroke="rgb(135, 21, 181)" stroke-width="0.937941429223152" x1="672" x2="576" y1="390" y2="543" /><line stroke="rgb(206, 58, 172)" stroke-width="0.7801185105032891" x1="758" x2="829" y1="603" y2="581" /><line stroke="rgb(237, 199, 2)" stroke-width="2.6380739771721937" x1="300" x2="826" y1="516" y2="531" /><circle cx="545" cy="513" fill="none" opacity="0.4846185496371361" r="51" stroke="rgb(103, 72, 144)" stroke-width="3.4131114189240614" /><circle cx="288" cy="648" fill="none" opacity="0.872970028476407" r="11" stroke="rgb(159, 19, 204)" stroke-width="1.831127228428215" /><line stroke="rgb(37, 84, 174)" stroke-width="1.0567720481931158" x1="748" x2="275" y1="595" y2="485" /><line stroke="rgb(203, 65, 211)" stroke-width="1.0040927102173351" x1="804" x2="422" y1="708" y2="264" /><line stroke="rgb(24, 213, 34)" stroke-width="1.3800261048580342" x1="589" x2="483" y1="424" y2="7" /><rect fill="none" height="112" stroke="rgb(51, 212, 60)" stroke-width="4.441679394749946" transform="rotate(134 522 237)" width="184" x="524" y="224" /><line stroke="rgb(245, 148, 192)" stroke-width="0.6271024836274376" x1="294" x2="408" y1="358" y2="459" /><line stroke="rgb(57, 13, 25)" stroke-width="1.6294298353601329" x1="712" x2="444" y1="163" y2="617" /><line stroke="rgb(214, 239, 67)" stroke-width="2.6959850943631203" x1="829" x2="476" y1="279" y2="169" /><line stroke="rgb(233, 59, 50)" stroke-width="1.9863716541887981" x1="457" x2="387" y1="115" y2="601" /><line stroke="rgb(21, 24, 8)" stroke-width="1.4751804803083821" x1="482" x2="441" y1="40" y2="518" /><line stroke="rgb(152, 45, 21)" stroke-width="2.4082013009226944" x1="415" x2="172" y1="724" y2="347" /><line stroke="rgb(55, 18, 223)" stroke-width="2.095822858427156" x1="448" x2="768" y1="67" y2="642" /><line stroke="rgb(29, 75, 128)" stroke-width="1.665014762531102" x1="639" x2="96" y1="88" y2="285" /><line stroke="rgb(4, 13, 19)" stroke-width="2.2812951958520538" x1="314" x2="428" y1="142" y2="701" /><circle cx="570" cy="346" fill="none" opacity="0.5875318974452832" r="117" stroke="rgb(252, 238, 144)" stroke-width="2.9555076469009403" /><rect fill="none" height="125" stroke="rgb(42, 168, 160)" stroke-width="0.8954939160310055" transform="rotate(72 57 352)" width="120" x="548" y="365" /><polygon fill="none" points="537,553 273,393 601,184 425,642" stroke="rgb(185, 76, 107)" stroke-width="0.6128098129359156" /><path d="M416,702 L188,457 C553,420 549,167 583,68 Q32,270 163,152 C445,322 424,572 224,77 L694,503 C240,108 327,631 212,517 Q161,315 71,321" fill="none" stroke="rgb(92, 25, 6)" stroke-width="2.4926928489508486" /><rect fill="none" height="33" stroke="rgb(47, 230, 83)" stroke-width="1.9377749894387504" transform="rotate(181 444 212)" width="123" x="464" y="146" /><polygon fill="none" points="212,217 149,454 544,112 644,206 618,161" stroke="rgb(137, 123, 212)" stroke-width="1.4411264437914812" /><polygon fill="none" points="101,66 602,401 581,512 41,454" stroke="rgb(198, 109, 136)" stroke-width="3.427286970008388" /><line stroke="rgb(11, 189, 143)" stroke-width="1.8210743955204076" x1="314" x2="650" y1="22" y2="541" /><line stroke="rgb(149, 46, 22)" stroke-width="0.5240395632050847" x1="12" x2="669" y1="253" y2="87" /><line stroke="rgb(11, 165, 158)" stroke-width="2.874737112439012" x1="218" x2="83" y1="455" y2="414" /><line stroke="rgb(250, 153, 171)" stroke-width="0.7012153138389067" x1="330" x2="507" y1="727" y2="276" /><line stroke="rgb(237, 136, 250)" stroke-width="1.8168878834930122" x1="542" x2="778" y1="72" y2="536" /><line stroke="rgb(106, 165, 141)" stroke-width="0.5252817508666664" x1="212" x2="694" y1="298" y2="129" /><rect fill="none" height="58" stroke="rgb(230, 184, 117)" stroke-width="3.5249863147517058" transform="rotate(223 421 70)" width="37" x="254" y="584" /><line stroke="rgb(107, 154, 61)" stroke-width="2.9646799465678955" x1="786" x2="435" y1="175" y2="461" /><line stroke="rgb(224, 24, 160)" stroke-width="1.460762381419677" x1="693" x2="235" y1="28" y2="170" /><line stroke="rgb(169, 243, 30)" stroke-width="0.5300278343328872" x1="365" x2="297" y1="125" y2="175" /><line stroke="rgb(211, 111, 228)" stroke-width="1.8913381053475309" x1="613" x2="40" y1="321" y2="738" /><line stroke="rgb(199, 60, 123)" stroke-width="1.3289189240924095" x1="740" x2="346" y1="226" y2="261" /><line stroke="rgb(29, 35, 239)" stroke-width="2.6327706062883593" x1="158" x2="331" y1="686" y2="465" /><line stroke="rgb(196, 38, 223)" stroke-width="2.9777275077806684" x1="20" x2="240" y1="628" y2="677" /><line stroke="rgb(223, 94, 149)" stroke-width="2.1584074327887555" x1="281" x2="793" y1="232" y2="465" /><line stroke="rgb(141, 83, 74)" stroke-width="2.2390942530590294" x1="691" x2="100" y1="173" y2="125" /><path d="M66,656 Q442,474 72,168 Q844,213 389,461 C459,710 243,501 73,295 C298,506 686,643 361,355 Q824,154 310,231" fill="none" stroke="rgb(250, 57, 122)" stroke-width="1.403946951296781" /><rect fill="none" height="179" stroke="rgb(105, 167, 166)" stroke-width="4.814088792971493" transform="rotate(312 684 290)" width="35" x="398" y="135" /><polygon fill="none" points="358,219 311,12 576,76 398,434 531,480" stroke="rgb(236, 159, 167)" stroke-width="0.9608381924103613" /><rect fill="none" height="175" stroke="rgb(171, 7, 215)" stroke-width="2.341716016121316" transform="rotate(204 458 721)" width="33" x="656" y="606" /><path d="M500,503 C814,262 472,456 139,13 C50,677 81,356 624,417 L600,606 Q797,701 374,390" fill="none" stroke="rgb(101, 154, 94)" stroke-width="0.5413681052230969" /><path d="M43,658 Q127,747 81,420 C398,623 257,342 390,367 Q257,676 611,377 C318,521 129,29 555,464" fill="none" stroke="rgb(51, 128, 145)" stroke-width="2.1188977517256644" /><polygon fill="none" points="864,120 514,191 598,627 219,304 572,632" stroke="rgb(81, 221, 89)" stroke-width="1.2194185415122982" /><line stroke="rgb(63, 113, 241)" stroke-width="2.7253429135166165" x1="56" x2="271" y1="686" y2="501" /><line stroke="rgb(162, 102, 229)" stroke-width="1.729911708969524" x1="339" x2="232" y1="171" y2="609" /><line stroke="rgb(251, 183, 201)" stroke-width="1.0207225295775753" x1="859" x2="555" y1="163" y2="295" /><line stroke="rgb(131, 123, 240)" stroke-width="0.594689107942004" x1="794" x2="865" y1="20" y2="75" /><path d="M260,66 L207,66 L684,562 C264,606 136,405 107,590 L553,696 Q861,561 29,69 L464,148" fill="none" stroke="rgb(5, 44, 146)" stroke-width="2.377170476392684" /><line stroke="rgb(252, 45, 178)" stroke-width="1.1577695411149627" x1="760" x2="421" y1="593" y2="483" /><line stroke="rgb(113, 141, 171)" stroke-width="1.2762044918290487" x1="340" x2="214" y1="159" y2="343" /><line stroke="rgb(240, 26, 215)" stroke-width="2.945521286250834" x1="681" x2="234" y1="683" y2="265" /><line stroke="rgb(216, 163, 20)" stroke-width="0.8893366199654091" x1="795" x2="763" y1="131" y2="243" /><line stroke="rgb(41, 92, 126)" stroke-width="1.0972813923862639" x1="368" x2="135" y1="221" y2="677" /><line stroke="rgb(187, 71, 198)" stroke-width="1.5041175420249984" x1="739" x2="855" y1="624" y2="143" /><line stroke="rgb(242, 133, 37)" stroke-width="0.9448756697814771" x1="108" x2="578" y1="583" y2="578" /><line stroke="rgb(121, 23, 52)" stroke-width="2.1613595987468734" x1="804" x2="776" y1="507" y2="363" /><line stroke="rgb(104, 212, 68)" stroke-width="2.9459993038102374" x1="604" x2="576" y1="383" y2="265" /><line stroke="rgb(230, 246, 11)" stroke-width="0.5033340832282045" x1="833" x2="666" y1="716" y2="303" /><polygon fill="none" points="587,65 709,667 623,630 545,708 656,222 350,219" stroke="rgb(76, 114, 229)" stroke-width="1.081663097521396" /><circle cx="705" cy="306" fill="none" opacity="0.8102184019596383" r="168" stroke="rgb(97, 227, 27)" stroke-width="1.7606718679712052" /><polygon fill="none" points="308,184 256,173 595,300 784,228 99,5" stroke="rgb(219, 247, 144)" stroke-width="1.5558946993558629" /><circle cx="217" cy="153" fill="none" opacity="0.8279114182687892" r="179" stroke="rgb(20, 21, 191)" stroke-width="1.919071878178685" /><circle cx="717" cy="350" fill="none" opacity="0.48940096359132834" r="63" stroke="rgb(240, 117, 239)" stroke-width="2.0770508032693966" /><rect fill="none" height="70" stroke="rgb(172, 141, 114)" stroke-width="4.89863117366064" transform="rotate(87 373 257)" width="53" x="7" y="128" /><polygon fill="none" points="108,389 450,569 624,347 738,423 560,383 170,549" stroke="rgb(9, 192, 9)" stroke-width="1.3258916517355535" /><line stroke="rgb(254, 59, 199)" stroke-width="1.357949729423627" x1="556" x2="479" y1="306" y2="19" /><line stroke="rgb(169, 93, 11)" stroke-width="2.697014353996427" x1="642" x2="568" y1="299" y2="566" /><line stroke="rgb(33, 207, 229)" stroke-width="2.5969175158259263" x1="161" x2="85" y1="580" y2="752" /><line stroke="rgb(111, 127, 207)" stroke-width="0.5463352437403408" x1="685" x2="189" y1="211" y2="192" /><line stroke="rgb(99, 163, 16)" stroke-width="1.034796728514606" x1="275" x2="773" y1="307" y2="643" /></svg>