<svg baseProfile="full" height="628px" version="1.1" width="1149px" xmlns="http://www.w3.org/2000/svg" xmlns:ev="http://www.w3.org/2001/xml-events" xmlns:xlink="http://www.w3.org/1999/xlink"><defs /><rect fill="rgb(205, 219, 243)" height="628px" width="1149px" x="0" y="0" /><path d="M837,30 L846,583 C320,201 744,291 188,364 L604,72 C1116,460 957,579 4,361 Q502,65 121,189" fill="none" stroke="rgb(111, 31, 134)" stroke-width="2.380002712335518" /><rect fill="none" height="95" stroke="rgb(184, 191, 192)" stroke-width="2.977910414330696" transform="rotate(83 166 244)" width="195" x="130" y="397" /><circle cx="375" cy="123" fill="none" opacity="0.9595757710713546" r="114" stroke="rgb(190, 11, 156)" stroke-width="0.689656347436856" /><circle cx="618" cy="66" fill="none" opacity="0.41980311997617975" r="36" stroke="rgb(24, 44, 34)" stroke-width="2.5674124929326645" /><line stroke="rgb(20, 112, 63)" stroke-width="2.72972858944152" x1="433" x2="238" y1="145" y2="541" /><line stroke="rgb(139, 60, 64)" stroke-width="1.177716004723835" x1="437" x2="736" y1="501" y2="404" /><line stroke="rgb(47, 66, 160)" stroke-width="1.7498010375002644" x1="806" x2="1061" y1="565" y2="400" /><line stroke="rgb(160, 74, 160)" stroke-width="1.150124206293797" x1="321" x2="644" y1="8" y2="402" /><line stroke="rgb(105, 198, 135)" stroke-width="1.8713958375767694" x1="826" x2="1095" y1="224" y2="3" /><line stroke="rgb(255, 66, 179)" stroke-width="0.6459803572525897" x1="144" x2="278" y1="498" y2="623" /><line stroke="rgb(54, 41, 159)" stroke-width="2.0172027505217267" x1="1026" x2="123" y1="626" y2="37" /><line stroke="rgb(73, 193, 30)" stroke-width="2.5627583029010013" x1="581" x2="823" y1="107" y2="615" /><line stroke="rgb(51, 207, 40)" stroke-width="1.5985826963846241" x1="789" x2="377" y1="176" y2="20" /><path d="M309,359 C217,621 456,97 652,426 Q195,577 745,614 L430,564 L634,416 Q926,200 885,232 C405,64 296,448 734,96" fill="none" stroke="rgb(6, 231, 181)" stroke-width="1.9804879997887888" /><circle cx="249" cy="430" fill="none" opacity="0.3287801060492034" r="43" stroke="rgb(143, 246, 249)" stroke-width="4.545580955514035" /><circle cx="240" cy="445" fill="none" opacity="0.3039216833664325" r="111" stroke="rgb(34, 122, 167)" stroke-width="2.829461186132792" /><polygon fill="none" points="836,589 352,564 1020,566 1065,312 652,156 1020,626" stroke="rgb(227, 16, 157)" stroke-width="2.8354649409303625" /><polygon fill="none" points="679,608 360,483 558,583 175,88 956,559 652,424" stroke="rgb(119, 38, 39)" stroke-width="3.4955220386284465" /><rect fill="none" height="83" stroke="rgb(171, 144, 54)" stroke-width="4.573474613881984" transform="rotate(328 1008 87)" width="23" x="571" y="513" /><line stroke="rgb(157, 251, 104)" stroke-width="2.1474817947074527" x1="1133" x2="33" y1="191" y2="362" /><line stroke="rgb(89, 126, 73)" stroke-width="1.1977475886532014" x1="395" x2="605" y1="400" y2="423" /><line stroke="rgb(40, 177, 139)" stroke-width="1.0372918781297222" x1="570" x2="1124" y1="155" y2="234" /><line stroke="rgb(94, 38, 203)" stroke-width="2.0183089383773143" x1="664" x2="625" y1="261" y2="453" /><line stroke="rgb(30, 44, 83)" stroke-width="0.759033708292328" x1="536" x2="660" y1="111" y2="107" /><line stroke="rgb(254, 135, 245)" stroke-width="0.6497401918515082" x1="1131" x2="391" y1="403" y2="223" /><line stroke="rgb(28, 241, 79)" stroke-width="2.647827615110378" x1="781" x2="628" y1="518" y2="619" /><line stroke="rgb(182, 184, 244)" stroke-width="2.2799114575881276" x1="889" x2="105" y1="424" y2="352" /><line stroke="rgb(173, 116, 13)" stroke-width="2.712075963057633" x1="300" x2="506" y1="147" y2="448" /><line stroke="rgb(114, 133, 235)" stroke-width="2.831843599640419" x1="518" x2="394" y1="327" y2="547" /><circle cx="961" cy="432" fill="none" opacity="0.7255237204372808" r="78" stroke="rgb(104, 30, 89)" stroke-width="1.8352737148638543" /><polygon fill="none" points="337,231 372,280 1085,374 312,311 184,291 1022,450" stroke="rgb(133, 230, 52)" stroke-width="3.0163563377909774" /><line stroke="rgb(174, 158, 240)" stroke-width="2.1257481529204565" x1="208" x2="1007" y1="175" y2="398" /><line stroke="rgb(199, 25, 245)" stroke-width="0.913185422706577" x1="820" x2="76" y1="112" y2="166" /><line stroke="rgb(107, 52, 231)" stroke-width="1.6100067725100482" x1="376" x2="810" y1="220" y2="95" /><line stroke="rgb(164, 172, 241)" stroke-width="0.714497523798749" x1="1113" x2="543" y1="72" y2="460" /><line stroke="rgb(154, 42, 88)" stroke-width="2.0487300831755473" x1="910" x2="790" y1="71" y2="412" /><line stroke="rgb(12, 148, 120)" stroke-width="2.987315421975049" x1="998" x2="694" y1="472" y2="219" /><line stroke="rgb(180, 211, 18)" stroke-width="2.257911682007787" x1="192" x2="199" y1="387" y2="574" /><line stroke="rgb(176, 77, 77)" stroke-width="2.647160266502655" x1="364" x2="975" y1="119" y2="435" /><line stroke="rgb(71, 134, 152)" stroke-width="0.656278313951031" x1="1068" x2="1029" y1="93" y2="390" /><line stroke="rgb(125, 42, 121)" stroke-width="1.7450839658679418" x1="608" x2="678" y1="254" y2="218" /><rect fill="none" height="37" stroke="rgb(169, 164, 194)" stroke-width="3.7855538839917933" transform="rotate(30 91 116)" width="50" x="619" y="70" /><rect fill="none" height="35" stroke="rgb(68, 85, 60)" stroke-width="1.9771730997057286" transform="rotate(143 555 107)" width="136" x="957" y="59" /><rect fill="none" height="60" stroke="rgb(212, 65, 173)" stroke-width="4.5465504979631755" transform="rotate(181 188 553)" width="151" x="939" y="165" /><line stroke="rgb(123, 120, 89)" stroke-width="0.9949944452791782" x1="909" x2="381" y1="467" y2="497" /><line stroke="rgb(183, 243, 90)" stroke-width="2.01103684263029" x1="961" x2="118" y1="609" y2="69" /><line stroke="rgb(196, 22, 7)" stroke-width="1.3464946058327785" x1="532" x2="819" y1="427" y2="252" /><line stroke="rgb(198, 193, 72)" stroke-width="2.0265340941601035" x1="280" x2="154" y1="207" y2="280" /><line stroke="rgb(12, 23, 253)" stroke-width="1.7212145120679028" x1="348" x2="543" y1="345" y2="198" /><line stroke="rgb(153, 155, 143)" stroke-width="2.77310196075348" x1="797" x2="693" y1="333" y2="585" /><path d="M672,530 C1144,115 833,539 222,59 C569,460 968,226 7,381 Q460,196 166,424 Q367,120 771,254 L57,555 Q879,37 584,185 Q338,68 915,506" fill="none" stroke="rgb(32, 139, 44)" stroke-width="1.5827479030779883" /><line stroke="rgb(239, 107, 183)" stroke-width="1.2600864625575223" x1="898" x2="944" y1="607" y2="179" /><line stroke="rgb(167, 43, 246)" stroke-width="0.6639527373730126" x1="278" x2="1035" y1="137" y2="26" /><line stroke="rgb(94, 14, 22)" stroke-width="2.2879542827858588" x1="191" x2="674" y1="616" y2="271" /><line stroke="rgb(11, 190, 79)" stroke-width="2.1206847917810974" x1="119" x2="424" y1="316" y2="315" /><circle cx="459" cy="241" fill="none" opacity="0.9085808981857304" r="111" stroke="rgb(100, 178, 244)" stroke-width="4.913092706234283" /><rect fill="none" height="170" stroke="rgb(164, 210, 230)" stroke-width="0.6796149531953505" transform="rotate(267 771 286)" width="181" x="168" y="128" /><rect fill="none" height="199" stroke="rgb(25, 55, 14)" stroke-width="4.450525150125332" transform="rotate(304 707 188)" width="165" x="27" y="464" /><line stroke="rgb(85, 153, 74)" stroke-width="0.758329152395676" x1="402" x2="759" y1="203" y2="141" /><line stroke="rgb(62, 254, 18)" stroke-width="1.8075546393606763" x1="349" x2="349" y1="535" y2="95" /><line stroke="rgb(176, 219, 64)" stroke-width="1.0339733953798067" x1="133" x2="392" y1="221" y2="487" /><line stroke="rgb(179, 8, 187)" stroke-width="2.891231023233778" x1="728" x2="28" y1="154" y2="457" /><line stroke="rgb(138, 49, 87)" stroke-width="2.798314999963846" x1="1014" x2="396" y1="471" y2="54" /><line stroke="rgb(8, 51, 209)" stroke-width="2.225609508797508" x1="540" x2="853" y1="429" y2="2" /><line stroke="rgb(237, 30, 102)" stroke-width="1.7653115668014672" x1="1126" x2="674" y1="36" y2="438" /><line stroke="rgb(183, 141, 113)" stroke-width="2.8841304785541064" x1="872" x2="138" y1="246" y2="8" /><line stroke="rgb(143, 147, 230)" stroke-width="2.8478702188268517" x1="222" x2="361" y1="133" y2="392" /><line stroke="rgb(157, 225, 53)" stroke-width="2.271970881531519" x1="929" x2="886" y1="318" y2="557" /><path d="M562,467 L438,128 L738,587 C197,106 306,199 316,247 Q16,446 987,110 L173,605 L1072,175 L44,542" fill="none" stroke="rgb(24, 182, 208)" stroke-width="0.6616321623234405" /></svg>