<svg baseProfile="full" height="516px" version="1.1" width="682px" xmlns="http://www.w3.org/2000/svg" xmlns:ev="http://www.w3.org/2001/xml-events" xmlns:xlink="http://www.w3.org/1999/xlink"><defs /><rect fill="rgb(214, 253, 218)" height="516px" width="682px" x="0" y="0" /><rect fill="none" height="160" stroke="rgb(17, 138, 161)" stroke-width="0.9533190840870702" transform="rotate(192 272 174)" width="164" x="530" y="246" /><line stroke="rgb(83, 43, 128)" stroke-width="1.180509537121986" x1="282" x2="113" y1="252" y2="106" /><line stroke="rgb(139, 198, 102)" stroke-width="1.7718389709182951" x1="272" x2="235" y1="284" y2="409" /><line stroke="rgb(223, 177, 77)" stroke-width="2.453016900337996" x1="14" x2="619" y1="323" y2="134" /><line stroke="rgb(14, 203, 185)" stroke-width="1.1639419364960086" x1="103" x2="6" y1="372" y2="50" /><line stroke="rgb(113, 130, 211)" stroke-width="2.1142095567879555" x1="15" x2="329" y1="178" y2="41" /><line stroke="rgb(192, 3, 244)" stroke-width="1.9437225231178996" x1="609" x2="30" y1="328" y2="76" /><line stroke="rgb(192, 10, 120)" stroke-width="1.846610320165289" x1="344" x2="217" y1="148" y2="41" /><line stroke="rgb(230, 73, 86)" stroke-width="1.2323949780026977" x1="429" x2="570" y1="330" y2="441" /><line stroke="rgb(193, 124, 196)" stroke-width="0.7710821234914804" x1="300" x2="524" y1="272" y2="240" /><line stroke="rgb(165, 253, 1)" stroke-width="1.7681335464577632" x1="494" x2="127" y1="348" y2="333" /><line stroke="rgb(226, 223, 26)" stroke-width="1.606255199680162" x1="233" x2="96" y1="283" y2="30" /><line stroke="rgb(205, 187, 219)" stroke-width="2.802256556551463" x1="170" x2="416" y1="244" y2="40" /><line stroke="rgb(213, 87, 96)" stroke-width="1.221188209687126" x1="112" x2="289" y1="323" y2="323" /><rect fill="none" height="191" stroke="rgb(173, 250, 53)" stroke-width="4.497446893066356" transform="rotate(58 503 229)" width="167" x="90" y="308" /><circle cx="164" cy="341" fill="none" opacity="0.9188909363357984" r="38" stroke="rgb(227, 27, 214)" stroke-width="3.6731707915530265" /><rect fill="none" height="44" stroke="rgb(142, 33, 222)" stroke-width="4.252777768398053" transform="rotate(157 317 75)" width="32" x="339" y="278" /><circle cx="310" cy="73" fill="none" opacity="0.767337796271164" r="19" stroke="rgb(65, 244, 236)" stroke-width="1.3566761186419583" /><line stroke="rgb(43, 217, 112)" stroke-width="2.314293093420196" x1="289" x2="19" y1="182" y2="328" /><line stroke="rgb(219, 63, 229)" stroke-width="1.2300457578746944" x1="22" x2="299" y1="118" y2="364" /><line stroke="rgb(206, 184, 253)" stroke-width="2.355227699933205" x1="500" x2="327" y1="190" y2="424" /><line stroke="rgb(186, 244, 51)" stroke-width="2.8774817235949555" x1="245" x2="203" y1="494" y2="31" /><line stroke="rgb(231, 200, 198)" stroke-width="2.3188767059404087" x1="270" x2="455" y1="353" y2="343" /><line stroke="rgb(132, 206, 104)" stroke-width="0.8291760306169295" x1="590" x2="230" y1="49" y2="128" /><line stroke="rgb(249, 244, 190)" stroke-width="1.3707311634060035" x1="240" x2="168" y1="241" y2="101" /><line stroke="rgb(2, 108, 249)" stroke-width="2.2259381401978398" x1="480" x2="88" y1="356" y2="132" /><line stroke="rgb(213, 21, 76)" stroke-width="2.856117120067834" x1="434" x2="564" y1="270" y2="435" /><line stroke="rgb(212, 255, 188)" stroke-width="0.5018375887096254" x1="282" x2="641" y1="238" y2="118" /><line stroke="rgb(195, 75, 41)" stroke-width="1.1636976795975822" x1="587" x2="100" y1="514" y2="309" /><line stroke="rgb(148, 134, 86)" stroke-width="1.864876712885359" x1="564" x2="249" y1="4" y2="236" /><line stroke="rgb(121, 22, 42)" stroke-width="0.9111851191599367" x1="467" x2="103" y1="346" y2="187" /><path d="M681,16 L441,314 C637,206 262,493 284,364 Q96,296 281,451 Q514,211 287,98 C74,57 461,510 192,245 C215,75 262,162 586,365 Q35,297 630,256" fill="none" stroke="rgb(193, 185, 15)" stroke-width="2.4568507859222875" /><rect fill="none" height="176" stroke="rgb(40, 116, 185)" stroke-width="3.7069112507851854" transform="rotate(356 288 457)" width="27" x="169" y="113" /><polygon fill="none" points="31,424 404,376 258,240 174,21 21,431 204,413 165,285" stroke="rgb(250, 42, 86)" stroke-width="3.7038148596023306" /><line stroke="rgb(173, 219, 246)" stroke-width="1.9229577349534426" x1="320" x2="57" y1="493" y2="331" /><line stroke="rgb(169, 117, 65)" stroke-width="1.7418532440043664" x1="487" x2="632" y1="183" y2="366" /><line stroke="rgb(192, 200, 246)" stroke-width="1.417669486921604" x1="213" x2="529" y1="171" y2="512" /><line stroke="rgb(76, 221, 213)" stroke-width="1.5516662129828585" x1="105" x2="666" y1="466" y2="503" /><line stroke="rgb(156, 227, 210)" stroke-width="0.7582705721909087" x1="199" x2="291" y1="78" y2="509" /><line stroke="rgb(11, 175, 114)" stroke-width="2.965481232640841" x1="473" x2="468" y1="494" y2="206" /><line stroke="rgb(62, 205, 127)" stroke-width="2.8789884151126723" x1="568" x2="88" y1="58" y2="204" /><line stroke="rgb(84, 181, 151)" stroke-width="2.3006787320783952" x1="65" x2="610" y1="271" y2="210" /><line stroke="rgb(189, 233, 48)" stroke-width="1.419922104587504" x1="151" x2="142" y1="489" y2="419" /><circle cx="292" cy="348" fill="none" opacity="0.6826597701062289" r="43" stroke="rgb(80, 107, 7)" stroke-width="3.603597745489763" /><rect fill="none" height="124" stroke="rgb(112, 253, 138)" stroke-width="3.55224548906435" transform="rotate(221 388 295)" width="33" x="487" y="95" /><rect fill="none" height="163" stroke="rgb(142, 237, 94)" stroke-width="2.4576692730184955" transform="rotate(294 400 110)" width="50" x="122" y="204" /><path d="M344,478 L135,119 L194,335 L437,337 C367,213 278,83 366,409 Q113,109 176,174 Q589,487 194,125 Q411,426 669,516" fill="none" stroke="rgb(149, 150, 169)" stroke-width="2.818719284107235" /><line stroke="rgb(222, 86, 235)" stroke-width="1.190352564167095" x1="470" x2="573" y1="112" y2="56" /><line stroke="rgb(43, 123, 111)" stroke-width="2.0940170947369348" x1="60" x2="158" y1="194" y2="423" /><line stroke="rgb(184, 142, 179)" stroke-width="2.421905159218829" x1="121" x2="111" y1="241" y2="312" /><line stroke="rgb(92, 15, 36)" stroke-width="0.5259735568153172" x1="391" x2="244" y1="158" y2="177" /><line stroke="rgb(101, 167, 248)" stroke-width="2.524575634140052" x1="620" x2="126" y1="123" y2="402" /><line stroke="rgb(112, 200, 209)" stroke-width="2.6183178683153954" x1="397" x2="6" y1="207" y2="175" /><line stroke="rgb(214, 62, 105)" stroke-width="0.7451827990024308" x1="28" x2="25" y1="131" y2="284" /><line stroke="rgb(69, 199, 113)" stroke-width="1.390083047191548" x1="257" x2="526" y1="349" y2="98" /><line stroke="rgb(225, 18, 114)" stroke-width="1.6159269648561438" x1="456" x2="533" y1="210" y2="314" /><line stroke="rgb(73, 35, 15)" stroke-width="1.2883969938822233" x1="292" x2="268" y1="440" y2="127" /><polygon fill="none" points="368,214 361,322 204,86 424,226 508,305" stroke="rgb(229, 244, 178)" stroke-width="2.271323787103414" /><rect fill="none" height="197" stroke="rgb(75, 58, 138)" stroke-width="1.799429731354218" transform="rotate(339 468 290)" width="44" x="255" y="112" /><circle cx="416" cy="190" fill="none" opacity="0.7444927115427685" r="75" stroke="rgb(246, 77, 135)" stroke-width="4.8967938508708" /><circle cx="625" cy="294" fill="none" opacity="0.4240852395396018" r="58" stroke="rgb(248, 164, 221)" stroke-width="3.4696538066465425" /><circle cx="55" cy="388" fill="none" opacity="0.4102710803396338" r="70" stroke="rgb(224, 252, 37)" stroke-width="4.950048754128163" /><polygon fill="none" points="260,8 504,201 613,477 644,505" stroke="rgb(99, 83, 93)" stroke-width="0.9872191939818802" /><rect fill="none" height="36" stroke="rgb(134, 19, 49)" stroke-width="2.523206199785577" transform="rotate(251 234 326)" width="166" x="182" y="384" /><line stroke="rgb(35, 208, 49)" stroke-width="1.4609232878304206" x1="155" x2="323" y1="118" y2="360" /><line stroke="rgb(190, 41, 184)" stroke-width="2.0548240441202115" x1="353" x2="546" y1="398" y2="212" /><line stroke="rgb(39, 122, 118)" stroke-width="1.0785040999104947" x1="529" x2="217" y1="78" y2="353" /><line stroke="rgb(248, 14, 18)" stroke-width="2.9797714645972952" x1="28" x2="301" y1="227" y2="251" /><line stroke="rgb(19, 175, 182)" stroke-width="0.813117277796068" x1="314" x2="507" y1="173" y2="378" /><line stroke="rgb(227, 71, 236)" stroke-width="1.6521949782053718" x1="23" x2="645" y1="357" y2="157" /><line stroke="rgb(214, 82, 184)" stroke-width="2.310390179141451" x1="337" x2="301" y1="213" y2="298" /><line stroke="rgb(90, 132, 167)" stroke-width="1.697899936443601" x1="38" x2="284" y1="155" y2="353" /><line stroke="rgb(106, 65, 96)" stroke-width="1.3022966037093537" x1="668" x2="207" y1="395" y2="285" /><line stroke="rgb(25, 77, 121)" stroke-width="1.6569682345611552" x1="145" x2="508" y1="208" y2="221" /><circle cx="552" cy="79" fill="none" opacity="0.9724611123166715" r="80" stroke="rgb(29, 45, 49)" stroke-width="2.826102379530844" /><polygon fill="none" points="191,481 500,231 461,76 145,342 339,269 640,504 479,513 544,1" stroke="rgb(252, 29, 127)" stroke-width="3.9061916047688046" /><circle cx="84" cy="235" fill="none" opacity="0.8986656496190197" r="45" stroke="rgb(79, 9, 119)" stroke-width="3.8271545248381824" /><circle cx="134" cy="353" fill="none" opacity="0.845576953398359" r="88" stroke="rgb(246, 56, 248)" stroke-width="1.758124134965036" /><circle cx="427" cy="148" fill="none" opacity="0.9720668681666029" r="84" stroke="rgb(175, 168, 248)" stroke-width="1.6776901032623945" /><line stroke="rgb(143, 168, 160)" stroke-width="1.9231922993503712" x1="464" x2="54" y1="109" y2="130" /><line stroke="rgb(152, 10, 101)" stroke-width="0.505082523942152" x1="459" x2="286" y1="104" y2="274" /><line stroke="rgb(30, 163, 4)" stroke-width="1.029202973074818" x1="35" x2="240" y1="119" y2="247" /><line stroke="rgb(29, 230, 14)" stroke-width="1.4782928312813886" x1="399" x2="392" y1="297" y2="145" /><line stroke="rgb(186, 221, 39)" stroke-width="2.8701705810703015" x1="41" x2="601" y1="299" y2="153" /><line stroke="rgb(110, 28, 207)" stroke-width="0.7993693364453851" x1="613" x2="527" y1="500" y2="439" /><line stroke="rgb(154, 19, 110)" stroke-width="0.5105641874621507" x1="411" x2="545" y1="97" y2="412" /><line stroke="rgb(207, 27, 115)" stroke-width="2.0299676730668463" x1="335" x2="86" y1="442" y2="152" /><line stroke="rgb(230, 200, 158)" stroke-width="0.6127344142637574" x1="77" x2="427" y1="236" y2="416" /><line stroke="rgb(142, 245, 69)" stroke-width="1.5686898673764484" x1="233" x2="380" y1="307" y2="274" /><path d="M403,179 C298,503 148,34 88,514 L276,272 Q516,76 443,67 L491,321 Q79,374 35,195 C188,319 528,161 215,510 C585,104 517,408 633,194" fill="none" stroke="rgb(242, 227, 237)" stroke-width="1.767616138890574" /><path d="M175,170 L111,1 C152,50 224,271 598,279 C29,491 616,318 424,414" fill="none" stroke="rgb(216, 170, 173)" stroke-width="1.2370072999504031" /><path d="M588,357 C523,100 119,392 570,85 Q634,207 357,502 L651,184 Q644,177 55,438 C578,489 539,411 436,306" fill="none" stroke="rgb(112, 34, 41)" stroke-width="2.25759150923454" /><path d="M250,343 L144,142 C222,459 63,231 653,375 L143,304 L134,467" fill="none" stroke="rgb(166, 198, 206)" stroke-width="0.9908035686557793" /><circle cx="381" cy="251" fill="none" opacity="0.5805084329512168" r="77" stroke="rgb(207, 163, 124)" stroke-width="4.227803805908583" /><polygon fill="none" points="366,40 524,217 95,358" stroke="rgb(63, 122, 253)" stroke-width="2.2252713481179196" /><line stroke="rgb(48, 93, 216)" stroke-width="2.8735200038503006" x1="226" x2="523" y1="149" y2="282" /><line stroke="rgb(48, 234, 186)" stroke-width="1.496184111870078" x1="448" x2="249" y1="305" y2="274" /><line stroke="rgb(31, 47, 125)" stroke-width="2.2840726302740553" x1="679" x2="210" y1="303" y2="155" /><line stroke="rgb(36, 155, 66)" stroke-width="2.9470093485019384" x1="643" x2="366" y1="140" y2="411" /><line stroke="rgb(142, 129, 240)" stroke-width="2.794246626377202" x1="542" x2="385" y1="465" y2="126" /><line stroke="rgb(156, 163, 195)" stroke-width="2.4008652952890337" x1="632" x2="469" y1="468" y2="281" /><line stroke="rgb(182, 120, 162)" stroke-width="1.6964919067037751" x1="470" x2="129" y1="15" y2="230" /><line stroke="rgb(184, 226, 165)" stroke-width="1.0410925478220046" x1="89" x2="327" y1="387" y2="83" /><line stroke="rgb(22, 67, 253)" stroke-width="0.8400354801262739" x1="237" x2="182" y1="117" y2="500" /><path d="M378,238 Q187,303 260,24 Q136,134 536,16 L429,500 Q350,130 531,425 Q204,255 314,435 L641,497 C311,322 406,444 562,193" fill="none" stroke="rgb(134, 166, 125)" stroke-width="0.9891802648468024" /><path d="M253,387 Q394,45 281,261 Q135,218 483,285 C242,431 676,252 472,434 C136,171 247,256 493,263 C561,377 195,484 574,386 L656,241" fill="none" stroke="rgb(94, 14, 175)" stroke-width="0.5741107937708472" /><line stroke="rgb(213, 210, 2)" stroke-width="0.7898940854919883" x1="559" x2="176" y1="346" y2="339" /><line stroke="rgb(19, 165, 16)" stroke-width="2.1693066872645015" x1="625" x2="221" y1="353" y2="269" /><line stroke="rgb(65, 62, 95)" stroke-width="2.279092897801597" x1="647" x2="244" y1="250" y2="158" /><line stroke="rgb(77, 225, 96)" stroke-width="1.5174335656049982" x1="603" x2="431" y1="209" y2="515" /><line stroke="rgb(9, 4, 57)" stroke-width="2.7651038137232478" x1="213" x2="619" y1="36" y2="413" /><line stroke="rgb(79, 14, 168)" stroke-width="1.3037767604441226" x1="498" x2="540" y1="348" y2="91" /><polygon fill="none" points="672,159 108,327 558,490" stroke="rgb(246, 223, 87)" stroke-width="2.2659452900357646" /><path d="M164,259 L268,133 L435,367 Q106,207 248,168 L507,348 C92,253 151,147 305,18 Q33,308 465,241" fill="none" stroke="rgb(229, 58, 233)" stroke-width="1.0462056778882272" /></svg>