<svg baseProfile="full" height="568px" version="1.1" width="1096px" xmlns="http://www.w3.org/2000/svg" xmlns:ev="http://www.w3.org/2001/xml-events" xmlns:xlink="http://www.w3.org/1999/xlink"><defs /><rect fill="rgb(246, 228, 222)" height="568px" width="1096px" x="0" y="0" /><circle cx="265" cy="224" fill="none" opacity="0.7161046839406531" r="35" stroke="rgb(23, 219, 244)" stroke-width="4.776673727078144" /><polygon fill="none" points="179,199 1082,35 498,260 910,110 408,488" stroke="rgb(122, 78, 181)" stroke-width="2.0403704186964786" /><polygon fill="none" points="874,311 466,116 793,53 876,158" stroke="rgb(202, 126, 93)" stroke-width="3.6896124501383523" /><polygon fill="none" points="979,172 864,83 1077,518 371,463 892,18" stroke="rgb(17, 144, 43)" stroke-width="1.994172372107462" /><polygon fill="none" points="434,493 201,200 638,289 13,117" stroke="rgb(222, 20, 57)" stroke-width="2.185766806029993" /><line stroke="rgb(97, 146, 35)" stroke-width="0.6416810887383513" x1="815" x2="905" y1="235" y2="82" /><line stroke="rgb(108, 130, 34)" stroke-width="0.6985074002217174" x1="914" x2="465" y1="382" y2="398" /><line stroke="rgb(10, 106, 215)" stroke-width="2.1864096747745725" x1="1006" x2="933" y1="160" y2="124" /><line stroke="rgb(115, 121, 102)" stroke-width="1.1182861758912872" x1="689" x2="766" y1="136" y2="470" /><line stroke="rgb(206, 237, 221)" stroke-width="0.5765581698587257" x1="935" x2="551" y1="97" y2="440" /><line stroke="rgb(8, 158, 242)" stroke-width="0.840288476071058" x1="25" x2="596" y1="206" y2="488" /><rect fill="none" height="38" stroke="rgb(41, 43, 11)" stroke-width="1.301720145268751" transform="rotate(201 861 481)" width="110" x="555" y="337" /><path d="M1010,258 Q138,14 88,27 C748,289 180,247 1027,272 L115,67 Q826,501 391,69" fill="none" stroke="rgb(35, 151, 235)" stroke-width="0.9547682733792944" /><rect fill="none" height="167" stroke="rgb(142, 62, 141)" stroke-width="2.7308205367469602" transform="rotate(303 803 159)" width="91" x="946" y="165" /><line stroke="rgb(41, 109, 233)" stroke-width="1.4130799510273748" x1="609" x2="454" y1="442" y2="310" /><line stroke="rgb(114, 37, 224)" stroke-width="1.478701714879706" x1="689" x2="974" y1="405" y2="471" /><line stroke="rgb(69, 237, 100)" stroke-width="2.4352429582959636" x1="525" x2="515" y1="196" y2="241" /><line stroke="rgb(48, 181, 154)" stroke-width="0.6243803992574579" x1="765" x2="445" y1="479" y2="14" /><line stroke="rgb(44, 10, 15)" stroke-width="2.6914316725290535" x1="623" x2="590" y1="123" y2="71" /><line stroke="rgb(6, 254, 53)" stroke-width="0.858114397798299" x1="429" x2="754" y1="277" y2="16" /><line stroke="rgb(140, 51, 147)" stroke-width="2.2436141156236236" x1="924" x2="1018" y1="61" y2="323" /><line stroke="rgb(95, 171, 152)" stroke-width="1.9905666610056891" x1="727" x2="46" y1="105" y2="422" /><path d="M635,247 L956,391 L118,226 Q346,171 154,469 Q429,399 880,214 L40,382 Q708,322 832,471" fill="none" stroke="rgb(73, 88, 170)" stroke-width="2.3337341745235984" /><polygon fill="none" points="908,393 744,291 763,474 797,214 764,85 339,210 811,146" stroke="rgb(204, 140, 193)" stroke-width="2.1104203723171167" /><rect fill="none" height="140" stroke="rgb(205, 15, 239)" stroke-width="3.3626487529577704" transform="rotate(359 392 535)" width="44" x="475" y="131" /><path d="M728,405 C1059,205 566,309 70,65 C604,296 104,172 973,179 C300,262 365,447 1063,503 L427,280 L527,339 C527,149 1058,24 432,77 Q663,486 708,506" fill="none" stroke="rgb(40, 63, 232)" stroke-width="2.3068798013233667" /><polygon fill="none" points="620,152 334,520 884,402 264,512 1005,225 400,14 308,125 50,167" stroke="rgb(171, 198, 63)" stroke-width="3.9352468074451323" /><rect fill="none" height="102" stroke="rgb(37, 133, 173)" stroke-width="3.9287479851274076" transform="rotate(149 845 525)" width="44" x="52" y="308" /><path d="M533,183 L899,166 Q29,351 985,65 Q107,163 964,85 Q241,225 797,264 C175,497 196,16 239,17 L224,62 Q53,119 270,450" fill="none" stroke="rgb(87, 70, 80)" stroke-width="2.0971880365434066" /><polygon fill="none" points="465,385 105,550 608,20 395,555" stroke="rgb(36, 3, 196)" stroke-width="1.1715615304082725" /><circle cx="672" cy="214" fill="none" opacity="0.45793526178283067" r="45" stroke="rgb(155, 119, 91)" stroke-width="3.2547654980629157" /></svg>