<svg baseProfile="full" height="686px" version="1.1" width="888px" xmlns="http://www.w3.org/2000/svg" xmlns:ev="http://www.w3.org/2001/xml-events" xmlns:xlink="http://www.w3.org/1999/xlink"><defs /><rect fill="rgb(251, 234, 222)" height="686px" width="888px" x="0" y="0" /><circle cx="794" cy="193" fill="none" opacity="0.8361185250857659" r="92" stroke="rgb(185, 163, 199)" stroke-width="2.4775407285805704" /><line stroke="rgb(198, 80, 179)" stroke-width="2.8990271523793787" x1="365" x2="194" y1="550" y2="528" /><line stroke="rgb(206, 164, 202)" stroke-width="2.7904086281571354" x1="550" x2="268" y1="673" y2="384" /><line stroke="rgb(221, 70, 241)" stroke-width="2.3806829298049808" x1="465" x2="828" y1="379" y2="325" /><line stroke="rgb(40, 206, 194)" stroke-width="2.40764219741372" x1="468" x2="771" y1="21" y2="462" /><line stroke="rgb(158, 47, 27)" stroke-width="1.1315618949176938" x1="24" x2="218" y1="212" y2="588" /><line stroke="rgb(5, 59, 134)" stroke-width="0.7299120396109313" x1="67" x2="779" y1="184" y2="349" /><line stroke="rgb(22, 254, 121)" stroke-width="2.5778541626265543" x1="387" x2="640" y1="262" y2="76" /><circle cx="682" cy="440" fill="none" opacity="0.35293182333300543" r="124" stroke="rgb(36, 125, 64)" stroke-width="1.7977653830765792" /><circle cx="692" cy="175" fill="none" opacity="0.4484621592447917" r="134" stroke="rgb(47, 60, 143)" stroke-width="2.2479560003801957" /><circle cx="611" cy="69" fill="none" opacity="0.45579857101449583" r="37" stroke="rgb(153, 236, 165)" stroke-width="3.360081277500514" /><circle cx="788" cy="588" fill="none" opacity="0.5550516720651513" r="94" stroke="rgb(141, 92, 82)" stroke-width="4.327684298460217" /><polygon fill="none" points="653,472 83,429 449,150 360,428" stroke="rgb(6, 209, 97)" stroke-width="1.6290732545574294" /><polygon fill="none" points="679,641 298,267 63,622 503,148 558,60 334,531 847,134 294,281" stroke="rgb(120, 211, 193)" stroke-width="1.6438677633988705" /><path d="M234,349 L590,164 Q864,50 505,67 C66,608 851,591 856,276" fill="none" stroke="rgb(193, 57, 216)" stroke-width="2.9939102708916625" /><line stroke="rgb(66, 172, 43)" stroke-width="1.5298638716740243" x1="815" x2="507" y1="407" y2="608" /><line stroke="rgb(148, 76, 66)" stroke-width="1.6927947232906086" x1="546" x2="231" y1="390" y2="373" /><line stroke="rgb(127, 232, 50)" stroke-width="2.4737991851911874" x1="489" x2="749" y1="477" y2="416" /><polygon fill="none" points="655,625 174,454 669,605 80,56" stroke="rgb(94, 118, 70)" stroke-width="1.919389495557976" /><circle cx="630" cy="315" fill="none" opacity="0.7899633244659" r="129" stroke="rgb(222, 164, 216)" stroke-width="3.371117242551667" /><line stroke="rgb(155, 45, 179)" stroke-width="1.5166650129012134" x1="279" x2="323" y1="193" y2="675" /><line stroke="rgb(77, 221, 44)" stroke-width="1.1489698336870102" x1="152" x2="205" y1="515" y2="642" /><line stroke="rgb(8, 55, 150)" stroke-width="1.1362483316117171" x1="688" x2="871" y1="25" y2="77" /><line stroke="rgb(199, 191, 228)" stroke-width="1.7112755226531438" x1="448" x2="306" y1="654" y2="252" /><line stroke="rgb(94, 232, 236)" stroke-width="1.2102020793479342" x1="141" x2="848" y1="228" y2="169" /><line stroke="rgb(184, 147, 173)" stroke-width="1.79635313420433" x1="46" x2="239" y1="565" y2="302" /><line stroke="rgb(249, 191, 97)" stroke-width="2.3516517476408962" x1="228" x2="855" y1="304" y2="31" /><path d="M599,224 C186,540 444,43 616,522 L427,187 L72,505 L246,145" fill="none" stroke="rgb(183, 125, 101)" stroke-width="2.669325169333982" /><line stroke="rgb(19, 216, 134)" stroke-width="1.4257668428813168" x1="255" x2="326" y1="371" y2="644" /><line stroke="rgb(177, 45, 4)" stroke-width="2.4135766931889373" x1="797" x2="329" y1="53" y2="510" /><line stroke="rgb(245, 182, 112)" stroke-width="1.6900260208808127" x1="179" x2="823" y1="439" y2="432" /><line stroke="rgb(138, 184, 83)" stroke-width="2.425310059230829" x1="605" x2="311" y1="407" y2="481" /><line stroke="rgb(129, 134, 113)" stroke-width="2.722971328897131" x1="277" x2="435" y1="671" y2="70" /><line stroke="rgb(130, 226, 119)" stroke-width="2.9265203991780298" x1="865" x2="222" y1="371" y2="179" /><line stroke="rgb(241, 33, 182)" stroke-width="1.0547256162969219" x1="689" x2="76" y1="453" y2="386" /><line stroke="rgb(38, 106, 240)" stroke-width="2.94601229069328" x1="352" x2="477" y1="575" y2="107" /><path d="M514,71 Q820,378 3,530 L801,647 Q159,132 612,469 Q521,188 31,245" fill="none" stroke="rgb(181, 230, 9)" stroke-width="1.3638682227042085" /><rect fill="none" height="91" stroke="rgb(123, 43, 104)" stroke-width="0.746087027442381" transform="rotate(51 33 152)" width="21" x="787" y="131" /><circle cx="330" cy="486" fill="none" opacity="0.3276705578065827" r="71" stroke="rgb(111, 45, 227)" stroke-width="4.0598027669484935" /><circle cx="453" cy="299" fill="none" opacity="0.9819362489144867" r="82" stroke="rgb(242, 187, 173)" stroke-width="4.290630734276341" /><circle cx="377" cy="582" fill="none" opacity="0.660039704359348" r="15" stroke="rgb(123, 244, 182)" stroke-width="3.5292938186302187" /><circle cx="144" cy="190" fill="none" opacity="0.89716978024568" r="164" stroke="rgb(40, 240, 150)" stroke-width="3.5160797667406163" /><line stroke="rgb(30, 98, 58)" stroke-width="1.074858155455744" x1="150" x2="724" y1="480" y2="434" /><line stroke="rgb(71, 179, 219)" stroke-width="2.6297854265358414" x1="662" x2="704" y1="66" y2="141" /><line stroke="rgb(82, 60, 62)" stroke-width="2.5953799795864123" x1="52" x2="184" y1="360" y2="599" /><line stroke="rgb(141, 27, 23)" stroke-width="2.703342127323069" x1="92" x2="806" y1="425" y2="72" /><line stroke="rgb(180, 124, 203)" stroke-width="1.6972205106562375" x1="639" x2="291" y1="265" y2="148" /><line stroke="rgb(175, 202, 63)" stroke-width="1.7995156051651746" x1="144" x2="139" y1="325" y2="427" /><line stroke="rgb(12, 60, 75)" stroke-width="0.9911313939329252" x1="281" x2="607" y1="415" y2="28" /><line stroke="rgb(173, 50, 76)" stroke-width="1.765155711259169" x1="615" x2="596" y1="116" y2="117" /><line stroke="rgb(247, 209, 226)" stroke-width="2.7322896051529915" x1="786" x2="466" y1="16" y2="370" /><circle cx="789" cy="386" fill="none" opacity="0.7406085004553974" r="83" stroke="rgb(245, 38, 152)" stroke-width="2.976597935597571" /></svg>