<svg baseProfile="full" height="721px" version="1.1" width="1150px" xmlns="http://www.w3.org/2000/svg" xmlns:ev="http://www.w3.org/2001/xml-events" xmlns:xlink="http://www.w3.org/1999/xlink"><defs /><rect fill="rgb(255, 218, 215)" height="721px" width="1150px" x="0" y="0" /><circle cx="177" cy="662" fill="none" opacity="0.8057089316298955" r="22" stroke="rgb(243, 31, 243)" stroke-width="2.8554834173413" /><rect fill="none" height="163" stroke="rgb(155, 167, 93)" stroke-width="0.9181388173922362" transform="rotate(50 755 48)" width="51" x="9" y="429" /><rect fill="none" height="124" stroke="rgb(77, 248, 244)" stroke-width="0.7208690838441405" transform="rotate(257 407 663)" width="34" x="468" y="382" /><circle cx="53" cy="101" fill="none" opacity="0.6249081994351892" r="138" stroke="rgb(53, 208, 70)" stroke-width="3.091228070786967" /><line stroke="rgb(49, 159, 74)" stroke-width="1.9777704440788781" x1="724" x2="856" y1="708" y2="407" /><line stroke="rgb(162, 131, 117)" stroke-width="0.7847020631163949" x1="572" x2="110" y1="553" y2="522" /><line stroke="rgb(18, 185, 59)" stroke-width="2.027456033487593" x1="545" x2="928" y1="133" y2="223" /><line stroke="rgb(109, 39, 206)" stroke-width="1.1058878688680198" x1="698" x2="424" y1="178" y2="278" /><line stroke="rgb(153, 204, 24)" stroke-width="2.8986500775512725" x1="256" x2="781" y1="381" y2="336" /><line stroke="rgb(62, 55, 83)" stroke-width="1.162699210921853" x1="962" x2="378" y1="545" y2="537" /><line stroke="rgb(139, 218, 226)" stroke-width="2.3614385594528398" x1="1063" x2="305" y1="344" y2="529" /><line stroke="rgb(240, 100, 216)" stroke-width="2.50344116924237" x1="319" x2="330" y1="646" y2="388" /><line stroke="rgb(141, 145, 102)" stroke-width="2.1908383178075916" x1="717" x2="302" y1="522" y2="287" /><line stroke="rgb(47, 63, 43)" stroke-width="0.6558882410888915" x1="308" x2="89" y1="175" y2="292" /><line stroke="rgb(192, 124, 20)" stroke-width="2.1155070521382466" x1="1025" x2="614" y1="81" y2="587" /><line stroke="rgb(106, 239, 124)" stroke-width="2.6447522324769794" x1="1150" x2="988" y1="318" y2="695" /><line stroke="rgb(248, 56, 231)" stroke-width="2.51933466923887" x1="749" x2="388" y1="89" y2="485" /><line stroke="rgb(87, 44, 165)" stroke-width="2.2804650648276654" x1="781" x2="61" y1="687" y2="524" /><line stroke="rgb(200, 87, 203)" stroke-width="2.803119141998314" x1="263" x2="605" y1="227" y2="562" /><line stroke="rgb(217, 128, 125)" stroke-width="1.3511528622074351" x1="188" x2="947" y1="499" y2="5" /><line stroke="rgb(253, 116, 52)" stroke-width="1.0870008356855296" x1="21" x2="359" y1="319" y2="91" /><path d="M55,286 Q874,7 823,150 L24,275 C757,24 365,388 43,174 C274,466 691,694 1148,656 C149,285 65,419 840,172 Q929,257 943,506" fill="none" stroke="rgb(27, 23, 37)" stroke-width="1.8103746061476431" /><path d="M768,594 L133,200 Q858,447 294,29 C102,315 509,12 955,473 L1019,384 Q258,657 281,490 C1036,323 281,368 362,301 L974,4" fill="none" stroke="rgb(217, 179, 99)" stroke-width="1.0850115890810395" /><path d="M275,359 Q352,588 994,682 Q267,22 617,130 L1115,311 L437,233 C632,357 478,609 92,178" fill="none" stroke="rgb(105, 87, 3)" stroke-width="1.9268293281650402" /><path d="M297,89 L1142,179 L632,710 C56,214 353,718 353,619 Q260,452 502,316 Q28,578 734,102" fill="none" stroke="rgb(0, 145, 62)" stroke-width="1.008833482882756" /><line stroke="rgb(91, 79, 205)" stroke-width="2.0629741477059125" x1="766" x2="748" y1="530" y2="256" /><line stroke="rgb(144, 149, 160)" stroke-width="1.7440287130319598" x1="1006" x2="730" y1="139" y2="142" /><line stroke="rgb(34, 170, 151)" stroke-width="1.4786517352843256" x1="320" x2="394" y1="193" y2="471" /><line stroke="rgb(54, 30, 246)" stroke-width="2.5636076363760676" x1="168" x2="1063" y1="526" y2="659" /><line stroke="rgb(251, 71, 135)" stroke-width="0.7742995345619401" x1="851" x2="61" y1="352" y2="644" /><line stroke="rgb(3, 185, 199)" stroke-width="2.327015577191087" x1="731" x2="1103" y1="362" y2="561" /><line stroke="rgb(154, 32, 16)" stroke-width="1.3943523650380028" x1="76" x2="448" y1="616" y2="316" /><line stroke="rgb(213, 28, 194)" stroke-width="2.230506271572571" x1="107" x2="951" y1="466" y2="571" /><line stroke="rgb(73, 206, 85)" stroke-width="2.073838278411091" x1="850" x2="1035" y1="227" y2="616" /><line stroke="rgb(110, 232, 8)" stroke-width="0.53265577980544" x1="1148" x2="328" y1="643" y2="515" /><path d="M229,232 L821,541 Q649,57 539,133 L527,148 L1083,465" fill="none" stroke="rgb(13, 221, 113)" stroke-width="2.3028359134909118" /><circle cx="537" cy="224" fill="none" opacity="0.8549464574081063" r="165" stroke="rgb(180, 242, 230)" stroke-width="4.689496068972366" /><circle cx="894" cy="478" fill="none" opacity="0.384376465807797" r="86" stroke="rgb(150, 107, 29)" stroke-width="1.4266710256886905" /><path d="M195,325 L67,551 L31,504 Q790,471 525,34" fill="none" stroke="rgb(198, 241, 8)" stroke-width="0.8719600285121416" /><line stroke="rgb(117, 21, 30)" stroke-width="1.0110966593472028" x1="882" x2="186" y1="181" y2="657" /><line stroke="rgb(231, 151, 152)" stroke-width="0.8231242993037178" x1="1150" x2="564" y1="61" y2="628" /><line stroke="rgb(135, 41, 36)" stroke-width="1.9278053537288906" x1="907" x2="579" y1="296" y2="574" /><polygon fill="none" points="622,189 783,78 988,174 497,61 870,587 268,647 170,316" stroke="rgb(23, 214, 249)" stroke-width="1.645853913636857" /><polygon fill="none" points="15,239 178,660 299,468" stroke="rgb(127, 187, 233)" stroke-width="2.804397755716022" /><circle cx="274" cy="639" fill="none" opacity="0.5637037995902073" r="118" stroke="rgb(42, 131, 176)" stroke-width="3.7817304739324284" /><line stroke="rgb(4, 224, 39)" stroke-width="2.7344834890256666" x1="1000" x2="449" y1="457" y2="133" /><line stroke="rgb(166, 87, 197)" stroke-width="1.2883279289408416" x1="925" x2="989" y1="15" y2="461" /><line stroke="rgb(45, 120, 106)" stroke-width="0.5746625226535167" x1="683" x2="490" y1="332" y2="579" /><line stroke="rgb(113, 200, 89)" stroke-width="1.7322861902023003" x1="41" x2="778" y1="636" y2="371" /><line stroke="rgb(80, 124, 245)" stroke-width="0.5548975415527144" x1="638" x2="512" y1="576" y2="592" /><line stroke="rgb(130, 88, 196)" stroke-width="2.8059870105218723" x1="725" x2="915" y1="469" y2="163" /><line stroke="rgb(54, 72, 40)" stroke-width="1.2824847205348302" x1="736" x2="546" y1="344" y2="454" /><rect fill="none" height="61" stroke="rgb(58, 28, 77)" stroke-width="3.205836655041831" transform="rotate(100 519 395)" width="127" x="50" y="50" /><path d="M441,119 Q461,6 387,160 C673,464 1024,579 1049,443 Q364,160 822,659 Q516,679 56,153 L156,312 Q933,410 53,480 Q903,360 87,85" fill="none" stroke="rgb(40, 179, 115)" stroke-width="0.9883227507819227" /><polygon fill="none" points="767,612 605,650 707,396 57,110 883,590 644,22" stroke="rgb(44, 101, 151)" stroke-width="0.7587242482846968" /><path d="M319,119 L221,42 C32,13 114,257 788,288 C240,589 103,617 412,104 C869,383 244,228 790,71" fill="none" stroke="rgb(96, 123, 219)" stroke-width="2.853515747859717" /><path d="M520,550 C816,386 363,350 114,352 L1105,245 Q859,255 1141,382 C226,250 1008,432 875,539 Q675,224 877,156" fill="none" stroke="rgb(168, 244, 211)" stroke-width="1.7426464771134762" /><rect fill="none" height="46" stroke="rgb(112, 222, 228)" stroke-width="2.2014465095414297" transform="rotate(21 265 240)" width="105" x="916" y="490" /><line stroke="rgb(250, 101, 2)" stroke-width="1.1977292307896155" x1="471" x2="37" y1="331" y2="55" /><line stroke="rgb(130, 255, 32)" stroke-width="2.0927551205828605" x1="53" x2="230" y1="180" y2="302" /><line stroke="rgb(156, 12, 149)" stroke-width="1.902284837062541" x1="982" x2="858" y1="278" y2="302" /><line stroke="rgb(103, 113, 150)" stroke-width="1.0951367806822825" x1="376" x2="19" y1="259" y2="13" /><line stroke="rgb(88, 213, 87)" stroke-width="1.5759150276396443" x1="483" x2="608" y1="634" y2="559" /><line stroke="rgb(92, 217, 58)" stroke-width="1.230572232504291" x1="843" x2="967" y1="226" y2="422" /><line stroke="rgb(232, 191, 29)" stroke-width="0.9514539742752094" x1="198" x2="967" y1="691" y2="685" /><rect fill="none" height="175" stroke="rgb(196, 245, 103)" stroke-width="1.1840220679988218" transform="rotate(26 341 364)" width="150" x="341" y="355" /></svg>