<svg baseProfile="full" height="483px" version="1.1" width="640px" xmlns="http://www.w3.org/2000/svg" xmlns:ev="http://www.w3.org/2001/xml-events" xmlns:xlink="http://www.w3.org/1999/xlink"><defs /><rect fill="rgb(255, 232, 238)" height="483px" width="640px" x="0" y="0" /><polygon fill="none" points="106,274 308,371 365,439 299,305 408,114" stroke="rgb(116, 192, 136)" stroke-width="0.5871257739980412" /><line stroke="rgb(38, 98, 10)" stroke-width="0.5507537293110322" x1="247" x2="240" y1="19" y2="233" /><line stroke="rgb(84, 7, 218)" stroke-width="2.1261251357269835" x1="64" x2="506" y1="308" y2="138" /><line stroke="rgb(111, 44, 240)" stroke-width="0.5141516414316339" x1="175" x2="149" y1="228" y2="70" /><line stroke="rgb(75, 95, 226)" stroke-width="1.1251317904814866" x1="192" x2="16" y1="205" y2="127" /><path d="M40,422 L617,197 Q588,237 250,253 L37,164 L11,115" fill="none" stroke="rgb(10, 151, 243)" stroke-width="0.7917915030989395" /><circle cx="350" cy="60" fill="none" opacity="0.6772861698932822" r="78" stroke="rgb(28, 151, 240)" stroke-width="0.630918368341537" /><rect fill="none" height="106" stroke="rgb(151, 103, 241)" stroke-width="3.0339566948330448" transform="rotate(320 625 214)" width="46" x="432" y="96" /><polygon fill="none" points="619,236 6,386 295,375 500,155 134,45 624,435 49,381" stroke="rgb(32, 114, 22)" stroke-width="0.9866046119542533" /><rect fill="none" height="185" stroke="rgb(114, 125, 215)" stroke-width="1.147353552011751" transform="rotate(233 366 221)" width="84" x="252" y="75" /><polygon fill="none" points="112,160 212,43 60,3 292,282 62,57" stroke="rgb(140, 1, 20)" stroke-width="1.1289099351603473" /><line stroke="rgb(66, 8, 18)" stroke-width="1.9008963750015349" x1="122" x2="549" y1="449" y2="201" /><line stroke="rgb(51, 147, 38)" stroke-width="0.6621428535807192" x1="489" x2="467" y1="206" y2="18" /><line stroke="rgb(123, 103, 220)" stroke-width="1.3381124914293714" x1="297" x2="572" y1="383" y2="45" /><line stroke="rgb(126, 198, 205)" stroke-width="2.616780408316126" x1="104" x2="292" y1="441" y2="271" /><line stroke="rgb(52, 125, 71)" stroke-width="0.7589841803049111" x1="254" x2="593" y1="84" y2="173" /><line stroke="rgb(64, 190, 68)" stroke-width="2.7844030447907366" x1="173" x2="547" y1="328" y2="434" /><line stroke="rgb(162, 61, 103)" stroke-width="2.166698319154387" x1="224" x2="537" y1="283" y2="130" /><line stroke="rgb(242, 150, 190)" stroke-width="2.8445622220309494" x1="463" x2="269" y1="57" y2="228" /><line stroke="rgb(229, 19, 221)" stroke-width="2.880274031533469" x1="327" x2="29" y1="347" y2="341" /><path d="M31,391 Q71,72 146,393 C423,381 405,378 182,160 L75,205 C326,220 181,391 65,156 Q142,260 327,192" fill="none" stroke="rgb(19, 139, 140)" stroke-width="1.0246296417481646" /><line stroke="rgb(89, 39, 237)" stroke-width="2.5926902535571883" x1="208" x2="29" y1="369" y2="194" /><line stroke="rgb(194, 126, 46)" stroke-width="0.9113649577005642" x1="168" x2="599" y1="164" y2="416" /><line stroke="rgb(114, 236, 218)" stroke-width="0.9258908499813924" x1="630" x2="176" y1="108" y2="156" /><line stroke="rgb(218, 229, 8)" stroke-width="1.2335826994646708" x1="135" x2="447" y1="398" y2="272" /><line stroke="rgb(162, 251, 193)" stroke-width="1.9495230164291235" x1="621" x2="385" y1="482" y2="82" /><line stroke="rgb(10, 30, 189)" stroke-width="0.9409967252786035" x1="360" x2="635" y1="339" y2="264" /><line stroke="rgb(14, 235, 38)" stroke-width="1.2365707797734604" x1="481" x2="24" y1="38" y2="388" /><line stroke="rgb(251, 15, 203)" stroke-width="1.4459387027979567" x1="142" x2="130" y1="99" y2="95" /><path d="M269,320 C426,21 227,233 464,96 Q220,5 460,72 C437,61 284,237 32,401" fill="none" stroke="rgb(114, 74, 234)" stroke-width="2.565386617512877" /><polygon fill="none" points="308,236 35,334 104,171 439,425 33,320 611,279" stroke="rgb(189, 43, 12)" stroke-width="1.698317963609" /><polygon fill="none" points="105,386 212,456 337,31 173,442 335,266 628,403 177,79 156,57" stroke="rgb(189, 235, 99)" stroke-width="0.7140723140068348" /><line stroke="rgb(254, 155, 242)" stroke-width="0.5853264733946796" x1="559" x2="117" y1="25" y2="24" /><line stroke="rgb(241, 145, 4)" stroke-width="1.61646845038054" x1="472" x2="371" y1="310" y2="345" /><line stroke="rgb(72, 130, 156)" stroke-width="0.8754672795590428" x1="267" x2="568" y1="113" y2="479" /><line stroke="rgb(97, 241, 122)" stroke-width="0.8099984261732749" x1="94" x2="623" y1="190" y2="184" /><circle cx="424" cy="134" fill="none" opacity="0.5724050214112246" r="93" stroke="rgb(199, 227, 88)" stroke-width="1.299635225184364" /><path d="M179,64 C30,234 103,71 488,257 C474,149 634,1 436,310 L36,165 C275,133 404,362 617,423 Q133,30 377,150 C94,287 374,281 385,266 L126,210" fill="none" stroke="rgb(245, 116, 83)" stroke-width="1.2600526367824947" /><polygon fill="none" points="485,75 263,353 360,10 533,348 69,283" stroke="rgb(61, 238, 223)" stroke-width="2.1231770458241104" /><circle cx="72" cy="261" fill="none" opacity="0.5477316812512109" r="76" stroke="rgb(225, 77, 144)" stroke-width="4.987126661351982" /><polygon fill="none" points="375,450 267,243 353,240 157,320 473,29 13,22 559,257 371,80" stroke="rgb(168, 116, 110)" stroke-width="1.8708030254129202" /><polygon fill="none" points="118,397 305,239 581,272 570,110" stroke="rgb(202, 205, 245)" stroke-width="1.3822588031754792" /><polygon fill="none" points="525,272 591,323 396,322 214,226 459,428 594,204 425,303 324,211" stroke="rgb(250, 238, 33)" stroke-width="2.3775491455904456" /><circle cx="436" cy="407" fill="none" opacity="0.9594695027257754" r="76" stroke="rgb(80, 186, 183)" stroke-width="3.532236574409113" /><circle cx="89" cy="418" fill="none" opacity="0.6980914683535926" r="62" stroke="rgb(42, 98, 91)" stroke-width="3.659979230730496" /><path d="M600,463 L509,372 Q457,207 311,330 L591,5 C563,281 304,115 364,177 C70,59 261,131 198,441" fill="none" stroke="rgb(2, 86, 146)" stroke-width="1.9827449773555434" /><polygon fill="none" points="273,147 498,114 465,10 334,223 38,54" stroke="rgb(214, 180, 113)" stroke-width="2.735360990962921" /><line stroke="rgb(221, 142, 135)" stroke-width="1.9507549642963449" x1="38" x2="576" y1="351" y2="252" /><line stroke="rgb(125, 231, 23)" stroke-width="0.8903641797989732" x1="215" x2="592" y1="451" y2="273" /><line stroke="rgb(38, 173, 251)" stroke-width="2.5648223549129776" x1="293" x2="576" y1="88" y2="294" /><line stroke="rgb(67, 65, 12)" stroke-width="1.7933464940680495" x1="378" x2="168" y1="186" y2="423" /><line stroke="rgb(61, 252, 77)" stroke-width="0.5996801788093332" x1="479" x2="518" y1="208" y2="264" /><line stroke="rgb(91, 183, 30)" stroke-width="2.157515501953582" x1="474" x2="500" y1="184" y2="231" /><line stroke="rgb(217, 148, 120)" stroke-width="1.657346001082793" x1="79" x2="476" y1="234" y2="423" /><line stroke="rgb(122, 175, 253)" stroke-width="2.603929548049676" x1="524" x2="145" y1="59" y2="139" /><line stroke="rgb(153, 41, 200)" stroke-width="0.8302855707021715" x1="409" x2="545" y1="429" y2="19" /><rect fill="none" height="118" stroke="rgb(231, 146, 248)" stroke-width="4.8121887851522525" transform="rotate(262 250 156)" width="145" x="507" y="198" /><rect fill="none" height="135" stroke="rgb(249, 164, 109)" stroke-width="3.7213495703848944" transform="rotate(128 331 335)" width="64" x="311" y="61" /><circle cx="89" cy="408" fill="none" opacity="0.5414159544435814" r="39" stroke="rgb(131, 70, 234)" stroke-width="3.5260163277351477" /><circle cx="66" cy="135" fill="none" opacity="0.8393204851309479" r="48" stroke="rgb(223, 15, 241)" stroke-width="3.4384311069104774" /><rect fill="none" height="200" stroke="rgb(90, 21, 165)" stroke-width="1.7429407382164568" transform="rotate(209 35 169)" width="53" x="151" y="293" /><line stroke="rgb(227, 9, 204)" stroke-width="0.7590099741938057" x1="537" x2="550" y1="258" y2="219" /><line stroke="rgb(35, 54, 252)" stroke-width="0.7100325027247643" x1="132" x2="183" y1="25" y2="159" /><line stroke="rgb(11, 230, 184)" stroke-width="1.285574931092177" x1="564" x2="315" y1="130" y2="124" /><line stroke="rgb(161, 21, 137)" stroke-width="1.8524700028024284" x1="75" x2="455" y1="392" y2="283" /><line stroke="rgb(138, 152, 78)" stroke-width="1.5278001931212328" x1="575" x2="387" y1="148" y2="364" /><line stroke="rgb(164, 187, 34)" stroke-width="0.6748068934913583" x1="611" x2="639" y1="10" y2="18" /><line stroke="rgb(104, 189, 7)" stroke-width="1.6024380008734838" x1="465" x2="515" y1="378" y2="262" /><line stroke="rgb(38, 48, 157)" stroke-width="0.5856591868602494" x1="88" x2="159" y1="239" y2="395" /><line stroke="rgb(185, 25, 13)" stroke-width="0.5519958632761295" x1="413" x2="595" y1="27" y2="264" /><line stroke="rgb(68, 193, 135)" stroke-width="2.917026832927246" x1="79" x2="445" y1="331" y2="17" /><line stroke="rgb(163, 151, 71)" stroke-width="0.6652965588425537" x1="540" x2="384" y1="481" y2="430" /><line stroke="rgb(118, 45, 176)" stroke-width="1.7775313973597668" x1="390" x2="243" y1="442" y2="398" /><line stroke="rgb(198, 33, 197)" stroke-width="2.1542457172938745" x1="13" x2="497" y1="127" y2="164" /><line stroke="rgb(192, 130, 58)" stroke-width="1.2587644921533592" x1="390" x2="32" y1="53" y2="93" /><line stroke="rgb(149, 93, 32)" stroke-width="1.3691819084631514" x1="439" x2="150" y1="76" y2="67" /><rect fill="none" height="148" stroke="rgb(106, 162, 82)" stroke-width="1.3096710866051489" transform="rotate(88 121 289)" width="66" x="255" y="252" /><path d="M375,34 L105,188 Q416,31 486,51 L357,106 L143,186 Q124,349 597,4" fill="none" stroke="rgb(97, 131, 128)" stroke-width="2.2633572454530744" /><polygon fill="none" points="412,429 17,130 514,440 137,311 325,174 52,88 182,256" stroke="rgb(89, 252, 52)" stroke-width="2.4383524248463875" /><path d="M89,121 Q611,297 403,61 Q329,244 149,452 Q162,211 196,88" fill="none" stroke="rgb(180, 92, 218)" stroke-width="0.5513727491317175" /><line stroke="rgb(37, 226, 59)" stroke-width="1.1253204053278083" x1="1" x2="95" y1="393" y2="6" /><line stroke="rgb(224, 116, 81)" stroke-width="2.941231470296058" x1="403" x2="298" y1="303" y2="353" /><line stroke="rgb(3, 156, 0)" stroke-width="0.7029598482362163" x1="453" x2="37" y1="69" y2="206" /><line stroke="rgb(52, 94, 251)" stroke-width="2.819530824374338" x1="190" x2="171" y1="340" y2="259" /><line stroke="rgb(216, 110, 168)" stroke-width="1.3382844031612744" x1="243" x2="353" y1="54" y2="269" /><line stroke="rgb(172, 114, 18)" stroke-width="2.476634564595487" x1="612" x2="54" y1="398" y2="175" /><rect fill="none" height="94" stroke="rgb(131, 194, 92)" stroke-width="1.3131036735632917" transform="rotate(269 258 131)" width="30" x="35" y="37" /><polygon fill="none" points="426,1 198,355 281,403" stroke="rgb(170, 52, 158)" stroke-width="1.984140730812608" /><rect fill="none" height="58" stroke="rgb(213, 21, 173)" stroke-width="2.6205249055162176" transform="rotate(55 612 156)" width="145" x="38" y="348" /><line stroke="rgb(63, 9, 150)" stroke-width="2.1439465727028164" x1="508" x2="557" y1="400" y2="447" /><line stroke="rgb(22, 82, 247)" stroke-width="0.8099662032559733" x1="204" x2="579" y1="406" y2="209" /><line stroke="rgb(39, 131, 123)" stroke-width="2.037277780339322" x1="572" x2="121" y1="349" y2="138" /><line stroke="rgb(18, 146, 28)" stroke-width="1.106793312875906" x1="433" x2="493" y1="49" y2="363" /><line stroke="rgb(253, 99, 209)" stroke-width="1.3132479052756725" x1="24" x2="221" y1="299" y2="444" /><circle cx="266" cy="363" fill="none" opacity="0.4110682728563145" r="47" stroke="rgb(47, 170, 23)" stroke-width="1.780861780664043" /><line stroke="rgb(234, 157, 220)" stroke-width="1.0014055291916941" x1="136" x2="259" y1="412" y2="279" /><line stroke="rgb(218, 20, 75)" stroke-width="2.0772536277073987" x1="488" x2="296" y1="436" y2="288" /><line stroke="rgb(145, 32, 10)" stroke-width="1.0112324551753076" x1="54" x2="488" y1="88" y2="265" /><line stroke="rgb(178, 16, 136)" stroke-width="1.9396280666073202" x1="95" x2="177" y1="133" y2="479" /><line stroke="rgb(133, 108, 52)" stroke-width="2.9378169273706893" x1="82" x2="606" y1="371" y2="342" /><line stroke="rgb(171, 84, 166)" stroke-width="2.07499535245728" x1="206" x2="156" y1="45" y2="445" /><line stroke="rgb(163, 4, 66)" stroke-width="2.1217721292593157" x1="514" x2="537" y1="390" y2="373" /><line stroke="rgb(139, 7, 119)" stroke-width="2.8311340265600173" x1="492" x2="248" y1="250" y2="82" /><line stroke="rgb(178, 98, 95)" stroke-width="1.024569870328745" x1="572" x2="529" y1="81" y2="70" /><line stroke="rgb(219, 190, 142)" stroke-width="1.2527281059694397" x1="135" x2="581" y1="475" y2="199" /><line stroke="rgb(18, 185, 57)" stroke-width="2.8988211650518885" x1="549" x2="450" y1="32" y2="269" /><polygon fill="none" points="384,363 83,225 615,350 239,250 233,171 514,188 55,346 381,194" stroke="rgb(8, 116, 117)" stroke-width="0.5214094254893169" /></svg>