<svg baseProfile="full" height="443px" version="1.1" width="1038px" xmlns="http://www.w3.org/2000/svg" xmlns:ev="http://www.w3.org/2001/xml-events" xmlns:xlink="http://www.w3.org/1999/xlink"><defs /><rect fill="rgb(249, 204, 251)" height="443px" width="1038px" x="0" y="0" /><circle cx="157" cy="200" fill="none" opacity="0.4456376577137694" r="72" stroke="rgb(62, 216, 95)" stroke-width="0.7637991193144741" /><rect fill="none" height="111" stroke="rgb(111, 112, 31)" stroke-width="4.584579437866239" transform="rotate(83 416 59)" width="44" x="922" y="248" /><path d="M530,212 Q472,303 263,337 C528,120 295,375 29,95 L936,230" fill="none" stroke="rgb(203, 192, 144)" stroke-width="1.5598471681708488" /><circle cx="72" cy="212" fill="none" opacity="0.49059863109751656" r="64" stroke="rgb(29, 100, 67)" stroke-width="4.11264938191732" /><circle cx="477" cy="167" fill="none" opacity="0.8398228762125528" r="10" stroke="rgb(23, 37, 69)" stroke-width="3.234565505036373" /><rect fill="none" height="21" stroke="rgb(233, 142, 211)" stroke-width="3.0352884984724886" transform="rotate(322 501 232)" width="151" x="220" y="68" /><line stroke="rgb(59, 152, 76)" stroke-width="1.802086366088306" x1="691" x2="608" y1="140" y2="207" /><line stroke="rgb(72, 207, 71)" stroke-width="1.9789940896553415" x1="885" x2="663" y1="146" y2="268" /><line stroke="rgb(97, 90, 29)" stroke-width="2.5374393153384878" x1="193" x2="570" y1="320" y2="269" /><line stroke="rgb(194, 44, 152)" stroke-width="2.7245421832339054" x1="479" x2="1028" y1="171" y2="9" /><circle cx="655" cy="251" fill="none" opacity="0.7486626733487907" r="17" stroke="rgb(139, 140, 250)" stroke-width="4.506290270918167" /><path d="M799,299 L799,370 C323,416 316,305 629,224 Q543,269 978,268 Q44,419 291,151 Q99,206 451,331" fill="none" stroke="rgb(11, 5, 18)" stroke-width="1.7753100153592696" /><line stroke="rgb(169, 153, 139)" stroke-width="2.24274212305212" x1="992" x2="698" y1="230" y2="178" /><line stroke="rgb(215, 202, 131)" stroke-width="2.895143597271126" x1="782" x2="622" y1="205" y2="265" /><line stroke="rgb(86, 166, 47)" stroke-width="2.727551479018485" x1="102" x2="525" y1="314" y2="416" /><line stroke="rgb(141, 103, 237)" stroke-width="1.140582811691758" x1="899" x2="499" y1="393" y2="14" /><line stroke="rgb(18, 115, 39)" stroke-width="1.3489428317941508" x1="628" x2="600" y1="263" y2="272" /><line stroke="rgb(219, 103, 222)" stroke-width="2.9123879567034265" x1="245" x2="40" y1="289" y2="85" /><line stroke="rgb(135, 200, 213)" stroke-width="2.031629672170718" x1="268" x2="1023" y1="274" y2="226" /><polygon fill="none" points="256,420 387,126 399,199" stroke="rgb(228, 22, 7)" stroke-width="2.494214311510846" /><circle cx="875" cy="219" fill="none" opacity="0.6031701631021547" r="50" stroke="rgb(57, 229, 232)" stroke-width="1.5113899476516919" /><circle cx="607" cy="128" fill="none" opacity="0.5441120985654244" r="46" stroke="rgb(238, 196, 238)" stroke-width="4.592052288726628" /><rect fill="none" height="126" stroke="rgb(59, 202, 182)" stroke-width="3.7851435882083813" transform="rotate(73 636 145)" width="181" x="191" y="208" /><polygon fill="none" points="176,65 1025,212 569,20 349,317" stroke="rgb(206, 27, 100)" stroke-width="3.6326718920834455" /><polygon fill="none" points="861,441 621,26 530,390 777,37 836,214 3,348 955,429 553,261" stroke="rgb(106, 27, 220)" stroke-width="1.5070838786696037" /><circle cx="139" cy="354" fill="none" opacity="0.4874363564335222" r="60" stroke="rgb(167, 147, 137)" stroke-width="3.463692685035902" /><path d="M432,274 C519,409 189,46 793,161 Q173,229 651,364 Q833,376 979,142 C479,63 12,30 999,394 C187,234 5,422 95,22" fill="none" stroke="rgb(200, 11, 79)" stroke-width="0.8229166739973153" /><path d="M324,273 C570,109 1018,238 180,235 C148,62 579,223 679,368 Q1024,419 562,422 L202,121 C542,196 1016,111 36,258" fill="none" stroke="rgb(153, 125, 126)" stroke-width="1.3793998302197439" /><rect fill="none" height="58" stroke="rgb(134, 135, 215)" stroke-width="3.139094627925554" transform="rotate(167 6 427)" width="65" x="599" y="96" /><circle cx="826" cy="180" fill="none" opacity="0.5801319674742426" r="29" stroke="rgb(88, 235, 13)" stroke-width="1.4558859376583586" /><circle cx="60" cy="143" fill="none" opacity="0.6879360543543269" r="44" stroke="rgb(75, 62, 5)" stroke-width="1.169322469601522" /><rect fill="none" height="134" stroke="rgb(243, 87, 131)" stroke-width="2.8100646652847496" transform="rotate(183 802 419)" width="107" x="649" y="182" /><polygon fill="none" points="385,255 601,429 908,174" stroke="rgb(92, 151, 85)" stroke-width="1.7662912509512623" /><path d="M230,224 L623,288 C67,110 573,373 692,150 L4,236 L247,260 C631,135 564,219 441,43" fill="none" stroke="rgb(63, 138, 239)" stroke-width="2.0332666690177486" /><path d="M713,238 C529,109 952,405 829,385 Q94,391 27,51 L471,348 C511,403 414,202 267,397" fill="none" stroke="rgb(12, 168, 42)" stroke-width="1.9722845470973764" /><rect fill="none" height="32" stroke="rgb(34, 136, 227)" stroke-width="2.1043187303180755" transform="rotate(312 201 342)" width="151" x="447" y="155" /><rect fill="none" height="151" stroke="rgb(188, 191, 102)" stroke-width="1.7670064842217421" transform="rotate(207 1038 169)" width="122" x="448" y="293" /><line stroke="rgb(229, 12, 46)" stroke-width="0.7447568633178157" x1="8" x2="659" y1="314" y2="118" /><line stroke="rgb(177, 99, 218)" stroke-width="1.1811328641408823" x1="775" x2="114" y1="340" y2="221" /><line stroke="rgb(245, 167, 114)" stroke-width="1.735704168747067" x1="603" x2="3" y1="417" y2="274" /><line stroke="rgb(44, 59, 228)" stroke-width="2.642080080346631" x1="1032" x2="1026" y1="251" y2="366" /><line stroke="rgb(202, 121, 255)" stroke-width="2.8266382280187576" x1="664" x2="312" y1="79" y2="283" /><line stroke="rgb(76, 223, 2)" stroke-width="2.678847609062312" x1="312" x2="692" y1="321" y2="205" /><line stroke="rgb(234, 194, 185)" stroke-width="1.353248479726031" x1="591" x2="972" y1="48" y2="427" /><polygon fill="none" points="765,373 60,196 395,19 626,21 791,43 465,318 519,350 454,303" stroke="rgb(16, 211, 1)" stroke-width="1.0417241346384416" /><polygon fill="none" points="358,411 750,339 40,56 151,49" stroke="rgb(127, 75, 140)" stroke-width="2.826511835874301" /><polygon fill="none" points="96,96 24,224 704,365 928,357" stroke="rgb(45, 104, 245)" stroke-width="1.4469734411699382" /><polygon fill="none" points="709,198 477,345 1000,31" stroke="rgb(5, 155, 171)" stroke-width="1.6154496983396318" /><rect fill="none" height="24" stroke="rgb(85, 4, 78)" stroke-width="4.940037450109707" transform="rotate(33 938 71)" width="182" x="874" y="152" /><line stroke="rgb(8, 182, 43)" stroke-width="2.483503532559378" x1="298" x2="569" y1="109" y2="318" /><line stroke="rgb(218, 218, 87)" stroke-width="2.784070881824542" x1="752" x2="793" y1="163" y2="103" /><line stroke="rgb(120, 22, 32)" stroke-width="2.0886776851894147" x1="910" x2="161" y1="161" y2="141" /><line stroke="rgb(39, 171, 157)" stroke-width="1.9828746321122366" x1="649" x2="763" y1="61" y2="237" /><line stroke="rgb(135, 26, 172)" stroke-width="0.7285886301761733" x1="578" x2="503" y1="425" y2="440" /><line stroke="rgb(89, 228, 39)" stroke-width="1.644197736052166" x1="393" x2="70" y1="304" y2="257" /><line stroke="rgb(45, 153, 251)" stroke-width="1.3119603014072587" x1="1014" x2="10" y1="69" y2="191" /></svg>