<svg baseProfile="full" height="690px" version="1.1" width="703px" xmlns="http://www.w3.org/2000/svg" xmlns:ev="http://www.w3.org/2001/xml-events" xmlns:xlink="http://www.w3.org/1999/xlink"><defs /><rect fill="rgb(215, 232, 231)" height="690px" width="703px" x="0" y="0" /><line stroke="rgb(134, 21, 116)" stroke-width="2.1715471864092133" x1="293" x2="432" y1="71" y2="524" /><line stroke="rgb(191, 235, 183)" stroke-width="2.564355250185241" x1="204" x2="612" y1="633" y2="19" /><line stroke="rgb(63, 20, 161)" stroke-width="2.103149058289846" x1="418" x2="76" y1="335" y2="313" /><line stroke="rgb(164, 230, 155)" stroke-width="1.8728544809741092" x1="376" x2="95" y1="604" y2="30" /><line stroke="rgb(195, 11, 165)" stroke-width="1.5084824826443481" x1="321" x2="299" y1="81" y2="35" /><line stroke="rgb(69, 108, 140)" stroke-width="0.5363196802181237" x1="637" x2="472" y1="552" y2="264" /><line stroke="rgb(249, 53, 108)" stroke-width="2.4489871026806713" x1="395" x2="495" y1="124" y2="404" /><line stroke="rgb(226, 48, 226)" stroke-width="1.002365019756599" x1="598" x2="210" y1="636" y2="590" /><line stroke="rgb(133, 173, 148)" stroke-width="2.9817358000940937" x1="401" x2="660" y1="72" y2="500" /><line stroke="rgb(110, 112, 77)" stroke-width="0.537728554851259" x1="593" x2="382" y1="639" y2="56" /><path d="M575,11 L596,427 C586,324 386,398 611,187 C334,183 253,233 70,155 L123,189 L25,472" fill="none" stroke="rgb(115, 152, 194)" stroke-width="1.5382951817156796" /><polygon fill="none" points="552,252 49,186 548,7 66,340 610,437 68,602 12,170 112,658" stroke="rgb(89, 6, 68)" stroke-width="0.9468585613435694" /><circle cx="145" cy="84" fill="none" opacity="0.8313320740325281" r="168" stroke="rgb(49, 87, 70)" stroke-width="1.5978580756762562" /><polygon fill="none" points="345,95 485,293 163,4 465,18 326,104" stroke="rgb(44, 32, 234)" stroke-width="2.794785670007045" /><polygon fill="none" points="303,492 515,50 169,52 504,463" stroke="rgb(141, 212, 86)" stroke-width="0.8308825382027957" /><line stroke="rgb(220, 87, 67)" stroke-width="1.7730339380357867" x1="121" x2="686" y1="297" y2="42" /><line stroke="rgb(117, 202, 93)" stroke-width="2.2968589370774635" x1="50" x2="244" y1="441" y2="264" /><line stroke="rgb(51, 244, 117)" stroke-width="1.9780363450045049" x1="364" x2="659" y1="442" y2="258" /><line stroke="rgb(80, 68, 13)" stroke-width="1.162010316156802" x1="73" x2="186" y1="612" y2="623" /><line stroke="rgb(88, 35, 177)" stroke-width="2.9271591186778765" x1="597" x2="152" y1="407" y2="675" /><line stroke="rgb(118, 19, 45)" stroke-width="2.100623734557066" x1="152" x2="461" y1="129" y2="674" /><line stroke="rgb(24, 12, 175)" stroke-width="2.4142487572296107" x1="435" x2="579" y1="433" y2="480" /><line stroke="rgb(192, 223, 162)" stroke-width="2.2429208619966667" x1="566" x2="410" y1="451" y2="394" /><line stroke="rgb(231, 140, 78)" stroke-width="1.3054517480797894" x1="157" x2="57" y1="418" y2="293" /><polygon fill="none" points="121,577 146,376 254,57 244,71" stroke="rgb(50, 54, 65)" stroke-width="1.3338154403073437" /><rect fill="none" height="71" stroke="rgb(161, 34, 204)" stroke-width="3.5022336676854544" transform="rotate(316 291 615)" width="195" x="169" y="28" /><path d="M7,125 C480,150 441,223 80,254 L367,82 L515,423 L232,684" fill="none" stroke="rgb(74, 71, 107)" stroke-width="2.298916476465867" /><polygon fill="none" points="517,10 609,245 222,513 642,414" stroke="rgb(60, 105, 74)" stroke-width="2.9794677393090283" /><rect fill="none" height="183" stroke="rgb(78, 244, 201)" stroke-width="4.0758465235633405" transform="rotate(358 608 525)" width="22" x="592" y="44" /><circle cx="552" cy="134" fill="none" opacity="0.9408935073818254" r="41" stroke="rgb(104, 196, 226)" stroke-width="3.8208934843556364" /><polygon fill="none" points="78,122 75,62 165,263 253,227 182,416 571,649 592,566 102,430" stroke="rgb(77, 156, 188)" stroke-width="2.478818498435839" /><polygon fill="none" points="41,329 273,647 505,271 169,670 59,572 152,465" stroke="rgb(237, 163, 84)" stroke-width="2.2950001116349252" /><path d="M368,540 C318,223 212,658 65,559 L103,237 Q590,246 434,141 C315,220 34,359 578,684 L233,686" fill="none" stroke="rgb(224, 170, 46)" stroke-width="1.1358449897657672" /><circle cx="209" cy="424" fill="none" opacity="0.7395336249190102" r="13" stroke="rgb(91, 151, 223)" stroke-width="0.6377720609680545" /><path d="M240,547 Q391,243 581,390 Q172,590 38,220 C218,473 173,330 167,645 Q658,299 510,557 C459,679 261,12 105,521 L431,373 L330,118" fill="none" stroke="rgb(29, 245, 204)" stroke-width="1.5427830521784913" /><rect fill="none" height="57" stroke="rgb(200, 187, 13)" stroke-width="2.0007771429290275" transform="rotate(54 195 632)" width="60" x="394" y="353" /><polygon fill="none" points="475,385 330,149 73,189 641,637 477,457 298,463 508,60" stroke="rgb(54, 142, 47)" stroke-width="2.0465709801494847" /><circle cx="80" cy="82" fill="none" opacity="0.7482667634126766" r="155" stroke="rgb(185, 134, 80)" stroke-width="2.3021330656413106" /><polygon fill="none" points="381,101 331,103 419,178 214,433 229,530 649,603" stroke="rgb(20, 30, 26)" stroke-width="3.5240599990802615" /><polygon fill="none" points="525,56 190,554 505,209 235,621 189,661" stroke="rgb(17, 14, 3)" stroke-width="0.8147184885145745" /><rect fill="none" height="185" stroke="rgb(40, 243, 222)" stroke-width="0.6551348363565919" transform="rotate(244 307 453)" width="47" x="446" y="537" /><polygon fill="none" points="265,212 35,593 101,486 82,146" stroke="rgb(178, 84, 11)" stroke-width="1.1812039365520732" /><circle cx="530" cy="99" fill="none" opacity="0.5828349722388586" r="69" stroke="rgb(184, 214, 17)" stroke-width="4.580279679064365" /><polygon fill="none" points="39,241 458,229 512,680 667,315 104,411 595,493 703,654" stroke="rgb(22, 174, 188)" stroke-width="0.6926810412811831" /><path d="M535,43 Q659,190 136,29 C8,209 564,377 453,132 L452,511" fill="none" stroke="rgb(42, 76, 145)" stroke-width="1.6779775182182186" /><path d="M673,141 Q561,521 613,97 Q654,375 384,334 C266,452 145,199 535,490" fill="none" stroke="rgb(58, 16, 30)" stroke-width="2.2238885256580554" /><polygon fill="none" points="570,137 159,268 444,511 113,581 640,397" stroke="rgb(151, 193, 109)" stroke-width="3.7127735485855986" /><path d="M501,602 C240,645 45,393 669,420 C556,428 93,186 382,116 L110,210 L213,686 L405,138 C382,309 130,510 92,264" fill="none" stroke="rgb(123, 124, 226)" stroke-width="1.7193114803674394" /><circle cx="228" cy="255" fill="none" opacity="0.3774002093069593" r="127" stroke="rgb(154, 100, 82)" stroke-width="2.7252109481867692" /><line stroke="rgb(152, 32, 176)" stroke-width="2.7908889741189453" x1="28" x2="680" y1="54" y2="59" /><line stroke="rgb(235, 114, 91)" stroke-width="2.868008419644775" x1="54" x2="541" y1="423" y2="31" /><line stroke="rgb(183, 146, 70)" stroke-width="2.4485364234073375" x1="607" x2="456" y1="381" y2="523" /><line stroke="rgb(201, 41, 228)" stroke-width="1.4026825220405863" x1="152" x2="211" y1="544" y2="417" /><line stroke="rgb(179, 164, 154)" stroke-width="2.6784372741104416" x1="652" x2="34" y1="539" y2="555" /><line stroke="rgb(178, 25, 133)" stroke-width="2.943266564896969" x1="99" x2="564" y1="295" y2="11" /><line stroke="rgb(209, 191, 144)" stroke-width="0.8148279619242356" x1="173" x2="623" y1="450" y2="115" /><line stroke="rgb(242, 144, 72)" stroke-width="2.0511023269627877" x1="652" x2="167" y1="20" y2="136" /><line stroke="rgb(198, 102, 147)" stroke-width="0.6260247023720867" x1="321" x2="125" y1="547" y2="260" /><polygon fill="none" points="188,355 556,310 179,551 230,637 664,160" stroke="rgb(169, 196, 95)" stroke-width="2.686942474929426" /><circle cx="565" cy="203" fill="none" opacity="0.8166579577519482" r="23" stroke="rgb(42, 27, 224)" stroke-width="3.714017170261472" /><path d="M575,572 Q695,76 703,183 C516,625 573,395 288,464 L220,179 Q380,60 62,424 Q224,244 556,389" fill="none" stroke="rgb(23, 71, 224)" stroke-width="2.0693563850768344" /><rect fill="none" height="176" stroke="rgb(53, 145, 219)" stroke-width="0.5689976877410106" transform="rotate(256 284 357)" width="192" x="174" y="533" /><circle cx="577" cy="330" fill="none" opacity="0.4963469682079592" r="146" stroke="rgb(101, 224, 67)" stroke-width="1.6824866101630649" /></svg>