<svg baseProfile="full" height="661px" version="1.1" width="1041px" xmlns="http://www.w3.org/2000/svg" xmlns:ev="http://www.w3.org/2001/xml-events" xmlns:xlink="http://www.w3.org/1999/xlink"><defs /><rect fill="rgb(231, 237, 252)" height="661px" width="1041px" x="0" y="0" /><rect fill="none" height="144" stroke="rgb(4, 244, 105)" stroke-width="1.7118441246648055" transform="rotate(339 714 344)" width="193" x="6" y="240" /><polygon fill="none" points="540,291 414,472 678,332 462,625 574,84 322,654" stroke="rgb(224, 212, 193)" stroke-width="0.9166722048406069" /><line stroke="rgb(125, 134, 85)" stroke-width="2.6262153508149657" x1="1001" x2="117" y1="562" y2="580" /><line stroke="rgb(170, 134, 80)" stroke-width="0.7973825559213763" x1="240" x2="351" y1="514" y2="344" /><line stroke="rgb(198, 109, 113)" stroke-width="2.943696359458315" x1="153" x2="637" y1="179" y2="384" /><line stroke="rgb(117, 4, 28)" stroke-width="0.9955323417685511" x1="728" x2="606" y1="5" y2="0" /><line stroke="rgb(100, 72, 225)" stroke-width="1.8360785847358234" x1="570" x2="1018" y1="220" y2="193" /><line stroke="rgb(30, 55, 187)" stroke-width="1.0415316680037285" x1="937" x2="895" y1="508" y2="142" /><line stroke="rgb(181, 117, 245)" stroke-width="2.325446359471988" x1="547" x2="539" y1="409" y2="81" /><line stroke="rgb(149, 173, 161)" stroke-width="2.2110470626967267" x1="117" x2="700" y1="298" y2="14" /><line stroke="rgb(182, 176, 107)" stroke-width="0.6759591430207635" x1="316" x2="647" y1="370" y2="643" /><line stroke="rgb(95, 198, 220)" stroke-width="2.587135826247785" x1="894" x2="446" y1="126" y2="140" /><line stroke="rgb(4, 221, 77)" stroke-width="1.454461715122188" x1="739" x2="872" y1="475" y2="353" /><line stroke="rgb(210, 253, 17)" stroke-width="2.7943141501730766" x1="742" x2="805" y1="291" y2="599" /><line stroke="rgb(78, 235, 230)" stroke-width="1.8022003337178294" x1="139" x2="443" y1="23" y2="15" /><line stroke="rgb(196, 170, 119)" stroke-width="0.7524487321351145" x1="610" x2="343" y1="35" y2="400" /><line stroke="rgb(59, 246, 75)" stroke-width="2.749638083222038" x1="979" x2="433" y1="160" y2="621" /><line stroke="rgb(139, 206, 108)" stroke-width="2.4456571971766325" x1="678" x2="234" y1="226" y2="194" /><line stroke="rgb(29, 114, 60)" stroke-width="2.1144258065127155" x1="709" x2="654" y1="620" y2="90" /><polygon fill="none" points="376,60 385,488 793,506" stroke="rgb(155, 47, 76)" stroke-width="0.9686942133156232" /><line stroke="rgb(141, 25, 55)" stroke-width="0.8484523661519623" x1="568" x2="608" y1="44" y2="445" /><line stroke="rgb(201, 35, 104)" stroke-width="0.8928295263129247" x1="813" x2="581" y1="461" y2="453" /><line stroke="rgb(159, 92, 9)" stroke-width="1.2465468890812503" x1="69" x2="331" y1="561" y2="483" /><path d="M293,179 C821,152 424,479 11,655 Q685,424 813,467 Q615,126 287,361 C692,570 311,426 813,659 L283,420 Q774,594 121,289" fill="none" stroke="rgb(218, 49, 8)" stroke-width="2.8549591385134026" /><rect fill="none" height="193" stroke="rgb(145, 139, 211)" stroke-width="2.0050063041558435" transform="rotate(102 248 641)" width="66" x="385" y="73" /><rect fill="none" height="153" stroke="rgb(35, 86, 24)" stroke-width="0.6756421978633673" transform="rotate(225 557 127)" width="141" x="193" y="460" /><rect fill="none" height="81" stroke="rgb(31, 245, 104)" stroke-width="2.6736250287307723" transform="rotate(27 507 351)" width="102" x="472" y="0" /><path d="M323,300 L202,406 C594,275 596,634 746,348 C661,283 619,536 485,348 Q330,634 753,390 C499,114 603,288 556,204 L825,364" fill="none" stroke="rgb(152, 6, 202)" stroke-width="1.7865771494428113" /><rect fill="none" height="198" stroke="rgb(1, 7, 67)" stroke-width="4.040908081482966" transform="rotate(92 291 99)" width="127" x="498" y="15" /><polygon fill="none" points="938,267 270,361 56,607 847,650 693,127 655,499 716,25" stroke="rgb(187, 27, 221)" stroke-width="2.5153831512526854" /><path d="M156,422 C716,616 818,114 744,501 C490,16 385,153 898,323 Q107,326 194,251" fill="none" stroke="rgb(141, 71, 203)" stroke-width="1.8409440146786937" /><circle cx="372" cy="505" fill="none" opacity="0.7502019160089097" r="154" stroke="rgb(125, 121, 95)" stroke-width="4.769821126702111" /><circle cx="836" cy="469" fill="none" opacity="0.4243300842893668" r="158" stroke="rgb(176, 145, 115)" stroke-width="2.1917099705170084" /><polygon fill="none" points="979,181 267,360 544,4 151,321 846,476" stroke="rgb(208, 128, 80)" stroke-width="2.436295226098727" /><circle cx="135" cy="117" fill="none" opacity="0.3549335287093712" r="101" stroke="rgb(113, 140, 129)" stroke-width="0.6404502068913704" /><line stroke="rgb(233, 250, 70)" stroke-width="2.032154670094958" x1="434" x2="676" y1="62" y2="334" /><line stroke="rgb(50, 139, 230)" stroke-width="0.8188489812353179" x1="889" x2="348" y1="492" y2="548" /><line stroke="rgb(27, 212, 138)" stroke-width="0.6200845754589919" x1="221" x2="801" y1="232" y2="364" /><line stroke="rgb(249, 32, 146)" stroke-width="0.5698666067321516" x1="430" x2="468" y1="481" y2="94" /><line stroke="rgb(28, 241, 15)" stroke-width="1.6829991922852914" x1="389" x2="264" y1="211" y2="315" /><line stroke="rgb(229, 34, 91)" stroke-width="2.90938043965969" x1="901" x2="487" y1="450" y2="231" /><rect fill="none" height="179" stroke="rgb(226, 240, 239)" stroke-width="1.0229520206941807" transform="rotate(22 976 565)" width="62" x="549" y="480" /><rect fill="none" height="99" stroke="rgb(95, 215, 236)" stroke-width="2.082511090899235" transform="rotate(152 821 614)" width="127" x="98" y="88" /><rect fill="none" height="117" stroke="rgb(248, 121, 191)" stroke-width="4.099841583848164" transform="rotate(156 332 170)" width="97" x="632" y="33" /><rect fill="none" height="76" stroke="rgb(9, 53, 244)" stroke-width="0.761266804741802" transform="rotate(277 507 441)" width="72" x="3" y="342" /><polygon fill="none" points="952,506 955,653 528,575 718,470" stroke="rgb(224, 172, 8)" stroke-width="1.8376076079060173" /></svg>