<svg baseProfile="full" height="483px" version="1.1" width="1034px" xmlns="http://www.w3.org/2000/svg" xmlns:ev="http://www.w3.org/2001/xml-events" xmlns:xlink="http://www.w3.org/1999/xlink"><defs /><rect fill="rgb(217, 233, 212)" height="483px" width="1034px" x="0" y="0" /><line stroke="rgb(79, 236, 231)" stroke-width="1.5963718872475379" x1="224" x2="309" y1="210" y2="434" /><line stroke="rgb(146, 120, 127)" stroke-width="1.3478485658154076" x1="117" x2="309" y1="27" y2="418" /><line stroke="rgb(106, 38, 48)" stroke-width="0.725532586840469" x1="780" x2="691" y1="322" y2="347" /><line stroke="rgb(88, 160, 54)" stroke-width="2.149799793672324" x1="27" x2="608" y1="384" y2="147" /><line stroke="rgb(69, 0, 120)" stroke-width="1.680940773103373" x1="213" x2="421" y1="44" y2="306" /><line stroke="rgb(216, 48, 87)" stroke-width="2.8517854129248947" x1="127" x2="136" y1="65" y2="399" /><line stroke="rgb(76, 241, 94)" stroke-width="1.5139621805968497" x1="774" x2="485" y1="230" y2="293" /><path d="M277,411 L21,15 L925,136 L348,397 Q133,293 222,34 C725,304 664,158 143,234 C643,165 467,146 187,256 L120,147" fill="none" stroke="rgb(133, 7, 56)" stroke-width="1.4187092431630306" /><line stroke="rgb(129, 155, 234)" stroke-width="1.686353778788021" x1="980" x2="683" y1="13" y2="144" /><line stroke="rgb(10, 125, 182)" stroke-width="1.7130481941708182" x1="214" x2="916" y1="397" y2="454" /><line stroke="rgb(41, 4, 205)" stroke-width="2.3647488358988036" x1="540" x2="6" y1="403" y2="15" /><line stroke="rgb(231, 142, 111)" stroke-width="1.0694493683784696" x1="697" x2="945" y1="136" y2="144" /><line stroke="rgb(106, 191, 102)" stroke-width="2.049984890267849" x1="59" x2="399" y1="374" y2="36" /><line stroke="rgb(231, 83, 164)" stroke-width="0.5352424321365652" x1="126" x2="453" y1="33" y2="41" /><line stroke="rgb(164, 9, 3)" stroke-width="2.049272046756022" x1="460" x2="343" y1="187" y2="365" /><line stroke="rgb(200, 250, 112)" stroke-width="1.948787306886373" x1="523" x2="578" y1="183" y2="392" /><polygon fill="none" points="580,104 634,218 77,421 495,237 899,117 416,164" stroke="rgb(83, 7, 77)" stroke-width="2.975975928864365" /><circle cx="227" cy="406" fill="none" opacity="0.5737491630674344" r="32" stroke="rgb(109, 32, 148)" stroke-width="1.3638294241429116" /><path d="M371,186 L248,193 Q468,393 854,269 L128,52 L701,120 C440,117 240,383 63,300 L508,199 C920,206 223,91 706,358" fill="none" stroke="rgb(7, 245, 8)" stroke-width="1.7223069553768084" /><line stroke="rgb(110, 71, 168)" stroke-width="2.223864403745165" x1="586" x2="102" y1="414" y2="276" /><line stroke="rgb(131, 131, 144)" stroke-width="2.7512999157853395" x1="666" x2="638" y1="234" y2="418" /><line stroke="rgb(79, 115, 214)" stroke-width="2.989737480512974" x1="273" x2="449" y1="206" y2="119" /><line stroke="rgb(95, 139, 254)" stroke-width="1.1042241514306252" x1="342" x2="653" y1="384" y2="303" /><line stroke="rgb(188, 6, 245)" stroke-width="2.255893489871614" x1="876" x2="602" y1="412" y2="349" /><line stroke="rgb(131, 10, 201)" stroke-width="1.1801824793240683" x1="625" x2="779" y1="295" y2="47" /><line stroke="rgb(90, 68, 4)" stroke-width="2.885946774440068" x1="896" x2="407" y1="107" y2="112" /><line stroke="rgb(33, 180, 239)" stroke-width="1.9978123515091015" x1="711" x2="806" y1="169" y2="87" /><polygon fill="none" points="50,469 663,362 692,207 639,365 633,67 778,73 693,342 746,1" stroke="rgb(81, 93, 214)" stroke-width="2.661697794310695" /><rect fill="none" height="87" stroke="rgb(183, 45, 252)" stroke-width="2.9838448647112794" transform="rotate(148 699 223)" width="76" x="548" y="115" /><polygon fill="none" points="19,148 255,457 994,175 54,102 851,313 973,372 348,176 667,191" stroke="rgb(220, 84, 3)" stroke-width="2.996626971960441" /><polygon fill="none" points="818,465 144,83 538,374 840,251 61,219 757,110" stroke="rgb(226, 124, 35)" stroke-width="1.2518555831979032" /><circle cx="454" cy="89" fill="none" opacity="0.5337709235972142" r="118" stroke="rgb(75, 106, 170)" stroke-width="0.8135155393888527" /><polygon fill="none" points="875,176 868,246 366,26 876,257 73,416" stroke="rgb(46, 87, 42)" stroke-width="2.685679736665029" /><rect fill="none" height="67" stroke="rgb(208, 197, 218)" stroke-width="2.262713445355115" transform="rotate(66 748 72)" width="82" x="33" y="31" /><rect fill="none" height="171" stroke="rgb(105, 1, 84)" stroke-width="4.096206825143192" transform="rotate(172 132 202)" width="25" x="812" y="220" /><circle cx="539" cy="205" fill="none" opacity="0.8463802891818286" r="48" stroke="rgb(184, 228, 172)" stroke-width="2.049609915078804" /><line stroke="rgb(60, 187, 178)" stroke-width="1.7894521740750768" x1="853" x2="71" y1="83" y2="112" /><line stroke="rgb(114, 150, 43)" stroke-width="2.620555748952322" x1="34" x2="87" y1="155" y2="136" /><line stroke="rgb(61, 78, 181)" stroke-width="2.200417763763175" x1="1030" x2="749" y1="118" y2="229" /><path d="M401,71 C931,277 334,352 467,432 Q229,67 864,51 C946,383 641,0 70,395 C683,173 220,7 730,60 C533,124 323,111 344,433" fill="none" stroke="rgb(251, 106, 141)" stroke-width="1.1820479905538035" /><line stroke="rgb(71, 117, 167)" stroke-width="2.4044156232811935" x1="696" x2="802" y1="74" y2="101" /><line stroke="rgb(77, 123, 57)" stroke-width="1.141432135491632" x1="757" x2="937" y1="233" y2="408" /><line stroke="rgb(240, 119, 184)" stroke-width="2.59944510851267" x1="254" x2="1014" y1="333" y2="421" /><line stroke="rgb(163, 99, 88)" stroke-width="1.0040262187713471" x1="36" x2="498" y1="125" y2="254" /><line stroke="rgb(216, 82, 105)" stroke-width="1.2535577495557049" x1="884" x2="260" y1="76" y2="84" /><line stroke="rgb(55, 18, 150)" stroke-width="1.6532260586281011" x1="791" x2="655" y1="292" y2="353" /><line stroke="rgb(222, 244, 120)" stroke-width="0.7177382234193836" x1="46" x2="615" y1="235" y2="312" /><path d="M35,430 Q314,93 318,9 Q590,438 5,164 C438,471 354,368 765,467 Q783,450 545,196 Q450,143 841,204 Q966,473 714,144 C13,23 679,391 80,179" fill="none" stroke="rgb(95, 178, 90)" stroke-width="1.6223790581206805" /><polygon fill="none" points="1021,411 857,209 699,420" stroke="rgb(51, 163, 156)" stroke-width="3.5094161452701695" /><polygon fill="none" points="41,382 663,371 882,315" stroke="rgb(177, 222, 250)" stroke-width="0.8883678233054925" /><circle cx="471" cy="334" fill="none" opacity="0.5173264603725602" r="71" stroke="rgb(93, 249, 26)" stroke-width="1.327386070228507" /><line stroke="rgb(70, 41, 25)" stroke-width="2.203682860898688" x1="65" x2="390" y1="233" y2="314" /><line stroke="rgb(99, 132, 158)" stroke-width="0.8089180953289172" x1="517" x2="367" y1="93" y2="42" /><line stroke="rgb(92, 168, 42)" stroke-width="2.0533285392489864" x1="537" x2="710" y1="197" y2="362" /><line stroke="rgb(167, 231, 159)" stroke-width="0.8347743265913533" x1="22" x2="616" y1="329" y2="1" /><line stroke="rgb(46, 225, 156)" stroke-width="1.2161339850946058" x1="998" x2="914" y1="197" y2="43" /><line stroke="rgb(133, 93, 52)" stroke-width="2.0249868589854056" x1="979" x2="443" y1="461" y2="169" /><polygon fill="none" points="542,73 443,457 147,202 51,366 271,74 886,124" stroke="rgb(7, 103, 27)" stroke-width="3.364202621003483" /><polygon fill="none" points="137,78 44,390 308,223 74,246 711,250 817,107 345,162" stroke="rgb(180, 23, 117)" stroke-width="3.3449031105611424" /><circle cx="66" cy="56" fill="none" opacity="0.4322006114776792" r="76" stroke="rgb(120, 216, 203)" stroke-width="0.7519530107342318" /><circle cx="533" cy="389" fill="none" opacity="0.7353413681683162" r="52" stroke="rgb(155, 48, 95)" stroke-width="1.7076030001527167" /><rect fill="none" height="137" stroke="rgb(194, 1, 39)" stroke-width="4.116342132569058" transform="rotate(93 501 190)" width="197" x="409" y="133" /><polygon fill="none" points="499,52 842,431 194,465 305,173 995,87 361,113 168,406" stroke="rgb(216, 97, 45)" stroke-width="2.557801398248208" /><polygon fill="none" points="920,78 852,288 429,301 775,389 233,376 260,247 725,378" stroke="rgb(13, 219, 119)" stroke-width="1.8539399535966692" /><circle cx="337" cy="59" fill="none" opacity="0.5657953056127947" r="72" stroke="rgb(233, 67, 4)" stroke-width="3.522479995206478" /><circle cx="597" cy="252" fill="none" opacity="0.3937965276173352" r="53" stroke="rgb(104, 153, 118)" stroke-width="1.3679491977703164" /><path d="M195,41 Q536,190 240,327 C57,293 619,112 671,481 C146,130 579,40 864,357 L438,439 C160,47 206,399 381,162 Q826,68 25,223" fill="none" stroke="rgb(114, 55, 189)" stroke-width="2.346767969000888" /><polygon fill="none" points="569,87 1004,192 898,221 930,185 346,324" stroke="rgb(148, 81, 23)" stroke-width="2.8630112176873856" /></svg>