<svg baseProfile="full" height="748px" version="1.1" width="699px" xmlns="http://www.w3.org/2000/svg" xmlns:ev="http://www.w3.org/2001/xml-events" xmlns:xlink="http://www.w3.org/1999/xlink"><defs /><rect fill="rgb(221, 227, 250)" height="748px" width="699px" x="0" y="0" /><polygon fill="none" points="215,310 559,709 350,60" stroke="rgb(141, 159, 14)" stroke-width="3.4703370129482614" /><polygon fill="none" points="371,222 187,345 445,609 151,524 194,601 176,510" stroke="rgb(171, 233, 49)" stroke-width="3.865705202334821" /><path d="M241,184 Q380,204 486,496 Q323,258 359,309 L496,339 C409,63 58,289 677,317" fill="none" stroke="rgb(161, 186, 129)" stroke-width="2.3060788717899943" /><circle cx="636" cy="593" fill="none" opacity="0.46712838594717054" r="34" stroke="rgb(12, 225, 36)" stroke-width="3.246711733519635" /><circle cx="271" cy="427" fill="none" opacity="0.6929253146167405" r="21" stroke="rgb(235, 62, 172)" stroke-width="4.156747895900076" /><polygon fill="none" points="643,141 421,677 426,235" stroke="rgb(69, 181, 177)" stroke-width="2.914285146411156" /><line stroke="rgb(128, 216, 185)" stroke-width="2.582194995188835" x1="27" x2="431" y1="446" y2="268" /><line stroke="rgb(254, 243, 145)" stroke-width="2.850097680600834" x1="142" x2="100" y1="583" y2="177" /><line stroke="rgb(198, 146, 212)" stroke-width="1.2691602068474603" x1="344" x2="361" y1="633" y2="15" /><line stroke="rgb(222, 37, 233)" stroke-width="1.234843489284982" x1="395" x2="216" y1="673" y2="644" /><line stroke="rgb(100, 42, 137)" stroke-width="1.3440449743558194" x1="430" x2="289" y1="409" y2="54" /><line stroke="rgb(161, 58, 1)" stroke-width="2.7384071949235658" x1="195" x2="524" y1="463" y2="497" /><rect fill="none" height="93" stroke="rgb(235, 164, 194)" stroke-width="4.729433169343743" transform="rotate(284 335 89)" width="54" x="315" y="319" /><rect fill="none" height="167" stroke="rgb(20, 163, 239)" stroke-width="0.9325409560379971" transform="rotate(202 412 13)" width="162" x="94" y="174" /><path d="M9,332 Q200,324 509,337 C643,476 34,489 300,264 L353,722 L439,15" fill="none" stroke="rgb(223, 209, 191)" stroke-width="1.249237071706847" /><path d="M38,157 Q429,247 429,722 C89,602 226,196 425,59 L179,245 Q2,465 103,393 C638,191 291,638 509,377" fill="none" stroke="rgb(187, 44, 44)" stroke-width="2.8451239039794283" /><circle cx="177" cy="370" fill="none" opacity="0.7055233667367342" r="59" stroke="rgb(189, 106, 0)" stroke-width="4.943454228365357" /><rect fill="none" height="189" stroke="rgb(215, 122, 68)" stroke-width="2.8798635610417898" transform="rotate(198 309 347)" width="137" x="106" y="544" /><path d="M110,476 Q436,316 130,120 L425,105 L8,408" fill="none" stroke="rgb(137, 27, 106)" stroke-width="0.7841918503207177" /><line stroke="rgb(144, 173, 221)" stroke-width="0.9949854052643445" x1="220" x2="305" y1="236" y2="492" /><line stroke="rgb(161, 238, 33)" stroke-width="2.567680419500475" x1="102" x2="550" y1="417" y2="642" /><line stroke="rgb(97, 84, 40)" stroke-width="0.7463875827040651" x1="350" x2="22" y1="698" y2="28" /><line stroke="rgb(179, 75, 172)" stroke-width="2.812035053021915" x1="213" x2="349" y1="502" y2="553" /><line stroke="rgb(244, 85, 134)" stroke-width="1.939862929575809" x1="347" x2="215" y1="581" y2="370" /><line stroke="rgb(208, 0, 233)" stroke-width="0.709752741690272" x1="626" x2="686" y1="13" y2="79" /><line stroke="rgb(150, 225, 49)" stroke-width="2.3688972547778113" x1="493" x2="535" y1="748" y2="379" /><line stroke="rgb(159, 111, 246)" stroke-width="2.170549845880139" x1="237" x2="191" y1="234" y2="404" /><line stroke="rgb(117, 162, 90)" stroke-width="0.830446305933485" x1="102" x2="57" y1="332" y2="171" /><line stroke="rgb(141, 250, 17)" stroke-width="1.182466766082974" x1="578" x2="438" y1="439" y2="116" /><line stroke="rgb(51, 251, 70)" stroke-width="0.8982839342233515" x1="527" x2="592" y1="163" y2="387" /><line stroke="rgb(107, 5, 142)" stroke-width="1.8460279852248673" x1="267" x2="521" y1="126" y2="690" /><line stroke="rgb(125, 55, 37)" stroke-width="0.8907255101299051" x1="10" x2="10" y1="172" y2="362" /><line stroke="rgb(20, 50, 193)" stroke-width="2.0775466990783253" x1="249" x2="442" y1="123" y2="33" /><line stroke="rgb(128, 169, 113)" stroke-width="1.4905649245334698" x1="324" x2="633" y1="315" y2="61" /><line stroke="rgb(210, 30, 134)" stroke-width="1.5956107602224492" x1="115" x2="369" y1="695" y2="76" /><line stroke="rgb(53, 51, 108)" stroke-width="1.782549283080303" x1="14" x2="7" y1="739" y2="737" /><path d="M594,461 L233,553 Q326,388 635,630 L461,131 Q527,544 155,600 L529,664 Q429,694 641,94 L240,655" fill="none" stroke="rgb(223, 184, 120)" stroke-width="1.1370667555536593" /><line stroke="rgb(8, 230, 58)" stroke-width="2.2776434710224844" x1="635" x2="388" y1="506" y2="67" /><line stroke="rgb(80, 96, 244)" stroke-width="0.8735391263455587" x1="473" x2="649" y1="80" y2="601" /><line stroke="rgb(180, 192, 91)" stroke-width="0.603696091380757" x1="157" x2="423" y1="316" y2="111" /><line stroke="rgb(122, 60, 242)" stroke-width="1.9993542896099221" x1="542" x2="620" y1="590" y2="511" /><line stroke="rgb(189, 227, 207)" stroke-width="2.550344040991629" x1="161" x2="98" y1="356" y2="54" /><path d="M221,464 L237,45 C77,744 222,336 195,648 L428,560 Q337,721 633,735" fill="none" stroke="rgb(204, 140, 3)" stroke-width="1.0914587111739136" /><path d="M613,54 Q52,685 452,262 C453,695 324,520 159,668 L206,708 Q313,271 27,624 L168,448" fill="none" stroke="rgb(156, 86, 238)" stroke-width="2.4008478257412587" /><circle cx="477" cy="145" fill="none" opacity="0.4324267347191342" r="63" stroke="rgb(82, 84, 143)" stroke-width="1.7622168584526214" /><line stroke="rgb(151, 212, 241)" stroke-width="1.935515258643345" x1="339" x2="174" y1="186" y2="245" /><line stroke="rgb(79, 126, 169)" stroke-width="2.728497685500037" x1="457" x2="282" y1="383" y2="595" /><line stroke="rgb(41, 232, 103)" stroke-width="1.665624073032335" x1="638" x2="220" y1="685" y2="57" /><line stroke="rgb(254, 210, 201)" stroke-width="0.9315995242202347" x1="204" x2="633" y1="4" y2="698" /><polygon fill="none" points="624,113 462,145 446,327" stroke="rgb(225, 132, 114)" stroke-width="2.3907726944292915" /><rect fill="none" height="199" stroke="rgb(44, 157, 1)" stroke-width="0.9627404223727132" transform="rotate(99 81 723)" width="44" x="111" y="403" /><path d="M390,560 L21,532 L673,164 L670,640 L662,342 L355,251 C631,531 174,262 565,478" fill="none" stroke="rgb(212, 235, 195)" stroke-width="1.7535622193565445" /><line stroke="rgb(82, 76, 243)" stroke-width="2.431258160010154" x1="109" x2="621" y1="55" y2="525" /><line stroke="rgb(1, 202, 207)" stroke-width="0.7699736445564995" x1="626" x2="136" y1="566" y2="688" /><line stroke="rgb(141, 169, 78)" stroke-width="1.146682990145585" x1="244" x2="478" y1="271" y2="38" /><line stroke="rgb(106, 53, 218)" stroke-width="1.0690532231252203" x1="450" x2="27" y1="372" y2="575" /><rect fill="none" height="26" stroke="rgb(126, 55, 215)" stroke-width="4.491954794962112" transform="rotate(348 654 461)" width="197" x="425" y="227" /><polygon fill="none" points="349,491 121,639 406,481 587,253 116,290" stroke="rgb(92, 128, 60)" stroke-width="1.267949388129266" /></svg>