<svg baseProfile="full" height="689px" version="1.1" width="663px" xmlns="http://www.w3.org/2000/svg" xmlns:ev="http://www.w3.org/2001/xml-events" xmlns:xlink="http://www.w3.org/1999/xlink"><defs /><rect fill="rgb(251, 244, 206)" height="689px" width="663px" x="0" y="0" /><circle cx="320" cy="288" fill="none" opacity="0.34557188283258494" r="149" stroke="rgb(104, 185, 68)" stroke-width="0.9385603201320927" /><line stroke="rgb(174, 43, 80)" stroke-width="1.83428022802571" x1="572" x2="153" y1="214" y2="270" /><line stroke="rgb(52, 126, 34)" stroke-width="1.1452358669148865" x1="359" x2="69" y1="167" y2="297" /><line stroke="rgb(189, 221, 148)" stroke-width="2.7122067897219617" x1="365" x2="194" y1="241" y2="377" /><line stroke="rgb(72, 35, 182)" stroke-width="0.8552459020132184" x1="377" x2="111" y1="421" y2="528" /><line stroke="rgb(90, 253, 2)" stroke-width="1.5222577389251895" x1="478" x2="452" y1="601" y2="321" /><line stroke="rgb(20, 122, 134)" stroke-width="1.1806195822746097" x1="285" x2="428" y1="562" y2="395" /><line stroke="rgb(54, 250, 191)" stroke-width="1.0855695770406149" x1="38" x2="86" y1="526" y2="59" /><circle cx="378" cy="612" fill="none" opacity="0.8623444318053253" r="35" stroke="rgb(175, 145, 81)" stroke-width="0.5899801511997842" /><rect fill="none" height="198" stroke="rgb(142, 246, 134)" stroke-width="2.5288363129639304" transform="rotate(126 616 622)" width="130" x="170" y="285" /><path d="M222,559 Q505,80 344,227 C159,143 377,420 652,237 C124,189 264,224 289,465" fill="none" stroke="rgb(250, 195, 187)" stroke-width="0.7279754456931676" /><path d="M568,629 C169,1 333,586 286,448 L39,93 C326,334 420,309 437,379 Q49,419 312,619" fill="none" stroke="rgb(189, 21, 199)" stroke-width="2.409835433459024" /><path d="M282,608 C441,384 582,290 394,437 L649,464 Q108,58 181,449" fill="none" stroke="rgb(200, 29, 114)" stroke-width="1.9269964809308078" /><line stroke="rgb(94, 151, 61)" stroke-width="1.8112884323499951" x1="219" x2="188" y1="264" y2="102" /><line stroke="rgb(108, 229, 85)" stroke-width="1.4012957416653091" x1="504" x2="464" y1="185" y2="524" /><line stroke="rgb(127, 104, 193)" stroke-width="2.2814799942521153" x1="198" x2="647" y1="399" y2="580" /><line stroke="rgb(54, 165, 228)" stroke-width="1.4700385374789453" x1="302" x2="20" y1="498" y2="142" /><line stroke="rgb(186, 168, 210)" stroke-width="2.2758120751189264" x1="310" x2="657" y1="657" y2="437" /><line stroke="rgb(80, 235, 34)" stroke-width="1.3070654983779757" x1="252" x2="360" y1="104" y2="15" /><circle cx="165" cy="601" fill="none" opacity="0.42678321359827753" r="159" stroke="rgb(182, 237, 105)" stroke-width="0.8172841375153396" /><rect fill="none" height="153" stroke="rgb(18, 39, 218)" stroke-width="1.3787545418587897" transform="rotate(198 294 180)" width="186" x="5" y="488" /><path d="M453,49 L376,282 C248,28 556,474 578,166 Q297,49 158,258" fill="none" stroke="rgb(166, 180, 218)" stroke-width="1.092609752792986" /><polygon fill="none" points="378,353 216,187 567,512 46,530 407,14" stroke="rgb(14, 106, 36)" stroke-width="1.305716235404775" /><rect fill="none" height="161" stroke="rgb(69, 23, 129)" stroke-width="2.4652594060527155" transform="rotate(40 518 37)" width="188" x="135" y="393" /><rect fill="none" height="48" stroke="rgb(151, 233, 36)" stroke-width="1.8830879173306447" transform="rotate(99 600 62)" width="91" x="507" y="181" /><polygon fill="none" points="38,455 240,134 31,113 310,347 348,67" stroke="rgb(254, 71, 61)" stroke-width="2.782930364478428" /><polygon fill="none" points="55,315 594,363 339,232" stroke="rgb(67, 67, 193)" stroke-width="1.8639819402157447" /><polygon fill="none" points="117,400 11,254 96,61 581,134 274,526" stroke="rgb(225, 191, 117)" stroke-width="3.710522751249719" /><rect fill="none" height="26" stroke="rgb(50, 98, 26)" stroke-width="1.3711712860556513" transform="rotate(42 396 280)" width="169" x="286" y="439" /><line stroke="rgb(137, 46, 144)" stroke-width="2.8674326416005216" x1="354" x2="527" y1="80" y2="78" /><line stroke="rgb(140, 1, 79)" stroke-width="0.5660466183789623" x1="604" x2="487" y1="606" y2="36" /><line stroke="rgb(82, 179, 166)" stroke-width="0.7777409877117482" x1="413" x2="160" y1="662" y2="323" /><line stroke="rgb(232, 137, 206)" stroke-width="1.3918325574523815" x1="588" x2="91" y1="77" y2="246" /><line stroke="rgb(115, 185, 45)" stroke-width="1.7117582226804888" x1="290" x2="533" y1="479" y2="305" /><line stroke="rgb(211, 125, 192)" stroke-width="2.3120494500437023" x1="538" x2="534" y1="648" y2="195" /><line stroke="rgb(144, 178, 215)" stroke-width="2.6438796075657693" x1="316" x2="564" y1="129" y2="161" /><line stroke="rgb(103, 3, 100)" stroke-width="2.5691105741919222" x1="467" x2="344" y1="530" y2="491" /><line stroke="rgb(199, 4, 191)" stroke-width="1.6793795238102136" x1="446" x2="153" y1="55" y2="136" /><line stroke="rgb(120, 224, 25)" stroke-width="1.0918625961390092" x1="303" x2="370" y1="214" y2="523" /><polygon fill="none" points="512,497 274,100 280,504 497,28" stroke="rgb(110, 162, 228)" stroke-width="1.4850579133399633" /><rect fill="none" height="145" stroke="rgb(171, 206, 0)" stroke-width="1.5976469479710582" transform="rotate(323 88 599)" width="164" x="542" y="82" /><polygon fill="none" points="481,85 548,18 147,645" stroke="rgb(72, 145, 76)" stroke-width="2.2345688544752704" /><rect fill="none" height="24" stroke="rgb(227, 172, 23)" stroke-width="4.870327815249984" transform="rotate(133 202 582)" width="173" x="485" y="61" /><line stroke="rgb(121, 167, 206)" stroke-width="2.1858517343893293" x1="7" x2="273" y1="345" y2="369" /><line stroke="rgb(80, 202, 76)" stroke-width="0.8880659001661985" x1="177" x2="582" y1="298" y2="601" /><line stroke="rgb(119, 58, 109)" stroke-width="2.5362662683060595" x1="113" x2="358" y1="672" y2="69" /><line stroke="rgb(88, 116, 112)" stroke-width="2.719464436473015" x1="202" x2="256" y1="72" y2="212" /><line stroke="rgb(242, 56, 90)" stroke-width="2.209176561236144" x1="522" x2="87" y1="684" y2="51" /><line stroke="rgb(29, 78, 229)" stroke-width="2.327781093454033" x1="101" x2="73" y1="583" y2="676" /><line stroke="rgb(117, 124, 167)" stroke-width="1.5028106362202638" x1="305" x2="394" y1="55" y2="119" /><line stroke="rgb(115, 156, 251)" stroke-width="0.9068006468565886" x1="12" x2="142" y1="457" y2="69" /><line stroke="rgb(54, 140, 203)" stroke-width="2.127582747507767" x1="524" x2="93" y1="389" y2="318" /><polygon fill="none" points="125,548 287,421 269,36 46,446" stroke="rgb(150, 151, 150)" stroke-width="2.1459137615936177" /><polygon fill="none" points="449,127 39,346 441,576 465,508" stroke="rgb(222, 75, 115)" stroke-width="2.1755591907071086" /><rect fill="none" height="171" stroke="rgb(115, 247, 97)" stroke-width="4.913068583110918" transform="rotate(94 651 574)" width="176" x="212" y="17" /><polygon fill="none" points="18,680 499,615 230,530 38,654 484,504 444,251 95,216" stroke="rgb(5, 66, 146)" stroke-width="2.347105502742794" /><polygon fill="none" points="520,660 349,533 506,333" stroke="rgb(64, 30, 14)" stroke-width="2.6668294457510635" /><circle cx="341" cy="398" fill="none" opacity="0.6663710638044347" r="141" stroke="rgb(83, 179, 100)" stroke-width="2.7911380781984283" /><polygon fill="none" points="36,253 140,685 648,405 570,61" stroke="rgb(57, 220, 4)" stroke-width="3.9060685824728494" /></svg>