<svg baseProfile="full" height="551px" version="1.1" width="696px" xmlns="http://www.w3.org/2000/svg" xmlns:ev="http://www.w3.org/2001/xml-events" xmlns:xlink="http://www.w3.org/1999/xlink"><defs /><rect fill="rgb(220, 207, 213)" height="551px" width="696px" x="0" y="0" /><polygon fill="none" points="553,240 542,27 36,293 544,528 348,277 296,51 31,289" stroke="rgb(138, 29, 109)" stroke-width="3.18507279091019" /><circle cx="353" cy="498" fill="none" opacity="0.7121041039137934" r="58" stroke="rgb(136, 238, 134)" stroke-width="2.051753624675197" /><path d="M111,442 C550,379 584,23 384,383 L227,413 Q355,231 515,483 Q567,283 7,373" fill="none" stroke="rgb(194, 184, 119)" stroke-width="0.7093604360994674" /><line stroke="rgb(87, 234, 236)" stroke-width="0.6073513558786998" x1="245" x2="473" y1="148" y2="9" /><line stroke="rgb(190, 157, 4)" stroke-width="1.1897432864976998" x1="9" x2="308" y1="104" y2="53" /><line stroke="rgb(194, 161, 59)" stroke-width="1.0214289851592768" x1="550" x2="669" y1="549" y2="415" /><line stroke="rgb(93, 253, 106)" stroke-width="2.379200745128887" x1="61" x2="448" y1="55" y2="280" /><line stroke="rgb(122, 74, 229)" stroke-width="0.6406227306807861" x1="134" x2="33" y1="54" y2="469" /><line stroke="rgb(72, 41, 3)" stroke-width="0.6739110536022764" x1="223" x2="493" y1="471" y2="29" /><line stroke="rgb(28, 138, 31)" stroke-width="1.6491020764698991" x1="681" x2="95" y1="480" y2="275" /><line stroke="rgb(231, 7, 8)" stroke-width="2.880600187700912" x1="97" x2="149" y1="542" y2="155" /><line stroke="rgb(137, 23, 147)" stroke-width="2.781421920102495" x1="197" x2="341" y1="273" y2="9" /><line stroke="rgb(13, 203, 236)" stroke-width="1.4108697745827206" x1="568" x2="286" y1="237" y2="402" /><rect fill="none" height="67" stroke="rgb(239, 20, 34)" stroke-width="2.248447515516592" transform="rotate(109 376 240)" width="91" x="121" y="215" /><polygon fill="none" points="60,47 529,364 463,307 505,208 153,35 492,375 164,453" stroke="rgb(20, 24, 194)" stroke-width="1.2685661691209238" /><rect fill="none" height="85" stroke="rgb(121, 26, 176)" stroke-width="4.594830981595246" transform="rotate(297 70 173)" width="49" x="222" y="263" /><polygon fill="none" points="472,471 474,74 664,420 427,405 540,74" stroke="rgb(101, 252, 83)" stroke-width="0.6041455554385049" /><rect fill="none" height="183" stroke="rgb(200, 108, 65)" stroke-width="4.849669277357691" transform="rotate(360 278 248)" width="168" x="553" y="358" /><polygon fill="none" points="693,381 134,0 275,187" stroke="rgb(185, 128, 87)" stroke-width="1.9103455860974812" /><line stroke="rgb(100, 178, 108)" stroke-width="2.572376082067119" x1="559" x2="330" y1="352" y2="501" /><line stroke="rgb(175, 193, 2)" stroke-width="1.4929903254772656" x1="559" x2="197" y1="321" y2="368" /><line stroke="rgb(3, 188, 85)" stroke-width="2.714907352192876" x1="281" x2="306" y1="233" y2="227" /><line stroke="rgb(225, 105, 105)" stroke-width="1.9360919403931238" x1="538" x2="608" y1="460" y2="9" /><line stroke="rgb(159, 91, 55)" stroke-width="2.6939289862727427" x1="530" x2="260" y1="5" y2="339" /><line stroke="rgb(182, 159, 42)" stroke-width="1.9154554355338191" x1="47" x2="149" y1="94" y2="110" /><line stroke="rgb(248, 3, 12)" stroke-width="1.7976610820131238" x1="219" x2="474" y1="246" y2="58" /><line stroke="rgb(10, 108, 201)" stroke-width="1.2978743138150677" x1="116" x2="527" y1="351" y2="309" /><line stroke="rgb(71, 43, 182)" stroke-width="1.347704543083222" x1="11" x2="690" y1="247" y2="458" /><path d="M607,14 C608,497 651,130 346,6 Q225,414 135,83 L659,454 Q639,295 431,142 L358,129 C482,92 230,306 560,385" fill="none" stroke="rgb(65, 182, 11)" stroke-width="2.3050541568308676" /><polygon fill="none" points="168,121 231,302 318,297 310,245 415,137 241,379 495,376" stroke="rgb(205, 171, 31)" stroke-width="1.8971450021092156" /><path d="M385,251 C388,495 394,457 444,348 Q488,379 172,258 C137,351 397,198 175,529 C13,516 325,225 481,455 C224,400 7,381 314,254 L91,454" fill="none" stroke="rgb(155, 13, 254)" stroke-width="1.4693630199192929" /><rect fill="none" height="79" stroke="rgb(97, 98, 222)" stroke-width="4.29777315802807" transform="rotate(296 2 265)" width="82" x="420" y="425" /><line stroke="rgb(238, 83, 88)" stroke-width="1.2912980391968665" x1="74" x2="160" y1="77" y2="409" /><line stroke="rgb(210, 86, 22)" stroke-width="2.1728530404799233" x1="292" x2="253" y1="346" y2="244" /><line stroke="rgb(196, 21, 228)" stroke-width="2.8566181643834816" x1="545" x2="605" y1="318" y2="515" /><line stroke="rgb(60, 8, 130)" stroke-width="2.748707789640034" x1="376" x2="601" y1="105" y2="489" /><line stroke="rgb(232, 116, 244)" stroke-width="0.8524972294106019" x1="403" x2="553" y1="334" y2="40" /><line stroke="rgb(7, 87, 78)" stroke-width="1.2054858200098202" x1="200" x2="428" y1="205" y2="205" /><line stroke="rgb(157, 183, 139)" stroke-width="2.611750991854539" x1="465" x2="3" y1="317" y2="260" /><line stroke="rgb(112, 209, 74)" stroke-width="1.4460461550957788" x1="53" x2="529" y1="327" y2="407" /><line stroke="rgb(58, 245, 222)" stroke-width="0.6815657098653776" x1="516" x2="403" y1="63" y2="517" /><line stroke="rgb(95, 15, 242)" stroke-width="0.6688486975536065" x1="164" x2="322" y1="227" y2="323" /><polygon fill="none" points="100,277 626,546 401,506 216,234" stroke="rgb(228, 181, 196)" stroke-width="1.794972835847291" /><path d="M60,288 L480,524 L291,313 L511,506 L641,84 C63,411 491,110 647,286 C155,426 286,502 462,381 L350,506" fill="none" stroke="rgb(77, 217, 20)" stroke-width="1.7793788003561128" /></svg>