<svg baseProfile="full" height="617px" version="1.1" width="850px" xmlns="http://www.w3.org/2000/svg" xmlns:ev="http://www.w3.org/2001/xml-events" xmlns:xlink="http://www.w3.org/1999/xlink"><defs /><rect fill="rgb(233, 219, 209)" height="617px" width="850px" x="0" y="0" /><circle cx="360" cy="72" fill="none" opacity="0.8581105715571051" r="48" stroke="rgb(63, 226, 196)" stroke-width="2.243163291686987" /><path d="M796,604 Q21,515 785,487 C554,537 556,268 230,553 Q637,9 676,420" fill="none" stroke="rgb(131, 164, 231)" stroke-width="2.0606865717590384" /><polygon fill="none" points="93,448 614,84 604,446 140,195" stroke="rgb(22, 40, 245)" stroke-width="3.483092265583923" /><polygon fill="none" points="514,132 43,263 12,276" stroke="rgb(161, 156, 49)" stroke-width="1.920489950876466" /><path d="M41,115 Q258,334 609,333 Q329,212 707,399 C747,2 509,460 663,224" fill="none" stroke="rgb(105, 134, 148)" stroke-width="2.2294755404391626" /><line stroke="rgb(140, 220, 109)" stroke-width="1.495502123752781" x1="530" x2="553" y1="446" y2="81" /><line stroke="rgb(241, 220, 45)" stroke-width="1.7162802450249464" x1="149" x2="303" y1="613" y2="216" /><line stroke="rgb(89, 195, 177)" stroke-width="0.9830000163514494" x1="236" x2="543" y1="117" y2="147" /><line stroke="rgb(29, 77, 83)" stroke-width="0.679531528467882" x1="655" x2="339" y1="161" y2="489" /><line stroke="rgb(106, 168, 236)" stroke-width="1.0161821997689342" x1="725" x2="168" y1="113" y2="135" /><polygon fill="none" points="338,416 664,322 656,603 312,100 121,142 798,359" stroke="rgb(33, 161, 96)" stroke-width="1.4344667571846106" /><line stroke="rgb(177, 45, 228)" stroke-width="2.514708212732719" x1="165" x2="795" y1="312" y2="225" /><line stroke="rgb(17, 39, 212)" stroke-width="1.4480776755424754" x1="832" x2="582" y1="327" y2="51" /><line stroke="rgb(170, 217, 126)" stroke-width="1.278633468854654" x1="821" x2="318" y1="594" y2="557" /><line stroke="rgb(240, 5, 124)" stroke-width="1.4776217301913084" x1="812" x2="626" y1="187" y2="356" /><line stroke="rgb(3, 201, 51)" stroke-width="1.5255443657197603" x1="572" x2="548" y1="576" y2="598" /><line stroke="rgb(246, 41, 24)" stroke-width="2.311340850467394" x1="467" x2="527" y1="413" y2="95" /><line stroke="rgb(144, 200, 117)" stroke-width="1.624679003735821" x1="198" x2="705" y1="574" y2="239" /><polygon fill="none" points="417,448 711,186 98,117 186,381 257,436 509,533" stroke="rgb(56, 67, 170)" stroke-width="3.854772564296419" /><rect fill="none" height="62" stroke="rgb(3, 252, 53)" stroke-width="3.605818164892115" transform="rotate(229 700 177)" width="92" x="177" y="305" /><circle cx="367" cy="460" fill="none" opacity="0.7320851064871245" r="90" stroke="rgb(252, 158, 204)" stroke-width="2.1920618298570087" /><line stroke="rgb(214, 237, 122)" stroke-width="2.3096605006679183" x1="399" x2="247" y1="225" y2="224" /><line stroke="rgb(68, 3, 106)" stroke-width="1.4710082366393349" x1="93" x2="123" y1="30" y2="601" /><line stroke="rgb(125, 244, 40)" stroke-width="2.8399778903996182" x1="128" x2="845" y1="365" y2="552" /><line stroke="rgb(231, 6, 42)" stroke-width="2.0748218371079674" x1="646" x2="504" y1="475" y2="377" /><line stroke="rgb(145, 132, 197)" stroke-width="2.5296219916912515" x1="718" x2="700" y1="57" y2="126" /><line stroke="rgb(229, 49, 202)" stroke-width="1.3211234797611286" x1="500" x2="438" y1="13" y2="352" /><line stroke="rgb(197, 164, 249)" stroke-width="0.539214227132332" x1="88" x2="364" y1="484" y2="348" /><line stroke="rgb(221, 74, 96)" stroke-width="0.9483116934193652" x1="343" x2="150" y1="417" y2="503" /><polygon fill="none" points="195,32 463,226 415,452 549,520" stroke="rgb(14, 63, 221)" stroke-width="2.996776050304719" /><circle cx="95" cy="84" fill="none" opacity="0.3976765131039197" r="10" stroke="rgb(153, 80, 93)" stroke-width="1.397416134958656" /><circle cx="295" cy="318" fill="none" opacity="0.3228666209558473" r="66" stroke="rgb(166, 193, 23)" stroke-width="3.581075864755543" /><rect fill="none" height="195" stroke="rgb(244, 79, 161)" stroke-width="4.188049818229711" transform="rotate(310 570 575)" width="141" x="691" y="307" /><rect fill="none" height="172" stroke="rgb(4, 245, 128)" stroke-width="3.207433503515027" transform="rotate(104 601 522)" width="36" x="344" y="425" /><circle cx="204" cy="497" fill="none" opacity="0.7113348340867742" r="109" stroke="rgb(205, 24, 244)" stroke-width="4.80380884180304" /><rect fill="none" height="184" stroke="rgb(153, 118, 199)" stroke-width="3.4110158918232183" transform="rotate(187 18 361)" width="82" x="446" y="312" /><circle cx="403" cy="208" fill="none" opacity="0.41020303343493164" r="57" stroke="rgb(42, 115, 181)" stroke-width="4.730587355293717" /><polygon fill="none" points="265,295 77,578 315,523 365,264 476,612 1,586 454,101" stroke="rgb(255, 209, 59)" stroke-width="3.6017961427745036" /><rect fill="none" height="49" stroke="rgb(77, 47, 131)" stroke-width="4.636775620959815" transform="rotate(41 638 464)" width="164" x="365" y="215" /><line stroke="rgb(198, 167, 208)" stroke-width="2.6106026358487413" x1="468" x2="196" y1="90" y2="437" /><line stroke="rgb(173, 218, 200)" stroke-width="2.669648151301786" x1="129" x2="325" y1="11" y2="599" /><line stroke="rgb(41, 236, 163)" stroke-width="0.9367340445882908" x1="105" x2="250" y1="325" y2="377" /><circle cx="192" cy="289" fill="none" opacity="0.5010973271000179" r="18" stroke="rgb(66, 80, 250)" stroke-width="2.153041572035413" /></svg>