<svg baseProfile="full" height="563px" version="1.1" width="945px" xmlns="http://www.w3.org/2000/svg" xmlns:ev="http://www.w3.org/2001/xml-events" xmlns:xlink="http://www.w3.org/1999/xlink"><defs /><rect fill="rgb(244, 203, 203)" height="563px" width="945px" x="0" y="0" /><path d="M282,461 C397,329 167,122 69,140 C196,464 165,209 547,129 L928,178 L496,381 Q473,98 778,448 C616,541 666,124 208,219" fill="none" stroke="rgb(161, 80, 134)" stroke-width="1.7711722367204146" /><path d="M700,424 C256,540 268,485 157,224 L250,455 C144,242 776,266 175,188 C465,63 636,96 63,430" fill="none" stroke="rgb(245, 126, 85)" stroke-width="2.209663912974908" /><circle cx="540" cy="481" fill="none" opacity="0.9740973038974186" r="123" stroke="rgb(10, 221, 20)" stroke-width="1.3498791347291048" /><path d="M596,484 Q172,427 610,23 L686,90 Q224,490 122,36 L470,258 Q487,201 648,204 C578,215 736,17 88,177" fill="none" stroke="rgb(199, 35, 40)" stroke-width="1.1002002575078533" /><polygon fill="none" points="775,224 417,335 523,234 423,393 921,229 163,527 880,408 280,163" stroke="rgb(65, 75, 234)" stroke-width="2.5065466394505402" /><path d="M753,407 L528,10 Q267,260 98,247 Q422,79 861,279 L300,339 L798,91" fill="none" stroke="rgb(46, 113, 141)" stroke-width="0.9084994279833567" /><path d="M408,282 Q212,269 746,144 Q389,339 824,230 C360,175 863,255 205,230 Q806,238 455,476" fill="none" stroke="rgb(215, 16, 178)" stroke-width="2.892417659046133" /><path d="M160,12 L299,284 L763,38 C283,333 856,75 915,507 L865,498" fill="none" stroke="rgb(53, 141, 220)" stroke-width="1.8926779783808154" /><polygon fill="none" points="375,383 76,325 190,432 712,219 392,301" stroke="rgb(11, 151, 50)" stroke-width="0.8322435705430205" /><rect fill="none" height="165" stroke="rgb(67, 104, 82)" stroke-width="4.5066089071708895" transform="rotate(289 517 362)" width="156" x="779" y="276" /><rect fill="none" height="92" stroke="rgb(210, 100, 137)" stroke-width="4.387504958625173" transform="rotate(45 274 556)" width="157" x="410" y="431" /><line stroke="rgb(9, 226, 124)" stroke-width="2.5361482603655516" x1="496" x2="903" y1="177" y2="50" /><line stroke="rgb(9, 98, 55)" stroke-width="2.6851014763611443" x1="228" x2="352" y1="449" y2="361" /><line stroke="rgb(103, 183, 111)" stroke-width="1.285558395527692" x1="52" x2="665" y1="334" y2="127" /><line stroke="rgb(157, 35, 20)" stroke-width="2.035720424819677" x1="526" x2="653" y1="45" y2="412" /><line stroke="rgb(244, 150, 124)" stroke-width="1.8198831432415368" x1="499" x2="383" y1="151" y2="190" /><line stroke="rgb(67, 207, 181)" stroke-width="0.5006375818198792" x1="50" x2="360" y1="346" y2="199" /><line stroke="rgb(64, 117, 194)" stroke-width="1.726221213873473" x1="507" x2="403" y1="333" y2="445" /><line stroke="rgb(226, 29, 109)" stroke-width="1.8019538353934514" x1="605" x2="778" y1="48" y2="231" /><line stroke="rgb(189, 198, 51)" stroke-width="1.7099708161859333" x1="499" x2="364" y1="270" y2="553" /><line stroke="rgb(171, 20, 141)" stroke-width="2.0952311167230477" x1="446" x2="108" y1="336" y2="84" /><polygon fill="none" points="584,53 709,471 208,142 535,330 358,154 322,342" stroke="rgb(171, 44, 5)" stroke-width="2.2275635482244125" /><circle cx="449" cy="406" fill="none" opacity="0.5840357476884636" r="26" stroke="rgb(249, 146, 155)" stroke-width="4.93702562682198" /></svg>