<svg baseProfile="full" height="532px" version="1.1" width="897px" xmlns="http://www.w3.org/2000/svg" xmlns:ev="http://www.w3.org/2001/xml-events" xmlns:xlink="http://www.w3.org/1999/xlink"><defs /><rect fill="rgb(230, 240, 249)" height="532px" width="897px" x="0" y="0" /><circle cx="760" cy="461" fill="none" opacity="0.3275760916953389" r="63" stroke="rgb(220, 25, 225)" stroke-width="3.04467005659574" /><polygon fill="none" points="840,135 852,402 747,493 451,111 206,251" stroke="rgb(233, 202, 1)" stroke-width="0.9581744998400124" /><path d="M296,492 L225,242 L739,202 C797,512 847,483 819,59 Q865,328 153,220 L278,241" fill="none" stroke="rgb(235, 59, 244)" stroke-width="0.5311443753063392" /><polygon fill="none" points="429,317 550,37 267,305 274,167 437,508 12,272 164,517 324,408" stroke="rgb(78, 75, 109)" stroke-width="2.1011529928624655" /><path d="M531,231 Q514,357 429,228 C413,347 45,171 571,100 L286,42" fill="none" stroke="rgb(224, 143, 123)" stroke-width="1.608790152039734" /><line stroke="rgb(247, 47, 231)" stroke-width="2.7634627430877092" x1="810" x2="174" y1="217" y2="40" /><line stroke="rgb(243, 87, 24)" stroke-width="1.5158293120628101" x1="817" x2="662" y1="74" y2="436" /><line stroke="rgb(22, 153, 254)" stroke-width="2.3614939353836886" x1="204" x2="586" y1="435" y2="111" /><line stroke="rgb(102, 64, 199)" stroke-width="2.0557699055736505" x1="152" x2="248" y1="473" y2="366" /><polygon fill="none" points="468,428 653,261 488,116 15,237 851,478" stroke="rgb(231, 180, 162)" stroke-width="0.8921201873783244" /><circle cx="668" cy="258" fill="none" opacity="0.9572166637148292" r="15" stroke="rgb(151, 3, 119)" stroke-width="4.380854733604471" /><path d="M286,41 Q60,0 609,40 Q537,367 238,206 L471,154" fill="none" stroke="rgb(47, 232, 117)" stroke-width="2.5602422979531627" /><rect fill="none" height="181" stroke="rgb(13, 127, 33)" stroke-width="4.559109274300714" transform="rotate(29 7 137)" width="35" x="594" y="184" /><path d="M151,412 Q698,24 732,176 C363,490 649,447 417,529 C667,453 613,426 204,271 Q530,400 563,499 L646,394 L117,221 Q107,72 793,212" fill="none" stroke="rgb(136, 163, 255)" stroke-width="1.7630957154287172" /><polygon fill="none" points="530,321 283,220 559,375 188,377 353,82" stroke="rgb(19, 33, 232)" stroke-width="2.910879374051362" /><circle cx="167" cy="56" fill="none" opacity="0.4280249280467415" r="85" stroke="rgb(9, 227, 139)" stroke-width="2.5508375870294655" /><line stroke="rgb(34, 52, 109)" stroke-width="1.4859774716797907" x1="828" x2="126" y1="447" y2="502" /><line stroke="rgb(237, 223, 101)" stroke-width="1.6876131148099942" x1="269" x2="21" y1="499" y2="506" /><line stroke="rgb(64, 219, 37)" stroke-width="2.3755651105863196" x1="16" x2="194" y1="137" y2="82" /><line stroke="rgb(92, 219, 134)" stroke-width="2.0570718094905085" x1="451" x2="817" y1="273" y2="167" /><line stroke="rgb(79, 252, 132)" stroke-width="2.834265485140757" x1="754" x2="270" y1="508" y2="357" /><line stroke="rgb(168, 112, 221)" stroke-width="1.1762764449303815" x1="896" x2="421" y1="471" y2="379" /><line stroke="rgb(144, 33, 222)" stroke-width="2.7121804176033573" x1="571" x2="673" y1="107" y2="366" /><line stroke="rgb(87, 192, 121)" stroke-width="0.709116780080377" x1="126" x2="581" y1="200" y2="160" /><line stroke="rgb(212, 82, 40)" stroke-width="1.4668879671977035" x1="517" x2="35" y1="79" y2="31" /><line stroke="rgb(36, 73, 11)" stroke-width="0.8149946756103583" x1="471" x2="782" y1="55" y2="205" /><line stroke="rgb(232, 133, 138)" stroke-width="0.9615048494554632" x1="690" x2="841" y1="25" y2="441" /><line stroke="rgb(81, 248, 153)" stroke-width="0.9846134092843413" x1="283" x2="647" y1="321" y2="261" /><line stroke="rgb(4, 150, 31)" stroke-width="2.4296322576558342" x1="153" x2="718" y1="176" y2="67" /><line stroke="rgb(95, 111, 98)" stroke-width="1.1195952112332168" x1="288" x2="657" y1="67" y2="58" /><line stroke="rgb(79, 186, 203)" stroke-width="0.6591634119884644" x1="65" x2="689" y1="178" y2="491" /><line stroke="rgb(130, 181, 156)" stroke-width="1.6947906225907774" x1="717" x2="111" y1="105" y2="242" /><line stroke="rgb(131, 71, 151)" stroke-width="2.5327641933990583" x1="232" x2="27" y1="223" y2="160" /><path d="M5,183 L518,96 L843,380 L113,203 C158,480 686,415 819,57 C243,125 834,281 211,426" fill="none" stroke="rgb(147, 61, 206)" stroke-width="0.5810587471772378" /><circle cx="622" cy="437" fill="none" opacity="0.9067996826131199" r="104" stroke="rgb(82, 247, 16)" stroke-width="0.5625106581936099" /><line stroke="rgb(110, 168, 118)" stroke-width="0.8241194770903342" x1="455" x2="819" y1="451" y2="525" /><line stroke="rgb(123, 67, 235)" stroke-width="1.5317904651739793" x1="44" x2="504" y1="349" y2="183" /><line stroke="rgb(98, 235, 27)" stroke-width="2.3303217373146032" x1="893" x2="889" y1="14" y2="271" /><line stroke="rgb(183, 228, 14)" stroke-width="2.1288361135622864" x1="873" x2="635" y1="179" y2="32" /><polygon fill="none" points="649,198 713,253 234,116 520,330 444,525 344,9 530,234" stroke="rgb(55, 205, 164)" stroke-width="1.5968281460538436" /><line stroke="rgb(250, 196, 155)" stroke-width="0.8280651605893812" x1="873" x2="872" y1="95" y2="272" /><line stroke="rgb(2, 34, 112)" stroke-width="1.4664973321026427" x1="425" x2="797" y1="276" y2="204" /><line stroke="rgb(202, 254, 183)" stroke-width="1.3046880081883658" x1="144" x2="409" y1="355" y2="154" /><rect fill="none" height="64" stroke="rgb(227, 152, 36)" stroke-width="1.7055688731706855" transform="rotate(165 393 428)" width="164" x="149" y="92" /><polygon fill="none" points="809,151 97,36 54,69 832,493 56,160" stroke="rgb(5, 33, 111)" stroke-width="2.9268066300022504" /><path d="M612,45 C531,151 811,70 144,285 Q534,351 433,438 C311,258 860,80 121,103 L127,440 Q471,416 334,14 Q596,531 558,245 L512,443" fill="none" stroke="rgb(248, 252, 144)" stroke-width="1.1714537486053378" /><path d="M101,176 C670,433 423,200 1,335 L664,508 C517,236 23,430 250,40 L214,326 Q416,47 827,248" fill="none" stroke="rgb(72, 254, 28)" stroke-width="2.4718099772063553" /><polygon fill="none" points="638,500 461,340 638,510 256,57 172,402 4,291 45,28 641,65" stroke="rgb(239, 247, 152)" stroke-width="3.444306202781699" /><circle cx="207" cy="222" fill="none" opacity="0.9759484443923507" r="117" stroke="rgb(137, 215, 51)" stroke-width="3.0891019817211545" /><circle cx="95" cy="252" fill="none" opacity="0.8146834224982418" r="74" stroke="rgb(67, 175, 14)" stroke-width="1.512383022385453" /><path d="M427,345 C504,528 416,59 110,348 C116,469 223,127 608,236 C40,21 17,314 505,24 Q351,508 93,165" fill="none" stroke="rgb(127, 217, 250)" stroke-width="0.8090763396143326" /><rect fill="none" height="87" stroke="rgb(210, 33, 78)" stroke-width="1.6770548076069394" transform="rotate(48 528 283)" width="77" x="499" y="61" /><rect fill="none" height="196" stroke="rgb(27, 21, 125)" stroke-width="3.7933313127916954" transform="rotate(320 174 174)" width="34" x="233" y="241" /><rect fill="none" height="52" stroke="rgb(191, 50, 123)" stroke-width="3.3606185837802687" transform="rotate(175 594 423)" width="146" x="639" y="321" /><path d="M832,491 C128,316 486,416 353,341 L267,244 C600,360 433,217 174,193 L165,507 Q614,293 316,281 Q56,122 642,60 C743,172 418,177 116,396" fill="none" stroke="rgb(228, 185, 125)" stroke-width="2.3056422845751414" /><rect fill="none" height="142" stroke="rgb(11, 227, 219)" stroke-width="0.5172124441411483" transform="rotate(165 572 13)" width="87" x="458" y="29" /><line stroke="rgb(246, 7, 252)" stroke-width="0.7961391001799524" x1="450" x2="855" y1="128" y2="280" /><line stroke="rgb(129, 130, 80)" stroke-width="1.883418964010934" x1="338" x2="60" y1="178" y2="371" /><line stroke="rgb(154, 21, 233)" stroke-width="1.6963334901210756" x1="265" x2="854" y1="416" y2="516" /><line stroke="rgb(18, 189, 0)" stroke-width="2.7546220423127843" x1="513" x2="96" y1="43" y2="193" /><polygon fill="none" points="684,511 96,485 439,425 344,500 405,204" stroke="rgb(212, 254, 72)" stroke-width="3.2236801732735763" /></svg>