<svg baseProfile="full" height="689px" version="1.1" width="615px" xmlns="http://www.w3.org/2000/svg" xmlns:ev="http://www.w3.org/2001/xml-events" xmlns:xlink="http://www.w3.org/1999/xlink"><defs /><rect fill="rgb(247, 251, 244)" height="689px" width="615px" x="0" y="0" /><rect fill="none" height="51" stroke="rgb(226, 56, 39)" stroke-width="2.845028230548465" transform="rotate(360 278 271)" width="85" x="161" y="88" /><path d="M18,482 Q21,295 395,158 C248,60 122,184 50,479 Q84,608 342,563" fill="none" stroke="rgb(230, 99, 222)" stroke-width="2.0153954100189884" /><line stroke="rgb(121, 80, 206)" stroke-width="1.584795442106229" x1="34" x2="175" y1="560" y2="113" /><line stroke="rgb(118, 138, 156)" stroke-width="2.0190217236338808" x1="432" x2="532" y1="72" y2="5" /><line stroke="rgb(167, 90, 43)" stroke-width="1.8333110338668472" x1="448" x2="518" y1="333" y2="414" /><line stroke="rgb(219, 128, 226)" stroke-width="1.1892894132123994" x1="606" x2="497" y1="78" y2="101" /><line stroke="rgb(70, 189, 117)" stroke-width="1.8196293551208058" x1="462" x2="320" y1="654" y2="539" /><line stroke="rgb(213, 138, 3)" stroke-width="2.5334180041713874" x1="69" x2="184" y1="511" y2="265" /><polygon fill="none" points="493,644 277,630 329,577" stroke="rgb(115, 133, 77)" stroke-width="0.7427812025644458" /><rect fill="none" height="83" stroke="rgb(99, 172, 3)" stroke-width="4.399682254452342" transform="rotate(210 1 114)" width="199" x="182" y="179" /><line stroke="rgb(152, 203, 48)" stroke-width="2.7256933291249985" x1="519" x2="23" y1="510" y2="586" /><line stroke="rgb(90, 127, 16)" stroke-width="2.728951487499284" x1="600" x2="243" y1="433" y2="269" /><line stroke="rgb(126, 60, 222)" stroke-width="2.6962520168880797" x1="306" x2="88" y1="497" y2="26" /><rect fill="none" height="170" stroke="rgb(234, 39, 107)" stroke-width="1.2284298706149388" transform="rotate(323 562 609)" width="158" x="185" y="419" /><polygon fill="none" points="467,632 414,523 362,223 150,75 392,424 363,605 49,449 449,39" stroke="rgb(208, 59, 58)" stroke-width="1.573481417182033" /><polygon fill="none" points="14,688 299,389 80,378 514,59 543,386 582,669 160,270" stroke="rgb(144, 185, 231)" stroke-width="0.8634891574885453" /><polygon fill="none" points="215,125 265,409 403,358 241,262 591,91 85,524 533,671" stroke="rgb(59, 101, 89)" stroke-width="0.630188605839385" /><circle cx="106" cy="157" fill="none" opacity="0.61365249666624" r="90" stroke="rgb(108, 106, 162)" stroke-width="4.642731955028152" /><path d="M10,488 Q109,624 311,124 L293,308 L339,306 L286,535 C101,444 182,260 117,566" fill="none" stroke="rgb(176, 85, 15)" stroke-width="0.5050475448194784" /><rect fill="none" height="117" stroke="rgb(232, 15, 131)" stroke-width="3.2451855013350754" transform="rotate(220 10 520)" width="181" x="276" y="321" /><rect fill="none" height="190" stroke="rgb(128, 247, 166)" stroke-width="1.0866155337337502" transform="rotate(186 155 39)" width="194" x="291" y="182" /><line stroke="rgb(123, 15, 78)" stroke-width="0.7623859032667503" x1="268" x2="155" y1="436" y2="619" /><line stroke="rgb(26, 188, 15)" stroke-width="2.471015795033332" x1="318" x2="579" y1="4" y2="226" /><line stroke="rgb(25, 56, 244)" stroke-width="2.162942549471178" x1="209" x2="32" y1="399" y2="478" /><line stroke="rgb(20, 6, 40)" stroke-width="2.4567284079913128" x1="482" x2="123" y1="228" y2="496" /><line stroke="rgb(184, 187, 162)" stroke-width="1.8687981427223341" x1="614" x2="260" y1="593" y2="674" /><line stroke="rgb(191, 252, 248)" stroke-width="0.7566525492081129" x1="500" x2="12" y1="385" y2="86" /><line stroke="rgb(186, 239, 92)" stroke-width="2.4057621249122705" x1="194" x2="611" y1="138" y2="22" /><line stroke="rgb(173, 67, 255)" stroke-width="1.459514279467154" x1="44" x2="480" y1="563" y2="523" /><line stroke="rgb(154, 77, 189)" stroke-width="0.7724059168688899" x1="24" x2="447" y1="110" y2="392" /><circle cx="478" cy="75" fill="none" opacity="0.5383224273597251" r="145" stroke="rgb(69, 230, 215)" stroke-width="1.419423906843544" /><path d="M249,86 C465,289 369,171 400,349 C242,515 315,598 85,510 C480,168 349,21 433,56 C603,355 370,600 468,322 C402,579 542,615 107,319 Q263,122 581,548" fill="none" stroke="rgb(166, 34, 160)" stroke-width="0.5732266452556102" /><circle cx="228" cy="416" fill="none" opacity="0.5863366912175185" r="69" stroke="rgb(185, 191, 80)" stroke-width="4.72154485609928" /><circle cx="420" cy="179" fill="none" opacity="0.7005399030409668" r="16" stroke="rgb(44, 227, 206)" stroke-width="1.1221994150225845" /><circle cx="138" cy="314" fill="none" opacity="0.5567326166552153" r="36" stroke="rgb(207, 221, 254)" stroke-width="3.103260556288232" /><polygon fill="none" points="527,589 240,269 203,650 392,33 348,166 548,29 358,27 33,112" stroke="rgb(108, 204, 58)" stroke-width="1.36138031554355" /><circle cx="287" cy="392" fill="none" opacity="0.9363790859821663" r="46" stroke="rgb(0, 122, 58)" stroke-width="1.6328744110635989" /><circle cx="147" cy="564" fill="none" opacity="0.41479527538654887" r="26" stroke="rgb(45, 252, 209)" stroke-width="2.3063189662198895" /><circle cx="209" cy="88" fill="none" opacity="0.784793063929382" r="144" stroke="rgb(208, 202, 234)" stroke-width="2.6317203451183153" /></svg>