<svg baseProfile="full" height="756px" version="1.1" width="837px" xmlns="http://www.w3.org/2000/svg" xmlns:ev="http://www.w3.org/2001/xml-events" xmlns:xlink="http://www.w3.org/1999/xlink"><defs /><rect fill="rgb(228, 209, 247)" height="756px" width="837px" x="0" y="0" /><circle cx="779" cy="149" fill="none" opacity="0.6470742102810195" r="157" stroke="rgb(39, 223, 57)" stroke-width="4.46349204873831" /><line stroke="rgb(202, 201, 252)" stroke-width="1.4186357030120456" x1="801" x2="291" y1="228" y2="566" /><line stroke="rgb(205, 99, 228)" stroke-width="0.589725082636597" x1="621" x2="651" y1="159" y2="723" /><line stroke="rgb(236, 215, 103)" stroke-width="2.675042157276334" x1="177" x2="409" y1="390" y2="542" /><line stroke="rgb(160, 106, 34)" stroke-width="1.3422051818744078" x1="225" x2="577" y1="503" y2="114" /><line stroke="rgb(133, 68, 231)" stroke-width="1.021830519194377" x1="353" x2="160" y1="494" y2="637" /><line stroke="rgb(254, 9, 59)" stroke-width="1.769494132326744" x1="580" x2="57" y1="41" y2="318" /><line stroke="rgb(239, 179, 44)" stroke-width="2.559225197079539" x1="671" x2="741" y1="148" y2="296" /><line stroke="rgb(95, 208, 18)" stroke-width="0.8681933956166517" x1="499" x2="443" y1="375" y2="173" /><line stroke="rgb(228, 226, 114)" stroke-width="1.8552901997898894" x1="333" x2="259" y1="451" y2="9" /><line stroke="rgb(114, 120, 204)" stroke-width="2.1701205478483896" x1="681" x2="246" y1="296" y2="315" /><line stroke="rgb(219, 32, 12)" stroke-width="0.8165414067117583" x1="484" x2="592" y1="95" y2="34" /><line stroke="rgb(93, 116, 188)" stroke-width="1.3538632445752854" x1="207" x2="202" y1="114" y2="366" /><line stroke="rgb(129, 66, 106)" stroke-width="0.8122400945665935" x1="589" x2="535" y1="594" y2="608" /><path d="M294,575 C69,701 715,527 255,399 Q485,139 815,685 L91,112" fill="none" stroke="rgb(147, 181, 16)" stroke-width="2.62200063302748" /><circle cx="323" cy="483" fill="none" opacity="0.5512081355233496" r="86" stroke="rgb(129, 172, 164)" stroke-width="1.0451809924881377" /><circle cx="82" cy="109" fill="none" opacity="0.8331605829564641" r="67" stroke="rgb(238, 170, 161)" stroke-width="1.7878468714170626" /><rect fill="none" height="125" stroke="rgb(103, 225, 242)" stroke-width="3.98708213704647" transform="rotate(191 732 325)" width="129" x="78" y="367" /><rect fill="none" height="198" stroke="rgb(198, 109, 163)" stroke-width="1.7283111610586122" transform="rotate(110 651 326)" width="105" x="77" y="129" /><circle cx="469" cy="154" fill="none" opacity="0.7000917968662724" r="38" stroke="rgb(84, 7, 216)" stroke-width="1.4853210310906515" /><rect fill="none" height="112" stroke="rgb(244, 228, 78)" stroke-width="0.6620057068725247" transform="rotate(67 31 11)" width="133" x="532" y="188" /><circle cx="737" cy="491" fill="none" opacity="0.8214719001631607" r="93" stroke="rgb(227, 137, 200)" stroke-width="3.980649652539573" /><line stroke="rgb(224, 32, 12)" stroke-width="0.5505925667088902" x1="772" x2="70" y1="38" y2="534" /><line stroke="rgb(130, 59, 240)" stroke-width="1.6298466396573659" x1="504" x2="628" y1="552" y2="559" /><line stroke="rgb(7, 83, 95)" stroke-width="1.0363089515407875" x1="692" x2="420" y1="438" y2="70" /><polygon fill="none" points="807,445 334,522 681,578 139,640 21,222" stroke="rgb(197, 118, 204)" stroke-width="3.88836628299054" /><circle cx="553" cy="519" fill="none" opacity="0.9822096678345393" r="144" stroke="rgb(63, 104, 175)" stroke-width="4.011439497166165" /><path d="M253,318 Q229,434 83,430 C318,549 468,715 245,429 C164,725 153,76 20,406" fill="none" stroke="rgb(221, 67, 81)" stroke-width="2.4689606448005126" /><polygon fill="none" points="47,211 351,385 219,637 283,702 763,749 383,425" stroke="rgb(203, 252, 124)" stroke-width="1.7675090405604914" /><circle cx="690" cy="653" fill="none" opacity="0.5358192374457671" r="66" stroke="rgb(133, 215, 125)" stroke-width="1.698413140080905" /><rect fill="none" height="189" stroke="rgb(138, 219, 82)" stroke-width="3.6719641188287233" transform="rotate(278 129 387)" width="112" x="455" y="453" /><circle cx="516" cy="613" fill="none" opacity="0.5520858291208578" r="169" stroke="rgb(62, 31, 92)" stroke-width="2.293042948424918" /><polygon fill="none" points="636,520 30,175 383,470 532,669 581,450 151,358" stroke="rgb(229, 154, 86)" stroke-width="0.9165594228213263" /><line stroke="rgb(226, 172, 242)" stroke-width="1.4562444685369926" x1="471" x2="751" y1="126" y2="566" /><line stroke="rgb(113, 87, 133)" stroke-width="2.0874877691706843" x1="810" x2="500" y1="660" y2="367" /><line stroke="rgb(59, 193, 52)" stroke-width="1.9455250340830066" x1="305" x2="51" y1="145" y2="597" /><line stroke="rgb(186, 172, 179)" stroke-width="2.7622771993923023" x1="345" x2="264" y1="112" y2="291" /><line stroke="rgb(221, 172, 188)" stroke-width="2.532829455614534" x1="799" x2="48" y1="675" y2="558" /><line stroke="rgb(14, 185, 61)" stroke-width="2.458312803910804" x1="483" x2="371" y1="529" y2="498" /><line stroke="rgb(58, 214, 175)" stroke-width="1.101992699843081" x1="518" x2="706" y1="214" y2="160" /><line stroke="rgb(213, 62, 58)" stroke-width="2.185757568630329" x1="205" x2="154" y1="318" y2="442" /><line stroke="rgb(179, 16, 249)" stroke-width="1.9917214868070032" x1="643" x2="751" y1="592" y2="718" /><rect fill="none" height="187" stroke="rgb(18, 215, 210)" stroke-width="4.267835935872354" transform="rotate(133 540 79)" width="112" x="226" y="640" /><line stroke="rgb(121, 139, 78)" stroke-width="1.75206136269113" x1="199" x2="191" y1="571" y2="463" /><line stroke="rgb(75, 33, 47)" stroke-width="1.262808943656489" x1="544" x2="297" y1="325" y2="264" /><line stroke="rgb(86, 254, 83)" stroke-width="1.0987713836324056" x1="227" x2="521" y1="81" y2="248" /><line stroke="rgb(32, 134, 162)" stroke-width="2.409515125392358" x1="19" x2="675" y1="418" y2="687" /><line stroke="rgb(159, 247, 80)" stroke-width="1.1610849808497332" x1="491" x2="786" y1="86" y2="627" /><line stroke="rgb(143, 129, 19)" stroke-width="1.2758088859803791" x1="790" x2="4" y1="44" y2="15" /><line stroke="rgb(219, 104, 149)" stroke-width="1.6157467321896595" x1="411" x2="799" y1="356" y2="130" /><line stroke="rgb(113, 12, 16)" stroke-width="1.1760844088873763" x1="718" x2="741" y1="278" y2="623" /><line stroke="rgb(139, 48, 52)" stroke-width="2.8026696935667053" x1="103" x2="418" y1="741" y2="58" /><rect fill="none" height="63" stroke="rgb(135, 199, 147)" stroke-width="3.841238561519717" transform="rotate(212 245 679)" width="43" x="657" y="70" /><line stroke="rgb(177, 226, 132)" stroke-width="1.1338709690611322" x1="546" x2="811" y1="335" y2="713" /><line stroke="rgb(31, 112, 171)" stroke-width="2.695523006937705" x1="171" x2="789" y1="571" y2="570" /><line stroke="rgb(91, 190, 140)" stroke-width="0.6903633966098441" x1="812" x2="517" y1="487" y2="88" /><path d="M416,606 C40,257 581,439 160,598 C89,756 386,642 64,28 C1,202 628,619 453,615 Q403,747 306,548 L396,394 C686,302 103,11 707,133 C165,687 390,336 281,133" fill="none" stroke="rgb(229, 198, 151)" stroke-width="1.325917605350738" /><path d="M128,66 C565,105 794,65 385,109 L762,653 L391,535 Q316,478 474,326" fill="none" stroke="rgb(58, 85, 133)" stroke-width="1.7541269861735806" /><circle cx="126" cy="592" fill="none" opacity="0.826026306527071" r="177" stroke="rgb(230, 64, 241)" stroke-width="3.2426192304000576" /><circle cx="663" cy="429" fill="none" opacity="0.47265142440283686" r="41" stroke="rgb(1, 31, 241)" stroke-width="3.1797751673837698" /><rect fill="none" height="193" stroke="rgb(35, 211, 2)" stroke-width="2.463254236922446" transform="rotate(206 429 721)" width="49" x="145" y="507" /><path d="M563,2 C270,322 238,148 453,190 C101,572 410,552 380,678 Q395,136 534,326 C509,325 565,288 51,542 C353,664 773,533 685,547 L555,639 C403,352 681,714 57,553" fill="none" stroke="rgb(143, 34, 162)" stroke-width="1.4947340387420076" /><rect fill="none" height="178" stroke="rgb(199, 56, 118)" stroke-width="2.105359641151149" transform="rotate(132 642 354)" width="27" x="487" y="621" /><rect fill="none" height="57" stroke="rgb(177, 194, 253)" stroke-width="2.4190360459919393" transform="rotate(317 122 268)" width="20" x="61" y="513" /><line stroke="rgb(237, 108, 134)" stroke-width="1.7001555145927778" x1="416" x2="430" y1="162" y2="700" /><line stroke="rgb(130, 198, 109)" stroke-width="2.3929143442679273" x1="232" x2="639" y1="59" y2="675" /><line stroke="rgb(233, 31, 227)" stroke-width="0.5812148764149803" x1="585" x2="193" y1="703" y2="482" /><line stroke="rgb(202, 126, 210)" stroke-width="1.2776753832132044" x1="533" x2="45" y1="622" y2="384" /><line stroke="rgb(180, 189, 13)" stroke-width="2.3146212205228345" x1="266" x2="637" y1="539" y2="538" /><path d="M327,739 C673,14 420,541 155,481 L431,435 Q455,179 713,249 Q28,206 832,90 C354,88 678,238 671,506" fill="none" stroke="rgb(4, 221, 248)" stroke-width="2.5194827222199954" /><circle cx="738" cy="632" fill="none" opacity="0.9666630265783598" r="71" stroke="rgb(104, 106, 193)" stroke-width="4.012803638366456" /><rect fill="none" height="86" stroke="rgb(200, 74, 251)" stroke-width="2.7536031594786126" transform="rotate(0 227 40)" width="127" x="490" y="390" /><line stroke="rgb(112, 191, 154)" stroke-width="2.3885001659280753" x1="646" x2="396" y1="551" y2="506" /><line stroke="rgb(168, 4, 3)" stroke-width="2.2795179893893494" x1="287" x2="313" y1="202" y2="646" /><line stroke="rgb(163, 172, 218)" stroke-width="2.4693036467525706" x1="651" x2="830" y1="688" y2="66" /><line stroke="rgb(250, 35, 118)" stroke-width="2.3776073602876586" x1="286" x2="537" y1="145" y2="227" /><line stroke="rgb(200, 205, 192)" stroke-width="2.9379616945624485" x1="470" x2="350" y1="293" y2="617" /><line stroke="rgb(192, 7, 187)" stroke-width="0.9140390739990438" x1="663" x2="758" y1="162" y2="164" /><line stroke="rgb(56, 156, 246)" stroke-width="0.8751315174186056" x1="240" x2="707" y1="9" y2="75" /><line stroke="rgb(57, 155, 113)" stroke-width="2.906889734599312" x1="559" x2="464" y1="405" y2="63" /><line stroke="rgb(198, 72, 253)" stroke-width="2.380337972637417" x1="591" x2="607" y1="462" y2="637" /><line stroke="rgb(61, 13, 112)" stroke-width="2.054691499576422" x1="9" x2="216" y1="32" y2="250" /><line stroke="rgb(193, 6, 152)" stroke-width="0.8901914891237312" x1="96" x2="762" y1="381" y2="494" /><line stroke="rgb(141, 143, 61)" stroke-width="1.2432661447328395" x1="195" x2="105" y1="189" y2="27" /><line stroke="rgb(20, 2, 164)" stroke-width="2.553785112768029" x1="633" x2="393" y1="626" y2="225" /><line stroke="rgb(126, 181, 75)" stroke-width="1.6104631005589758" x1="463" x2="530" y1="716" y2="536" /><line stroke="rgb(113, 95, 154)" stroke-width="0.6579719120379747" x1="432" x2="81" y1="440" y2="735" /><line stroke="rgb(214, 196, 139)" stroke-width="2.0854753812725813" x1="688" x2="572" y1="106" y2="162" /><line stroke="rgb(222, 241, 2)" stroke-width="1.5090013070258137" x1="747" x2="516" y1="307" y2="254" /><line stroke="rgb(12, 101, 189)" stroke-width="1.2196746624659518" x1="7" x2="63" y1="350" y2="394" /><line stroke="rgb(95, 164, 209)" stroke-width="1.0408630533602041" x1="460" x2="296" y1="166" y2="693" /><line stroke="rgb(195, 167, 38)" stroke-width="0.5475437343200016" x1="835" x2="707" y1="423" y2="655" /><line stroke="rgb(87, 10, 68)" stroke-width="0.9192890958639459" x1="700" x2="388" y1="237" y2="336" /><line stroke="rgb(186, 180, 114)" stroke-width="2.1087966431387763" x1="198" x2="405" y1="373" y2="576" /><line stroke="rgb(241, 102, 138)" stroke-width="1.0088322197321513" x1="816" x2="163" y1="57" y2="499" /><line stroke="rgb(16, 67, 166)" stroke-width="2.9079114906024013" x1="272" x2="107" y1="478" y2="561" /><line stroke="rgb(19, 124, 219)" stroke-width="0.7631301708802813" x1="101" x2="190" y1="708" y2="734" /><polygon fill="none" points="561,78 116,5 251,264" stroke="rgb(62, 118, 96)" stroke-width="2.980137613350346" /><rect fill="none" height="31" stroke="rgb(149, 74, 2)" stroke-width="2.280269811612148" transform="rotate(259 371 686)" width="173" x="78" y="356" /><rect fill="none" height="150" stroke="rgb(13, 232, 187)" stroke-width="2.1126134942205406" transform="rotate(123 785 356)" width="136" x="527" y="644" /><polygon fill="none" points="288,646 120,474 197,536 98,671 251,306 598,529" stroke="rgb(165, 239, 140)" stroke-width="3.7884653287963777" /><polygon fill="none" points="638,608 575,128 691,52 545,316 121,38" stroke="rgb(41, 65, 131)" stroke-width="3.658239994334861" /><path d="M353,220 C334,522 581,146 735,331 L357,24 C559,254 498,459 320,164 Q695,153 287,469 C229,142 717,544 144,31 L495,680 Q224,445 496,471" fill="none" stroke="rgb(143, 188, 80)" stroke-width="1.0962471809426" /><circle cx="306" cy="604" fill="none" opacity="0.7271332259127721" r="168" stroke="rgb(82, 14, 184)" stroke-width="3.991012442150818" /><polygon fill="none" points="171,63 738,199 410,482 431,544 516,640 626,677" stroke="rgb(208, 187, 24)" stroke-width="1.1148830457365047" /></svg>