<svg baseProfile="full" height="572px" version="1.1" width="1007px" xmlns="http://www.w3.org/2000/svg" xmlns:ev="http://www.w3.org/2001/xml-events" xmlns:xlink="http://www.w3.org/1999/xlink"><defs /><rect fill="rgb(232, 246, 241)" height="572px" width="1007px" x="0" y="0" /><rect fill="none" height="182" stroke="rgb(131, 237, 74)" stroke-width="4.465827549468725" transform="rotate(129 638 570)" width="139" x="422" y="211" /><polygon fill="none" points="182,150 512,475 513,17 627,248 973,436 409,113 626,333" stroke="rgb(50, 124, 58)" stroke-width="2.0669874920404956" /><line stroke="rgb(65, 240, 14)" stroke-width="1.6009926725735355" x1="75" x2="398" y1="494" y2="153" /><line stroke="rgb(25, 122, 5)" stroke-width="2.369953916190272" x1="593" x2="450" y1="80" y2="132" /><line stroke="rgb(135, 132, 12)" stroke-width="2.159092033361369" x1="318" x2="395" y1="257" y2="404" /><line stroke="rgb(177, 145, 94)" stroke-width="1.1584260403779363" x1="536" x2="894" y1="97" y2="349" /><line stroke="rgb(125, 93, 224)" stroke-width="2.2477381969297863" x1="43" x2="679" y1="102" y2="264" /><line stroke="rgb(189, 198, 76)" stroke-width="2.276637538644035" x1="116" x2="584" y1="453" y2="225" /><line stroke="rgb(52, 222, 32)" stroke-width="2.1075345307277" x1="707" x2="153" y1="521" y2="492" /><line stroke="rgb(213, 236, 158)" stroke-width="2.236184351261806" x1="759" x2="237" y1="522" y2="88" /><line stroke="rgb(216, 63, 166)" stroke-width="1.051030464024864" x1="945" x2="834" y1="302" y2="131" /><circle cx="957" cy="444" fill="none" opacity="0.8038027588662244" r="125" stroke="rgb(52, 59, 157)" stroke-width="4.931942618252719" /><polygon fill="none" points="811,143 544,530 293,502 595,207 389,377 2,51" stroke="rgb(203, 81, 203)" stroke-width="1.4847169185002356" /><path d="M409,327 C50,307 864,78 576,29 L927,149 C117,44 162,513 762,433" fill="none" stroke="rgb(191, 116, 28)" stroke-width="0.7614773484577491" /><polygon fill="none" points="787,153 41,386 631,450 828,13 868,320 434,70" stroke="rgb(123, 162, 169)" stroke-width="2.3058257274168605" /><polygon fill="none" points="466,93 970,265 362,534 82,476" stroke="rgb(179, 210, 129)" stroke-width="3.6271156464936216" /><polygon fill="none" points="99,265 21,220 809,298 690,36 889,171" stroke="rgb(242, 203, 224)" stroke-width="1.227135703817796" /><path d="M924,377 L827,434 C787,500 109,177 217,125 L797,532" fill="none" stroke="rgb(69, 134, 112)" stroke-width="2.972608365864316" /><circle cx="753" cy="159" fill="none" opacity="0.8886391947891787" r="13" stroke="rgb(111, 205, 131)" stroke-width="3.4994265961377025" /><rect fill="none" height="42" stroke="rgb(136, 39, 128)" stroke-width="2.0899005862393283" transform="rotate(110 422 406)" width="134" x="136" y="368" /><path d="M907,268 Q945,28 815,282 Q960,288 996,184 C105,422 475,39 799,321 L170,134" fill="none" stroke="rgb(196, 61, 243)" stroke-width="2.784023839243569" /><polygon fill="none" points="159,253 815,109 822,459 791,516 629,8 949,447" stroke="rgb(134, 76, 237)" stroke-width="3.022128772992712" /><polygon fill="none" points="758,55 259,278 688,399 396,9 1004,30 35,492 827,329 136,70" stroke="rgb(210, 58, 140)" stroke-width="1.9521641298166483" /><line stroke="rgb(97, 187, 58)" stroke-width="1.153620435936508" x1="976" x2="681" y1="33" y2="239" /><line stroke="rgb(233, 216, 144)" stroke-width="1.314996666288187" x1="351" x2="416" y1="422" y2="401" /><line stroke="rgb(216, 28, 204)" stroke-width="2.8978976817552318" x1="659" x2="190" y1="453" y2="102" /><line stroke="rgb(22, 180, 4)" stroke-width="1.2849259915597555" x1="82" x2="89" y1="406" y2="306" /><rect fill="none" height="79" stroke="rgb(4, 188, 204)" stroke-width="4.063417646801177" transform="rotate(257 826 290)" width="164" x="128" y="446" /><path d="M601,354 C566,333 508,79 110,26 C52,163 595,118 847,238 Q615,32 345,220 C197,233 967,89 255,199" fill="none" stroke="rgb(76, 185, 211)" stroke-width="2.27466993471356" /><rect fill="none" height="112" stroke="rgb(233, 95, 166)" stroke-width="4.413981305971165" transform="rotate(211 553 505)" width="62" x="40" y="338" /><path d="M23,343 Q694,229 437,196 L920,523 L54,459 C538,543 897,413 2,549" fill="none" stroke="rgb(206, 111, 23)" stroke-width="0.7237987249111595" /><path d="M871,513 C325,62 304,262 871,523 C341,460 82,563 225,203 C541,339 433,104 238,210 Q953,191 505,283 Q697,226 619,203 Q489,7 35,52" fill="none" stroke="rgb(210, 200, 242)" stroke-width="1.114107990764514" /><rect fill="none" height="131" stroke="rgb(200, 239, 171)" stroke-width="3.1789812337241177" transform="rotate(105 323 471)" width="102" x="99" y="447" /><line stroke="rgb(123, 90, 216)" stroke-width="2.7678409057074154" x1="431" x2="520" y1="400" y2="387" /><line stroke="rgb(193, 73, 238)" stroke-width="2.359904554228647" x1="506" x2="550" y1="526" y2="358" /><line stroke="rgb(29, 187, 124)" stroke-width="0.8941335378620578" x1="877" x2="903" y1="288" y2="495" /><line stroke="rgb(59, 135, 22)" stroke-width="1.1777948804131153" x1="708" x2="55" y1="409" y2="416" /><line stroke="rgb(162, 65, 148)" stroke-width="1.4536542182975927" x1="713" x2="946" y1="227" y2="399" /><polygon fill="none" points="589,549 765,223 436,164 919,2 735,274 166,193 703,535 375,232" stroke="rgb(8, 189, 150)" stroke-width="2.877283180449953" /><line stroke="rgb(106, 138, 37)" stroke-width="1.6468700455453573" x1="68" x2="843" y1="220" y2="64" /><line stroke="rgb(72, 40, 209)" stroke-width="2.5745690225135456" x1="962" x2="867" y1="165" y2="7" /><line stroke="rgb(73, 35, 1)" stroke-width="0.9856922765534044" x1="586" x2="950" y1="78" y2="383" /><line stroke="rgb(245, 146, 169)" stroke-width="0.5464594503825557" x1="491" x2="297" y1="531" y2="179" /><line stroke="rgb(76, 140, 204)" stroke-width="1.2049560686116605" x1="982" x2="355" y1="271" y2="198" /><line stroke="rgb(117, 96, 113)" stroke-width="1.068357772103636" x1="90" x2="986" y1="227" y2="177" /><polygon fill="none" points="671,429 546,423 997,0 151,290 801,478 226,435" stroke="rgb(77, 9, 45)" stroke-width="1.5162412516223378" /><line stroke="rgb(66, 104, 23)" stroke-width="2.989681541397872" x1="34" x2="947" y1="448" y2="202" /><line stroke="rgb(157, 217, 107)" stroke-width="1.5364802151867092" x1="880" x2="505" y1="98" y2="392" /><line stroke="rgb(37, 186, 48)" stroke-width="0.8950785840538427" x1="577" x2="442" y1="257" y2="423" /><line stroke="rgb(126, 84, 3)" stroke-width="2.261931864494546" x1="179" x2="132" y1="10" y2="353" /><line stroke="rgb(14, 61, 81)" stroke-width="2.5514752840451695" x1="275" x2="563" y1="486" y2="366" /><line stroke="rgb(20, 147, 139)" stroke-width="2.200888739507806" x1="299" x2="78" y1="460" y2="81" /><line stroke="rgb(248, 208, 88)" stroke-width="1.0318929711220586" x1="984" x2="556" y1="102" y2="184" /><line stroke="rgb(82, 197, 116)" stroke-width="1.5951917271594" x1="333" x2="793" y1="272" y2="387" /><line stroke="rgb(99, 61, 25)" stroke-width="1.8847026956825061" x1="770" x2="167" y1="172" y2="233" /><line stroke="rgb(25, 179, 232)" stroke-width="2.932154995169977" x1="737" x2="232" y1="479" y2="141" /><line stroke="rgb(23, 129, 186)" stroke-width="2.559084064561832" x1="315" x2="548" y1="234" y2="401" /><line stroke="rgb(10, 229, 1)" stroke-width="0.6248575384257653" x1="270" x2="13" y1="1" y2="33" /><line stroke="rgb(230, 160, 123)" stroke-width="1.553356321946588" x1="915" x2="548" y1="431" y2="157" /><line stroke="rgb(154, 137, 251)" stroke-width="1.512516848882108" x1="77" x2="17" y1="269" y2="146" /><rect fill="none" height="182" stroke="rgb(192, 76, 91)" stroke-width="2.605026651863416" transform="rotate(89 222 397)" width="126" x="350" y="356" /><line stroke="rgb(39, 205, 36)" stroke-width="1.3388240013614028" x1="640" x2="702" y1="505" y2="304" /><line stroke="rgb(153, 84, 14)" stroke-width="2.402097805488194" x1="960" x2="601" y1="293" y2="191" /><line stroke="rgb(114, 71, 255)" stroke-width="1.7324647191262001" x1="798" x2="64" y1="418" y2="318" /><line stroke="rgb(129, 41, 38)" stroke-width="0.6566230833304814" x1="269" x2="262" y1="409" y2="41" /><line stroke="rgb(128, 162, 44)" stroke-width="1.1822841698580862" x1="102" x2="851" y1="209" y2="552" /><polygon fill="none" points="957,146 538,249 609,552 762,487" stroke="rgb(26, 56, 105)" stroke-width="3.7058169243788184" /><path d="M145,485 C783,510 579,184 414,11 Q718,308 518,422 Q644,308 871,212 C915,163 131,65 132,204 Q630,204 218,351" fill="none" stroke="rgb(8, 48, 130)" stroke-width="1.1273764652948064" /><rect fill="none" height="192" stroke="rgb(67, 103, 43)" stroke-width="0.8117965647767644" transform="rotate(206 879 9)" width="119" x="351" y="312" /></svg>