<svg baseProfile="full" height="779px" version="1.1" width="633px" xmlns="http://www.w3.org/2000/svg" xmlns:ev="http://www.w3.org/2001/xml-events" xmlns:xlink="http://www.w3.org/1999/xlink"><defs /><rect fill="rgb(214, 247, 252)" height="779px" width="633px" x="0" y="0" /><path d="M528,658 Q406,367 168,511 Q122,278 206,591 L617,314 Q501,326 41,335 Q430,394 51,683 C461,750 265,329 622,380 Q320,366 309,178" fill="none" stroke="rgb(41, 237, 140)" stroke-width="0.6817264373889937" /><circle cx="212" cy="313" fill="none" opacity="0.357780568980664" r="87" stroke="rgb(201, 64, 161)" stroke-width="2.9563677932221033" /><circle cx="164" cy="220" fill="none" opacity="0.9355647684498936" r="56" stroke="rgb(74, 189, 10)" stroke-width="1.4410384576858755" /><path d="M536,32 L451,615 L2,716 L395,475 L309,124" fill="none" stroke="rgb(72, 133, 163)" stroke-width="2.768988892377013" /><path d="M202,601 Q617,589 440,251 L121,624 C523,310 248,558 435,174 C150,97 209,58 505,751 L352,117" fill="none" stroke="rgb(77, 159, 130)" stroke-width="0.8725016918434907" /><line stroke="rgb(69, 39, 46)" stroke-width="1.663845757200882" x1="537" x2="542" y1="322" y2="153" /><line stroke="rgb(2, 24, 27)" stroke-width="2.6598597844840786" x1="534" x2="338" y1="16" y2="84" /><line stroke="rgb(185, 232, 228)" stroke-width="0.6307026879460338" x1="228" x2="269" y1="655" y2="650" /><line stroke="rgb(134, 203, 229)" stroke-width="1.6478547040660314" x1="14" x2="517" y1="292" y2="237" /><line stroke="rgb(248, 200, 233)" stroke-width="2.9097671686944837" x1="335" x2="554" y1="579" y2="770" /><rect fill="none" height="163" stroke="rgb(249, 64, 50)" stroke-width="0.9475190046870231" transform="rotate(209 534 376)" width="130" x="516" y="603" /><polygon fill="none" points="272,398 91,576 528,493 604,331 270,586 494,543 389,233 273,146" stroke="rgb(248, 20, 84)" stroke-width="1.06601205582936" /><circle cx="146" cy="373" fill="none" opacity="0.5907761004416481" r="115" stroke="rgb(0, 10, 241)" stroke-width="2.614758543559807" /><path d="M401,161 C245,420 92,144 312,430 L281,262 L606,506" fill="none" stroke="rgb(194, 10, 185)" stroke-width="1.4033094471826488" /><path d="M442,414 Q144,574 417,584 L311,372 Q188,462 625,625 Q254,593 229,41 Q330,509 214,705 L424,224" fill="none" stroke="rgb(22, 224, 184)" stroke-width="1.0216099345771452" /><polygon fill="none" points="215,302 241,374 565,580 349,723 197,324" stroke="rgb(127, 147, 126)" stroke-width="2.7485782212235192" /><circle cx="362" cy="403" fill="none" opacity="0.3016313562524544" r="19" stroke="rgb(77, 87, 119)" stroke-width="3.6017195948208935" /><circle cx="190" cy="91" fill="none" opacity="0.942874326658633" r="123" stroke="rgb(42, 65, 65)" stroke-width="0.6920772530228806" /><polygon fill="none" points="363,249 325,284 471,279 224,54 123,238" stroke="rgb(129, 11, 184)" stroke-width="1.106963792262414" /><circle cx="159" cy="239" fill="none" opacity="0.4271423636125507" r="80" stroke="rgb(124, 158, 205)" stroke-width="0.7752139955435075" /><path d="M334,206 L223,669 L190,699 C532,257 295,546 2,366 Q62,582 200,590 C621,478 208,438 371,41 C71,241 127,347 212,256" fill="none" stroke="rgb(233, 175, 208)" stroke-width="1.4109951426607574" /><rect fill="none" height="143" stroke="rgb(138, 23, 220)" stroke-width="2.2798129575819903" transform="rotate(132 267 371)" width="157" x="271" y="560" /><line stroke="rgb(177, 33, 36)" stroke-width="1.08207760032257" x1="315" x2="148" y1="18" y2="407" /><line stroke="rgb(36, 13, 210)" stroke-width="2.0666325101741663" x1="20" x2="273" y1="149" y2="146" /><line stroke="rgb(33, 130, 80)" stroke-width="0.5013705468420768" x1="428" x2="287" y1="453" y2="276" /><circle cx="188" cy="275" fill="none" opacity="0.5124446344935448" r="124" stroke="rgb(247, 102, 84)" stroke-width="1.5086762177557416" /><line stroke="rgb(157, 71, 79)" stroke-width="2.417541289116818" x1="617" x2="251" y1="97" y2="647" /><line stroke="rgb(89, 154, 26)" stroke-width="0.8035913708508764" x1="363" x2="442" y1="728" y2="165" /><line stroke="rgb(80, 207, 187)" stroke-width="2.372821797569473" x1="47" x2="523" y1="49" y2="514" /><line stroke="rgb(167, 165, 242)" stroke-width="1.5613312194635236" x1="337" x2="426" y1="555" y2="383" /><line stroke="rgb(82, 195, 194)" stroke-width="1.6757372108265483" x1="625" x2="8" y1="212" y2="250" /><line stroke="rgb(121, 192, 161)" stroke-width="1.0680348972614917" x1="512" x2="447" y1="538" y2="503" /><path d="M469,255 C444,545 303,389 92,726 Q195,117 596,96 L213,214 L362,497 L455,22 L198,106 L260,1" fill="none" stroke="rgb(68, 211, 35)" stroke-width="1.168932589633461" /><rect fill="none" height="173" stroke="rgb(91, 56, 178)" stroke-width="3.844221217859626" transform="rotate(339 107 610)" width="100" x="173" y="29" /><rect fill="none" height="56" stroke="rgb(110, 144, 127)" stroke-width="4.082453330839121" transform="rotate(44 342 648)" width="124" x="221" y="348" /><polygon fill="none" points="313,156 391,284 18,729 598,397 597,14 454,577 468,494" stroke="rgb(108, 111, 223)" stroke-width="3.7267859501448726" /><circle cx="180" cy="132" fill="none" opacity="0.9706198290007555" r="56" stroke="rgb(217, 143, 196)" stroke-width="1.3200681020696654" /><polygon fill="none" points="223,190 420,639 505,237 429,287 577,408 140,392 233,259 18,506" stroke="rgb(120, 248, 115)" stroke-width="3.714858789826158" /><circle cx="325" cy="371" fill="none" opacity="0.865385943952053" r="142" stroke="rgb(52, 145, 204)" stroke-width="3.8629793152542837" /><path d="M232,725 L146,629 Q65,580 62,310 Q75,677 259,530 Q21,17 567,692 L163,768 Q45,719 590,590" fill="none" stroke="rgb(215, 189, 51)" stroke-width="0.5334284470316046" /><path d="M139,508 Q472,464 571,463 L629,161 L157,174 L117,672" fill="none" stroke="rgb(117, 62, 195)" stroke-width="2.06468835023533" /><polygon fill="none" points="40,627 573,111 314,419 192,774 217,115 402,662 287,621 101,189" stroke="rgb(78, 21, 176)" stroke-width="1.3569470744707908" /><path d="M475,48 C147,718 71,295 552,674 Q230,480 573,267 Q278,1 384,191 C425,718 238,505 123,338 L162,223 C555,65 2,286 36,155" fill="none" stroke="rgb(218, 46, 134)" stroke-width="1.0662985830094631" /><path d="M575,262 Q333,669 452,238 C408,726 529,495 598,669 L454,716 C529,172 62,304 140,375" fill="none" stroke="rgb(241, 178, 108)" stroke-width="2.694278022504731" /><rect fill="none" height="102" stroke="rgb(172, 164, 93)" stroke-width="3.393217622405124" transform="rotate(21 143 358)" width="185" x="228" y="328" /><line stroke="rgb(113, 164, 55)" stroke-width="0.5582161407092616" x1="320" x2="210" y1="488" y2="48" /><line stroke="rgb(0, 84, 23)" stroke-width="2.047580579076633" x1="353" x2="395" y1="412" y2="775" /><line stroke="rgb(238, 254, 49)" stroke-width="1.6708738656574686" x1="401" x2="452" y1="604" y2="528" /><line stroke="rgb(174, 13, 81)" stroke-width="1.8464593237610032" x1="159" x2="334" y1="455" y2="556" /><line stroke="rgb(103, 61, 96)" stroke-width="2.7534354999218795" x1="336" x2="150" y1="272" y2="138" /><line stroke="rgb(74, 234, 129)" stroke-width="0.9909288366263831" x1="566" x2="530" y1="682" y2="762" /><line stroke="rgb(35, 64, 137)" stroke-width="1.4132598412564341" x1="117" x2="550" y1="466" y2="130" /><line stroke="rgb(58, 177, 242)" stroke-width="1.299430840752765" x1="412" x2="199" y1="415" y2="709" /><line stroke="rgb(248, 42, 202)" stroke-width="0.9636175590587688" x1="398" x2="347" y1="246" y2="42" /><line stroke="rgb(166, 128, 240)" stroke-width="2.0380902956473848" x1="110" x2="248" y1="615" y2="105" /><circle cx="510" cy="307" fill="none" opacity="0.49633694936898054" r="149" stroke="rgb(211, 14, 112)" stroke-width="3.937893261847128" /><polygon fill="none" points="516,47 128,317 167,237 452,386 280,17 258,662" stroke="rgb(68, 34, 85)" stroke-width="2.5646888019684244" /><rect fill="none" height="184" stroke="rgb(109, 166, 232)" stroke-width="3.790010406474772" transform="rotate(144 267 131)" width="34" x="458" y="546" /><rect fill="none" height="28" stroke="rgb(94, 212, 204)" stroke-width="2.0631199619208944" transform="rotate(55 154 442)" width="61" x="350" y="304" /><rect fill="none" height="157" stroke="rgb(11, 141, 102)" stroke-width="4.57760458156155" transform="rotate(296 231 218)" width="146" x="91" y="94" /><rect fill="none" height="87" stroke="rgb(121, 244, 88)" stroke-width="4.485711094291821" transform="rotate(278 536 126)" width="132" x="351" y="637" /><line stroke="rgb(202, 72, 148)" stroke-width="1.96423661415524" x1="126" x2="582" y1="432" y2="36" /><line stroke="rgb(44, 39, 16)" stroke-width="2.6301223196211554" x1="590" x2="498" y1="766" y2="476" /><line stroke="rgb(162, 147, 242)" stroke-width="0.5573723743449219" x1="92" x2="424" y1="608" y2="589" /><line stroke="rgb(81, 5, 238)" stroke-width="0.9760116805518642" x1="297" x2="163" y1="71" y2="403" /><line stroke="rgb(207, 75, 108)" stroke-width="1.6530924213940106" x1="187" x2="449" y1="129" y2="285" /><rect fill="none" height="65" stroke="rgb(129, 172, 153)" stroke-width="2.488837618053042" transform="rotate(177 588 117)" width="184" x="24" y="208" /><polygon fill="none" points="384,476 519,446 15,155 136,88" stroke="rgb(169, 180, 77)" stroke-width="3.490693408478912" /><line stroke="rgb(217, 72, 220)" stroke-width="1.3250196359172157" x1="223" x2="331" y1="329" y2="757" /><line stroke="rgb(85, 143, 159)" stroke-width="1.1761085342728395" x1="547" x2="477" y1="425" y2="676" /><line stroke="rgb(75, 23, 156)" stroke-width="2.0102539845347382" x1="412" x2="575" y1="67" y2="66" /><line stroke="rgb(39, 149, 24)" stroke-width="2.53946202324434" x1="559" x2="76" y1="412" y2="96" /><line stroke="rgb(36, 131, 28)" stroke-width="1.996114601326735" x1="382" x2="484" y1="486" y2="264" /><line stroke="rgb(253, 167, 166)" stroke-width="2.9224727051186603" x1="251" x2="432" y1="639" y2="305" /><path d="M496,230 L102,529 L625,255 C342,176 119,224 172,64 Q176,679 0,388 Q487,574 511,305 Q534,644 579,776" fill="none" stroke="rgb(160, 46, 5)" stroke-width="2.996634328077985" /><line stroke="rgb(201, 45, 86)" stroke-width="0.9149542197122038" x1="306" x2="562" y1="680" y2="735" /><line stroke="rgb(129, 163, 177)" stroke-width="1.785107511159215" x1="60" x2="335" y1="75" y2="721" /><line stroke="rgb(153, 10, 163)" stroke-width="2.1788957873594663" x1="106" x2="619" y1="138" y2="585" /><line stroke="rgb(185, 183, 139)" stroke-width="1.8942511035246221" x1="237" x2="401" y1="678" y2="669" /><line stroke="rgb(95, 171, 161)" stroke-width="1.3920268154406064" x1="34" x2="140" y1="77" y2="623" /></svg>