<svg baseProfile="full" height="624px" version="1.1" width="966px" xmlns="http://www.w3.org/2000/svg" xmlns:ev="http://www.w3.org/2001/xml-events" xmlns:xlink="http://www.w3.org/1999/xlink"><defs /><rect fill="rgb(241, 211, 205)" height="624px" width="966px" x="0" y="0" /><polygon fill="none" points="117,423 812,153 890,468 191,318 504,437" stroke="rgb(175, 220, 171)" stroke-width="1.7326437536447945" /><circle cx="905" cy="448" fill="none" opacity="0.6814527212216166" r="123" stroke="rgb(55, 49, 190)" stroke-width="3.2738029705999323" /><polygon fill="none" points="539,199 322,554 864,162 722,170 759,574 333,170 295,236 879,146" stroke="rgb(152, 198, 8)" stroke-width="0.9370102904988571" /><path d="M489,486 C873,366 493,217 774,536 Q282,69 387,178 C225,192 654,183 839,123" fill="none" stroke="rgb(196, 190, 32)" stroke-width="2.2524864912935785" /><circle cx="409" cy="382" fill="none" opacity="0.7197284026448175" r="103" stroke="rgb(117, 246, 187)" stroke-width="2.884412122910007" /><circle cx="393" cy="558" fill="none" opacity="0.8834205331041665" r="13" stroke="rgb(148, 171, 149)" stroke-width="3.4760465630066864" /><path d="M829,373 L176,418 L647,498 C304,480 806,515 173,211 Q709,120 885,466 Q926,363 820,252 Q103,403 476,149" fill="none" stroke="rgb(216, 190, 196)" stroke-width="2.129910303523048" /><polygon fill="none" points="411,224 706,148 291,432 805,303 259,503 81,60 44,447 503,295" stroke="rgb(41, 28, 41)" stroke-width="1.4348835404720712" /><polygon fill="none" points="888,206 465,248 41,177" stroke="rgb(101, 196, 228)" stroke-width="1.819603343931638" /><polygon fill="none" points="512,389 496,467 789,179 186,60 195,455" stroke="rgb(223, 107, 1)" stroke-width="2.272109475916707" /><polygon fill="none" points="855,434 496,58 336,564 960,201 526,461" stroke="rgb(40, 22, 10)" stroke-width="1.0693276747973868" /><line stroke="rgb(226, 29, 107)" stroke-width="0.5007292587524377" x1="215" x2="525" y1="564" y2="405" /><line stroke="rgb(45, 193, 19)" stroke-width="1.8741141391024423" x1="959" x2="898" y1="563" y2="106" /><line stroke="rgb(39, 185, 166)" stroke-width="1.1134119406990153" x1="631" x2="966" y1="347" y2="461" /><line stroke="rgb(202, 163, 118)" stroke-width="1.297792952258054" x1="99" x2="605" y1="81" y2="97" /><line stroke="rgb(29, 62, 27)" stroke-width="2.975253079191606" x1="122" x2="335" y1="452" y2="597" /><line stroke="rgb(112, 247, 239)" stroke-width="0.5145306621720811" x1="955" x2="15" y1="87" y2="458" /><line stroke="rgb(3, 28, 207)" stroke-width="1.9732190561530702" x1="536" x2="774" y1="324" y2="559" /><line stroke="rgb(158, 153, 229)" stroke-width="1.7474873958817247" x1="455" x2="860" y1="367" y2="208" /><circle cx="747" cy="62" fill="none" opacity="0.6061577819412807" r="63" stroke="rgb(62, 121, 157)" stroke-width="4.926156387809775" /><path d="M440,566 Q570,248 306,90 L80,547 Q33,133 218,298" fill="none" stroke="rgb(107, 155, 90)" stroke-width="2.212317947157095" /><circle cx="106" cy="172" fill="none" opacity="0.5482505973163453" r="77" stroke="rgb(22, 113, 241)" stroke-width="4.005045235285962" /><path d="M60,71 C211,277 106,577 831,420 Q307,92 914,18 Q310,198 92,467 Q217,407 848,531 C800,82 542,74 893,291" fill="none" stroke="rgb(84, 40, 106)" stroke-width="2.3054000117162072" /><circle cx="579" cy="526" fill="none" opacity="0.9465439744288784" r="149" stroke="rgb(55, 6, 61)" stroke-width="1.2042802999781848" /><path d="M28,221 L944,144 Q10,410 571,435 C502,476 896,478 35,514" fill="none" stroke="rgb(155, 22, 133)" stroke-width="2.3590407680338905" /><path d="M689,195 L592,324 L77,255 C107,98 646,614 835,99 Q301,55 460,450 L959,538" fill="none" stroke="rgb(125, 228, 161)" stroke-width="0.9004265255715047" /><circle cx="448" cy="381" fill="none" opacity="0.7777861273330755" r="139" stroke="rgb(40, 113, 197)" stroke-width="4.608854467672712" /><circle cx="684" cy="206" fill="none" opacity="0.3403292316884332" r="50" stroke="rgb(235, 195, 110)" stroke-width="3.1492338102002044" /><polygon fill="none" points="875,444 932,81 626,322 606,444" stroke="rgb(112, 180, 106)" stroke-width="1.0495453741236966" /><circle cx="130" cy="261" fill="none" opacity="0.6061937607246248" r="109" stroke="rgb(154, 46, 11)" stroke-width="1.1343190657013076" /><polygon fill="none" points="491,5 77,423 356,533" stroke="rgb(177, 151, 189)" stroke-width="2.0442550329697085" /><rect fill="none" height="156" stroke="rgb(210, 219, 18)" stroke-width="4.454977209259177" transform="rotate(303 640 1)" width="164" x="775" y="350" /><rect fill="none" height="94" stroke="rgb(108, 180, 164)" stroke-width="0.5763398999088736" transform="rotate(288 492 242)" width="39" x="625" y="1" /><circle cx="575" cy="98" fill="none" opacity="0.693807572592217" r="112" stroke="rgb(166, 48, 150)" stroke-width="0.7019926099185007" /><path d="M624,253 Q735,212 339,434 Q10,297 632,345 L301,351" fill="none" stroke="rgb(124, 253, 196)" stroke-width="2.102273905096882" /><line stroke="rgb(97, 38, 110)" stroke-width="2.833010553980244" x1="142" x2="433" y1="80" y2="96" /><line stroke="rgb(99, 79, 182)" stroke-width="2.0844777988180745" x1="118" x2="929" y1="222" y2="597" /><line stroke="rgb(44, 148, 193)" stroke-width="0.8127289027797159" x1="165" x2="505" y1="523" y2="279" /><line stroke="rgb(106, 54, 215)" stroke-width="1.3890244314420734" x1="197" x2="876" y1="326" y2="475" /><line stroke="rgb(25, 130, 141)" stroke-width="2.3320316419627547" x1="366" x2="582" y1="525" y2="289" /><line stroke="rgb(203, 144, 211)" stroke-width="2.1766896832102063" x1="288" x2="600" y1="612" y2="566" /><line stroke="rgb(155, 255, 22)" stroke-width="0.8094069596546467" x1="738" x2="943" y1="41" y2="221" /><line stroke="rgb(64, 33, 81)" stroke-width="1.3504806345968712" x1="808" x2="59" y1="571" y2="20" /><line stroke="rgb(126, 176, 133)" stroke-width="2.4434508455285813" x1="628" x2="213" y1="86" y2="77" /><line stroke="rgb(0, 63, 27)" stroke-width="2.881616658203749" x1="733" x2="292" y1="223" y2="348" /></svg>