<svg baseProfile="full" height="476px" version="1.1" width="728px" xmlns="http://www.w3.org/2000/svg" xmlns:ev="http://www.w3.org/2001/xml-events" xmlns:xlink="http://www.w3.org/1999/xlink"><defs /><rect fill="rgb(238, 207, 252)" height="476px" width="728px" x="0" y="0" /><circle cx="583" cy="66" fill="none" opacity="0.4634759850753528" r="113" stroke="rgb(119, 152, 75)" stroke-width="2.5598611377086873" /><path d="M283,269 C462,156 256,395 28,23 Q356,370 713,64 L562,196 C568,361 474,12 607,236 Q542,406 408,443 C221,272 600,390 138,96 C639,418 660,432 78,157" fill="none" stroke="rgb(165, 172, 91)" stroke-width="0.900000607756277" /><rect fill="none" height="143" stroke="rgb(71, 180, 92)" stroke-width="3.713439750457014" transform="rotate(300 119 327)" width="97" x="594" y="22" /><line stroke="rgb(40, 50, 222)" stroke-width="2.9762233346609124" x1="703" x2="349" y1="307" y2="396" /><line stroke="rgb(197, 193, 191)" stroke-width="1.5591623163077628" x1="65" x2="384" y1="382" y2="131" /><line stroke="rgb(75, 55, 206)" stroke-width="1.1852471141457517" x1="416" x2="55" y1="228" y2="391" /><line stroke="rgb(135, 92, 62)" stroke-width="1.269130087822686" x1="725" x2="655" y1="37" y2="109" /><line stroke="rgb(218, 156, 154)" stroke-width="1.6800364305955438" x1="463" x2="621" y1="324" y2="316" /><line stroke="rgb(114, 188, 151)" stroke-width="2.376712358065605" x1="91" x2="66" y1="470" y2="151" /><line stroke="rgb(11, 97, 72)" stroke-width="2.82566313157851" x1="655" x2="449" y1="433" y2="310" /><line stroke="rgb(241, 134, 19)" stroke-width="0.534792916367056" x1="66" x2="504" y1="305" y2="284" /><line stroke="rgb(246, 80, 132)" stroke-width="2.2693416481153315" x1="71" x2="104" y1="344" y2="73" /><line stroke="rgb(225, 223, 99)" stroke-width="2.0265735888003795" x1="441" x2="640" y1="245" y2="408" /><line stroke="rgb(40, 61, 110)" stroke-width="1.5949099164929872" x1="531" x2="248" y1="396" y2="30" /><line stroke="rgb(50, 250, 37)" stroke-width="0.6821650396599515" x1="624" x2="87" y1="75" y2="194" /><line stroke="rgb(141, 76, 10)" stroke-width="2.597282729942468" x1="302" x2="668" y1="64" y2="270" /><line stroke="rgb(176, 240, 15)" stroke-width="2.8003481102522056" x1="538" x2="198" y1="138" y2="198" /><line stroke="rgb(122, 224, 147)" stroke-width="2.980913467059854" x1="446" x2="603" y1="386" y2="209" /><line stroke="rgb(146, 189, 126)" stroke-width="2.5970531776681387" x1="230" x2="433" y1="350" y2="462" /><polygon fill="none" points="458,466 590,167 169,312 500,279 285,143 4,400 110,197 63,45" stroke="rgb(51, 154, 220)" stroke-width="2.731258414080223" /><rect fill="none" height="181" stroke="rgb(77, 204, 57)" stroke-width="3.801206867797805" transform="rotate(346 454 80)" width="87" x="276" y="193" /><rect fill="none" height="194" stroke="rgb(245, 33, 237)" stroke-width="2.2065823788207073" transform="rotate(278 28 49)" width="139" x="270" y="366" /><line stroke="rgb(190, 101, 65)" stroke-width="1.3930777936188958" x1="284" x2="458" y1="105" y2="34" /><line stroke="rgb(82, 13, 98)" stroke-width="1.0089625028801448" x1="240" x2="621" y1="262" y2="127" /><line stroke="rgb(81, 56, 205)" stroke-width="0.8381355707882516" x1="334" x2="465" y1="13" y2="54" /><line stroke="rgb(185, 243, 242)" stroke-width="0.9709109587087776" x1="309" x2="355" y1="164" y2="404" /><line stroke="rgb(5, 143, 82)" stroke-width="2.0294200550225114" x1="275" x2="293" y1="357" y2="233" /><line stroke="rgb(42, 111, 217)" stroke-width="2.2347941068540513" x1="289" x2="271" y1="446" y2="198" /><line stroke="rgb(230, 59, 251)" stroke-width="2.2157152036419046" x1="548" x2="652" y1="73" y2="209" /><line stroke="rgb(68, 186, 44)" stroke-width="2.95117932918365" x1="622" x2="586" y1="37" y2="24" /><line stroke="rgb(52, 241, 86)" stroke-width="1.2093383973626353" x1="513" x2="457" y1="269" y2="365" /><circle cx="108" cy="280" fill="none" opacity="0.6222215152332597" r="73" stroke="rgb(87, 19, 188)" stroke-width="2.4672495046798004" /><polygon fill="none" points="6,305 363,443 150,145 368,275 113,457 278,244 146,132" stroke="rgb(139, 207, 33)" stroke-width="2.1980812953126634" /><circle cx="60" cy="197" fill="none" opacity="0.6120382930660139" r="37" stroke="rgb(119, 189, 68)" stroke-width="2.576966531993926" /><polygon fill="none" points="432,205 603,444 566,2 504,373 135,442" stroke="rgb(221, 100, 26)" stroke-width="2.8240091760328156" /><rect fill="none" height="38" stroke="rgb(78, 182, 223)" stroke-width="3.5732652576611565" transform="rotate(74 719 290)" width="85" x="504" y="190" /><line stroke="rgb(72, 132, 183)" stroke-width="2.0553408733430274" x1="576" x2="53" y1="56" y2="314" /><line stroke="rgb(65, 42, 76)" stroke-width="0.9876115527708252" x1="231" x2="220" y1="61" y2="123" /><line stroke="rgb(240, 82, 24)" stroke-width="1.8937814085875782" x1="176" x2="184" y1="369" y2="460" /><line stroke="rgb(7, 246, 116)" stroke-width="2.1649304874133373" x1="725" x2="489" y1="35" y2="191" /><line stroke="rgb(108, 84, 188)" stroke-width="0.9702367884507073" x1="166" x2="368" y1="226" y2="4" /><line stroke="rgb(19, 198, 56)" stroke-width="2.0845058123854567" x1="172" x2="288" y1="431" y2="257" /><line stroke="rgb(41, 29, 43)" stroke-width="0.9617762481657456" x1="656" x2="622" y1="265" y2="206" /><rect fill="none" height="113" stroke="rgb(148, 145, 206)" stroke-width="2.0106076128754626" transform="rotate(102 405 396)" width="45" x="301" y="215" /><circle cx="226" cy="155" fill="none" opacity="0.40174310658565143" r="118" stroke="rgb(47, 125, 57)" stroke-width="1.6542530721297808" /><polygon fill="none" points="84,468 600,399 325,227 304,459 666,284" stroke="rgb(180, 137, 19)" stroke-width="2.2450025178935435" /><rect fill="none" height="85" stroke="rgb(129, 196, 216)" stroke-width="3.039003057628392" transform="rotate(159 78 149)" width="174" x="373" y="311" /><polygon fill="none" points="524,149 245,152 416,285 325,435" stroke="rgb(230, 33, 34)" stroke-width="2.6518040246296706" /></svg>