<svg baseProfile="full" height="460px" version="1.1" width="729px" xmlns="http://www.w3.org/2000/svg" xmlns:ev="http://www.w3.org/2001/xml-events" xmlns:xlink="http://www.w3.org/1999/xlink"><defs /><rect fill="rgb(242, 237, 203)" height="460px" width="729px" x="0" y="0" /><polygon fill="none" points="325,207 218,329 13,335 440,3 120,156" stroke="rgb(25, 158, 229)" stroke-width="3.148811247161906" /><line stroke="rgb(88, 144, 114)" stroke-width="1.7979654869862414" x1="527" x2="8" y1="209" y2="330" /><line stroke="rgb(252, 70, 42)" stroke-width="2.7876766852829333" x1="59" x2="505" y1="113" y2="381" /><line stroke="rgb(197, 127, 6)" stroke-width="0.9179511501604529" x1="213" x2="684" y1="34" y2="63" /><line stroke="rgb(8, 226, 236)" stroke-width="2.6654756302638583" x1="544" x2="57" y1="28" y2="294" /><line stroke="rgb(1, 204, 208)" stroke-width="1.6729426696651841" x1="454" x2="143" y1="22" y2="233" /><line stroke="rgb(117, 55, 47)" stroke-width="1.7839842193916162" x1="664" x2="526" y1="98" y2="3" /><line stroke="rgb(125, 238, 154)" stroke-width="0.7942037819824226" x1="559" x2="629" y1="244" y2="421" /><line stroke="rgb(55, 103, 44)" stroke-width="2.1357549739194495" x1="101" x2="98" y1="96" y2="44" /><line stroke="rgb(77, 204, 103)" stroke-width="0.6642178538850869" x1="572" x2="636" y1="450" y2="177" /><line stroke="rgb(68, 52, 142)" stroke-width="2.4523642283117963" x1="462" x2="471" y1="352" y2="219" /><line stroke="rgb(93, 64, 199)" stroke-width="2.290597998510165" x1="120" x2="391" y1="451" y2="3" /><line stroke="rgb(199, 65, 254)" stroke-width="2.835228200872443" x1="138" x2="205" y1="119" y2="455" /><line stroke="rgb(50, 9, 38)" stroke-width="2.7417129706013235" x1="513" x2="461" y1="110" y2="329" /><rect fill="none" height="120" stroke="rgb(196, 247, 76)" stroke-width="2.7836187785969764" transform="rotate(47 370 223)" width="193" x="13" y="253" /><line stroke="rgb(181, 196, 157)" stroke-width="2.1476055846395514" x1="522" x2="294" y1="455" y2="200" /><line stroke="rgb(0, 170, 221)" stroke-width="1.330565752404612" x1="221" x2="687" y1="298" y2="438" /><line stroke="rgb(119, 106, 12)" stroke-width="1.8289038287517698" x1="394" x2="495" y1="295" y2="284" /><line stroke="rgb(16, 45, 188)" stroke-width="2.63489424606374" x1="226" x2="161" y1="171" y2="417" /><line stroke="rgb(134, 115, 252)" stroke-width="1.366441308135586" x1="57" x2="75" y1="220" y2="399" /><line stroke="rgb(55, 169, 138)" stroke-width="2.9526552969602795" x1="68" x2="543" y1="336" y2="129" /><line stroke="rgb(176, 174, 252)" stroke-width="0.9691108308491267" x1="498" x2="163" y1="115" y2="311" /><line stroke="rgb(78, 27, 101)" stroke-width="0.9880594780994851" x1="597" x2="35" y1="419" y2="234" /><line stroke="rgb(102, 156, 100)" stroke-width="1.8654328174804848" x1="27" x2="650" y1="55" y2="297" /><line stroke="rgb(33, 198, 69)" stroke-width="2.3628266873618164" x1="648" x2="600" y1="412" y2="378" /><line stroke="rgb(111, 97, 122)" stroke-width="2.2726501861008668" x1="112" x2="43" y1="196" y2="432" /><rect fill="none" height="21" stroke="rgb(104, 58, 33)" stroke-width="4.685937397845048" transform="rotate(22 431 229)" width="195" x="348" y="249" /><rect fill="none" height="181" stroke="rgb(153, 49, 7)" stroke-width="1.205503196402748" transform="rotate(43 352 240)" width="91" x="587" y="127" /><polygon fill="none" points="685,32 587,190 366,22 520,27 447,356" stroke="rgb(8, 16, 192)" stroke-width="3.541944580488263" /><circle cx="352" cy="207" fill="none" opacity="0.3904186007828635" r="84" stroke="rgb(32, 116, 171)" stroke-width="3.034806627584561" /><rect fill="none" height="198" stroke="rgb(72, 248, 24)" stroke-width="3.706196968342137" transform="rotate(26 272 445)" width="123" x="375" y="6" /><path d="M14,188 C696,279 541,448 379,319 L353,297 Q513,160 135,339 C483,396 726,60 650,193" fill="none" stroke="rgb(117, 174, 39)" stroke-width="0.7658441772486029" /><circle cx="142" cy="178" fill="none" opacity="0.3628626676184714" r="35" stroke="rgb(184, 37, 97)" stroke-width="4.419911885679708" /><polygon fill="none" points="663,92 653,279 400,204 157,117 33,248 553,300 253,191" stroke="rgb(227, 177, 30)" stroke-width="1.5510361447923977" /><rect fill="none" height="164" stroke="rgb(123, 58, 0)" stroke-width="1.4469550033723682" transform="rotate(127 370 206)" width="61" x="484" y="187" /><line stroke="rgb(206, 1, 217)" stroke-width="2.208458212717211" x1="327" x2="406" y1="32" y2="51" /><line stroke="rgb(228, 84, 218)" stroke-width="2.186209140750762" x1="384" x2="371" y1="119" y2="18" /><line stroke="rgb(32, 161, 172)" stroke-width="0.6295423948527996" x1="302" x2="408" y1="398" y2="131" /><line stroke="rgb(169, 56, 220)" stroke-width="2.9745765200291188" x1="599" x2="686" y1="400" y2="455" /><rect fill="none" height="52" stroke="rgb(162, 140, 36)" stroke-width="2.0373348825255455" transform="rotate(193 323 54)" width="171" x="20" y="272" /></svg>