<svg baseProfile="full" height="445px" version="1.1" width="1067px" xmlns="http://www.w3.org/2000/svg" xmlns:ev="http://www.w3.org/2001/xml-events" xmlns:xlink="http://www.w3.org/1999/xlink"><defs /><rect fill="rgb(252, 246, 212)" height="445px" width="1067px" x="0" y="0" /><line stroke="rgb(80, 117, 178)" stroke-width="2.155477272684327" x1="145" x2="717" y1="114" y2="159" /><line stroke="rgb(25, 251, 17)" stroke-width="2.9422432657833464" x1="738" x2="232" y1="341" y2="104" /><line stroke="rgb(141, 88, 115)" stroke-width="2.8098998269122406" x1="420" x2="538" y1="43" y2="281" /><line stroke="rgb(155, 90, 154)" stroke-width="2.578698464043995" x1="152" x2="758" y1="238" y2="206" /><line stroke="rgb(207, 202, 192)" stroke-width="2.0281960754745816" x1="60" x2="463" y1="435" y2="101" /><line stroke="rgb(12, 87, 94)" stroke-width="1.5753042206870276" x1="295" x2="828" y1="79" y2="94" /><path d="M296,188 C713,436 255,196 150,316 C388,118 139,17 126,153 Q256,392 80,113 L620,49 L351,444" fill="none" stroke="rgb(243, 110, 82)" stroke-width="2.004701451430404" /><circle cx="177" cy="148" fill="none" opacity="0.6807076514555823" r="25" stroke="rgb(7, 238, 152)" stroke-width="1.9646576981924984" /><line stroke="rgb(129, 228, 217)" stroke-width="2.9546793431839555" x1="313" x2="922" y1="201" y2="337" /><line stroke="rgb(103, 140, 89)" stroke-width="2.87460190527871" x1="959" x2="870" y1="223" y2="201" /><line stroke="rgb(233, 4, 221)" stroke-width="2.79926249926113" x1="526" x2="615" y1="230" y2="400" /><line stroke="rgb(136, 206, 236)" stroke-width="1.8364110325442649" x1="857" x2="142" y1="162" y2="423" /><path d="M567,9 C590,136 499,141 948,69 C214,45 1051,203 19,72 L733,192" fill="none" stroke="rgb(52, 252, 208)" stroke-width="1.132798776327318" /><circle cx="439" cy="300" fill="none" opacity="0.9180289910702473" r="51" stroke="rgb(37, 178, 100)" stroke-width="0.7745386568652242" /><circle cx="847" cy="196" fill="none" opacity="0.9459684357290721" r="24" stroke="rgb(92, 169, 252)" stroke-width="3.080367943011301" /><line stroke="rgb(93, 92, 215)" stroke-width="0.6551678850599805" x1="707" x2="188" y1="106" y2="7" /><line stroke="rgb(163, 163, 10)" stroke-width="2.898201133562044" x1="387" x2="875" y1="431" y2="434" /><line stroke="rgb(139, 103, 80)" stroke-width="1.7175359899936355" x1="980" x2="927" y1="313" y2="114" /><line stroke="rgb(210, 150, 82)" stroke-width="1.047928355424576" x1="243" x2="124" y1="66" y2="128" /><line stroke="rgb(147, 172, 166)" stroke-width="1.053270201773707" x1="854" x2="49" y1="289" y2="370" /><line stroke="rgb(218, 130, 89)" stroke-width="1.9153754026759915" x1="122" x2="1002" y1="194" y2="306" /><line stroke="rgb(219, 58, 33)" stroke-width="0.615071216717725" x1="195" x2="534" y1="148" y2="76" /><line stroke="rgb(206, 23, 93)" stroke-width="2.3112290216557363" x1="114" x2="187" y1="360" y2="192" /><line stroke="rgb(32, 33, 40)" stroke-width="2.07258658446425" x1="371" x2="540" y1="83" y2="214" /><line stroke="rgb(106, 142, 49)" stroke-width="2.3843170142195604" x1="1066" x2="139" y1="177" y2="11" /><path d="M738,252 Q878,132 1053,161 L459,221 C167,95 958,400 612,140 L523,12 C591,69 463,67 156,417" fill="none" stroke="rgb(187, 102, 89)" stroke-width="1.7323199032488752" /><polygon fill="none" points="471,171 16,245 603,291 721,36" stroke="rgb(175, 203, 137)" stroke-width="2.363606117725673" /><path d="M679,227 Q1009,425 1064,326 L844,89 Q786,350 35,96 L384,324" fill="none" stroke="rgb(205, 127, 159)" stroke-width="1.1848408232627334" /><path d="M514,385 Q138,399 356,303 Q496,306 971,253 Q808,429 318,246 C518,36 908,254 292,233" fill="none" stroke="rgb(204, 160, 197)" stroke-width="1.732469382316279" /><line stroke="rgb(20, 25, 94)" stroke-width="1.1349897764785513" x1="257" x2="137" y1="380" y2="334" /><line stroke="rgb(154, 157, 109)" stroke-width="2.284397073390398" x1="450" x2="504" y1="261" y2="435" /><line stroke="rgb(222, 208, 174)" stroke-width="2.972496454813841" x1="826" x2="148" y1="341" y2="37" /><line stroke="rgb(81, 75, 110)" stroke-width="2.4348480320126384" x1="964" x2="291" y1="211" y2="106" /><rect fill="none" height="187" stroke="rgb(23, 2, 180)" stroke-width="1.021727654526076" transform="rotate(172 732 416)" width="88" x="898" y="162" /><line stroke="rgb(222, 89, 52)" stroke-width="1.5667205803159003" x1="88" x2="522" y1="153" y2="442" /><line stroke="rgb(59, 65, 64)" stroke-width="2.480648507543041" x1="736" x2="520" y1="262" y2="375" /><line stroke="rgb(214, 97, 105)" stroke-width="2.5952860266892905" x1="894" x2="306" y1="417" y2="305" /><line stroke="rgb(223, 86, 91)" stroke-width="1.9925131322146357" x1="408" x2="126" y1="201" y2="280" /><line stroke="rgb(206, 80, 24)" stroke-width="0.5371441500838426" x1="533" x2="878" y1="328" y2="329" /><line stroke="rgb(62, 175, 37)" stroke-width="2.420501903030181" x1="711" x2="894" y1="364" y2="217" /><line stroke="rgb(15, 193, 206)" stroke-width="2.8390359646412446" x1="349" x2="377" y1="305" y2="106" /><line stroke="rgb(195, 195, 227)" stroke-width="1.264677554352814" x1="208" x2="862" y1="131" y2="444" /><polygon fill="none" points="749,298 847,47 647,253 196,243" stroke="rgb(241, 191, 245)" stroke-width="2.595809401914635" /><line stroke="rgb(112, 187, 6)" stroke-width="0.9823407230849088" x1="392" x2="411" y1="229" y2="291" /><line stroke="rgb(115, 219, 239)" stroke-width="2.120493219597976" x1="282" x2="731" y1="2" y2="217" /><line stroke="rgb(206, 235, 89)" stroke-width="2.627758005465008" x1="867" x2="939" y1="78" y2="92" /><line stroke="rgb(77, 140, 29)" stroke-width="0.6512438290908275" x1="263" x2="314" y1="233" y2="96" /><line stroke="rgb(229, 117, 39)" stroke-width="2.0313140435010437" x1="165" x2="666" y1="388" y2="354" /><line stroke="rgb(173, 107, 47)" stroke-width="0.7191427570191138" x1="836" x2="96" y1="119" y2="306" /><line stroke="rgb(103, 210, 66)" stroke-width="2.562222564668602" x1="1064" x2="366" y1="276" y2="17" /><polygon fill="none" points="413,401 64,78 103,204 288,361 988,371" stroke="rgb(168, 146, 252)" stroke-width="3.850491871910159" /><circle cx="155" cy="395" fill="none" opacity="0.5253864096044307" r="66" stroke="rgb(41, 136, 115)" stroke-width="2.7898531336965737" /><line stroke="rgb(187, 206, 79)" stroke-width="0.7751481977259823" x1="808" x2="247" y1="62" y2="390" /><line stroke="rgb(208, 232, 126)" stroke-width="1.2724884350381378" x1="379" x2="862" y1="210" y2="212" /><line stroke="rgb(165, 71, 70)" stroke-width="1.1885785828375974" x1="260" x2="212" y1="278" y2="150" /><line stroke="rgb(158, 198, 66)" stroke-width="1.823314456434888" x1="253" x2="112" y1="281" y2="123" /><line stroke="rgb(25, 77, 200)" stroke-width="1.341389821713687" x1="996" x2="630" y1="94" y2="300" /><line stroke="rgb(154, 13, 149)" stroke-width="0.9894913042254123" x1="175" x2="440" y1="168" y2="46" /><line stroke="rgb(252, 180, 137)" stroke-width="2.2542029468751483" x1="880" x2="33" y1="302" y2="386" /><line stroke="rgb(70, 126, 117)" stroke-width="1.188468532480135" x1="427" x2="329" y1="290" y2="184" /><line stroke="rgb(226, 137, 23)" stroke-width="2.40940165215713" x1="91" x2="190" y1="174" y2="278" /><line stroke="rgb(134, 94, 126)" stroke-width="1.678576739767575" x1="399" x2="122" y1="213" y2="119" /><line stroke="rgb(255, 53, 202)" stroke-width="2.5388233918525973" x1="709" x2="447" y1="239" y2="262" /><line stroke="rgb(13, 30, 192)" stroke-width="1.259934661593178" x1="232" x2="228" y1="283" y2="366" /><line stroke="rgb(217, 127, 40)" stroke-width="1.3721454568710396" x1="467" x2="572" y1="300" y2="14" /><line stroke="rgb(177, 78, 42)" stroke-width="2.071243830693869" x1="991" x2="560" y1="111" y2="92" /><line stroke="rgb(146, 194, 10)" stroke-width="1.844914346262843" x1="381" x2="416" y1="255" y2="66" /><circle cx="120" cy="182" fill="none" opacity="0.9184380786739716" r="63" stroke="rgb(24, 11, 203)" stroke-width="3.611798080161356" /><path d="M168,96 Q1034,336 219,172 Q750,351 980,173 L952,393 Q223,165 939,295 Q367,359 1036,172" fill="none" stroke="rgb(27, 193, 163)" stroke-width="2.797709010950116" /><path d="M444,340 C1035,303 784,77 344,266 Q814,20 296,127 Q904,370 165,46 Q318,29 378,3 C40,433 341,205 802,313" fill="none" stroke="rgb(184, 72, 103)" stroke-width="2.1998158369147562" /><circle cx="235" cy="149" fill="none" opacity="0.7514703129649298" r="81" stroke="rgb(104, 195, 226)" stroke-width="3.8991591966520946" /><rect fill="none" height="166" stroke="rgb(52, 109, 25)" stroke-width="3.205357280019346" transform="rotate(249 860 142)" width="36" x="90" y="230" /><path d="M786,308 Q67,203 341,419 Q650,359 1015,69 C1038,141 1051,388 384,308 Q685,396 1060,269" fill="none" stroke="rgb(51, 199, 184)" stroke-width="1.4841300585708657" /><line stroke="rgb(199, 121, 104)" stroke-width="1.8491890998785077" x1="827" x2="353" y1="21" y2="307" /><line stroke="rgb(191, 247, 17)" stroke-width="0.7595280420687901" x1="179" x2="273" y1="79" y2="20" /><line stroke="rgb(235, 139, 94)" stroke-width="2.7189810895371203" x1="819" x2="194" y1="205" y2="15" /><line stroke="rgb(160, 214, 201)" stroke-width="1.1694980869831708" x1="39" x2="885" y1="72" y2="233" /><line stroke="rgb(173, 51, 134)" stroke-width="1.8609572367759084" x1="917" x2="855" y1="361" y2="271" /><line stroke="rgb(22, 206, 124)" stroke-width="1.434839625450791" x1="134" x2="890" y1="16" y2="272" /><line stroke="rgb(127, 46, 214)" stroke-width="2.0217023830516188" x1="820" x2="1059" y1="431" y2="312" /><line stroke="rgb(162, 147, 245)" stroke-width="0.5699339374071972" x1="555" x2="173" y1="186" y2="113" /><line stroke="rgb(94, 204, 31)" stroke-width="1.3397483045755225" x1="189" x2="318" y1="113" y2="290" /><line stroke="rgb(231, 1, 6)" stroke-width="1.3756167132393404" x1="596" x2="85" y1="408" y2="179" /><line stroke="rgb(157, 95, 208)" stroke-width="2.6988352625609404" x1="347" x2="648" y1="255" y2="208" /><line stroke="rgb(209, 3, 12)" stroke-width="2.916540319569262" x1="400" x2="859" y1="224" y2="129" /><line stroke="rgb(39, 123, 59)" stroke-width="2.278324099944883" x1="917" x2="357" y1="298" y2="138" /><line stroke="rgb(110, 197, 126)" stroke-width="1.9304969552760138" x1="302" x2="458" y1="348" y2="228" /><line stroke="rgb(24, 124, 161)" stroke-width="1.7133677751879781" x1="230" x2="224" y1="204" y2="135" /><line stroke="rgb(0, 88, 211)" stroke-width="1.5107174868313362" x1="787" x2="548" y1="58" y2="373" /><line stroke="rgb(171, 169, 84)" stroke-width="0.5166813084985749" x1="982" x2="567" y1="435" y2="31" /><polygon fill="none" points="882,394 277,410 709,441 96,70 719,303 385,252 756,175 908,400" stroke="rgb(68, 122, 113)" stroke-width="0.7863645872539198" /><rect fill="none" height="198" stroke="rgb(39, 89, 210)" stroke-width="1.3664581685019388" transform="rotate(9 622 133)" width="50" x="505" y="344" /><line stroke="rgb(129, 237, 210)" stroke-width="2.5095124360061396" x1="116" x2="1050" y1="70" y2="254" /><line stroke="rgb(84, 109, 88)" stroke-width="0.831419506507292" x1="468" x2="598" y1="363" y2="92" /><line stroke="rgb(210, 179, 97)" stroke-width="2.5613404544477896" x1="12" x2="150" y1="72" y2="261" /><line stroke="rgb(248, 96, 134)" stroke-width="0.9919774418465239" x1="962" x2="567" y1="177" y2="89" /><line stroke="rgb(13, 65, 169)" stroke-width="0.7850452240077348" x1="906" x2="837" y1="221" y2="273" /><rect fill="none" height="153" stroke="rgb(56, 147, 202)" stroke-width="4.920603398910814" transform="rotate(132 635 141)" width="135" x="217" y="7" /><polygon fill="none" points="510,402 1035,249 38,86 176,2" stroke="rgb(74, 175, 88)" stroke-width="2.0766188291915553" /><rect fill="none" height="34" stroke="rgb(184, 162, 30)" stroke-width="4.681558144746093" transform="rotate(1 884 40)" width="113" x="301" y="122" /><circle cx="256" cy="176" fill="none" opacity="0.3236361265543756" r="31" stroke="rgb(125, 250, 198)" stroke-width="1.5761610263350703" /><line stroke="rgb(255, 212, 188)" stroke-width="1.6253553592074095" x1="858" x2="164" y1="336" y2="185" /><line stroke="rgb(208, 174, 37)" stroke-width="0.6656501502569913" x1="898" x2="357" y1="291" y2="157" /><line stroke="rgb(227, 176, 24)" stroke-width="1.3743349990898612" x1="912" x2="387" y1="293" y2="356" /><line stroke="rgb(131, 161, 145)" stroke-width="1.5721030056369607" x1="808" x2="377" y1="20" y2="214" /><polygon fill="none" points="298,372 645,404 1002,437 1057,285 1051,381 221,39" stroke="rgb(235, 224, 161)" stroke-width="1.6871158996724294" /><rect fill="none" height="68" stroke="rgb(23, 230, 94)" stroke-width="2.7771925798452193" transform="rotate(181 900 340)" width="43" x="464" y="32" /><line stroke="rgb(151, 136, 216)" stroke-width="1.0452438604054963" x1="908" x2="714" y1="221" y2="174" /><line stroke="rgb(181, 208, 12)" stroke-width="1.0165474989487342" x1="319" x2="278" y1="274" y2="186" /><line stroke="rgb(212, 111, 187)" stroke-width="0.8455897779312256" x1="662" x2="109" y1="241" y2="39" /><line stroke="rgb(64, 70, 198)" stroke-width="0.882535790113247" x1="934" x2="534" y1="53" y2="241" /><line stroke="rgb(18, 227, 14)" stroke-width="0.6187736272778341" x1="422" x2="24" y1="29" y2="86" /><polygon fill="none" points="525,199 704,378 820,372 914,351 316,161 271,438 718,141" stroke="rgb(224, 218, 174)" stroke-width="1.6378515633409594" /><circle cx="907" cy="316" fill="none" opacity="0.6601978759485816" r="103" stroke="rgb(21, 240, 194)" stroke-width="3.4248281721178238" /><polygon fill="none" points="262,201 537,159 708,140 868,71 247,409 685,351" stroke="rgb(98, 137, 38)" stroke-width="3.343076856699492" /><line stroke="rgb(14, 86, 166)" stroke-width="1.1984894003254525" x1="932" x2="728" y1="155" y2="90" /><line stroke="rgb(242, 175, 191)" stroke-width="1.5403932968358378" x1="1046" x2="885" y1="143" y2="399" /><line stroke="rgb(66, 225, 67)" stroke-width="2.710022849057853" x1="229" x2="306" y1="393" y2="158" /><line stroke="rgb(6, 253, 15)" stroke-width="0.5441583674913812" x1="581" x2="871" y1="169" y2="210" /><line stroke="rgb(20, 200, 112)" stroke-width="2.9344851687766083" x1="282" x2="1017" y1="256" y2="211" /><line stroke="rgb(241, 69, 67)" stroke-width="1.1618839768157316" x1="378" x2="46" y1="121" y2="147" /><line stroke="rgb(59, 158, 195)" stroke-width="1.9011808687982985" x1="823" x2="156" y1="110" y2="333" /><line stroke="rgb(49, 185, 253)" stroke-width="0.9148787727686518" x1="273" x2="762" y1="159" y2="348" /><polygon fill="none" points="370,357 788,396 579,321" stroke="rgb(158, 197, 217)" stroke-width="2.3093932807025093" /></svg>