<svg baseProfile="full" height="564px" version="1.1" width="863px" xmlns="http://www.w3.org/2000/svg" xmlns:ev="http://www.w3.org/2001/xml-events" xmlns:xlink="http://www.w3.org/1999/xlink"><defs /><rect fill="rgb(225, 228, 231)" height="564px" width="863px" x="0" y="0" /><circle cx="169" cy="326" fill="none" opacity="0.9940537029435852" r="12" stroke="rgb(150, 16, 21)" stroke-width="3.5643288694639397" /><path d="M74,485 Q423,250 736,219 Q246,134 271,70 L656,525 L676,372 C863,70 556,350 269,67" fill="none" stroke="rgb(61, 224, 134)" stroke-width="2.967303896130135" /><circle cx="374" cy="478" fill="none" opacity="0.39160620699509774" r="78" stroke="rgb(182, 245, 226)" stroke-width="4.690165206475673" /><circle cx="385" cy="421" fill="none" opacity="0.7487898214503512" r="105" stroke="rgb(155, 104, 137)" stroke-width="3.7537125059254115" /><path d="M156,207 L145,155 L235,225 C768,408 315,102 280,563 Q172,311 505,45" fill="none" stroke="rgb(142, 32, 83)" stroke-width="0.6034413436835852" /><rect fill="none" height="60" stroke="rgb(145, 200, 198)" stroke-width="1.5313722214525645" transform="rotate(164 320 138)" width="45" x="199" y="90" /><circle cx="284" cy="169" fill="none" opacity="0.6363662657082509" r="77" stroke="rgb(96, 75, 154)" stroke-width="4.406670046352134" /><polygon fill="none" points="332,223 473,141 811,421 483,512 739,470 33,139" stroke="rgb(135, 24, 70)" stroke-width="3.793971844518902" /><line stroke="rgb(195, 210, 12)" stroke-width="2.7165018617657357" x1="282" x2="688" y1="274" y2="61" /><line stroke="rgb(224, 210, 73)" stroke-width="1.89600882653871" x1="802" x2="715" y1="257" y2="192" /><line stroke="rgb(150, 191, 183)" stroke-width="2.95680072956209" x1="312" x2="676" y1="540" y2="410" /><line stroke="rgb(111, 4, 143)" stroke-width="2.485480044505989" x1="751" x2="352" y1="392" y2="272" /><line stroke="rgb(226, 225, 197)" stroke-width="2.5512867100306678" x1="633" x2="1" y1="253" y2="28" /><line stroke="rgb(204, 183, 138)" stroke-width="1.7114710290153632" x1="25" x2="405" y1="542" y2="156" /><line stroke="rgb(124, 78, 126)" stroke-width="2.4687238799428552" x1="423" x2="17" y1="151" y2="429" /><line stroke="rgb(178, 72, 212)" stroke-width="1.5985573376275597" x1="24" x2="599" y1="432" y2="496" /><line stroke="rgb(103, 28, 47)" stroke-width="0.897994315527837" x1="95" x2="235" y1="6" y2="204" /><polygon fill="none" points="254,560 399,233 840,361 724,196 339,397 728,448 120,520 63,112" stroke="rgb(224, 137, 41)" stroke-width="0.5296230789700084" /><path d="M71,119 C12,15 245,196 819,528 C203,29 314,99 214,517 L37,536 Q858,2 589,8 L110,559" fill="none" stroke="rgb(177, 145, 128)" stroke-width="2.1756833248917506" /><polygon fill="none" points="394,309 708,414 450,68" stroke="rgb(131, 204, 242)" stroke-width="0.7842705678158225" /><rect fill="none" height="112" stroke="rgb(219, 45, 82)" stroke-width="2.6981267470688444" transform="rotate(148 427 464)" width="126" x="66" y="102" /><polygon fill="none" points="525,377 772,234 362,564 166,436" stroke="rgb(152, 7, 107)" stroke-width="2.2366736916062786" /><line stroke="rgb(64, 243, 61)" stroke-width="1.3348891768463138" x1="536" x2="498" y1="55" y2="371" /><line stroke="rgb(212, 73, 103)" stroke-width="2.5465842734331137" x1="131" x2="335" y1="115" y2="339" /><line stroke="rgb(123, 97, 127)" stroke-width="2.8678511030588982" x1="250" x2="828" y1="93" y2="368" /><line stroke="rgb(151, 150, 44)" stroke-width="1.3835183541505045" x1="165" x2="724" y1="240" y2="242" /><line stroke="rgb(178, 21, 9)" stroke-width="0.9828514031773223" x1="566" x2="719" y1="129" y2="195" /><line stroke="rgb(19, 217, 36)" stroke-width="1.837505228592689" x1="37" x2="473" y1="269" y2="487" /><line stroke="rgb(247, 66, 229)" stroke-width="0.9514209136765759" x1="88" x2="185" y1="156" y2="278" /><polygon fill="none" points="341,293 589,58 332,342 337,81 71,119" stroke="rgb(59, 129, 16)" stroke-width="2.7671847399072083" /><rect fill="none" height="29" stroke="rgb(100, 55, 200)" stroke-width="4.529153140145778" transform="rotate(213 594 424)" width="182" x="695" y="352" /><path d="M187,454 Q787,148 576,384 Q134,164 156,79 L485,484 L471,519 C74,363 405,54 475,8 L818,71" fill="none" stroke="rgb(161, 83, 20)" stroke-width="1.1529785096346472" /><circle cx="801" cy="208" fill="none" opacity="0.9063690569385936" r="13" stroke="rgb(83, 25, 247)" stroke-width="2.328775041278328" /><polygon fill="none" points="172,86 756,310 603,71 358,252 384,155 783,5 93,274 827,454" stroke="rgb(37, 164, 206)" stroke-width="1.1802792602961096" /><circle cx="263" cy="356" fill="none" opacity="0.48757574773969614" r="106" stroke="rgb(251, 196, 184)" stroke-width="2.3690003329332234" /><path d="M769,48 Q343,114 26,199 Q7,33 272,407 C327,257 202,316 826,413 L654,174 Q76,470 154,190 Q632,482 261,119" fill="none" stroke="rgb(18, 75, 125)" stroke-width="1.6761737028315844" /><rect fill="none" height="22" stroke="rgb(71, 61, 238)" stroke-width="1.6987080968658361" transform="rotate(79 354 294)" width="20" x="52" y="108" /><rect fill="none" height="182" stroke="rgb(51, 188, 71)" stroke-width="2.876970484113697" transform="rotate(2 634 253)" width="21" x="751" y="332" /><rect fill="none" height="55" stroke="rgb(73, 198, 191)" stroke-width="1.9555974885304732" transform="rotate(241 570 361)" width="200" x="400" y="82" /><line stroke="rgb(214, 212, 4)" stroke-width="1.9270218430496608" x1="809" x2="572" y1="380" y2="96" /><line stroke="rgb(117, 129, 182)" stroke-width="0.6227208924898704" x1="156" x2="534" y1="483" y2="27" /><line stroke="rgb(52, 218, 108)" stroke-width="2.590828290963344" x1="463" x2="467" y1="35" y2="80" /><line stroke="rgb(224, 14, 142)" stroke-width="2.3225197858368754" x1="311" x2="125" y1="309" y2="385" /><line stroke="rgb(190, 202, 86)" stroke-width="1.2156206865851495" x1="563" x2="465" y1="317" y2="59" /><line stroke="rgb(24, 186, 249)" stroke-width="1.2079396012908588" x1="349" x2="571" y1="539" y2="17" /><line stroke="rgb(17, 161, 57)" stroke-width="1.5619913740715194" x1="42" x2="84" y1="152" y2="425" /><line stroke="rgb(76, 158, 96)" stroke-width="1.0683832641019197" x1="101" x2="788" y1="255" y2="55" /><line stroke="rgb(72, 82, 53)" stroke-width="2.0699850872595755" x1="726" x2="548" y1="48" y2="446" /><rect fill="none" height="32" stroke="rgb(72, 179, 230)" stroke-width="4.390714689402529" transform="rotate(135 355 297)" width="93" x="605" y="198" /><rect fill="none" height="159" stroke="rgb(59, 197, 9)" stroke-width="2.726799553946814" transform="rotate(193 369 488)" width="182" x="154" y="280" /><path d="M645,510 Q529,326 16,44 L818,184 Q856,21 594,98 Q581,293 770,126" fill="none" stroke="rgb(213, 76, 148)" stroke-width="2.2969407363856384" /><path d="M490,516 C382,106 209,321 156,198 L658,128 C261,491 293,394 507,501 L248,396" fill="none" stroke="rgb(248, 4, 19)" stroke-width="2.864732637820696" /><line stroke="rgb(237, 126, 127)" stroke-width="1.6986305678170281" x1="710" x2="196" y1="451" y2="481" /><line stroke="rgb(224, 144, 40)" stroke-width="2.5200037220344242" x1="788" x2="639" y1="128" y2="523" /><line stroke="rgb(148, 101, 110)" stroke-width="1.4127039622766224" x1="87" x2="204" y1="278" y2="267" /><line stroke="rgb(54, 85, 128)" stroke-width="1.4720761906025346" x1="350" x2="597" y1="446" y2="380" /><line stroke="rgb(113, 55, 138)" stroke-width="1.64752932874297" x1="328" x2="855" y1="91" y2="477" /><line stroke="rgb(124, 90, 219)" stroke-width="0.723571560026782" x1="613" x2="152" y1="59" y2="237" /><line stroke="rgb(86, 105, 226)" stroke-width="2.3825228250537593" x1="354" x2="101" y1="9" y2="47" /><line stroke="rgb(59, 114, 199)" stroke-width="1.172855823678332" x1="312" x2="433" y1="453" y2="152" /><line stroke="rgb(119, 135, 168)" stroke-width="1.2788631017085414" x1="234" x2="714" y1="530" y2="183" /><line stroke="rgb(153, 35, 39)" stroke-width="0.5967641348979159" x1="524" x2="118" y1="331" y2="301" /><line stroke="rgb(183, 156, 142)" stroke-width="1.2409554700513399" x1="760" x2="331" y1="104" y2="57" /><path d="M24,26 L207,446 C411,316 856,512 214,195 L176,420" fill="none" stroke="rgb(231, 159, 79)" stroke-width="1.5810832369728132" /><line stroke="rgb(23, 194, 182)" stroke-width="0.7869968447511112" x1="234" x2="640" y1="7" y2="548" /><line stroke="rgb(187, 234, 219)" stroke-width="0.5663803875135052" x1="11" x2="201" y1="314" y2="562" /><line stroke="rgb(235, 221, 243)" stroke-width="2.3672074094928313" x1="440" x2="817" y1="307" y2="189" /><line stroke="rgb(121, 65, 20)" stroke-width="2.3944181853256277" x1="78" x2="521" y1="116" y2="7" /><line stroke="rgb(171, 206, 240)" stroke-width="2.5065602456831866" x1="272" x2="571" y1="544" y2="467" /></svg>