<svg baseProfile="full" height="764px" version="1.1" width="707px" xmlns="http://www.w3.org/2000/svg" xmlns:ev="http://www.w3.org/2001/xml-events" xmlns:xlink="http://www.w3.org/1999/xlink"><defs /><rect fill="rgb(251, 238, 240)" height="764px" width="707px" x="0" y="0" /><line stroke="rgb(99, 89, 169)" stroke-width="0.5271502224797782" x1="296" x2="416" y1="140" y2="337" /><line stroke="rgb(66, 6, 180)" stroke-width="1.9720875750643037" x1="13" x2="676" y1="430" y2="146" /><line stroke="rgb(125, 120, 112)" stroke-width="1.9609956781911118" x1="704" x2="308" y1="746" y2="55" /><line stroke="rgb(35, 219, 52)" stroke-width="2.5403514305524935" x1="16" x2="209" y1="756" y2="408" /><line stroke="rgb(96, 20, 61)" stroke-width="2.184485751992191" x1="346" x2="93" y1="526" y2="148" /><line stroke="rgb(199, 61, 35)" stroke-width="1.4769797060513283" x1="694" x2="591" y1="228" y2="556" /><line stroke="rgb(26, 30, 68)" stroke-width="2.4409647454278494" x1="660" x2="253" y1="539" y2="420" /><line stroke="rgb(158, 176, 48)" stroke-width="2.592428414855996" x1="632" x2="291" y1="469" y2="623" /><line stroke="rgb(42, 119, 95)" stroke-width="1.6816843260312915" x1="654" x2="282" y1="188" y2="195" /><line stroke="rgb(62, 155, 111)" stroke-width="2.186827873825624" x1="428" x2="290" y1="64" y2="337" /><path d="M278,424 C85,202 472,185 28,214 C174,481 151,677 413,78 L430,92 Q649,91 401,355" fill="none" stroke="rgb(134, 13, 48)" stroke-width="1.2902135417662073" /><circle cx="548" cy="588" fill="none" opacity="0.7710204294795537" r="48" stroke="rgb(226, 225, 37)" stroke-width="3.479849790366977" /><rect fill="none" height="50" stroke="rgb(104, 212, 82)" stroke-width="3.129013296927906" transform="rotate(239 151 65)" width="107" x="299" y="309" /><polygon fill="none" points="669,309 624,75 333,115 107,628 385,183 157,95 0,379 337,419" stroke="rgb(202, 71, 136)" stroke-width="2.199014615173267" /><rect fill="none" height="33" stroke="rgb(26, 122, 105)" stroke-width="2.868848497612748" transform="rotate(229 77 127)" width="146" x="198" y="117" /><line stroke="rgb(60, 248, 36)" stroke-width="1.2086906596528326" x1="642" x2="42" y1="425" y2="3" /><line stroke="rgb(209, 232, 211)" stroke-width="2.432164847765989" x1="303" x2="34" y1="23" y2="336" /><line stroke="rgb(4, 72, 180)" stroke-width="0.830610797028425" x1="235" x2="253" y1="656" y2="673" /><line stroke="rgb(207, 19, 199)" stroke-width="0.8753890948527994" x1="28" x2="414" y1="162" y2="176" /><line stroke="rgb(239, 15, 5)" stroke-width="1.7313107656765037" x1="64" x2="241" y1="61" y2="737" /><line stroke="rgb(134, 204, 251)" stroke-width="2.079027891156626" x1="387" x2="675" y1="627" y2="204" /><line stroke="rgb(34, 135, 220)" stroke-width="2.3919756405445955" x1="76" x2="353" y1="313" y2="384" /><line stroke="rgb(4, 45, 165)" stroke-width="2.6224693903037415" x1="581" x2="685" y1="26" y2="180" /><line stroke="rgb(135, 247, 12)" stroke-width="2.9412378602035094" x1="27" x2="655" y1="532" y2="478" /><line stroke="rgb(216, 145, 37)" stroke-width="1.0221728182368766" x1="275" x2="203" y1="329" y2="709" /><path d="M63,703 Q434,540 364,427 Q490,157 496,403 L592,260 C307,332 83,11 430,715 L333,210" fill="none" stroke="rgb(211, 138, 140)" stroke-width="2.9550699663832223" /><circle cx="230" cy="389" fill="none" opacity="0.9836864655759738" r="71" stroke="rgb(192, 100, 144)" stroke-width="3.1741310064971184" /><path d="M457,605 Q409,561 115,526 L88,322 Q369,220 196,294 L368,154" fill="none" stroke="rgb(65, 224, 220)" stroke-width="2.4648775666279734" /><circle cx="81" cy="463" fill="none" opacity="0.7716937805972863" r="74" stroke="rgb(241, 193, 254)" stroke-width="2.520112184536402" /><line stroke="rgb(185, 42, 72)" stroke-width="1.354397550192465" x1="229" x2="168" y1="127" y2="764" /><line stroke="rgb(248, 248, 99)" stroke-width="1.028496593582215" x1="311" x2="192" y1="655" y2="260" /><line stroke="rgb(193, 254, 228)" stroke-width="2.116004732611285" x1="659" x2="329" y1="140" y2="330" /><line stroke="rgb(196, 140, 83)" stroke-width="2.8301092305669404" x1="491" x2="366" y1="511" y2="645" /><line stroke="rgb(194, 86, 161)" stroke-width="1.9985954010997806" x1="312" x2="90" y1="761" y2="67" /><rect fill="none" height="141" stroke="rgb(46, 202, 232)" stroke-width="4.477070149238536" transform="rotate(244 165 74)" width="141" x="587" y="400" /><path d="M342,714 C395,439 571,558 160,550 Q164,724 263,108 C535,469 353,606 655,61 C335,672 310,331 482,737 C84,145 473,724 430,682 C580,31 123,241 237,142" fill="none" stroke="rgb(142, 4, 150)" stroke-width="2.5855059308570074" /><polygon fill="none" points="333,581 671,566 94,428 226,355 680,215" stroke="rgb(28, 237, 98)" stroke-width="0.5785022843247332" /><rect fill="none" height="66" stroke="rgb(46, 154, 192)" stroke-width="3.234440932247579" transform="rotate(116 622 350)" width="166" x="576" y="461" /><path d="M125,96 C391,641 62,619 694,272 C590,311 585,58 436,510 L332,310" fill="none" stroke="rgb(18, 232, 110)" stroke-width="1.626728697762141" /><rect fill="none" height="118" stroke="rgb(9, 17, 5)" stroke-width="3.8186923829176336" transform="rotate(62 322 167)" width="22" x="235" y="95" /><path d="M50,396 Q570,600 94,89 Q429,85 467,608 Q645,721 610,580 L122,428 C521,425 93,670 659,746" fill="none" stroke="rgb(108, 19, 208)" stroke-width="2.915159467162931" /><line stroke="rgb(124, 4, 86)" stroke-width="2.800436165248997" x1="691" x2="219" y1="615" y2="667" /><line stroke="rgb(214, 137, 221)" stroke-width="1.1088988263882975" x1="196" x2="558" y1="226" y2="653" /><line stroke="rgb(91, 172, 51)" stroke-width="0.7129277429793358" x1="115" x2="88" y1="661" y2="267" /><line stroke="rgb(141, 112, 200)" stroke-width="0.5816183934928181" x1="593" x2="320" y1="89" y2="602" /><line stroke="rgb(250, 113, 75)" stroke-width="2.2662337839803235" x1="659" x2="618" y1="556" y2="222" /><line stroke="rgb(219, 241, 140)" stroke-width="0.6464669202385602" x1="18" x2="460" y1="53" y2="96" /><line stroke="rgb(234, 238, 246)" stroke-width="2.2392608059021564" x1="569" x2="543" y1="239" y2="268" /><rect fill="none" height="88" stroke="rgb(240, 232, 152)" stroke-width="1.5214278588346104" transform="rotate(259 535 423)" width="149" x="579" y="623" /><path d="M7,228 Q228,273 562,278 Q700,38 492,451 L336,328" fill="none" stroke="rgb(215, 249, 24)" stroke-width="0.6430614066342775" /><line stroke="rgb(83, 201, 176)" stroke-width="1.9396239003728502" x1="705" x2="12" y1="329" y2="442" /><line stroke="rgb(92, 127, 70)" stroke-width="1.3365239282423145" x1="495" x2="11" y1="305" y2="88" /><line stroke="rgb(202, 235, 20)" stroke-width="1.6589574275348595" x1="18" x2="407" y1="193" y2="59" /><line stroke="rgb(161, 42, 121)" stroke-width="1.2408618833932403" x1="484" x2="444" y1="281" y2="440" /><line stroke="rgb(161, 251, 187)" stroke-width="0.663325883873964" x1="701" x2="585" y1="95" y2="144" /><line stroke="rgb(42, 27, 178)" stroke-width="1.4301425251209718" x1="186" x2="288" y1="115" y2="69" /><line stroke="rgb(78, 242, 8)" stroke-width="2.1804287648156566" x1="1" x2="54" y1="127" y2="469" /><line stroke="rgb(88, 102, 156)" stroke-width="0.7997328295650417" x1="215" x2="82" y1="229" y2="212" /><circle cx="513" cy="579" fill="none" opacity="0.39216297341620027" r="137" stroke="rgb(40, 159, 252)" stroke-width="3.2119475612190764" /><rect fill="none" height="100" stroke="rgb(66, 86, 130)" stroke-width="0.7752153926896428" transform="rotate(141 242 683)" width="84" x="181" y="239" /><rect fill="none" height="53" stroke="rgb(48, 52, 164)" stroke-width="0.6250360037796536" transform="rotate(94 375 410)" width="125" x="14" y="275" /><line stroke="rgb(232, 106, 69)" stroke-width="2.768346659340909" x1="568" x2="493" y1="733" y2="560" /><line stroke="rgb(98, 42, 199)" stroke-width="1.3876289291068296" x1="266" x2="145" y1="48" y2="372" /><line stroke="rgb(40, 1, 63)" stroke-width="1.0548062244062855" x1="544" x2="627" y1="514" y2="127" /><line stroke="rgb(152, 222, 7)" stroke-width="1.645634779048879" x1="306" x2="55" y1="480" y2="644" /><line stroke="rgb(22, 185, 210)" stroke-width="1.8478741190994894" x1="162" x2="492" y1="102" y2="45" /><line stroke="rgb(214, 157, 63)" stroke-width="0.5087284267407417" x1="482" x2="37" y1="438" y2="595" /><line stroke="rgb(203, 254, 207)" stroke-width="1.4241435635123543" x1="348" x2="191" y1="92" y2="651" /><line stroke="rgb(244, 35, 235)" stroke-width="1.8215221591044077" x1="75" x2="573" y1="89" y2="207" /><line stroke="rgb(148, 180, 34)" stroke-width="0.5247420460317543" x1="357" x2="517" y1="393" y2="182" /><polygon fill="none" points="264,179 145,687 291,437 446,316 276,394 594,658 696,190 286,217" stroke="rgb(209, 160, 80)" stroke-width="2.1310024032327552" /><line stroke="rgb(6, 136, 102)" stroke-width="1.4826838864309888" x1="479" x2="640" y1="129" y2="608" /><line stroke="rgb(129, 185, 186)" stroke-width="1.071883834811834" x1="172" x2="522" y1="397" y2="621" /><line stroke="rgb(162, 182, 232)" stroke-width="0.593894799640945" x1="607" x2="209" y1="110" y2="212" /><line stroke="rgb(69, 74, 186)" stroke-width="2.3704257592592555" x1="622" x2="46" y1="456" y2="502" /><line stroke="rgb(254, 210, 180)" stroke-width="1.6422233646903353" x1="453" x2="94" y1="84" y2="182" /><line stroke="rgb(198, 228, 228)" stroke-width="1.1778477801786653" x1="41" x2="422" y1="334" y2="44" /><line stroke="rgb(146, 109, 41)" stroke-width="1.2380196313998142" x1="61" x2="497" y1="142" y2="342" /><line stroke="rgb(59, 103, 92)" stroke-width="2.3142211685286656" x1="159" x2="586" y1="429" y2="151" /><polygon fill="none" points="447,586 28,112 358,567" stroke="rgb(180, 44, 30)" stroke-width="1.4027543402726337" /><line stroke="rgb(91, 136, 188)" stroke-width="1.4643151727417525" x1="600" x2="604" y1="563" y2="629" /><line stroke="rgb(254, 121, 182)" stroke-width="2.4779204339294756" x1="282" x2="144" y1="106" y2="99" /><line stroke="rgb(156, 131, 219)" stroke-width="1.5975326047348926" x1="707" x2="156" y1="101" y2="690" /><line stroke="rgb(195, 117, 26)" stroke-width="1.40837393203901" x1="339" x2="599" y1="134" y2="276" /><circle cx="467" cy="382" fill="none" opacity="0.42639508421627026" r="160" stroke="rgb(184, 34, 9)" stroke-width="4.951313789057419" /><polygon fill="none" points="682,381 281,586 190,524 482,569 568,750 379,86 84,647" stroke="rgb(80, 243, 170)" stroke-width="3.8602177086265685" /><rect fill="none" height="196" stroke="rgb(77, 176, 117)" stroke-width="1.0902071213365296" transform="rotate(346 505 417)" width="90" x="3" y="434" /><line stroke="rgb(111, 161, 26)" stroke-width="1.5300574794225676" x1="210" x2="224" y1="272" y2="102" /><line stroke="rgb(218, 19, 36)" stroke-width="0.5953277896997216" x1="369" x2="332" y1="235" y2="417" /><line stroke="rgb(82, 222, 167)" stroke-width="1.838889742966447" x1="57" x2="110" y1="159" y2="276" /><line stroke="rgb(53, 49, 197)" stroke-width="2.98291630213018" x1="682" x2="609" y1="407" y2="760" /><line stroke="rgb(194, 177, 15)" stroke-width="1.963012333410782" x1="253" x2="226" y1="238" y2="324" /><line stroke="rgb(95, 2, 199)" stroke-width="2.7608582531772696" x1="321" x2="322" y1="582" y2="327" /><line stroke="rgb(3, 136, 129)" stroke-width="1.7095716295502477" x1="286" x2="223" y1="153" y2="401" /><line stroke="rgb(97, 101, 250)" stroke-width="2.96575456833496" x1="267" x2="524" y1="355" y2="125" /><path d="M274,716 C356,338 508,66 460,298 Q105,742 244,263 Q701,699 408,365 Q38,441 123,393 C578,256 526,699 191,48" fill="none" stroke="rgb(211, 107, 74)" stroke-width="1.4653150597847662" /><polygon fill="none" points="138,454 413,408 25,724 53,109" stroke="rgb(172, 167, 160)" stroke-width="1.498800161518444" /><path d="M157,515 C238,633 155,213 68,610 Q402,290 449,185 C630,79 526,548 697,665 L72,479 L444,68" fill="none" stroke="rgb(250, 43, 186)" stroke-width="1.6151519036862565" /><rect fill="none" height="88" stroke="rgb(246, 169, 239)" stroke-width="1.6240344016493258" transform="rotate(67 430 218)" width="32" x="378" y="102" /><circle cx="600" cy="178" fill="none" opacity="0.7555153104973686" r="94" stroke="rgb(136, 17, 104)" stroke-width="3.250953283446223" /><circle cx="142" cy="212" fill="none" opacity="0.41021134972756035" r="159" stroke="rgb(94, 122, 91)" stroke-width="1.8455949413542236" /><line stroke="rgb(174, 248, 37)" stroke-width="1.3312731493990362" x1="155" x2="170" y1="3" y2="732" /><line stroke="rgb(40, 86, 16)" stroke-width="1.2486279026230915" x1="394" x2="323" y1="570" y2="15" /><line stroke="rgb(233, 25, 11)" stroke-width="2.695763432758495" x1="299" x2="679" y1="178" y2="620" /><line stroke="rgb(81, 66, 153)" stroke-width="1.3035985894120559" x1="96" x2="87" y1="395" y2="411" /><line stroke="rgb(16, 235, 102)" stroke-width="2.2758199379753874" x1="581" x2="602" y1="154" y2="484" /><line stroke="rgb(123, 142, 237)" stroke-width="2.0715612392307756" x1="535" x2="357" y1="556" y2="161" /><path d="M522,40 C409,667 69,10 126,702 C5,404 541,605 135,551 L634,239 Q316,593 578,221 Q38,49 529,718" fill="none" stroke="rgb(86, 158, 98)" stroke-width="1.7017955350147378" /><line stroke="rgb(144, 74, 57)" stroke-width="1.0892230466849793" x1="412" x2="27" y1="502" y2="710" /><line stroke="rgb(36, 214, 139)" stroke-width="1.5120979624003534" x1="547" x2="347" y1="455" y2="604" /><line stroke="rgb(9, 248, 122)" stroke-width="1.8618387776679826" x1="549" x2="451" y1="201" y2="271" /><line stroke="rgb(149, 233, 66)" stroke-width="2.899378087329266" x1="284" x2="294" y1="141" y2="15" /><line stroke="rgb(220, 225, 72)" stroke-width="0.876145671465903" x1="250" x2="490" y1="246" y2="650" /><line stroke="rgb(135, 49, 115)" stroke-width="0.7208772549204568" x1="707" x2="251" y1="559" y2="139" /><line stroke="rgb(205, 244, 71)" stroke-width="2.8580229033210403" x1="508" x2="552" y1="106" y2="93" /><line stroke="rgb(26, 159, 49)" stroke-width="0.8187675629627829" x1="316" x2="306" y1="69" y2="45" /><line stroke="rgb(152, 111, 232)" stroke-width="1.3227069441080015" x1="440" x2="331" y1="32" y2="372" /><line stroke="rgb(15, 42, 73)" stroke-width="1.4355423012852349" x1="444" x2="148" y1="68" y2="559" /><line stroke="rgb(4, 245, 195)" stroke-width="0.8462352369886004" x1="19" x2="284" y1="506" y2="421" /></svg>