<svg baseProfile="full" height="697px" version="1.1" width="685px" xmlns="http://www.w3.org/2000/svg" xmlns:ev="http://www.w3.org/2001/xml-events" xmlns:xlink="http://www.w3.org/1999/xlink"><defs /><rect fill="rgb(227, 224, 211)" height="697px" width="685px" x="0" y="0" /><circle cx="434" cy="593" fill="none" opacity="0.7312604105717273" r="64" stroke="rgb(103, 192, 160)" stroke-width="3.1136909924435074" /><rect fill="none" height="107" stroke="rgb(78, 216, 245)" stroke-width="0.8601629733422782" transform="rotate(203 411 170)" width="63" x="297" y="153" /><circle cx="574" cy="357" fill="none" opacity="0.946709307284662" r="125" stroke="rgb(106, 7, 128)" stroke-width="0.836455809772529" /><line stroke="rgb(59, 217, 95)" stroke-width="1.4958692412620826" x1="633" x2="206" y1="525" y2="378" /><line stroke="rgb(249, 34, 238)" stroke-width="2.606842261652683" x1="384" x2="564" y1="312" y2="223" /><line stroke="rgb(225, 6, 47)" stroke-width="1.3852389676468215" x1="190" x2="268" y1="371" y2="407" /><line stroke="rgb(87, 36, 211)" stroke-width="2.5325504356629867" x1="585" x2="174" y1="563" y2="346" /><line stroke="rgb(101, 236, 26)" stroke-width="2.155835268123478" x1="169" x2="522" y1="4" y2="86" /><line stroke="rgb(228, 183, 102)" stroke-width="0.769925920972415" x1="478" x2="489" y1="195" y2="31" /><line stroke="rgb(164, 164, 105)" stroke-width="2.2302145589335516" x1="46" x2="565" y1="318" y2="108" /><line stroke="rgb(216, 176, 117)" stroke-width="2.3853480317981326" x1="650" x2="112" y1="464" y2="432" /><rect fill="none" height="157" stroke="rgb(96, 239, 97)" stroke-width="4.003480679634579" transform="rotate(126 492 322)" width="53" x="305" y="544" /><rect fill="none" height="81" stroke="rgb(142, 19, 234)" stroke-width="2.2870863870553384" transform="rotate(347 109 302)" width="48" x="387" y="379" /><circle cx="474" cy="110" fill="none" opacity="0.43480871498815254" r="82" stroke="rgb(15, 25, 29)" stroke-width="1.4530773874394824" /><circle cx="249" cy="70" fill="none" opacity="0.8081073960115484" r="157" stroke="rgb(57, 188, 113)" stroke-width="2.3894438625027883" /><line stroke="rgb(58, 87, 66)" stroke-width="2.071154787887946" x1="267" x2="559" y1="109" y2="474" /><line stroke="rgb(26, 110, 248)" stroke-width="0.6677154015689466" x1="669" x2="518" y1="241" y2="534" /><line stroke="rgb(170, 17, 171)" stroke-width="2.4062451942360257" x1="582" x2="440" y1="372" y2="432" /><line stroke="rgb(15, 162, 126)" stroke-width="1.9837302984841876" x1="20" x2="468" y1="381" y2="199" /><line stroke="rgb(15, 124, 182)" stroke-width="1.2725053967947193" x1="207" x2="287" y1="628" y2="31" /><line stroke="rgb(224, 47, 241)" stroke-width="1.4356416669328491" x1="251" x2="135" y1="501" y2="645" /><line stroke="rgb(254, 87, 116)" stroke-width="2.7746848252932055" x1="583" x2="575" y1="454" y2="22" /><line stroke="rgb(178, 82, 21)" stroke-width="1.4551507145843816" x1="487" x2="156" y1="569" y2="221" /><line stroke="rgb(33, 94, 136)" stroke-width="2.231494911335191" x1="477" x2="248" y1="141" y2="497" /><line stroke="rgb(164, 245, 235)" stroke-width="2.8430723941267786" x1="242" x2="258" y1="385" y2="495" /><line stroke="rgb(9, 196, 115)" stroke-width="2.18546373082991" x1="584" x2="55" y1="425" y2="528" /><polygon fill="none" points="593,691 242,104 551,101 194,44 343,81" stroke="rgb(135, 236, 224)" stroke-width="2.3324666368615903" /><polygon fill="none" points="480,256 494,75 26,150 468,101 599,636 455,523 66,517" stroke="rgb(33, 68, 48)" stroke-width="3.4913683933041764" /><polygon fill="none" points="571,378 572,210 470,435" stroke="rgb(140, 148, 117)" stroke-width="2.516422592108624" /><path d="M110,172 L253,220 L464,167 Q622,68 252,640 L42,199 L124,193" fill="none" stroke="rgb(73, 111, 67)" stroke-width="2.099469834969342" /><circle cx="568" cy="156" fill="none" opacity="0.32559786628972276" r="154" stroke="rgb(98, 40, 58)" stroke-width="2.1133593592544684" /><rect fill="none" height="177" stroke="rgb(251, 203, 147)" stroke-width="4.008157423920178" transform="rotate(300 136 594)" width="94" x="232" y="124" /><path d="M554,33 C257,387 42,588 582,90 L54,191 C97,239 133,301 499,65 C636,689 298,396 683,362 L225,593 C317,460 153,337 559,485" fill="none" stroke="rgb(57, 235, 0)" stroke-width="1.0481363608035155" /><rect fill="none" height="166" stroke="rgb(120, 10, 100)" stroke-width="1.734243699429525" transform="rotate(332 15 669)" width="171" x="362" y="592" /><path d="M337,316 L442,168 C525,73 410,21 664,422 C58,610 633,186 120,178 C255,75 149,170 161,348 C328,524 654,410 57,667 Q425,360 36,456" fill="none" stroke="rgb(249, 199, 148)" stroke-width="1.909129914690086" /></svg>