<svg baseProfile="full" height="632px" version="1.1" width="897px" xmlns="http://www.w3.org/2000/svg" xmlns:ev="http://www.w3.org/2001/xml-events" xmlns:xlink="http://www.w3.org/1999/xlink"><defs /><rect fill="rgb(232, 212, 220)" height="632px" width="897px" x="0" y="0" /><path d="M503,474 L396,251 L91,45 C790,1 608,279 443,291 Q733,289 257,121 Q502,72 27,140 C666,56 806,303 237,130" fill="none" stroke="rgb(236, 91, 78)" stroke-width="0.6377659708839343" /><rect fill="none" height="86" stroke="rgb(56, 188, 232)" stroke-width="2.126886639185865" transform="rotate(27 164 178)" width="104" x="332" y="197" /><circle cx="468" cy="372" fill="none" opacity="0.6514102944958335" r="35" stroke="rgb(35, 92, 254)" stroke-width="4.708209144911752" /><rect fill="none" height="140" stroke="rgb(238, 89, 133)" stroke-width="0.8976544223298291" transform="rotate(137 321 617)" width="23" x="408" y="408" /><polygon fill="none" points="625,494 674,531 786,384 672,526" stroke="rgb(175, 63, 165)" stroke-width="1.942983672356436" /><polygon fill="none" points="663,281 478,150 791,429 150,495 11,53 33,573 339,558" stroke="rgb(106, 160, 120)" stroke-width="1.3125060101613215" /><line stroke="rgb(61, 215, 211)" stroke-width="1.3751513020578843" x1="821" x2="563" y1="318" y2="155" /><line stroke="rgb(240, 211, 159)" stroke-width="2.9992997335530216" x1="463" x2="366" y1="514" y2="566" /><line stroke="rgb(228, 11, 68)" stroke-width="1.4086501860481357" x1="346" x2="403" y1="354" y2="139" /><line stroke="rgb(58, 214, 129)" stroke-width="1.25186139330208" x1="108" x2="845" y1="279" y2="613" /><circle cx="622" cy="357" fill="none" opacity="0.6051553554037972" r="54" stroke="rgb(138, 140, 231)" stroke-width="2.911400399276586" /><path d="M494,309 C241,109 696,594 576,514 Q767,211 377,413 L755,85 C293,47 516,483 705,95 L336,461" fill="none" stroke="rgb(126, 35, 79)" stroke-width="0.9078277201223681" /><rect fill="none" height="31" stroke="rgb(154, 111, 135)" stroke-width="4.248517092863641" transform="rotate(260 251 245)" width="169" x="642" y="124" /><rect fill="none" height="194" stroke="rgb(89, 99, 198)" stroke-width="2.969147206620927" transform="rotate(278 664 294)" width="29" x="126" y="267" /><polygon fill="none" points="714,472 322,479 45,89 165,280 728,570" stroke="rgb(91, 240, 182)" stroke-width="0.9989450552388002" /><circle cx="786" cy="545" fill="none" opacity="0.53973665951068" r="123" stroke="rgb(222, 170, 38)" stroke-width="4.821254064356469" /><rect fill="none" height="176" stroke="rgb(252, 228, 59)" stroke-width="1.5528689680542214" transform="rotate(29 215 14)" width="187" x="642" y="222" /><line stroke="rgb(138, 46, 252)" stroke-width="2.59885722131002" x1="613" x2="765" y1="162" y2="623" /><line stroke="rgb(141, 37, 128)" stroke-width="2.3475523025858562" x1="187" x2="338" y1="395" y2="502" /><line stroke="rgb(182, 192, 114)" stroke-width="1.0458640492819011" x1="822" x2="259" y1="392" y2="630" /><line stroke="rgb(189, 114, 66)" stroke-width="0.9328236533173302" x1="96" x2="169" y1="613" y2="553" /><line stroke="rgb(90, 138, 85)" stroke-width="2.4726234965915195" x1="425" x2="454" y1="413" y2="315" /><line stroke="rgb(255, 164, 91)" stroke-width="0.8681141060148774" x1="598" x2="224" y1="520" y2="619" /><line stroke="rgb(105, 184, 214)" stroke-width="1.6165870736087893" x1="886" x2="406" y1="427" y2="370" /><line stroke="rgb(13, 7, 234)" stroke-width="2.098340578096744" x1="316" x2="684" y1="359" y2="14" /><line stroke="rgb(81, 127, 240)" stroke-width="1.0356112164992544" x1="570" x2="23" y1="157" y2="630" /><line stroke="rgb(216, 82, 237)" stroke-width="1.984239775308465" x1="866" x2="441" y1="438" y2="221" /><line stroke="rgb(169, 160, 52)" stroke-width="0.8883534247812914" x1="87" x2="68" y1="242" y2="585" /><line stroke="rgb(76, 206, 148)" stroke-width="0.8301611159567075" x1="296" x2="845" y1="102" y2="538" /><line stroke="rgb(54, 197, 118)" stroke-width="0.5567037254876934" x1="55" x2="658" y1="132" y2="473" /><line stroke="rgb(250, 41, 14)" stroke-width="1.7023884555356452" x1="663" x2="850" y1="610" y2="111" /><line stroke="rgb(197, 121, 97)" stroke-width="1.8397128943243695" x1="137" x2="162" y1="263" y2="3" /><line stroke="rgb(93, 248, 75)" stroke-width="1.1996214657978639" x1="303" x2="384" y1="418" y2="9" /><line stroke="rgb(164, 69, 76)" stroke-width="2.061711202577971" x1="689" x2="410" y1="408" y2="601" /><line stroke="rgb(17, 156, 43)" stroke-width="0.8164939993307919" x1="304" x2="106" y1="366" y2="193" /><line stroke="rgb(24, 92, 167)" stroke-width="1.0674840240782486" x1="558" x2="830" y1="404" y2="374" /><line stroke="rgb(241, 183, 116)" stroke-width="1.4549917660530862" x1="731" x2="522" y1="7" y2="569" /><line stroke="rgb(142, 210, 67)" stroke-width="0.7998974088226042" x1="473" x2="386" y1="562" y2="547" /><line stroke="rgb(196, 8, 44)" stroke-width="1.206055558626675" x1="563" x2="509" y1="83" y2="425" /><line stroke="rgb(94, 205, 170)" stroke-width="2.580090069087469" x1="724" x2="384" y1="397" y2="229" /><line stroke="rgb(153, 138, 6)" stroke-width="0.9372315039252128" x1="302" x2="758" y1="31" y2="561" /><line stroke="rgb(72, 127, 57)" stroke-width="2.0100923378225146" x1="855" x2="13" y1="203" y2="445" /><line stroke="rgb(233, 238, 121)" stroke-width="1.599458879008436" x1="585" x2="254" y1="153" y2="223" /><path d="M825,420 Q122,87 579,109 Q728,459 752,605 L145,409 Q731,216 274,499 L597,238 C197,553 728,150 292,384 L337,115" fill="none" stroke="rgb(16, 19, 235)" stroke-width="2.75279772214065" /><line stroke="rgb(248, 196, 208)" stroke-width="2.853318378788255" x1="181" x2="601" y1="232" y2="388" /><line stroke="rgb(3, 113, 182)" stroke-width="2.9871794295560457" x1="157" x2="463" y1="96" y2="317" /><line stroke="rgb(63, 27, 112)" stroke-width="0.7460222224055773" x1="766" x2="618" y1="36" y2="116" /><line stroke="rgb(40, 180, 15)" stroke-width="2.4288835491344845" x1="122" x2="105" y1="258" y2="347" /><line stroke="rgb(251, 25, 84)" stroke-width="1.1906784902051022" x1="635" x2="133" y1="435" y2="410" /><line stroke="rgb(184, 58, 69)" stroke-width="1.7546980590821941" x1="229" x2="577" y1="263" y2="43" /><line stroke="rgb(172, 100, 61)" stroke-width="0.9066736579494373" x1="104" x2="546" y1="307" y2="303" /><line stroke="rgb(103, 142, 126)" stroke-width="0.8306308009917608" x1="62" x2="396" y1="570" y2="621" /><line stroke="rgb(191, 162, 229)" stroke-width="1.8473970066445813" x1="124" x2="720" y1="171" y2="441" /><line stroke="rgb(140, 250, 7)" stroke-width="1.0041898693199374" x1="521" x2="871" y1="621" y2="603" /><line stroke="rgb(39, 213, 182)" stroke-width="1.8784372521329593" x1="480" x2="763" y1="193" y2="368" /><line stroke="rgb(197, 206, 54)" stroke-width="0.5849682643114136" x1="252" x2="734" y1="618" y2="425" /><line stroke="rgb(7, 35, 16)" stroke-width="1.3225732253014284" x1="869" x2="613" y1="7" y2="153" /><line stroke="rgb(219, 38, 232)" stroke-width="0.5623721842604872" x1="827" x2="448" y1="43" y2="279" /><circle cx="788" cy="516" fill="none" opacity="0.7577545296776058" r="128" stroke="rgb(1, 139, 119)" stroke-width="1.9287030136756378" /><polygon fill="none" points="323,383 478,70 567,34 198,144 634,464 694,44" stroke="rgb(227, 200, 20)" stroke-width="3.1591237525456837" /><line stroke="rgb(245, 58, 134)" stroke-width="1.9813719559178513" x1="84" x2="209" y1="468" y2="480" /><line stroke="rgb(251, 149, 238)" stroke-width="2.3600536826632856" x1="595" x2="157" y1="99" y2="276" /><line stroke="rgb(122, 166, 178)" stroke-width="2.7831340136341787" x1="319" x2="501" y1="446" y2="30" /><line stroke="rgb(157, 201, 57)" stroke-width="1.5164822972074337" x1="673" x2="129" y1="47" y2="583" /><line stroke="rgb(155, 156, 139)" stroke-width="2.6962062240613798" x1="360" x2="672" y1="12" y2="590" /><line stroke="rgb(131, 238, 190)" stroke-width="0.6191406026359878" x1="200" x2="40" y1="249" y2="559" /><line stroke="rgb(70, 27, 152)" stroke-width="1.5059555339210666" x1="547" x2="462" y1="191" y2="304" /><line stroke="rgb(58, 87, 210)" stroke-width="0.8601492421802821" x1="595" x2="424" y1="352" y2="109" /><line stroke="rgb(150, 176, 199)" stroke-width="1.7930805041395872" x1="433" x2="570" y1="240" y2="18" /><line stroke="rgb(44, 151, 2)" stroke-width="1.4609937269571631" x1="846" x2="443" y1="553" y2="256" /><line stroke="rgb(247, 38, 165)" stroke-width="1.7104700766999577" x1="368" x2="191" y1="411" y2="443" /><line stroke="rgb(207, 118, 38)" stroke-width="0.5039063007719048" x1="791" x2="285" y1="446" y2="17" /><line stroke="rgb(58, 113, 127)" stroke-width="1.0833826833927993" x1="214" x2="365" y1="573" y2="440" /><line stroke="rgb(7, 216, 155)" stroke-width="2.613689813820367" x1="834" x2="498" y1="163" y2="412" /><line stroke="rgb(18, 251, 115)" stroke-width="0.9464448042994318" x1="362" x2="616" y1="316" y2="491" /><circle cx="592" cy="150" fill="none" opacity="0.726454826222398" r="117" stroke="rgb(153, 71, 40)" stroke-width="3.1136012751952533" /><circle cx="563" cy="539" fill="none" opacity="0.4845252754514353" r="21" stroke="rgb(99, 34, 168)" stroke-width="4.172584328289496" /><rect fill="none" height="73" stroke="rgb(49, 217, 171)" stroke-width="4.098545509936612" transform="rotate(144 701 88)" width="116" x="1" y="358" /><line stroke="rgb(224, 142, 54)" stroke-width="2.655195997469125" x1="446" x2="506" y1="520" y2="50" /><line stroke="rgb(137, 248, 11)" stroke-width="0.6670382017180418" x1="496" x2="223" y1="260" y2="115" /><line stroke="rgb(62, 145, 86)" stroke-width="2.925112946858795" x1="156" x2="382" y1="207" y2="88" /><line stroke="rgb(174, 59, 49)" stroke-width="1.9713955292620464" x1="373" x2="2" y1="520" y2="610" /><line stroke="rgb(52, 132, 180)" stroke-width="2.780065141210443" x1="19" x2="341" y1="18" y2="378" /><line stroke="rgb(96, 24, 87)" stroke-width="1.081700352202954" x1="588" x2="438" y1="347" y2="75" /><line stroke="rgb(201, 228, 237)" stroke-width="2.776089807362406" x1="389" x2="335" y1="165" y2="360" /><line stroke="rgb(109, 16, 240)" stroke-width="2.1363699573471" x1="438" x2="655" y1="570" y2="627" /><line stroke="rgb(108, 189, 58)" stroke-width="2.772956267277684" x1="525" x2="692" y1="569" y2="586" /><line stroke="rgb(147, 3, 224)" stroke-width="2.375332591697906" x1="603" x2="647" y1="604" y2="240" /><rect fill="none" height="136" stroke="rgb(197, 125, 56)" stroke-width="4.226932290457915" transform="rotate(206 111 165)" width="121" x="324" y="322" /><circle cx="275" cy="264" fill="none" opacity="0.43013270059061937" r="132" stroke="rgb(68, 245, 120)" stroke-width="0.5364055413921653" /><rect fill="none" height="148" stroke="rgb(36, 94, 59)" stroke-width="4.19025484968004" transform="rotate(219 272 222)" width="136" x="179" y="258" /><path d="M34,266 Q61,27 525,466 L489,339 L653,472 Q93,536 23,145 Q404,536 50,402" fill="none" stroke="rgb(50, 16, 129)" stroke-width="2.8789806913667384" /><polygon fill="none" points="9,413 151,497 561,70 468,134 129,311 62,381 612,13" stroke="rgb(201, 30, 84)" stroke-width="2.761464484430618" /><circle cx="357" cy="153" fill="none" opacity="0.6799728344435598" r="29" stroke="rgb(86, 148, 45)" stroke-width="3.943805041409223" /><polygon fill="none" points="855,245 625,0 213,473 357,287" stroke="rgb(120, 158, 140)" stroke-width="3.476774969709356" /><circle cx="313" cy="257" fill="none" opacity="0.4277200781585445" r="156" stroke="rgb(7, 37, 103)" stroke-width="4.353475374773627" /><polygon fill="none" points="777,620 450,463 777,268 544,583 689,204" stroke="rgb(204, 20, 245)" stroke-width="1.3991943843407526" /><polygon fill="none" points="628,557 542,510 73,196 310,64 734,513 519,354 743,427" stroke="rgb(97, 130, 151)" stroke-width="2.8198035047985335" /><line stroke="rgb(156, 105, 180)" stroke-width="1.7634892718420438" x1="866" x2="333" y1="184" y2="328" /><line stroke="rgb(195, 141, 4)" stroke-width="2.990305830839203" x1="217" x2="546" y1="431" y2="152" /><line stroke="rgb(145, 119, 63)" stroke-width="2.1091424688397633" x1="634" x2="253" y1="614" y2="163" /><line stroke="rgb(15, 156, 184)" stroke-width="1.1978799925108516" x1="84" x2="521" y1="187" y2="36" /><line stroke="rgb(102, 212, 187)" stroke-width="1.4234084024106823" x1="362" x2="163" y1="175" y2="318" /><line stroke="rgb(68, 136, 216)" stroke-width="0.5876709556957522" x1="455" x2="57" y1="366" y2="520" /><line stroke="rgb(123, 29, 247)" stroke-width="1.5440679501464942" x1="880" x2="602" y1="498" y2="555" /><path d="M660,161 L888,621 C774,137 790,389 402,420 C304,76 881,74 216,370 L396,411 C314,185 732,360 412,436" fill="none" stroke="rgb(220, 193, 77)" stroke-width="2.0376979606794348" /><line stroke="rgb(152, 192, 239)" stroke-width="0.6396106064556518" x1="564" x2="549" y1="284" y2="580" /><line stroke="rgb(62, 10, 90)" stroke-width="1.3820906286569579" x1="93" x2="200" y1="85" y2="89" /><line stroke="rgb(105, 69, 100)" stroke-width="0.5503027983536775" x1="738" x2="843" y1="241" y2="414" /><line stroke="rgb(49, 111, 180)" stroke-width="2.406447727434706" x1="877" x2="479" y1="65" y2="568" /><line stroke="rgb(156, 89, 227)" stroke-width="2.1489284824247568" x1="468" x2="62" y1="139" y2="468" /><line stroke="rgb(118, 70, 158)" stroke-width="0.6957576692254104" x1="674" x2="792" y1="368" y2="262" /><line stroke="rgb(90, 74, 53)" stroke-width="2.7146099531561005" x1="128" x2="486" y1="517" y2="371" /></svg>