<svg baseProfile="full" height="534px" version="1.1" width="892px" xmlns="http://www.w3.org/2000/svg" xmlns:ev="http://www.w3.org/2001/xml-events" xmlns:xlink="http://www.w3.org/1999/xlink"><defs /><rect fill="rgb(239, 209, 226)" height="534px" width="892px" x="0" y="0" /><circle cx="199" cy="484" fill="none" opacity="0.9882644746430302" r="103" stroke="rgb(155, 97, 168)" stroke-width="3.8059842212511232" /><path d="M86,106 Q236,38 629,286 L688,501 C610,310 781,452 368,187 C57,24 548,202 262,200 Q884,473 137,26" fill="none" stroke="rgb(47, 170, 238)" stroke-width="2.8924333831992914" /><rect fill="none" height="117" stroke="rgb(95, 187, 116)" stroke-width="4.723481391249588" transform="rotate(194 438 277)" width="64" x="536" y="197" /><line stroke="rgb(224, 140, 149)" stroke-width="0.8544094825831654" x1="312" x2="548" y1="261" y2="504" /><line stroke="rgb(165, 44, 189)" stroke-width="1.4175407062416927" x1="91" x2="784" y1="393" y2="527" /><line stroke="rgb(14, 210, 110)" stroke-width="2.5816162289708537" x1="731" x2="455" y1="431" y2="497" /><line stroke="rgb(167, 97, 143)" stroke-width="2.1604879781181587" x1="472" x2="697" y1="112" y2="504" /><line stroke="rgb(138, 33, 192)" stroke-width="0.8152591486669429" x1="262" x2="504" y1="317" y2="78" /><line stroke="rgb(44, 105, 208)" stroke-width="2.9468862588670843" x1="133" x2="821" y1="427" y2="310" /><line stroke="rgb(185, 6, 170)" stroke-width="1.8193470991507081" x1="806" x2="838" y1="164" y2="352" /><line stroke="rgb(152, 248, 13)" stroke-width="0.836150481457669" x1="144" x2="563" y1="194" y2="78" /><rect fill="none" height="135" stroke="rgb(65, 43, 137)" stroke-width="2.362199036298667" transform="rotate(255 833 433)" width="174" x="42" y="400" /><circle cx="588" cy="59" fill="none" opacity="0.661741210330735" r="12" stroke="rgb(186, 3, 252)" stroke-width="3.127647069956991" /><polygon fill="none" points="860,159 565,466 63,176 49,509 876,219 848,2" stroke="rgb(120, 10, 103)" stroke-width="2.0562518280417983" /><polygon fill="none" points="346,146 510,352 468,450 369,33 744,486 71,142 655,237" stroke="rgb(82, 156, 185)" stroke-width="2.585557419827566" /><polygon fill="none" points="383,410 134,382 842,98 43,264 744,525" stroke="rgb(254, 54, 232)" stroke-width="2.573354378288966" /><line stroke="rgb(119, 39, 180)" stroke-width="2.3845417063650993" x1="759" x2="197" y1="446" y2="163" /><line stroke="rgb(216, 195, 115)" stroke-width="0.834158459987503" x1="764" x2="382" y1="375" y2="375" /><line stroke="rgb(201, 214, 224)" stroke-width="2.0180176916907646" x1="582" x2="51" y1="2" y2="188" /><line stroke="rgb(221, 197, 1)" stroke-width="1.734185679263733" x1="527" x2="207" y1="460" y2="135" /><line stroke="rgb(7, 93, 145)" stroke-width="1.842489360473543" x1="851" x2="813" y1="155" y2="165" /><line stroke="rgb(237, 115, 224)" stroke-width="1.4051592446071202" x1="459" x2="343" y1="100" y2="533" /><line stroke="rgb(23, 12, 199)" stroke-width="1.6317343485536466" x1="506" x2="462" y1="21" y2="354" /><line stroke="rgb(28, 104, 133)" stroke-width="0.6775760659019785" x1="459" x2="802" y1="237" y2="379" /><rect fill="none" height="68" stroke="rgb(98, 164, 225)" stroke-width="3.7775287473017656" transform="rotate(230 380 419)" width="77" x="719" y="92" /><circle cx="174" cy="194" fill="none" opacity="0.6688559194870782" r="118" stroke="rgb(149, 88, 131)" stroke-width="2.8485381706416093" /><circle cx="291" cy="461" fill="none" opacity="0.40500688941485263" r="91" stroke="rgb(238, 109, 42)" stroke-width="1.433152715707955" /><polygon fill="none" points="559,473 83,328 402,121 265,236" stroke="rgb(142, 0, 47)" stroke-width="3.3035761894232207" /><circle cx="817" cy="241" fill="none" opacity="0.4874029802946047" r="18" stroke="rgb(71, 39, 34)" stroke-width="4.4033772964161315" /><circle cx="630" cy="285" fill="none" opacity="0.5284373896007668" r="95" stroke="rgb(34, 177, 199)" stroke-width="3.9416148664173805" /><circle cx="523" cy="268" fill="none" opacity="0.5937723910726378" r="35" stroke="rgb(91, 91, 201)" stroke-width="4.208843481882961" /><circle cx="183" cy="384" fill="none" opacity="0.3943225018367291" r="34" stroke="rgb(11, 120, 78)" stroke-width="3.1989221684129427" /><circle cx="251" cy="281" fill="none" opacity="0.9543359426592819" r="18" stroke="rgb(247, 91, 3)" stroke-width="3.7450625202517984" /><circle cx="507" cy="93" fill="none" opacity="0.7860293536536667" r="18" stroke="rgb(81, 91, 89)" stroke-width="1.4276331340477992" /><line stroke="rgb(6, 9, 99)" stroke-width="2.885978919083913" x1="384" x2="707" y1="82" y2="47" /><line stroke="rgb(44, 86, 72)" stroke-width="1.5047312651912368" x1="342" x2="723" y1="82" y2="368" /><line stroke="rgb(21, 65, 24)" stroke-width="2.4420347936273252" x1="392" x2="687" y1="498" y2="354" /><line stroke="rgb(46, 82, 17)" stroke-width="1.3719999808650547" x1="697" x2="808" y1="199" y2="505" /><line stroke="rgb(93, 131, 98)" stroke-width="0.5627927332389333" x1="862" x2="32" y1="298" y2="469" /><line stroke="rgb(179, 232, 24)" stroke-width="0.6298569813687025" x1="529" x2="312" y1="391" y2="166" /><line stroke="rgb(181, 206, 28)" stroke-width="1.6538337945735808" x1="425" x2="459" y1="359" y2="207" /><line stroke="rgb(222, 205, 214)" stroke-width="1.4206518576676754" x1="853" x2="781" y1="305" y2="458" /><line stroke="rgb(137, 122, 206)" stroke-width="1.4037143471322253" x1="886" x2="259" y1="39" y2="495" /><line stroke="rgb(166, 30, 109)" stroke-width="1.2752745438297004" x1="852" x2="37" y1="434" y2="192" /><line stroke="rgb(126, 2, 145)" stroke-width="1.9424891441871246" x1="531" x2="766" y1="416" y2="300" /><path d="M130,45 Q534,57 99,215 C505,211 620,180 397,119 Q486,223 754,296 C837,218 348,130 239,243 Q707,240 373,28 C725,15 544,159 504,359 Q409,316 30,391" fill="none" stroke="rgb(165, 204, 240)" stroke-width="1.1469031372268361" /><polygon fill="none" points="141,139 127,146 193,183 8,534 59,192 323,503 769,300" stroke="rgb(230, 87, 11)" stroke-width="3.307110844165513" /><polygon fill="none" points="673,192 385,337 265,221" stroke="rgb(253, 13, 43)" stroke-width="3.384942397184444" /><circle cx="286" cy="342" fill="none" opacity="0.40099630282377885" r="105" stroke="rgb(154, 16, 148)" stroke-width="3.2647962612825827" /><circle cx="429" cy="347" fill="none" opacity="0.6467906254556907" r="12" stroke="rgb(255, 185, 254)" stroke-width="2.100049194963286" /><circle cx="256" cy="428" fill="none" opacity="0.44692158860066555" r="30" stroke="rgb(45, 102, 147)" stroke-width="3.1304406009523738" /><path d="M475,63 Q522,363 504,5 L36,94 C380,240 865,303 142,188 C399,220 346,489 183,74" fill="none" stroke="rgb(159, 90, 187)" stroke-width="1.9180950983298146" /><rect fill="none" height="63" stroke="rgb(206, 146, 61)" stroke-width="2.3238317355004554" transform="rotate(247 236 460)" width="168" x="658" y="219" /><rect fill="none" height="158" stroke="rgb(24, 51, 150)" stroke-width="1.4810875100596521" transform="rotate(319 418 511)" width="124" x="441" y="405" /><circle cx="406" cy="130" fill="none" opacity="0.6353452440217671" r="57" stroke="rgb(182, 194, 10)" stroke-width="2.1353694340251788" /><line stroke="rgb(134, 137, 34)" stroke-width="1.9541759915701047" x1="858" x2="342" y1="433" y2="203" /><line stroke="rgb(72, 201, 135)" stroke-width="1.7318887382000545" x1="228" x2="837" y1="23" y2="296" /><line stroke="rgb(208, 185, 127)" stroke-width="2.1925970818382767" x1="59" x2="312" y1="410" y2="77" /><line stroke="rgb(104, 194, 218)" stroke-width="1.9650570650619414" x1="529" x2="389" y1="417" y2="10" /><line stroke="rgb(118, 84, 44)" stroke-width="2.116084226721017" x1="578" x2="378" y1="371" y2="270" /><line stroke="rgb(4, 199, 149)" stroke-width="1.3407003195753875" x1="387" x2="708" y1="314" y2="411" /><line stroke="rgb(89, 221, 185)" stroke-width="1.952195231014854" x1="273" x2="619" y1="387" y2="254" /><line stroke="rgb(123, 152, 152)" stroke-width="1.9377401371413456" x1="529" x2="793" y1="41" y2="458" /><line stroke="rgb(16, 104, 74)" stroke-width="2.8645590482567047" x1="701" x2="286" y1="161" y2="175" /><path d="M778,137 Q27,60 397,406 C871,500 658,29 373,433 L698,12 Q337,265 272,274 Q662,312 557,491 L596,393" fill="none" stroke="rgb(190, 43, 181)" stroke-width="2.9819234555550924" /><circle cx="57" cy="64" fill="none" opacity="0.8540272083922313" r="40" stroke="rgb(19, 169, 125)" stroke-width="0.6639126379854747" /><line stroke="rgb(6, 219, 123)" stroke-width="1.5118189095676562" x1="547" x2="532" y1="500" y2="476" /><line stroke="rgb(190, 184, 235)" stroke-width="1.8051999289618146" x1="103" x2="542" y1="305" y2="127" /><line stroke="rgb(219, 225, 243)" stroke-width="1.9612417300701932" x1="143" x2="549" y1="280" y2="488" /><path d="M375,480 C164,360 632,175 398,5 C414,274 570,522 390,524 Q805,269 26,57 Q459,321 136,164 Q241,165 438,261 C452,56 546,270 714,511" fill="none" stroke="rgb(117, 239, 93)" stroke-width="1.952791986414356" /><circle cx="333" cy="191" fill="none" opacity="0.5544701471836828" r="32" stroke="rgb(78, 159, 81)" stroke-width="2.3693124114142923" /></svg>