<svg baseProfile="full" height="427px" version="1.1" width="722px" xmlns="http://www.w3.org/2000/svg" xmlns:ev="http://www.w3.org/2001/xml-events" xmlns:xlink="http://www.w3.org/1999/xlink"><defs /><rect fill="rgb(207, 227, 216)" height="427px" width="722px" x="0" y="0" /><line stroke="rgb(119, 249, 64)" stroke-width="0.6821941287276594" x1="372" x2="690" y1="215" y2="144" /><line stroke="rgb(7, 120, 103)" stroke-width="0.6570726098733297" x1="661" x2="658" y1="383" y2="221" /><line stroke="rgb(179, 33, 137)" stroke-width="1.9395838028934258" x1="15" x2="101" y1="290" y2="229" /><line stroke="rgb(61, 134, 125)" stroke-width="1.3851927878863233" x1="681" x2="173" y1="184" y2="125" /><line stroke="rgb(70, 59, 199)" stroke-width="1.358616606846336" x1="448" x2="296" y1="125" y2="191" /><polygon fill="none" points="57,102 179,84 648,128" stroke="rgb(230, 127, 124)" stroke-width="1.5309801136279013" /><rect fill="none" height="128" stroke="rgb(242, 103, 227)" stroke-width="3.279431310547006" transform="rotate(110 70 220)" width="180" x="546" y="154" /><polygon fill="none" points="334,207 376,394 688,358" stroke="rgb(81, 110, 225)" stroke-width="2.678954173416881" /><line stroke="rgb(142, 137, 191)" stroke-width="1.1709105851461619" x1="29" x2="130" y1="397" y2="300" /><line stroke="rgb(120, 126, 150)" stroke-width="2.7592455592121756" x1="436" x2="278" y1="281" y2="196" /><line stroke="rgb(233, 150, 16)" stroke-width="2.507747169246417" x1="499" x2="96" y1="213" y2="391" /><line stroke="rgb(8, 237, 32)" stroke-width="2.087520139902152" x1="150" x2="516" y1="324" y2="393" /><line stroke="rgb(169, 165, 13)" stroke-width="0.6061659783663069" x1="585" x2="185" y1="42" y2="178" /><line stroke="rgb(34, 32, 245)" stroke-width="2.3288526714392432" x1="267" x2="491" y1="253" y2="54" /><line stroke="rgb(89, 96, 176)" stroke-width="1.530117068296526" x1="85" x2="435" y1="328" y2="87" /><line stroke="rgb(16, 253, 25)" stroke-width="2.109089992879187" x1="168" x2="145" y1="354" y2="187" /><polygon fill="none" points="7,285 310,141 48,264 428,372" stroke="rgb(220, 115, 200)" stroke-width="3.8573444714178104" /><rect fill="none" height="190" stroke="rgb(8, 72, 214)" stroke-width="2.1489710002521702" transform="rotate(218 190 166)" width="30" x="569" y="159" /><path d="M283,63 Q193,273 14,212 L68,119 C149,11 388,398 678,28" fill="none" stroke="rgb(249, 45, 229)" stroke-width="2.5082624054136535" /><path d="M17,162 Q599,105 319,315 L217,178 Q108,318 228,131" fill="none" stroke="rgb(88, 162, 178)" stroke-width="2.189308689679165" /><line stroke="rgb(89, 32, 80)" stroke-width="1.4207999825835609" x1="73" x2="447" y1="99" y2="53" /><line stroke="rgb(90, 155, 174)" stroke-width="2.706570675171239" x1="147" x2="485" y1="42" y2="50" /><line stroke="rgb(130, 249, 155)" stroke-width="1.396123606083186" x1="54" x2="525" y1="154" y2="351" /><line stroke="rgb(238, 98, 100)" stroke-width="0.9542198532108427" x1="622" x2="149" y1="157" y2="196" /><line stroke="rgb(23, 189, 99)" stroke-width="1.110958436279296" x1="316" x2="497" y1="323" y2="310" /><line stroke="rgb(35, 33, 62)" stroke-width="0.6702352155877951" x1="240" x2="534" y1="306" y2="57" /><rect fill="none" height="149" stroke="rgb(130, 234, 224)" stroke-width="4.782148671084168" transform="rotate(191 500 88)" width="69" x="369" y="322" /><circle cx="220" cy="142" fill="none" opacity="0.4093460570137062" r="44" stroke="rgb(63, 149, 225)" stroke-width="1.3002149583703868" /><path d="M449,142 C174,193 634,254 22,87 C657,71 684,54 149,176 C134,399 109,288 218,195 L132,328" fill="none" stroke="rgb(109, 230, 113)" stroke-width="2.7682242312824883" /><circle cx="654" cy="358" fill="none" opacity="0.8317484657062433" r="95" stroke="rgb(67, 1, 71)" stroke-width="3.5085364333243527" /><circle cx="261" cy="239" fill="none" opacity="0.9791599749040587" r="16" stroke="rgb(95, 182, 52)" stroke-width="3.793385010438414" /><polygon fill="none" points="494,322 57,364 487,102 364,64 451,10 494,38" stroke="rgb(31, 219, 197)" stroke-width="2.3759319666548464" /><polygon fill="none" points="559,23 241,141 42,425 297,268 276,42" stroke="rgb(60, 98, 159)" stroke-width="2.8743485605528685" /><circle cx="132" cy="69" fill="none" opacity="0.5229448873003035" r="29" stroke="rgb(113, 16, 30)" stroke-width="0.9336985801010831" /><circle cx="588" cy="102" fill="none" opacity="0.8818950518186774" r="36" stroke="rgb(170, 201, 68)" stroke-width="1.079514497773803" /><line stroke="rgb(34, 189, 113)" stroke-width="2.5119900108537134" x1="243" x2="250" y1="363" y2="131" /><line stroke="rgb(28, 157, 176)" stroke-width="1.8536887947321206" x1="603" x2="179" y1="227" y2="127" /><line stroke="rgb(253, 1, 10)" stroke-width="0.6977874508506866" x1="608" x2="625" y1="394" y2="283" /><line stroke="rgb(76, 4, 141)" stroke-width="2.583076597641523" x1="166" x2="207" y1="214" y2="317" /><line stroke="rgb(161, 202, 140)" stroke-width="0.9795768323432901" x1="248" x2="574" y1="130" y2="55" /><line stroke="rgb(55, 155, 224)" stroke-width="1.918602706409485" x1="115" x2="249" y1="76" y2="299" /><path d="M277,162 L690,138 Q346,117 513,328 L477,57 C396,59 648,408 612,100" fill="none" stroke="rgb(164, 24, 146)" stroke-width="0.5814984280327977" /><circle cx="213" cy="168" fill="none" opacity="0.5933041871849574" r="102" stroke="rgb(170, 50, 250)" stroke-width="2.5342308734287022" /><line stroke="rgb(222, 72, 172)" stroke-width="1.6444813255140496" x1="471" x2="65" y1="272" y2="290" /><line stroke="rgb(242, 48, 184)" stroke-width="1.6267260902576903" x1="154" x2="182" y1="207" y2="337" /><line stroke="rgb(217, 198, 26)" stroke-width="2.36507869819797" x1="559" x2="403" y1="109" y2="54" /><line stroke="rgb(47, 152, 18)" stroke-width="1.3306458211607735" x1="620" x2="343" y1="304" y2="270" /><line stroke="rgb(102, 109, 231)" stroke-width="1.55155363811283" x1="180" x2="43" y1="284" y2="260" /><line stroke="rgb(13, 12, 19)" stroke-width="1.5418297548108395" x1="211" x2="401" y1="304" y2="188" /><line stroke="rgb(62, 98, 30)" stroke-width="1.1444861082347066" x1="180" x2="352" y1="48" y2="301" /></svg>