<svg baseProfile="full" height="624px" version="1.1" width="782px" xmlns="http://www.w3.org/2000/svg" xmlns:ev="http://www.w3.org/2001/xml-events" xmlns:xlink="http://www.w3.org/1999/xlink"><defs /><rect fill="rgb(234, 218, 204)" height="624px" width="782px" x="0" y="0" /><polygon fill="none" points="142,540 127,250 664,298 360,5 444,603" stroke="rgb(118, 197, 170)" stroke-width="2.3895102666386205" /><rect fill="none" height="110" stroke="rgb(27, 188, 199)" stroke-width="2.775355890355557" transform="rotate(240 297 336)" width="151" x="581" y="445" /><line stroke="rgb(199, 193, 157)" stroke-width="1.914461234566193" x1="311" x2="164" y1="558" y2="349" /><line stroke="rgb(132, 64, 214)" stroke-width="1.052020314985016" x1="501" x2="565" y1="151" y2="563" /><line stroke="rgb(0, 11, 55)" stroke-width="2.7060947755892117" x1="602" x2="766" y1="46" y2="323" /><line stroke="rgb(239, 189, 70)" stroke-width="2.2353174115241643" x1="666" x2="412" y1="624" y2="617" /><line stroke="rgb(141, 166, 185)" stroke-width="2.0515014946943433" x1="389" x2="618" y1="432" y2="18" /><line stroke="rgb(203, 11, 172)" stroke-width="1.56165476921423" x1="684" x2="345" y1="277" y2="55" /><path d="M259,273 Q270,402 106,80 C53,618 400,538 251,597 Q701,459 262,83 L734,568" fill="none" stroke="rgb(194, 127, 188)" stroke-width="0.6019622901243542" /><rect fill="none" height="92" stroke="rgb(194, 193, 253)" stroke-width="4.8278356698481915" transform="rotate(202 112 559)" width="97" x="523" y="488" /><circle cx="113" cy="233" fill="none" opacity="0.7671410052621733" r="53" stroke="rgb(177, 151, 123)" stroke-width="3.5239146931643472" /><circle cx="525" cy="226" fill="none" opacity="0.8515415170526761" r="88" stroke="rgb(172, 199, 36)" stroke-width="4.886494166760748" /><polygon fill="none" points="280,578 158,438 698,338 479,504" stroke="rgb(90, 247, 212)" stroke-width="3.5323289408184273" /><rect fill="none" height="105" stroke="rgb(101, 196, 92)" stroke-width="1.6589080465983903" transform="rotate(17 664 519)" width="31" x="51" y="511" /><path d="M459,496 C505,178 37,522 592,499 C372,439 760,595 214,115 C21,206 483,382 130,429 C7,106 711,533 501,144 L199,253" fill="none" stroke="rgb(8, 21, 54)" stroke-width="1.408478426051765" /><circle cx="722" cy="436" fill="none" opacity="0.4776233826217167" r="73" stroke="rgb(192, 99, 225)" stroke-width="2.8124766221354216" /></svg>