<svg baseProfile="full" height="490px" version="1.1" width="666px" xmlns="http://www.w3.org/2000/svg" xmlns:ev="http://www.w3.org/2001/xml-events" xmlns:xlink="http://www.w3.org/1999/xlink"><defs /><rect fill="rgb(207, 220, 233)" height="490px" width="666px" x="0" y="0" /><circle cx="408" cy="389" fill="none" opacity="0.4648799753921026" r="25" stroke="rgb(79, 13, 154)" stroke-width="4.6697011541097115" /><rect fill="none" height="87" stroke="rgb(126, 79, 198)" stroke-width="2.1842393912874085" transform="rotate(33 251 130)" width="70" x="319" y="108" /><circle cx="157" cy="57" fill="none" opacity="0.6789478955703825" r="51" stroke="rgb(37, 146, 58)" stroke-width="4.676396603983508" /><path d="M622,400 L349,284 L95,326 L56,462 Q517,266 327,61 L542,80 Q124,207 427,409" fill="none" stroke="rgb(145, 104, 135)" stroke-width="1.8738142594799707" /><rect fill="none" height="53" stroke="rgb(12, 36, 39)" stroke-width="1.045836550359524" transform="rotate(252 32 258)" width="45" x="317" y="100" /><rect fill="none" height="94" stroke="rgb(37, 136, 31)" stroke-width="1.9713700047596376" transform="rotate(190 643 134)" width="84" x="9" y="323" /><line stroke="rgb(48, 173, 48)" stroke-width="0.655817791888444" x1="94" x2="164" y1="354" y2="265" /><line stroke="rgb(133, 108, 111)" stroke-width="2.39136415204445" x1="1" x2="589" y1="262" y2="311" /><line stroke="rgb(63, 83, 246)" stroke-width="2.187459990033144" x1="662" x2="279" y1="379" y2="369" /><path d="M544,471 C34,219 266,145 640,205 C436,131 325,485 132,11 C373,418 209,312 228,264" fill="none" stroke="rgb(235, 13, 140)" stroke-width="1.0979047943517632" /><path d="M609,288 Q76,374 472,392 Q95,486 228,317 C142,22 301,337 120,173 L647,23 C16,333 482,230 435,62" fill="none" stroke="rgb(207, 204, 170)" stroke-width="0.5912449033511625" /><circle cx="112" cy="240" fill="none" opacity="0.3612647216013573" r="30" stroke="rgb(64, 202, 183)" stroke-width="1.5887546273111481" /><line stroke="rgb(254, 71, 179)" stroke-width="0.690446842184516" x1="107" x2="328" y1="357" y2="281" /><line stroke="rgb(67, 89, 95)" stroke-width="1.421480673775761" x1="38" x2="45" y1="305" y2="168" /><line stroke="rgb(93, 71, 203)" stroke-width="2.9838519193670003" x1="591" x2="40" y1="250" y2="278" /><line stroke="rgb(136, 182, 111)" stroke-width="2.588994024244467" x1="531" x2="159" y1="472" y2="34" /><line stroke="rgb(125, 178, 125)" stroke-width="2.115403348491224" x1="625" x2="217" y1="56" y2="30" /><line stroke="rgb(209, 116, 2)" stroke-width="2.7230521856972634" x1="150" x2="77" y1="146" y2="163" /><line stroke="rgb(74, 237, 8)" stroke-width="2.869982930474756" x1="135" x2="398" y1="193" y2="183" /><line stroke="rgb(117, 222, 67)" stroke-width="1.4296654910085589" x1="412" x2="508" y1="8" y2="440" /><polygon fill="none" points="582,90 495,113 567,136 286,187 247,249" stroke="rgb(88, 69, 156)" stroke-width="1.8074916761529787" /><circle cx="422" cy="201" fill="none" opacity="0.4675831954884837" r="15" stroke="rgb(127, 45, 70)" stroke-width="4.986222259931165" /><circle cx="543" cy="365" fill="none" opacity="0.3773055616816105" r="122" stroke="rgb(193, 136, 97)" stroke-width="3.2080796275341257" /><path d="M602,22 C194,70 165,423 474,248 Q564,473 199,297 L625,406 Q190,367 287,322 Q638,37 337,34 Q467,249 429,283" fill="none" stroke="rgb(122, 3, 213)" stroke-width="0.8042788192508028" /><line stroke="rgb(153, 88, 46)" stroke-width="2.139861385230091" x1="158" x2="383" y1="209" y2="476" /><line stroke="rgb(14, 80, 32)" stroke-width="2.4563704666575346" x1="3" x2="35" y1="242" y2="385" /><line stroke="rgb(66, 165, 126)" stroke-width="2.1942755843134583" x1="256" x2="157" y1="112" y2="57" /><line stroke="rgb(132, 33, 122)" stroke-width="0.5154641445986958" x1="366" x2="621" y1="50" y2="13" /><line stroke="rgb(110, 133, 250)" stroke-width="0.5951675632003063" x1="662" x2="88" y1="89" y2="211" /><line stroke="rgb(173, 122, 25)" stroke-width="1.782066693214023" x1="436" x2="566" y1="294" y2="143" /><line stroke="rgb(212, 175, 86)" stroke-width="1.0762603835896598" x1="428" x2="525" y1="383" y2="154" /><line stroke="rgb(197, 80, 233)" stroke-width="1.55281202803169" x1="557" x2="327" y1="219" y2="180" /><line stroke="rgb(148, 20, 181)" stroke-width="1.610352337658994" x1="198" x2="473" y1="105" y2="4" /><line stroke="rgb(166, 172, 195)" stroke-width="2.512914035989551" x1="59" x2="314" y1="277" y2="258" /><polygon fill="none" points="607,320 467,120 167,487" stroke="rgb(119, 187, 69)" stroke-width="2.4347477664763733" /></svg>