<svg baseProfile="full" height="534px" version="1.1" width="744px" xmlns="http://www.w3.org/2000/svg" xmlns:ev="http://www.w3.org/2001/xml-events" xmlns:xlink="http://www.w3.org/1999/xlink"><defs /><rect fill="rgb(222, 219, 246)" height="534px" width="744px" x="0" y="0" /><path d="M474,85 C313,480 297,137 368,301 C412,472 59,116 605,472 L211,194 L210,174 Q19,461 257,251 C619,398 395,52 352,420" fill="none" stroke="rgb(43, 62, 84)" stroke-width="2.586762054577413" /><path d="M240,530 Q67,219 180,534 L65,191 Q526,70 158,314 L566,483 Q421,260 422,521" fill="none" stroke="rgb(202, 31, 183)" stroke-width="1.8020650867000394" /><line stroke="rgb(64, 140, 153)" stroke-width="1.3361664418429284" x1="98" x2="290" y1="269" y2="349" /><line stroke="rgb(162, 111, 11)" stroke-width="2.366529314110429" x1="276" x2="139" y1="7" y2="261" /><line stroke="rgb(252, 71, 99)" stroke-width="2.8899012001745277" x1="22" x2="658" y1="221" y2="176" /><line stroke="rgb(1, 75, 124)" stroke-width="0.5500644937892925" x1="160" x2="182" y1="382" y2="300" /><line stroke="rgb(241, 85, 69)" stroke-width="0.848633506776306" x1="394" x2="446" y1="5" y2="39" /><line stroke="rgb(248, 155, 148)" stroke-width="1.4405181414683141" x1="529" x2="30" y1="316" y2="41" /><line stroke="rgb(180, 52, 18)" stroke-width="2.8974029899038047" x1="583" x2="275" y1="331" y2="86" /><line stroke="rgb(196, 66, 129)" stroke-width="0.9425778239806816" x1="313" x2="394" y1="338" y2="231" /><line stroke="rgb(116, 173, 69)" stroke-width="1.972427590420903" x1="403" x2="607" y1="494" y2="467" /><line stroke="rgb(189, 208, 32)" stroke-width="2.3597200612709806" x1="358" x2="645" y1="273" y2="156" /><line stroke="rgb(21, 205, 254)" stroke-width="1.0753694711991917" x1="292" x2="690" y1="166" y2="151" /><line stroke="rgb(221, 180, 20)" stroke-width="1.4212696547840051" x1="403" x2="211" y1="203" y2="263" /><line stroke="rgb(79, 217, 115)" stroke-width="1.813919896404237" x1="270" x2="305" y1="181" y2="66" /><line stroke="rgb(130, 158, 50)" stroke-width="1.0095596100379525" x1="209" x2="140" y1="217" y2="80" /><polygon fill="none" points="633,262 269,493 68,395 233,179 530,462 445,36" stroke="rgb(100, 66, 89)" stroke-width="2.4735303670555884" /><polygon fill="none" points="665,390 311,132 153,358 460,312 578,101" stroke="rgb(86, 188, 15)" stroke-width="2.3406415064519672" /><path d="M556,112 Q704,180 485,49 C512,533 711,75 615,252 C185,433 227,286 6,355" fill="none" stroke="rgb(224, 124, 245)" stroke-width="2.3013511775391526" /><rect fill="none" height="179" stroke="rgb(211, 123, 199)" stroke-width="1.0053705872878282" transform="rotate(267 727 75)" width="41" x="514" y="218" /><path d="M403,291 C103,488 713,133 506,40 L472,436 L65,214 Q270,347 418,401 C16,26 219,402 339,249 L501,24 L594,118" fill="none" stroke="rgb(194, 218, 22)" stroke-width="1.4943968519272819" /><rect fill="none" height="96" stroke="rgb(102, 44, 251)" stroke-width="0.9252955187603107" transform="rotate(209 690 504)" width="117" x="109" y="49" /></svg>