<svg baseProfile="full" height="753px" version="1.1" width="785px" xmlns="http://www.w3.org/2000/svg" xmlns:ev="http://www.w3.org/2001/xml-events" xmlns:xlink="http://www.w3.org/1999/xlink"><defs /><rect fill="rgb(202, 234, 201)" height="753px" width="785px" x="0" y="0" /><rect fill="none" height="48" stroke="rgb(218, 154, 111)" stroke-width="3.60067106484775" transform="rotate(71 310 515)" width="149" x="17" y="385" /><polygon fill="none" points="583,470 685,79 665,143 4,683" stroke="rgb(136, 253, 63)" stroke-width="1.9272394504059402" /><circle cx="312" cy="575" fill="none" opacity="0.7148085320035686" r="111" stroke="rgb(157, 146, 0)" stroke-width="4.185660998162761" /><circle cx="717" cy="404" fill="none" opacity="0.6123220004273218" r="177" stroke="rgb(49, 105, 188)" stroke-width="3.7662978931382134" /><line stroke="rgb(39, 159, 180)" stroke-width="1.7894324653150404" x1="527" x2="284" y1="514" y2="205" /><line stroke="rgb(135, 74, 175)" stroke-width="0.7662708066797328" x1="465" x2="670" y1="370" y2="102" /><line stroke="rgb(2, 133, 71)" stroke-width="0.7783365073965782" x1="568" x2="102" y1="139" y2="395" /><line stroke="rgb(27, 127, 146)" stroke-width="2.265880344253563" x1="183" x2="88" y1="230" y2="247" /><line stroke="rgb(245, 139, 67)" stroke-width="1.2619425081246431" x1="369" x2="110" y1="652" y2="245" /><line stroke="rgb(176, 128, 4)" stroke-width="1.3316771964908187" x1="10" x2="532" y1="289" y2="462" /><line stroke="rgb(38, 153, 167)" stroke-width="2.3475620122665397" x1="381" x2="19" y1="264" y2="263" /><line stroke="rgb(194, 121, 146)" stroke-width="0.581147888311546" x1="367" x2="415" y1="702" y2="69" /><line stroke="rgb(175, 58, 250)" stroke-width="2.9863414224986267" x1="286" x2="701" y1="443" y2="576" /><line stroke="rgb(108, 250, 137)" stroke-width="0.8225185182542591" x1="515" x2="737" y1="28" y2="80" /><circle cx="521" cy="374" fill="none" opacity="0.987605336976703" r="124" stroke="rgb(203, 240, 172)" stroke-width="1.278330604704649" /><line stroke="rgb(79, 146, 93)" stroke-width="2.2321669576530248" x1="741" x2="14" y1="589" y2="241" /><line stroke="rgb(223, 166, 34)" stroke-width="1.1259473840575875" x1="458" x2="462" y1="403" y2="142" /><line stroke="rgb(153, 151, 165)" stroke-width="1.0544058358493968" x1="334" x2="266" y1="580" y2="269" /><line stroke="rgb(34, 242, 99)" stroke-width="2.066552253820771" x1="351" x2="349" y1="737" y2="625" /><line stroke="rgb(195, 132, 57)" stroke-width="1.8310652235703366" x1="784" x2="219" y1="7" y2="59" /><line stroke="rgb(117, 23, 128)" stroke-width="1.2667554554299028" x1="221" x2="657" y1="330" y2="20" /><line stroke="rgb(13, 47, 65)" stroke-width="2.060980679673241" x1="183" x2="128" y1="138" y2="194" /><polygon fill="none" points="650,429 86,120 422,415 582,644 265,368 156,695 782,357 169,396" stroke="rgb(28, 181, 126)" stroke-width="2.9777892821284437" /><line stroke="rgb(236, 103, 69)" stroke-width="0.985435842519568" x1="614" x2="269" y1="467" y2="651" /><line stroke="rgb(174, 200, 2)" stroke-width="2.101106795255344" x1="16" x2="438" y1="394" y2="413" /><line stroke="rgb(130, 147, 137)" stroke-width="2.791826993173774" x1="136" x2="373" y1="12" y2="144" /><line stroke="rgb(200, 199, 58)" stroke-width="1.628350701853735" x1="665" x2="503" y1="53" y2="533" /><line stroke="rgb(1, 7, 207)" stroke-width="2.1293411501744623" x1="170" x2="412" y1="265" y2="641" /><line stroke="rgb(233, 181, 9)" stroke-width="2.9966478666470016" x1="301" x2="189" y1="419" y2="150" /><line stroke="rgb(100, 243, 193)" stroke-width="0.6031390716768338" x1="502" x2="200" y1="152" y2="432" /><line stroke="rgb(223, 65, 59)" stroke-width="1.4615743441146007" x1="158" x2="737" y1="174" y2="735" /><line stroke="rgb(217, 124, 194)" stroke-width="0.9108944548800075" x1="95" x2="213" y1="672" y2="599" /><line stroke="rgb(43, 204, 162)" stroke-width="0.5097179709444637" x1="12" x2="443" y1="89" y2="443" /><rect fill="none" height="64" stroke="rgb(1, 120, 153)" stroke-width="3.4719367510558614" transform="rotate(201 197 707)" width="129" x="328" y="373" /><line stroke="rgb(35, 106, 122)" stroke-width="1.0636543853666132" x1="101" x2="94" y1="34" y2="151" /><line stroke="rgb(139, 81, 207)" stroke-width="1.197368817679348" x1="213" x2="118" y1="332" y2="287" /><line stroke="rgb(99, 185, 48)" stroke-width="2.082043953867834" x1="702" x2="320" y1="463" y2="210" /><line stroke="rgb(170, 48, 112)" stroke-width="1.4196302700197825" x1="545" x2="459" y1="194" y2="532" /><line stroke="rgb(166, 53, 82)" stroke-width="1.8719991440199664" x1="338" x2="97" y1="403" y2="543" /><line stroke="rgb(152, 181, 170)" stroke-width="1.0398746547196613" x1="323" x2="372" y1="122" y2="184" /><line stroke="rgb(214, 49, 211)" stroke-width="1.5847234710824805" x1="60" x2="696" y1="17" y2="319" /><line stroke="rgb(107, 248, 44)" stroke-width="2.360703409055052" x1="430" x2="429" y1="373" y2="534" /><line stroke="rgb(229, 135, 243)" stroke-width="1.588167119617246" x1="475" x2="747" y1="609" y2="176" /><rect fill="none" height="36" stroke="rgb(154, 196, 104)" stroke-width="0.9562681284098996" transform="rotate(347 767 499)" width="110" x="528" y="105" /><line stroke="rgb(22, 49, 94)" stroke-width="2.942550643346405" x1="290" x2="364" y1="541" y2="705" /><line stroke="rgb(160, 249, 144)" stroke-width="1.7392223606780461" x1="176" x2="737" y1="37" y2="376" /><line stroke="rgb(255, 135, 251)" stroke-width="2.012724526833079" x1="416" x2="741" y1="404" y2="452" /><line stroke="rgb(128, 125, 165)" stroke-width="1.2763103823759911" x1="423" x2="247" y1="629" y2="658" /><line stroke="rgb(137, 192, 7)" stroke-width="0.7484370920822082" x1="99" x2="672" y1="242" y2="726" /><line stroke="rgb(222, 107, 177)" stroke-width="1.0912138447079713" x1="154" x2="300" y1="244" y2="326" /><line stroke="rgb(105, 84, 58)" stroke-width="1.7842735352709074" x1="344" x2="56" y1="737" y2="682" /><line stroke="rgb(235, 132, 252)" stroke-width="2.5107586082589632" x1="545" x2="156" y1="593" y2="724" /><line stroke="rgb(67, 9, 234)" stroke-width="2.0194340427440896" x1="140" x2="383" y1="440" y2="78" /><rect fill="none" height="20" stroke="rgb(112, 247, 97)" stroke-width="1.0562192677957696" transform="rotate(43 166 175)" width="100" x="198" y="74" /><line stroke="rgb(66, 183, 47)" stroke-width="2.2854903139583578" x1="71" x2="97" y1="78" y2="177" /><line stroke="rgb(93, 169, 83)" stroke-width="1.5654789532983915" x1="495" x2="716" y1="367" y2="509" /><line stroke="rgb(233, 100, 102)" stroke-width="1.9780009122004123" x1="99" x2="362" y1="669" y2="297" /><line stroke="rgb(27, 151, 10)" stroke-width="2.454518079559522" x1="41" x2="729" y1="396" y2="413" /><line stroke="rgb(80, 11, 155)" stroke-width="1.3928220460346452" x1="622" x2="528" y1="363" y2="299" /><line stroke="rgb(197, 132, 110)" stroke-width="2.2966751330993964" x1="247" x2="88" y1="194" y2="571" /><line stroke="rgb(236, 171, 66)" stroke-width="1.6715665464812393" x1="522" x2="693" y1="686" y2="627" /><line stroke="rgb(138, 125, 222)" stroke-width="0.6141208292669288" x1="338" x2="780" y1="174" y2="595" /><line stroke="rgb(25, 200, 212)" stroke-width="2.3141326145403696" x1="534" x2="379" y1="281" y2="466" /><line stroke="rgb(126, 234, 30)" stroke-width="0.5082201329491222" x1="451" x2="302" y1="731" y2="373" /><polygon fill="none" points="486,487 24,33 39,632 264,615" stroke="rgb(119, 24, 93)" stroke-width="2.350698249836057" /><polygon fill="none" points="428,76 777,200 322,535 189,519 40,579 76,546 296,734" stroke="rgb(174, 7, 141)" stroke-width="3.6579677707485923" /><circle cx="278" cy="549" fill="none" opacity="0.7442741064849552" r="150" stroke="rgb(26, 133, 12)" stroke-width="3.933523250749976" /><rect fill="none" height="114" stroke="rgb(207, 217, 93)" stroke-width="3.4854110701213004" transform="rotate(27 261 91)" width="47" x="31" y="402" /><path d="M650,703 L678,299 L482,140 C18,530 429,662 383,250" fill="none" stroke="rgb(239, 15, 177)" stroke-width="2.29435356440868" /><line stroke="rgb(200, 14, 148)" stroke-width="0.7814042862478296" x1="61" x2="537" y1="18" y2="517" /><line stroke="rgb(181, 31, 3)" stroke-width="2.42841600189855" x1="551" x2="134" y1="544" y2="467" /><line stroke="rgb(33, 31, 139)" stroke-width="2.214258832149894" x1="694" x2="240" y1="224" y2="365" /><line stroke="rgb(152, 113, 174)" stroke-width="1.8818792518883445" x1="401" x2="772" y1="348" y2="220" /><polygon fill="none" points="243,380 340,386 755,580" stroke="rgb(4, 153, 216)" stroke-width="2.71771706179453" /><polygon fill="none" points="482,681 298,681 721,655 386,630 215,171 759,176 414,460 434,257" stroke="rgb(113, 164, 213)" stroke-width="2.759154959367352" /></svg>