<svg baseProfile="full" height="654px" version="1.1" width="765px" xmlns="http://www.w3.org/2000/svg" xmlns:ev="http://www.w3.org/2001/xml-events" xmlns:xlink="http://www.w3.org/1999/xlink"><defs /><rect fill="rgb(251, 206, 212)" height="654px" width="765px" x="0" y="0" /><path d="M422,10 Q187,185 736,80 Q604,602 666,461 C648,166 64,64 1,290 Q764,85 231,109 C477,617 131,255 508,558 C247,97 563,112 642,490 C623,130 92,91 293,290" fill="none" stroke="rgb(248, 199, 251)" stroke-width="2.731960725347169" /><polygon fill="none" points="379,224 676,459 92,42" stroke="rgb(206, 0, 69)" stroke-width="1.8009425180025675" /><line stroke="rgb(179, 120, 2)" stroke-width="2.478463735501532" x1="311" x2="402" y1="114" y2="152" /><line stroke="rgb(55, 234, 150)" stroke-width="0.8219298576943108" x1="469" x2="586" y1="457" y2="98" /><line stroke="rgb(38, 113, 216)" stroke-width="1.6398739673752498" x1="710" x2="59" y1="188" y2="409" /><line stroke="rgb(194, 54, 34)" stroke-width="2.47970240884248" x1="436" x2="519" y1="122" y2="28" /><line stroke="rgb(3, 158, 52)" stroke-width="1.951784211961391" x1="695" x2="519" y1="438" y2="425" /><line stroke="rgb(181, 230, 125)" stroke-width="0.6938760594204808" x1="36" x2="423" y1="442" y2="384" /><line stroke="rgb(202, 212, 134)" stroke-width="2.638005132661784" x1="697" x2="321" y1="342" y2="454" /><line stroke="rgb(241, 110, 221)" stroke-width="2.0210436516816" x1="338" x2="488" y1="109" y2="23" /><line stroke="rgb(48, 92, 143)" stroke-width="2.4660059071374305" x1="404" x2="28" y1="373" y2="261" /><line stroke="rgb(1, 42, 47)" stroke-width="1.3599401498560386" x1="671" x2="701" y1="408" y2="287" /><line stroke="rgb(167, 163, 77)" stroke-width="1.6867352301830723" x1="149" x2="557" y1="122" y2="272" /><line stroke="rgb(152, 116, 152)" stroke-width="2.9401978041377292" x1="88" x2="398" y1="479" y2="553" /><line stroke="rgb(60, 235, 243)" stroke-width="1.235037568169496" x1="399" x2="452" y1="510" y2="19" /><line stroke="rgb(184, 106, 37)" stroke-width="2.5050245630828205" x1="146" x2="589" y1="292" y2="361" /><line stroke="rgb(1, 255, 144)" stroke-width="0.5424131403890518" x1="80" x2="429" y1="592" y2="55" /><polygon fill="none" points="282,311 736,375 422,361 359,171 646,612 359,343 486,546" stroke="rgb(51, 149, 16)" stroke-width="1.166786320128751" /><circle cx="629" cy="156" fill="none" opacity="0.3840724400228376" r="156" stroke="rgb(90, 201, 109)" stroke-width="2.009331219179066" /><circle cx="249" cy="542" fill="none" opacity="0.6608598566426753" r="43" stroke="rgb(48, 180, 216)" stroke-width="4.658352304538044" /><polygon fill="none" points="347,427 106,552 210,387 708,441 398,105 475,483 499,364 120,527" stroke="rgb(201, 16, 8)" stroke-width="1.7578002781417201" /><line stroke="rgb(131, 21, 29)" stroke-width="1.5372189235638463" x1="616" x2="576" y1="304" y2="573" /><line stroke="rgb(198, 222, 172)" stroke-width="1.1600938057597683" x1="486" x2="246" y1="252" y2="356" /><line stroke="rgb(80, 45, 105)" stroke-width="1.0160997294679512" x1="189" x2="489" y1="119" y2="354" /><line stroke="rgb(150, 229, 44)" stroke-width="1.73204385070431" x1="129" x2="146" y1="182" y2="567" /><line stroke="rgb(38, 92, 90)" stroke-width="0.6008174997923126" x1="578" x2="367" y1="486" y2="424" /><line stroke="rgb(157, 158, 129)" stroke-width="2.669219296713198" x1="426" x2="544" y1="85" y2="357" /><line stroke="rgb(11, 189, 59)" stroke-width="0.5996029382546668" x1="544" x2="133" y1="31" y2="148" /><line stroke="rgb(75, 143, 108)" stroke-width="2.3058909269009296" x1="103" x2="208" y1="587" y2="630" /><line stroke="rgb(40, 247, 219)" stroke-width="2.021598161575471" x1="642" x2="478" y1="313" y2="280" /><line stroke="rgb(224, 13, 4)" stroke-width="0.6474474090403155" x1="580" x2="72" y1="367" y2="469" /><line stroke="rgb(249, 9, 157)" stroke-width="1.506774942305381" x1="633" x2="334" y1="75" y2="162" /><line stroke="rgb(25, 177, 233)" stroke-width="0.6318931354245934" x1="722" x2="687" y1="177" y2="428" /><line stroke="rgb(101, 101, 107)" stroke-width="2.997998667137538" x1="459" x2="393" y1="393" y2="377" /><line stroke="rgb(20, 179, 207)" stroke-width="1.812636696896713" x1="355" x2="465" y1="499" y2="74" /><rect fill="none" height="188" stroke="rgb(249, 234, 124)" stroke-width="4.0832176580691755" transform="rotate(264 173 269)" width="163" x="534" y="553" /><polygon fill="none" points="327,472 404,252 430,123 151,620" stroke="rgb(72, 48, 19)" stroke-width="2.942564337395609" /><line stroke="rgb(230, 104, 94)" stroke-width="0.632342668428102" x1="681" x2="79" y1="59" y2="198" /><line stroke="rgb(100, 168, 70)" stroke-width="1.69469284797022" x1="660" x2="390" y1="214" y2="329" /><line stroke="rgb(241, 188, 200)" stroke-width="2.5400492115408064" x1="476" x2="574" y1="543" y2="408" /><line stroke="rgb(47, 252, 2)" stroke-width="2.4044931600932187" x1="392" x2="432" y1="559" y2="64" /><line stroke="rgb(139, 174, 182)" stroke-width="1.5569702770645397" x1="576" x2="505" y1="642" y2="308" /><line stroke="rgb(78, 91, 169)" stroke-width="1.36753734718982" x1="114" x2="636" y1="406" y2="377" /><line stroke="rgb(177, 143, 254)" stroke-width="0.8622437844209401" x1="175" x2="575" y1="48" y2="34" /><line stroke="rgb(45, 101, 190)" stroke-width="1.788625207560214" x1="174" x2="428" y1="614" y2="476" /><line stroke="rgb(93, 151, 33)" stroke-width="0.9691895678972715" x1="431" x2="582" y1="510" y2="512" /><path d="M193,551 C184,10 19,26 731,355 L344,542 Q509,487 155,239 L451,512 C545,537 632,445 614,560 Q234,33 423,69 L477,210" fill="none" stroke="rgb(117, 184, 211)" stroke-width="2.406784777518824" /><line stroke="rgb(180, 6, 249)" stroke-width="2.783864544059437" x1="173" x2="617" y1="586" y2="480" /><line stroke="rgb(137, 198, 201)" stroke-width="0.5448142009788066" x1="257" x2="407" y1="201" y2="583" /><line stroke="rgb(145, 163, 32)" stroke-width="2.0308852124747396" x1="25" x2="511" y1="5" y2="581" /><line stroke="rgb(62, 61, 38)" stroke-width="2.3746567532492087" x1="9" x2="260" y1="77" y2="380" /><line stroke="rgb(197, 134, 249)" stroke-width="2.2309943599777813" x1="444" x2="688" y1="137" y2="472" /><line stroke="rgb(223, 85, 233)" stroke-width="0.5225633307243687" x1="41" x2="703" y1="99" y2="116" /><line stroke="rgb(180, 15, 85)" stroke-width="2.3168478255819793" x1="174" x2="373" y1="523" y2="339" /><polygon fill="none" points="274,27 588,59 516,465 622,544 176,133 604,225 709,17" stroke="rgb(52, 53, 157)" stroke-width="1.6999214385694699" /><polygon fill="none" points="226,214 301,546 423,111" stroke="rgb(138, 6, 125)" stroke-width="3.8697449115012303" /><rect fill="none" height="131" stroke="rgb(25, 228, 190)" stroke-width="3.754845616572996" transform="rotate(177 290 222)" width="77" x="112" y="247" /></svg>