<svg baseProfile="full" height="721px" version="1.1" width="808px" xmlns="http://www.w3.org/2000/svg" xmlns:ev="http://www.w3.org/2001/xml-events" xmlns:xlink="http://www.w3.org/1999/xlink"><defs /><rect fill="rgb(206, 232, 242)" height="721px" width="808px" x="0" y="0" /><circle cx="68" cy="66" fill="none" opacity="0.939986899023916" r="19" stroke="rgb(11, 205, 5)" stroke-width="1.7367262684730256" /><polygon fill="none" points="648,476 618,530 4,120 184,567 713,266 631,605" stroke="rgb(32, 55, 17)" stroke-width="3.2412428788906977" /><polygon fill="none" points="732,713 121,78 19,254 665,176 352,241 196,363" stroke="rgb(116, 195, 74)" stroke-width="1.2629437627401658" /><line stroke="rgb(5, 195, 173)" stroke-width="1.5503622145266125" x1="405" x2="281" y1="339" y2="550" /><line stroke="rgb(245, 80, 25)" stroke-width="0.745571713770617" x1="249" x2="697" y1="432" y2="324" /><line stroke="rgb(246, 179, 183)" stroke-width="2.4151813956585704" x1="248" x2="615" y1="72" y2="593" /><line stroke="rgb(79, 4, 40)" stroke-width="1.4138067621987012" x1="263" x2="287" y1="260" y2="257" /><line stroke="rgb(137, 195, 231)" stroke-width="1.9966248661619985" x1="305" x2="25" y1="24" y2="74" /><line stroke="rgb(211, 200, 168)" stroke-width="2.0792981168433116" x1="57" x2="42" y1="633" y2="34" /><rect fill="none" height="85" stroke="rgb(113, 77, 13)" stroke-width="1.9702254242260047" transform="rotate(41 505 66)" width="90" x="125" y="339" /><path d="M470,143 Q132,647 493,698 L290,281 Q319,601 35,460 L4,201 C733,572 590,284 46,557 C13,625 749,614 365,559" fill="none" stroke="rgb(66, 224, 152)" stroke-width="0.7547487026749945" /><path d="M676,150 C736,399 77,557 394,483 C647,541 603,115 544,551 L427,357 L293,587" fill="none" stroke="rgb(139, 247, 18)" stroke-width="2.6957734397401967" /><circle cx="447" cy="238" fill="none" opacity="0.3861574209950196" r="90" stroke="rgb(193, 174, 47)" stroke-width="1.4419169850342946" /><path d="M133,62 C381,595 447,168 224,365 L749,575 Q637,340 84,553" fill="none" stroke="rgb(123, 208, 153)" stroke-width="1.568784906417179" /><path d="M556,223 L568,20 C223,605 77,510 184,513 L592,627 L232,185 L804,680 C662,61 565,297 587,199" fill="none" stroke="rgb(130, 110, 172)" stroke-width="2.6431066207724703" /><circle cx="736" cy="448" fill="none" opacity="0.806795139968655" r="38" stroke="rgb(167, 204, 170)" stroke-width="2.1238095938528514" /><rect fill="none" height="94" stroke="rgb(91, 56, 14)" stroke-width="1.4025138583425463" transform="rotate(207 57 60)" width="198" x="2" y="120" /><polygon fill="none" points="246,161 761,184 373,284" stroke="rgb(133, 42, 233)" stroke-width="1.2906475699274123" /><rect fill="none" height="83" stroke="rgb(80, 86, 230)" stroke-width="2.342183617993875" transform="rotate(326 375 398)" width="197" x="413" y="464" /><circle cx="445" cy="651" fill="none" opacity="0.6394487925294396" r="41" stroke="rgb(49, 249, 73)" stroke-width="4.146207448557605" /><rect fill="none" height="113" stroke="rgb(20, 223, 180)" stroke-width="0.5282600277740913" transform="rotate(19 618 40)" width="168" x="443" y="504" /><path d="M72,272 C491,216 790,549 133,707 L44,6 C58,409 497,292 266,692" fill="none" stroke="rgb(131, 72, 128)" stroke-width="0.8215757117156254" /><path d="M512,430 Q146,122 53,575 Q196,630 33,470 C798,77 328,697 514,202 Q483,692 787,720 C545,511 711,305 189,527 Q609,108 658,520 Q411,200 489,712" fill="none" stroke="rgb(124, 107, 67)" stroke-width="2.1281516847910997" /><rect fill="none" height="122" stroke="rgb(76, 2, 20)" stroke-width="0.931194065728465" transform="rotate(56 767 514)" width="31" x="551" y="187" /><polygon fill="none" points="442,102 449,462 135,548 13,155 732,291 530,205 740,582 94,500" stroke="rgb(54, 80, 250)" stroke-width="1.8301075776305078" /><line stroke="rgb(219, 82, 46)" stroke-width="2.4753148162388743" x1="31" x2="625" y1="387" y2="139" /><line stroke="rgb(80, 55, 211)" stroke-width="1.603137102317204" x1="494" x2="680" y1="600" y2="60" /><line stroke="rgb(188, 124, 20)" stroke-width="2.839411691358239" x1="74" x2="525" y1="114" y2="377" /><line stroke="rgb(54, 37, 41)" stroke-width="2.9413848562229665" x1="648" x2="140" y1="418" y2="555" /><line stroke="rgb(209, 170, 250)" stroke-width="2.7166472964795765" x1="36" x2="256" y1="215" y2="142" /><line stroke="rgb(119, 226, 204)" stroke-width="1.4443675253961172" x1="86" x2="808" y1="119" y2="247" /><line stroke="rgb(69, 220, 24)" stroke-width="1.0638452517291914" x1="753" x2="457" y1="233" y2="32" /><rect fill="none" height="171" stroke="rgb(138, 118, 219)" stroke-width="0.6451414788299621" transform="rotate(202 684 515)" width="91" x="21" y="546" /><line stroke="rgb(249, 147, 61)" stroke-width="1.4564565064770192" x1="550" x2="481" y1="648" y2="281" /><line stroke="rgb(251, 225, 148)" stroke-width="1.0207732153852072" x1="125" x2="493" y1="97" y2="13" /><line stroke="rgb(184, 92, 32)" stroke-width="2.07152126512629" x1="808" x2="263" y1="619" y2="14" /><line stroke="rgb(122, 114, 137)" stroke-width="2.43422000317499" x1="108" x2="540" y1="537" y2="417" /><line stroke="rgb(117, 84, 127)" stroke-width="2.5034389827357444" x1="739" x2="772" y1="0" y2="74" /><line stroke="rgb(135, 9, 176)" stroke-width="2.834406805176658" x1="315" x2="561" y1="678" y2="342" /><line stroke="rgb(195, 133, 193)" stroke-width="1.4073965756517353" x1="111" x2="715" y1="657" y2="78" /><line stroke="rgb(149, 205, 131)" stroke-width="1.875161486877332" x1="765" x2="84" y1="452" y2="679" /><line stroke="rgb(134, 204, 88)" stroke-width="0.573326227842509" x1="115" x2="663" y1="292" y2="694" /><line stroke="rgb(0, 197, 200)" stroke-width="0.7286804236671094" x1="222" x2="131" y1="453" y2="294" /><line stroke="rgb(32, 28, 10)" stroke-width="1.0923067147135943" x1="120" x2="486" y1="389" y2="142" /><line stroke="rgb(16, 34, 71)" stroke-width="2.5834418668963868" x1="659" x2="711" y1="694" y2="145" /><circle cx="251" cy="609" fill="none" opacity="0.8853885221623063" r="92" stroke="rgb(179, 172, 244)" stroke-width="2.7974209165048105" /><circle cx="432" cy="445" fill="none" opacity="0.7505943582380694" r="104" stroke="rgb(6, 142, 227)" stroke-width="4.607562621353652" /><polygon fill="none" points="124,650 387,507 199,450" stroke="rgb(90, 84, 155)" stroke-width="3.0355838486441717" /><polygon fill="none" points="337,186 7,327 515,498 668,35" stroke="rgb(54, 50, 10)" stroke-width="2.122850047077459" /><line stroke="rgb(53, 134, 56)" stroke-width="1.3691549026935492" x1="145" x2="329" y1="248" y2="3" /><line stroke="rgb(92, 80, 165)" stroke-width="1.6954071014121201" x1="141" x2="578" y1="676" y2="84" /><line stroke="rgb(104, 121, 205)" stroke-width="0.5831140774862599" x1="680" x2="628" y1="502" y2="289" /><line stroke="rgb(8, 233, 89)" stroke-width="1.0637957499689907" x1="392" x2="466" y1="643" y2="163" /><line stroke="rgb(70, 82, 74)" stroke-width="2.604254558746651" x1="505" x2="198" y1="238" y2="443" /><line stroke="rgb(104, 171, 18)" stroke-width="0.6504806419116875" x1="782" x2="691" y1="317" y2="35" /><line stroke="rgb(100, 73, 139)" stroke-width="1.8487546151335714" x1="707" x2="52" y1="159" y2="59" /><line stroke="rgb(224, 218, 73)" stroke-width="2.3517652861736287" x1="476" x2="302" y1="463" y2="368" /><line stroke="rgb(180, 69, 5)" stroke-width="1.2406591689783584" x1="35" x2="555" y1="412" y2="595" /><rect fill="none" height="46" stroke="rgb(56, 215, 0)" stroke-width="1.9571566242338452" transform="rotate(289 449 700)" width="58" x="173" y="514" /><circle cx="529" cy="501" fill="none" opacity="0.48485633206084466" r="91" stroke="rgb(183, 99, 196)" stroke-width="1.326684779265924" /><line stroke="rgb(5, 129, 137)" stroke-width="2.3469296827087813" x1="693" x2="632" y1="262" y2="643" /><line stroke="rgb(149, 21, 141)" stroke-width="1.9477338961252004" x1="206" x2="525" y1="269" y2="265" /><line stroke="rgb(53, 91, 202)" stroke-width="1.6747731461145807" x1="103" x2="764" y1="428" y2="501" /><line stroke="rgb(175, 21, 50)" stroke-width="1.9346815827980843" x1="245" x2="482" y1="666" y2="468" /><line stroke="rgb(49, 149, 50)" stroke-width="1.2264576959215572" x1="313" x2="776" y1="630" y2="354" /><rect fill="none" height="131" stroke="rgb(98, 142, 155)" stroke-width="2.2192750390475107" transform="rotate(331 544 201)" width="128" x="47" y="78" /><rect fill="none" height="48" stroke="rgb(140, 181, 213)" stroke-width="4.436732055486342" transform="rotate(119 692 168)" width="177" x="80" y="459" /><rect fill="none" height="200" stroke="rgb(227, 235, 194)" stroke-width="1.8622382131947148" transform="rotate(292 733 676)" width="43" x="287" y="165" /></svg>