<svg baseProfile="full" height="797px" version="1.1" width="1042px" xmlns="http://www.w3.org/2000/svg" xmlns:ev="http://www.w3.org/2001/xml-events" xmlns:xlink="http://www.w3.org/1999/xlink"><defs /><rect fill="rgb(246, 226, 240)" height="797px" width="1042px" x="0" y="0" /><polygon fill="none" points="453,776 994,569 980,136 765,265" stroke="rgb(125, 57, 154)" stroke-width="1.1605666138525796" /><rect fill="none" height="139" stroke="rgb(12, 72, 92)" stroke-width="4.359691078039129" transform="rotate(260 658 354)" width="93" x="177" y="507" /><line stroke="rgb(166, 32, 151)" stroke-width="1.7239212066664211" x1="28" x2="240" y1="786" y2="534" /><line stroke="rgb(197, 102, 203)" stroke-width="1.9871043779392235" x1="7" x2="516" y1="654" y2="659" /><line stroke="rgb(3, 112, 143)" stroke-width="0.676350205702219" x1="513" x2="955" y1="192" y2="5" /><line stroke="rgb(248, 199, 238)" stroke-width="0.6578242811583555" x1="600" x2="939" y1="141" y2="540" /><line stroke="rgb(254, 62, 88)" stroke-width="1.6362760364873459" x1="913" x2="795" y1="111" y2="185" /><line stroke="rgb(146, 243, 26)" stroke-width="1.0677725142109002" x1="575" x2="701" y1="170" y2="646" /><line stroke="rgb(203, 81, 78)" stroke-width="2.279914754557451" x1="371" x2="904" y1="421" y2="461" /><line stroke="rgb(13, 191, 144)" stroke-width="0.9667965909177352" x1="548" x2="538" y1="692" y2="604" /><rect fill="none" height="110" stroke="rgb(95, 58, 135)" stroke-width="4.8820234678290495" transform="rotate(318 682 702)" width="183" x="686" y="80" /><path d="M1028,399 C494,386 687,338 349,228 Q130,168 374,223 L865,194" fill="none" stroke="rgb(156, 24, 20)" stroke-width="1.986643475557449" /><circle cx="825" cy="122" fill="none" opacity="0.8429471083569389" r="109" stroke="rgb(203, 52, 71)" stroke-width="2.4816976664405725" /><rect fill="none" height="140" stroke="rgb(222, 210, 87)" stroke-width="3.440234630099894" transform="rotate(265 104 619)" width="195" x="787" y="361" /><rect fill="none" height="84" stroke="rgb(174, 40, 249)" stroke-width="4.303658288652233" transform="rotate(65 24 491)" width="95" x="535" y="526" /><line stroke="rgb(179, 130, 125)" stroke-width="2.9507064202495714" x1="697" x2="106" y1="84" y2="99" /><line stroke="rgb(142, 36, 191)" stroke-width="1.0171428689364888" x1="240" x2="700" y1="364" y2="48" /><line stroke="rgb(242, 59, 154)" stroke-width="2.9760760935368675" x1="580" x2="406" y1="719" y2="134" /><line stroke="rgb(131, 224, 243)" stroke-width="0.9011738425880623" x1="397" x2="761" y1="745" y2="680" /><line stroke="rgb(166, 151, 242)" stroke-width="2.7142970793648282" x1="170" x2="274" y1="628" y2="724" /><line stroke="rgb(90, 160, 81)" stroke-width="0.9084939234013096" x1="373" x2="532" y1="132" y2="644" /><line stroke="rgb(97, 144, 223)" stroke-width="2.992654515907295" x1="1006" x2="473" y1="334" y2="730" /><circle cx="304" cy="576" fill="none" opacity="0.5105207019544676" r="195" stroke="rgb(164, 206, 69)" stroke-width="3.9174240851797784" /><rect fill="none" height="80" stroke="rgb(47, 139, 80)" stroke-width="3.4574106069503916" transform="rotate(77 504 746)" width="150" x="247" y="285" /><line stroke="rgb(160, 143, 69)" stroke-width="2.164691213794354" x1="680" x2="761" y1="522" y2="152" /><line stroke="rgb(107, 100, 240)" stroke-width="0.935406732844368" x1="882" x2="561" y1="423" y2="639" /><line stroke="rgb(254, 253, 55)" stroke-width="2.747944456444074" x1="542" x2="722" y1="506" y2="431" /><line stroke="rgb(91, 119, 97)" stroke-width="1.9402553693861553" x1="9" x2="6" y1="422" y2="671" /><line stroke="rgb(82, 151, 156)" stroke-width="2.6673274940661704" x1="883" x2="990" y1="431" y2="171" /><line stroke="rgb(177, 88, 134)" stroke-width="1.758643939030997" x1="431" x2="1006" y1="62" y2="40" /><line stroke="rgb(213, 118, 93)" stroke-width="2.9508517126019487" x1="1015" x2="940" y1="658" y2="50" /><line stroke="rgb(189, 85, 179)" stroke-width="1.7274261621174232" x1="62" x2="333" y1="701" y2="372" /><line stroke="rgb(128, 202, 33)" stroke-width="1.3284701289536136" x1="514" x2="52" y1="77" y2="409" /><circle cx="527" cy="190" fill="none" opacity="0.31596067763114083" r="194" stroke="rgb(131, 121, 235)" stroke-width="2.042695031517119" /><path d="M165,156 L108,626 Q229,663 373,251 L974,618 L506,169 C610,211 676,673 873,254" fill="none" stroke="rgb(97, 105, 98)" stroke-width="1.3855080828442121" /><polygon fill="none" points="765,508 1003,54 131,450 762,597" stroke="rgb(93, 197, 148)" stroke-width="3.217867362343392" /><rect fill="none" height="146" stroke="rgb(194, 239, 255)" stroke-width="4.109718911778058" transform="rotate(334 496 76)" width="154" x="888" y="579" /><circle cx="328" cy="673" fill="none" opacity="0.8798009343839379" r="195" stroke="rgb(231, 205, 106)" stroke-width="4.268803348227109" /><path d="M82,349 L837,662 L434,794 L256,555" fill="none" stroke="rgb(247, 13, 217)" stroke-width="2.4289457237210597" /><rect fill="none" height="71" stroke="rgb(58, 238, 51)" stroke-width="2.039359052479992" transform="rotate(57 147 293)" width="83" x="164" y="620" /><circle cx="333" cy="82" fill="none" opacity="0.7350001156732371" r="93" stroke="rgb(238, 24, 48)" stroke-width="3.1990671423539334" /></svg>