<svg baseProfile="full" height="498px" version="1.1" width="992px" xmlns="http://www.w3.org/2000/svg" xmlns:ev="http://www.w3.org/2001/xml-events" xmlns:xlink="http://www.w3.org/1999/xlink"><defs /><rect fill="rgb(213, 249, 232)" height="498px" width="992px" x="0" y="0" /><rect fill="none" height="147" stroke="rgb(46, 141, 206)" stroke-width="4.830116221851247" transform="rotate(2 540 279)" width="190" x="666" y="181" /><polygon fill="none" points="358,215 186,158 717,422" stroke="rgb(23, 192, 82)" stroke-width="1.168280749255987" /><polygon fill="none" points="86,164 814,350 884,489 456,27 532,386 207,355 249,171" stroke="rgb(254, 235, 53)" stroke-width="0.7770659360943782" /><circle cx="570" cy="145" fill="none" opacity="0.8273115667541109" r="67" stroke="rgb(99, 120, 58)" stroke-width="4.847526767015181" /><line stroke="rgb(19, 204, 148)" stroke-width="2.397835539165942" x1="948" x2="943" y1="402" y2="456" /><line stroke="rgb(5, 77, 16)" stroke-width="0.8060591286920535" x1="736" x2="513" y1="288" y2="266" /><line stroke="rgb(45, 238, 224)" stroke-width="0.5816441752992161" x1="209" x2="114" y1="136" y2="10" /><line stroke="rgb(230, 235, 67)" stroke-width="0.8250639287198037" x1="934" x2="429" y1="489" y2="406" /><line stroke="rgb(88, 251, 89)" stroke-width="0.6478282323440688" x1="884" x2="817" y1="165" y2="296" /><line stroke="rgb(188, 73, 43)" stroke-width="2.0342000639171194" x1="106" x2="243" y1="251" y2="29" /><rect fill="none" height="137" stroke="rgb(71, 80, 107)" stroke-width="1.5341672014433176" transform="rotate(341 778 51)" width="80" x="768" y="316" /><polygon fill="none" points="436,35 896,145 10,191 242,54 356,46 882,46 500,205" stroke="rgb(9, 232, 35)" stroke-width="3.9212507061163535" /><polygon fill="none" points="292,87 792,174 979,357" stroke="rgb(34, 252, 207)" stroke-width="1.8613029199279771" /><line stroke="rgb(98, 161, 203)" stroke-width="2.208252627763252" x1="876" x2="962" y1="375" y2="93" /><line stroke="rgb(192, 157, 190)" stroke-width="1.6330261595089983" x1="796" x2="317" y1="148" y2="312" /><line stroke="rgb(27, 137, 237)" stroke-width="0.5892424423975613" x1="37" x2="659" y1="167" y2="348" /><line stroke="rgb(254, 33, 166)" stroke-width="1.4169036180131473" x1="865" x2="874" y1="436" y2="389" /><path d="M919,364 C896,396 772,497 220,9 L575,419 L913,436 L372,354 C494,339 869,319 743,147" fill="none" stroke="rgb(189, 3, 114)" stroke-width="1.766895740689572" /><polygon fill="none" points="938,124 306,449 526,39" stroke="rgb(33, 75, 106)" stroke-width="3.833772645765425" /><path d="M924,321 Q70,4 619,228 C360,226 266,474 575,229 Q142,430 248,225 Q612,83 707,349 C884,181 249,491 821,209 L567,17 C89,492 398,233 856,46" fill="none" stroke="rgb(139, 246, 152)" stroke-width="2.055366960306568" /><line stroke="rgb(44, 9, 238)" stroke-width="1.3159642786120087" x1="631" x2="161" y1="32" y2="449" /><line stroke="rgb(108, 61, 159)" stroke-width="0.6966249938316014" x1="456" x2="304" y1="233" y2="409" /><line stroke="rgb(104, 25, 30)" stroke-width="1.3170870893185063" x1="663" x2="707" y1="131" y2="390" /><line stroke="rgb(34, 13, 174)" stroke-width="1.4475585964283404" x1="243" x2="267" y1="10" y2="410" /><line stroke="rgb(107, 162, 65)" stroke-width="1.6097874675666528" x1="640" x2="331" y1="290" y2="167" /><line stroke="rgb(47, 127, 43)" stroke-width="1.7107248142419702" x1="972" x2="723" y1="261" y2="325" /><line stroke="rgb(105, 132, 187)" stroke-width="2.785175262107709" x1="801" x2="89" y1="0" y2="314" /><line stroke="rgb(181, 219, 83)" stroke-width="2.740615300648969" x1="228" x2="927" y1="141" y2="268" /><line stroke="rgb(118, 125, 92)" stroke-width="1.0650606149349326" x1="291" x2="939" y1="377" y2="301" /><line stroke="rgb(75, 50, 236)" stroke-width="1.8712739544657824" x1="269" x2="836" y1="40" y2="92" /><line stroke="rgb(231, 186, 168)" stroke-width="1.1388679899285867" x1="64" x2="744" y1="467" y2="242" /><line stroke="rgb(150, 95, 144)" stroke-width="0.7737456385744652" x1="301" x2="597" y1="209" y2="455" /><line stroke="rgb(240, 177, 51)" stroke-width="2.650277361601713" x1="221" x2="966" y1="390" y2="35" /><line stroke="rgb(77, 184, 71)" stroke-width="2.6028710574693603" x1="647" x2="108" y1="305" y2="242" /><line stroke="rgb(253, 88, 179)" stroke-width="1.1177778099466638" x1="128" x2="391" y1="233" y2="67" /><line stroke="rgb(39, 91, 123)" stroke-width="1.699278274398091" x1="198" x2="434" y1="212" y2="383" /><line stroke="rgb(101, 240, 158)" stroke-width="1.4127012357588005" x1="233" x2="777" y1="404" y2="69" /><circle cx="469" cy="61" fill="none" opacity="0.6856740409938117" r="16" stroke="rgb(53, 105, 124)" stroke-width="2.57054155376333" /><rect fill="none" height="94" stroke="rgb(53, 111, 210)" stroke-width="3.9925691931377023" transform="rotate(262 965 238)" width="60" x="404" y="232" /><line stroke="rgb(37, 132, 196)" stroke-width="2.879022188975158" x1="45" x2="905" y1="154" y2="374" /><line stroke="rgb(229, 158, 98)" stroke-width="1.873267456107511" x1="487" x2="207" y1="29" y2="229" /><line stroke="rgb(162, 198, 111)" stroke-width="1.152955675615268" x1="510" x2="833" y1="445" y2="210" /><line stroke="rgb(116, 182, 61)" stroke-width="1.0239255363997397" x1="627" x2="64" y1="190" y2="123" /><line stroke="rgb(168, 138, 112)" stroke-width="2.593005389030686" x1="309" x2="524" y1="56" y2="43" /><line stroke="rgb(117, 112, 231)" stroke-width="1.470308115051882" x1="395" x2="669" y1="307" y2="311" /><line stroke="rgb(118, 160, 180)" stroke-width="1.7481371153151684" x1="625" x2="386" y1="106" y2="161" /><line stroke="rgb(95, 96, 21)" stroke-width="1.0163601301126537" x1="421" x2="478" y1="250" y2="397" /><line stroke="rgb(248, 225, 160)" stroke-width="2.555274607329437" x1="309" x2="636" y1="90" y2="373" /><circle cx="287" cy="335" fill="none" opacity="0.4647892771524244" r="111" stroke="rgb(202, 158, 160)" stroke-width="2.215728097149989" /><circle cx="894" cy="406" fill="none" opacity="0.6947613485190418" r="23" stroke="rgb(76, 117, 124)" stroke-width="3.6684776251784816" /><circle cx="746" cy="115" fill="none" opacity="0.5396899133316325" r="109" stroke="rgb(59, 15, 79)" stroke-width="4.675843218390391" /><polygon fill="none" points="621,33 28,137 902,423 367,325" stroke="rgb(51, 121, 231)" stroke-width="1.0537708842182703" /><rect fill="none" height="189" stroke="rgb(78, 161, 50)" stroke-width="0.810437348916621" transform="rotate(359 991 408)" width="151" x="117" y="301" /><polygon fill="none" points="730,197 79,432 532,339 363,447 914,489 261,267 810,425 412,313" stroke="rgb(129, 222, 184)" stroke-width="2.354393509223483" /><polygon fill="none" points="847,141 140,80 612,212 611,392 911,360 683,142 729,248 858,286" stroke="rgb(4, 186, 226)" stroke-width="2.3824493306189387" /><line stroke="rgb(24, 124, 122)" stroke-width="1.166628434493002" x1="801" x2="897" y1="316" y2="85" /><line stroke="rgb(163, 243, 231)" stroke-width="0.773621735041526" x1="435" x2="875" y1="293" y2="75" /><line stroke="rgb(203, 203, 79)" stroke-width="1.1061802633819102" x1="162" x2="749" y1="473" y2="401" /><line stroke="rgb(124, 140, 38)" stroke-width="1.2599476351553522" x1="672" x2="725" y1="455" y2="159" /><line stroke="rgb(7, 17, 86)" stroke-width="2.1312402071966616" x1="791" x2="180" y1="240" y2="201" /><line stroke="rgb(154, 79, 178)" stroke-width="2.363481934402854" x1="592" x2="485" y1="368" y2="427" /><rect fill="none" height="135" stroke="rgb(92, 115, 97)" stroke-width="0.5684974345930612" transform="rotate(109 602 197)" width="167" x="661" y="33" /><circle cx="477" cy="416" fill="none" opacity="0.6803548475408486" r="54" stroke="rgb(235, 9, 65)" stroke-width="1.9708737428283214" /><line stroke="rgb(53, 235, 122)" stroke-width="1.138457487119212" x1="488" x2="800" y1="164" y2="156" /><line stroke="rgb(19, 187, 52)" stroke-width="1.9529617679252813" x1="213" x2="870" y1="392" y2="258" /><line stroke="rgb(118, 43, 151)" stroke-width="0.5701311011886319" x1="818" x2="460" y1="155" y2="298" /><line stroke="rgb(144, 26, 188)" stroke-width="1.0418767431057805" x1="248" x2="566" y1="281" y2="109" /><line stroke="rgb(52, 180, 34)" stroke-width="2.994762763480841" x1="569" x2="843" y1="417" y2="147" /><circle cx="296" cy="200" fill="none" opacity="0.48098394347648155" r="88" stroke="rgb(92, 228, 201)" stroke-width="2.830818201479848" /><path d="M933,170 C377,199 642,46 179,306 L281,223 L731,256 Q865,66 5,408 Q66,249 59,84 C586,153 287,241 439,166" fill="none" stroke="rgb(119, 142, 73)" stroke-width="1.5090004235959986" /><polygon fill="none" points="231,104 51,101 83,58 942,377 739,409 220,122 553,218" stroke="rgb(204, 255, 127)" stroke-width="2.1696908089032756" /><rect fill="none" height="102" stroke="rgb(50, 212, 236)" stroke-width="2.028918391345618" transform="rotate(149 789 453)" width="106" x="633" y="286" /><polygon fill="none" points="473,399 354,283 609,101 521,320" stroke="rgb(42, 240, 70)" stroke-width="2.5681132585249125" /><path d="M368,2 L384,339 Q584,174 888,28 L592,174" fill="none" stroke="rgb(220, 212, 91)" stroke-width="1.7844129331440883" /><path d="M330,5 C688,373 301,214 141,479 Q170,117 919,297 Q540,87 943,367 L198,132 C610,319 197,76 98,11 C297,207 836,479 723,302 C628,399 204,149 836,264" fill="none" stroke="rgb(127, 119, 46)" stroke-width="1.8325013160484769" /><circle cx="484" cy="136" fill="none" opacity="0.43257818951123433" r="42" stroke="rgb(180, 92, 162)" stroke-width="2.7822789029649995" /><rect fill="none" height="145" stroke="rgb(187, 77, 176)" stroke-width="4.1045322245985885" transform="rotate(267 720 181)" width="140" x="770" y="142" /></svg>