<svg baseProfile="full" height="404px" version="1.1" width="1017px" xmlns="http://www.w3.org/2000/svg" xmlns:ev="http://www.w3.org/2001/xml-events" xmlns:xlink="http://www.w3.org/1999/xlink"><defs /><rect fill="rgb(221, 229, 247)" height="404px" width="1017px" x="0" y="0" /><circle cx="735" cy="258" fill="none" opacity="0.41022496937928776" r="51" stroke="rgb(64, 227, 62)" stroke-width="0.6835902535360054" /><line stroke="rgb(112, 190, 122)" stroke-width="1.267865142338766" x1="376" x2="655" y1="389" y2="283" /><line stroke="rgb(21, 224, 49)" stroke-width="2.18594086744062" x1="37" x2="338" y1="357" y2="159" /><line stroke="rgb(237, 140, 103)" stroke-width="1.4211083329472793" x1="408" x2="202" y1="186" y2="130" /><line stroke="rgb(214, 156, 121)" stroke-width="1.1286261042856607" x1="111" x2="125" y1="122" y2="228" /><line stroke="rgb(117, 161, 250)" stroke-width="1.1848479155738432" x1="969" x2="373" y1="307" y2="285" /><line stroke="rgb(89, 35, 215)" stroke-width="2.9127877483846856" x1="909" x2="796" y1="63" y2="368" /><path d="M360,10 C747,0 119,324 777,273 C966,233 680,59 789,378 C444,15 206,52 805,274 Q398,290 28,27 C108,286 369,216 914,263" fill="none" stroke="rgb(72, 209, 117)" stroke-width="0.6664328191803452" /><circle cx="546" cy="92" fill="none" opacity="0.33389420744522885" r="101" stroke="rgb(78, 26, 175)" stroke-width="4.588267429497919" /><polygon fill="none" points="522,181 201,256 534,113 462,294 689,64 497,41 88,270" stroke="rgb(28, 0, 8)" stroke-width="3.57157638639013" /><polygon fill="none" points="152,20 747,209 330,357" stroke="rgb(230, 51, 63)" stroke-width="3.8482727135920065" /><rect fill="none" height="183" stroke="rgb(119, 228, 108)" stroke-width="3.796254584724208" transform="rotate(265 254 101)" width="198" x="743" y="156" /><circle cx="357" cy="246" fill="none" opacity="0.9281404385025973" r="64" stroke="rgb(95, 255, 78)" stroke-width="0.722117515897076" /><line stroke="rgb(246, 181, 86)" stroke-width="2.941692920171816" x1="420" x2="45" y1="19" y2="10" /><line stroke="rgb(115, 144, 137)" stroke-width="2.213993198511284" x1="847" x2="685" y1="321" y2="256" /><line stroke="rgb(26, 151, 194)" stroke-width="2.001488123218884" x1="349" x2="723" y1="319" y2="26" /><line stroke="rgb(148, 201, 52)" stroke-width="1.657924312838328" x1="895" x2="561" y1="164" y2="54" /><line stroke="rgb(129, 213, 63)" stroke-width="1.7307745928327622" x1="1003" x2="155" y1="41" y2="322" /><line stroke="rgb(37, 162, 190)" stroke-width="2.5021336072768285" x1="282" x2="843" y1="267" y2="367" /><line stroke="rgb(82, 226, 247)" stroke-width="0.8589529230939912" x1="134" x2="860" y1="320" y2="342" /><line stroke="rgb(59, 119, 113)" stroke-width="1.452964924076905" x1="387" x2="210" y1="307" y2="268" /><polygon fill="none" points="555,11 702,39 133,345 583,348 33,187 553,286" stroke="rgb(48, 189, 28)" stroke-width="1.2586951102185242" /><rect fill="none" height="150" stroke="rgb(117, 36, 161)" stroke-width="1.4366658270633161" transform="rotate(15 940 41)" width="35" x="538" y="46" /><line stroke="rgb(190, 71, 252)" stroke-width="0.5089839754538132" x1="825" x2="262" y1="279" y2="44" /><line stroke="rgb(232, 38, 185)" stroke-width="2.133502095697667" x1="770" x2="736" y1="221" y2="39" /><line stroke="rgb(77, 23, 15)" stroke-width="1.4863953465532127" x1="621" x2="754" y1="332" y2="312" /><line stroke="rgb(88, 215, 150)" stroke-width="2.5342206830323537" x1="262" x2="221" y1="107" y2="17" /><line stroke="rgb(140, 165, 201)" stroke-width="1.8817362211992372" x1="597" x2="145" y1="372" y2="23" /><line stroke="rgb(33, 206, 158)" stroke-width="0.8368968311661438" x1="665" x2="700" y1="228" y2="167" /><line stroke="rgb(205, 213, 174)" stroke-width="2.8467646750937616" x1="650" x2="904" y1="141" y2="132" /><line stroke="rgb(18, 64, 71)" stroke-width="2.387019191069748" x1="625" x2="304" y1="149" y2="184" /><line stroke="rgb(102, 21, 228)" stroke-width="2.399883765774385" x1="550" x2="809" y1="174" y2="179" /><line stroke="rgb(166, 57, 63)" stroke-width="1.2059410747512112" x1="320" x2="298" y1="49" y2="277" /><line stroke="rgb(233, 207, 190)" stroke-width="0.9481206195370396" x1="892" x2="695" y1="376" y2="306" /><line stroke="rgb(114, 98, 41)" stroke-width="2.75459936222079" x1="79" x2="937" y1="77" y2="242" /><line stroke="rgb(218, 101, 231)" stroke-width="1.0572946756483526" x1="962" x2="950" y1="212" y2="61" /><polygon fill="none" points="856,380 316,66 782,207 663,260 536,141 651,342 388,279" stroke="rgb(8, 144, 113)" stroke-width="0.603023608403964" /><circle cx="316" cy="104" fill="none" opacity="0.6144525150439152" r="18" stroke="rgb(81, 235, 83)" stroke-width="1.3340989567335535" /><polygon fill="none" points="840,71 284,85 235,382" stroke="rgb(51, 48, 149)" stroke-width="1.6429980142862388" /><circle cx="636" cy="178" fill="none" opacity="0.8370935931153844" r="72" stroke="rgb(55, 166, 22)" stroke-width="3.6840202365527985" /><rect fill="none" height="37" stroke="rgb(189, 23, 33)" stroke-width="2.2582142815303596" transform="rotate(113 948 169)" width="142" x="123" y="254" /><path d="M972,287 C484,324 992,33 680,109 C644,315 945,106 730,7 L79,133 L948,215" fill="none" stroke="rgb(20, 217, 104)" stroke-width="2.396498926727432" /><circle cx="703" cy="257" fill="none" opacity="0.3906578386911932" r="89" stroke="rgb(141, 105, 201)" stroke-width="1.7451121398135863" /><polygon fill="none" points="75,252 512,90 344,38 79,197" stroke="rgb(42, 178, 248)" stroke-width="1.9933169868370282" /><line stroke="rgb(243, 251, 135)" stroke-width="1.944333882986284" x1="411" x2="931" y1="39" y2="157" /><line stroke="rgb(90, 236, 13)" stroke-width="1.3974346888692466" x1="718" x2="475" y1="241" y2="107" /><line stroke="rgb(50, 201, 6)" stroke-width="1.3544027260646363" x1="89" x2="882" y1="21" y2="146" /><line stroke="rgb(85, 97, 250)" stroke-width="1.6128337637110484" x1="805" x2="609" y1="328" y2="277" /><line stroke="rgb(30, 101, 254)" stroke-width="2.903630799503453" x1="804" x2="340" y1="269" y2="275" /><polygon fill="none" points="366,130 573,192 221,253 352,244 547,372 109,396 129,17 991,396" stroke="rgb(48, 180, 203)" stroke-width="0.957833225188102" /><circle cx="702" cy="223" fill="none" opacity="0.520561782465031" r="37" stroke="rgb(206, 114, 204)" stroke-width="2.145370502977983" /><rect fill="none" height="119" stroke="rgb(109, 93, 137)" stroke-width="0.5243843957747331" transform="rotate(115 1013 382)" width="142" x="165" y="123" /><polygon fill="none" points="771,152 78,375 835,143 443,26 291,102 436,244 597,277" stroke="rgb(200, 194, 41)" stroke-width="2.1102102276332677" /><line stroke="rgb(205, 138, 123)" stroke-width="2.946921568153177" x1="752" x2="707" y1="67" y2="287" /><line stroke="rgb(29, 232, 196)" stroke-width="2.920172918549653" x1="326" x2="560" y1="226" y2="109" /><line stroke="rgb(230, 66, 255)" stroke-width="1.1276857554730184" x1="246" x2="399" y1="78" y2="132" /><line stroke="rgb(235, 72, 222)" stroke-width="1.105115206941" x1="527" x2="218" y1="121" y2="207" /></svg>