<svg baseProfile="full" height="747px" version="1.1" width="941px" xmlns="http://www.w3.org/2000/svg" xmlns:ev="http://www.w3.org/2001/xml-events" xmlns:xlink="http://www.w3.org/1999/xlink"><defs /><rect fill="rgb(238, 235, 242)" height="747px" width="941px" x="0" y="0" /><path d="M0,699 Q633,316 251,210 Q422,544 859,186 C305,398 61,537 203,106 L446,650 Q648,717 171,518" fill="none" stroke="rgb(141, 58, 24)" stroke-width="1.2788863317421497" /><polygon fill="none" points="543,708 297,50 15,306 687,200" stroke="rgb(182, 98, 42)" stroke-width="2.7886287910001437" /><line stroke="rgb(98, 194, 201)" stroke-width="0.8860980109053489" x1="265" x2="521" y1="415" y2="194" /><line stroke="rgb(234, 11, 51)" stroke-width="1.4835574303091934" x1="216" x2="770" y1="402" y2="450" /><line stroke="rgb(95, 241, 203)" stroke-width="2.83156592820908" x1="673" x2="83" y1="186" y2="675" /><line stroke="rgb(201, 180, 4)" stroke-width="1.5631571263226003" x1="676" x2="781" y1="647" y2="106" /><line stroke="rgb(83, 153, 58)" stroke-width="0.5501051236316628" x1="630" x2="53" y1="719" y2="10" /><line stroke="rgb(153, 25, 178)" stroke-width="0.8235121339108138" x1="183" x2="287" y1="719" y2="396" /><line stroke="rgb(234, 45, 112)" stroke-width="2.9338574963943485" x1="720" x2="469" y1="78" y2="43" /><line stroke="rgb(179, 33, 235)" stroke-width="1.0651302821607571" x1="307" x2="915" y1="218" y2="611" /><rect fill="none" height="68" stroke="rgb(158, 145, 226)" stroke-width="3.3644416054125026" transform="rotate(26 160 298)" width="129" x="493" y="34" /><line stroke="rgb(9, 205, 66)" stroke-width="1.030675237292009" x1="739" x2="809" y1="443" y2="646" /><line stroke="rgb(17, 235, 2)" stroke-width="1.1486551191743044" x1="479" x2="277" y1="540" y2="724" /><line stroke="rgb(92, 123, 226)" stroke-width="1.5889855626915086" x1="776" x2="842" y1="376" y2="735" /><line stroke="rgb(224, 93, 61)" stroke-width="1.3557744347619622" x1="833" x2="35" y1="308" y2="183" /><line stroke="rgb(61, 130, 241)" stroke-width="2.97603097145137" x1="432" x2="151" y1="40" y2="399" /><line stroke="rgb(84, 113, 229)" stroke-width="1.8354000552921819" x1="768" x2="418" y1="219" y2="386" /><line stroke="rgb(235, 140, 184)" stroke-width="0.6199289558030303" x1="522" x2="668" y1="103" y2="437" /><line stroke="rgb(251, 218, 43)" stroke-width="2.367495590363597" x1="700" x2="563" y1="541" y2="410" /><line stroke="rgb(41, 11, 97)" stroke-width="2.3293096497624077" x1="263" x2="798" y1="38" y2="483" /><line stroke="rgb(170, 102, 110)" stroke-width="0.8213624788586172" x1="116" x2="719" y1="647" y2="425" /><line stroke="rgb(57, 159, 8)" stroke-width="2.4665064393381257" x1="724" x2="647" y1="389" y2="260" /><line stroke="rgb(111, 101, 194)" stroke-width="2.607933741392568" x1="881" x2="90" y1="621" y2="31" /><path d="M16,567 L281,743 C0,344 660,188 763,78 Q509,725 686,55" fill="none" stroke="rgb(50, 210, 91)" stroke-width="2.2678385777564642" /><line stroke="rgb(51, 32, 106)" stroke-width="1.288566355412974" x1="207" x2="879" y1="42" y2="376" /><line stroke="rgb(82, 218, 230)" stroke-width="0.9384130576445683" x1="677" x2="683" y1="522" y2="138" /><line stroke="rgb(132, 157, 226)" stroke-width="2.1702352173883304" x1="515" x2="572" y1="400" y2="564" /><line stroke="rgb(85, 80, 163)" stroke-width="1.5125144366617567" x1="179" x2="163" y1="716" y2="27" /><line stroke="rgb(165, 85, 44)" stroke-width="2.9407236278917215" x1="741" x2="673" y1="35" y2="408" /><line stroke="rgb(117, 24, 67)" stroke-width="0.871509021153674" x1="784" x2="597" y1="421" y2="559" /><line stroke="rgb(233, 49, 229)" stroke-width="1.069469120865709" x1="574" x2="410" y1="603" y2="263" /><line stroke="rgb(198, 255, 194)" stroke-width="0.6244379593601521" x1="762" x2="203" y1="725" y2="493" /><line stroke="rgb(111, 28, 44)" stroke-width="2.724973778557192" x1="742" x2="395" y1="253" y2="585" /><line stroke="rgb(252, 249, 210)" stroke-width="0.7829762964582181" x1="511" x2="304" y1="561" y2="572" /><line stroke="rgb(246, 30, 130)" stroke-width="2.9860579727861234" x1="539" x2="886" y1="133" y2="204" /><line stroke="rgb(37, 144, 165)" stroke-width="1.7672758907555284" x1="574" x2="298" y1="301" y2="507" /><line stroke="rgb(124, 54, 78)" stroke-width="1.1816712213984568" x1="184" x2="108" y1="262" y2="746" /><line stroke="rgb(216, 147, 31)" stroke-width="0.8888232030882965" x1="411" x2="160" y1="266" y2="74" /><line stroke="rgb(45, 61, 175)" stroke-width="0.8548168851327396" x1="723" x2="770" y1="388" y2="373" /><line stroke="rgb(21, 171, 8)" stroke-width="1.7309491523543383" x1="476" x2="384" y1="641" y2="146" /><circle cx="508" cy="350" fill="none" opacity="0.6496737197078609" r="171" stroke="rgb(28, 130, 179)" stroke-width="1.4507625013525831" /><circle cx="123" cy="593" fill="none" opacity="0.4162090666678941" r="93" stroke="rgb(108, 33, 8)" stroke-width="3.29050134107534" /><circle cx="121" cy="270" fill="none" opacity="0.6592494550623136" r="19" stroke="rgb(37, 72, 39)" stroke-width="3.7762433839366953" /><rect fill="none" height="165" stroke="rgb(213, 58, 93)" stroke-width="2.9810815003705695" transform="rotate(190 738 238)" width="79" x="427" y="174" /><line stroke="rgb(77, 208, 56)" stroke-width="1.5962688431500003" x1="597" x2="843" y1="27" y2="355" /><line stroke="rgb(113, 240, 153)" stroke-width="0.9546969429934872" x1="748" x2="399" y1="585" y2="281" /><line stroke="rgb(103, 151, 32)" stroke-width="0.8226597420036004" x1="512" x2="729" y1="373" y2="124" /><line stroke="rgb(149, 253, 253)" stroke-width="0.7876624331982669" x1="392" x2="333" y1="440" y2="467" /><circle cx="93" cy="371" fill="none" opacity="0.5613298756442037" r="181" stroke="rgb(251, 177, 250)" stroke-width="1.7881941396208665" /><rect fill="none" height="197" stroke="rgb(61, 90, 207)" stroke-width="1.6272483333523324" transform="rotate(59 209 544)" width="105" x="839" y="61" /><circle cx="565" cy="388" fill="none" opacity="0.8205437536969389" r="82" stroke="rgb(181, 178, 117)" stroke-width="4.583356088354979" /><path d="M745,675 C423,418 660,353 584,28 L809,674 L594,41 Q129,218 477,274 L920,747 Q60,246 711,151 C104,47 148,460 77,111" fill="none" stroke="rgb(119, 68, 146)" stroke-width="0.5665834683293374" /><line stroke="rgb(225, 201, 252)" stroke-width="1.103223242339869" x1="767" x2="846" y1="250" y2="17" /><line stroke="rgb(175, 89, 12)" stroke-width="2.4604862914506134" x1="153" x2="245" y1="209" y2="16" /><line stroke="rgb(239, 42, 140)" stroke-width="2.282936214952423" x1="86" x2="425" y1="196" y2="439" /><line stroke="rgb(184, 110, 240)" stroke-width="2.742655191095047" x1="327" x2="553" y1="417" y2="9" /><line stroke="rgb(104, 10, 75)" stroke-width="1.22006072470284" x1="289" x2="726" y1="458" y2="625" /><line stroke="rgb(67, 123, 46)" stroke-width="1.6791193554322295" x1="763" x2="449" y1="8" y2="570" /><line stroke="rgb(80, 30, 132)" stroke-width="0.5356122807628358" x1="912" x2="680" y1="421" y2="199" /><line stroke="rgb(224, 87, 90)" stroke-width="1.9037728475583306" x1="224" x2="90" y1="710" y2="444" /><polygon fill="none" points="657,194 85,293 821,479 579,673 141,441 830,679" stroke="rgb(154, 160, 255)" stroke-width="0.9853563412269357" /><path d="M562,735 C714,142 929,139 607,339 C291,226 902,643 366,633 L860,672 Q917,231 185,718 Q914,597 136,703" fill="none" stroke="rgb(76, 155, 105)" stroke-width="1.4953539961221467" /><path d="M754,90 L165,375 L114,235 Q29,24 384,67 L494,670" fill="none" stroke="rgb(120, 76, 14)" stroke-width="2.939556769334272" /><rect fill="none" height="88" stroke="rgb(103, 103, 107)" stroke-width="2.155091713297188" transform="rotate(347 385 568)" width="197" x="790" y="160" /><rect fill="none" height="62" stroke="rgb(120, 19, 225)" stroke-width="3.713268087948488" transform="rotate(131 654 511)" width="62" x="458" y="241" /><polygon fill="none" points="410,310 635,227 772,348 443,396 908,608" stroke="rgb(191, 162, 67)" stroke-width="1.4247282215298145" /><polygon fill="none" points="30,137 48,570 128,34 271,436" stroke="rgb(21, 30, 125)" stroke-width="3.5553865669420275" /><polygon fill="none" points="818,360 313,529 654,66 564,57 360,320 867,530" stroke="rgb(0, 173, 244)" stroke-width="2.203176806775166" /><circle cx="445" cy="522" fill="none" opacity="0.8152577484053274" r="137" stroke="rgb(161, 105, 227)" stroke-width="2.4564300199920126" /><polygon fill="none" points="743,222 405,244 554,336 13,46 647,64" stroke="rgb(126, 0, 37)" stroke-width="1.801865043432704" /><line stroke="rgb(150, 78, 126)" stroke-width="2.0462615515991507" x1="816" x2="431" y1="127" y2="211" /><line stroke="rgb(71, 52, 95)" stroke-width="1.0004838623861732" x1="262" x2="346" y1="522" y2="539" /><line stroke="rgb(164, 215, 216)" stroke-width="1.203972103953579" x1="89" x2="660" y1="520" y2="729" /><line stroke="rgb(44, 74, 188)" stroke-width="2.0802684859868" x1="395" x2="71" y1="538" y2="1" /><line stroke="rgb(129, 144, 161)" stroke-width="1.2456325372399453" x1="522" x2="385" y1="653" y2="601" /><line stroke="rgb(97, 137, 253)" stroke-width="1.5809998105694265" x1="457" x2="339" y1="326" y2="568" /><line stroke="rgb(62, 81, 0)" stroke-width="1.0099578385421513" x1="30" x2="146" y1="707" y2="688" /><line stroke="rgb(193, 168, 34)" stroke-width="0.5079830553002225" x1="477" x2="325" y1="269" y2="475" /><line stroke="rgb(113, 255, 42)" stroke-width="1.9214422625391476" x1="450" x2="835" y1="307" y2="252" /><path d="M93,129 C43,452 317,539 534,221 Q661,737 123,495 L758,11 C880,39 451,4 858,98 Q165,70 139,641 Q884,485 767,137 Q253,266 645,668" fill="none" stroke="rgb(248, 119, 212)" stroke-width="1.0479227812651448" /><polygon fill="none" points="7,6 49,173 355,138 746,250" stroke="rgb(249, 116, 148)" stroke-width="1.2308191518566838" /><polygon fill="none" points="521,247 809,402 311,436 727,660 447,507 822,516 420,673 384,293" stroke="rgb(48, 241, 214)" stroke-width="0.5404297573019696" /><rect fill="none" height="92" stroke="rgb(198, 90, 180)" stroke-width="1.8843396206371217" transform="rotate(102 659 215)" width="35" x="247" y="304" /><line stroke="rgb(226, 126, 214)" stroke-width="1.119058887468439" x1="417" x2="281" y1="475" y2="125" /><line stroke="rgb(65, 108, 144)" stroke-width="1.3334412638872797" x1="393" x2="353" y1="342" y2="57" /><line stroke="rgb(23, 221, 109)" stroke-width="2.145420089075667" x1="609" x2="606" y1="516" y2="8" /><line stroke="rgb(173, 180, 219)" stroke-width="1.9290867764561133" x1="228" x2="596" y1="71" y2="150" /><line stroke="rgb(94, 246, 209)" stroke-width="1.2425078894886472" x1="847" x2="878" y1="510" y2="363" /><line stroke="rgb(162, 245, 138)" stroke-width="2.885836675105755" x1="169" x2="290" y1="228" y2="459" /><line stroke="rgb(116, 201, 191)" stroke-width="0.6726272346798483" x1="307" x2="404" y1="27" y2="39" /><line stroke="rgb(64, 193, 141)" stroke-width="1.503137297904924" x1="473" x2="82" y1="542" y2="581" /><line stroke="rgb(162, 117, 70)" stroke-width="2.9661208338136107" x1="745" x2="556" y1="265" y2="295" /><line stroke="rgb(140, 218, 78)" stroke-width="1.5129802811991364" x1="585" x2="62" y1="183" y2="619" /><line stroke="rgb(217, 72, 207)" stroke-width="2.7812906340113366" x1="455" x2="742" y1="67" y2="417" /><line stroke="rgb(219, 9, 172)" stroke-width="0.9698992524805995" x1="821" x2="417" y1="32" y2="206" /><line stroke="rgb(7, 103, 103)" stroke-width="2.22799850922183" x1="477" x2="156" y1="570" y2="369" /><line stroke="rgb(121, 2, 241)" stroke-width="2.6127328466305655" x1="725" x2="843" y1="416" y2="385" /><circle cx="250" cy="162" fill="none" opacity="0.5276216734605926" r="34" stroke="rgb(244, 175, 132)" stroke-width="3.6544537432590447" /><line stroke="rgb(85, 152, 253)" stroke-width="1.4318131615356349" x1="931" x2="342" y1="503" y2="682" /><line stroke="rgb(199, 170, 231)" stroke-width="1.1032346733492693" x1="9" x2="686" y1="160" y2="442" /><line stroke="rgb(91, 174, 11)" stroke-width="2.4884977492482414" x1="62" x2="857" y1="620" y2="497" /><line stroke="rgb(214, 211, 154)" stroke-width="2.707356021225812" x1="924" x2="653" y1="440" y2="9" /><line stroke="rgb(80, 200, 221)" stroke-width="2.288819820151077" x1="877" x2="37" y1="183" y2="34" /><line stroke="rgb(43, 154, 107)" stroke-width="2.2930184458915344" x1="746" x2="858" y1="430" y2="586" /><line stroke="rgb(9, 106, 71)" stroke-width="1.5936066047111708" x1="6" x2="553" y1="532" y2="114" /><line stroke="rgb(26, 252, 2)" stroke-width="1.5672513169461981" x1="811" x2="889" y1="590" y2="148" /></svg>