<svg baseProfile="full" height="767px" version="1.1" width="1185px" xmlns="http://www.w3.org/2000/svg" xmlns:ev="http://www.w3.org/2001/xml-events" xmlns:xlink="http://www.w3.org/1999/xlink"><defs /><rect fill="rgb(221, 248, 252)" height="767px" width="1185px" x="0" y="0" /><circle cx="706" cy="549" fill="none" opacity="0.9687753203074421" r="119" stroke="rgb(117, 179, 253)" stroke-width="2.7241394057057327" /><line stroke="rgb(5, 234, 149)" stroke-width="1.5755271652306475" x1="1080" x2="1072" y1="247" y2="572" /><line stroke="rgb(150, 222, 6)" stroke-width="2.729361550661962" x1="478" x2="10" y1="712" y2="558" /><line stroke="rgb(89, 77, 101)" stroke-width="1.2341910121556392" x1="301" x2="751" y1="105" y2="177" /><line stroke="rgb(67, 43, 28)" stroke-width="2.7115434590947727" x1="216" x2="392" y1="495" y2="719" /><line stroke="rgb(158, 157, 23)" stroke-width="2.8751485616826247" x1="472" x2="395" y1="535" y2="720" /><line stroke="rgb(201, 224, 62)" stroke-width="0.703128580113551" x1="483" x2="409" y1="568" y2="632" /><line stroke="rgb(207, 27, 129)" stroke-width="1.128601477019044" x1="1057" x2="31" y1="337" y2="358" /><line stroke="rgb(178, 3, 210)" stroke-width="0.9622330765651828" x1="401" x2="534" y1="97" y2="335" /><polygon fill="none" points="679,535 1073,107 618,313 1136,143 39,184 450,5" stroke="rgb(58, 84, 79)" stroke-width="0.6643698268139644" /><rect fill="none" height="129" stroke="rgb(139, 80, 175)" stroke-width="4.571712630982007" transform="rotate(286 364 301)" width="152" x="652" y="0" /><rect fill="none" height="87" stroke="rgb(181, 243, 31)" stroke-width="4.8110880038956125" transform="rotate(192 1021 137)" width="31" x="619" y="203" /><path d="M685,181 L687,382 L325,597 Q619,739 535,600 C307,546 459,54 103,665 L2,707 L259,288 C971,138 173,539 467,557" fill="none" stroke="rgb(9, 251, 42)" stroke-width="1.7563004305947076" /><path d="M508,135 L539,133 Q74,533 906,710 L14,333 C398,533 515,258 792,399" fill="none" stroke="rgb(198, 198, 111)" stroke-width="1.3209459369913406" /><circle cx="552" cy="360" fill="none" opacity="0.9287481672361972" r="124" stroke="rgb(141, 62, 18)" stroke-width="4.629967236792662" /><circle cx="272" cy="93" fill="none" opacity="0.5501498291421467" r="37" stroke="rgb(141, 57, 98)" stroke-width="0.6355740887239453" /><rect fill="none" height="72" stroke="rgb(108, 94, 136)" stroke-width="2.8390637026122127" transform="rotate(69 807 303)" width="37" x="94" y="662" /><polygon fill="none" points="831,615 253,536 1090,318 1154,514" stroke="rgb(23, 139, 18)" stroke-width="0.9865115009565624" /><polygon fill="none" points="979,654 1034,195 351,428 1162,509 781,542" stroke="rgb(109, 130, 75)" stroke-width="2.376314528474871" /><polygon fill="none" points="695,355 90,471 1060,308 1171,710 616,531 311,451" stroke="rgb(171, 157, 33)" stroke-width="0.7057370394099816" /><rect fill="none" height="177" stroke="rgb(155, 144, 61)" stroke-width="4.017925851485678" transform="rotate(79 570 547)" width="55" x="584" y="208" /><rect fill="none" height="91" stroke="rgb(112, 23, 154)" stroke-width="1.3197483709197815" transform="rotate(233 936 669)" width="91" x="873" y="663" /><line stroke="rgb(193, 235, 51)" stroke-width="2.6358578508661354" x1="176" x2="737" y1="334" y2="647" /><line stroke="rgb(216, 90, 195)" stroke-width="1.7635073961118133" x1="295" x2="478" y1="384" y2="50" /><line stroke="rgb(208, 159, 88)" stroke-width="1.5150038387978966" x1="1083" x2="915" y1="81" y2="495" /><line stroke="rgb(12, 95, 221)" stroke-width="0.5107429661079026" x1="782" x2="891" y1="257" y2="526" /><line stroke="rgb(61, 97, 190)" stroke-width="1.5321783866633691" x1="439" x2="318" y1="260" y2="136" /><rect fill="none" height="186" stroke="rgb(104, 252, 49)" stroke-width="3.3825653478046007" transform="rotate(243 320 171)" width="56" x="401" y="232" /></svg>