<svg baseProfile="full" height="402px" version="1.1" width="647px" xmlns="http://www.w3.org/2000/svg" xmlns:ev="http://www.w3.org/2001/xml-events" xmlns:xlink="http://www.w3.org/1999/xlink"><defs /><rect fill="rgb(222, 231, 219)" height="402px" width="647px" x="0" y="0" /><polygon fill="none" points="392,22 91,256 563,210 266,34 53,395 598,322 225,177 257,215" stroke="rgb(95, 0, 89)" stroke-width="2.0325025219904154" /><polygon fill="none" points="267,74 536,365 268,229 530,106 145,74 213,383 631,357 616,339" stroke="rgb(2, 107, 30)" stroke-width="2.126030332708126" /><line stroke="rgb(173, 80, 240)" stroke-width="0.8911352708104663" x1="277" x2="433" y1="132" y2="313" /><line stroke="rgb(118, 115, 204)" stroke-width="2.7668086090690527" x1="244" x2="411" y1="368" y2="281" /><line stroke="rgb(181, 47, 117)" stroke-width="2.917489024533774" x1="404" x2="86" y1="269" y2="378" /><line stroke="rgb(191, 194, 240)" stroke-width="1.3087040671582146" x1="85" x2="99" y1="81" y2="43" /><line stroke="rgb(27, 138, 53)" stroke-width="1.2696676620684473" x1="287" x2="49" y1="226" y2="75" /><line stroke="rgb(101, 73, 98)" stroke-width="2.575828987176647" x1="582" x2="483" y1="88" y2="302" /><line stroke="rgb(237, 155, 73)" stroke-width="1.8386248804325045" x1="434" x2="168" y1="387" y2="257" /><line stroke="rgb(212, 58, 114)" stroke-width="0.9381706756122455" x1="622" x2="608" y1="170" y2="138" /><line stroke="rgb(14, 1, 249)" stroke-width="2.925458351833761" x1="546" x2="465" y1="1" y2="43" /><line stroke="rgb(111, 113, 194)" stroke-width="1.0497219696085547" x1="269" x2="282" y1="207" y2="323" /><line stroke="rgb(184, 33, 13)" stroke-width="2.7733115877557" x1="146" x2="628" y1="96" y2="94" /><line stroke="rgb(98, 108, 131)" stroke-width="1.2467798436256694" x1="44" x2="77" y1="324" y2="153" /><line stroke="rgb(139, 88, 97)" stroke-width="2.26452819054887" x1="554" x2="221" y1="392" y2="147" /><line stroke="rgb(149, 43, 237)" stroke-width="2.7202390188277836" x1="39" x2="267" y1="113" y2="202" /><line stroke="rgb(232, 39, 4)" stroke-width="1.9446913524105254" x1="211" x2="224" y1="205" y2="216" /><polygon fill="none" points="2,90 54,368 633,320" stroke="rgb(186, 122, 36)" stroke-width="3.0787879680913197" /><rect fill="none" height="33" stroke="rgb(239, 13, 194)" stroke-width="4.241961982022582" transform="rotate(306 443 125)" width="192" x="390" y="149" /><line stroke="rgb(204, 245, 39)" stroke-width="1.778306927543528" x1="606" x2="416" y1="157" y2="279" /><line stroke="rgb(103, 137, 170)" stroke-width="2.2313877662306068" x1="436" x2="166" y1="33" y2="193" /><line stroke="rgb(180, 251, 192)" stroke-width="2.1768769939816646" x1="324" x2="327" y1="258" y2="335" /><line stroke="rgb(80, 81, 184)" stroke-width="2.7974698342780497" x1="166" x2="495" y1="166" y2="234" /><line stroke="rgb(67, 211, 207)" stroke-width="2.579737104755796" x1="481" x2="467" y1="217" y2="218" /><line stroke="rgb(144, 170, 95)" stroke-width="2.271820309777659" x1="583" x2="34" y1="298" y2="396" /><line stroke="rgb(216, 167, 131)" stroke-width="1.9685415366501156" x1="492" x2="12" y1="262" y2="263" /><line stroke="rgb(247, 87, 69)" stroke-width="1.7447346678993487" x1="11" x2="100" y1="167" y2="180" /><circle cx="178" cy="190" fill="none" opacity="0.5060647317465875" r="77" stroke="rgb(83, 175, 223)" stroke-width="3.95272993313674" /><rect fill="none" height="123" stroke="rgb(147, 136, 67)" stroke-width="4.052251870440529" transform="rotate(224 132 239)" width="156" x="544" y="155" /><rect fill="none" height="189" stroke="rgb(145, 156, 194)" stroke-width="0.6812526959636437" transform="rotate(334 633 212)" width="122" x="335" y="158" /><rect fill="none" height="177" stroke="rgb(37, 49, 96)" stroke-width="4.886809296004299" transform="rotate(181 581 200)" width="138" x="190" y="198" /><line stroke="rgb(76, 49, 70)" stroke-width="1.8001247471614639" x1="152" x2="470" y1="163" y2="241" /><line stroke="rgb(113, 161, 173)" stroke-width="2.951937927079337" x1="204" x2="239" y1="72" y2="363" /><line stroke="rgb(80, 235, 21)" stroke-width="1.2885903437492963" x1="121" x2="486" y1="326" y2="104" /><line stroke="rgb(196, 47, 110)" stroke-width="1.1003219284647163" x1="421" x2="238" y1="293" y2="195" /><line stroke="rgb(178, 151, 57)" stroke-width="0.909510485003334" x1="312" x2="25" y1="395" y2="259" /><line stroke="rgb(255, 211, 221)" stroke-width="1.8973112618483905" x1="229" x2="439" y1="207" y2="232" /><line stroke="rgb(157, 173, 63)" stroke-width="2.4506218804614974" x1="328" x2="345" y1="106" y2="73" /><path d="M200,381 C404,37 634,335 495,366 L72,89 C131,272 464,323 80,169" fill="none" stroke="rgb(78, 30, 187)" stroke-width="0.7221181682728357" /><line stroke="rgb(159, 68, 46)" stroke-width="2.6275124346892187" x1="159" x2="550" y1="324" y2="117" /><line stroke="rgb(121, 59, 90)" stroke-width="2.9598197464579266" x1="324" x2="312" y1="154" y2="37" /><line stroke="rgb(199, 80, 24)" stroke-width="2.772980240389809" x1="207" x2="178" y1="271" y2="32" /><line stroke="rgb(58, 225, 25)" stroke-width="1.9561473034713914" x1="322" x2="616" y1="59" y2="243" /><line stroke="rgb(125, 141, 125)" stroke-width="2.1220663910535276" x1="184" x2="437" y1="258" y2="291" /><rect fill="none" height="172" stroke="rgb(105, 30, 46)" stroke-width="1.1489859272413483" transform="rotate(130 310 228)" width="96" x="295" y="154" /><polygon fill="none" points="463,322 97,97 576,382" stroke="rgb(0, 68, 5)" stroke-width="3.7853521574843136" /><circle cx="596" cy="141" fill="none" opacity="0.9874262347224156" r="31" stroke="rgb(236, 232, 101)" stroke-width="4.385499894124806" /><line stroke="rgb(246, 61, 71)" stroke-width="2.95514042007455" x1="105" x2="220" y1="83" y2="0" /><line stroke="rgb(100, 128, 111)" stroke-width="1.4970830340522485" x1="401" x2="402" y1="80" y2="195" /><line stroke="rgb(222, 20, 168)" stroke-width="2.8964868305729268" x1="585" x2="221" y1="165" y2="45" /><circle cx="209" cy="238" fill="none" opacity="0.7681561603898865" r="72" stroke="rgb(207, 4, 0)" stroke-width="4.5683404750517775" /><rect fill="none" height="111" stroke="rgb(250, 208, 162)" stroke-width="2.2697186439177663" transform="rotate(339 451 56)" width="144" x="485" y="227" /><path d="M133,137 L48,27 C440,85 530,169 468,169 Q131,229 519,218 Q413,214 241,217" fill="none" stroke="rgb(168, 115, 177)" stroke-width="2.349226387333867" /><polygon fill="none" points="317,82 339,158 305,325 317,164 229,15 365,81 436,234" stroke="rgb(224, 10, 102)" stroke-width="1.385484133073243" /><rect fill="none" height="125" stroke="rgb(223, 197, 179)" stroke-width="1.7311126606691598" transform="rotate(148 477 156)" width="193" x="311" y="239" /><polygon fill="none" points="486,228 237,155 636,114 341,130" stroke="rgb(183, 37, 147)" stroke-width="1.2688811381151766" /><path d="M458,288 C119,332 513,359 72,366 Q573,87 328,146 L22,28 C518,205 161,112 40,118 L9,138" fill="none" stroke="rgb(115, 77, 162)" stroke-width="1.5426265274863877" /><polygon fill="none" points="622,4 73,395 398,193 320,33" stroke="rgb(184, 95, 86)" stroke-width="1.8264148998008083" /><circle cx="154" cy="85" fill="none" opacity="0.4493497110804528" r="81" stroke="rgb(229, 149, 31)" stroke-width="1.1783695011017314" /><rect fill="none" height="109" stroke="rgb(67, 33, 114)" stroke-width="2.366425585643163" transform="rotate(229 620 304)" width="196" x="328" y="95" /><path d="M69,111 L529,377 C421,22 113,42 256,325 C234,47 63,387 41,65 C311,121 252,370 184,202 Q446,39 322,171" fill="none" stroke="rgb(150, 86, 113)" stroke-width="1.8466296961967448" /><line stroke="rgb(232, 210, 38)" stroke-width="2.5392332048409187" x1="593" x2="281" y1="352" y2="181" /><line stroke="rgb(246, 175, 103)" stroke-width="1.4729419858740562" x1="212" x2="73" y1="112" y2="253" /><line stroke="rgb(211, 222, 66)" stroke-width="2.5371085324872227" x1="41" x2="496" y1="184" y2="32" /><line stroke="rgb(186, 122, 135)" stroke-width="1.1817087768458192" x1="372" x2="419" y1="163" y2="341" /><line stroke="rgb(76, 121, 59)" stroke-width="2.1861186163590745" x1="642" x2="192" y1="309" y2="139" /><line stroke="rgb(192, 153, 189)" stroke-width="1.4973800926979988" x1="314" x2="218" y1="221" y2="140" /><line stroke="rgb(121, 67, 29)" stroke-width="1.4055035257122135" x1="311" x2="530" y1="362" y2="99" /><line stroke="rgb(246, 92, 218)" stroke-width="1.47109115566641" x1="131" x2="609" y1="289" y2="71" /><line stroke="rgb(79, 140, 150)" stroke-width="2.2246584842623625" x1="48" x2="150" y1="168" y2="194" /><line stroke="rgb(239, 208, 41)" stroke-width="1.3978801542537096" x1="463" x2="509" y1="390" y2="291" /><line stroke="rgb(143, 72, 31)" stroke-width="1.9416632869192216" x1="496" x2="56" y1="385" y2="225" /><line stroke="rgb(10, 117, 82)" stroke-width="1.009348575764261" x1="581" x2="10" y1="394" y2="88" /><line stroke="rgb(12, 28, 61)" stroke-width="2.658045822333338" x1="0" x2="18" y1="384" y2="348" /><line stroke="rgb(204, 155, 98)" stroke-width="0.8455384330128577" x1="144" x2="312" y1="309" y2="255" /><line stroke="rgb(203, 96, 41)" stroke-width="0.7442246697593597" x1="471" x2="252" y1="294" y2="116" /><line stroke="rgb(137, 86, 209)" stroke-width="1.286865327808737" x1="618" x2="389" y1="341" y2="73" /><line stroke="rgb(34, 224, 195)" stroke-width="0.6973230446400381" x1="576" x2="625" y1="390" y2="363" /><line stroke="rgb(188, 115, 133)" stroke-width="1.4612736419766055" x1="472" x2="139" y1="188" y2="76" /><line stroke="rgb(5, 78, 53)" stroke-width="2.195059963641526" x1="625" x2="641" y1="382" y2="179" /><line stroke="rgb(180, 71, 181)" stroke-width="0.7151085259510856" x1="340" x2="287" y1="359" y2="246" /><line stroke="rgb(28, 221, 204)" stroke-width="2.808585142948505" x1="122" x2="601" y1="381" y2="164" /><line stroke="rgb(24, 194, 149)" stroke-width="2.089910019748123" x1="510" x2="95" y1="254" y2="299" /><line stroke="rgb(162, 226, 108)" stroke-width="2.7186480695091286" x1="122" x2="187" y1="85" y2="353" /><line stroke="rgb(237, 135, 241)" stroke-width="2.495959729696376" x1="207" x2="27" y1="174" y2="38" /><line stroke="rgb(44, 80, 66)" stroke-width="1.1104967810793647" x1="76" x2="146" y1="161" y2="43" /><line stroke="rgb(123, 26, 54)" stroke-width="2.262497517749156" x1="277" x2="393" y1="48" y2="108" /><line stroke="rgb(84, 150, 253)" stroke-width="2.674844501877676" x1="630" x2="493" y1="174" y2="70" /><path d="M283,136 C507,316 160,242 639,397 Q256,253 632,118 C631,5 427,374 480,6 Q347,215 566,104 Q334,217 28,356 L177,37" fill="none" stroke="rgb(243, 186, 140)" stroke-width="0.9866647657646193" /><path d="M645,100 Q43,354 258,165 Q144,402 536,317 L590,178 Q356,369 490,140 C449,318 645,133 356,341 L250,82" fill="none" stroke="rgb(64, 102, 29)" stroke-width="1.3750346038208512" /><rect fill="none" height="33" stroke="rgb(179, 18, 168)" stroke-width="2.724931217710129" transform="rotate(222 31 112)" width="112" x="285" y="158" /><path d="M165,282 L457,163 L198,92 L207,165 L471,107" fill="none" stroke="rgb(68, 40, 248)" stroke-width="0.8059966851945015" /><path d="M181,354 C186,398 344,67 348,93 L356,340 C371,337 258,51 160,351" fill="none" stroke="rgb(205, 255, 118)" stroke-width="2.3946385832929007" /><line stroke="rgb(224, 101, 12)" stroke-width="2.44125406377666" x1="579" x2="319" y1="245" y2="92" /><line stroke="rgb(99, 57, 187)" stroke-width="1.042798428107016" x1="548" x2="458" y1="267" y2="271" /><line stroke="rgb(169, 122, 25)" stroke-width="1.4711297585007967" x1="100" x2="194" y1="246" y2="132" /><line stroke="rgb(151, 22, 24)" stroke-width="0.8352795441216396" x1="185" x2="145" y1="99" y2="123" /><line stroke="rgb(240, 95, 130)" stroke-width="1.8402734670249183" x1="46" x2="249" y1="58" y2="139" /><line stroke="rgb(217, 32, 21)" stroke-width="0.5275058101343886" x1="257" x2="40" y1="328" y2="388" /><path d="M540,155 C231,341 487,128 321,297 L171,358 Q302,239 214,13" fill="none" stroke="rgb(91, 182, 244)" stroke-width="1.3753435027578818" /></svg>