<svg baseProfile="full" height="679px" version="1.1" width="944px" xmlns="http://www.w3.org/2000/svg" xmlns:ev="http://www.w3.org/2001/xml-events" xmlns:xlink="http://www.w3.org/1999/xlink"><defs /><rect fill="rgb(246, 208, 227)" height="679px" width="944px" x="0" y="0" /><path d="M779,583 Q414,182 92,311 C685,96 482,605 22,170 C1,615 920,67 146,344 L849,425" fill="none" stroke="rgb(77, 137, 188)" stroke-width="2.5849498797730557" /><circle cx="115" cy="268" fill="none" opacity="0.8487398336245571" r="161" stroke="rgb(32, 98, 169)" stroke-width="4.84043346888896" /><rect fill="none" height="47" stroke="rgb(117, 215, 139)" stroke-width="1.7759486820823562" transform="rotate(297 893 533)" width="32" x="501" y="173" /><circle cx="238" cy="566" fill="none" opacity="0.49467706293850533" r="150" stroke="rgb(5, 183, 151)" stroke-width="2.1662697675196543" /><path d="M341,330 Q495,147 634,416 Q780,103 537,514 L560,567 C13,561 721,313 38,676 C125,119 878,676 760,453 Q863,12 516,49 L118,639" fill="none" stroke="rgb(252, 147, 119)" stroke-width="1.450714727656662" /><path d="M803,296 L135,106 Q627,651 798,63 Q671,91 798,450 Q872,210 931,319 L7,478 Q436,221 433,458" fill="none" stroke="rgb(176, 2, 52)" stroke-width="0.8733712524354647" /><rect fill="none" height="195" stroke="rgb(187, 150, 133)" stroke-width="4.01359824727373" transform="rotate(188 158 653)" width="97" x="156" y="320" /><path d="M67,313 L612,203 L312,614 Q339,104 913,312 C820,601 815,46 800,152" fill="none" stroke="rgb(160, 171, 160)" stroke-width="0.6846800471596441" /><circle cx="643" cy="524" fill="none" opacity="0.7139655936523999" r="107" stroke="rgb(253, 141, 185)" stroke-width="3.9170587874808978" /><polygon fill="none" points="456,70 532,199 666,615 774,438 239,160 627,156 566,331" stroke="rgb(9, 26, 127)" stroke-width="1.6515350274732417" /><circle cx="210" cy="436" fill="none" opacity="0.7151686038708377" r="157" stroke="rgb(174, 186, 43)" stroke-width="1.3473120985971154" /><rect fill="none" height="166" stroke="rgb(74, 39, 239)" stroke-width="3.045806243871239" transform="rotate(92 766 47)" width="64" x="132" y="319" /><circle cx="894" cy="189" fill="none" opacity="0.9516642695338511" r="135" stroke="rgb(234, 144, 138)" stroke-width="1.4472404365671234" /><line stroke="rgb(211, 70, 2)" stroke-width="1.568604118890576" x1="179" x2="736" y1="162" y2="661" /><line stroke="rgb(22, 52, 171)" stroke-width="0.6190118421217037" x1="518" x2="23" y1="582" y2="485" /><line stroke="rgb(189, 177, 27)" stroke-width="2.2282175395575305" x1="760" x2="642" y1="158" y2="227" /><line stroke="rgb(161, 162, 188)" stroke-width="2.463574701280037" x1="0" x2="155" y1="399" y2="384" /><line stroke="rgb(180, 160, 126)" stroke-width="1.357590982323807" x1="759" x2="581" y1="305" y2="639" /><line stroke="rgb(3, 62, 83)" stroke-width="2.0603539657652634" x1="327" x2="571" y1="255" y2="663" /><line stroke="rgb(155, 0, 249)" stroke-width="1.3362775631833943" x1="68" x2="564" y1="232" y2="278" /><line stroke="rgb(207, 122, 221)" stroke-width="2.3610750828715976" x1="665" x2="610" y1="672" y2="648" /><line stroke="rgb(207, 3, 19)" stroke-width="1.302301771629847" x1="314" x2="721" y1="346" y2="367" /><line stroke="rgb(68, 31, 69)" stroke-width="1.5084216422609011" x1="371" x2="623" y1="612" y2="4" /><polygon fill="none" points="595,16 188,575 604,524 860,186" stroke="rgb(121, 186, 211)" stroke-width="3.408942514926138" /><line stroke="rgb(34, 42, 56)" stroke-width="0.8815086340296883" x1="592" x2="234" y1="94" y2="433" /><line stroke="rgb(242, 253, 193)" stroke-width="2.3409127888330152" x1="322" x2="55" y1="263" y2="367" /><line stroke="rgb(228, 116, 168)" stroke-width="1.350588184916" x1="111" x2="365" y1="474" y2="327" /><line stroke="rgb(205, 121, 232)" stroke-width="0.613401696319877" x1="543" x2="361" y1="1" y2="585" /><line stroke="rgb(213, 82, 52)" stroke-width="1.4561817275632158" x1="851" x2="47" y1="196" y2="518" /><line stroke="rgb(187, 83, 87)" stroke-width="0.9874000716326341" x1="198" x2="125" y1="431" y2="371" /><line stroke="rgb(77, 25, 115)" stroke-width="1.9879494994508613" x1="243" x2="2" y1="617" y2="393" /><line stroke="rgb(20, 131, 8)" stroke-width="0.5653270914986417" x1="455" x2="276" y1="586" y2="395" /><line stroke="rgb(205, 178, 43)" stroke-width="2.1481845652445606" x1="852" x2="613" y1="74" y2="246" /><line stroke="rgb(13, 75, 181)" stroke-width="1.6237386603769326" x1="633" x2="350" y1="384" y2="198" /><line stroke="rgb(38, 71, 68)" stroke-width="1.2065148412999025" x1="732" x2="529" y1="175" y2="28" /><line stroke="rgb(106, 95, 232)" stroke-width="1.2918472572710222" x1="123" x2="636" y1="286" y2="331" /><line stroke="rgb(240, 66, 155)" stroke-width="0.7893817416413752" x1="611" x2="487" y1="307" y2="14" /><line stroke="rgb(65, 154, 189)" stroke-width="2.557473017905745" x1="698" x2="6" y1="103" y2="363" /><line stroke="rgb(1, 105, 85)" stroke-width="2.622240323651601" x1="388" x2="610" y1="233" y2="387" /><line stroke="rgb(193, 220, 72)" stroke-width="1.0301998382670339" x1="515" x2="841" y1="263" y2="567" /><line stroke="rgb(29, 8, 122)" stroke-width="0.6738308503892929" x1="680" x2="461" y1="167" y2="118" /><path d="M760,458 L818,490 L306,65 Q151,658 311,258 Q882,254 351,360 Q61,314 889,328 C531,194 107,257 918,411 L79,67" fill="none" stroke="rgb(90, 254, 176)" stroke-width="2.382280951556315" /><path d="M222,442 C208,378 184,299 228,443 L816,6 C287,659 380,99 693,444 L169,257 L57,532 C7,455 112,611 1,380 Q404,99 869,358" fill="none" stroke="rgb(83, 29, 123)" stroke-width="1.3955262082216247" /><rect fill="none" height="186" stroke="rgb(114, 129, 104)" stroke-width="2.3945936508973524" transform="rotate(234 770 579)" width="35" x="155" y="437" /><line stroke="rgb(231, 100, 206)" stroke-width="1.4933095987869243" x1="100" x2="227" y1="512" y2="84" /><line stroke="rgb(38, 87, 153)" stroke-width="2.809419828434879" x1="522" x2="884" y1="72" y2="106" /><line stroke="rgb(224, 53, 93)" stroke-width="0.747977872679559" x1="441" x2="766" y1="189" y2="210" /><line stroke="rgb(240, 24, 63)" stroke-width="1.6292551477544621" x1="73" x2="176" y1="660" y2="27" /><line stroke="rgb(207, 140, 107)" stroke-width="2.1851540122491055" x1="487" x2="742" y1="297" y2="177" /><line stroke="rgb(251, 12, 97)" stroke-width="1.9468487996579384" x1="497" x2="902" y1="311" y2="182" /><line stroke="rgb(22, 110, 189)" stroke-width="2.6283394308265065" x1="566" x2="488" y1="437" y2="463" /><line stroke="rgb(134, 109, 24)" stroke-width="2.0775063621664813" x1="691" x2="777" y1="146" y2="339" /><line stroke="rgb(252, 241, 121)" stroke-width="1.2794531695754892" x1="889" x2="604" y1="469" y2="96" /><line stroke="rgb(81, 168, 242)" stroke-width="2.114986501689433" x1="929" x2="439" y1="450" y2="152" /><line stroke="rgb(61, 250, 191)" stroke-width="0.6090612639513924" x1="878" x2="336" y1="401" y2="13" /><line stroke="rgb(65, 253, 217)" stroke-width="1.9118446843755093" x1="826" x2="81" y1="380" y2="625" /><line stroke="rgb(93, 95, 231)" stroke-width="2.402096002897922" x1="419" x2="370" y1="387" y2="272" /><line stroke="rgb(174, 30, 49)" stroke-width="0.9249939803962266" x1="542" x2="59" y1="287" y2="463" /><line stroke="rgb(11, 165, 146)" stroke-width="1.6997878372858213" x1="404" x2="118" y1="277" y2="470" /><line stroke="rgb(13, 90, 68)" stroke-width="1.9041275435958371" x1="741" x2="126" y1="168" y2="399" /><line stroke="rgb(93, 249, 14)" stroke-width="2.692122447705352" x1="44" x2="704" y1="139" y2="328" /><line stroke="rgb(12, 103, 82)" stroke-width="1.641209542652625" x1="14" x2="538" y1="414" y2="518" /><line stroke="rgb(52, 250, 93)" stroke-width="0.9077550812461797" x1="492" x2="641" y1="474" y2="325" /><line stroke="rgb(123, 165, 139)" stroke-width="1.57360541806196" x1="52" x2="819" y1="567" y2="582" /><line stroke="rgb(17, 251, 42)" stroke-width="2.175284449058416" x1="450" x2="677" y1="261" y2="273" /><circle cx="799" cy="52" fill="none" opacity="0.7894423789263868" r="160" stroke="rgb(219, 122, 178)" stroke-width="1.2168834904478039" /><circle cx="629" cy="408" fill="none" opacity="0.6340042188727746" r="63" stroke="rgb(33, 60, 73)" stroke-width="4.498077069207666" /><rect fill="none" height="190" stroke="rgb(120, 86, 157)" stroke-width="4.50079286984827" transform="rotate(138 26 12)" width="64" x="678" y="212" /><rect fill="none" height="29" stroke="rgb(106, 164, 136)" stroke-width="3.8410833066731263" transform="rotate(258 448 301)" width="60" x="506" y="361" /><path d="M344,519 L422,655 Q155,230 799,635 Q796,75 922,499 Q677,124 931,45 C653,417 875,212 730,262 Q759,385 175,345" fill="none" stroke="rgb(224, 0, 236)" stroke-width="1.0206351842185575" /><circle cx="451" cy="583" fill="none" opacity="0.4340323141793577" r="149" stroke="rgb(21, 124, 208)" stroke-width="3.827883303759877" /><rect fill="none" height="102" stroke="rgb(25, 113, 210)" stroke-width="4.302993094172089" transform="rotate(257 929 78)" width="143" x="213" y="538" /><rect fill="none" height="58" stroke="rgb(249, 53, 206)" stroke-width="1.7863016956963313" transform="rotate(125 383 510)" width="139" x="565" y="488" /><polygon fill="none" points="190,249 581,572 592,443 166,597 545,515 696,220" stroke="rgb(36, 251, 229)" stroke-width="2.1006059702357325" /><circle cx="54" cy="114" fill="none" opacity="0.8774507147934958" r="136" stroke="rgb(183, 81, 194)" stroke-width="3.751612332664231" /><line stroke="rgb(2, 185, 173)" stroke-width="2.3216686520042122" x1="247" x2="141" y1="103" y2="28" /><line stroke="rgb(22, 18, 55)" stroke-width="1.0583961899045429" x1="787" x2="743" y1="487" y2="31" /><line stroke="rgb(61, 167, 43)" stroke-width="0.5719048643629003" x1="154" x2="141" y1="436" y2="663" /><line stroke="rgb(98, 1, 122)" stroke-width="2.813673575463826" x1="776" x2="230" y1="308" y2="437" /><line stroke="rgb(230, 58, 78)" stroke-width="1.8490890840419503" x1="297" x2="757" y1="240" y2="250" /><circle cx="319" cy="492" fill="none" opacity="0.6965132983903917" r="49" stroke="rgb(46, 4, 90)" stroke-width="3.792597852763767" /><polygon fill="none" points="148,94 423,358 603,83 118,519" stroke="rgb(143, 188, 254)" stroke-width="0.5074285278819812" /><line stroke="rgb(42, 172, 114)" stroke-width="1.1174072989847088" x1="105" x2="719" y1="421" y2="409" /><line stroke="rgb(153, 6, 213)" stroke-width="1.36499404880735" x1="174" x2="391" y1="676" y2="359" /><line stroke="rgb(30, 13, 108)" stroke-width="2.1113089086774712" x1="738" x2="542" y1="674" y2="464" /><line stroke="rgb(179, 127, 160)" stroke-width="2.322568010799381" x1="711" x2="372" y1="519" y2="198" /><line stroke="rgb(77, 254, 210)" stroke-width="2.3552349125193057" x1="9" x2="850" y1="191" y2="151" /><line stroke="rgb(206, 51, 198)" stroke-width="2.8593808203560744" x1="180" x2="617" y1="677" y2="493" /><line stroke="rgb(99, 52, 66)" stroke-width="2.1386702641236055" x1="443" x2="896" y1="375" y2="17" /><line stroke="rgb(163, 186, 71)" stroke-width="2.631668264268177" x1="377" x2="559" y1="95" y2="345" /><line stroke="rgb(173, 28, 111)" stroke-width="1.1961897427536963" x1="290" x2="684" y1="150" y2="372" /><circle cx="884" cy="499" fill="none" opacity="0.9182656492729497" r="114" stroke="rgb(141, 110, 84)" stroke-width="2.074083490374899" /><line stroke="rgb(86, 4, 204)" stroke-width="2.132205765993982" x1="752" x2="40" y1="62" y2="504" /><line stroke="rgb(4, 224, 78)" stroke-width="1.2188740669776226" x1="825" x2="395" y1="95" y2="675" /><line stroke="rgb(58, 49, 213)" stroke-width="1.7087438961641463" x1="285" x2="321" y1="9" y2="89" /><line stroke="rgb(174, 116, 146)" stroke-width="1.5935920165965305" x1="764" x2="935" y1="323" y2="512" /><line stroke="rgb(215, 134, 2)" stroke-width="2.9060354735351295" x1="879" x2="502" y1="546" y2="239" /><line stroke="rgb(255, 50, 148)" stroke-width="2.1407203944520186" x1="724" x2="562" y1="73" y2="627" /><line stroke="rgb(10, 12, 2)" stroke-width="0.5223023153068025" x1="309" x2="844" y1="569" y2="353" /><line stroke="rgb(154, 81, 184)" stroke-width="2.7200406041282923" x1="546" x2="186" y1="120" y2="345" /><line stroke="rgb(226, 109, 83)" stroke-width="2.1875018456994324" x1="596" x2="939" y1="572" y2="427" /><line stroke="rgb(224, 155, 228)" stroke-width="2.0105847733047297" x1="732" x2="896" y1="398" y2="565" /><line stroke="rgb(188, 198, 147)" stroke-width="0.9534027995241383" x1="65" x2="267" y1="612" y2="168" /><line stroke="rgb(182, 109, 218)" stroke-width="2.1411056924201404" x1="136" x2="682" y1="629" y2="252" /><line stroke="rgb(84, 164, 99)" stroke-width="1.9290516515402083" x1="781" x2="132" y1="150" y2="29" /><line stroke="rgb(55, 97, 63)" stroke-width="0.650097743043055" x1="470" x2="63" y1="102" y2="479" /><line stroke="rgb(216, 190, 138)" stroke-width="2.238884906128299" x1="466" x2="745" y1="92" y2="291" /><rect fill="none" height="45" stroke="rgb(16, 136, 129)" stroke-width="0.5405732550440273" transform="rotate(212 202 137)" width="30" x="144" y="280" /></svg>