<svg baseProfile="full" height="572px" version="1.1" width="1087px" xmlns="http://www.w3.org/2000/svg" xmlns:ev="http://www.w3.org/2001/xml-events" xmlns:xlink="http://www.w3.org/1999/xlink"><defs /><rect fill="rgb(252, 203, 201)" height="572px" width="1087px" x="0" y="0" /><line stroke="rgb(228, 232, 99)" stroke-width="0.8271684651689444" x1="636" x2="1026" y1="434" y2="120" /><line stroke="rgb(154, 180, 137)" stroke-width="2.814919896749645" x1="429" x2="757" y1="259" y2="47" /><line stroke="rgb(18, 94, 95)" stroke-width="1.4581546347857208" x1="46" x2="576" y1="380" y2="316" /><circle cx="119" cy="150" fill="none" opacity="0.6116163776351642" r="124" stroke="rgb(245, 119, 78)" stroke-width="0.9688491441688876" /><path d="M512,74 L314,85 Q260,311 877,333 C340,429 330,121 822,138 Q1016,406 932,380" fill="none" stroke="rgb(111, 202, 99)" stroke-width="1.7439355588661" /><line stroke="rgb(176, 183, 84)" stroke-width="0.6220485127984716" x1="700" x2="228" y1="174" y2="405" /><line stroke="rgb(50, 76, 55)" stroke-width="1.8950259067180872" x1="290" x2="457" y1="374" y2="352" /><line stroke="rgb(210, 222, 227)" stroke-width="1.4361378722171758" x1="225" x2="745" y1="253" y2="505" /><line stroke="rgb(178, 187, 121)" stroke-width="1.180527289170081" x1="300" x2="665" y1="230" y2="83" /><line stroke="rgb(106, 70, 84)" stroke-width="1.3258044876655932" x1="211" x2="709" y1="555" y2="482" /><line stroke="rgb(146, 219, 184)" stroke-width="2.4081304350234913" x1="705" x2="432" y1="454" y2="87" /><rect fill="none" height="62" stroke="rgb(52, 147, 190)" stroke-width="0.7771696805241939" transform="rotate(202 83 305)" width="69" x="573" y="396" /><line stroke="rgb(219, 74, 129)" stroke-width="2.906770248631116" x1="21" x2="1040" y1="361" y2="57" /><line stroke="rgb(198, 226, 69)" stroke-width="1.8146536875288786" x1="958" x2="380" y1="128" y2="565" /><line stroke="rgb(72, 229, 221)" stroke-width="1.6378267675150602" x1="890" x2="1081" y1="455" y2="436" /><line stroke="rgb(144, 192, 121)" stroke-width="2.1211586545207126" x1="581" x2="452" y1="497" y2="448" /><line stroke="rgb(171, 151, 139)" stroke-width="2.3408367048683894" x1="910" x2="390" y1="166" y2="114" /><line stroke="rgb(34, 114, 70)" stroke-width="2.2329985980898295" x1="882" x2="247" y1="187" y2="565" /><line stroke="rgb(254, 220, 223)" stroke-width="1.4901116447382095" x1="769" x2="645" y1="474" y2="489" /><line stroke="rgb(78, 68, 172)" stroke-width="2.6083732300212596" x1="221" x2="805" y1="77" y2="314" /><line stroke="rgb(38, 72, 204)" stroke-width="0.5951813218261834" x1="645" x2="188" y1="162" y2="345" /><line stroke="rgb(149, 210, 243)" stroke-width="1.1166941989691097" x1="671" x2="773" y1="236" y2="467" /><line stroke="rgb(141, 60, 99)" stroke-width="2.8823352348371825" x1="972" x2="805" y1="181" y2="533" /><line stroke="rgb(140, 13, 137)" stroke-width="0.6390734313953307" x1="716" x2="593" y1="376" y2="570" /><path d="M404,260 L366,310 C777,80 463,318 144,565 Q975,550 149,359 L611,346" fill="none" stroke="rgb(170, 233, 117)" stroke-width="1.2906402334978533" /><circle cx="409" cy="135" fill="none" opacity="0.5740178309025894" r="140" stroke="rgb(153, 99, 48)" stroke-width="2.972547021024819" /><rect fill="none" height="186" stroke="rgb(124, 5, 54)" stroke-width="4.009918969283477" transform="rotate(170 909 431)" width="185" x="779" y="220" /><path d="M394,279 Q429,395 1032,121 Q1081,134 690,44 L965,492" fill="none" stroke="rgb(215, 172, 221)" stroke-width="2.24699346363893" /><line stroke="rgb(72, 132, 37)" stroke-width="1.1519521605764091" x1="914" x2="6" y1="436" y2="278" /><line stroke="rgb(16, 214, 42)" stroke-width="1.0527812003072712" x1="254" x2="310" y1="54" y2="198" /><line stroke="rgb(50, 245, 244)" stroke-width="2.4516528270064493" x1="930" x2="532" y1="380" y2="559" /><rect fill="none" height="70" stroke="rgb(159, 94, 146)" stroke-width="2.4487933540678637" transform="rotate(195 934 39)" width="114" x="851" y="48" /><rect fill="none" height="115" stroke="rgb(129, 90, 30)" stroke-width="4.945972847671092" transform="rotate(328 1047 500)" width="108" x="955" y="385" /><rect fill="none" height="189" stroke="rgb(35, 214, 15)" stroke-width="2.5281172761319812" transform="rotate(327 587 497)" width="61" x="517" y="351" /><path d="M214,402 Q100,502 167,381 L219,216 Q843,439 155,318 C506,545 883,520 432,314" fill="none" stroke="rgb(77, 119, 35)" stroke-width="2.349199813361387" /><rect fill="none" height="75" stroke="rgb(27, 255, 48)" stroke-width="0.7696741769212879" transform="rotate(196 165 293)" width="138" x="437" y="63" /><circle cx="852" cy="57" fill="none" opacity="0.415304783706244" r="127" stroke="rgb(235, 154, 209)" stroke-width="4.725828301202528" /><path d="M288,567 C700,44 299,344 210,219 L187,516 Q886,52 922,542 Q299,335 725,464 Q887,78 253,531 L564,329 L718,215" fill="none" stroke="rgb(42, 253, 131)" stroke-width="1.4891364500910105" /><rect fill="none" height="199" stroke="rgb(121, 84, 66)" stroke-width="4.366783106767205" transform="rotate(268 524 23)" width="142" x="271" y="293" /><line stroke="rgb(179, 2, 112)" stroke-width="2.22480732972091" x1="765" x2="361" y1="221" y2="373" /><line stroke="rgb(84, 166, 210)" stroke-width="1.2586233856085753" x1="21" x2="506" y1="371" y2="202" /><line stroke="rgb(165, 132, 109)" stroke-width="0.7889567250391687" x1="265" x2="140" y1="354" y2="269" /><line stroke="rgb(45, 16, 79)" stroke-width="2.5949594357893755" x1="548" x2="410" y1="408" y2="471" /><line stroke="rgb(127, 196, 103)" stroke-width="2.592478454756221" x1="180" x2="529" y1="243" y2="438" /><line stroke="rgb(146, 122, 66)" stroke-width="2.9437160747576048" x1="994" x2="339" y1="299" y2="226" /><polygon fill="none" points="966,85 832,417 646,390 477,14 98,131 100,45 955,164" stroke="rgb(206, 45, 58)" stroke-width="2.0428691829245205" /><rect fill="none" height="90" stroke="rgb(32, 176, 135)" stroke-width="2.5878710238640585" transform="rotate(346 1068 0)" width="48" x="712" y="148" /><line stroke="rgb(252, 56, 145)" stroke-width="1.7401189756583246" x1="938" x2="404" y1="113" y2="448" /><line stroke="rgb(200, 197, 94)" stroke-width="2.741509950383234" x1="151" x2="243" y1="547" y2="518" /><line stroke="rgb(27, 103, 153)" stroke-width="1.57541652073076" x1="735" x2="777" y1="314" y2="480" /><line stroke="rgb(219, 9, 197)" stroke-width="0.8797268157909672" x1="184" x2="558" y1="563" y2="75" /><line stroke="rgb(36, 40, 162)" stroke-width="1.4782649109374657" x1="320" x2="1035" y1="243" y2="467" /><line stroke="rgb(96, 106, 146)" stroke-width="2.145027410454335" x1="725" x2="804" y1="45" y2="66" /><line stroke="rgb(64, 85, 188)" stroke-width="2.6187768272766827" x1="484" x2="623" y1="416" y2="540" /><line stroke="rgb(44, 159, 119)" stroke-width="1.4767838949126981" x1="1044" x2="1037" y1="114" y2="406" /><line stroke="rgb(125, 212, 132)" stroke-width="0.579460326718791" x1="805" x2="39" y1="262" y2="456" /><line stroke="rgb(198, 150, 27)" stroke-width="1.6573221491326933" x1="1020" x2="94" y1="97" y2="372" /><path d="M707,206 L934,219 C531,346 679,492 355,397 C778,212 660,183 869,116 Q741,154 348,62 C996,37 1066,511 303,232 C630,199 79,355 504,200" fill="none" stroke="rgb(57, 96, 144)" stroke-width="1.342372248684911" /><rect fill="none" height="190" stroke="rgb(238, 153, 39)" stroke-width="3.8404675845609937" transform="rotate(270 428 122)" width="103" x="333" y="455" /><circle cx="874" cy="66" fill="none" opacity="0.7672369241667565" r="39" stroke="rgb(189, 187, 246)" stroke-width="1.4791960661957397" /></svg>