<svg baseProfile="full" height="494px" version="1.1" width="696px" xmlns="http://www.w3.org/2000/svg" xmlns:ev="http://www.w3.org/2001/xml-events" xmlns:xlink="http://www.w3.org/1999/xlink"><defs /><rect fill="rgb(223, 226, 243)" height="494px" width="696px" x="0" y="0" /><polygon fill="none" points="274,134 177,83 166,361 357,411 648,151" stroke="rgb(102, 76, 16)" stroke-width="1.3982268914459781" /><circle cx="411" cy="109" fill="none" opacity="0.3591608536532067" r="55" stroke="rgb(110, 219, 174)" stroke-width="2.4875450613559984" /><circle cx="53" cy="393" fill="none" opacity="0.4738505598515279" r="24" stroke="rgb(250, 246, 199)" stroke-width="3.3334704629951113" /><polygon fill="none" points="424,415 28,0 433,84 677,103 537,468" stroke="rgb(187, 251, 248)" stroke-width="0.5048459193047814" /><line stroke="rgb(130, 59, 93)" stroke-width="1.6302555470904276" x1="548" x2="510" y1="229" y2="39" /><line stroke="rgb(99, 194, 149)" stroke-width="2.3964536439534743" x1="270" x2="639" y1="170" y2="132" /><line stroke="rgb(127, 81, 88)" stroke-width="1.6058103146302676" x1="565" x2="149" y1="234" y2="421" /><line stroke="rgb(96, 229, 68)" stroke-width="1.508239520466736" x1="213" x2="8" y1="459" y2="474" /><line stroke="rgb(226, 8, 58)" stroke-width="1.6270520258251147" x1="515" x2="88" y1="177" y2="181" /><line stroke="rgb(126, 106, 26)" stroke-width="2.010587469822385" x1="277" x2="633" y1="40" y2="479" /><line stroke="rgb(216, 11, 120)" stroke-width="1.5064523028297745" x1="78" x2="476" y1="472" y2="333" /><line stroke="rgb(70, 14, 66)" stroke-width="2.6685562844142354" x1="606" x2="191" y1="329" y2="434" /><line stroke="rgb(116, 37, 101)" stroke-width="2.5243740611197123" x1="435" x2="597" y1="41" y2="347" /><line stroke="rgb(88, 89, 40)" stroke-width="1.3337782093544943" x1="82" x2="684" y1="409" y2="322" /><line stroke="rgb(163, 120, 186)" stroke-width="1.7798842356080549" x1="579" x2="123" y1="271" y2="417" /><path d="M94,318 C285,374 317,111 434,436 L270,265 L120,8 L562,174 L303,129 Q547,335 372,422" fill="none" stroke="rgb(20, 98, 164)" stroke-width="2.4414136989836517" /><polygon fill="none" points="327,301 461,200 290,132 162,250 522,242 621,475 38,327 636,37" stroke="rgb(138, 48, 252)" stroke-width="2.977718126931216" /><path d="M601,439 L472,52 Q46,134 507,26 L509,461 C246,452 85,275 342,357 L343,159 C493,1 603,274 271,430" fill="none" stroke="rgb(72, 0, 236)" stroke-width="2.65486921672602" /><line stroke="rgb(4, 252, 193)" stroke-width="1.6338615438775237" x1="497" x2="15" y1="416" y2="340" /><line stroke="rgb(34, 208, 45)" stroke-width="1.6405165181401058" x1="214" x2="208" y1="8" y2="296" /><line stroke="rgb(252, 206, 217)" stroke-width="1.1262730869066313" x1="642" x2="329" y1="354" y2="283" /><line stroke="rgb(223, 184, 187)" stroke-width="0.8916873408409163" x1="369" x2="604" y1="248" y2="265" /><line stroke="rgb(216, 13, 160)" stroke-width="2.1669105596305736" x1="223" x2="112" y1="467" y2="149" /><line stroke="rgb(27, 104, 133)" stroke-width="2.097529453088536" x1="438" x2="118" y1="405" y2="150" /><line stroke="rgb(236, 177, 63)" stroke-width="2.4743284634238467" x1="352" x2="376" y1="72" y2="82" /><line stroke="rgb(198, 7, 237)" stroke-width="1.676942179030152" x1="468" x2="454" y1="47" y2="476" /><line stroke="rgb(204, 7, 69)" stroke-width="2.863967698653477" x1="671" x2="139" y1="62" y2="90" /><line stroke="rgb(102, 41, 76)" stroke-width="0.7657425261376917" x1="501" x2="577" y1="422" y2="76" /><path d="M17,429 Q156,61 384,312 Q112,67 356,84 L254,270 L354,274" fill="none" stroke="rgb(117, 221, 177)" stroke-width="1.7232944414927902" /><line stroke="rgb(97, 57, 255)" stroke-width="1.0082949196336366" x1="615" x2="409" y1="112" y2="138" /><line stroke="rgb(145, 120, 31)" stroke-width="2.3874890230282664" x1="180" x2="694" y1="241" y2="19" /><line stroke="rgb(229, 181, 142)" stroke-width="1.2788166549599693" x1="389" x2="451" y1="393" y2="49" /><line stroke="rgb(227, 97, 164)" stroke-width="1.7889387182800671" x1="570" x2="474" y1="424" y2="473" /><line stroke="rgb(75, 131, 147)" stroke-width="0.9791720978186775" x1="404" x2="508" y1="430" y2="3" /><line stroke="rgb(83, 87, 71)" stroke-width="2.901102148676613" x1="633" x2="214" y1="126" y2="373" /><line stroke="rgb(205, 113, 207)" stroke-width="0.5486463100054955" x1="327" x2="96" y1="96" y2="339" /><line stroke="rgb(202, 208, 170)" stroke-width="2.6386043993395556" x1="132" x2="337" y1="372" y2="473" /><line stroke="rgb(213, 38, 43)" stroke-width="2.9377126773046935" x1="598" x2="158" y1="108" y2="191" /><polygon fill="none" points="434,57 214,243 104,251" stroke="rgb(50, 54, 124)" stroke-width="3.6681803731109137" /><circle cx="298" cy="59" fill="none" opacity="0.6376074933985556" r="77" stroke="rgb(233, 176, 83)" stroke-width="2.6201241893639082" /><path d="M222,51 L532,34 Q92,126 307,370 C468,30 444,142 696,280 Q478,200 646,464" fill="none" stroke="rgb(173, 223, 205)" stroke-width="2.567811034701303" /><line stroke="rgb(94, 251, 229)" stroke-width="2.439191971486877" x1="170" x2="192" y1="217" y2="470" /><line stroke="rgb(8, 125, 55)" stroke-width="0.879800778384979" x1="381" x2="302" y1="436" y2="211" /><line stroke="rgb(155, 185, 77)" stroke-width="2.4424380259905263" x1="532" x2="451" y1="130" y2="47" /><line stroke="rgb(66, 108, 116)" stroke-width="1.5497739269017734" x1="524" x2="543" y1="297" y2="296" /><circle cx="327" cy="259" fill="none" opacity="0.8058326258591604" r="49" stroke="rgb(195, 34, 65)" stroke-width="4.088737016344884" /></svg>