<svg baseProfile="full" height="473px" version="1.1" width="1034px" xmlns="http://www.w3.org/2000/svg" xmlns:ev="http://www.w3.org/2001/xml-events" xmlns:xlink="http://www.w3.org/1999/xlink"><defs /><rect fill="rgb(223, 227, 241)" height="473px" width="1034px" x="0" y="0" /><line stroke="rgb(8, 163, 227)" stroke-width="2.448811972978211" x1="35" x2="723" y1="434" y2="82" /><line stroke="rgb(172, 103, 67)" stroke-width="1.9679829106321274" x1="70" x2="84" y1="411" y2="160" /><line stroke="rgb(8, 231, 16)" stroke-width="2.805032046476811" x1="511" x2="553" y1="204" y2="20" /><line stroke="rgb(194, 115, 127)" stroke-width="2.8306323101409387" x1="293" x2="325" y1="81" y2="105" /><circle cx="403" cy="63" fill="none" opacity="0.9594771525671761" r="48" stroke="rgb(97, 79, 174)" stroke-width="2.424810894033031" /><polygon fill="none" points="952,215 352,411 678,408 169,107 404,452 406,421 33,59" stroke="rgb(49, 234, 202)" stroke-width="3.868249477603103" /><rect fill="none" height="24" stroke="rgb(57, 246, 173)" stroke-width="0.5364334982573322" transform="rotate(207 635 163)" width="142" x="926" y="326" /><polygon fill="none" points="661,162 444,411 355,160 213,172 95,209 469,450" stroke="rgb(205, 105, 9)" stroke-width="2.4025337503884656" /><path d="M251,300 Q598,309 261,261 Q4,338 330,245 L518,32 L279,161 Q522,327 354,15 C30,375 993,236 993,363" fill="none" stroke="rgb(241, 151, 179)" stroke-width="1.6991602920810849" /><circle cx="241" cy="206" fill="none" opacity="0.6414265377205426" r="35" stroke="rgb(8, 28, 223)" stroke-width="3.0456277011401" /><rect fill="none" height="130" stroke="rgb(218, 107, 204)" stroke-width="3.896487881137032" transform="rotate(297 534 90)" width="27" x="786" y="274" /><rect fill="none" height="65" stroke="rgb(70, 44, 156)" stroke-width="1.3484616143467656" transform="rotate(6 348 460)" width="173" x="450" y="125" /><circle cx="812" cy="150" fill="none" opacity="0.41459543301296287" r="58" stroke="rgb(179, 150, 79)" stroke-width="2.69008793852833" /><path d="M663,207 Q717,211 97,248 C612,308 900,71 615,250 L962,26 C545,472 553,471 388,236" fill="none" stroke="rgb(142, 234, 174)" stroke-width="0.7182523357179439" /><rect fill="none" height="89" stroke="rgb(155, 140, 91)" stroke-width="1.4499129879069403" transform="rotate(235 73 55)" width="92" x="501" y="306" /><circle cx="628" cy="358" fill="none" opacity="0.9622527003840842" r="66" stroke="rgb(232, 102, 73)" stroke-width="1.559673379792741" /><line stroke="rgb(197, 195, 155)" stroke-width="1.6680652220529915" x1="996" x2="750" y1="43" y2="297" /><line stroke="rgb(197, 90, 3)" stroke-width="2.384833535381314" x1="256" x2="973" y1="265" y2="204" /><line stroke="rgb(13, 66, 99)" stroke-width="0.8328037943668058" x1="290" x2="614" y1="91" y2="440" /><line stroke="rgb(112, 27, 96)" stroke-width="1.9001058256752" x1="413" x2="947" y1="351" y2="338" /><line stroke="rgb(226, 192, 155)" stroke-width="1.5886579807589825" x1="554" x2="169" y1="16" y2="167" /><line stroke="rgb(103, 60, 36)" stroke-width="1.9878615112015947" x1="1002" x2="562" y1="58" y2="115" /><line stroke="rgb(96, 195, 145)" stroke-width="0.5243417695005566" x1="424" x2="775" y1="228" y2="40" /><line stroke="rgb(247, 243, 76)" stroke-width="0.6725039398478498" x1="449" x2="786" y1="259" y2="198" /><rect fill="none" height="101" stroke="rgb(222, 39, 119)" stroke-width="2.2282212854263515" transform="rotate(99 1026 289)" width="98" x="517" y="123" /><polygon fill="none" points="552,82 834,195 257,348 242,13 865,468" stroke="rgb(249, 202, 196)" stroke-width="1.0413745853051601" /><polygon fill="none" points="443,337 201,52 74,179 684,110 503,1 213,309" stroke="rgb(190, 161, 220)" stroke-width="1.4079247579796152" /><polygon fill="none" points="808,67 345,200 574,331 948,336" stroke="rgb(94, 222, 113)" stroke-width="2.5639576420697914" /><line stroke="rgb(165, 198, 22)" stroke-width="1.443058499169946" x1="346" x2="807" y1="418" y2="157" /><line stroke="rgb(196, 154, 220)" stroke-width="2.321015494409954" x1="2" x2="929" y1="106" y2="314" /><line stroke="rgb(48, 237, 249)" stroke-width="1.1898236169676317" x1="822" x2="768" y1="374" y2="101" /><line stroke="rgb(204, 88, 191)" stroke-width="1.391253088347255" x1="139" x2="9" y1="146" y2="7" /><line stroke="rgb(137, 238, 81)" stroke-width="2.3240645997660296" x1="972" x2="183" y1="260" y2="222" /><line stroke="rgb(177, 33, 127)" stroke-width="0.7640733657199754" x1="591" x2="459" y1="413" y2="92" /><line stroke="rgb(151, 54, 27)" stroke-width="1.9533157991048837" x1="926" x2="275" y1="437" y2="416" /><line stroke="rgb(150, 121, 208)" stroke-width="1.5962521393401103" x1="315" x2="61" y1="220" y2="187" /><line stroke="rgb(38, 151, 37)" stroke-width="2.1205190864611003" x1="760" x2="91" y1="407" y2="466" /><line stroke="rgb(200, 123, 253)" stroke-width="0.6233441871968705" x1="208" x2="217" y1="84" y2="229" /><line stroke="rgb(107, 39, 20)" stroke-width="1.7165642073299265" x1="364" x2="182" y1="471" y2="380" /><line stroke="rgb(234, 200, 83)" stroke-width="0.6873091062660698" x1="756" x2="509" y1="308" y2="421" /><line stroke="rgb(212, 215, 203)" stroke-width="0.9918207086656717" x1="19" x2="108" y1="148" y2="100" /><line stroke="rgb(149, 64, 128)" stroke-width="1.067863912017255" x1="476" x2="395" y1="192" y2="270" /><line stroke="rgb(239, 71, 235)" stroke-width="2.3501954140301824" x1="971" x2="787" y1="417" y2="245" /><path d="M402,238 Q780,333 626,70 Q52,5 421,139 Q900,420 321,97 Q439,426 185,191" fill="none" stroke="rgb(140, 124, 191)" stroke-width="2.604178020905653" /><circle cx="567" cy="154" fill="none" opacity="0.7864553847610329" r="54" stroke="rgb(141, 195, 232)" stroke-width="2.723298963845212" /><circle cx="760" cy="178" fill="none" opacity="0.7694817123070363" r="97" stroke="rgb(138, 135, 169)" stroke-width="4.676488549943398" /><polygon fill="none" points="467,314 788,339 470,456 278,402 858,466 299,17" stroke="rgb(138, 121, 195)" stroke-width="2.3672030575288456" /><rect fill="none" height="54" stroke="rgb(87, 10, 202)" stroke-width="3.8019043016300897" transform="rotate(185 1018 421)" width="56" x="254" y="182" /><path d="M44,114 Q14,151 486,81 C843,20 882,372 485,261 Q324,202 611,22 L470,334 Q386,468 34,177" fill="none" stroke="rgb(250, 216, 231)" stroke-width="1.1910497795139694" /><polygon fill="none" points="457,73 857,393 123,364 101,93 654,452" stroke="rgb(249, 13, 189)" stroke-width="2.0661720674357564" /><path d="M850,283 Q389,54 521,166 L560,399 L72,264 L500,418 C229,326 179,34 838,262 Q628,154 726,343 C734,119 863,273 244,70" fill="none" stroke="rgb(152, 237, 18)" stroke-width="2.1160955527436633" /><line stroke="rgb(44, 52, 157)" stroke-width="2.1939710530437857" x1="433" x2="726" y1="303" y2="58" /><line stroke="rgb(4, 249, 26)" stroke-width="2.136754095820616" x1="909" x2="546" y1="307" y2="195" /><line stroke="rgb(57, 223, 167)" stroke-width="1.7282079986610153" x1="134" x2="70" y1="26" y2="8" /><line stroke="rgb(40, 41, 9)" stroke-width="2.416220466182832" x1="229" x2="420" y1="265" y2="236" /><line stroke="rgb(143, 100, 77)" stroke-width="2.9585322105816267" x1="854" x2="269" y1="403" y2="329" /><polygon fill="none" points="783,156 612,419 968,324 425,100 996,30" stroke="rgb(159, 135, 59)" stroke-width="2.8901000107628123" /><rect fill="none" height="28" stroke="rgb(200, 132, 96)" stroke-width="4.564959187409226" transform="rotate(248 711 2)" width="181" x="314" y="243" /><path d="M713,34 C324,50 941,68 853,387 L665,401 C152,279 698,77 582,23 C445,454 477,458 734,202 Q832,266 460,53 L838,349" fill="none" stroke="rgb(110, 117, 73)" stroke-width="1.7230233170693003" /><path d="M647,443 Q350,345 435,390 C852,284 654,92 805,118 C831,194 772,417 165,430 L302,65 L1018,20 C85,282 438,126 218,335 Q173,171 446,167" fill="none" stroke="rgb(35, 26, 205)" stroke-width="2.0686942198676066" /><rect fill="none" height="86" stroke="rgb(44, 68, 168)" stroke-width="1.1578158662060378" transform="rotate(239 185 40)" width="73" x="472" y="209" /><line stroke="rgb(20, 92, 74)" stroke-width="2.3485195008387585" x1="728" x2="498" y1="181" y2="33" /><line stroke="rgb(232, 53, 227)" stroke-width="1.1956475501975672" x1="519" x2="687" y1="13" y2="346" /><line stroke="rgb(122, 234, 222)" stroke-width="2.2168560191901885" x1="656" x2="84" y1="101" y2="471" /><line stroke="rgb(240, 29, 118)" stroke-width="1.1286947623685613" x1="911" x2="997" y1="284" y2="227" /><line stroke="rgb(137, 237, 186)" stroke-width="1.5562561329070097" x1="775" x2="140" y1="388" y2="14" /><line stroke="rgb(51, 200, 18)" stroke-width="0.9240816070084839" x1="192" x2="327" y1="464" y2="158" /><line stroke="rgb(172, 25, 56)" stroke-width="2.603235589145955" x1="661" x2="301" y1="162" y2="390" /><line stroke="rgb(192, 177, 249)" stroke-width="0.7462246700495105" x1="62" x2="522" y1="434" y2="131" /><line stroke="rgb(219, 38, 107)" stroke-width="2.7576568516254425" x1="797" x2="536" y1="125" y2="291" /><circle cx="251" cy="302" fill="none" opacity="0.5911574079152915" r="112" stroke="rgb(53, 148, 12)" stroke-width="0.5058010970850838" /><path d="M560,51 C889,117 664,86 976,348 L551,34 Q814,311 854,283 L615,4 L697,132" fill="none" stroke="rgb(84, 200, 187)" stroke-width="2.2736858534037623" /><circle cx="559" cy="59" fill="none" opacity="0.9338436905836014" r="56" stroke="rgb(184, 180, 16)" stroke-width="3.1064880456897757" /><circle cx="154" cy="379" fill="none" opacity="0.46832379292075865" r="37" stroke="rgb(12, 99, 38)" stroke-width="0.8617460255823718" /><line stroke="rgb(62, 132, 117)" stroke-width="1.3200733612922129" x1="245" x2="867" y1="198" y2="357" /><line stroke="rgb(173, 21, 126)" stroke-width="1.3136342903207696" x1="523" x2="426" y1="242" y2="442" /><line stroke="rgb(90, 66, 237)" stroke-width="1.3970137743144497" x1="259" x2="627" y1="74" y2="306" /><line stroke="rgb(198, 34, 227)" stroke-width="0.7185364006590163" x1="481" x2="106" y1="14" y2="339" /><line stroke="rgb(47, 178, 68)" stroke-width="0.7320231693670927" x1="5" x2="738" y1="462" y2="323" /><line stroke="rgb(103, 174, 195)" stroke-width="1.3663702017657737" x1="365" x2="481" y1="72" y2="3" /><line stroke="rgb(170, 137, 241)" stroke-width="0.8151227172865628" x1="902" x2="402" y1="129" y2="218" /><line stroke="rgb(181, 117, 57)" stroke-width="0.5297173740355048" x1="226" x2="179" y1="320" y2="341" /><line stroke="rgb(238, 70, 90)" stroke-width="1.8151799545338905" x1="440" x2="1007" y1="305" y2="165" /><line stroke="rgb(148, 216, 71)" stroke-width="2.5052621572918246" x1="474" x2="959" y1="264" y2="218" /><line stroke="rgb(142, 151, 179)" stroke-width="2.0440844898285797" x1="913" x2="998" y1="103" y2="14" /><line stroke="rgb(80, 44, 98)" stroke-width="0.6884196030453494" x1="161" x2="382" y1="159" y2="192" /><line stroke="rgb(191, 183, 190)" stroke-width="1.3150864219627874" x1="9" x2="207" y1="53" y2="298" /><line stroke="rgb(32, 226, 45)" stroke-width="2.15884397299373" x1="78" x2="6" y1="467" y2="26" /><line stroke="rgb(97, 31, 194)" stroke-width="1.811365991683839" x1="933" x2="193" y1="397" y2="121" /><line stroke="rgb(165, 224, 169)" stroke-width="1.1011575761727925" x1="421" x2="90" y1="330" y2="269" /><line stroke="rgb(60, 35, 190)" stroke-width="2.177904391946422" x1="805" x2="1008" y1="473" y2="353" /><line stroke="rgb(70, 50, 69)" stroke-width="2.3873361405735833" x1="704" x2="980" y1="134" y2="275" /><line stroke="rgb(245, 7, 77)" stroke-width="2.0719790122865014" x1="649" x2="943" y1="2" y2="149" /><line stroke="rgb(123, 113, 82)" stroke-width="1.5455399861830126" x1="118" x2="691" y1="47" y2="408" /><line stroke="rgb(88, 239, 92)" stroke-width="2.93401492723972" x1="228" x2="24" y1="321" y2="190" /><line stroke="rgb(24, 95, 5)" stroke-width="1.3293333048179106" x1="179" x2="494" y1="198" y2="457" /><line stroke="rgb(200, 12, 176)" stroke-width="1.143475237033764" x1="870" x2="659" y1="406" y2="180" /><line stroke="rgb(0, 136, 30)" stroke-width="1.6352637724845325" x1="339" x2="531" y1="135" y2="283" /><line stroke="rgb(102, 13, 221)" stroke-width="1.6599755152552786" x1="294" x2="385" y1="77" y2="147" /><line stroke="rgb(182, 247, 131)" stroke-width="0.6801707494681073" x1="800" x2="537" y1="78" y2="81" /><line stroke="rgb(48, 192, 169)" stroke-width="0.87012427988211" x1="407" x2="946" y1="147" y2="290" /><line stroke="rgb(182, 111, 17)" stroke-width="1.0198670401296814" x1="176" x2="553" y1="449" y2="376" /><polygon fill="none" points="1002,86 613,292 426,234" stroke="rgb(180, 36, 174)" stroke-width="0.7223665683967246" /><path d="M987,48 C396,248 761,270 293,249 C461,32 913,460 587,47 Q1013,378 690,362" fill="none" stroke="rgb(112, 122, 95)" stroke-width="2.8291213715794408" /><rect fill="none" height="114" stroke="rgb(147, 28, 234)" stroke-width="1.2513999464340584" transform="rotate(141 149 213)" width="127" x="281" y="261" /><circle cx="769" cy="297" fill="none" opacity="0.6541922949241935" r="66" stroke="rgb(242, 103, 83)" stroke-width="4.395570187893968" /></svg>