<svg baseProfile="full" height="598px" version="1.1" width="955px" xmlns="http://www.w3.org/2000/svg" xmlns:ev="http://www.w3.org/2001/xml-events" xmlns:xlink="http://www.w3.org/1999/xlink"><defs /><rect fill="rgb(253, 214, 249)" height="598px" width="955px" x="0" y="0" /><rect fill="none" height="147" stroke="rgb(120, 225, 163)" stroke-width="1.0098285430358798" transform="rotate(199 244 40)" width="134" x="312" y="236" /><line stroke="rgb(12, 45, 80)" stroke-width="1.587305424727548" x1="17" x2="310" y1="407" y2="122" /><line stroke="rgb(7, 155, 242)" stroke-width="2.5338320407087633" x1="477" x2="426" y1="84" y2="399" /><line stroke="rgb(169, 151, 193)" stroke-width="2.3866250700428413" x1="903" x2="671" y1="281" y2="416" /><polygon fill="none" points="660,549 192,237 509,121" stroke="rgb(185, 56, 196)" stroke-width="3.6831070384507214" /><circle cx="536" cy="256" fill="none" opacity="0.8488779125052281" r="102" stroke="rgb(181, 216, 195)" stroke-width="1.2634166661503925" /><rect fill="none" height="63" stroke="rgb(105, 148, 228)" stroke-width="2.372204307887384" transform="rotate(227 684 26)" width="169" x="5" y="211" /><line stroke="rgb(83, 181, 213)" stroke-width="0.7175186864338446" x1="731" x2="56" y1="100" y2="283" /><line stroke="rgb(164, 24, 229)" stroke-width="0.7854438831260817" x1="14" x2="287" y1="277" y2="287" /><line stroke="rgb(219, 192, 241)" stroke-width="1.4780691387050853" x1="266" x2="205" y1="378" y2="422" /><line stroke="rgb(223, 92, 19)" stroke-width="1.865865097978575" x1="446" x2="649" y1="248" y2="560" /><path d="M449,482 Q151,457 250,528 L453,83 L338,152 C650,101 815,534 707,422 L257,54 L337,23 L897,245" fill="none" stroke="rgb(52, 94, 50)" stroke-width="1.3457978281870047" /><polygon fill="none" points="366,110 772,379 734,184 639,425 841,586 51,56" stroke="rgb(44, 251, 12)" stroke-width="1.708605412850061" /><line stroke="rgb(204, 241, 70)" stroke-width="2.9331017857554507" x1="756" x2="574" y1="597" y2="418" /><line stroke="rgb(139, 98, 67)" stroke-width="1.5634354062354754" x1="157" x2="151" y1="10" y2="364" /><line stroke="rgb(158, 129, 161)" stroke-width="2.9309962228665105" x1="707" x2="228" y1="512" y2="198" /><line stroke="rgb(58, 251, 231)" stroke-width="0.6502150370942792" x1="673" x2="249" y1="188" y2="469" /><line stroke="rgb(217, 38, 43)" stroke-width="1.3979247656926521" x1="215" x2="224" y1="195" y2="421" /><line stroke="rgb(240, 236, 69)" stroke-width="0.5445567182570294" x1="580" x2="371" y1="205" y2="190" /><line stroke="rgb(154, 8, 24)" stroke-width="1.684849069183662" x1="199" x2="81" y1="446" y2="26" /><line stroke="rgb(99, 112, 73)" stroke-width="1.0585169720579322" x1="49" x2="488" y1="231" y2="71" /><line stroke="rgb(104, 27, 220)" stroke-width="1.4751767763979942" x1="633" x2="911" y1="475" y2="247" /><rect fill="none" height="193" stroke="rgb(224, 126, 176)" stroke-width="4.6091521057756335" transform="rotate(264 284 24)" width="66" x="238" y="402" /><circle cx="597" cy="445" fill="none" opacity="0.3400743451316341" r="28" stroke="rgb(11, 66, 66)" stroke-width="1.7574676690342657" /><circle cx="251" cy="161" fill="none" opacity="0.8944607886372058" r="114" stroke="rgb(170, 243, 70)" stroke-width="2.33870875446235" /><line stroke="rgb(154, 121, 97)" stroke-width="2.466025873065656" x1="126" x2="761" y1="436" y2="97" /><line stroke="rgb(150, 105, 176)" stroke-width="2.154227806594464" x1="307" x2="738" y1="34" y2="551" /><line stroke="rgb(184, 145, 228)" stroke-width="1.7501595413313569" x1="640" x2="721" y1="137" y2="8" /><line stroke="rgb(8, 53, 247)" stroke-width="1.2824717455337715" x1="710" x2="110" y1="13" y2="371" /><line stroke="rgb(176, 107, 36)" stroke-width="1.01741623064826" x1="456" x2="526" y1="167" y2="39" /><line stroke="rgb(234, 50, 254)" stroke-width="1.6575387430307047" x1="84" x2="954" y1="512" y2="265" /><line stroke="rgb(39, 171, 223)" stroke-width="2.7575438438159674" x1="195" x2="433" y1="314" y2="131" /><line stroke="rgb(130, 187, 49)" stroke-width="1.7980990234714058" x1="292" x2="327" y1="407" y2="321" /><line stroke="rgb(53, 226, 63)" stroke-width="1.6537046511947806" x1="316" x2="204" y1="215" y2="512" /><line stroke="rgb(34, 38, 58)" stroke-width="1.6190715786257415" x1="753" x2="572" y1="83" y2="72" /><rect fill="none" height="46" stroke="rgb(97, 174, 11)" stroke-width="4.363946940479404" transform="rotate(201 715 212)" width="96" x="1" y="497" /></svg>