<svg baseProfile="full" height="511px" version="1.1" width="797px" xmlns="http://www.w3.org/2000/svg" xmlns:ev="http://www.w3.org/2001/xml-events" xmlns:xlink="http://www.w3.org/1999/xlink"><defs /><rect fill="rgb(244, 223, 255)" height="511px" width="797px" x="0" y="0" /><circle cx="164" cy="415" fill="none" opacity="0.4017617619131245" r="103" stroke="rgb(195, 80, 197)" stroke-width="1.252651844200734" /><line stroke="rgb(138, 167, 92)" stroke-width="1.8105516774180956" x1="39" x2="218" y1="195" y2="352" /><line stroke="rgb(43, 187, 190)" stroke-width="0.7636796177775613" x1="597" x2="567" y1="12" y2="115" /><line stroke="rgb(169, 73, 251)" stroke-width="0.5342894748681897" x1="69" x2="617" y1="404" y2="31" /><line stroke="rgb(44, 189, 191)" stroke-width="0.6420418979006157" x1="9" x2="155" y1="197" y2="166" /><line stroke="rgb(98, 174, 164)" stroke-width="2.0106800507766582" x1="171" x2="377" y1="344" y2="326" /><line stroke="rgb(197, 42, 24)" stroke-width="2.9113902371012306" x1="474" x2="145" y1="330" y2="218" /><line stroke="rgb(8, 236, 203)" stroke-width="2.2803423515170045" x1="397" x2="556" y1="439" y2="23" /><line stroke="rgb(5, 89, 63)" stroke-width="1.9381425208070497" x1="457" x2="85" y1="15" y2="345" /><line stroke="rgb(130, 22, 122)" stroke-width="2.6387521851353792" x1="169" x2="57" y1="458" y2="23" /><line stroke="rgb(66, 159, 92)" stroke-width="2.8232334965267833" x1="42" x2="503" y1="264" y2="140" /><polygon fill="none" points="319,43 266,13 61,161 488,453 361,469" stroke="rgb(235, 148, 216)" stroke-width="0.9003201079685181" /><circle cx="612" cy="77" fill="none" opacity="0.4328521234724733" r="113" stroke="rgb(7, 50, 61)" stroke-width="2.138184455797005" /><rect fill="none" height="79" stroke="rgb(19, 217, 179)" stroke-width="1.1272801139411461" transform="rotate(263 106 80)" width="131" x="19" y="297" /><line stroke="rgb(134, 79, 59)" stroke-width="1.2802227954716572" x1="690" x2="260" y1="191" y2="146" /><line stroke="rgb(144, 167, 198)" stroke-width="0.605672745090693" x1="175" x2="397" y1="92" y2="221" /><line stroke="rgb(104, 8, 12)" stroke-width="1.8722270669949763" x1="247" x2="78" y1="244" y2="246" /><line stroke="rgb(217, 103, 51)" stroke-width="2.7297596693572777" x1="220" x2="247" y1="41" y2="202" /><path d="M331,279 C401,95 623,506 129,78 L217,240 Q559,335 786,137 L695,76 C279,305 464,318 700,365" fill="none" stroke="rgb(93, 253, 221)" stroke-width="0.5592960557091915" /><rect fill="none" height="78" stroke="rgb(65, 175, 123)" stroke-width="2.798987555034968" transform="rotate(139 693 25)" width="176" x="80" y="234" /><circle cx="501" cy="124" fill="none" opacity="0.8583661355179237" r="80" stroke="rgb(138, 254, 23)" stroke-width="3.7963098843256833" /><polygon fill="none" points="709,437 739,399 188,69 272,118 105,159 356,433 466,253 649,311" stroke="rgb(223, 77, 154)" stroke-width="0.9744612379999251" /><path d="M238,348 C515,292 763,277 232,466 C138,391 501,286 674,481 L170,166 C472,233 535,421 206,31" fill="none" stroke="rgb(80, 255, 209)" stroke-width="2.7197451606909295" /><polygon fill="none" points="405,410 790,244 796,281 540,369 679,413 299,108 643,207" stroke="rgb(81, 2, 249)" stroke-width="1.6921692452464558" /></svg>