<svg baseProfile="full" height="650px" version="1.1" width="647px" xmlns="http://www.w3.org/2000/svg" xmlns:ev="http://www.w3.org/2001/xml-events" xmlns:xlink="http://www.w3.org/1999/xlink"><defs /><rect fill="rgb(217, 220, 249)" height="650px" width="647px" x="0" y="0" /><path d="M444,251 L337,173 Q466,456 127,425 C438,179 509,338 43,328 C13,506 152,638 129,419 L330,314" fill="none" stroke="rgb(253, 30, 55)" stroke-width="2.756890722129768" /><circle cx="416" cy="158" fill="none" opacity="0.6121008167883814" r="107" stroke="rgb(155, 140, 248)" stroke-width="4.650144660742576" /><circle cx="161" cy="286" fill="none" opacity="0.31918550902523213" r="157" stroke="rgb(53, 200, 209)" stroke-width="1.3358428664149111" /><line stroke="rgb(251, 15, 90)" stroke-width="2.1841018217459047" x1="69" x2="293" y1="343" y2="321" /><line stroke="rgb(182, 52, 205)" stroke-width="2.71298769149901" x1="433" x2="127" y1="39" y2="380" /><line stroke="rgb(183, 176, 58)" stroke-width="1.1525444181357323" x1="187" x2="192" y1="99" y2="213" /><line stroke="rgb(90, 182, 113)" stroke-width="2.840195461423666" x1="280" x2="1" y1="340" y2="84" /><line stroke="rgb(117, 89, 181)" stroke-width="1.1293351832816707" x1="59" x2="400" y1="316" y2="119" /><line stroke="rgb(51, 115, 185)" stroke-width="2.685659043831584" x1="568" x2="623" y1="568" y2="421" /><line stroke="rgb(132, 146, 116)" stroke-width="1.2281962044482568" x1="373" x2="339" y1="124" y2="124" /><polygon fill="none" points="465,562 455,223 422,609" stroke="rgb(110, 102, 120)" stroke-width="2.296703227016741" /><line stroke="rgb(128, 45, 118)" stroke-width="2.7873643337233647" x1="488" x2="245" y1="462" y2="205" /><line stroke="rgb(62, 227, 52)" stroke-width="1.153365977583055" x1="223" x2="472" y1="536" y2="207" /><line stroke="rgb(142, 147, 91)" stroke-width="2.5607154626013324" x1="217" x2="624" y1="81" y2="160" /><line stroke="rgb(210, 170, 253)" stroke-width="2.0735376153601868" x1="284" x2="321" y1="399" y2="628" /><polygon fill="none" points="329,141 582,263 62,81 152,626 305,454 358,635" stroke="rgb(208, 125, 218)" stroke-width="0.732891490093381" /><path d="M258,66 C424,461 411,147 454,75 Q177,20 476,622 L369,62" fill="none" stroke="rgb(254, 167, 82)" stroke-width="0.9736754599621718" /><polygon fill="none" points="539,177 0,28 297,125 318,18 607,116 455,95 238,116 571,153" stroke="rgb(92, 165, 61)" stroke-width="1.9486598633314887" /><line stroke="rgb(198, 25, 217)" stroke-width="1.8988773497620055" x1="157" x2="618" y1="338" y2="95" /><line stroke="rgb(67, 17, 13)" stroke-width="2.4835342647518988" x1="620" x2="0" y1="307" y2="380" /><line stroke="rgb(107, 154, 239)" stroke-width="0.74692582931513" x1="539" x2="539" y1="478" y2="484" /><line stroke="rgb(175, 72, 124)" stroke-width="2.9996025024008133" x1="515" x2="473" y1="294" y2="249" /><line stroke="rgb(152, 147, 154)" stroke-width="1.8744667522880885" x1="229" x2="351" y1="52" y2="453" /><line stroke="rgb(59, 51, 34)" stroke-width="1.5157876022038923" x1="118" x2="486" y1="595" y2="413" /><line stroke="rgb(82, 234, 225)" stroke-width="0.5266853829352156" x1="363" x2="533" y1="275" y2="271" /><line stroke="rgb(136, 159, 227)" stroke-width="0.5362820829253513" x1="253" x2="140" y1="520" y2="241" /><rect fill="none" height="172" stroke="rgb(165, 73, 79)" stroke-width="3.3958042025793556" transform="rotate(344 48 183)" width="23" x="297" y="82" /><rect fill="none" height="20" stroke="rgb(52, 244, 81)" stroke-width="1.0583125876412094" transform="rotate(235 127 454)" width="57" x="140" y="326" /><rect fill="none" height="181" stroke="rgb(167, 6, 34)" stroke-width="3.438435180096961" transform="rotate(187 198 616)" width="89" x="445" y="91" /><polygon fill="none" points="30,413 0,594 176,357 310,47" stroke="rgb(206, 101, 233)" stroke-width="1.8180485769728933" /><line stroke="rgb(4, 70, 197)" stroke-width="0.5608853922256971" x1="59" x2="55" y1="46" y2="169" /><line stroke="rgb(17, 167, 74)" stroke-width="0.5940762727796784" x1="50" x2="100" y1="494" y2="196" /><line stroke="rgb(202, 231, 247)" stroke-width="1.3297665840113955" x1="444" x2="444" y1="156" y2="166" /><line stroke="rgb(196, 252, 198)" stroke-width="0.8147992331553593" x1="378" x2="124" y1="213" y2="454" /><line stroke="rgb(89, 84, 177)" stroke-width="2.5901383453847533" x1="282" x2="390" y1="144" y2="51" /><circle cx="338" cy="190" fill="none" opacity="0.32117895541306085" r="160" stroke="rgb(6, 147, 250)" stroke-width="2.049735735929846" /><path d="M335,99 Q87,134 138,624 L518,556 L471,604 C40,396 266,229 95,329 C387,24 537,243 597,22" fill="none" stroke="rgb(221, 21, 18)" stroke-width="0.7052279084734518" /><path d="M294,192 L182,217 L633,4 C374,406 50,69 241,404 Q247,271 415,327 C434,363 587,124 103,88 C90,238 303,396 514,46 C544,297 427,108 113,1" fill="none" stroke="rgb(159, 230, 218)" stroke-width="0.7447231653218512" /><circle cx="384" cy="248" fill="none" opacity="0.36524473013908243" r="120" stroke="rgb(59, 86, 93)" stroke-width="2.1452501921171194" /><circle cx="308" cy="397" fill="none" opacity="0.3153518559689517" r="54" stroke="rgb(247, 25, 137)" stroke-width="2.8429820197038054" /><path d="M300,217 L460,267 C525,521 596,366 71,508 Q578,410 193,348 L10,257" fill="none" stroke="rgb(222, 166, 129)" stroke-width="2.128181878166665" /><polygon fill="none" points="505,515 56,317 437,497 576,533 388,558 74,552" stroke="rgb(249, 94, 187)" stroke-width="2.8029013112268775" /><circle cx="265" cy="93" fill="none" opacity="0.8594671368795841" r="54" stroke="rgb(60, 89, 54)" stroke-width="4.980510073785893" /><circle cx="449" cy="541" fill="none" opacity="0.8820060483899734" r="57" stroke="rgb(178, 152, 219)" stroke-width="2.644711084171195" /><circle cx="423" cy="258" fill="none" opacity="0.7811139056365416" r="88" stroke="rgb(194, 56, 28)" stroke-width="0.5360122654260693" /><polygon fill="none" points="619,496 464,49 634,551 22,428 397,519 533,82" stroke="rgb(89, 254, 98)" stroke-width="1.0478012690679044" /><path d="M454,539 Q496,558 269,37 C80,130 430,574 70,531 Q52,373 538,646" fill="none" stroke="rgb(247, 197, 58)" stroke-width="2.194866721490711" /><line stroke="rgb(252, 24, 113)" stroke-width="2.2860508855319353" x1="159" x2="383" y1="464" y2="266" /><line stroke="rgb(74, 0, 207)" stroke-width="1.7114471089372172" x1="120" x2="379" y1="636" y2="183" /><line stroke="rgb(173, 40, 187)" stroke-width="1.7338952802367187" x1="603" x2="36" y1="537" y2="27" /><line stroke="rgb(166, 194, 196)" stroke-width="1.261226990750972" x1="548" x2="554" y1="36" y2="150" /><line stroke="rgb(207, 159, 209)" stroke-width="1.1375225231165231" x1="565" x2="290" y1="594" y2="462" /><line stroke="rgb(57, 48, 119)" stroke-width="1.01153417725161" x1="638" x2="237" y1="9" y2="205" /><line stroke="rgb(55, 222, 88)" stroke-width="2.8669769684795243" x1="78" x2="46" y1="628" y2="549" /><line stroke="rgb(113, 56, 180)" stroke-width="2.9649705102048483" x1="280" x2="255" y1="184" y2="351" /><path d="M599,8 C327,624 197,210 136,301 C117,504 59,482 613,166 Q72,30 493,401 C3,543 496,134 289,589 L204,249 Q523,426 170,34 C472,364 146,433 449,230" fill="none" stroke="rgb(145, 179, 161)" stroke-width="2.3463168306743407" /><line stroke="rgb(45, 66, 255)" stroke-width="2.4030185337933747" x1="199" x2="401" y1="214" y2="295" /><line stroke="rgb(181, 214, 146)" stroke-width="1.1841613660979748" x1="271" x2="522" y1="30" y2="101" /><line stroke="rgb(20, 190, 171)" stroke-width="2.365974529428236" x1="37" x2="18" y1="22" y2="605" /><line stroke="rgb(75, 225, 46)" stroke-width="2.9081781233740944" x1="646" x2="224" y1="413" y2="356" /><line stroke="rgb(109, 240, 54)" stroke-width="2.558823495570604" x1="237" x2="348" y1="499" y2="35" /><line stroke="rgb(99, 53, 217)" stroke-width="2.723518613465637" x1="47" x2="480" y1="370" y2="359" /><line stroke="rgb(13, 61, 158)" stroke-width="1.148689967402849" x1="416" x2="435" y1="607" y2="625" /><line stroke="rgb(189, 10, 183)" stroke-width="2.555921343017832" x1="642" x2="42" y1="206" y2="608" /><polygon fill="none" points="518,116 43,251 342,641 320,563" stroke="rgb(107, 73, 87)" stroke-width="1.3215100977822511" /><path d="M157,420 Q429,616 236,226 Q498,620 584,410 C243,412 303,569 321,636 C514,473 455,223 163,515 Q482,306 528,537 L7,266 L18,202" fill="none" stroke="rgb(108, 45, 130)" stroke-width="2.7898904424312834" /><polygon fill="none" points="337,36 621,627 46,628 203,207 468,69 644,125" stroke="rgb(157, 178, 147)" stroke-width="3.2315137035904145" /><path d="M559,176 L56,107 L207,535 Q321,10 145,436 Q450,235 43,336 L130,173 Q476,274 376,479" fill="none" stroke="rgb(181, 177, 14)" stroke-width="1.213068209409839" /><circle cx="253" cy="135" fill="none" opacity="0.6672786782254194" r="121" stroke="rgb(81, 172, 197)" stroke-width="3.770735125629938" /><circle cx="202" cy="113" fill="none" opacity="0.9952367826674933" r="127" stroke="rgb(15, 110, 191)" stroke-width="0.52593198773576" /><path d="M485,112 L221,104 C243,212 104,18 253,69 Q243,53 413,362 C413,115 226,598 569,64 C137,408 557,487 462,457" fill="none" stroke="rgb(41, 54, 120)" stroke-width="1.861505365920086" /><line stroke="rgb(223, 227, 73)" stroke-width="2.001288712877291" x1="398" x2="27" y1="58" y2="501" /><line stroke="rgb(59, 135, 238)" stroke-width="2.0894806678242093" x1="570" x2="190" y1="241" y2="144" /><line stroke="rgb(90, 193, 220)" stroke-width="2.3971456359702343" x1="508" x2="243" y1="178" y2="465" /><line stroke="rgb(196, 160, 38)" stroke-width="1.9167344622172051" x1="149" x2="161" y1="423" y2="45" /><polygon fill="none" points="185,179 647,317 93,350 253,262 57,309" stroke="rgb(125, 156, 1)" stroke-width="3.4146919574412404" /><path d="M161,350 L396,545 C400,632 250,138 67,385 C51,166 250,339 583,398 L135,55" fill="none" stroke="rgb(78, 241, 170)" stroke-width="2.984027517805112" /></svg>