<svg baseProfile="full" height="569px" version="1.1" width="983px" xmlns="http://www.w3.org/2000/svg" xmlns:ev="http://www.w3.org/2001/xml-events" xmlns:xlink="http://www.w3.org/1999/xlink"><defs /><rect fill="rgb(250, 227, 211)" height="569px" width="983px" x="0" y="0" /><circle cx="872" cy="517" fill="none" opacity="0.7277598246572808" r="23" stroke="rgb(233, 149, 63)" stroke-width="3.672846161507007" /><circle cx="893" cy="406" fill="none" opacity="0.5612688070889648" r="36" stroke="rgb(192, 148, 115)" stroke-width="4.532956819344365" /><line stroke="rgb(135, 253, 9)" stroke-width="2.562076006462004" x1="288" x2="396" y1="529" y2="349" /><line stroke="rgb(144, 53, 60)" stroke-width="1.071416934298793" x1="600" x2="619" y1="455" y2="348" /><line stroke="rgb(94, 58, 235)" stroke-width="1.1166538774960542" x1="267" x2="47" y1="549" y2="254" /><polygon fill="none" points="662,453 854,527 323,562 630,86 155,64 506,174 127,523" stroke="rgb(205, 160, 191)" stroke-width="2.2933184473725" /><circle cx="532" cy="431" fill="none" opacity="0.8679045520840118" r="31" stroke="rgb(16, 130, 118)" stroke-width="4.0073795620364425" /><line stroke="rgb(171, 99, 169)" stroke-width="1.115357295381468" x1="707" x2="310" y1="153" y2="258" /><line stroke="rgb(174, 170, 28)" stroke-width="1.1614239411025165" x1="197" x2="211" y1="440" y2="224" /><line stroke="rgb(67, 10, 59)" stroke-width="0.9739726324562223" x1="618" x2="675" y1="129" y2="253" /><line stroke="rgb(173, 55, 94)" stroke-width="2.19203155712478" x1="870" x2="3" y1="353" y2="44" /><line stroke="rgb(13, 128, 28)" stroke-width="1.0673481492266577" x1="538" x2="442" y1="347" y2="379" /><line stroke="rgb(203, 189, 4)" stroke-width="1.9969030141296844" x1="174" x2="528" y1="209" y2="529" /><line stroke="rgb(104, 186, 225)" stroke-width="0.7409872589346971" x1="263" x2="358" y1="383" y2="422" /><line stroke="rgb(165, 150, 173)" stroke-width="0.7732612853001914" x1="424" x2="124" y1="428" y2="207" /><line stroke="rgb(12, 99, 200)" stroke-width="0.8009312253253873" x1="946" x2="677" y1="183" y2="354" /><line stroke="rgb(83, 30, 89)" stroke-width="2.586056213381628" x1="264" x2="978" y1="491" y2="127" /><polygon fill="none" points="360,123 932,333 484,224 602,130 498,323" stroke="rgb(239, 35, 240)" stroke-width="3.0657712332427014" /><rect fill="none" height="137" stroke="rgb(202, 61, 25)" stroke-width="1.8846404775670038" transform="rotate(233 408 313)" width="83" x="192" y="78" /><polygon fill="none" points="203,26 173,422 914,221 677,371 790,440 166,254 707,496 213,205" stroke="rgb(57, 169, 80)" stroke-width="2.811170886434653" /><circle cx="850" cy="365" fill="none" opacity="0.5088302396399594" r="59" stroke="rgb(217, 193, 234)" stroke-width="0.9616654080859444" /><rect fill="none" height="20" stroke="rgb(67, 43, 232)" stroke-width="2.675640107482622" transform="rotate(330 762 194)" width="65" x="543" y="194" /><rect fill="none" height="111" stroke="rgb(75, 229, 49)" stroke-width="2.895671387782877" transform="rotate(154 812 296)" width="166" x="384" y="166" /><path d="M642,316 C761,363 14,568 106,168 C212,361 900,451 622,183 Q634,247 178,256 C302,467 850,27 362,517 L249,292 C518,147 400,72 866,380 Q736,181 316,511" fill="none" stroke="rgb(186, 185, 125)" stroke-width="0.5474097011388275" /><path d="M272,339 C197,541 623,119 495,540 C875,447 874,109 907,53 L457,307" fill="none" stroke="rgb(136, 120, 177)" stroke-width="1.6184572105804416" /><polygon fill="none" points="398,375 777,558 631,345 376,377 12,505 253,133 668,376 642,288" stroke="rgb(106, 18, 76)" stroke-width="0.6793433998640183" /><line stroke="rgb(79, 255, 44)" stroke-width="2.8006029450077476" x1="966" x2="368" y1="422" y2="113" /><line stroke="rgb(173, 40, 255)" stroke-width="1.8558199776007838" x1="528" x2="331" y1="296" y2="423" /><line stroke="rgb(248, 20, 8)" stroke-width="1.2180561552170008" x1="180" x2="482" y1="558" y2="164" /><line stroke="rgb(168, 69, 100)" stroke-width="2.4246061132640904" x1="637" x2="210" y1="415" y2="157" /><line stroke="rgb(178, 191, 208)" stroke-width="1.0078296402296734" x1="499" x2="846" y1="124" y2="267" /><line stroke="rgb(80, 118, 124)" stroke-width="1.6106724407677884" x1="408" x2="460" y1="92" y2="24" /><line stroke="rgb(203, 186, 6)" stroke-width="2.225387555742956" x1="296" x2="140" y1="245" y2="348" /><line stroke="rgb(76, 180, 206)" stroke-width="2.929663521450624" x1="388" x2="247" y1="462" y2="123" /><rect fill="none" height="55" stroke="rgb(78, 109, 232)" stroke-width="2.0749013140320507" transform="rotate(94 330 113)" width="28" x="443" y="358" /><polygon fill="none" points="66,464 629,66 104,92 7,172 310,362" stroke="rgb(28, 237, 156)" stroke-width="1.5737151638569875" /><line stroke="rgb(189, 134, 113)" stroke-width="0.88626213441577" x1="133" x2="787" y1="417" y2="200" /><line stroke="rgb(245, 36, 155)" stroke-width="1.954140183378143" x1="325" x2="801" y1="349" y2="274" /><line stroke="rgb(40, 84, 235)" stroke-width="1.6130866149709548" x1="949" x2="125" y1="551" y2="473" /><line stroke="rgb(85, 52, 11)" stroke-width="2.178679073097876" x1="498" x2="686" y1="218" y2="305" /><rect fill="none" height="185" stroke="rgb(87, 25, 93)" stroke-width="1.5882505838099354" transform="rotate(172 496 387)" width="166" x="119" y="419" /><path d="M284,34 Q170,257 335,457 C200,81 450,236 888,368 Q644,509 3,277 Q793,90 436,536" fill="none" stroke="rgb(161, 210, 28)" stroke-width="1.6314961037101166" /><rect fill="none" height="161" stroke="rgb(130, 59, 232)" stroke-width="4.832547854591211" transform="rotate(334 125 72)" width="160" x="279" y="450" /><polygon fill="none" points="694,262 953,411 83,49 807,21 926,258" stroke="rgb(187, 66, 193)" stroke-width="3.0089241878907216" /><polygon fill="none" points="650,79 146,296 29,30 7,44" stroke="rgb(159, 212, 19)" stroke-width="0.5072922627290821" /><path d="M444,281 L569,366 Q635,399 13,489 Q490,364 130,196 L364,0 C480,268 448,47 934,272" fill="none" stroke="rgb(54, 71, 31)" stroke-width="1.61654579703388" /><polygon fill="none" points="704,48 957,238 224,348" stroke="rgb(99, 136, 13)" stroke-width="3.501232772910081" /><polygon fill="none" points="655,258 0,246 747,356" stroke="rgb(165, 118, 78)" stroke-width="0.7318955719173954" /><rect fill="none" height="184" stroke="rgb(141, 124, 155)" stroke-width="3.6170812155881102" transform="rotate(294 536 56)" width="120" x="536" y="46" /><circle cx="408" cy="224" fill="none" opacity="0.5259988728719878" r="93" stroke="rgb(3, 255, 85)" stroke-width="4.273922593632771" /><polygon fill="none" points="375,358 956,493 736,145 645,347 47,391 835,105 742,310" stroke="rgb(84, 174, 10)" stroke-width="3.9112939290907973" /><rect fill="none" height="35" stroke="rgb(207, 15, 80)" stroke-width="0.5358003197566374" transform="rotate(19 141 434)" width="78" x="288" y="97" /><path d="M170,530 L48,312 C351,259 755,324 397,122 L563,491 C663,379 607,91 484,346 C916,522 74,321 98,106 C30,373 271,201 429,48" fill="none" stroke="rgb(186, 184, 165)" stroke-width="2.7200168729246195" /><circle cx="566" cy="479" fill="none" opacity="0.7675346805523722" r="60" stroke="rgb(120, 133, 246)" stroke-width="2.1132850774724434" /><path d="M940,61 L583,36 L410,536 C583,515 509,88 61,259 L249,213 C274,472 919,301 492,331" fill="none" stroke="rgb(159, 54, 11)" stroke-width="1.7215230063844207" /><polygon fill="none" points="443,228 844,138 414,31 959,548 56,502 138,180 43,373 657,266" stroke="rgb(168, 73, 15)" stroke-width="0.9833096308680013" /><line stroke="rgb(238, 101, 61)" stroke-width="2.3640588660159807" x1="604" x2="146" y1="281" y2="362" /><line stroke="rgb(25, 106, 1)" stroke-width="2.4780782013960767" x1="143" x2="286" y1="329" y2="220" /><line stroke="rgb(79, 59, 126)" stroke-width="2.8593013768500075" x1="54" x2="342" y1="374" y2="328" /><line stroke="rgb(127, 38, 198)" stroke-width="0.6846756858523935" x1="32" x2="601" y1="427" y2="555" /><line stroke="rgb(237, 198, 195)" stroke-width="2.3650327959398716" x1="200" x2="225" y1="147" y2="301" /><line stroke="rgb(207, 204, 221)" stroke-width="2.716433468951003" x1="720" x2="661" y1="240" y2="122" /><path d="M682,429 Q31,6 152,547 L952,319 Q770,98 402,48 L928,182" fill="none" stroke="rgb(82, 24, 208)" stroke-width="2.9434082680086417" /></svg>