<svg baseProfile="full" height="787px" version="1.1" width="989px" xmlns="http://www.w3.org/2000/svg" xmlns:ev="http://www.w3.org/2001/xml-events" xmlns:xlink="http://www.w3.org/1999/xlink"><defs /><rect fill="rgb(253, 248, 250)" height="787px" width="989px" x="0" y="0" /><circle cx="447" cy="375" fill="none" opacity="0.8190284924537248" r="135" stroke="rgb(18, 184, 211)" stroke-width="4.9477341158441055" /><line stroke="rgb(177, 182, 179)" stroke-width="1.312098277678766" x1="216" x2="695" y1="726" y2="276" /><line stroke="rgb(248, 172, 111)" stroke-width="1.5296305274599693" x1="98" x2="869" y1="256" y2="213" /><line stroke="rgb(178, 112, 0)" stroke-width="1.1030251233160167" x1="596" x2="320" y1="280" y2="664" /><line stroke="rgb(192, 244, 103)" stroke-width="1.4917165230511085" x1="70" x2="822" y1="708" y2="222" /><line stroke="rgb(144, 173, 129)" stroke-width="0.6581767565493073" x1="57" x2="20" y1="427" y2="297" /><line stroke="rgb(167, 32, 155)" stroke-width="2.551732930198469" x1="550" x2="877" y1="481" y2="76" /><rect fill="none" height="171" stroke="rgb(76, 150, 67)" stroke-width="4.802762179571889" transform="rotate(194 74 170)" width="45" x="529" y="52" /><rect fill="none" height="128" stroke="rgb(241, 100, 245)" stroke-width="1.8402156788626092" transform="rotate(271 41 442)" width="132" x="489" y="604" /><path d="M229,466 Q885,620 975,669 Q769,527 461,376 C563,231 36,285 188,378 C755,100 898,448 83,6 Q494,595 621,62 L349,410 C602,540 329,152 597,342" fill="none" stroke="rgb(157, 13, 76)" stroke-width="2.56014424352376" /><polygon fill="none" points="83,602 650,322 578,499 894,686 68,74" stroke="rgb(223, 141, 143)" stroke-width="2.346985559137358" /><line stroke="rgb(141, 68, 54)" stroke-width="0.5739520155736226" x1="647" x2="439" y1="443" y2="181" /><line stroke="rgb(233, 93, 251)" stroke-width="1.4233377100223825" x1="757" x2="949" y1="15" y2="236" /><line stroke="rgb(44, 236, 204)" stroke-width="1.0758587705646911" x1="910" x2="418" y1="214" y2="10" /><line stroke="rgb(24, 95, 139)" stroke-width="1.0395427767952534" x1="2" x2="336" y1="442" y2="156" /><line stroke="rgb(166, 185, 0)" stroke-width="2.5249804957239594" x1="793" x2="179" y1="557" y2="47" /><line stroke="rgb(160, 5, 208)" stroke-width="1.8671097066483806" x1="266" x2="919" y1="23" y2="132" /><line stroke="rgb(5, 94, 19)" stroke-width="2.0181478526891556" x1="238" x2="130" y1="357" y2="312" /><line stroke="rgb(121, 126, 203)" stroke-width="2.7210450768190153" x1="307" x2="842" y1="454" y2="602" /><line stroke="rgb(184, 126, 24)" stroke-width="1.1509871701255465" x1="886" x2="239" y1="485" y2="569" /><polygon fill="none" points="298,736 144,770 377,706 3,483 313,629" stroke="rgb(120, 181, 95)" stroke-width="1.0289751097480653" /><rect fill="none" height="184" stroke="rgb(173, 31, 26)" stroke-width="1.2010777784781772" transform="rotate(115 841 160)" width="109" x="420" y="376" /><path d="M709,426 C423,470 982,722 680,6 Q719,704 275,618 C184,579 297,478 913,646 Q16,661 528,489" fill="none" stroke="rgb(68, 210, 90)" stroke-width="0.7998668936092053" /><polygon fill="none" points="18,502 463,592 293,11 828,738 494,166 847,143 212,135" stroke="rgb(104, 241, 88)" stroke-width="0.7458546657089506" /><rect fill="none" height="85" stroke="rgb(196, 59, 190)" stroke-width="1.0290220544439403" transform="rotate(246 934 454)" width="90" x="796" y="307" /><circle cx="454" cy="581" fill="none" opacity="0.4079611854356127" r="163" stroke="rgb(8, 196, 26)" stroke-width="2.0441412913859573" /><line stroke="rgb(53, 149, 181)" stroke-width="2.870172018699911" x1="270" x2="82" y1="411" y2="726" /><line stroke="rgb(200, 215, 154)" stroke-width="2.8275195975531546" x1="33" x2="962" y1="783" y2="12" /><line stroke="rgb(37, 6, 114)" stroke-width="1.1866435060036102" x1="144" x2="748" y1="432" y2="625" /><line stroke="rgb(17, 83, 29)" stroke-width="0.7574830609545733" x1="85" x2="795" y1="190" y2="330" /><line stroke="rgb(140, 201, 64)" stroke-width="1.075444212562652" x1="127" x2="884" y1="419" y2="104" /><rect fill="none" height="175" stroke="rgb(157, 247, 188)" stroke-width="4.349999047340834" transform="rotate(170 228 616)" width="195" x="456" y="293" /><path d="M385,276 L160,575 Q599,144 418,267 L947,733 C553,550 184,637 279,208 L902,709 L968,184" fill="none" stroke="rgb(240, 235, 211)" stroke-width="1.8940263846855403" /><polygon fill="none" points="158,507 2,504 775,52 287,575 580,8 878,39" stroke="rgb(61, 65, 178)" stroke-width="1.3325297484957956" /><rect fill="none" height="188" stroke="rgb(252, 141, 108)" stroke-width="3.6774295873263414" transform="rotate(319 975 444)" width="104" x="846" y="234" /><line stroke="rgb(4, 212, 80)" stroke-width="1.4690652747925879" x1="363" x2="719" y1="378" y2="158" /><line stroke="rgb(208, 85, 2)" stroke-width="2.315083345029644" x1="899" x2="758" y1="524" y2="63" /><line stroke="rgb(238, 133, 75)" stroke-width="2.0429742821566013" x1="740" x2="205" y1="607" y2="8" /><line stroke="rgb(36, 63, 86)" stroke-width="2.10948999505903" x1="364" x2="392" y1="783" y2="375" /><line stroke="rgb(10, 224, 63)" stroke-width="1.206522209079714" x1="761" x2="485" y1="657" y2="716" /><line stroke="rgb(84, 109, 153)" stroke-width="2.930672161408563" x1="961" x2="158" y1="261" y2="661" /><polygon fill="none" points="362,766 622,377 354,245 417,177" stroke="rgb(217, 8, 95)" stroke-width="1.4271954869502481" /><polygon fill="none" points="934,398 273,289 512,559 63,151 914,268 426,446 449,484 428,82" stroke="rgb(112, 15, 32)" stroke-width="1.8842962139755537" /></svg>