<svg baseProfile="full" height="422px" version="1.1" width="997px" xmlns="http://www.w3.org/2000/svg" xmlns:ev="http://www.w3.org/2001/xml-events" xmlns:xlink="http://www.w3.org/1999/xlink"><defs /><rect fill="rgb(200, 242, 239)" height="422px" width="997px" x="0" y="0" /><rect fill="none" height="120" stroke="rgb(11, 109, 87)" stroke-width="3.915573400704997" transform="rotate(282 520 422)" width="157" x="678" y="56" /><circle cx="900" cy="148" fill="none" opacity="0.6149742292510809" r="29" stroke="rgb(56, 191, 117)" stroke-width="1.6153570694489519" /><path d="M912,166 Q529,171 487,284 Q719,208 780,294 C908,104 938,152 399,9 C294,250 309,5 136,339" fill="none" stroke="rgb(63, 16, 158)" stroke-width="2.249170954105167" /><circle cx="55" cy="301" fill="none" opacity="0.73822750279921" r="95" stroke="rgb(242, 182, 249)" stroke-width="3.6463616876380853" /><polygon fill="none" points="853,103 429,58 244,368 859,132 935,387 265,234 755,143" stroke="rgb(115, 232, 77)" stroke-width="2.7340305824391753" /><circle cx="408" cy="345" fill="none" opacity="0.9690632551318845" r="46" stroke="rgb(173, 176, 98)" stroke-width="3.0032956901238435" /><rect fill="none" height="112" stroke="rgb(52, 164, 91)" stroke-width="4.3552457809259675" transform="rotate(110 49 378)" width="20" x="205" y="322" /><circle cx="850" cy="140" fill="none" opacity="0.5137531906022295" r="22" stroke="rgb(193, 86, 200)" stroke-width="2.8242633526623266" /><line stroke="rgb(174, 247, 164)" stroke-width="2.995534818628803" x1="822" x2="29" y1="360" y2="50" /><line stroke="rgb(25, 245, 176)" stroke-width="2.852780991298187" x1="414" x2="183" y1="126" y2="146" /><line stroke="rgb(248, 81, 20)" stroke-width="2.4669423203349226" x1="301" x2="118" y1="52" y2="287" /><line stroke="rgb(84, 254, 246)" stroke-width="1.8669991009718943" x1="935" x2="91" y1="344" y2="11" /><line stroke="rgb(46, 184, 53)" stroke-width="0.9936614507336932" x1="789" x2="51" y1="2" y2="312" /><line stroke="rgb(88, 182, 15)" stroke-width="2.57594072901472" x1="769" x2="559" y1="59" y2="333" /><rect fill="none" height="182" stroke="rgb(112, 212, 144)" stroke-width="2.8659057101534366" transform="rotate(329 385 63)" width="193" x="385" y="224" /><path d="M348,398 Q618,100 814,213 L763,135 L500,390 Q242,4 433,259" fill="none" stroke="rgb(246, 184, 252)" stroke-width="1.3765670941418635" /><circle cx="599" cy="332" fill="none" opacity="0.6612165898211783" r="97" stroke="rgb(149, 240, 15)" stroke-width="0.9770350836334818" /><line stroke="rgb(2, 154, 236)" stroke-width="0.9346109798345532" x1="150" x2="412" y1="415" y2="131" /><line stroke="rgb(35, 126, 150)" stroke-width="0.5231823968037372" x1="674" x2="55" y1="361" y2="187" /><line stroke="rgb(95, 73, 180)" stroke-width="2.870484102318033" x1="262" x2="257" y1="375" y2="408" /><circle cx="476" cy="226" fill="none" opacity="0.6661382727836132" r="36" stroke="rgb(161, 244, 107)" stroke-width="0.911458720984087" /><polygon fill="none" points="572,367 362,80 402,167 349,244" stroke="rgb(87, 99, 111)" stroke-width="1.5773639463299514" /><rect fill="none" height="67" stroke="rgb(206, 184, 229)" stroke-width="1.7652668781055647" transform="rotate(103 296 45)" width="161" x="522" y="79" /><circle cx="925" cy="260" fill="none" opacity="0.8698619525094289" r="16" stroke="rgb(247, 44, 168)" stroke-width="2.57280111172554" /><polygon fill="none" points="977,324 390,247 695,207 232,180 195,77 475,170 19,229" stroke="rgb(138, 82, 42)" stroke-width="2.2410037327735415" /><line stroke="rgb(113, 93, 227)" stroke-width="1.3557137572736364" x1="517" x2="728" y1="391" y2="192" /><line stroke="rgb(186, 232, 162)" stroke-width="2.843946337560492" x1="408" x2="482" y1="389" y2="286" /><line stroke="rgb(73, 105, 132)" stroke-width="2.3976066047774625" x1="614" x2="920" y1="333" y2="154" /><line stroke="rgb(29, 23, 188)" stroke-width="2.268424344290964" x1="218" x2="721" y1="176" y2="168" /><line stroke="rgb(85, 188, 197)" stroke-width="1.6240861587164632" x1="113" x2="684" y1="252" y2="354" /><line stroke="rgb(151, 138, 59)" stroke-width="1.6016612755496415" x1="530" x2="15" y1="392" y2="253" /><path d="M398,49 L883,179 L484,323 Q4,203 986,394" fill="none" stroke="rgb(22, 162, 169)" stroke-width="1.4789521286203604" /><rect fill="none" height="152" stroke="rgb(110, 103, 205)" stroke-width="4.211127611084777" transform="rotate(163 752 217)" width="140" x="37" y="194" /><circle cx="635" cy="350" fill="none" opacity="0.37250350561516266" r="61" stroke="rgb(182, 43, 60)" stroke-width="3.9509523501440866" /><rect fill="none" height="42" stroke="rgb(243, 220, 115)" stroke-width="1.3845705318207895" transform="rotate(56 446 25)" width="181" x="684" y="117" /><rect fill="none" height="171" stroke="rgb(9, 75, 213)" stroke-width="4.782826996014703" transform="rotate(172 850 84)" width="128" x="215" y="49" /><line stroke="rgb(250, 64, 50)" stroke-width="2.8596886733645457" x1="255" x2="745" y1="275" y2="16" /><line stroke="rgb(152, 5, 12)" stroke-width="1.1992152447880675" x1="830" x2="340" y1="6" y2="340" /><line stroke="rgb(219, 75, 176)" stroke-width="1.324476986589517" x1="82" x2="847" y1="50" y2="72" /><line stroke="rgb(184, 9, 93)" stroke-width="1.3396204581903994" x1="44" x2="566" y1="10" y2="252" /><line stroke="rgb(81, 149, 241)" stroke-width="1.560580743686047" x1="43" x2="749" y1="298" y2="389" /><line stroke="rgb(79, 152, 146)" stroke-width="1.4278524505568762" x1="964" x2="542" y1="50" y2="233" /><line stroke="rgb(140, 134, 61)" stroke-width="1.3770448156768236" x1="474" x2="361" y1="389" y2="40" /><line stroke="rgb(140, 120, 244)" stroke-width="2.2226275520394774" x1="249" x2="432" y1="83" y2="263" /><line stroke="rgb(4, 187, 167)" stroke-width="2.4812722086196" x1="71" x2="220" y1="198" y2="197" /><line stroke="rgb(83, 3, 54)" stroke-width="1.417720896795601" x1="608" x2="667" y1="391" y2="181" /><line stroke="rgb(114, 47, 72)" stroke-width="1.2402965317228567" x1="233" x2="398" y1="308" y2="396" /><line stroke="rgb(137, 34, 108)" stroke-width="1.3698098616964391" x1="988" x2="819" y1="112" y2="127" /><line stroke="rgb(139, 100, 232)" stroke-width="2.1005821658808292" x1="418" x2="491" y1="160" y2="21" /><line stroke="rgb(241, 77, 96)" stroke-width="2.716817590470754" x1="136" x2="585" y1="416" y2="228" /><line stroke="rgb(44, 199, 219)" stroke-width="0.9058276937026217" x1="472" x2="47" y1="299" y2="194" /><line stroke="rgb(195, 19, 4)" stroke-width="0.6049780384187105" x1="463" x2="617" y1="351" y2="116" /><line stroke="rgb(178, 208, 87)" stroke-width="0.999937051065007" x1="839" x2="779" y1="9" y2="396" /><line stroke="rgb(133, 57, 225)" stroke-width="0.5400999091403353" x1="440" x2="662" y1="13" y2="21" /><circle cx="78" cy="134" fill="none" opacity="0.6453185141457047" r="85" stroke="rgb(82, 128, 36)" stroke-width="1.0257586898609603" /><circle cx="147" cy="321" fill="none" opacity="0.9715757830051719" r="41" stroke="rgb(38, 134, 103)" stroke-width="1.8889194189934995" /><line stroke="rgb(161, 207, 16)" stroke-width="2.458644643085858" x1="811" x2="499" y1="284" y2="295" /><line stroke="rgb(253, 131, 57)" stroke-width="2.600803889174" x1="62" x2="896" y1="110" y2="338" /><line stroke="rgb(76, 247, 253)" stroke-width="1.9446769233178784" x1="389" x2="702" y1="99" y2="142" /><line stroke="rgb(49, 171, 150)" stroke-width="1.0971931057144673" x1="27" x2="904" y1="180" y2="367" /><line stroke="rgb(244, 167, 40)" stroke-width="1.9876757257588322" x1="609" x2="274" y1="245" y2="73" /><line stroke="rgb(175, 211, 124)" stroke-width="0.8500815490332008" x1="516" x2="662" y1="175" y2="13" /><rect fill="none" height="139" stroke="rgb(224, 154, 176)" stroke-width="2.4561365066922543" transform="rotate(193 850 331)" width="182" x="4" y="172" /><circle cx="184" cy="104" fill="none" opacity="0.31593534149956387" r="30" stroke="rgb(41, 46, 234)" stroke-width="2.0095520094911805" /><rect fill="none" height="52" stroke="rgb(158, 110, 8)" stroke-width="2.937625648468164" transform="rotate(113 754 182)" width="113" x="192" y="158" /><rect fill="none" height="89" stroke="rgb(227, 34, 55)" stroke-width="1.071488489231722" transform="rotate(37 331 222)" width="155" x="631" y="157" /></svg>