<svg baseProfile="full" height="643px" version="1.1" width="950px" xmlns="http://www.w3.org/2000/svg" xmlns:ev="http://www.w3.org/2001/xml-events" xmlns:xlink="http://www.w3.org/1999/xlink"><defs /><rect fill="rgb(228, 201, 238)" height="643px" width="950px" x="0" y="0" /><path d="M775,43 L770,347 L719,404 C728,472 934,594 873,428" fill="none" stroke="rgb(28, 111, 41)" stroke-width="1.1791241992174606" /><path d="M520,52 L465,363 L937,618 L398,51 L575,604 C129,388 85,573 414,96 L366,369 C826,289 195,16 331,413" fill="none" stroke="rgb(197, 228, 76)" stroke-width="1.342272310833731" /><line stroke="rgb(108, 111, 244)" stroke-width="1.5533625029282232" x1="418" x2="573" y1="448" y2="466" /><line stroke="rgb(19, 66, 165)" stroke-width="2.8847417086293126" x1="733" x2="507" y1="518" y2="319" /><line stroke="rgb(57, 112, 79)" stroke-width="2.2915029147723547" x1="757" x2="240" y1="287" y2="641" /><line stroke="rgb(5, 244, 206)" stroke-width="2.8326927487447886" x1="354" x2="34" y1="423" y2="256" /><line stroke="rgb(21, 141, 220)" stroke-width="2.3678954649380826" x1="327" x2="197" y1="103" y2="146" /><line stroke="rgb(235, 7, 21)" stroke-width="2.217313073199326" x1="432" x2="806" y1="225" y2="278" /><line stroke="rgb(9, 152, 113)" stroke-width="0.6190758028462755" x1="463" x2="249" y1="101" y2="25" /><line stroke="rgb(143, 62, 230)" stroke-width="0.8636945994890278" x1="579" x2="11" y1="223" y2="71" /><line stroke="rgb(204, 75, 220)" stroke-width="0.9080934632760891" x1="626" x2="950" y1="462" y2="386" /><line stroke="rgb(233, 219, 154)" stroke-width="2.839019045210196" x1="278" x2="167" y1="604" y2="43" /><line stroke="rgb(187, 203, 32)" stroke-width="1.6591877240747115" x1="136" x2="334" y1="511" y2="509" /><line stroke="rgb(2, 57, 244)" stroke-width="2.9040779326935073" x1="947" x2="80" y1="153" y2="41" /><line stroke="rgb(180, 44, 136)" stroke-width="2.6796061176380057" x1="255" x2="281" y1="13" y2="515" /><line stroke="rgb(10, 72, 143)" stroke-width="1.6638673480793829" x1="225" x2="481" y1="596" y2="440" /><line stroke="rgb(244, 140, 195)" stroke-width="1.2935400907307026" x1="134" x2="947" y1="520" y2="435" /><polygon fill="none" points="916,468 747,276 628,469 492,582 899,43 180,211 564,505 767,233" stroke="rgb(234, 65, 128)" stroke-width="1.3463160769061817" /><rect fill="none" height="48" stroke="rgb(204, 163, 113)" stroke-width="1.556022180882896" transform="rotate(135 640 461)" width="109" x="468" y="422" /><line stroke="rgb(255, 130, 34)" stroke-width="1.922387518146138" x1="275" x2="241" y1="210" y2="584" /><line stroke="rgb(162, 199, 18)" stroke-width="2.0192849712992356" x1="779" x2="85" y1="239" y2="189" /><line stroke="rgb(77, 133, 180)" stroke-width="2.15939415965694" x1="750" x2="308" y1="434" y2="554" /><line stroke="rgb(221, 177, 131)" stroke-width="2.404280630064867" x1="280" x2="294" y1="502" y2="35" /><line stroke="rgb(172, 86, 200)" stroke-width="1.3484114704971504" x1="469" x2="860" y1="534" y2="501" /><line stroke="rgb(253, 100, 56)" stroke-width="2.1454175223037115" x1="458" x2="783" y1="316" y2="146" /><path d="M632,455 L876,299 C695,547 490,124 713,546 C775,554 254,61 310,35 Q600,335 893,102" fill="none" stroke="rgb(210, 28, 131)" stroke-width="2.929322027020694" /><circle cx="582" cy="104" fill="none" opacity="0.8157736169628205" r="97" stroke="rgb(235, 31, 26)" stroke-width="4.770078099947831" /><line stroke="rgb(90, 13, 252)" stroke-width="1.8407130093735842" x1="841" x2="248" y1="372" y2="381" /><line stroke="rgb(243, 159, 189)" stroke-width="1.5888277152796568" x1="945" x2="176" y1="195" y2="169" /><line stroke="rgb(122, 206, 235)" stroke-width="1.8340313607794727" x1="843" x2="54" y1="16" y2="201" /><line stroke="rgb(96, 85, 64)" stroke-width="2.2085433687193943" x1="259" x2="422" y1="359" y2="445" /><line stroke="rgb(117, 88, 86)" stroke-width="2.4443158618227927" x1="914" x2="260" y1="347" y2="522" /><path d="M149,125 Q657,474 563,246 Q392,205 365,145 Q199,118 81,527 L301,413" fill="none" stroke="rgb(147, 130, 199)" stroke-width="1.134965249867439" /><line stroke="rgb(141, 47, 157)" stroke-width="2.0952550837350996" x1="824" x2="325" y1="179" y2="67" /><line stroke="rgb(100, 244, 217)" stroke-width="1.6498081158302156" x1="411" x2="479" y1="590" y2="24" /><line stroke="rgb(170, 131, 20)" stroke-width="1.7650950455975127" x1="272" x2="351" y1="231" y2="585" /><line stroke="rgb(239, 38, 175)" stroke-width="2.6397106151664183" x1="478" x2="142" y1="456" y2="420" /><line stroke="rgb(108, 45, 90)" stroke-width="0.7728338792849844" x1="751" x2="748" y1="401" y2="401" /><line stroke="rgb(79, 27, 90)" stroke-width="2.249949197883552" x1="109" x2="483" y1="11" y2="200" /><rect fill="none" height="188" stroke="rgb(159, 17, 200)" stroke-width="3.2884283494985382" transform="rotate(256 497 394)" width="39" x="346" y="66" /><circle cx="697" cy="178" fill="none" opacity="0.5346836976588599" r="10" stroke="rgb(244, 184, 220)" stroke-width="3.015138679717667" /><polygon fill="none" points="669,81 167,579 74,528" stroke="rgb(56, 128, 127)" stroke-width="3.957085672387498" /><line stroke="rgb(176, 226, 240)" stroke-width="0.8671506939984712" x1="485" x2="379" y1="227" y2="185" /><line stroke="rgb(224, 123, 150)" stroke-width="1.613026700461224" x1="329" x2="287" y1="53" y2="446" /><line stroke="rgb(148, 190, 106)" stroke-width="2.7697652877002388" x1="672" x2="810" y1="161" y2="345" /><line stroke="rgb(183, 89, 81)" stroke-width="0.5174834190632611" x1="860" x2="453" y1="587" y2="153" /><line stroke="rgb(224, 45, 140)" stroke-width="2.874546596869535" x1="620" x2="506" y1="636" y2="82" /><line stroke="rgb(50, 125, 126)" stroke-width="2.6976676542011275" x1="184" x2="926" y1="26" y2="409" /><line stroke="rgb(218, 175, 238)" stroke-width="2.3907649122571604" x1="19" x2="946" y1="632" y2="16" /><line stroke="rgb(75, 42, 207)" stroke-width="2.9506754575311627" x1="474" x2="920" y1="599" y2="162" /><line stroke="rgb(226, 170, 220)" stroke-width="2.9581599056395347" x1="507" x2="68" y1="85" y2="626" /><line stroke="rgb(246, 64, 118)" stroke-width="2.0947620556541597" x1="721" x2="472" y1="217" y2="590" /><line stroke="rgb(75, 76, 69)" stroke-width="2.7558378161657386" x1="263" x2="416" y1="308" y2="407" /><line stroke="rgb(207, 132, 225)" stroke-width="2.706217454972533" x1="905" x2="425" y1="456" y2="1" /><line stroke="rgb(174, 101, 206)" stroke-width="2.1776107591254634" x1="743" x2="235" y1="379" y2="224" /><line stroke="rgb(58, 138, 243)" stroke-width="2.1631458033516635" x1="153" x2="459" y1="546" y2="546" /><line stroke="rgb(11, 42, 32)" stroke-width="2.4108479699539593" x1="523" x2="375" y1="215" y2="361" /><line stroke="rgb(159, 164, 102)" stroke-width="0.5192119515229583" x1="858" x2="653" y1="172" y2="129" /><line stroke="rgb(85, 230, 185)" stroke-width="1.9705292229272144" x1="564" x2="698" y1="119" y2="71" /><line stroke="rgb(215, 175, 7)" stroke-width="1.8525569746064057" x1="631" x2="126" y1="474" y2="52" /><line stroke="rgb(12, 31, 137)" stroke-width="2.2048969723200535" x1="710" x2="758" y1="225" y2="569" /><line stroke="rgb(241, 46, 19)" stroke-width="1.869519314111868" x1="260" x2="810" y1="453" y2="423" /><line stroke="rgb(232, 55, 28)" stroke-width="2.027810059843656" x1="484" x2="393" y1="515" y2="475" /><line stroke="rgb(172, 160, 168)" stroke-width="2.8889541155284237" x1="754" x2="508" y1="144" y2="337" /><line stroke="rgb(10, 198, 203)" stroke-width="2.3078155978777" x1="426" x2="135" y1="546" y2="375" /><line stroke="rgb(97, 6, 209)" stroke-width="1.5806221849119222" x1="84" x2="218" y1="319" y2="562" /><line stroke="rgb(14, 40, 245)" stroke-width="0.7218843775538539" x1="532" x2="914" y1="176" y2="462" /><line stroke="rgb(251, 175, 73)" stroke-width="1.6175144709215115" x1="538" x2="398" y1="401" y2="566" /><line stroke="rgb(94, 96, 34)" stroke-width="2.205010089178344" x1="636" x2="805" y1="222" y2="405" /><line stroke="rgb(209, 219, 27)" stroke-width="1.5267326193511936" x1="115" x2="148" y1="278" y2="253" /><path d="M124,36 Q811,190 843,466 Q886,165 574,532 Q471,485 662,357 L933,214 Q345,267 478,469 L234,344" fill="none" stroke="rgb(96, 196, 251)" stroke-width="2.9919074409261217" /><circle cx="148" cy="233" fill="none" opacity="0.9799424667049412" r="98" stroke="rgb(134, 160, 183)" stroke-width="3.460012812745302" /><line stroke="rgb(255, 206, 101)" stroke-width="1.7923471616727444" x1="923" x2="408" y1="635" y2="33" /><line stroke="rgb(129, 105, 73)" stroke-width="2.9434956622042394" x1="404" x2="894" y1="146" y2="559" /><line stroke="rgb(197, 68, 214)" stroke-width="2.9142065093666294" x1="808" x2="490" y1="341" y2="245" /><line stroke="rgb(38, 221, 90)" stroke-width="2.92091217630486" x1="372" x2="234" y1="161" y2="382" /><line stroke="rgb(43, 217, 241)" stroke-width="1.687156356556708" x1="590" x2="371" y1="343" y2="178" /><line stroke="rgb(214, 227, 200)" stroke-width="1.5279824784486482" x1="78" x2="891" y1="473" y2="615" /><rect fill="none" height="39" stroke="rgb(88, 24, 176)" stroke-width="4.363439601499602" transform="rotate(146 576 384)" width="28" x="766" y="52" /><circle cx="729" cy="264" fill="none" opacity="0.9975739347932588" r="127" stroke="rgb(0, 101, 49)" stroke-width="2.371003641229157" /><path d="M788,93 Q771,99 186,628 L753,501 L13,314 Q416,578 196,456" fill="none" stroke="rgb(5, 181, 155)" stroke-width="2.5217213875026574" /><circle cx="672" cy="227" fill="none" opacity="0.7097474749904582" r="11" stroke="rgb(250, 226, 251)" stroke-width="1.5964069693624947" /><line stroke="rgb(76, 108, 162)" stroke-width="2.7660914667526257" x1="443" x2="247" y1="168" y2="526" /><line stroke="rgb(57, 242, 182)" stroke-width="0.6612721198056635" x1="480" x2="93" y1="6" y2="619" /><line stroke="rgb(134, 70, 43)" stroke-width="2.984407466477426" x1="642" x2="514" y1="481" y2="428" /><line stroke="rgb(157, 66, 97)" stroke-width="2.4158608446728644" x1="59" x2="779" y1="577" y2="21" /><line stroke="rgb(143, 181, 179)" stroke-width="0.5858981469575754" x1="773" x2="32" y1="394" y2="637" /><line stroke="rgb(4, 233, 150)" stroke-width="1.7395923149137458" x1="824" x2="935" y1="407" y2="540" /><line stroke="rgb(107, 168, 222)" stroke-width="0.6988014226821946" x1="54" x2="148" y1="271" y2="178" /><line stroke="rgb(3, 242, 37)" stroke-width="0.6828274290727988" x1="647" x2="929" y1="620" y2="125" /><circle cx="248" cy="460" fill="none" opacity="0.45066791709568577" r="109" stroke="rgb(215, 53, 10)" stroke-width="0.8648489733489829" /><line stroke="rgb(110, 100, 26)" stroke-width="1.0794832013213287" x1="106" x2="100" y1="297" y2="492" /><line stroke="rgb(154, 178, 17)" stroke-width="0.6451870297727162" x1="101" x2="198" y1="20" y2="599" /><line stroke="rgb(159, 134, 146)" stroke-width="0.604551504575725" x1="773" x2="279" y1="187" y2="2" /><line stroke="rgb(82, 218, 88)" stroke-width="1.5780801919414924" x1="465" x2="532" y1="399" y2="226" /><line stroke="rgb(200, 250, 53)" stroke-width="2.4580208819075473" x1="823" x2="100" y1="51" y2="236" /><line stroke="rgb(215, 164, 200)" stroke-width="2.579993315188921" x1="939" x2="95" y1="458" y2="470" /><line stroke="rgb(101, 22, 129)" stroke-width="1.0781580122576655" x1="581" x2="50" y1="283" y2="25" /><rect fill="none" height="108" stroke="rgb(12, 132, 193)" stroke-width="4.154735310397895" transform="rotate(170 541 386)" width="151" x="83" y="414" /><path d="M282,455 Q146,499 949,182 Q842,274 287,530 Q515,314 722,72 Q345,553 491,316 L264,606" fill="none" stroke="rgb(185, 207, 137)" stroke-width="2.02421021301764" /><rect fill="none" height="52" stroke="rgb(158, 143, 210)" stroke-width="4.962944330164402" transform="rotate(100 369 249)" width="151" x="308" y="15" /><rect fill="none" height="39" stroke="rgb(183, 32, 15)" stroke-width="4.754068216935538" transform="rotate(305 49 269)" width="37" x="606" y="286" /><polygon fill="none" points="281,133 293,248 901,28 131,1 681,570 689,595 588,416" stroke="rgb(230, 229, 145)" stroke-width="3.9206936470279072" /><path d="M122,367 Q161,140 699,218 L582,508 C228,443 145,572 172,14 C122,245 268,330 856,359 C18,257 752,132 344,307 L26,606" fill="none" stroke="rgb(21, 153, 202)" stroke-width="1.1191767235419563" /><polygon fill="none" points="883,437 363,542 892,297 933,561 65,73" stroke="rgb(141, 213, 229)" stroke-width="1.0779039900241192" /><path d="M106,586 Q874,156 253,95 L787,128 Q40,48 567,564 Q335,21 661,423 L555,224 Q78,210 581,206" fill="none" stroke="rgb(145, 37, 116)" stroke-width="0.8735005433132157" /></svg>