<svg baseProfile="full" height="752px" version="1.1" width="784px" xmlns="http://www.w3.org/2000/svg" xmlns:ev="http://www.w3.org/2001/xml-events" xmlns:xlink="http://www.w3.org/1999/xlink"><defs /><rect fill="rgb(218, 204, 210)" height="752px" width="784px" x="0" y="0" /><line stroke="rgb(209, 64, 82)" stroke-width="2.511851421014145" x1="732" x2="38" y1="441" y2="164" /><line stroke="rgb(84, 110, 249)" stroke-width="1.0862324788826432" x1="330" x2="558" y1="97" y2="574" /><line stroke="rgb(255, 111, 44)" stroke-width="1.292611763774576" x1="60" x2="6" y1="432" y2="263" /><line stroke="rgb(113, 177, 34)" stroke-width="1.3367313301511365" x1="157" x2="634" y1="73" y2="6" /><line stroke="rgb(135, 223, 9)" stroke-width="2.800947487520771" x1="742" x2="758" y1="455" y2="693" /><line stroke="rgb(90, 250, 69)" stroke-width="2.4037169767389086" x1="307" x2="580" y1="684" y2="628" /><line stroke="rgb(116, 90, 162)" stroke-width="2.8355716290381374" x1="306" x2="70" y1="455" y2="555" /><circle cx="231" cy="402" fill="none" opacity="0.7105228373473926" r="96" stroke="rgb(246, 134, 122)" stroke-width="1.5586009737819793" /><path d="M708,678 Q541,605 460,317 L284,509 L353,153 Q493,512 615,116" fill="none" stroke="rgb(212, 223, 27)" stroke-width="1.7302525379823936" /><circle cx="142" cy="191" fill="none" opacity="0.7939653177263699" r="47" stroke="rgb(46, 237, 231)" stroke-width="4.308357740866102" /><circle cx="224" cy="168" fill="none" opacity="0.6550451090255458" r="24" stroke="rgb(30, 219, 156)" stroke-width="2.7995288919138783" /><rect fill="none" height="72" stroke="rgb(22, 104, 107)" stroke-width="3.990042588354093" transform="rotate(60 256 200)" width="146" x="344" y="518" /><circle cx="73" cy="666" fill="none" opacity="0.7371701391142448" r="139" stroke="rgb(119, 19, 57)" stroke-width="2.6463920810228565" /><line stroke="rgb(181, 224, 188)" stroke-width="2.7378141576611243" x1="308" x2="348" y1="283" y2="147" /><line stroke="rgb(39, 31, 41)" stroke-width="1.1497948859787206" x1="669" x2="281" y1="597" y2="163" /><line stroke="rgb(194, 32, 58)" stroke-width="1.0751552653749878" x1="586" x2="262" y1="431" y2="399" /><line stroke="rgb(49, 13, 188)" stroke-width="2.515452242260143" x1="508" x2="287" y1="481" y2="452" /><line stroke="rgb(167, 186, 175)" stroke-width="1.517336337459354" x1="496" x2="582" y1="71" y2="379" /><line stroke="rgb(215, 255, 128)" stroke-width="2.675777894339625" x1="89" x2="414" y1="532" y2="374" /><line stroke="rgb(82, 235, 104)" stroke-width="0.9915601585734514" x1="135" x2="699" y1="586" y2="709" /><line stroke="rgb(153, 240, 176)" stroke-width="1.4547203072543962" x1="204" x2="601" y1="593" y2="568" /><polygon fill="none" points="33,194 447,590 637,197 399,526 349,21 144,181 492,717 359,439" stroke="rgb(107, 238, 123)" stroke-width="2.040100971584338" /><circle cx="69" cy="212" fill="none" opacity="0.4217405684051846" r="167" stroke="rgb(201, 7, 136)" stroke-width="2.050540643668825" /><circle cx="91" cy="577" fill="none" opacity="0.8402896634874732" r="61" stroke="rgb(58, 46, 243)" stroke-width="2.64783164609037" /><path d="M607,507 L418,262 C293,343 322,605 261,150 C278,180 61,21 374,435 Q508,489 401,433 C424,182 702,315 76,410 Q684,444 665,531 C3,165 315,206 695,744" fill="none" stroke="rgb(13, 237, 33)" stroke-width="0.5385915662039213" /><path d="M295,562 L615,393 C148,679 118,199 275,115 Q637,722 556,556 C453,122 701,266 107,708 L80,243 C434,667 101,500 264,126 Q431,161 242,663" fill="none" stroke="rgb(3, 2, 87)" stroke-width="0.8183132143297102" /><circle cx="207" cy="574" fill="none" opacity="0.47596948966734154" r="176" stroke="rgb(222, 235, 136)" stroke-width="3.6252369188696623" /><polygon fill="none" points="691,251 595,702 419,203" stroke="rgb(5, 57, 174)" stroke-width="2.2278087904856374" /><line stroke="rgb(208, 93, 200)" stroke-width="1.0348451715085998" x1="308" x2="407" y1="133" y2="706" /><line stroke="rgb(67, 102, 245)" stroke-width="1.597300940022362" x1="427" x2="145" y1="633" y2="422" /><line stroke="rgb(106, 18, 251)" stroke-width="1.574005522386855" x1="357" x2="545" y1="476" y2="738" /><line stroke="rgb(198, 245, 134)" stroke-width="2.5042136876741163" x1="15" x2="70" y1="565" y2="654" /><line stroke="rgb(73, 152, 46)" stroke-width="1.3334588381980494" x1="224" x2="238" y1="320" y2="649" /><line stroke="rgb(90, 197, 4)" stroke-width="1.2303155698516717" x1="754" x2="384" y1="525" y2="173" /><line stroke="rgb(49, 212, 129)" stroke-width="0.9221021658844084" x1="756" x2="98" y1="717" y2="47" /><line stroke="rgb(163, 235, 116)" stroke-width="2.6981947888215903" x1="101" x2="189" y1="210" y2="82" /><circle cx="696" cy="84" fill="none" opacity="0.6975913885914107" r="59" stroke="rgb(233, 100, 13)" stroke-width="1.1965447174362485" /><rect fill="none" height="164" stroke="rgb(184, 85, 195)" stroke-width="4.942458267159007" transform="rotate(159 187 402)" width="158" x="592" y="474" /><circle cx="226" cy="151" fill="none" opacity="0.7470611511893415" r="29" stroke="rgb(147, 195, 230)" stroke-width="4.184650238546073" /><polygon fill="none" points="46,311 501,592 101,485 294,86 284,709 538,719 172,703" stroke="rgb(2, 102, 127)" stroke-width="0.50055565315162" /><polygon fill="none" points="325,403 515,434 373,430 193,726 481,338" stroke="rgb(149, 171, 178)" stroke-width="3.068774837001344" /><circle cx="259" cy="445" fill="none" opacity="0.5541562266174431" r="114" stroke="rgb(51, 255, 199)" stroke-width="2.4654911346102786" /><path d="M267,164 Q192,83 587,593 L373,333 L49,334 L117,743 Q556,600 756,267 Q490,266 729,91 C106,146 361,439 286,463" fill="none" stroke="rgb(50, 247, 185)" stroke-width="0.5120104473068181" /><circle cx="233" cy="647" fill="none" opacity="0.560205995833703" r="129" stroke="rgb(179, 3, 101)" stroke-width="1.4726535727645793" /><polygon fill="none" points="573,457 360,348 242,264 402,593 311,98" stroke="rgb(98, 228, 84)" stroke-width="1.9827155824624234" /><path d="M656,470 Q637,142 536,628 Q309,93 37,62 L485,613 C778,715 755,175 193,312 Q19,36 162,146 L312,453" fill="none" stroke="rgb(67, 13, 224)" stroke-width="1.1741017893507006" /><line stroke="rgb(77, 194, 222)" stroke-width="0.9065322845939284" x1="693" x2="486" y1="732" y2="362" /><line stroke="rgb(125, 81, 67)" stroke-width="2.7687832595872566" x1="464" x2="740" y1="749" y2="76" /><line stroke="rgb(75, 71, 39)" stroke-width="0.6301973182295374" x1="99" x2="39" y1="55" y2="255" /><line stroke="rgb(197, 82, 191)" stroke-width="1.0121510457518554" x1="640" x2="203" y1="422" y2="669" /><line stroke="rgb(186, 45, 23)" stroke-width="2.058098121500293" x1="100" x2="607" y1="145" y2="175" /><line stroke="rgb(59, 245, 230)" stroke-width="1.6624653913869898" x1="418" x2="729" y1="305" y2="149" /><rect fill="none" height="178" stroke="rgb(0, 148, 18)" stroke-width="1.3755529809751548" transform="rotate(105 637 570)" width="117" x="228" y="273" /><polygon fill="none" points="267,722 782,426 258,698 459,457 302,131" stroke="rgb(0, 210, 134)" stroke-width="3.157875909015943" /><line stroke="rgb(193, 65, 193)" stroke-width="1.913638178060933" x1="110" x2="435" y1="486" y2="186" /><line stroke="rgb(180, 56, 208)" stroke-width="1.1308027253364505" x1="543" x2="24" y1="653" y2="631" /><line stroke="rgb(143, 147, 107)" stroke-width="1.9533065258984532" x1="263" x2="615" y1="162" y2="127" /><line stroke="rgb(70, 120, 167)" stroke-width="2.8197301998165476" x1="444" x2="153" y1="543" y2="542" /><line stroke="rgb(94, 103, 161)" stroke-width="0.7756311586505846" x1="394" x2="515" y1="334" y2="281" /><line stroke="rgb(250, 27, 85)" stroke-width="2.588119815358888" x1="239" x2="386" y1="72" y2="261" /><line stroke="rgb(30, 31, 143)" stroke-width="2.7506825209550336" x1="126" x2="229" y1="307" y2="582" /><line stroke="rgb(151, 231, 153)" stroke-width="2.5356065071970217" x1="402" x2="154" y1="9" y2="371" /><line stroke="rgb(192, 49, 112)" stroke-width="0.922065771128381" x1="509" x2="506" y1="634" y2="78" /><line stroke="rgb(71, 41, 207)" stroke-width="1.837672744722772" x1="16" x2="253" y1="61" y2="690" /><circle cx="203" cy="281" fill="none" opacity="0.9285312073711105" r="150" stroke="rgb(147, 143, 11)" stroke-width="3.4866269801580714" /></svg>