<svg baseProfile="full" height="586px" version="1.1" width="610px" xmlns="http://www.w3.org/2000/svg" xmlns:ev="http://www.w3.org/2001/xml-events" xmlns:xlink="http://www.w3.org/1999/xlink"><defs /><rect fill="rgb(237, 221, 223)" height="586px" width="610px" x="0" y="0" /><polygon fill="none" points="225,371 393,438 466,419 217,188 577,341 583,52 233,235" stroke="rgb(50, 107, 236)" stroke-width="0.8496750239628612" /><circle cx="410" cy="202" fill="none" opacity="0.5442504858282609" r="92" stroke="rgb(128, 159, 142)" stroke-width="0.5198332018167033" /><line stroke="rgb(189, 27, 240)" stroke-width="2.6247892655441794" x1="541" x2="532" y1="216" y2="207" /><line stroke="rgb(107, 112, 247)" stroke-width="1.9012671244564867" x1="572" x2="416" y1="156" y2="98" /><line stroke="rgb(49, 52, 40)" stroke-width="1.8573315293203647" x1="430" x2="223" y1="33" y2="293" /><line stroke="rgb(57, 6, 144)" stroke-width="1.5922985527304814" x1="64" x2="364" y1="450" y2="558" /><line stroke="rgb(72, 158, 209)" stroke-width="2.8245177061027933" x1="112" x2="335" y1="185" y2="459" /><line stroke="rgb(64, 135, 232)" stroke-width="1.3592995855916252" x1="187" x2="320" y1="2" y2="576" /><line stroke="rgb(108, 38, 146)" stroke-width="2.455583909548431" x1="373" x2="321" y1="467" y2="544" /><line stroke="rgb(71, 202, 171)" stroke-width="1.8376675160443274" x1="531" x2="25" y1="241" y2="86" /><line stroke="rgb(125, 87, 174)" stroke-width="2.3565078112657307" x1="194" x2="139" y1="150" y2="108" /><line stroke="rgb(249, 128, 134)" stroke-width="1.0235484697292208" x1="129" x2="600" y1="166" y2="242" /><circle cx="459" cy="493" fill="none" opacity="0.7166632291225894" r="131" stroke="rgb(234, 147, 63)" stroke-width="1.1440276254712864" /><line stroke="rgb(89, 160, 136)" stroke-width="1.75471141272957" x1="87" x2="49" y1="440" y2="390" /><line stroke="rgb(188, 218, 88)" stroke-width="2.3102416459576496" x1="360" x2="485" y1="105" y2="25" /><line stroke="rgb(110, 51, 52)" stroke-width="2.526762773063025" x1="229" x2="583" y1="277" y2="117" /><line stroke="rgb(92, 99, 42)" stroke-width="0.5740253700662361" x1="167" x2="558" y1="111" y2="124" /><line stroke="rgb(109, 141, 154)" stroke-width="2.1985286014259606" x1="430" x2="421" y1="255" y2="195" /><line stroke="rgb(233, 223, 59)" stroke-width="2.921001649885677" x1="21" x2="375" y1="270" y2="299" /><line stroke="rgb(99, 53, 62)" stroke-width="2.4097262612201753" x1="9" x2="19" y1="203" y2="192" /><line stroke="rgb(54, 128, 254)" stroke-width="1.615460594884046" x1="218" x2="506" y1="55" y2="185" /><polygon fill="none" points="578,18 315,507 502,184 197,72 434,296 171,152 582,40 529,545" stroke="rgb(137, 3, 66)" stroke-width="2.5274692729699986" /><circle cx="72" cy="303" fill="none" opacity="0.5978002720613106" r="112" stroke="rgb(211, 60, 205)" stroke-width="3.265910183312419" /><polygon fill="none" points="53,385 138,85 356,530 341,550 202,327 54,279 338,41" stroke="rgb(51, 11, 173)" stroke-width="3.1692449715366187" /><polygon fill="none" points="448,258 532,107 538,8 44,68" stroke="rgb(211, 73, 190)" stroke-width="3.166905708097971" /><path d="M460,439 C10,334 259,251 309,24 C307,232 80,26 329,234 C128,455 407,248 143,180 L222,92 C181,104 316,238 55,577 L345,539 L51,144" fill="none" stroke="rgb(162, 6, 78)" stroke-width="0.7674693337647444" /><path d="M198,396 C33,128 226,28 436,501 C416,165 175,564 560,381 C579,533 607,247 248,464 Q571,350 235,424" fill="none" stroke="rgb(196, 164, 243)" stroke-width="1.329105331779123" /><line stroke="rgb(102, 26, 137)" stroke-width="0.9073000765946935" x1="7" x2="7" y1="154" y2="321" /><line stroke="rgb(41, 154, 227)" stroke-width="0.7127989786302931" x1="207" x2="508" y1="417" y2="5" /><line stroke="rgb(15, 112, 48)" stroke-width="2.962274699429214" x1="186" x2="525" y1="311" y2="222" /><line stroke="rgb(226, 75, 191)" stroke-width="0.9808773351567269" x1="160" x2="166" y1="474" y2="462" /><line stroke="rgb(16, 166, 170)" stroke-width="1.7002343376642917" x1="551" x2="551" y1="197" y2="137" /><rect fill="none" height="185" stroke="rgb(69, 78, 179)" stroke-width="2.694730913921568" transform="rotate(257 557 418)" width="143" x="144" y="283" /><circle cx="310" cy="185" fill="none" opacity="0.8423955159707572" r="112" stroke="rgb(13, 50, 33)" stroke-width="3.318156408014807" /><rect fill="none" height="67" stroke="rgb(195, 149, 182)" stroke-width="1.4530932537632721" transform="rotate(52 146 70)" width="68" x="318" y="349" /><polygon fill="none" points="187,157 255,200 343,460 417,107 527,197 194,551 457,329" stroke="rgb(43, 225, 128)" stroke-width="3.033572821755055" /><polygon fill="none" points="316,476 461,493 556,22 123,444 481,57 581,389 366,412 89,234" stroke="rgb(148, 151, 37)" stroke-width="3.998146958932459" /><polygon fill="none" points="141,184 342,457 549,423 510,302 452,512" stroke="rgb(158, 231, 57)" stroke-width="1.8848495783598724" /><rect fill="none" height="38" stroke="rgb(77, 22, 55)" stroke-width="4.273785001393608" transform="rotate(297 549 455)" width="89" x="120" y="14" /><line stroke="rgb(0, 64, 121)" stroke-width="0.6050019181315415" x1="222" x2="235" y1="323" y2="185" /><line stroke="rgb(25, 167, 27)" stroke-width="2.3204298064926827" x1="325" x2="342" y1="369" y2="8" /><line stroke="rgb(121, 72, 117)" stroke-width="2.2916341526591317" x1="228" x2="328" y1="539" y2="414" /><rect fill="none" height="32" stroke="rgb(94, 174, 55)" stroke-width="1.9066815571799083" transform="rotate(315 333 231)" width="91" x="34" y="286" /><path d="M182,292 L514,224 Q500,375 95,547 Q577,35 440,196 L231,147" fill="none" stroke="rgb(113, 226, 40)" stroke-width="1.7603722736555765" /><polygon fill="none" points="98,92 276,492 221,566 79,205 408,526 25,496 430,83" stroke="rgb(160, 36, 238)" stroke-width="2.011415505411756" /><line stroke="rgb(217, 156, 21)" stroke-width="1.4235224204842627" x1="330" x2="188" y1="544" y2="41" /><line stroke="rgb(161, 158, 222)" stroke-width="1.0212721651182795" x1="54" x2="438" y1="425" y2="23" /><line stroke="rgb(112, 176, 0)" stroke-width="1.4470050531957084" x1="69" x2="297" y1="573" y2="444" /><line stroke="rgb(99, 99, 68)" stroke-width="2.451374097122031" x1="304" x2="99" y1="294" y2="571" /><line stroke="rgb(191, 189, 39)" stroke-width="0.6975486544494933" x1="184" x2="500" y1="355" y2="261" /><line stroke="rgb(170, 88, 123)" stroke-width="2.9218230351127845" x1="293" x2="354" y1="477" y2="143" /><line stroke="rgb(23, 30, 5)" stroke-width="2.99804122986083" x1="378" x2="39" y1="532" y2="511" /><line stroke="rgb(251, 120, 69)" stroke-width="1.7240226383700823" x1="304" x2="581" y1="407" y2="196" /><polygon fill="none" points="117,185 574,399 148,188" stroke="rgb(58, 252, 143)" stroke-width="1.0647080267638396" /><polygon fill="none" points="38,293 550,493 577,389 173,321 20,130" stroke="rgb(141, 11, 64)" stroke-width="1.5013188086931033" /><rect fill="none" height="73" stroke="rgb(49, 157, 51)" stroke-width="0.7487563272532533" transform="rotate(39 421 439)" width="186" x="155" y="456" /><polygon fill="none" points="322,178 295,516 130,209 136,73 361,566 434,318" stroke="rgb(139, 242, 184)" stroke-width="1.3505051017069454" /><circle cx="102" cy="233" fill="none" opacity="0.3671851279125001" r="14" stroke="rgb(217, 78, 76)" stroke-width="3.7228369388564095" /><line stroke="rgb(145, 131, 142)" stroke-width="2.375643604322529" x1="106" x2="85" y1="139" y2="431" /><line stroke="rgb(66, 103, 83)" stroke-width="0.6205127990391506" x1="86" x2="119" y1="456" y2="93" /><line stroke="rgb(150, 120, 82)" stroke-width="0.883781068081433" x1="13" x2="121" y1="360" y2="104" /><line stroke="rgb(7, 174, 50)" stroke-width="0.5706098747881195" x1="81" x2="338" y1="136" y2="424" /><line stroke="rgb(60, 18, 206)" stroke-width="1.476903845845826" x1="36" x2="324" y1="578" y2="364" /><line stroke="rgb(10, 230, 14)" stroke-width="1.1064328071461675" x1="134" x2="592" y1="59" y2="98" /><line stroke="rgb(61, 37, 105)" stroke-width="2.6125455729542426" x1="35" x2="411" y1="177" y2="553" /><line stroke="rgb(93, 6, 134)" stroke-width="1.9388332102853318" x1="454" x2="246" y1="131" y2="520" /><line stroke="rgb(14, 186, 193)" stroke-width="1.453817310393663" x1="90" x2="589" y1="229" y2="408" /><line stroke="rgb(16, 14, 159)" stroke-width="0.9671628293114936" x1="107" x2="13" y1="413" y2="160" /><polygon fill="none" points="228,459 13,108 28,519 395,233" stroke="rgb(19, 121, 141)" stroke-width="1.6024792035719535" /><path d="M104,456 C33,127 352,514 115,17 Q489,430 508,225 Q219,401 277,179 Q514,302 515,291 C389,9 377,468 543,406" fill="none" stroke="rgb(14, 192, 238)" stroke-width="2.753014322091596" /><circle cx="515" cy="491" fill="none" opacity="0.8545299276077623" r="44" stroke="rgb(52, 197, 190)" stroke-width="1.5740802605204522" /><polygon fill="none" points="554,266 279,508 1,209 57,453" stroke="rgb(216, 202, 58)" stroke-width="1.9299625667947375" /><circle cx="179" cy="357" fill="none" opacity="0.4726479036013168" r="117" stroke="rgb(98, 40, 222)" stroke-width="0.7435630938799701" /><rect fill="none" height="38" stroke="rgb(59, 59, 165)" stroke-width="3.524979201094082" transform="rotate(87 385 189)" width="36" x="335" y="450" /><rect fill="none" height="103" stroke="rgb(152, 149, 182)" stroke-width="0.6570674698850952" transform="rotate(128 460 146)" width="175" x="423" y="18" /><line stroke="rgb(175, 249, 131)" stroke-width="1.148822837366034" x1="470" x2="507" y1="570" y2="315" /><line stroke="rgb(169, 39, 41)" stroke-width="0.6915998114284673" x1="298" x2="394" y1="32" y2="538" /><line stroke="rgb(98, 108, 77)" stroke-width="2.0227694512982604" x1="485" x2="165" y1="121" y2="231" /><line stroke="rgb(201, 52, 100)" stroke-width="1.3275725479149967" x1="244" x2="473" y1="382" y2="38" /><line stroke="rgb(190, 217, 123)" stroke-width="2.8983747070611248" x1="204" x2="293" y1="175" y2="471" /><line stroke="rgb(29, 136, 252)" stroke-width="2.558400514021658" x1="228" x2="102" y1="514" y2="80" /><line stroke="rgb(48, 175, 101)" stroke-width="2.3233154972374668" x1="262" x2="433" y1="580" y2="274" /><line stroke="rgb(162, 181, 47)" stroke-width="1.7423653275277613" x1="488" x2="336" y1="38" y2="477" /><line stroke="rgb(63, 73, 22)" stroke-width="2.8077872484342397" x1="171" x2="306" y1="533" y2="97" /><line stroke="rgb(41, 79, 253)" stroke-width="1.0527821913739084" x1="228" x2="357" y1="183" y2="50" /><line stroke="rgb(80, 64, 16)" stroke-width="2.852340253770361" x1="62" x2="409" y1="469" y2="118" /><line stroke="rgb(150, 80, 41)" stroke-width="0.9303314696314076" x1="319" x2="493" y1="421" y2="73" /><line stroke="rgb(53, 89, 180)" stroke-width="2.5887432644212307" x1="127" x2="44" y1="349" y2="138" /><line stroke="rgb(187, 79, 79)" stroke-width="1.1655313593587988" x1="74" x2="445" y1="391" y2="32" /><line stroke="rgb(104, 111, 108)" stroke-width="1.0167350414361336" x1="595" x2="89" y1="541" y2="120" /><line stroke="rgb(215, 226, 224)" stroke-width="1.6696073106093272" x1="569" x2="26" y1="577" y2="380" /><line stroke="rgb(208, 49, 124)" stroke-width="0.8316873479647733" x1="8" x2="426" y1="492" y2="511" /><line stroke="rgb(224, 23, 47)" stroke-width="1.5425390092685416" x1="518" x2="139" y1="449" y2="495" /><path d="M34,527 Q82,543 114,504 Q278,307 576,372 L371,255 L548,336" fill="none" stroke="rgb(126, 13, 113)" stroke-width="1.7404227797583474" /><path d="M355,359 L553,138 C423,313 307,375 359,346 Q322,195 238,315 C245,376 38,199 268,292 Q250,468 249,128 L300,249 L155,62" fill="none" stroke="rgb(19, 91, 29)" stroke-width="2.3226985090077243" /><rect fill="none" height="140" stroke="rgb(244, 70, 197)" stroke-width="4.642339730651143" transform="rotate(305 146 357)" width="89" x="241" y="356" /><circle cx="345" cy="471" fill="none" opacity="0.45937898949082506" r="84" stroke="rgb(166, 68, 23)" stroke-width="2.538975924285063" /><polygon fill="none" points="542,262 70,337 551,332 84,74 495,128 81,50 424,177" stroke="rgb(212, 172, 19)" stroke-width="0.724579853497813" /><circle cx="181" cy="96" fill="none" opacity="0.7097783772987825" r="138" stroke="rgb(141, 32, 48)" stroke-width="4.7928733132070285" /><line stroke="rgb(56, 229, 33)" stroke-width="0.8394875225995055" x1="351" x2="4" y1="247" y2="405" /><line stroke="rgb(22, 175, 202)" stroke-width="2.8787980222082448" x1="242" x2="601" y1="430" y2="45" /><line stroke="rgb(203, 100, 71)" stroke-width="1.7472192974409633" x1="35" x2="571" y1="534" y2="231" /><line stroke="rgb(61, 33, 142)" stroke-width="1.5679471416159534" x1="439" x2="83" y1="282" y2="468" /><line stroke="rgb(191, 127, 29)" stroke-width="2.670272254215334" x1="574" x2="384" y1="226" y2="28" /><line stroke="rgb(84, 166, 130)" stroke-width="1.6846095590896664" x1="551" x2="577" y1="39" y2="586" /><line stroke="rgb(68, 4, 110)" stroke-width="1.429455290259415" x1="268" x2="226" y1="192" y2="282" /><line stroke="rgb(20, 156, 54)" stroke-width="2.469715861892683" x1="310" x2="28" y1="101" y2="345" /><path d="M322,156 L409,366 L25,278 L117,116" fill="none" stroke="rgb(255, 156, 212)" stroke-width="1.2368375341318754" /><polygon fill="none" points="52,249 370,246 115,452 131,323 289,208" stroke="rgb(13, 252, 1)" stroke-width="1.1107938293561368" /><circle cx="431" cy="425" fill="none" opacity="0.3138574673714855" r="127" stroke="rgb(203, 32, 44)" stroke-width="3.41063243926644" /></svg>