<svg baseProfile="full" height="625px" version="1.1" width="924px" xmlns="http://www.w3.org/2000/svg" xmlns:ev="http://www.w3.org/2001/xml-events" xmlns:xlink="http://www.w3.org/1999/xlink"><defs /><rect fill="rgb(236, 236, 211)" height="625px" width="924px" x="0" y="0" /><path d="M742,230 C33,418 702,366 847,565 Q89,200 891,159 L829,394" fill="none" stroke="rgb(139, 103, 223)" stroke-width="2.819630184772826" /><line stroke="rgb(232, 66, 55)" stroke-width="1.3507801803951849" x1="327" x2="95" y1="64" y2="617" /><line stroke="rgb(118, 200, 147)" stroke-width="2.833924930902277" x1="437" x2="775" y1="508" y2="65" /><line stroke="rgb(196, 237, 95)" stroke-width="1.0940215113358618" x1="760" x2="435" y1="401" y2="532" /><line stroke="rgb(114, 53, 233)" stroke-width="0.6829391747272768" x1="199" x2="918" y1="69" y2="278" /><polygon fill="none" points="794,377 394,243 461,594" stroke="rgb(68, 30, 221)" stroke-width="0.6633144486824263" /><line stroke="rgb(121, 30, 170)" stroke-width="2.360476504284545" x1="69" x2="762" y1="15" y2="576" /><line stroke="rgb(146, 141, 149)" stroke-width="2.240442983157891" x1="875" x2="481" y1="7" y2="571" /><line stroke="rgb(164, 6, 20)" stroke-width="2.536710958150873" x1="187" x2="136" y1="572" y2="332" /><line stroke="rgb(132, 96, 223)" stroke-width="0.5262004505225438" x1="469" x2="504" y1="453" y2="56" /><line stroke="rgb(146, 44, 176)" stroke-width="1.3024831402754742" x1="698" x2="77" y1="577" y2="321" /><line stroke="rgb(199, 222, 98)" stroke-width="0.9440647578574286" x1="470" x2="257" y1="468" y2="619" /><line stroke="rgb(167, 152, 161)" stroke-width="1.5145365000345283" x1="374" x2="4" y1="588" y2="343" /><line stroke="rgb(81, 135, 0)" stroke-width="2.3590064458303415" x1="769" x2="195" y1="367" y2="518" /><line stroke="rgb(34, 62, 112)" stroke-width="1.6026546547667293" x1="2" x2="872" y1="306" y2="606" /><rect fill="none" height="45" stroke="rgb(124, 46, 150)" stroke-width="1.395273092625396" transform="rotate(57 410 208)" width="87" x="757" y="338" /><circle cx="656" cy="55" fill="none" opacity="0.40173148530172176" r="33" stroke="rgb(22, 142, 3)" stroke-width="2.0369264132443075" /><rect fill="none" height="119" stroke="rgb(173, 132, 41)" stroke-width="4.710377500867875" transform="rotate(218 615 377)" width="106" x="781" y="245" /><polygon fill="none" points="445,155 227,161 77,411 922,166 26,81 692,131 822,264 71,228" stroke="rgb(247, 252, 199)" stroke-width="3.569436113461928" /><path d="M262,370 C211,539 401,582 384,12 C402,431 278,332 146,99 Q882,562 750,96 C494,513 159,198 924,537" fill="none" stroke="rgb(98, 51, 147)" stroke-width="1.8119918508429296" /><rect fill="none" height="187" stroke="rgb(53, 164, 169)" stroke-width="2.5726341375386537" transform="rotate(338 843 584)" width="119" x="620" y="499" /><polygon fill="none" points="428,251 661,599 91,353 339,23" stroke="rgb(167, 146, 49)" stroke-width="3.0309577713774893" /><polygon fill="none" points="609,487 517,499 192,466" stroke="rgb(250, 29, 131)" stroke-width="3.092585160884215" /><path d="M677,66 C37,221 584,609 85,419 C466,99 443,252 239,159 L350,11 Q732,602 227,49" fill="none" stroke="rgb(38, 12, 39)" stroke-width="0.6960213594486369" /><circle cx="458" cy="361" fill="none" opacity="0.7461462091351985" r="92" stroke="rgb(117, 60, 181)" stroke-width="4.335968896439165" /><rect fill="none" height="63" stroke="rgb(145, 189, 149)" stroke-width="3.418474164876276" transform="rotate(73 187 237)" width="156" x="446" y="230" /><rect fill="none" height="96" stroke="rgb(167, 31, 132)" stroke-width="2.68450475034142" transform="rotate(100 894 434)" width="108" x="619" y="513" /><polygon fill="none" points="733,372 277,178 842,495" stroke="rgb(23, 121, 50)" stroke-width="2.5498894358688857" /><circle cx="766" cy="172" fill="none" opacity="0.7744572436182525" r="16" stroke="rgb(58, 163, 47)" stroke-width="4.879204658069062" /><rect fill="none" height="77" stroke="rgb(242, 202, 220)" stroke-width="2.592674881550111" transform="rotate(264 73 590)" width="32" x="608" y="19" /><line stroke="rgb(219, 54, 133)" stroke-width="1.6387108748390349" x1="33" x2="302" y1="293" y2="535" /><line stroke="rgb(160, 101, 205)" stroke-width="1.8813865032925665" x1="473" x2="343" y1="467" y2="440" /><line stroke="rgb(164, 42, 195)" stroke-width="0.8729711947328593" x1="202" x2="731" y1="504" y2="512" /><path d="M743,329 L204,383 L119,36 C465,572 23,295 88,115" fill="none" stroke="rgb(34, 6, 106)" stroke-width="0.6775879806266443" /><path d="M643,537 L910,91 C851,381 280,500 149,336 L805,305 L628,237 Q683,481 517,517 Q878,552 231,326" fill="none" stroke="rgb(55, 38, 93)" stroke-width="1.4660446761102137" /><line stroke="rgb(184, 125, 150)" stroke-width="1.919652105614031" x1="623" x2="157" y1="537" y2="515" /><line stroke="rgb(37, 115, 32)" stroke-width="0.8657320584158541" x1="214" x2="286" y1="23" y2="540" /><line stroke="rgb(203, 23, 42)" stroke-width="2.221391664141688" x1="510" x2="166" y1="64" y2="472" /><line stroke="rgb(33, 136, 13)" stroke-width="1.7656647948995816" x1="99" x2="861" y1="25" y2="73" /><line stroke="rgb(84, 240, 76)" stroke-width="0.7607541295156843" x1="184" x2="227" y1="289" y2="113" /><polygon fill="none" points="290,42 383,86 409,250 52,309 679,327 678,414 191,378 573,20" stroke="rgb(129, 52, 56)" stroke-width="2.2608764890963666" /><rect fill="none" height="93" stroke="rgb(99, 180, 138)" stroke-width="1.5825727348132577" transform="rotate(271 390 289)" width="39" x="151" y="3" /><path d="M228,602 Q331,295 178,418 C446,137 432,88 47,383 C521,154 358,245 293,352 C307,586 914,117 260,420 L842,615" fill="none" stroke="rgb(17, 5, 55)" stroke-width="2.0504806816581294" /><circle cx="733" cy="455" fill="none" opacity="0.5992966153204935" r="56" stroke="rgb(76, 112, 80)" stroke-width="2.859434583529469" /><polygon fill="none" points="193,27 488,257 466,491 834,439" stroke="rgb(135, 12, 14)" stroke-width="2.0271646424710146" /><rect fill="none" height="79" stroke="rgb(199, 151, 181)" stroke-width="2.7017781868102873" transform="rotate(29 305 98)" width="100" x="577" y="257" /><path d="M702,79 L733,224 L311,467 C592,173 853,375 614,222" fill="none" stroke="rgb(176, 52, 248)" stroke-width="1.4306275834898257" /><polygon fill="none" points="101,275 144,139 746,129 28,538 794,153 231,488 837,231" stroke="rgb(111, 77, 20)" stroke-width="1.253705298400767" /><path d="M393,111 C732,362 380,386 460,148 L215,507 Q380,79 57,185 L634,197 L605,159 C512,403 520,310 402,316 C484,263 371,299 240,239" fill="none" stroke="rgb(180, 74, 16)" stroke-width="2.4871970033667794" /><line stroke="rgb(211, 122, 95)" stroke-width="0.8035481644207783" x1="818" x2="221" y1="364" y2="551" /><line stroke="rgb(0, 7, 72)" stroke-width="1.412521343335844" x1="313" x2="518" y1="420" y2="111" /><line stroke="rgb(24, 212, 175)" stroke-width="0.9043285128135432" x1="769" x2="31" y1="597" y2="406" /><line stroke="rgb(171, 182, 142)" stroke-width="1.413680436354526" x1="504" x2="564" y1="539" y2="233" /><line stroke="rgb(58, 49, 248)" stroke-width="2.97684660461544" x1="203" x2="73" y1="18" y2="499" /><circle cx="390" cy="166" fill="none" opacity="0.7971352930387978" r="141" stroke="rgb(79, 97, 90)" stroke-width="0.5840287014004155" /><path d="M615,473 C717,452 277,376 347,58 Q554,554 320,336 C909,102 632,537 895,353 Q503,157 394,601" fill="none" stroke="rgb(219, 24, 204)" stroke-width="2.6153757014523733" /><line stroke="rgb(221, 70, 66)" stroke-width="0.6077955210327566" x1="121" x2="506" y1="54" y2="134" /><line stroke="rgb(244, 59, 134)" stroke-width="2.5547324252764985" x1="337" x2="837" y1="312" y2="494" /><line stroke="rgb(20, 183, 231)" stroke-width="0.5275761244318005" x1="196" x2="158" y1="93" y2="539" /><line stroke="rgb(211, 97, 78)" stroke-width="0.6432259409210285" x1="523" x2="46" y1="21" y2="43" /><circle cx="465" cy="397" fill="none" opacity="0.913423785624061" r="17" stroke="rgb(175, 107, 46)" stroke-width="4.810173139680222" /><circle cx="762" cy="156" fill="none" opacity="0.9700330328914601" r="74" stroke="rgb(63, 223, 1)" stroke-width="2.648518263027029" /><rect fill="none" height="79" stroke="rgb(28, 226, 255)" stroke-width="3.603521713284993" transform="rotate(108 58 31)" width="22" x="719" y="511" /><line stroke="rgb(117, 102, 111)" stroke-width="1.4544729165577481" x1="440" x2="845" y1="518" y2="499" /><line stroke="rgb(135, 172, 36)" stroke-width="2.737489909155742" x1="765" x2="643" y1="102" y2="601" /><line stroke="rgb(158, 125, 120)" stroke-width="1.7571155148907174" x1="314" x2="872" y1="503" y2="295" /><line stroke="rgb(145, 231, 74)" stroke-width="1.4223278391331104" x1="586" x2="3" y1="366" y2="41" /><line stroke="rgb(250, 177, 250)" stroke-width="2.8510029910164874" x1="667" x2="329" y1="373" y2="332" /><line stroke="rgb(192, 43, 253)" stroke-width="2.6135394543531048" x1="145" x2="435" y1="130" y2="506" /><line stroke="rgb(136, 70, 11)" stroke-width="1.112737054433559" x1="537" x2="721" y1="400" y2="46" /><line stroke="rgb(160, 65, 179)" stroke-width="2.4301535908371754" x1="894" x2="614" y1="28" y2="145" /><line stroke="rgb(251, 167, 128)" stroke-width="1.5275108707588876" x1="764" x2="385" y1="26" y2="148" /><line stroke="rgb(161, 233, 113)" stroke-width="1.5067954843496352" x1="770" x2="495" y1="534" y2="84" /><circle cx="839" cy="490" fill="none" opacity="0.874758541044846" r="145" stroke="rgb(228, 180, 215)" stroke-width="4.6624382559111615" /><circle cx="552" cy="286" fill="none" opacity="0.9173750187874974" r="80" stroke="rgb(7, 191, 71)" stroke-width="1.4507817076576754" /><rect fill="none" height="151" stroke="rgb(116, 86, 216)" stroke-width="4.925417703446636" transform="rotate(244 684 605)" width="119" x="281" y="442" /><polygon fill="none" points="894,469 879,571 294,235 335,205 466,367 150,168 896,163" stroke="rgb(83, 193, 74)" stroke-width="3.952263699876896" /><path d="M909,441 L261,587 C566,593 858,601 84,582 Q257,540 103,611 Q442,418 485,341 Q749,540 84,202" fill="none" stroke="rgb(73, 55, 134)" stroke-width="2.801685535913237" /><line stroke="rgb(135, 127, 157)" stroke-width="1.0203797207108531" x1="226" x2="507" y1="529" y2="149" /><line stroke="rgb(131, 133, 233)" stroke-width="2.6269419203200264" x1="591" x2="851" y1="357" y2="228" /><line stroke="rgb(112, 85, 158)" stroke-width="1.0648680741709142" x1="505" x2="53" y1="249" y2="100" /><line stroke="rgb(43, 216, 106)" stroke-width="2.3699086556235907" x1="144" x2="579" y1="285" y2="459" /></svg>