<svg baseProfile="full" height="753px" version="1.1" width="658px" xmlns="http://www.w3.org/2000/svg" xmlns:ev="http://www.w3.org/2001/xml-events" xmlns:xlink="http://www.w3.org/1999/xlink"><defs /><rect fill="rgb(222, 233, 219)" height="753px" width="658px" x="0" y="0" /><circle cx="195" cy="486" fill="none" opacity="0.4343485813756736" r="159" stroke="rgb(203, 141, 80)" stroke-width="0.5426521857061501" /><rect fill="none" height="178" stroke="rgb(242, 129, 238)" stroke-width="4.60589214631288" transform="rotate(106 573 414)" width="101" x="377" y="384" /><line stroke="rgb(87, 245, 188)" stroke-width="2.2526761510572744" x1="37" x2="645" y1="561" y2="36" /><line stroke="rgb(227, 151, 126)" stroke-width="0.604037142855302" x1="255" x2="165" y1="34" y2="200" /><line stroke="rgb(138, 153, 200)" stroke-width="2.9312661219110727" x1="536" x2="296" y1="430" y2="535" /><polygon fill="none" points="414,380 299,453 646,245 557,392 341,478 292,588" stroke="rgb(221, 98, 121)" stroke-width="1.9048943323543215" /><path d="M385,358 Q480,354 563,599 L416,593 L162,637 Q10,174 384,611" fill="none" stroke="rgb(152, 114, 253)" stroke-width="2.9618567389106003" /><circle cx="575" cy="255" fill="none" opacity="0.34632108871014256" r="38" stroke="rgb(248, 115, 32)" stroke-width="3.3631180529209224" /><rect fill="none" height="127" stroke="rgb(171, 220, 48)" stroke-width="2.0389261146449758" transform="rotate(291 210 711)" width="115" x="143" y="517" /><circle cx="79" cy="575" fill="none" opacity="0.6390836157380606" r="54" stroke="rgb(29, 137, 103)" stroke-width="2.3718857417335006" /><path d="M31,23 L620,585 Q640,12 484,752 Q540,702 322,610 L521,502 C476,349 28,71 442,9 L549,110" fill="none" stroke="rgb(4, 89, 23)" stroke-width="2.7435911211890116" /><circle cx="264" cy="679" fill="none" opacity="0.8558399936337546" r="144" stroke="rgb(54, 122, 45)" stroke-width="0.9829362688440682" /><path d="M54,618 C470,624 512,415 87,90 L434,125 L94,323 L153,153 Q610,694 330,732" fill="none" stroke="rgb(8, 89, 57)" stroke-width="2.831551558877379" /><circle cx="165" cy="396" fill="none" opacity="0.5024518954883302" r="141" stroke="rgb(126, 231, 184)" stroke-width="1.1008758510764665" /><rect fill="none" height="153" stroke="rgb(87, 191, 1)" stroke-width="0.7303759446026021" transform="rotate(255 491 143)" width="90" x="367" y="310" /><line stroke="rgb(85, 78, 37)" stroke-width="0.7362817486653879" x1="416" x2="161" y1="482" y2="526" /><line stroke="rgb(188, 168, 190)" stroke-width="0.6081432696810383" x1="40" x2="388" y1="520" y2="399" /><line stroke="rgb(230, 34, 3)" stroke-width="1.8867671801836046" x1="600" x2="609" y1="684" y2="520" /><line stroke="rgb(235, 178, 61)" stroke-width="2.942972348351836" x1="205" x2="223" y1="201" y2="475" /><line stroke="rgb(236, 70, 115)" stroke-width="2.418657582714253" x1="429" x2="188" y1="178" y2="380" /><line stroke="rgb(12, 181, 5)" stroke-width="0.8385966971394189" x1="14" x2="18" y1="660" y2="88" /><polygon fill="none" points="351,675 1,544 411,24" stroke="rgb(1, 10, 244)" stroke-width="2.154138114550701" /><polygon fill="none" points="614,410 456,364 547,60 81,279 623,466" stroke="rgb(149, 127, 162)" stroke-width="3.425596347451685" /><rect fill="none" height="104" stroke="rgb(9, 195, 118)" stroke-width="2.2929422932525885" transform="rotate(357 371 122)" width="33" x="358" y="451" /><rect fill="none" height="171" stroke="rgb(109, 218, 96)" stroke-width="3.9847116820123185" transform="rotate(186 178 58)" width="32" x="481" y="33" /><rect fill="none" height="63" stroke="rgb(49, 218, 77)" stroke-width="2.0472859450516716" transform="rotate(9 250 282)" width="102" x="19" y="127" /><line stroke="rgb(50, 234, 185)" stroke-width="1.2305394460173762" x1="641" x2="156" y1="277" y2="477" /><line stroke="rgb(35, 183, 198)" stroke-width="0.8305511185321647" x1="432" x2="306" y1="303" y2="226" /><line stroke="rgb(254, 207, 136)" stroke-width="2.901297680375952" x1="624" x2="329" y1="185" y2="482" /><line stroke="rgb(216, 30, 175)" stroke-width="2.7693564617893793" x1="215" x2="143" y1="13" y2="549" /><line stroke="rgb(42, 27, 82)" stroke-width="2.1047287808020787" x1="631" x2="507" y1="589" y2="666" /><circle cx="273" cy="681" fill="none" opacity="0.722443215453509" r="15" stroke="rgb(117, 194, 190)" stroke-width="2.722926604492408" /><polygon fill="none" points="559,16 403,723 105,406 85,103 9,411 185,734 555,263 271,599" stroke="rgb(111, 151, 232)" stroke-width="0.721443988150537" /><rect fill="none" height="146" stroke="rgb(55, 226, 173)" stroke-width="2.2848497933695633" transform="rotate(81 421 148)" width="101" x="389" y="504" /><path d="M591,309 L121,274 Q329,613 22,693 C205,11 309,603 80,199 L469,537 C441,707 430,91 415,285" fill="none" stroke="rgb(120, 210, 168)" stroke-width="2.868445195070071" /><path d="M492,312 C291,54 579,182 369,103 L620,167 Q388,672 320,436 C35,685 176,339 318,609 L308,347 C398,30 14,443 377,419" fill="none" stroke="rgb(241, 9, 169)" stroke-width="1.2505654796287646" /><path d="M577,307 Q174,47 143,43 L92,231 Q474,450 33,572 C222,131 245,294 339,25 Q47,95 193,218 C615,614 526,348 533,137" fill="none" stroke="rgb(87, 87, 95)" stroke-width="2.753394379346383" /><rect fill="none" height="42" stroke="rgb(214, 133, 5)" stroke-width="1.3650918876311948" transform="rotate(359 501 43)" width="79" x="300" y="620" /><circle cx="211" cy="645" fill="none" opacity="0.38205617646747403" r="10" stroke="rgb(161, 95, 156)" stroke-width="4.3500923971995125" /><path d="M96,566 Q55,731 265,600 Q158,18 32,94 L519,740 L533,129 Q330,45 319,163 Q635,313 193,491 Q217,109 15,148" fill="none" stroke="rgb(39, 116, 91)" stroke-width="1.424369413151491" /><line stroke="rgb(236, 119, 198)" stroke-width="0.5900495018198855" x1="612" x2="643" y1="68" y2="337" /><line stroke="rgb(15, 120, 128)" stroke-width="1.2321728149279136" x1="260" x2="70" y1="182" y2="740" /><line stroke="rgb(74, 210, 60)" stroke-width="2.397243569328304" x1="92" x2="431" y1="271" y2="439" /><line stroke="rgb(237, 174, 77)" stroke-width="0.6201426710111362" x1="496" x2="315" y1="751" y2="484" /><line stroke="rgb(155, 124, 204)" stroke-width="1.321896908428307" x1="469" x2="250" y1="389" y2="651" /><line stroke="rgb(132, 7, 41)" stroke-width="2.1728107626334414" x1="18" x2="498" y1="380" y2="471" /><line stroke="rgb(186, 73, 110)" stroke-width="2.360461841041381" x1="48" x2="294" y1="748" y2="40" /><line stroke="rgb(146, 212, 226)" stroke-width="2.2088629520224625" x1="165" x2="138" y1="601" y2="346" /><line stroke="rgb(128, 117, 5)" stroke-width="0.620878314914073" x1="408" x2="521" y1="207" y2="332" /><line stroke="rgb(214, 64, 146)" stroke-width="1.2751534204150086" x1="587" x2="404" y1="493" y2="332" /><line stroke="rgb(182, 4, 60)" stroke-width="0.7444710969982857" x1="373" x2="473" y1="699" y2="725" /><circle cx="336" cy="127" fill="none" opacity="0.4096067107223317" r="155" stroke="rgb(212, 56, 14)" stroke-width="2.9544740289176117" /><line stroke="rgb(11, 105, 192)" stroke-width="1.1935897281596823" x1="546" x2="423" y1="378" y2="150" /><line stroke="rgb(208, 155, 200)" stroke-width="2.7667480995177898" x1="564" x2="175" y1="481" y2="108" /><line stroke="rgb(168, 134, 103)" stroke-width="1.3073139174632051" x1="72" x2="539" y1="204" y2="120" /><line stroke="rgb(211, 92, 155)" stroke-width="2.60440407828084" x1="596" x2="12" y1="724" y2="236" /><line stroke="rgb(59, 142, 86)" stroke-width="0.9135889757357805" x1="323" x2="442" y1="599" y2="47" /><line stroke="rgb(81, 85, 158)" stroke-width="0.9474089590824032" x1="310" x2="148" y1="146" y2="429" /><line stroke="rgb(120, 168, 191)" stroke-width="2.1827239373498943" x1="623" x2="527" y1="111" y2="670" /><line stroke="rgb(28, 101, 137)" stroke-width="2.9853422511880527" x1="336" x2="610" y1="155" y2="309" /><polygon fill="none" points="255,162 339,101 430,341" stroke="rgb(111, 13, 70)" stroke-width="3.0938915652821106" /><path d="M307,88 Q632,414 478,297 Q50,453 565,357 C195,739 309,704 523,716 Q12,471 61,149 C93,312 235,383 361,597" fill="none" stroke="rgb(220, 249, 131)" stroke-width="2.641875130986736" /><line stroke="rgb(176, 250, 67)" stroke-width="2.019780486598748" x1="412" x2="394" y1="187" y2="729" /><line stroke="rgb(41, 25, 146)" stroke-width="1.3974094750186583" x1="629" x2="643" y1="436" y2="579" /><line stroke="rgb(60, 200, 24)" stroke-width="2.2023765715739225" x1="35" x2="658" y1="644" y2="309" /><line stroke="rgb(56, 214, 109)" stroke-width="2.9241146846052746" x1="447" x2="541" y1="130" y2="622" /><line stroke="rgb(3, 57, 185)" stroke-width="0.5634622730003204" x1="167" x2="49" y1="511" y2="749" /><line stroke="rgb(124, 97, 186)" stroke-width="2.2978363711229495" x1="543" x2="476" y1="522" y2="562" /><line stroke="rgb(5, 200, 171)" stroke-width="1.6591251900862685" x1="87" x2="641" y1="720" y2="220" /><line stroke="rgb(99, 243, 11)" stroke-width="2.554530536930482" x1="614" x2="118" y1="362" y2="250" /><line stroke="rgb(179, 145, 185)" stroke-width="1.1248560957006422" x1="238" x2="545" y1="108" y2="120" /><line stroke="rgb(22, 235, 239)" stroke-width="1.8095485892408811" x1="66" x2="29" y1="80" y2="377" /><line stroke="rgb(4, 75, 149)" stroke-width="1.7695731261054717" x1="233" x2="188" y1="358" y2="653" /><line stroke="rgb(102, 211, 114)" stroke-width="1.8357888615867104" x1="514" x2="59" y1="744" y2="310" /><line stroke="rgb(45, 238, 220)" stroke-width="0.6050296275667537" x1="46" x2="329" y1="467" y2="4" /><line stroke="rgb(46, 66, 53)" stroke-width="1.8757756787583788" x1="427" x2="253" y1="347" y2="380" /><line stroke="rgb(145, 207, 112)" stroke-width="2.2938185917580842" x1="59" x2="549" y1="271" y2="20" /><line stroke="rgb(15, 229, 51)" stroke-width="2.0835873442549913" x1="621" x2="258" y1="689" y2="632" /><polygon fill="none" points="248,752 41,590 601,317 577,627 451,37 276,567 348,340 372,429" stroke="rgb(22, 233, 162)" stroke-width="1.5449321245684304" /><polygon fill="none" points="146,244 65,224 564,104 405,583 477,624 358,309 166,602 475,359" stroke="rgb(129, 68, 209)" stroke-width="0.7649210575948309" /><circle cx="133" cy="150" fill="none" opacity="0.6770702751176311" r="63" stroke="rgb(166, 94, 203)" stroke-width="2.021751050955338" /><path d="M11,367 C135,83 160,144 581,433 Q366,102 122,532 Q465,6 498,378 L54,395" fill="none" stroke="rgb(161, 247, 25)" stroke-width="1.278785031302354" /><line stroke="rgb(161, 214, 171)" stroke-width="1.7199953624901636" x1="617" x2="398" y1="427" y2="101" /><line stroke="rgb(123, 235, 72)" stroke-width="2.188923370212833" x1="31" x2="31" y1="717" y2="61" /><line stroke="rgb(244, 238, 23)" stroke-width="2.0973529526883965" x1="529" x2="247" y1="27" y2="483" /><line stroke="rgb(141, 18, 65)" stroke-width="1.7046170556138323" x1="100" x2="388" y1="313" y2="433" /><line stroke="rgb(4, 173, 120)" stroke-width="1.1249297297597596" x1="47" x2="103" y1="537" y2="637" /><line stroke="rgb(252, 57, 155)" stroke-width="2.384841733672758" x1="329" x2="628" y1="263" y2="741" /><line stroke="rgb(43, 201, 106)" stroke-width="1.7022691876424254" x1="273" x2="350" y1="324" y2="283" /><line stroke="rgb(14, 200, 214)" stroke-width="2.941498534796445" x1="385" x2="165" y1="165" y2="170" /><rect fill="none" height="96" stroke="rgb(179, 47, 75)" stroke-width="4.342768621066002" transform="rotate(75 319 732)" width="168" x="18" y="647" /><polygon fill="none" points="457,217 587,34 570,134 142,162 240,351 289,160 620,426" stroke="rgb(117, 249, 25)" stroke-width="0.9858719352479313" /><line stroke="rgb(48, 185, 206)" stroke-width="2.2607091741856773" x1="588" x2="163" y1="53" y2="346" /><line stroke="rgb(46, 20, 187)" stroke-width="2.080728175758678" x1="425" x2="168" y1="601" y2="623" /><line stroke="rgb(1, 185, 148)" stroke-width="2.7040675686333486" x1="117" x2="26" y1="0" y2="539" /><line stroke="rgb(172, 15, 25)" stroke-width="0.5980936244727793" x1="588" x2="7" y1="204" y2="550" /></svg>