<svg baseProfile="full" height="793px" version="1.1" width="1097px" xmlns="http://www.w3.org/2000/svg" xmlns:ev="http://www.w3.org/2001/xml-events" xmlns:xlink="http://www.w3.org/1999/xlink"><defs /><rect fill="rgb(201, 254, 201)" height="793px" width="1097px" x="0" y="0" /><circle cx="585" cy="293" fill="none" opacity="0.40828079458257605" r="35" stroke="rgb(86, 255, 159)" stroke-width="4.229390987052514" /><line stroke="rgb(82, 120, 30)" stroke-width="0.6909413632263773" x1="775" x2="583" y1="600" y2="154" /><line stroke="rgb(252, 46, 105)" stroke-width="1.580787209299912" x1="553" x2="59" y1="782" y2="190" /><line stroke="rgb(54, 35, 126)" stroke-width="2.457731708345327" x1="762" x2="925" y1="19" y2="177" /><line stroke="rgb(13, 156, 235)" stroke-width="2.2022316631456693" x1="582" x2="1014" y1="517" y2="419" /><line stroke="rgb(133, 126, 252)" stroke-width="1.2641184669761139" x1="41" x2="210" y1="769" y2="391" /><line stroke="rgb(114, 41, 255)" stroke-width="2.716324956136676" x1="169" x2="173" y1="684" y2="765" /><line stroke="rgb(224, 72, 156)" stroke-width="1.7895425478676947" x1="249" x2="750" y1="254" y2="206" /><line stroke="rgb(148, 10, 30)" stroke-width="2.215155809571117" x1="641" x2="938" y1="774" y2="544" /><line stroke="rgb(188, 102, 102)" stroke-width="0.6908629843990004" x1="156" x2="342" y1="608" y2="476" /><line stroke="rgb(21, 175, 243)" stroke-width="2.4112130429584875" x1="78" x2="595" y1="527" y2="780" /><path d="M725,120 C381,164 999,513 203,404 Q830,641 141,761 L138,614 L483,435" fill="none" stroke="rgb(151, 157, 148)" stroke-width="0.8895825031065634" /><line stroke="rgb(220, 197, 222)" stroke-width="0.7839503103359267" x1="509" x2="745" y1="336" y2="440" /><line stroke="rgb(81, 121, 188)" stroke-width="1.9852678823096312" x1="669" x2="979" y1="395" y2="640" /><line stroke="rgb(188, 209, 145)" stroke-width="1.488586074015587" x1="514" x2="567" y1="474" y2="631" /><line stroke="rgb(237, 135, 112)" stroke-width="2.687459638099665" x1="332" x2="801" y1="419" y2="754" /><line stroke="rgb(117, 238, 184)" stroke-width="2.2770303853943363" x1="232" x2="589" y1="337" y2="227" /><line stroke="rgb(110, 61, 163)" stroke-width="1.4245030554394593" x1="852" x2="524" y1="254" y2="725" /><line stroke="rgb(40, 10, 143)" stroke-width="1.8120197407349423" x1="528" x2="30" y1="684" y2="588" /><line stroke="rgb(158, 112, 242)" stroke-width="1.4389514576291589" x1="1014" x2="912" y1="23" y2="320" /><line stroke="rgb(116, 84, 1)" stroke-width="1.597698963258994" x1="757" x2="987" y1="138" y2="757" /><line stroke="rgb(240, 198, 71)" stroke-width="0.6200767317732157" x1="355" x2="477" y1="410" y2="159" /><line stroke="rgb(4, 194, 67)" stroke-width="2.7555992457126726" x1="647" x2="520" y1="323" y2="673" /><line stroke="rgb(128, 150, 108)" stroke-width="1.380097288376548" x1="533" x2="271" y1="487" y2="625" /><line stroke="rgb(152, 36, 123)" stroke-width="1.5427654088947649" x1="708" x2="26" y1="725" y2="531" /><line stroke="rgb(247, 228, 160)" stroke-width="1.4422744267765988" x1="640" x2="775" y1="612" y2="725" /><line stroke="rgb(50, 40, 67)" stroke-width="2.2953423151145986" x1="331" x2="1041" y1="470" y2="17" /><line stroke="rgb(107, 227, 236)" stroke-width="0.9858985217258829" x1="981" x2="252" y1="599" y2="667" /><line stroke="rgb(50, 228, 48)" stroke-width="0.7747345394170355" x1="1020" x2="736" y1="270" y2="45" /><line stroke="rgb(65, 204, 241)" stroke-width="1.1828187640365746" x1="575" x2="126" y1="785" y2="442" /><line stroke="rgb(95, 71, 51)" stroke-width="0.5767946517877982" x1="551" x2="304" y1="554" y2="520" /><line stroke="rgb(255, 62, 239)" stroke-width="2.3075638946441073" x1="719" x2="405" y1="294" y2="292" /><line stroke="rgb(76, 243, 192)" stroke-width="0.745572938371077" x1="733" x2="902" y1="338" y2="427" /><line stroke="rgb(177, 194, 210)" stroke-width="2.9312572691959478" x1="723" x2="64" y1="669" y2="159" /><line stroke="rgb(143, 85, 234)" stroke-width="2.074839401069879" x1="671" x2="349" y1="711" y2="118" /><line stroke="rgb(166, 47, 231)" stroke-width="2.105339593004982" x1="1009" x2="460" y1="275" y2="87" /><line stroke="rgb(170, 127, 114)" stroke-width="2.396250101708612" x1="907" x2="253" y1="394" y2="275" /><rect fill="none" height="108" stroke="rgb(106, 238, 18)" stroke-width="4.618534920537451" transform="rotate(250 167 91)" width="90" x="793" y="345" /><polygon fill="none" points="274,467 950,460 1096,47 14,383" stroke="rgb(172, 206, 94)" stroke-width="1.373719535699958" /><polygon fill="none" points="537,760 856,785 790,489 317,431 810,275 309,325 934,387" stroke="rgb(184, 183, 14)" stroke-width="2.34678821494202" /><line stroke="rgb(219, 4, 181)" stroke-width="2.204841274678282" x1="412" x2="60" y1="542" y2="141" /><line stroke="rgb(157, 205, 0)" stroke-width="2.2279279932376648" x1="737" x2="57" y1="324" y2="218" /><line stroke="rgb(219, 253, 60)" stroke-width="2.653041929035304" x1="545" x2="212" y1="653" y2="421" /><line stroke="rgb(149, 69, 152)" stroke-width="2.1342547981929454" x1="224" x2="21" y1="259" y2="273" /><line stroke="rgb(36, 136, 230)" stroke-width="0.8107856225903907" x1="918" x2="804" y1="662" y2="339" /><line stroke="rgb(63, 220, 151)" stroke-width="2.33733312605667" x1="70" x2="505" y1="755" y2="431" /><line stroke="rgb(119, 191, 255)" stroke-width="1.4623340418722826" x1="703" x2="165" y1="487" y2="690" /><line stroke="rgb(35, 46, 98)" stroke-width="2.8736748675918236" x1="952" x2="738" y1="719" y2="194" /><line stroke="rgb(114, 135, 99)" stroke-width="1.5102030881789483" x1="655" x2="990" y1="66" y2="264" /><line stroke="rgb(42, 165, 32)" stroke-width="1.8695849948015038" x1="519" x2="988" y1="199" y2="161" /><line stroke="rgb(115, 215, 93)" stroke-width="2.8995510897355072" x1="776" x2="852" y1="548" y2="87" /><line stroke="rgb(106, 141, 8)" stroke-width="2.8771192381751938" x1="118" x2="311" y1="647" y2="646" /><line stroke="rgb(118, 168, 238)" stroke-width="1.994423813379374" x1="16" x2="588" y1="712" y2="229" /><line stroke="rgb(134, 183, 78)" stroke-width="2.556045691143088" x1="552" x2="32" y1="716" y2="418" /><line stroke="rgb(86, 200, 237)" stroke-width="1.645459207247096" x1="52" x2="90" y1="636" y2="101" /><line stroke="rgb(156, 114, 92)" stroke-width="2.8893917848589465" x1="235" x2="505" y1="726" y2="174" /><line stroke="rgb(225, 132, 56)" stroke-width="2.7243408281340233" x1="1001" x2="571" y1="387" y2="25" /><line stroke="rgb(160, 244, 77)" stroke-width="2.93779373051402" x1="238" x2="829" y1="438" y2="624" /><line stroke="rgb(162, 156, 239)" stroke-width="2.0754380488003448" x1="736" x2="1052" y1="259" y2="325" /><rect fill="none" height="97" stroke="rgb(82, 51, 204)" stroke-width="1.9277949833750163" transform="rotate(101 5 660)" width="92" x="818" y="137" /><polygon fill="none" points="630,287 214,619 998,529 93,368 302,66 1076,490 423,245" stroke="rgb(99, 110, 6)" stroke-width="2.9948253484783565" /><path d="M660,66 Q453,314 736,764 C335,515 87,371 560,666 Q22,344 82,724 Q168,228 767,544 C241,645 352,15 1054,693 L917,249" fill="none" stroke="rgb(202, 8, 38)" stroke-width="1.0563373390925122" /><rect fill="none" height="181" stroke="rgb(152, 23, 107)" stroke-width="3.5562140977127874" transform="rotate(350 1019 537)" width="129" x="332" y="33" /><path d="M35,159 Q310,591 1016,108 L65,227 C526,267 704,270 429,686" fill="none" stroke="rgb(125, 96, 98)" stroke-width="2.625962267571144" /><polygon fill="none" points="945,314 751,124 645,392 492,78 155,20 708,695" stroke="rgb(225, 133, 212)" stroke-width="2.8627902087087445" /><rect fill="none" height="165" stroke="rgb(12, 92, 106)" stroke-width="4.2108536850277565" transform="rotate(215 305 765)" width="61" x="220" y="604" /><line stroke="rgb(187, 193, 170)" stroke-width="1.484867983233443" x1="707" x2="915" y1="100" y2="241" /><line stroke="rgb(51, 133, 41)" stroke-width="1.6928534580144556" x1="754" x2="1061" y1="709" y2="419" /><line stroke="rgb(102, 249, 222)" stroke-width="1.3956747711716093" x1="390" x2="684" y1="576" y2="292" /><line stroke="rgb(169, 31, 57)" stroke-width="1.1499033393090305" x1="800" x2="976" y1="200" y2="314" /><rect fill="none" height="105" stroke="rgb(150, 248, 198)" stroke-width="3.2463587465065693" transform="rotate(67 177 758)" width="99" x="314" y="170" /><polygon fill="none" points="1085,352 981,758 769,603 797,153 703,558 825,322 754,582" stroke="rgb(218, 176, 166)" stroke-width="3.7195088237595777" /><line stroke="rgb(163, 221, 70)" stroke-width="1.27905569399318" x1="968" x2="719" y1="220" y2="249" /><line stroke="rgb(65, 92, 79)" stroke-width="1.7162811043147417" x1="225" x2="472" y1="53" y2="252" /><line stroke="rgb(156, 129, 178)" stroke-width="1.5512683704616537" x1="388" x2="1060" y1="447" y2="611" /><line stroke="rgb(9, 171, 56)" stroke-width="2.397223442052843" x1="666" x2="811" y1="399" y2="684" /><line stroke="rgb(149, 232, 236)" stroke-width="1.0565868168989425" x1="828" x2="334" y1="608" y2="391" /><line stroke="rgb(25, 92, 140)" stroke-width="0.9234023511965368" x1="156" x2="837" y1="26" y2="312" /><line stroke="rgb(34, 6, 48)" stroke-width="1.6117515334764219" x1="287" x2="727" y1="406" y2="53" /><line stroke="rgb(141, 237, 204)" stroke-width="2.7734880109588085" x1="61" x2="804" y1="266" y2="554" /><circle cx="808" cy="731" fill="none" opacity="0.7353622740692813" r="61" stroke="rgb(220, 81, 53)" stroke-width="0.5590899929359071" /><polygon fill="none" points="1011,80 916,79 582,690 549,462 647,609 403,656 188,92 903,324" stroke="rgb(113, 22, 186)" stroke-width="3.7299869075998555" /><polygon fill="none" points="493,134 600,33 775,339 984,763 311,668 721,107 305,332" stroke="rgb(152, 62, 8)" stroke-width="1.5820286048229173" /><path d="M454,748 L31,780 C523,193 1012,381 528,683 Q323,93 970,587" fill="none" stroke="rgb(131, 168, 25)" stroke-width="1.6204989814895747" /><path d="M833,9 C1021,361 603,727 1018,587 C603,740 1021,284 496,629 C182,259 509,612 813,354" fill="none" stroke="rgb(166, 111, 40)" stroke-width="1.4696974220339452" /><path d="M559,114 L168,444 Q864,334 731,562 C776,455 342,228 290,544 C258,68 624,659 251,565 C531,325 727,298 830,233" fill="none" stroke="rgb(159, 247, 153)" stroke-width="2.314114458121541" /><path d="M364,482 L46,495 L50,494 Q419,167 937,110 C484,773 558,177 614,88 L1019,21 L69,585 L608,126" fill="none" stroke="rgb(46, 63, 19)" stroke-width="1.9557870151042533" /><polygon fill="none" points="892,273 116,496 917,531" stroke="rgb(51, 193, 149)" stroke-width="1.4305783099910756" /><rect fill="none" height="133" stroke="rgb(168, 129, 202)" stroke-width="2.5251656187683027" transform="rotate(272 193 388)" width="84" x="427" y="41" /><line stroke="rgb(244, 60, 65)" stroke-width="0.8343275631207434" x1="807" x2="304" y1="294" y2="125" /><line stroke="rgb(213, 195, 110)" stroke-width="2.8760106508370398" x1="483" x2="621" y1="593" y2="77" /><line stroke="rgb(59, 178, 185)" stroke-width="2.755714631446338" x1="705" x2="1020" y1="464" y2="720" /><line stroke="rgb(39, 13, 153)" stroke-width="2.7445851504108916" x1="1053" x2="399" y1="766" y2="119" /><line stroke="rgb(70, 185, 249)" stroke-width="0.7815807715498151" x1="113" x2="738" y1="368" y2="328" /><line stroke="rgb(189, 14, 255)" stroke-width="0.8536146711369448" x1="1070" x2="51" y1="65" y2="637" /><circle cx="824" cy="169" fill="none" opacity="0.5412798815535664" r="32" stroke="rgb(164, 169, 118)" stroke-width="1.3990862215564064" /><polygon fill="none" points="373,261 38,675 455,10 897,172 502,60 97,549" stroke="rgb(197, 24, 18)" stroke-width="3.4718264709117603" /><polygon fill="none" points="457,143 39,18 665,524 627,502" stroke="rgb(127, 248, 156)" stroke-width="0.6021765674976967" /><line stroke="rgb(211, 193, 233)" stroke-width="2.806963680566664" x1="246" x2="960" y1="773" y2="662" /><line stroke="rgb(120, 125, 202)" stroke-width="2.6912265357907232" x1="755" x2="111" y1="540" y2="201" /><line stroke="rgb(170, 168, 188)" stroke-width="1.2748716538033111" x1="371" x2="994" y1="758" y2="583" /><line stroke="rgb(248, 184, 33)" stroke-width="2.7517346210228033" x1="1092" x2="336" y1="785" y2="432" /><line stroke="rgb(10, 64, 102)" stroke-width="2.1020032051624593" x1="686" x2="422" y1="525" y2="285" /><line stroke="rgb(30, 95, 252)" stroke-width="0.583730799129649" x1="126" x2="82" y1="714" y2="512" /><line stroke="rgb(29, 99, 177)" stroke-width="2.948423411913246" x1="880" x2="504" y1="596" y2="600" /><rect fill="none" height="143" stroke="rgb(19, 86, 98)" stroke-width="1.352973241537978" transform="rotate(63 734 391)" width="33" x="117" y="579" /></svg>