<svg baseProfile="full" height="760px" version="1.1" width="963px" xmlns="http://www.w3.org/2000/svg" xmlns:ev="http://www.w3.org/2001/xml-events" xmlns:xlink="http://www.w3.org/1999/xlink"><defs /><rect fill="rgb(231, 238, 231)" height="760px" width="963px" x="0" y="0" /><circle cx="271" cy="480" fill="none" opacity="0.431327839365527" r="179" stroke="rgb(218, 125, 86)" stroke-width="2.0396662508685144" /><polygon fill="none" points="700,609 904,101 691,154 946,616 388,424 665,51 330,152 173,298" stroke="rgb(89, 218, 202)" stroke-width="2.3280537197233917" /><line stroke="rgb(76, 248, 234)" stroke-width="0.7571365039389797" x1="576" x2="541" y1="61" y2="242" /><line stroke="rgb(128, 174, 236)" stroke-width="0.6436885676666131" x1="579" x2="239" y1="758" y2="322" /><line stroke="rgb(102, 193, 126)" stroke-width="2.4041130835195976" x1="459" x2="456" y1="711" y2="635" /><circle cx="80" cy="207" fill="none" opacity="0.725421773608585" r="10" stroke="rgb(243, 141, 223)" stroke-width="3.2447710763312245" /><circle cx="210" cy="371" fill="none" opacity="0.4737048338291049" r="137" stroke="rgb(185, 183, 3)" stroke-width="2.081860534430226" /><circle cx="827" cy="422" fill="none" opacity="0.30207038055129315" r="158" stroke="rgb(227, 81, 82)" stroke-width="4.660873586693411" /><polygon fill="none" points="467,505 682,495 78,286 475,504 780,729 403,473 701,484" stroke="rgb(128, 250, 205)" stroke-width="2.6959230173813595" /><path d="M100,203 L810,659 Q863,530 277,162 Q1,642 854,434 L627,488" fill="none" stroke="rgb(77, 213, 110)" stroke-width="1.7883695759535856" /><rect fill="none" height="150" stroke="rgb(222, 82, 113)" stroke-width="1.5824979436722897" transform="rotate(240 402 300)" width="165" x="42" y="646" /><polygon fill="none" points="75,249 915,477 377,542" stroke="rgb(244, 230, 33)" stroke-width="3.830190976391682" /><circle cx="295" cy="288" fill="none" opacity="0.8934763781491288" r="131" stroke="rgb(151, 234, 60)" stroke-width="2.4260463065390554" /><rect fill="none" height="175" stroke="rgb(126, 253, 233)" stroke-width="1.1735663724056888" transform="rotate(72 207 708)" width="194" x="794" y="103" /><rect fill="none" height="21" stroke="rgb(80, 23, 237)" stroke-width="4.873595561331974" transform="rotate(10 389 421)" width="100" x="174" y="321" /><polygon fill="none" points="401,83 151,467 685,535 317,386 254,395" stroke="rgb(29, 33, 160)" stroke-width="2.4527544216761843" /><path d="M83,399 Q469,432 90,358 C166,326 663,620 743,580 L874,207" fill="none" stroke="rgb(168, 10, 254)" stroke-width="2.6729616515176766" /><rect fill="none" height="97" stroke="rgb(132, 196, 80)" stroke-width="3.57357879231621" transform="rotate(116 535 445)" width="33" x="72" y="5" /><rect fill="none" height="39" stroke="rgb(207, 163, 77)" stroke-width="4.81038303021768" transform="rotate(26 260 378)" width="146" x="412" y="222" /><circle cx="438" cy="643" fill="none" opacity="0.6788244703495497" r="44" stroke="rgb(173, 122, 153)" stroke-width="2.989999176641865" /></svg>