<svg baseProfile="full" height="735px" version="1.1" width="890px" xmlns="http://www.w3.org/2000/svg" xmlns:ev="http://www.w3.org/2001/xml-events" xmlns:xlink="http://www.w3.org/1999/xlink"><defs /><rect fill="rgb(218, 225, 244)" height="735px" width="890px" x="0" y="0" /><path d="M823,342 C391,664 67,698 256,456 Q855,207 678,611 Q490,362 546,559" fill="none" stroke="rgb(112, 210, 62)" stroke-width="1.701193288950585" /><circle cx="498" cy="271" fill="none" opacity="0.8459636547460909" r="131" stroke="rgb(144, 172, 164)" stroke-width="4.440195911065203" /><polygon fill="none" points="349,2 138,666 283,215 544,631 221,710" stroke="rgb(247, 47, 30)" stroke-width="1.052827227947541" /><rect fill="none" height="84" stroke="rgb(42, 151, 66)" stroke-width="0.9841614046326621" transform="rotate(67 449 700)" width="103" x="452" y="425" /><line stroke="rgb(180, 91, 49)" stroke-width="2.3859119219896447" x1="34" x2="570" y1="343" y2="51" /><line stroke="rgb(7, 218, 204)" stroke-width="2.5704890208391005" x1="816" x2="751" y1="704" y2="204" /><line stroke="rgb(141, 221, 72)" stroke-width="1.1888237559599029" x1="35" x2="798" y1="322" y2="374" /><line stroke="rgb(71, 148, 186)" stroke-width="0.6796480154307214" x1="212" x2="99" y1="375" y2="304" /><polygon fill="none" points="599,285 141,158 392,578 191,385 612,527 831,216 152,386 325,414" stroke="rgb(209, 75, 60)" stroke-width="1.7598838863763349" /><circle cx="232" cy="327" fill="none" opacity="0.3840841271336129" r="169" stroke="rgb(155, 199, 123)" stroke-width="0.9568965095174277" /><circle cx="74" cy="634" fill="none" opacity="0.7446015283484462" r="169" stroke="rgb(57, 9, 66)" stroke-width="4.111351061752349" /><circle cx="67" cy="647" fill="none" opacity="0.30300314755345403" r="35" stroke="rgb(192, 200, 26)" stroke-width="2.3831519002352426" /><polygon fill="none" points="741,549 264,193 371,448 180,52 831,654" stroke="rgb(234, 220, 181)" stroke-width="1.8300848063808217" /><line stroke="rgb(37, 129, 61)" stroke-width="1.3460533770196774" x1="294" x2="779" y1="435" y2="153" /><line stroke="rgb(97, 216, 243)" stroke-width="0.7103202353838132" x1="430" x2="713" y1="608" y2="705" /><line stroke="rgb(7, 75, 158)" stroke-width="2.0508735171136365" x1="551" x2="700" y1="716" y2="388" /><line stroke="rgb(58, 47, 34)" stroke-width="0.5531507247744284" x1="45" x2="374" y1="25" y2="695" /><line stroke="rgb(64, 193, 146)" stroke-width="2.3857537948714853" x1="9" x2="759" y1="436" y2="543" /><line stroke="rgb(28, 86, 115)" stroke-width="1.4993120720900515" x1="758" x2="216" y1="135" y2="18" /><line stroke="rgb(132, 117, 187)" stroke-width="2.2124335837263027" x1="320" x2="532" y1="266" y2="197" /><line stroke="rgb(86, 44, 1)" stroke-width="0.8983557326805984" x1="392" x2="100" y1="113" y2="22" /><line stroke="rgb(18, 199, 133)" stroke-width="1.5094794641384262" x1="485" x2="879" y1="241" y2="498" /><line stroke="rgb(75, 200, 10)" stroke-width="2.557144508276915" x1="271" x2="601" y1="41" y2="560" /><line stroke="rgb(7, 85, 240)" stroke-width="1.1486746183351593" x1="704" x2="108" y1="638" y2="64" /><line stroke="rgb(213, 196, 75)" stroke-width="2.6754945952584324" x1="748" x2="527" y1="331" y2="239" /><line stroke="rgb(104, 112, 103)" stroke-width="2.9712554672533527" x1="620" x2="297" y1="441" y2="433" /><line stroke="rgb(73, 226, 81)" stroke-width="1.6530725342211747" x1="399" x2="149" y1="377" y2="363" /><line stroke="rgb(196, 142, 97)" stroke-width="1.7617105303015097" x1="139" x2="270" y1="336" y2="476" /><line stroke="rgb(247, 237, 229)" stroke-width="0.6932708106967551" x1="217" x2="93" y1="374" y2="663" /><line stroke="rgb(79, 90, 150)" stroke-width="1.98644195440099" x1="382" x2="34" y1="39" y2="118" /><line stroke="rgb(134, 70, 160)" stroke-width="1.5564042847121873" x1="132" x2="463" y1="304" y2="631" /><line stroke="rgb(98, 254, 25)" stroke-width="1.8712800388262927" x1="599" x2="12" y1="283" y2="121" /><circle cx="780" cy="108" fill="none" opacity="0.4811900227866719" r="61" stroke="rgb(44, 252, 21)" stroke-width="4.805947544776863" /><rect fill="none" height="41" stroke="rgb(41, 228, 246)" stroke-width="1.6092049157988928" transform="rotate(291 460 250)" width="58" x="49" y="353" /><circle cx="690" cy="57" fill="none" opacity="0.8033463185318723" r="103" stroke="rgb(44, 37, 110)" stroke-width="1.333418794294845" /><path d="M390,98 Q777,240 268,554 C78,301 567,567 104,466 L673,313 Q528,540 615,327 L42,67" fill="none" stroke="rgb(65, 110, 88)" stroke-width="1.1336079201024103" /><path d="M719,12 Q546,619 463,439 L218,305 Q163,485 388,205 L539,162 L529,692" fill="none" stroke="rgb(194, 209, 40)" stroke-width="2.929680615731068" /><circle cx="329" cy="245" fill="none" opacity="0.7467274677678238" r="48" stroke="rgb(118, 5, 110)" stroke-width="1.0886498301532983" /><circle cx="183" cy="409" fill="none" opacity="0.7487917307767632" r="83" stroke="rgb(87, 151, 174)" stroke-width="1.2014290792153028" /><line stroke="rgb(156, 12, 232)" stroke-width="1.7583489128938878" x1="73" x2="713" y1="460" y2="447" /><line stroke="rgb(179, 177, 128)" stroke-width="1.4528766650565392" x1="114" x2="649" y1="309" y2="379" /><line stroke="rgb(187, 179, 103)" stroke-width="2.0829550288801526" x1="563" x2="515" y1="482" y2="326" /><line stroke="rgb(248, 203, 198)" stroke-width="1.035108151721915" x1="373" x2="184" y1="562" y2="73" /><line stroke="rgb(169, 86, 53)" stroke-width="0.8010807640907265" x1="620" x2="796" y1="100" y2="414" /><line stroke="rgb(99, 155, 192)" stroke-width="1.6771604096789758" x1="631" x2="719" y1="63" y2="50" /><line stroke="rgb(33, 69, 61)" stroke-width="1.0036501987960267" x1="856" x2="853" y1="211" y2="4" /><line stroke="rgb(106, 75, 164)" stroke-width="1.440815322732769" x1="688" x2="90" y1="552" y2="252" /><line stroke="rgb(154, 100, 195)" stroke-width="1.4856541095576419" x1="378" x2="8" y1="84" y2="329" /><polygon fill="none" points="246,258 533,110 593,471 498,294 149,577 8,152" stroke="rgb(73, 234, 46)" stroke-width="3.666365724754538" /><polygon fill="none" points="391,229 379,37 156,497 294,81 686,235 219,330 31,74 183,516" stroke="rgb(105, 244, 223)" stroke-width="2.988985002512755" /><rect fill="none" height="191" stroke="rgb(206, 185, 163)" stroke-width="3.034839856807457" transform="rotate(18 728 252)" width="80" x="777" y="448" /><line stroke="rgb(100, 79, 251)" stroke-width="2.0574531616737213" x1="836" x2="267" y1="313" y2="595" /><line stroke="rgb(17, 101, 102)" stroke-width="0.7946542813410726" x1="501" x2="53" y1="466" y2="105" /><line stroke="rgb(132, 58, 30)" stroke-width="1.0893151959293694" x1="761" x2="202" y1="209" y2="468" /><line stroke="rgb(35, 0, 208)" stroke-width="1.2415290687757148" x1="458" x2="437" y1="93" y2="349" /><line stroke="rgb(217, 49, 120)" stroke-width="2.5812669182814334" x1="604" x2="421" y1="569" y2="35" /><line stroke="rgb(201, 79, 190)" stroke-width="0.6033556530226282" x1="60" x2="240" y1="392" y2="709" /><line stroke="rgb(12, 19, 138)" stroke-width="2.8746226123077494" x1="299" x2="648" y1="443" y2="218" /><line stroke="rgb(214, 125, 108)" stroke-width="1.986544336775052" x1="16" x2="293" y1="449" y2="188" /><line stroke="rgb(237, 95, 98)" stroke-width="2.979216493543" x1="282" x2="37" y1="184" y2="583" /><line stroke="rgb(113, 115, 249)" stroke-width="1.8671603704708932" x1="746" x2="860" y1="421" y2="206" /><line stroke="rgb(76, 56, 194)" stroke-width="0.9499698535710004" x1="303" x2="810" y1="193" y2="556" /><line stroke="rgb(104, 185, 37)" stroke-width="0.7746900597782387" x1="484" x2="516" y1="227" y2="385" /><line stroke="rgb(110, 139, 122)" stroke-width="1.4280241053326184" x1="181" x2="107" y1="416" y2="457" /><line stroke="rgb(245, 23, 193)" stroke-width="1.8915991505874301" x1="868" x2="428" y1="177" y2="694" /><line stroke="rgb(124, 100, 210)" stroke-width="0.9592874489028467" x1="776" x2="741" y1="683" y2="479" /><line stroke="rgb(76, 21, 96)" stroke-width="0.7883099092969715" x1="195" x2="890" y1="687" y2="341" /><line stroke="rgb(26, 150, 117)" stroke-width="2.425712146896769" x1="293" x2="285" y1="506" y2="316" /><circle cx="821" cy="420" fill="none" opacity="0.5277911157518563" r="114" stroke="rgb(209, 59, 32)" stroke-width="2.273187083739581" /><circle cx="743" cy="89" fill="none" opacity="0.6124254410434296" r="141" stroke="rgb(92, 224, 90)" stroke-width="3.0041046250085692" /><rect fill="none" height="99" stroke="rgb(74, 247, 7)" stroke-width="1.7111924218911807" transform="rotate(2 96 24)" width="76" x="372" y="593" /><rect fill="none" height="45" stroke="rgb(250, 147, 238)" stroke-width="4.373965351293709" transform="rotate(322 861 15)" width="28" x="96" y="496" /><rect fill="none" height="140" stroke="rgb(120, 18, 56)" stroke-width="0.9558692672484195" transform="rotate(338 878 602)" width="145" x="278" y="520" /><line stroke="rgb(62, 165, 201)" stroke-width="2.4358046293881284" x1="168" x2="107" y1="386" y2="331" /><line stroke="rgb(244, 197, 171)" stroke-width="1.8877262239348176" x1="606" x2="166" y1="733" y2="245" /><line stroke="rgb(184, 102, 87)" stroke-width="2.8947455229620456" x1="566" x2="85" y1="72" y2="280" /><line stroke="rgb(41, 251, 166)" stroke-width="2.3060514864515564" x1="168" x2="164" y1="655" y2="39" /><line stroke="rgb(237, 244, 102)" stroke-width="1.2644152083198128" x1="804" x2="475" y1="93" y2="5" /><circle cx="587" cy="136" fill="none" opacity="0.5039985446779334" r="129" stroke="rgb(71, 91, 35)" stroke-width="3.3657805063801556" /><path d="M211,293 C401,696 138,108 722,667 L663,428 C453,335 305,710 573,384 L354,647" fill="none" stroke="rgb(228, 191, 112)" stroke-width="1.4172367164939874" /><path d="M63,404 C343,10 86,511 578,74 C587,24 697,389 770,314 L740,235 C762,39 651,418 641,9" fill="none" stroke="rgb(1, 172, 111)" stroke-width="1.8330733409555378" /><path d="M82,354 L734,175 L580,142 Q522,600 734,706 L469,319 C276,416 4,360 813,155 L169,299" fill="none" stroke="rgb(19, 138, 97)" stroke-width="1.4705035206369297" /><rect fill="none" height="111" stroke="rgb(172, 150, 66)" stroke-width="2.7690857706127723" transform="rotate(81 101 118)" width="169" x="441" y="72" /><line stroke="rgb(127, 159, 30)" stroke-width="0.6309286023462103" x1="335" x2="28" y1="650" y2="707" /><line stroke="rgb(224, 192, 233)" stroke-width="2.2081230079682643" x1="703" x2="296" y1="632" y2="243" /><line stroke="rgb(178, 190, 112)" stroke-width="0.9851007589075762" x1="274" x2="30" y1="283" y2="599" /><line stroke="rgb(225, 37, 193)" stroke-width="2.5464677537792935" x1="742" x2="365" y1="621" y2="352" /><line stroke="rgb(12, 150, 101)" stroke-width="2.1637443956960265" x1="274" x2="769" y1="122" y2="525" /><line stroke="rgb(120, 218, 179)" stroke-width="2.3696966654628584" x1="489" x2="271" y1="118" y2="438" /><line stroke="rgb(12, 131, 131)" stroke-width="0.996897310614629" x1="570" x2="696" y1="306" y2="110" /><line stroke="rgb(77, 183, 99)" stroke-width="2.1086845536987937" x1="280" x2="580" y1="81" y2="734" /><line stroke="rgb(71, 136, 252)" stroke-width="2.6460276351588514" x1="446" x2="107" y1="470" y2="44" /><line stroke="rgb(6, 223, 82)" stroke-width="1.7973885760524448" x1="523" x2="888" y1="260" y2="401" /><path d="M195,303 L711,661 C765,182 368,146 874,333 Q484,253 550,660 C382,584 435,382 241,153" fill="none" stroke="rgb(167, 182, 141)" stroke-width="2.553600054655961" /><line stroke="rgb(241, 30, 243)" stroke-width="1.0905345197935072" x1="691" x2="413" y1="185" y2="489" /><line stroke="rgb(11, 2, 114)" stroke-width="0.5707047013884349" x1="241" x2="438" y1="109" y2="149" /><line stroke="rgb(107, 161, 86)" stroke-width="1.4293434737361923" x1="557" x2="58" y1="639" y2="460" /><line stroke="rgb(245, 153, 210)" stroke-width="1.5897153240726114" x1="401" x2="813" y1="687" y2="429" /></svg>