<svg baseProfile="full" height="492px" version="1.1" width="966px" xmlns="http://www.w3.org/2000/svg" xmlns:ev="http://www.w3.org/2001/xml-events" xmlns:xlink="http://www.w3.org/1999/xlink"><defs /><rect fill="rgb(230, 248, 222)" height="492px" width="966px" x="0" y="0" /><rect fill="none" height="64" stroke="rgb(239, 51, 235)" stroke-width="3.988824009172357" transform="rotate(240 199 470)" width="23" x="859" y="35" /><line stroke="rgb(127, 154, 63)" stroke-width="1.3690899033471995" x1="229" x2="879" y1="105" y2="389" /><line stroke="rgb(184, 96, 167)" stroke-width="1.9318158935305283" x1="495" x2="331" y1="401" y2="77" /><line stroke="rgb(178, 254, 27)" stroke-width="1.4952146433898807" x1="670" x2="408" y1="208" y2="368" /><line stroke="rgb(128, 80, 151)" stroke-width="1.735208465983423" x1="415" x2="9" y1="484" y2="367" /><line stroke="rgb(180, 24, 46)" stroke-width="2.841916221402023" x1="219" x2="674" y1="44" y2="424" /><polygon fill="none" points="788,15 576,360 285,135 813,429 770,53 652,468 519,198 53,137" stroke="rgb(3, 136, 175)" stroke-width="2.6799814099877524" /><circle cx="516" cy="157" fill="none" opacity="0.45963806710010857" r="78" stroke="rgb(68, 15, 229)" stroke-width="0.6968287301293958" /><line stroke="rgb(173, 136, 129)" stroke-width="1.5082291431118986" x1="237" x2="722" y1="20" y2="24" /><line stroke="rgb(246, 133, 49)" stroke-width="1.6538731747988018" x1="716" x2="14" y1="403" y2="61" /><line stroke="rgb(218, 55, 151)" stroke-width="1.1736362378280256" x1="922" x2="168" y1="348" y2="115" /><line stroke="rgb(169, 231, 214)" stroke-width="1.1895332772709586" x1="777" x2="114" y1="433" y2="378" /><line stroke="rgb(31, 249, 144)" stroke-width="1.3387304363464159" x1="864" x2="950" y1="66" y2="24" /><line stroke="rgb(84, 167, 133)" stroke-width="0.7516199799465948" x1="369" x2="350" y1="373" y2="415" /><line stroke="rgb(102, 230, 67)" stroke-width="0.5292314781646541" x1="383" x2="644" y1="105" y2="150" /><line stroke="rgb(209, 50, 158)" stroke-width="0.5773160216655966" x1="263" x2="477" y1="190" y2="388" /><line stroke="rgb(247, 29, 148)" stroke-width="2.6178060320590237" x1="674" x2="945" y1="135" y2="247" /><circle cx="431" cy="333" fill="none" opacity="0.3285684389268787" r="44" stroke="rgb(142, 135, 19)" stroke-width="2.6697922865124584" /><polygon fill="none" points="500,378 26,149 333,247 263,166 545,148 846,10 764,79" stroke="rgb(241, 37, 193)" stroke-width="2.034955451934753" /><polygon fill="none" points="379,335 123,308 369,344 160,84" stroke="rgb(153, 236, 97)" stroke-width="1.5787966564814029" /><path d="M277,176 L891,364 Q216,186 527,93 Q474,257 666,444 Q51,30 523,257 Q903,223 354,361 L342,183 L709,434" fill="none" stroke="rgb(239, 108, 163)" stroke-width="0.9592714437698184" /><rect fill="none" height="144" stroke="rgb(196, 156, 202)" stroke-width="1.446513490165185" transform="rotate(119 584 371)" width="97" x="579" y="145" /><line stroke="rgb(179, 153, 86)" stroke-width="2.0528847190099215" x1="473" x2="37" y1="157" y2="410" /><line stroke="rgb(7, 134, 161)" stroke-width="1.1802176592918017" x1="685" x2="368" y1="124" y2="237" /><line stroke="rgb(159, 120, 89)" stroke-width="0.6161847371650291" x1="369" x2="422" y1="399" y2="125" /><line stroke="rgb(11, 97, 141)" stroke-width="1.5095115562703838" x1="826" x2="364" y1="230" y2="405" /><line stroke="rgb(73, 64, 88)" stroke-width="0.5922443982131199" x1="10" x2="168" y1="469" y2="72" /><line stroke="rgb(226, 42, 68)" stroke-width="2.975501596032938" x1="283" x2="927" y1="383" y2="180" /><line stroke="rgb(89, 66, 158)" stroke-width="0.8403899544668659" x1="403" x2="591" y1="449" y2="318" /><line stroke="rgb(189, 160, 58)" stroke-width="0.8608823345122047" x1="931" x2="387" y1="280" y2="55" /><line stroke="rgb(114, 165, 87)" stroke-width="0.9703899786849436" x1="781" x2="838" y1="88" y2="349" /><path d="M947,95 Q729,355 386,427 Q784,313 213,223 Q896,346 136,461 Q44,395 207,458 L661,481 L218,378" fill="none" stroke="rgb(134, 82, 6)" stroke-width="0.8334988744638612" /><path d="M414,179 C156,116 412,207 786,167 Q815,138 493,295 L21,179 Q880,433 86,153 C116,426 804,402 388,20 C659,239 277,217 570,292" fill="none" stroke="rgb(176, 198, 40)" stroke-width="1.9621448471099607" /><path d="M858,295 L34,193 Q888,469 897,323 L380,30 C123,55 882,316 188,140 Q516,303 936,73 L681,482 Q519,285 599,477" fill="none" stroke="rgb(87, 77, 9)" stroke-width="2.7732221812646904" /><polygon fill="none" points="759,423 19,116 262,487 36,475" stroke="rgb(119, 87, 235)" stroke-width="1.9683385666071391" /><path d="M260,169 C115,408 55,232 792,436 L255,178 Q916,12 4,207 Q78,371 306,57 Q278,209 338,15 L30,385 C519,481 619,384 779,416" fill="none" stroke="rgb(177, 167, 152)" stroke-width="0.6973579921092248" /><path d="M602,241 L408,421 Q448,484 237,344 Q177,334 782,95 L657,350 L748,228 L633,417" fill="none" stroke="rgb(109, 45, 188)" stroke-width="0.5263813357977036" /><rect fill="none" height="56" stroke="rgb(79, 45, 31)" stroke-width="1.2705583876734854" transform="rotate(331 201 310)" width="138" x="424" y="170" /><polygon fill="none" points="238,240 47,257 920,476 894,124 344,311 893,361 792,131 860,17" stroke="rgb(106, 212, 97)" stroke-width="2.2345030739303295" /><line stroke="rgb(22, 205, 138)" stroke-width="0.8418560571780282" x1="326" x2="579" y1="408" y2="150" /><line stroke="rgb(22, 227, 180)" stroke-width="1.1924631481136123" x1="962" x2="462" y1="117" y2="399" /><line stroke="rgb(69, 249, 44)" stroke-width="1.1372087040685084" x1="822" x2="128" y1="243" y2="133" /><line stroke="rgb(101, 59, 98)" stroke-width="1.6598383284962654" x1="713" x2="354" y1="348" y2="350" /><line stroke="rgb(62, 185, 219)" stroke-width="1.9601818730846388" x1="597" x2="142" y1="298" y2="244" /><line stroke="rgb(214, 255, 143)" stroke-width="1.77167144160621" x1="518" x2="506" y1="270" y2="398" /></svg>