<svg baseProfile="full" height="731px" version="1.1" width="640px" xmlns="http://www.w3.org/2000/svg" xmlns:ev="http://www.w3.org/2001/xml-events" xmlns:xlink="http://www.w3.org/1999/xlink"><defs /><rect fill="rgb(240, 246, 217)" height="731px" width="640px" x="0" y="0" /><line stroke="rgb(13, 34, 136)" stroke-width="2.004869219322981" x1="462" x2="577" y1="600" y2="319" /><line stroke="rgb(96, 149, 213)" stroke-width="1.5208928510392854" x1="577" x2="527" y1="486" y2="261" /><line stroke="rgb(163, 254, 178)" stroke-width="0.6799809193034272" x1="80" x2="527" y1="626" y2="622" /><line stroke="rgb(166, 155, 21)" stroke-width="1.4922249170807156" x1="524" x2="307" y1="40" y2="526" /><line stroke="rgb(243, 190, 25)" stroke-width="1.6048742055150798" x1="28" x2="8" y1="551" y2="397" /><polygon fill="none" points="261,380 71,568 462,458 481,108 96,405 451,358 545,505 144,460" stroke="rgb(57, 249, 223)" stroke-width="0.8385698701588233" /><polygon fill="none" points="587,119 198,482 295,310" stroke="rgb(220, 117, 146)" stroke-width="2.2411553516426617" /><polygon fill="none" points="318,278 506,431 463,290 458,367 539,696 65,544 9,119" stroke="rgb(170, 245, 54)" stroke-width="1.3509974557419742" /><line stroke="rgb(243, 222, 78)" stroke-width="0.9577124013804292" x1="369" x2="152" y1="235" y2="341" /><line stroke="rgb(110, 8, 194)" stroke-width="1.874196003601917" x1="393" x2="493" y1="380" y2="82" /><line stroke="rgb(174, 159, 127)" stroke-width="2.2298775068692507" x1="563" x2="495" y1="397" y2="390" /><line stroke="rgb(113, 156, 135)" stroke-width="1.6006049424692368" x1="621" x2="299" y1="329" y2="524" /><line stroke="rgb(74, 212, 100)" stroke-width="0.8667295869182283" x1="496" x2="552" y1="717" y2="8" /><line stroke="rgb(84, 91, 197)" stroke-width="2.3341503430812196" x1="403" x2="617" y1="145" y2="653" /><path d="M632,122 C246,150 402,395 120,518 L190,500 C395,713 243,434 22,447 C266,136 399,601 333,13" fill="none" stroke="rgb(94, 185, 48)" stroke-width="2.0820636945774327" /><polygon fill="none" points="537,587 39,651 191,437 363,646 453,200 326,455" stroke="rgb(227, 162, 253)" stroke-width="0.5355619481382852" /><polygon fill="none" points="267,158 559,214 371,279 520,98 587,306 124,532 380,439 260,92" stroke="rgb(203, 4, 107)" stroke-width="2.3187463426863406" /><rect fill="none" height="27" stroke="rgb(189, 242, 2)" stroke-width="2.655278188214752" transform="rotate(69 404 513)" width="60" x="114" y="548" /><rect fill="none" height="104" stroke="rgb(29, 230, 95)" stroke-width="2.700324330272084" transform="rotate(107 40 175)" width="62" x="194" y="172" /><rect fill="none" height="105" stroke="rgb(51, 95, 129)" stroke-width="2.107031285244691" transform="rotate(270 278 303)" width="132" x="111" y="148" /><line stroke="rgb(40, 57, 68)" stroke-width="2.48039775669613" x1="183" x2="450" y1="709" y2="719" /><line stroke="rgb(66, 9, 0)" stroke-width="0.701137178064183" x1="19" x2="95" y1="520" y2="641" /><line stroke="rgb(26, 131, 187)" stroke-width="1.2101064344097212" x1="479" x2="428" y1="668" y2="32" /><line stroke="rgb(164, 244, 30)" stroke-width="1.2228155001934948" x1="313" x2="602" y1="117" y2="79" /><rect fill="none" height="26" stroke="rgb(221, 152, 63)" stroke-width="4.341389577246557" transform="rotate(278 469 81)" width="132" x="158" y="620" /><line stroke="rgb(112, 193, 242)" stroke-width="1.6693724107330652" x1="359" x2="366" y1="58" y2="371" /><line stroke="rgb(66, 251, 15)" stroke-width="0.864946185591771" x1="44" x2="231" y1="466" y2="367" /><line stroke="rgb(176, 243, 32)" stroke-width="2.862971747268163" x1="263" x2="388" y1="677" y2="373" /><line stroke="rgb(46, 12, 206)" stroke-width="2.811839065530633" x1="591" x2="92" y1="537" y2="409" /><line stroke="rgb(51, 186, 109)" stroke-width="2.9298290627051387" x1="614" x2="33" y1="44" y2="416" /><line stroke="rgb(223, 248, 63)" stroke-width="1.7567944168346612" x1="130" x2="419" y1="659" y2="509" /><line stroke="rgb(141, 70, 123)" stroke-width="1.0930654449320172" x1="54" x2="368" y1="299" y2="585" /><line stroke="rgb(72, 151, 234)" stroke-width="2.6093587484125607" x1="459" x2="165" y1="77" y2="643" /><line stroke="rgb(60, 215, 44)" stroke-width="0.6099107551125698" x1="355" x2="610" y1="283" y2="587" /><line stroke="rgb(186, 215, 225)" stroke-width="1.6943996978830742" x1="444" x2="124" y1="707" y2="318" /><circle cx="376" cy="164" fill="none" opacity="0.5628827971521138" r="109" stroke="rgb(84, 90, 250)" stroke-width="3.7446615106827807" /><line stroke="rgb(169, 108, 150)" stroke-width="2.3179930527393022" x1="471" x2="196" y1="607" y2="332" /><line stroke="rgb(49, 32, 90)" stroke-width="0.70274916331838" x1="418" x2="189" y1="265" y2="112" /><line stroke="rgb(233, 17, 153)" stroke-width="0.6812041283786214" x1="288" x2="491" y1="272" y2="80" /><line stroke="rgb(207, 52, 17)" stroke-width="1.4599448997543745" x1="47" x2="176" y1="569" y2="178" /><line stroke="rgb(113, 201, 46)" stroke-width="2.9394658797714834" x1="120" x2="458" y1="240" y2="280" /><polygon fill="none" points="557,142 449,607 317,202 89,77 41,221 564,191 19,285" stroke="rgb(212, 141, 38)" stroke-width="2.013382964217213" /><polygon fill="none" points="481,615 500,196 182,496 143,93" stroke="rgb(129, 234, 30)" stroke-width="2.729935265794798" /><line stroke="rgb(85, 38, 71)" stroke-width="1.42467495219119" x1="91" x2="359" y1="649" y2="537" /><line stroke="rgb(17, 241, 132)" stroke-width="1.041265129307019" x1="405" x2="235" y1="238" y2="203" /><line stroke="rgb(87, 171, 178)" stroke-width="1.5690055235932039" x1="139" x2="62" y1="529" y2="145" /><line stroke="rgb(40, 57, 73)" stroke-width="1.6008944259970186" x1="567" x2="210" y1="651" y2="113" /><line stroke="rgb(233, 99, 156)" stroke-width="0.9602617347106064" x1="504" x2="579" y1="191" y2="274" /><path d="M154,254 Q474,468 513,164 L198,665 L76,294" fill="none" stroke="rgb(93, 219, 212)" stroke-width="2.844540945233204" /><rect fill="none" height="40" stroke="rgb(135, 50, 201)" stroke-width="1.9175559188054458" transform="rotate(217 533 288)" width="81" x="70" y="556" /><circle cx="332" cy="582" fill="none" opacity="0.6239761082039151" r="67" stroke="rgb(207, 237, 49)" stroke-width="4.917118467338896" /><rect fill="none" height="173" stroke="rgb(94, 124, 37)" stroke-width="3.8161884583415953" transform="rotate(212 594 541)" width="90" x="299" y="86" /><line stroke="rgb(225, 59, 218)" stroke-width="0.9876114544041543" x1="303" x2="450" y1="665" y2="11" /><line stroke="rgb(226, 141, 230)" stroke-width="1.9890055351119427" x1="317" x2="434" y1="59" y2="323" /><line stroke="rgb(225, 129, 187)" stroke-width="0.8314578118964016" x1="405" x2="196" y1="714" y2="594" /><line stroke="rgb(160, 98, 60)" stroke-width="2.676656184261498" x1="87" x2="213" y1="499" y2="640" /><line stroke="rgb(167, 197, 92)" stroke-width="2.817157012063362" x1="285" x2="238" y1="21" y2="694" /><line stroke="rgb(116, 153, 164)" stroke-width="2.936244584813789" x1="310" x2="67" y1="338" y2="460" /><polygon fill="none" points="78,423 609,109 221,230" stroke="rgb(144, 32, 212)" stroke-width="2.134753567462188" /><polygon fill="none" points="624,166 273,138 229,447" stroke="rgb(190, 58, 193)" stroke-width="2.3308675310233244" /><polygon fill="none" points="600,641 154,574 397,191 172,656 64,44 469,578 207,107" stroke="rgb(123, 76, 182)" stroke-width="3.0222887111385393" /><circle cx="548" cy="350" fill="none" opacity="0.5859572159327187" r="124" stroke="rgb(103, 238, 141)" stroke-width="3.1785442340941246" /><line stroke="rgb(30, 21, 70)" stroke-width="1.8903947798884517" x1="101" x2="314" y1="503" y2="180" /><line stroke="rgb(236, 125, 99)" stroke-width="0.713538145294429" x1="193" x2="539" y1="173" y2="121" /><line stroke="rgb(202, 46, 25)" stroke-width="1.9095921997011853" x1="498" x2="213" y1="499" y2="127" /><circle cx="588" cy="171" fill="none" opacity="0.9715047629750384" r="110" stroke="rgb(223, 125, 44)" stroke-width="3.019052807059494" /><circle cx="520" cy="573" fill="none" opacity="0.8674446384835921" r="11" stroke="rgb(124, 107, 237)" stroke-width="1.6896049919958758" /><circle cx="185" cy="587" fill="none" opacity="0.3865011899900299" r="130" stroke="rgb(44, 194, 233)" stroke-width="0.7878379347910903" /><rect fill="none" height="94" stroke="rgb(176, 198, 219)" stroke-width="4.947632176816459" transform="rotate(10 554 14)" width="159" x="397" y="256" /><line stroke="rgb(3, 129, 166)" stroke-width="0.7256440666365755" x1="105" x2="413" y1="439" y2="504" /><line stroke="rgb(75, 16, 123)" stroke-width="1.881672227449294" x1="63" x2="276" y1="375" y2="729" /><line stroke="rgb(56, 211, 125)" stroke-width="2.390868024855112" x1="351" x2="433" y1="476" y2="336" /><line stroke="rgb(129, 239, 24)" stroke-width="2.671770572271431" x1="228" x2="112" y1="171" y2="641" /><line stroke="rgb(89, 247, 44)" stroke-width="1.1187354238799232" x1="78" x2="305" y1="560" y2="656" /><line stroke="rgb(119, 2, 2)" stroke-width="0.6349711237099899" x1="476" x2="499" y1="380" y2="579" /><line stroke="rgb(161, 230, 167)" stroke-width="0.9768502957752352" x1="553" x2="86" y1="673" y2="691" /><line stroke="rgb(122, 75, 141)" stroke-width="1.191821889124781" x1="192" x2="291" y1="672" y2="418" /><line stroke="rgb(218, 141, 109)" stroke-width="2.7277547777621294" x1="128" x2="263" y1="38" y2="232" /><line stroke="rgb(114, 145, 23)" stroke-width="1.866168230792736" x1="624" x2="624" y1="366" y2="665" /><circle cx="427" cy="436" fill="none" opacity="0.7927425396434133" r="88" stroke="rgb(255, 225, 49)" stroke-width="3.5739764535140006" /><rect fill="none" height="138" stroke="rgb(190, 238, 111)" stroke-width="0.5251834362646994" transform="rotate(311 35 698)" width="173" x="37" y="123" /><circle cx="81" cy="363" fill="none" opacity="0.7944566027653301" r="67" stroke="rgb(161, 227, 26)" stroke-width="2.1540481159071905" /><path d="M529,100 Q483,324 593,532 C65,536 473,703 351,704 Q140,668 292,302 C41,251 383,112 77,88" fill="none" stroke="rgb(144, 74, 151)" stroke-width="1.7261112688061158" /><line stroke="rgb(62, 173, 120)" stroke-width="1.5120643302589716" x1="585" x2="76" y1="77" y2="647" /><line stroke="rgb(79, 227, 97)" stroke-width="2.5710470677654724" x1="367" x2="233" y1="307" y2="86" /><line stroke="rgb(190, 92, 236)" stroke-width="2.305540439935567" x1="513" x2="264" y1="697" y2="128" /><line stroke="rgb(185, 71, 126)" stroke-width="2.503179117764686" x1="367" x2="230" y1="641" y2="574" /><line stroke="rgb(247, 6, 84)" stroke-width="0.5551327935588122" x1="470" x2="260" y1="567" y2="537" /><line stroke="rgb(70, 57, 222)" stroke-width="0.8665851682781429" x1="38" x2="224" y1="298" y2="462" /><line stroke="rgb(4, 45, 111)" stroke-width="2.9602059920611636" x1="525" x2="11" y1="388" y2="86" /><line stroke="rgb(126, 241, 16)" stroke-width="1.1241977844609692" x1="126" x2="435" y1="261" y2="222" /><line stroke="rgb(242, 43, 250)" stroke-width="2.338714277777176" x1="615" x2="433" y1="415" y2="19" /><line stroke="rgb(141, 128, 129)" stroke-width="1.3056295334253971" x1="495" x2="608" y1="221" y2="699" /><line stroke="rgb(38, 25, 134)" stroke-width="0.6023285298326765" x1="634" x2="256" y1="493" y2="213" /><line stroke="rgb(65, 239, 172)" stroke-width="1.746347280854529" x1="18" x2="394" y1="121" y2="343" /><line stroke="rgb(205, 241, 221)" stroke-width="1.8618891724763786" x1="348" x2="384" y1="85" y2="227" /><line stroke="rgb(185, 200, 47)" stroke-width="2.768604290296274" x1="21" x2="477" y1="75" y2="430" /><line stroke="rgb(127, 26, 232)" stroke-width="2.8792757453349167" x1="62" x2="238" y1="261" y2="639" /><line stroke="rgb(52, 195, 211)" stroke-width="0.9459451357477926" x1="484" x2="85" y1="552" y2="620" /><line stroke="rgb(219, 185, 210)" stroke-width="2.178021340782982" x1="376" x2="64" y1="314" y2="63" /><polygon fill="none" points="344,579 336,287 426,271 466,46" stroke="rgb(130, 128, 71)" stroke-width="2.4766894832297206" /><rect fill="none" height="104" stroke="rgb(61, 159, 94)" stroke-width="1.6081158631199837" transform="rotate(346 206 466)" width="126" x="498" y="322" /></svg>