<svg baseProfile="full" height="660px" version="1.1" width="946px" xmlns="http://www.w3.org/2000/svg" xmlns:ev="http://www.w3.org/2001/xml-events" xmlns:xlink="http://www.w3.org/1999/xlink"><defs /><rect fill="rgb(251, 230, 219)" height="660px" width="946px" x="0" y="0" /><rect fill="none" height="122" stroke="rgb(172, 57, 203)" stroke-width="1.4372994641253063" transform="rotate(307 68 227)" width="164" x="194" y="307" /><polygon fill="none" points="235,93 730,558 865,251 531,347 364,297" stroke="rgb(95, 175, 20)" stroke-width="3.8916552977262135" /><rect fill="none" height="66" stroke="rgb(150, 245, 145)" stroke-width="1.687469422511063" transform="rotate(143 446 240)" width="86" x="421" y="221" /><path d="M228,350 Q516,234 409,73 C766,85 87,507 420,596 Q132,363 715,141 Q247,656 143,383" fill="none" stroke="rgb(217, 125, 220)" stroke-width="2.2613220259639197" /><polygon fill="none" points="475,338 574,341 508,233 859,250" stroke="rgb(71, 235, 94)" stroke-width="0.7793813113565904" /><path d="M882,626 Q598,131 420,333 Q507,483 858,348 C420,164 153,271 787,24 C763,144 284,475 715,628 C610,311 658,240 530,113" fill="none" stroke="rgb(189, 147, 254)" stroke-width="2.7477874719678264" /><line stroke="rgb(101, 107, 114)" stroke-width="1.0208596551337425" x1="168" x2="643" y1="314" y2="122" /><line stroke="rgb(229, 79, 1)" stroke-width="2.9896417696602495" x1="810" x2="27" y1="513" y2="346" /><line stroke="rgb(24, 56, 50)" stroke-width="1.8476444777858108" x1="774" x2="643" y1="355" y2="311" /><line stroke="rgb(76, 242, 207)" stroke-width="1.8877098832115724" x1="446" x2="205" y1="415" y2="582" /><line stroke="rgb(207, 93, 56)" stroke-width="2.704477419267931" x1="197" x2="362" y1="121" y2="113" /><line stroke="rgb(194, 63, 104)" stroke-width="1.9168765654918554" x1="117" x2="473" y1="306" y2="177" /><line stroke="rgb(201, 82, 57)" stroke-width="0.5863395946267453" x1="272" x2="618" y1="554" y2="427" /><line stroke="rgb(17, 199, 174)" stroke-width="1.2960116694881139" x1="224" x2="353" y1="206" y2="654" /><line stroke="rgb(62, 92, 116)" stroke-width="0.7897177913708732" x1="375" x2="786" y1="512" y2="538" /><line stroke="rgb(255, 77, 183)" stroke-width="2.0681080225906285" x1="689" x2="295" y1="410" y2="136" /><line stroke="rgb(253, 25, 36)" stroke-width="0.5432189598629986" x1="730" x2="470" y1="646" y2="552" /><polygon fill="none" points="819,256 817,659 399,88 822,134 671,519" stroke="rgb(208, 232, 131)" stroke-width="2.888577946610887" /><circle cx="219" cy="263" fill="none" opacity="0.40221215514258024" r="51" stroke="rgb(230, 106, 5)" stroke-width="1.4649644643284296" /><path d="M473,282 L226,435 L626,195 C239,528 298,640 871,367 L782,108 C295,375 333,439 30,310 L912,11 Q415,80 235,29" fill="none" stroke="rgb(86, 3, 212)" stroke-width="2.0125597368596266" /><rect fill="none" height="30" stroke="rgb(12, 63, 37)" stroke-width="3.516203410039235" transform="rotate(77 6 281)" width="116" x="791" y="393" /><circle cx="50" cy="201" fill="none" opacity="0.9662286764852641" r="79" stroke="rgb(111, 183, 187)" stroke-width="2.569989110518416" /><line stroke="rgb(218, 228, 173)" stroke-width="2.9851524546232158" x1="622" x2="376" y1="367" y2="327" /><line stroke="rgb(16, 104, 50)" stroke-width="2.050796312150926" x1="69" x2="794" y1="607" y2="613" /><line stroke="rgb(158, 9, 105)" stroke-width="2.0586524369670633" x1="196" x2="877" y1="321" y2="94" /><line stroke="rgb(45, 41, 30)" stroke-width="1.395197837561552" x1="352" x2="112" y1="472" y2="621" /><line stroke="rgb(97, 38, 217)" stroke-width="2.0337659493528015" x1="34" x2="182" y1="172" y2="215" /><line stroke="rgb(170, 77, 171)" stroke-width="1.3133967058094544" x1="931" x2="293" y1="468" y2="503" /><line stroke="rgb(140, 226, 28)" stroke-width="2.7397712661439737" x1="372" x2="793" y1="254" y2="56" /><line stroke="rgb(102, 147, 188)" stroke-width="2.801910348801719" x1="873" x2="244" y1="616" y2="217" /><circle cx="201" cy="180" fill="none" opacity="0.41223521515942096" r="123" stroke="rgb(253, 95, 77)" stroke-width="2.125726286827036" /><line stroke="rgb(177, 168, 239)" stroke-width="1.5373471703174288" x1="150" x2="650" y1="533" y2="383" /><line stroke="rgb(249, 70, 216)" stroke-width="1.8652737584390748" x1="127" x2="17" y1="614" y2="536" /><line stroke="rgb(69, 116, 25)" stroke-width="2.7581857428048053" x1="898" x2="204" y1="304" y2="405" /><line stroke="rgb(62, 170, 163)" stroke-width="0.8899497480492237" x1="31" x2="807" y1="41" y2="42" /><line stroke="rgb(0, 107, 169)" stroke-width="2.2658894809219303" x1="191" x2="223" y1="350" y2="395" /><line stroke="rgb(19, 78, 175)" stroke-width="2.5394349412117467" x1="661" x2="328" y1="81" y2="223" /><line stroke="rgb(81, 126, 255)" stroke-width="2.578671367832433" x1="371" x2="494" y1="23" y2="30" /><line stroke="rgb(36, 238, 92)" stroke-width="2.3182032133952353" x1="310" x2="327" y1="443" y2="243" /><line stroke="rgb(28, 105, 41)" stroke-width="1.1098083316388845" x1="757" x2="593" y1="507" y2="210" /><circle cx="759" cy="164" fill="none" opacity="0.7735799125008558" r="39" stroke="rgb(211, 245, 116)" stroke-width="4.756847956669141" /><line stroke="rgb(167, 175, 60)" stroke-width="2.6978664867645747" x1="796" x2="274" y1="213" y2="355" /><line stroke="rgb(11, 213, 20)" stroke-width="0.7274868695228791" x1="617" x2="285" y1="37" y2="372" /><line stroke="rgb(226, 68, 71)" stroke-width="1.9496224780503717" x1="339" x2="589" y1="254" y2="379" /><line stroke="rgb(70, 158, 154)" stroke-width="0.8872206746909144" x1="554" x2="802" y1="579" y2="471" /><line stroke="rgb(156, 164, 14)" stroke-width="0.7380683203221143" x1="264" x2="755" y1="9" y2="67" /><line stroke="rgb(122, 231, 118)" stroke-width="0.6631359916410755" x1="802" x2="548" y1="208" y2="31" /><line stroke="rgb(190, 181, 202)" stroke-width="2.4183889638134346" x1="738" x2="407" y1="600" y2="20" /><line stroke="rgb(14, 151, 235)" stroke-width="0.8293918689049238" x1="710" x2="54" y1="522" y2="636" /><line stroke="rgb(90, 121, 153)" stroke-width="1.6567374924056237" x1="377" x2="431" y1="380" y2="59" /><line stroke="rgb(204, 242, 16)" stroke-width="0.8137922335353724" x1="906" x2="632" y1="94" y2="255" /><line stroke="rgb(16, 195, 151)" stroke-width="0.5269593119203451" x1="396" x2="302" y1="393" y2="208" /><line stroke="rgb(76, 176, 116)" stroke-width="1.8308866223352867" x1="42" x2="560" y1="82" y2="612" /><line stroke="rgb(136, 120, 63)" stroke-width="1.8832703380083768" x1="898" x2="27" y1="455" y2="649" /><line stroke="rgb(188, 88, 160)" stroke-width="1.4508316537894874" x1="127" x2="678" y1="246" y2="16" /><line stroke="rgb(122, 219, 19)" stroke-width="1.7545718750871957" x1="809" x2="212" y1="605" y2="445" /><line stroke="rgb(85, 126, 41)" stroke-width="0.8177871853360348" x1="449" x2="36" y1="41" y2="471" /><circle cx="104" cy="313" fill="none" opacity="0.44109230220116735" r="62" stroke="rgb(164, 155, 80)" stroke-width="2.3273273345249414" /><line stroke="rgb(92, 0, 173)" stroke-width="0.5721384457884644" x1="404" x2="410" y1="558" y2="469" /><line stroke="rgb(253, 112, 228)" stroke-width="1.1979543923465652" x1="607" x2="921" y1="46" y2="301" /><line stroke="rgb(33, 136, 135)" stroke-width="2.7995017760911" x1="548" x2="686" y1="151" y2="270" /><line stroke="rgb(81, 122, 149)" stroke-width="2.5368146578555506" x1="131" x2="570" y1="302" y2="16" /><line stroke="rgb(78, 254, 222)" stroke-width="1.996549631393894" x1="435" x2="245" y1="374" y2="299" /><line stroke="rgb(6, 121, 63)" stroke-width="0.6873841460392539" x1="790" x2="267" y1="68" y2="488" /><polygon fill="none" points="222,155 177,135 195,145 78,500" stroke="rgb(224, 217, 209)" stroke-width="1.4606498473498732" /><line stroke="rgb(189, 235, 84)" stroke-width="1.225373267171552" x1="139" x2="926" y1="432" y2="457" /><line stroke="rgb(112, 105, 20)" stroke-width="1.107202781722754" x1="673" x2="881" y1="430" y2="660" /><line stroke="rgb(16, 142, 145)" stroke-width="0.7517238980907682" x1="795" x2="314" y1="495" y2="172" /><line stroke="rgb(213, 35, 104)" stroke-width="2.455847072132418" x1="287" x2="511" y1="187" y2="468" /><line stroke="rgb(228, 117, 75)" stroke-width="0.8102062427058103" x1="187" x2="548" y1="589" y2="69" /><line stroke="rgb(191, 238, 71)" stroke-width="1.2561613800864593" x1="228" x2="318" y1="230" y2="345" /><line stroke="rgb(171, 19, 51)" stroke-width="1.8446188380183894" x1="554" x2="699" y1="517" y2="398" /><line stroke="rgb(254, 42, 178)" stroke-width="1.073239650676591" x1="867" x2="670" y1="169" y2="180" /><line stroke="rgb(145, 154, 111)" stroke-width="1.9774736045872274" x1="738" x2="619" y1="278" y2="428" /><line stroke="rgb(138, 145, 222)" stroke-width="1.4757633601909954" x1="658" x2="793" y1="184" y2="419" /><path d="M846,507 L562,521 C890,629 613,26 530,618 Q657,102 440,392 L432,420" fill="none" stroke="rgb(236, 191, 102)" stroke-width="2.100705161981248" /><circle cx="815" cy="72" fill="none" opacity="0.9237332288223856" r="93" stroke="rgb(193, 36, 107)" stroke-width="4.721672843324969" /><polygon fill="none" points="11,58 475,403 206,52 779,630" stroke="rgb(16, 253, 199)" stroke-width="1.87388441029333" /><line stroke="rgb(24, 70, 2)" stroke-width="1.5382214090369948" x1="672" x2="207" y1="94" y2="437" /><line stroke="rgb(128, 213, 78)" stroke-width="2.0535170373069063" x1="481" x2="279" y1="174" y2="297" /><line stroke="rgb(110, 77, 105)" stroke-width="1.5087125574738784" x1="678" x2="27" y1="313" y2="386" /><line stroke="rgb(172, 187, 247)" stroke-width="0.5021664494198625" x1="847" x2="540" y1="101" y2="313" /><line stroke="rgb(226, 115, 200)" stroke-width="1.8832512276658488" x1="353" x2="521" y1="368" y2="68" /><line stroke="rgb(81, 222, 30)" stroke-width="2.975014353192281" x1="681" x2="219" y1="115" y2="490" /><line stroke="rgb(194, 171, 37)" stroke-width="2.0283967189185814" x1="182" x2="888" y1="491" y2="220" /><line stroke="rgb(238, 194, 35)" stroke-width="1.55339134629739" x1="725" x2="559" y1="606" y2="319" /><circle cx="853" cy="284" fill="none" opacity="0.4164984956202842" r="20" stroke="rgb(133, 55, 34)" stroke-width="2.8807349576139103" /><path d="M76,411 C7,502 22,31 781,513 Q406,427 440,536 C302,212 858,377 647,353 C894,278 458,335 455,551 L333,544 C884,150 161,390 868,614" fill="none" stroke="rgb(179, 139, 197)" stroke-width="1.7287161323329185" /><rect fill="none" height="56" stroke="rgb(139, 48, 37)" stroke-width="4.728277919747378" transform="rotate(61 480 206)" width="140" x="105" y="352" /><polygon fill="none" points="213,329 725,12 196,83 797,542 61,603 557,426 298,630" stroke="rgb(0, 44, 28)" stroke-width="1.5663561323583517" /><rect fill="none" height="186" stroke="rgb(115, 88, 151)" stroke-width="4.23030027462133" transform="rotate(286 811 231)" width="86" x="30" y="204" /><line stroke="rgb(22, 139, 197)" stroke-width="2.9015713678507975" x1="637" x2="14" y1="521" y2="170" /><line stroke="rgb(176, 148, 114)" stroke-width="1.8803325596456273" x1="831" x2="189" y1="204" y2="407" /><line stroke="rgb(167, 77, 14)" stroke-width="1.7911086057873553" x1="783" x2="308" y1="482" y2="172" /><line stroke="rgb(56, 63, 236)" stroke-width="1.1906021844571886" x1="83" x2="59" y1="164" y2="344" /><line stroke="rgb(195, 162, 216)" stroke-width="1.2822374868910318" x1="249" x2="537" y1="178" y2="384" /><line stroke="rgb(255, 192, 97)" stroke-width="2.1658042192582743" x1="109" x2="294" y1="217" y2="569" /><line stroke="rgb(81, 71, 55)" stroke-width="1.5309069676342109" x1="125" x2="320" y1="322" y2="42" /><path d="M207,362 Q768,534 653,523 C18,543 304,273 9,188 Q497,129 695,486 C388,111 123,560 603,617" fill="none" stroke="rgb(228, 215, 18)" stroke-width="1.2169298123258723" /><rect fill="none" height="117" stroke="rgb(97, 9, 24)" stroke-width="1.1647078358651453" transform="rotate(300 880 454)" width="58" x="298" y="254" /><path d="M253,575 C769,18 551,66 331,633 Q738,55 244,587 C370,649 521,204 274,572 Q332,185 231,258 C803,184 782,458 914,414 L618,442" fill="none" stroke="rgb(55, 223, 159)" stroke-width="2.999686106583799" /><circle cx="806" cy="311" fill="none" opacity="0.9331761782712371" r="31" stroke="rgb(229, 230, 70)" stroke-width="4.249444069761538" /><polygon fill="none" points="676,91 413,167 194,535" stroke="rgb(87, 145, 249)" stroke-width="3.835173706004957" /><path d="M712,394 Q939,620 508,525 Q928,299 170,224 L2,536 L216,179 C410,214 832,415 222,658 C591,632 658,544 671,388" fill="none" stroke="rgb(161, 56, 198)" stroke-width="2.1053660416296314" /><polygon fill="none" points="19,67 891,236 295,28" stroke="rgb(177, 5, 220)" stroke-width="0.5996685158657028" /><line stroke="rgb(130, 100, 218)" stroke-width="1.86007922069125" x1="483" x2="379" y1="312" y2="632" /><line stroke="rgb(208, 62, 22)" stroke-width="1.7817402413191405" x1="233" x2="802" y1="329" y2="73" /><line stroke="rgb(165, 113, 136)" stroke-width="0.6851655419654628" x1="642" x2="23" y1="612" y2="165" /><line stroke="rgb(208, 30, 167)" stroke-width="1.0424038624022316" x1="508" x2="137" y1="492" y2="587" /><line stroke="rgb(179, 69, 150)" stroke-width="0.5248127074764957" x1="260" x2="579" y1="426" y2="494" /><line stroke="rgb(207, 133, 84)" stroke-width="0.5133759099748829" x1="887" x2="88" y1="114" y2="129" /><line stroke="rgb(77, 243, 203)" stroke-width="0.8891352020782666" x1="767" x2="902" y1="651" y2="152" /><polygon fill="none" points="108,231 806,487 341,55 934,190 793,75 929,2" stroke="rgb(153, 38, 87)" stroke-width="1.1505000321595493" /></svg>