<svg baseProfile="full" height="406px" version="1.1" width="671px" xmlns="http://www.w3.org/2000/svg" xmlns:ev="http://www.w3.org/2001/xml-events" xmlns:xlink="http://www.w3.org/1999/xlink"><defs /><rect fill="rgb(220, 220, 234)" height="406px" width="671px" x="0" y="0" /><line stroke="rgb(73, 41, 239)" stroke-width="2.768544859332762" x1="480" x2="461" y1="334" y2="127" /><line stroke="rgb(133, 211, 205)" stroke-width="1.7001162578542037" x1="72" x2="173" y1="230" y2="280" /><line stroke="rgb(3, 89, 252)" stroke-width="1.3484391777260125" x1="577" x2="370" y1="273" y2="206" /><line stroke="rgb(53, 126, 53)" stroke-width="2.8230006486711803" x1="480" x2="380" y1="389" y2="155" /><rect fill="none" height="139" stroke="rgb(224, 2, 133)" stroke-width="4.6364776111298225" transform="rotate(0 662 88)" width="52" x="394" y="60" /><path d="M381,192 L352,316 Q300,309 633,192 C62,112 125,400 582,358" fill="none" stroke="rgb(12, 185, 100)" stroke-width="2.1949187336789517" /><rect fill="none" height="156" stroke="rgb(24, 198, 182)" stroke-width="0.6168926284518705" transform="rotate(84 208 76)" width="66" x="341" y="227" /><rect fill="none" height="113" stroke="rgb(38, 116, 27)" stroke-width="1.2028666638332624" transform="rotate(84 87 210)" width="130" x="163" y="240" /><rect fill="none" height="66" stroke="rgb(123, 10, 57)" stroke-width="4.25742879976437" transform="rotate(314 250 262)" width="84" x="374" y="131" /><circle cx="497" cy="62" fill="none" opacity="0.9293709577292073" r="92" stroke="rgb(50, 171, 72)" stroke-width="1.6176414717790224" /><rect fill="none" height="169" stroke="rgb(138, 137, 187)" stroke-width="1.1762073605889138" transform="rotate(79 540 31)" width="77" x="103" y="217" /><line stroke="rgb(123, 233, 142)" stroke-width="1.7618542915209625" x1="520" x2="131" y1="35" y2="141" /><line stroke="rgb(27, 185, 141)" stroke-width="2.3132556156484947" x1="424" x2="519" y1="87" y2="122" /><line stroke="rgb(120, 252, 54)" stroke-width="2.3375298193196605" x1="90" x2="54" y1="21" y2="402" /><line stroke="rgb(60, 87, 50)" stroke-width="2.4947196816340442" x1="260" x2="532" y1="232" y2="151" /><line stroke="rgb(133, 184, 252)" stroke-width="1.1343352376732176" x1="198" x2="524" y1="76" y2="249" /><line stroke="rgb(176, 161, 140)" stroke-width="1.9528712867688682" x1="641" x2="338" y1="24" y2="375" /><line stroke="rgb(10, 214, 90)" stroke-width="1.8588417682772114" x1="377" x2="301" y1="236" y2="406" /><line stroke="rgb(48, 109, 79)" stroke-width="1.0841741005987742" x1="332" x2="261" y1="380" y2="326" /><line stroke="rgb(51, 57, 8)" stroke-width="2.2877724145646354" x1="101" x2="42" y1="396" y2="263" /><line stroke="rgb(53, 249, 230)" stroke-width="1.4269757440578497" x1="276" x2="432" y1="237" y2="287" /><line stroke="rgb(22, 207, 128)" stroke-width="2.5324064617298796" x1="460" x2="52" y1="270" y2="34" /><line stroke="rgb(175, 249, 228)" stroke-width="1.425931519560064" x1="4" x2="376" y1="113" y2="137" /><line stroke="rgb(50, 165, 227)" stroke-width="0.6862623198647795" x1="63" x2="115" y1="51" y2="386" /><line stroke="rgb(54, 93, 17)" stroke-width="1.633507956908765" x1="332" x2="604" y1="98" y2="159" /><line stroke="rgb(98, 53, 57)" stroke-width="1.6273071445201286" x1="192" x2="569" y1="78" y2="207" /><line stroke="rgb(155, 136, 36)" stroke-width="0.7237815366142195" x1="199" x2="322" y1="272" y2="274" /><line stroke="rgb(173, 94, 9)" stroke-width="1.6476677710597039" x1="72" x2="14" y1="290" y2="55" /><rect fill="none" height="148" stroke="rgb(81, 27, 207)" stroke-width="3.2530342179554634" transform="rotate(171 332 171)" width="21" x="181" y="137" /><rect fill="none" height="160" stroke="rgb(63, 113, 83)" stroke-width="2.9978047924363587" transform="rotate(299 530 9)" width="78" x="327" y="296" /><path d="M560,216 L87,123 Q211,144 299,301 C192,299 263,369 312,119 Q468,3 30,263" fill="none" stroke="rgb(170, 247, 6)" stroke-width="0.9914785480693362" /><path d="M305,54 C6,151 360,282 18,344 L369,313 Q90,361 127,75" fill="none" stroke="rgb(56, 64, 70)" stroke-width="1.185905073323991" /><rect fill="none" height="126" stroke="rgb(11, 71, 241)" stroke-width="0.6926008739099396" transform="rotate(156 610 75)" width="51" x="343" y="61" /><path d="M169,377 C255,370 281,404 420,305 Q460,404 117,49 L396,262" fill="none" stroke="rgb(11, 79, 124)" stroke-width="1.3532864808064722" /><rect fill="none" height="55" stroke="rgb(209, 74, 131)" stroke-width="3.041427775306447" transform="rotate(76 643 276)" width="29" x="14" y="49" /><path d="M497,116 L476,134 Q61,97 45,36 C569,107 134,219 234,134 C241,244 118,123 73,279 C188,349 562,11 333,50" fill="none" stroke="rgb(70, 59, 232)" stroke-width="0.8999213021617973" /><polygon fill="none" points="240,373 667,118 662,304" stroke="rgb(245, 219, 39)" stroke-width="2.7346264679262835" /><line stroke="rgb(78, 45, 223)" stroke-width="0.5973228874885403" x1="409" x2="505" y1="350" y2="230" /><line stroke="rgb(168, 26, 21)" stroke-width="1.2171076183145724" x1="222" x2="166" y1="288" y2="183" /><line stroke="rgb(2, 125, 136)" stroke-width="1.5928686486845782" x1="72" x2="356" y1="374" y2="212" /><line stroke="rgb(63, 156, 10)" stroke-width="1.9784204785202426" x1="617" x2="597" y1="314" y2="123" /><line stroke="rgb(32, 53, 128)" stroke-width="2.1928674910524806" x1="634" x2="509" y1="385" y2="89" /><line stroke="rgb(229, 54, 177)" stroke-width="0.7354324437386768" x1="11" x2="182" y1="230" y2="166" /><line stroke="rgb(216, 210, 73)" stroke-width="2.972783464233108" x1="625" x2="329" y1="224" y2="160" /><rect fill="none" height="140" stroke="rgb(66, 183, 144)" stroke-width="4.510062265273382" transform="rotate(125 93 171)" width="132" x="232" y="45" /><circle cx="357" cy="280" fill="none" opacity="0.8811918818480515" r="56" stroke="rgb(163, 233, 75)" stroke-width="1.8537495161555249" /><polygon fill="none" points="561,252 332,147 515,167 45,165 101,332 637,405 160,400" stroke="rgb(198, 74, 224)" stroke-width="3.2229871665406318" /><path d="M639,93 C81,397 318,242 287,163 C36,158 303,12 57,231 C374,150 471,379 606,307 L139,71 C303,157 581,320 138,252 C353,36 44,225 390,120" fill="none" stroke="rgb(214, 205, 99)" stroke-width="2.545397454949283" /><circle cx="335" cy="333" fill="none" opacity="0.6423386600428518" r="92" stroke="rgb(197, 222, 135)" stroke-width="4.697504697881244" /><circle cx="466" cy="62" fill="none" opacity="0.7962274279726587" r="16" stroke="rgb(94, 198, 12)" stroke-width="3.6778718811133326" /><line stroke="rgb(182, 205, 210)" stroke-width="1.7045358708498433" x1="360" x2="667" y1="333" y2="145" /><line stroke="rgb(62, 250, 210)" stroke-width="2.7175922282848872" x1="205" x2="418" y1="60" y2="79" /><line stroke="rgb(184, 112, 31)" stroke-width="1.44079494768444" x1="257" x2="474" y1="348" y2="69" /><line stroke="rgb(211, 245, 11)" stroke-width="0.9012280340133279" x1="534" x2="83" y1="108" y2="331" /><line stroke="rgb(19, 44, 147)" stroke-width="1.3719869392001476" x1="275" x2="123" y1="218" y2="41" /><line stroke="rgb(134, 117, 175)" stroke-width="1.5779755834484064" x1="508" x2="61" y1="240" y2="333" /><line stroke="rgb(246, 122, 62)" stroke-width="2.666956832378442" x1="150" x2="156" y1="186" y2="128" /><path d="M222,204 C532,340 261,197 633,388 Q358,309 1,76 Q535,148 579,378 C198,84 88,331 593,45 Q171,205 338,362 L74,166 C27,349 122,253 487,262" fill="none" stroke="rgb(253, 12, 153)" stroke-width="1.1334567646964662" /><line stroke="rgb(42, 72, 29)" stroke-width="2.0275523098957637" x1="524" x2="317" y1="49" y2="159" /><line stroke="rgb(31, 175, 9)" stroke-width="1.26158505395323" x1="436" x2="447" y1="209" y2="254" /><line stroke="rgb(45, 115, 217)" stroke-width="0.6049049227399015" x1="304" x2="440" y1="280" y2="257" /><line stroke="rgb(142, 29, 10)" stroke-width="1.0872755081864656" x1="131" x2="267" y1="229" y2="238" /><line stroke="rgb(18, 7, 235)" stroke-width="0.7757531079992779" x1="638" x2="201" y1="222" y2="373" /><line stroke="rgb(162, 122, 96)" stroke-width="1.33117941574951" x1="199" x2="377" y1="252" y2="269" /><line stroke="rgb(77, 83, 237)" stroke-width="0.8839580820584249" x1="53" x2="212" y1="362" y2="303" /><rect fill="none" height="169" stroke="rgb(3, 42, 51)" stroke-width="3.411296743904118" transform="rotate(345 119 382)" width="105" x="372" y="67" /><circle cx="258" cy="157" fill="none" opacity="0.5694196711969275" r="10" stroke="rgb(15, 203, 19)" stroke-width="0.5984070194853451" /><rect fill="none" height="66" stroke="rgb(154, 156, 3)" stroke-width="1.5716019115633395" transform="rotate(159 648 234)" width="124" x="496" y="234" /><rect fill="none" height="37" stroke="rgb(65, 182, 25)" stroke-width="2.9388412412134644" transform="rotate(278 392 43)" width="39" x="270" y="285" /><path d="M611,317 L516,325 Q169,85 431,106 C347,67 461,76 252,156 L617,84 L651,330" fill="none" stroke="rgb(81, 130, 120)" stroke-width="2.7171686361727954" /><rect fill="none" height="22" stroke="rgb(177, 128, 153)" stroke-width="2.965833605341852" transform="rotate(317 468 345)" width="124" x="450" y="176" /><line stroke="rgb(222, 251, 110)" stroke-width="2.2813410370719662" x1="118" x2="508" y1="3" y2="337" /><line stroke="rgb(71, 154, 108)" stroke-width="2.255128184479736" x1="190" x2="643" y1="176" y2="362" /><line stroke="rgb(13, 255, 7)" stroke-width="0.894999499726717" x1="95" x2="129" y1="27" y2="355" /><line stroke="rgb(2, 30, 199)" stroke-width="0.6135065973571758" x1="214" x2="449" y1="204" y2="148" /><line stroke="rgb(149, 242, 222)" stroke-width="0.8546205926873589" x1="136" x2="140" y1="368" y2="55" /><rect fill="none" height="199" stroke="rgb(66, 113, 85)" stroke-width="3.6406550245931784" transform="rotate(50 119 28)" width="197" x="97" y="101" /><rect fill="none" height="69" stroke="rgb(2, 67, 54)" stroke-width="1.9269099140492418" transform="rotate(43 451 392)" width="60" x="0" y="239" /><path d="M260,136 C239,152 436,35 215,24 L228,3 L432,72 C261,0 368,60 291,144 C433,136 309,48 433,226 Q39,35 48,365" fill="none" stroke="rgb(205, 29, 215)" stroke-width="2.0991769930975828" /><path d="M21,59 L585,364 C221,386 497,247 211,181 L373,294 L97,23 Q24,165 488,357" fill="none" stroke="rgb(193, 96, 159)" stroke-width="1.6783710720053264" /><circle cx="171" cy="52" fill="none" opacity="0.48211112511458504" r="22" stroke="rgb(197, 86, 186)" stroke-width="2.04582660654404" /><line stroke="rgb(49, 22, 40)" stroke-width="2.259453934822865" x1="405" x2="548" y1="18" y2="99" /><line stroke="rgb(130, 163, 146)" stroke-width="0.8180020335669798" x1="0" x2="424" y1="297" y2="200" /><line stroke="rgb(42, 220, 84)" stroke-width="1.8294210168957246" x1="580" x2="405" y1="306" y2="395" /><line stroke="rgb(206, 78, 185)" stroke-width="1.1774400578801967" x1="162" x2="36" y1="281" y2="129" /><line stroke="rgb(66, 25, 244)" stroke-width="1.2672367671974656" x1="307" x2="476" y1="117" y2="284" /><line stroke="rgb(146, 27, 7)" stroke-width="2.2828808237403795" x1="464" x2="472" y1="252" y2="172" /><line stroke="rgb(215, 119, 161)" stroke-width="1.8874116478442735" x1="503" x2="405" y1="212" y2="49" /><circle cx="354" cy="219" fill="none" opacity="0.5380364200145363" r="70" stroke="rgb(163, 193, 33)" stroke-width="2.543612594548107" /><line stroke="rgb(223, 184, 52)" stroke-width="1.458812015020321" x1="115" x2="91" y1="166" y2="124" /><line stroke="rgb(89, 57, 242)" stroke-width="2.855830442985304" x1="210" x2="542" y1="29" y2="10" /><line stroke="rgb(111, 105, 216)" stroke-width="2.5793053982012903" x1="226" x2="477" y1="403" y2="63" /><line stroke="rgb(172, 103, 27)" stroke-width="1.2913380218157509" x1="183" x2="606" y1="84" y2="344" /><line stroke="rgb(88, 157, 251)" stroke-width="2.991356225169421" x1="222" x2="494" y1="307" y2="331" /><rect fill="none" height="182" stroke="rgb(18, 163, 43)" stroke-width="4.363043341619672" transform="rotate(198 389 288)" width="43" x="303" y="46" /><circle cx="605" cy="98" fill="none" opacity="0.8682721025776479" r="58" stroke="rgb(233, 130, 240)" stroke-width="3.244151092859762" /><circle cx="157" cy="205" fill="none" opacity="0.8036485632853381" r="77" stroke="rgb(64, 56, 238)" stroke-width="4.349853485536322" /><polygon fill="none" points="657,17 292,260 251,9 388,306 228,164 466,53 287,362 407,249" stroke="rgb(119, 190, 214)" stroke-width="0.6276310635280664" /><path d="M475,219 Q181,89 286,206 L302,127 C543,83 22,264 456,359" fill="none" stroke="rgb(0, 81, 131)" stroke-width="1.2482999360028606" /></svg>