<svg baseProfile="full" height="460px" version="1.1" width="673px" xmlns="http://www.w3.org/2000/svg" xmlns:ev="http://www.w3.org/2001/xml-events" xmlns:xlink="http://www.w3.org/1999/xlink"><defs /><rect fill="rgb(211, 249, 214)" height="460px" width="673px" x="0" y="0" /><circle cx="543" cy="312" fill="none" opacity="0.5615649908205265" r="18" stroke="rgb(231, 246, 197)" stroke-width="3.620348408581275" /><polygon fill="none" points="26,146 654,308 119,282 30,124 110,223" stroke="rgb(225, 23, 47)" stroke-width="3.6489650880469613" /><polygon fill="none" points="230,173 161,339 328,15 415,190 188,56 626,122" stroke="rgb(182, 227, 76)" stroke-width="3.686325879435481" /><line stroke="rgb(237, 71, 43)" stroke-width="1.9808587408494833" x1="94" x2="420" y1="356" y2="182" /><line stroke="rgb(72, 210, 207)" stroke-width="2.4635310201979426" x1="573" x2="428" y1="420" y2="398" /><line stroke="rgb(178, 147, 159)" stroke-width="1.9399669015080205" x1="96" x2="400" y1="196" y2="131" /><line stroke="rgb(216, 141, 69)" stroke-width="2.0278862725300204" x1="5" x2="70" y1="96" y2="335" /><line stroke="rgb(91, 74, 47)" stroke-width="2.0637579921870097" x1="86" x2="6" y1="32" y2="239" /><line stroke="rgb(128, 142, 142)" stroke-width="0.7813759031441219" x1="76" x2="271" y1="366" y2="186" /><line stroke="rgb(128, 38, 72)" stroke-width="1.9870291963295363" x1="335" x2="300" y1="98" y2="42" /><line stroke="rgb(198, 220, 174)" stroke-width="0.6903699948752882" x1="673" x2="395" y1="297" y2="152" /><line stroke="rgb(237, 34, 0)" stroke-width="1.633378976343088" x1="161" x2="339" y1="459" y2="303" /><line stroke="rgb(10, 202, 186)" stroke-width="0.8504438514547503" x1="401" x2="429" y1="195" y2="279" /><line stroke="rgb(78, 240, 240)" stroke-width="1.0600690126463916" x1="156" x2="104" y1="359" y2="191" /><line stroke="rgb(141, 51, 146)" stroke-width="2.0055193123090747" x1="610" x2="490" y1="275" y2="80" /><line stroke="rgb(3, 113, 29)" stroke-width="2.3033916728703963" x1="648" x2="492" y1="425" y2="202" /><rect fill="none" height="174" stroke="rgb(218, 165, 182)" stroke-width="0.5364327718718505" transform="rotate(207 416 21)" width="78" x="545" y="276" /><circle cx="342" cy="321" fill="none" opacity="0.903302587641932" r="68" stroke="rgb(223, 150, 145)" stroke-width="4.024055172623204" /><polygon fill="none" points="362,344 636,104 436,456" stroke="rgb(109, 208, 134)" stroke-width="1.4917132665405117" /><path d="M576,58 C298,260 215,185 557,406 Q244,392 411,76 C664,155 113,414 418,309 Q100,383 530,166 L213,329 Q365,184 661,257" fill="none" stroke="rgb(101, 186, 123)" stroke-width="1.6179562500437357" /><circle cx="292" cy="340" fill="none" opacity="0.4200100483825495" r="109" stroke="rgb(156, 228, 147)" stroke-width="3.799901024177484" /><line stroke="rgb(73, 50, 157)" stroke-width="2.1150858142732947" x1="87" x2="144" y1="420" y2="345" /><line stroke="rgb(83, 253, 178)" stroke-width="1.7633070773930473" x1="178" x2="517" y1="313" y2="302" /><line stroke="rgb(231, 171, 71)" stroke-width="0.7806864162617775" x1="263" x2="257" y1="403" y2="264" /><line stroke="rgb(146, 139, 46)" stroke-width="2.2598081604849956" x1="458" x2="602" y1="180" y2="436" /><line stroke="rgb(87, 210, 127)" stroke-width="1.12344912956128" x1="612" x2="228" y1="261" y2="407" /><line stroke="rgb(148, 235, 221)" stroke-width="1.778841816587906" x1="97" x2="23" y1="119" y2="289" /><rect fill="none" height="167" stroke="rgb(118, 89, 44)" stroke-width="4.255030518159966" transform="rotate(117 670 100)" width="26" x="90" y="268" /><rect fill="none" height="117" stroke="rgb(49, 58, 254)" stroke-width="2.1008751581562084" transform="rotate(117 384 304)" width="148" x="272" y="328" /><path d="M412,271 C454,163 242,262 285,125 L448,460 Q552,220 344,322 L354,342 L593,94 C12,252 336,37 410,347 C504,293 626,308 330,380" fill="none" stroke="rgb(59, 29, 106)" stroke-width="1.9767708307848002" /></svg>