<svg baseProfile="full" height="751px" version="1.1" width="779px" xmlns="http://www.w3.org/2000/svg" xmlns:ev="http://www.w3.org/2001/xml-events" xmlns:xlink="http://www.w3.org/1999/xlink"><defs /><rect fill="rgb(205, 249, 224)" height="751px" width="779px" x="0" y="0" /><polygon fill="none" points="720,305 707,646 51,7 93,273 646,485 662,162 52,533 148,246" stroke="rgb(165, 237, 22)" stroke-width="2.301282904895919" /><path d="M595,176 C53,511 495,32 576,103 L136,713 L96,363" fill="none" stroke="rgb(163, 229, 77)" stroke-width="1.5161518711533364" /><polygon fill="none" points="431,306 239,133 469,380 760,616 419,529 172,151 332,142 180,151" stroke="rgb(100, 38, 32)" stroke-width="0.975021948122414" /><circle cx="446" cy="652" fill="none" opacity="0.7272479162078851" r="91" stroke="rgb(171, 111, 232)" stroke-width="1.0402522183219727" /><line stroke="rgb(227, 6, 153)" stroke-width="0.6168114400074766" x1="93" x2="75" y1="700" y2="266" /><line stroke="rgb(56, 149, 124)" stroke-width="2.8580557133799616" x1="349" x2="340" y1="282" y2="60" /><line stroke="rgb(200, 207, 73)" stroke-width="1.2739869575854126" x1="604" x2="362" y1="597" y2="98" /><line stroke="rgb(195, 247, 12)" stroke-width="0.8804699447306958" x1="66" x2="251" y1="186" y2="505" /><line stroke="rgb(238, 27, 48)" stroke-width="1.9953862768810486" x1="232" x2="543" y1="653" y2="285" /><line stroke="rgb(12, 39, 102)" stroke-width="1.346182863027229" x1="192" x2="280" y1="402" y2="380" /><line stroke="rgb(69, 72, 253)" stroke-width="2.642621024009704" x1="561" x2="467" y1="610" y2="51" /><line stroke="rgb(214, 32, 203)" stroke-width="0.7871584371408051" x1="753" x2="130" y1="351" y2="444" /><circle cx="374" cy="402" fill="none" opacity="0.7392504393562002" r="49" stroke="rgb(153, 37, 152)" stroke-width="0.9750890909649577" /><rect fill="none" height="192" stroke="rgb(239, 181, 20)" stroke-width="2.9987958065631775" transform="rotate(220 581 629)" width="112" x="464" y="556" /><path d="M730,625 C216,744 727,644 207,155 L369,373 C331,648 391,54 73,311 Q428,366 363,556" fill="none" stroke="rgb(252, 196, 80)" stroke-width="0.5884844805773" /><line stroke="rgb(63, 216, 146)" stroke-width="0.8403516299261913" x1="346" x2="94" y1="144" y2="330" /><line stroke="rgb(106, 173, 235)" stroke-width="1.1003023042761233" x1="152" x2="77" y1="708" y2="7" /><line stroke="rgb(139, 97, 87)" stroke-width="2.8122794564278717" x1="179" x2="738" y1="137" y2="648" /><line stroke="rgb(90, 155, 151)" stroke-width="2.067881005305847" x1="342" x2="228" y1="36" y2="484" /><line stroke="rgb(176, 53, 177)" stroke-width="1.0914367585395832" x1="636" x2="145" y1="224" y2="356" /><line stroke="rgb(33, 168, 107)" stroke-width="2.3149210799678315" x1="748" x2="614" y1="53" y2="365" /><line stroke="rgb(176, 28, 185)" stroke-width="2.2002140403723685" x1="509" x2="53" y1="440" y2="611" /><line stroke="rgb(127, 79, 233)" stroke-width="2.321906303041605" x1="387" x2="571" y1="250" y2="191" /><circle cx="658" cy="466" fill="none" opacity="0.4723288647968676" r="121" stroke="rgb(180, 167, 211)" stroke-width="3.895608669448006" /><line stroke="rgb(204, 114, 200)" stroke-width="1.2286741649366582" x1="709" x2="83" y1="716" y2="747" /><line stroke="rgb(164, 5, 107)" stroke-width="1.663220813315473" x1="40" x2="455" y1="282" y2="522" /><line stroke="rgb(157, 124, 217)" stroke-width="1.0480419010290458" x1="318" x2="332" y1="460" y2="676" /><line stroke="rgb(238, 197, 139)" stroke-width="2.4409841712303173" x1="367" x2="567" y1="745" y2="424" /><line stroke="rgb(134, 60, 141)" stroke-width="0.6991904064560113" x1="34" x2="401" y1="711" y2="546" /><circle cx="305" cy="119" fill="none" opacity="0.9237431175395048" r="137" stroke="rgb(143, 146, 119)" stroke-width="2.6252443666285727" /><rect fill="none" height="84" stroke="rgb(24, 46, 247)" stroke-width="3.683940131963952" transform="rotate(256 417 222)" width="145" x="420" y="220" /><path d="M155,62 Q761,192 41,558 L44,540 L414,414 C176,502 60,160 265,101 C410,569 496,705 214,98 C247,213 308,558 530,484 L636,593" fill="none" stroke="rgb(237, 202, 239)" stroke-width="2.484915845648903" /><path d="M137,531 Q460,101 463,91 Q173,551 695,603 C8,34 460,578 360,195 C645,322 592,334 386,374 L177,430" fill="none" stroke="rgb(139, 124, 152)" stroke-width="1.2800414736252321" /><polygon fill="none" points="266,366 371,617 106,188" stroke="rgb(81, 3, 172)" stroke-width="0.600305496233495" /><circle cx="481" cy="372" fill="none" opacity="0.6448161113967008" r="70" stroke="rgb(84, 254, 30)" stroke-width="0.9499166516309419" /><path d="M315,471 C32,248 687,47 589,248 Q436,257 210,80 Q530,211 525,351 Q429,678 437,138" fill="none" stroke="rgb(181, 153, 45)" stroke-width="1.1143007143653962" /><circle cx="693" cy="645" fill="none" opacity="0.983100804067127" r="115" stroke="rgb(31, 228, 50)" stroke-width="3.06409431311871" /><line stroke="rgb(244, 174, 148)" stroke-width="2.345231563874461" x1="75" x2="559" y1="567" y2="505" /><line stroke="rgb(206, 130, 69)" stroke-width="2.8815295165549237" x1="163" x2="282" y1="508" y2="433" /><line stroke="rgb(7, 55, 104)" stroke-width="2.4936303809902527" x1="134" x2="651" y1="368" y2="78" /><line stroke="rgb(176, 35, 18)" stroke-width="1.4212032646121218" x1="34" x2="340" y1="595" y2="292" /><line stroke="rgb(80, 127, 99)" stroke-width="1.8655783910419264" x1="37" x2="406" y1="648" y2="408" /><line stroke="rgb(93, 209, 90)" stroke-width="2.945850760068236" x1="74" x2="96" y1="108" y2="558" /><line stroke="rgb(158, 173, 65)" stroke-width="2.697661762421373" x1="751" x2="189" y1="734" y2="390" /><line stroke="rgb(85, 244, 145)" stroke-width="1.8726647386342141" x1="640" x2="178" y1="469" y2="715" /><polygon fill="none" points="549,131 467,185 214,406 584,510 304,702" stroke="rgb(180, 60, 0)" stroke-width="3.1115861489682204" /><rect fill="none" height="46" stroke="rgb(186, 96, 145)" stroke-width="2.283893798796954" transform="rotate(59 605 382)" width="36" x="134" y="488" /><circle cx="570" cy="609" fill="none" opacity="0.3784692851198001" r="15" stroke="rgb(234, 236, 112)" stroke-width="1.9036803445312818" /><line stroke="rgb(24, 193, 237)" stroke-width="1.9288073019655754" x1="409" x2="441" y1="641" y2="87" /><line stroke="rgb(74, 105, 52)" stroke-width="1.959291305387338" x1="102" x2="606" y1="560" y2="375" /><line stroke="rgb(119, 249, 67)" stroke-width="2.5691265012078213" x1="593" x2="65" y1="573" y2="272" /><line stroke="rgb(85, 216, 9)" stroke-width="1.3149850841497883" x1="314" x2="762" y1="179" y2="64" /><line stroke="rgb(138, 147, 225)" stroke-width="0.5107316577301033" x1="407" x2="644" y1="608" y2="140" /><line stroke="rgb(182, 113, 116)" stroke-width="2.7793566137021757" x1="776" x2="59" y1="625" y2="154" /><line stroke="rgb(230, 0, 224)" stroke-width="0.926724209716971" x1="206" x2="197" y1="427" y2="97" /><polygon fill="none" points="86,196 109,310 263,40 420,357 342,126 100,128 195,376 365,693" stroke="rgb(136, 64, 137)" stroke-width="2.182398484286975" /><line stroke="rgb(219, 83, 216)" stroke-width="2.944856542984243" x1="193" x2="198" y1="639" y2="254" /><line stroke="rgb(5, 233, 210)" stroke-width="1.7977927096736712" x1="655" x2="260" y1="81" y2="453" /><line stroke="rgb(100, 255, 225)" stroke-width="2.151762861810397" x1="579" x2="77" y1="682" y2="170" /><line stroke="rgb(103, 176, 124)" stroke-width="2.369904036407817" x1="285" x2="480" y1="299" y2="707" /><line stroke="rgb(127, 162, 203)" stroke-width="1.6389030111195257" x1="18" x2="280" y1="337" y2="624" /><line stroke="rgb(28, 255, 148)" stroke-width="1.7373766623805782" x1="304" x2="633" y1="93" y2="377" /><line stroke="rgb(248, 14, 70)" stroke-width="1.5947637371717276" x1="693" x2="16" y1="96" y2="575" /><line stroke="rgb(137, 155, 45)" stroke-width="1.0847725973333195" x1="130" x2="724" y1="49" y2="3" /><line stroke="rgb(227, 45, 56)" stroke-width="1.1378325794789044" x1="385" x2="477" y1="211" y2="617" /><line stroke="rgb(21, 214, 145)" stroke-width="2.0517533904970966" x1="436" x2="12" y1="243" y2="41" /><line stroke="rgb(185, 117, 136)" stroke-width="2.4995653910664726" x1="171" x2="577" y1="177" y2="312" /><circle cx="98" cy="664" fill="none" opacity="0.5056827637904568" r="49" stroke="rgb(183, 234, 242)" stroke-width="4.497950973014948" /><rect fill="none" height="182" stroke="rgb(89, 8, 127)" stroke-width="2.061316069273139" transform="rotate(210 702 339)" width="104" x="489" y="253" /><circle cx="407" cy="526" fill="none" opacity="0.4978804270927484" r="138" stroke="rgb(115, 76, 154)" stroke-width="4.813878931017081" /><rect fill="none" height="64" stroke="rgb(151, 123, 146)" stroke-width="3.6165970285789917" transform="rotate(207 484 711)" width="93" x="297" y="250" /><polygon fill="none" points="721,440 473,276 600,28 219,539 13,12 204,377" stroke="rgb(232, 121, 179)" stroke-width="2.290245695022065" /><rect fill="none" height="127" stroke="rgb(30, 253, 200)" stroke-width="0.6444500771871233" transform="rotate(65 268 216)" width="116" x="189" y="268" /></svg>