<svg baseProfile="full" height="740px" version="1.1" width="927px" xmlns="http://www.w3.org/2000/svg" xmlns:ev="http://www.w3.org/2001/xml-events" xmlns:xlink="http://www.w3.org/1999/xlink"><defs /><rect fill="rgb(225, 249, 220)" height="740px" width="927px" x="0" y="0" /><line stroke="rgb(169, 144, 63)" stroke-width="2.0712228484825066" x1="757" x2="864" y1="583" y2="32" /><line stroke="rgb(161, 255, 215)" stroke-width="0.7434634650429455" x1="359" x2="813" y1="67" y2="673" /><line stroke="rgb(82, 247, 96)" stroke-width="0.9714991539037914" x1="144" x2="700" y1="368" y2="521" /><line stroke="rgb(46, 90, 38)" stroke-width="0.8506922125663068" x1="619" x2="120" y1="80" y2="688" /><line stroke="rgb(116, 162, 6)" stroke-width="0.8543851465934631" x1="493" x2="670" y1="227" y2="405" /><line stroke="rgb(178, 20, 1)" stroke-width="1.7767602393557969" x1="646" x2="755" y1="160" y2="509" /><line stroke="rgb(97, 141, 32)" stroke-width="1.618613049545755" x1="879" x2="339" y1="252" y2="538" /><line stroke="rgb(207, 128, 106)" stroke-width="0.7208889265823377" x1="663" x2="853" y1="271" y2="36" /><circle cx="839" cy="298" fill="none" opacity="0.770481247242331" r="128" stroke="rgb(251, 71, 86)" stroke-width="1.2963023905609612" /><polygon fill="none" points="75,420 243,703 922,6 191,82 618,297" stroke="rgb(60, 203, 155)" stroke-width="1.950572077657554" /><line stroke="rgb(41, 133, 15)" stroke-width="1.8907730777020386" x1="156" x2="924" y1="300" y2="47" /><line stroke="rgb(192, 253, 82)" stroke-width="1.776944186443" x1="704" x2="514" y1="6" y2="552" /><line stroke="rgb(105, 14, 38)" stroke-width="1.2407069821362349" x1="289" x2="400" y1="682" y2="608" /><line stroke="rgb(137, 129, 100)" stroke-width="1.57692775668199" x1="795" x2="567" y1="584" y2="18" /><line stroke="rgb(248, 151, 166)" stroke-width="2.3979012574374177" x1="272" x2="651" y1="615" y2="331" /><path d="M340,150 L564,729 L578,175 Q258,200 305,199 C3,488 593,661 136,18 C612,737 73,197 110,505" fill="none" stroke="rgb(84, 11, 155)" stroke-width="1.9361927746958338" /><path d="M224,277 C528,335 464,642 406,287 C307,391 872,153 351,100 Q854,698 443,447 L720,692 Q137,80 324,647" fill="none" stroke="rgb(123, 2, 92)" stroke-width="1.0751755312283577" /><line stroke="rgb(194, 141, 224)" stroke-width="2.654172071286507" x1="180" x2="310" y1="216" y2="84" /><line stroke="rgb(125, 45, 199)" stroke-width="2.6797921625651977" x1="419" x2="254" y1="273" y2="363" /><line stroke="rgb(176, 199, 176)" stroke-width="0.9260504243988092" x1="756" x2="105" y1="450" y2="118" /><line stroke="rgb(188, 87, 50)" stroke-width="2.660131148572485" x1="661" x2="523" y1="674" y2="115" /><line stroke="rgb(153, 138, 206)" stroke-width="1.7564541676343346" x1="802" x2="549" y1="331" y2="76" /><polygon fill="none" points="221,21 12,301 309,530 365,584 278,76 131,462 125,478 368,674" stroke="rgb(132, 193, 35)" stroke-width="2.6583801797508824" /><rect fill="none" height="79" stroke="rgb(152, 59, 238)" stroke-width="3.7077113026324837" transform="rotate(338 77 145)" width="116" x="612" y="128" /><circle cx="867" cy="292" fill="none" opacity="0.7477333417314199" r="25" stroke="rgb(239, 202, 67)" stroke-width="3.8080758783958926" /><rect fill="none" height="140" stroke="rgb(27, 90, 251)" stroke-width="1.9367568249407265" transform="rotate(298 65 331)" width="111" x="497" y="605" /><polygon fill="none" points="66,307 459,159 652,130 662,500 189,209 247,53 136,353 785,654" stroke="rgb(147, 17, 45)" stroke-width="0.6435898856588481" /><polygon fill="none" points="510,548 161,52 320,178 914,114" stroke="rgb(122, 97, 63)" stroke-width="2.4386143082358984" /><polygon fill="none" points="906,683 857,70 847,105 371,34 622,259" stroke="rgb(203, 179, 251)" stroke-width="2.3979056766361206" /><circle cx="666" cy="278" fill="none" opacity="0.6972132612403872" r="103" stroke="rgb(15, 225, 120)" stroke-width="3.2622281418747643" /><circle cx="559" cy="65" fill="none" opacity="0.5301704073397324" r="172" stroke="rgb(128, 242, 224)" stroke-width="2.1418233542141265" /><path d="M846,546 Q679,491 922,397 C116,85 803,410 251,211 C494,617 334,70 731,706 L672,111 Q447,602 703,135 Q889,67 424,658" fill="none" stroke="rgb(18, 242, 219)" stroke-width="2.8663616763412767" /><polygon fill="none" points="46,658 675,408 511,699 164,594 13,272 756,690 703,442 257,286" stroke="rgb(250, 12, 115)" stroke-width="1.1562368411487711" /><rect fill="none" height="186" stroke="rgb(97, 52, 116)" stroke-width="1.0052114208859777" transform="rotate(190 742 272)" width="97" x="414" y="310" /><polygon fill="none" points="464,481 733,279 62,715 580,376 174,563 209,259" stroke="rgb(219, 193, 238)" stroke-width="2.6250150724850454" /><line stroke="rgb(117, 224, 115)" stroke-width="2.0288141936808923" x1="673" x2="54" y1="184" y2="361" /><line stroke="rgb(124, 250, 117)" stroke-width="1.8256387228311706" x1="631" x2="408" y1="423" y2="465" /><line stroke="rgb(102, 184, 82)" stroke-width="2.8317880494288525" x1="399" x2="83" y1="643" y2="723" /><line stroke="rgb(110, 186, 122)" stroke-width="1.1945360842466144" x1="709" x2="535" y1="121" y2="719" /><line stroke="rgb(53, 201, 83)" stroke-width="0.9842964035165795" x1="94" x2="385" y1="201" y2="237" /><line stroke="rgb(223, 38, 149)" stroke-width="1.8976344471501125" x1="180" x2="575" y1="354" y2="272" /><line stroke="rgb(186, 213, 98)" stroke-width="1.3427636371914464" x1="472" x2="125" y1="668" y2="281" /><line stroke="rgb(56, 141, 200)" stroke-width="1.3137710432439136" x1="785" x2="750" y1="548" y2="217" /><line stroke="rgb(112, 135, 26)" stroke-width="1.1060823215925757" x1="306" x2="404" y1="387" y2="524" /><line stroke="rgb(212, 126, 145)" stroke-width="1.5017604138778338" x1="431" x2="23" y1="18" y2="271" /><rect fill="none" height="23" stroke="rgb(143, 248, 174)" stroke-width="2.4662816478238367" transform="rotate(83 735 646)" width="179" x="491" y="531" /><rect fill="none" height="110" stroke="rgb(245, 150, 125)" stroke-width="4.004027001551283" transform="rotate(102 411 291)" width="79" x="668" y="335" /><path d="M812,485 C419,569 546,240 777,651 C6,445 425,44 491,680 Q735,267 603,683 L257,531 Q199,651 859,737 Q662,331 213,247 Q535,456 852,292" fill="none" stroke="rgb(182, 41, 193)" stroke-width="0.5097943522653579" /><rect fill="none" height="155" stroke="rgb(224, 253, 185)" stroke-width="3.7514196294481166" transform="rotate(44 86 330)" width="181" x="101" y="109" /><circle cx="254" cy="152" fill="none" opacity="0.6383462099498598" r="10" stroke="rgb(76, 188, 173)" stroke-width="2.6721951348854986" /><polygon fill="none" points="232,388 627,235 68,122 868,652 826,333" stroke="rgb(251, 215, 144)" stroke-width="0.9186441727246272" /><line stroke="rgb(40, 35, 164)" stroke-width="1.5985921780788568" x1="468" x2="328" y1="295" y2="309" /><line stroke="rgb(145, 105, 39)" stroke-width="2.0683519654081577" x1="134" x2="679" y1="628" y2="307" /><line stroke="rgb(108, 97, 159)" stroke-width="2.768723640418123" x1="699" x2="755" y1="556" y2="347" /><line stroke="rgb(202, 110, 23)" stroke-width="2.083715629933706" x1="925" x2="500" y1="557" y2="296" /><line stroke="rgb(38, 15, 81)" stroke-width="1.1646749017372748" x1="894" x2="673" y1="580" y2="636" /><line stroke="rgb(130, 18, 76)" stroke-width="2.2968677591990123" x1="785" x2="490" y1="722" y2="20" /><circle cx="192" cy="641" fill="none" opacity="0.9426490657769024" r="57" stroke="rgb(26, 48, 235)" stroke-width="0.9204835240588036" /><polygon fill="none" points="264,131 528,627 653,411" stroke="rgb(100, 0, 220)" stroke-width="2.584648456503593" /><line stroke="rgb(237, 115, 31)" stroke-width="1.2764442647255863" x1="606" x2="399" y1="484" y2="626" /><line stroke="rgb(29, 73, 105)" stroke-width="1.4813492565924256" x1="456" x2="778" y1="576" y2="174" /><line stroke="rgb(247, 192, 244)" stroke-width="1.8278002173006902" x1="622" x2="823" y1="320" y2="507" /><polygon fill="none" points="449,658 417,694 715,424 405,334 316,113 433,425" stroke="rgb(76, 2, 232)" stroke-width="2.4342485266892275" /><circle cx="297" cy="374" fill="none" opacity="0.9357466215130583" r="139" stroke="rgb(122, 201, 31)" stroke-width="4.8814004351829485" /><path d="M54,521 Q434,325 519,20 Q853,282 164,384 L58,201 Q145,735 751,152 Q753,322 414,374 Q741,430 62,66" fill="none" stroke="rgb(138, 161, 219)" stroke-width="2.346166741559162" /><polygon fill="none" points="434,395 612,616 131,101" stroke="rgb(6, 236, 238)" stroke-width="2.958312039624032" /><polygon fill="none" points="555,106 921,488 878,149 114,637 458,636 107,406" stroke="rgb(64, 6, 253)" stroke-width="2.6874685817343464" /><rect fill="none" height="101" stroke="rgb(111, 89, 34)" stroke-width="4.674509268464274" transform="rotate(175 504 377)" width="107" x="673" y="500" /></svg>