<svg baseProfile="full" height="423px" version="1.1" width="1019px" xmlns="http://www.w3.org/2000/svg" xmlns:ev="http://www.w3.org/2001/xml-events" xmlns:xlink="http://www.w3.org/1999/xlink"><defs /><rect fill="rgb(236, 214, 223)" height="423px" width="1019px" x="0" y="0" /><circle cx="845" cy="79" fill="none" opacity="0.8478732976827503" r="62" stroke="rgb(16, 218, 171)" stroke-width="1.3895089919679093" /><rect fill="none" height="55" stroke="rgb(253, 215, 15)" stroke-width="2.5000669763459586" transform="rotate(81 340 214)" width="153" x="296" y="295" /><rect fill="none" height="64" stroke="rgb(186, 80, 138)" stroke-width="1.9642903736518356" transform="rotate(168 518 170)" width="85" x="172" y="21" /><circle cx="848" cy="138" fill="none" opacity="0.4626876898391492" r="100" stroke="rgb(216, 216, 159)" stroke-width="0.6944442166401219" /><circle cx="202" cy="354" fill="none" opacity="0.9898035393259674" r="79" stroke="rgb(208, 28, 184)" stroke-width="4.234699098119385" /><rect fill="none" height="64" stroke="rgb(111, 63, 252)" stroke-width="3.3595980044560383" transform="rotate(142 288 100)" width="114" x="901" y="299" /><line stroke="rgb(88, 244, 187)" stroke-width="2.146582074366356" x1="68" x2="537" y1="39" y2="282" /><line stroke="rgb(246, 84, 138)" stroke-width="1.5451413508614857" x1="977" x2="369" y1="241" y2="131" /><line stroke="rgb(99, 143, 39)" stroke-width="1.391879872559214" x1="507" x2="141" y1="112" y2="282" /><path d="M976,87 Q828,116 113,398 L246,296 L956,307 L956,175 C726,318 474,163 6,224 L721,385 Q294,272 105,375" fill="none" stroke="rgb(97, 58, 110)" stroke-width="1.2472562118416923" /><rect fill="none" height="79" stroke="rgb(76, 186, 246)" stroke-width="1.0578790899670292" transform="rotate(207 319 312)" width="179" x="769" y="308" /><line stroke="rgb(29, 228, 186)" stroke-width="1.4351004675250394" x1="443" x2="903" y1="75" y2="101" /><line stroke="rgb(75, 6, 125)" stroke-width="1.1377114749055908" x1="540" x2="330" y1="320" y2="212" /><line stroke="rgb(145, 35, 36)" stroke-width="1.4956067405902917" x1="620" x2="485" y1="416" y2="294" /><line stroke="rgb(73, 56, 14)" stroke-width="1.4446806799552072" x1="575" x2="89" y1="416" y2="269" /><line stroke="rgb(247, 228, 49)" stroke-width="0.5173416985388739" x1="629" x2="451" y1="287" y2="365" /><line stroke="rgb(251, 151, 6)" stroke-width="1.7866994754036152" x1="666" x2="5" y1="87" y2="351" /><rect fill="none" height="123" stroke="rgb(80, 87, 79)" stroke-width="1.0001502466503729" transform="rotate(276 738 118)" width="179" x="337" y="193" /><polygon fill="none" points="958,185 130,290 530,314 568,335" stroke="rgb(150, 91, 179)" stroke-width="3.553738421641458" /><path d="M324,396 C458,165 564,263 674,134 L698,416 Q817,49 47,283 Q994,314 23,222" fill="none" stroke="rgb(58, 78, 17)" stroke-width="1.5721155561439366" /></svg>