<svg baseProfile="full" height="530px" version="1.1" width="1119px" xmlns="http://www.w3.org/2000/svg" xmlns:ev="http://www.w3.org/2001/xml-events" xmlns:xlink="http://www.w3.org/1999/xlink"><defs /><rect fill="rgb(239, 201, 240)" height="530px" width="1119px" x="0" y="0" /><path d="M243,296 Q595,7 709,85 L630,201 Q499,136 522,228 L255,472 L684,326" fill="none" stroke="rgb(118, 147, 22)" stroke-width="1.4131616120766548" /><polygon fill="none" points="547,93 572,374 789,143 283,195" stroke="rgb(31, 188, 211)" stroke-width="0.8687113846964158" /><rect fill="none" height="62" stroke="rgb(223, 82, 156)" stroke-width="3.7680347687400366" transform="rotate(56 845 228)" width="90" x="482" y="176" /><path d="M628,487 L969,518 L579,448 Q291,225 845,118 Q652,5 545,243 C1053,146 340,190 834,54 Q1068,518 490,288" fill="none" stroke="rgb(180, 101, 170)" stroke-width="2.331904426713235" /><circle cx="877" cy="170" fill="none" opacity="0.6593918091551679" r="18" stroke="rgb(33, 170, 216)" stroke-width="4.39933116054379" /><circle cx="1046" cy="308" fill="none" opacity="0.5718328909858414" r="125" stroke="rgb(85, 201, 38)" stroke-width="0.5470934790834081" /><circle cx="241" cy="310" fill="none" opacity="0.5055782914331984" r="124" stroke="rgb(81, 85, 52)" stroke-width="0.835377496284481" /><circle cx="1040" cy="262" fill="none" opacity="0.5839066742808803" r="60" stroke="rgb(193, 21, 144)" stroke-width="4.067052643987497" /><rect fill="none" height="73" stroke="rgb(244, 158, 211)" stroke-width="4.133413090036764" transform="rotate(330 363 332)" width="192" x="121" y="352" /><polygon fill="none" points="415,7 1032,123 474,424 324,253 550,507 827,476" stroke="rgb(120, 221, 114)" stroke-width="3.3420155472615285" /><circle cx="884" cy="188" fill="none" opacity="0.6345209775059204" r="18" stroke="rgb(69, 150, 131)" stroke-width="2.4195445379582727" /><rect fill="none" height="138" stroke="rgb(158, 30, 58)" stroke-width="2.995272729682973" transform="rotate(292 927 154)" width="149" x="663" y="200" /><rect fill="none" height="197" stroke="rgb(104, 2, 180)" stroke-width="1.3849390750010917" transform="rotate(217 707 49)" width="160" x="604" y="43" /><line stroke="rgb(174, 227, 19)" stroke-width="2.1412258817543393" x1="275" x2="145" y1="68" y2="447" /><line stroke="rgb(37, 75, 246)" stroke-width="2.0149271166100506" x1="897" x2="393" y1="16" y2="428" /><line stroke="rgb(67, 121, 29)" stroke-width="1.4344829045061687" x1="566" x2="228" y1="52" y2="276" /><line stroke="rgb(92, 228, 2)" stroke-width="1.2839259423905633" x1="461" x2="772" y1="241" y2="86" /><line stroke="rgb(60, 110, 226)" stroke-width="2.7216400376050744" x1="724" x2="89" y1="306" y2="228" /><line stroke="rgb(185, 124, 90)" stroke-width="2.5473944733903986" x1="205" x2="1018" y1="243" y2="168" /><circle cx="403" cy="172" fill="none" opacity="0.9297944022766786" r="32" stroke="rgb(220, 130, 149)" stroke-width="1.1803828909274923" /><circle cx="256" cy="392" fill="none" opacity="0.6784010099791168" r="44" stroke="rgb(252, 142, 94)" stroke-width="2.5503238612019725" /><circle cx="188" cy="231" fill="none" opacity="0.3836992306622142" r="60" stroke="rgb(226, 29, 95)" stroke-width="3.2922831784144937" /><line stroke="rgb(78, 160, 229)" stroke-width="2.2289855123502047" x1="752" x2="301" y1="109" y2="485" /><line stroke="rgb(233, 54, 192)" stroke-width="2.511340904811762" x1="175" x2="911" y1="516" y2="173" /><line stroke="rgb(44, 218, 23)" stroke-width="2.964300192775648" x1="243" x2="765" y1="260" y2="429" /><line stroke="rgb(158, 24, 77)" stroke-width="1.8654820095257378" x1="1057" x2="387" y1="189" y2="274" /><circle cx="911" cy="392" fill="none" opacity="0.7516096426576551" r="88" stroke="rgb(146, 2, 72)" stroke-width="4.764325529330305" /><rect fill="none" height="198" stroke="rgb(207, 4, 190)" stroke-width="1.6522767155052211" transform="rotate(17 54 430)" width="159" x="179" y="9" /><rect fill="none" height="22" stroke="rgb(181, 148, 229)" stroke-width="3.9197483996891362" transform="rotate(110 758 180)" width="152" x="810" y="356" /><path d="M876,83 Q703,121 845,358 L1042,74 Q1092,38 1012,235 C942,358 745,341 238,225 C979,87 442,530 1007,205 L1103,101" fill="none" stroke="rgb(190, 17, 194)" stroke-width="0.7204393632310209" /><rect fill="none" height="137" stroke="rgb(227, 49, 194)" stroke-width="1.9167697678250848" transform="rotate(359 549 357)" width="79" x="989" y="182" /><line stroke="rgb(228, 99, 84)" stroke-width="0.983726426830229" x1="949" x2="663" y1="120" y2="171" /><line stroke="rgb(121, 158, 165)" stroke-width="1.966622507902379" x1="619" x2="430" y1="399" y2="174" /><line stroke="rgb(183, 31, 253)" stroke-width="1.673853385812385" x1="140" x2="124" y1="336" y2="217" /><line stroke="rgb(209, 211, 144)" stroke-width="2.6456199049899207" x1="23" x2="221" y1="529" y2="300" /><line stroke="rgb(40, 114, 74)" stroke-width="1.6990873448224133" x1="800" x2="1090" y1="292" y2="215" /><line stroke="rgb(94, 40, 194)" stroke-width="2.5125605764373518" x1="737" x2="859" y1="9" y2="258" /><line stroke="rgb(175, 39, 15)" stroke-width="2.6834049636918103" x1="966" x2="153" y1="226" y2="154" /><rect fill="none" height="81" stroke="rgb(103, 49, 57)" stroke-width="4.598496557075655" transform="rotate(176 198 178)" width="86" x="553" y="360" /><path d="M581,286 C712,214 402,300 965,490 C214,411 286,53 483,525 L581,248" fill="none" stroke="rgb(146, 63, 242)" stroke-width="1.6685855641423677" /><circle cx="774" cy="197" fill="none" opacity="0.5512834354965914" r="126" stroke="rgb(162, 165, 247)" stroke-width="2.300834355072592" /><polygon fill="none" points="1091,442 612,27 722,206 558,218 960,102 286,90 108,71 539,89" stroke="rgb(155, 93, 122)" stroke-width="1.3344138180296519" /></svg>