<svg baseProfile="full" height="549px" version="1.1" width="826px" xmlns="http://www.w3.org/2000/svg" xmlns:ev="http://www.w3.org/2001/xml-events" xmlns:xlink="http://www.w3.org/1999/xlink"><defs /><rect fill="rgb(236, 244, 204)" height="549px" width="826px" x="0" y="0" /><rect fill="none" height="170" stroke="rgb(59, 200, 28)" stroke-width="2.1046372299401614" transform="rotate(320 372 39)" width="162" x="619" y="154" /><line stroke="rgb(247, 71, 159)" stroke-width="1.1043703169816497" x1="34" x2="639" y1="273" y2="16" /><line stroke="rgb(131, 118, 9)" stroke-width="0.907383226627" x1="169" x2="552" y1="200" y2="194" /><line stroke="rgb(41, 156, 102)" stroke-width="1.1856949804031855" x1="478" x2="799" y1="300" y2="172" /><line stroke="rgb(204, 136, 201)" stroke-width="2.480112092995325" x1="558" x2="707" y1="146" y2="492" /><line stroke="rgb(181, 116, 124)" stroke-width="1.3377217707459228" x1="646" x2="800" y1="228" y2="317" /><line stroke="rgb(189, 168, 131)" stroke-width="2.790727509860624" x1="201" x2="631" y1="162" y2="250" /><circle cx="335" cy="460" fill="none" opacity="0.7208142956520218" r="133" stroke="rgb(55, 212, 13)" stroke-width="3.1401299311239685" /><polygon fill="none" points="492,507 487,425 294,105 718,402 756,320 809,543 620,225 207,214" stroke="rgb(244, 144, 220)" stroke-width="1.5769374673811245" /><polygon fill="none" points="189,233 102,412 786,264" stroke="rgb(89, 221, 230)" stroke-width="1.0056147303431766" /><line stroke="rgb(152, 94, 151)" stroke-width="2.2834177374919333" x1="552" x2="290" y1="540" y2="204" /><line stroke="rgb(200, 111, 254)" stroke-width="1.4200246087995836" x1="437" x2="57" y1="290" y2="107" /><line stroke="rgb(243, 246, 124)" stroke-width="2.52384205824688" x1="276" x2="407" y1="483" y2="241" /><line stroke="rgb(159, 201, 230)" stroke-width="1.850957518489298" x1="575" x2="124" y1="381" y2="387" /><line stroke="rgb(197, 90, 20)" stroke-width="0.6020936550728463" x1="362" x2="635" y1="525" y2="215" /><line stroke="rgb(163, 40, 141)" stroke-width="0.6508327259240322" x1="649" x2="298" y1="372" y2="19" /><line stroke="rgb(23, 183, 101)" stroke-width="1.2461448162821296" x1="560" x2="806" y1="301" y2="432" /><line stroke="rgb(26, 203, 169)" stroke-width="2.457566133046746" x1="703" x2="794" y1="271" y2="410" /><line stroke="rgb(48, 46, 235)" stroke-width="1.2299595525104907" x1="428" x2="350" y1="462" y2="68" /><line stroke="rgb(174, 156, 196)" stroke-width="0.9851265876738625" x1="265" x2="814" y1="381" y2="404" /><line stroke="rgb(79, 163, 161)" stroke-width="1.5089059430000105" x1="258" x2="54" y1="278" y2="101" /><line stroke="rgb(220, 96, 141)" stroke-width="2.3601183570154904" x1="495" x2="658" y1="253" y2="391" /><line stroke="rgb(46, 16, 81)" stroke-width="2.589183931095869" x1="446" x2="41" y1="23" y2="501" /><line stroke="rgb(32, 85, 111)" stroke-width="1.7499285792503176" x1="589" x2="141" y1="475" y2="521" /><line stroke="rgb(160, 44, 170)" stroke-width="2.931973091178967" x1="382" x2="6" y1="375" y2="179" /><line stroke="rgb(219, 169, 43)" stroke-width="0.8527414934432371" x1="566" x2="673" y1="129" y2="315" /><path d="M578,387 L340,424 L178,19 Q702,269 457,197 L479,201 L28,319" fill="none" stroke="rgb(100, 122, 72)" stroke-width="2.904331573748033" /><line stroke="rgb(196, 101, 227)" stroke-width="2.0050436083975205" x1="514" x2="534" y1="19" y2="256" /><line stroke="rgb(19, 8, 212)" stroke-width="0.5974800179556168" x1="559" x2="86" y1="5" y2="87" /><line stroke="rgb(23, 120, 12)" stroke-width="2.5190538488233516" x1="807" x2="404" y1="82" y2="162" /><line stroke="rgb(35, 109, 243)" stroke-width="0.7941062271217174" x1="448" x2="235" y1="365" y2="509" /><line stroke="rgb(204, 172, 242)" stroke-width="2.343599693404388" x1="561" x2="151" y1="163" y2="123" /><polygon fill="none" points="219,134 809,280 41,92 535,287" stroke="rgb(190, 198, 107)" stroke-width="3.528561405932911" /><rect fill="none" height="156" stroke="rgb(81, 9, 102)" stroke-width="3.919154736249506" transform="rotate(175 792 541)" width="116" x="448" y="158" /><line stroke="rgb(178, 27, 87)" stroke-width="1.3123085790327977" x1="349" x2="637" y1="209" y2="380" /><line stroke="rgb(21, 69, 177)" stroke-width="1.232958858657318" x1="295" x2="762" y1="130" y2="30" /><line stroke="rgb(49, 167, 148)" stroke-width="2.224460947027511" x1="150" x2="478" y1="137" y2="127" /><rect fill="none" height="92" stroke="rgb(184, 55, 220)" stroke-width="2.3268841809147505" transform="rotate(286 619 153)" width="198" x="464" y="293" /><path d="M301,34 C271,410 36,258 702,514 C510,72 352,406 186,54 C437,213 537,537 732,256 L613,77 C442,464 699,461 50,343 L618,19 L594,455" fill="none" stroke="rgb(40, 43, 37)" stroke-width="2.5129189877501346" /><path d="M395,123 L65,149 C683,250 728,290 535,380 L712,427 L433,166 C391,421 162,201 451,30" fill="none" stroke="rgb(78, 119, 239)" stroke-width="1.622034902288239" /><line stroke="rgb(12, 100, 127)" stroke-width="0.7327730669594306" x1="667" x2="505" y1="399" y2="530" /><line stroke="rgb(67, 156, 121)" stroke-width="0.5279882016691485" x1="335" x2="18" y1="276" y2="218" /><line stroke="rgb(192, 139, 97)" stroke-width="2.8542772209016043" x1="57" x2="575" y1="5" y2="5" /><line stroke="rgb(233, 246, 160)" stroke-width="0.5146908742759594" x1="398" x2="551" y1="42" y2="362" /><line stroke="rgb(227, 156, 150)" stroke-width="1.2330383276104655" x1="464" x2="179" y1="311" y2="392" /><line stroke="rgb(209, 206, 69)" stroke-width="0.7309223901270241" x1="362" x2="735" y1="383" y2="338" /><line stroke="rgb(244, 231, 229)" stroke-width="1.7235175354450931" x1="220" x2="691" y1="7" y2="60" /><polygon fill="none" points="553,320 292,241 821,281 179,461" stroke="rgb(146, 201, 204)" stroke-width="2.2181813816196807" /><polygon fill="none" points="404,34 500,288 223,451 410,423" stroke="rgb(111, 228, 24)" stroke-width="2.367682906967179" /><line stroke="rgb(192, 43, 233)" stroke-width="2.8694910404938585" x1="186" x2="770" y1="281" y2="481" /><line stroke="rgb(39, 45, 140)" stroke-width="2.3035348459139335" x1="532" x2="753" y1="506" y2="228" /><line stroke="rgb(228, 111, 59)" stroke-width="1.8956892921476736" x1="397" x2="19" y1="402" y2="307" /><line stroke="rgb(95, 58, 227)" stroke-width="1.317447860507265" x1="169" x2="21" y1="320" y2="279" /><line stroke="rgb(194, 143, 214)" stroke-width="0.637452287505852" x1="580" x2="89" y1="435" y2="402" /><line stroke="rgb(254, 133, 47)" stroke-width="0.6713444917229681" x1="24" x2="689" y1="75" y2="258" /><line stroke="rgb(70, 245, 59)" stroke-width="2.2007553883339765" x1="410" x2="291" y1="345" y2="333" /><line stroke="rgb(167, 205, 179)" stroke-width="1.4241218471414774" x1="537" x2="213" y1="410" y2="341" /><line stroke="rgb(200, 137, 236)" stroke-width="1.9495361124261565" x1="324" x2="478" y1="489" y2="408" /><line stroke="rgb(253, 221, 40)" stroke-width="0.9367559345515909" x1="5" x2="595" y1="94" y2="105" /><circle cx="394" cy="356" fill="none" opacity="0.567991399959943" r="130" stroke="rgb(28, 99, 25)" stroke-width="4.838541750841449" /><line stroke="rgb(15, 240, 22)" stroke-width="1.1549915422932977" x1="155" x2="824" y1="444" y2="73" /><line stroke="rgb(167, 65, 105)" stroke-width="1.5980189662115483" x1="785" x2="400" y1="445" y2="146" /><line stroke="rgb(4, 80, 171)" stroke-width="1.1392902344475015" x1="188" x2="299" y1="418" y2="352" /><line stroke="rgb(215, 88, 191)" stroke-width="2.6851216539734692" x1="352" x2="354" y1="140" y2="199" /><line stroke="rgb(116, 253, 245)" stroke-width="1.7312075358281884" x1="110" x2="407" y1="60" y2="468" /><line stroke="rgb(165, 164, 84)" stroke-width="1.5664116436742037" x1="622" x2="255" y1="35" y2="259" /><line stroke="rgb(107, 99, 244)" stroke-width="2.993587533315183" x1="314" x2="621" y1="80" y2="414" /><line stroke="rgb(234, 155, 204)" stroke-width="1.2423387354698705" x1="173" x2="587" y1="8" y2="136" /><line stroke="rgb(188, 104, 63)" stroke-width="2.9123623160030663" x1="179" x2="629" y1="351" y2="522" /><line stroke="rgb(127, 114, 34)" stroke-width="1.5939303243300793" x1="207" x2="221" y1="22" y2="490" /><rect fill="none" height="107" stroke="rgb(17, 9, 230)" stroke-width="4.003117222057371" transform="rotate(203 703 475)" width="24" x="158" y="236" /><rect fill="none" height="156" stroke="rgb(167, 215, 228)" stroke-width="4.276307196271492" transform="rotate(207 505 276)" width="157" x="610" y="374" /><line stroke="rgb(110, 84, 12)" stroke-width="1.5323846995695487" x1="243" x2="226" y1="378" y2="466" /><line stroke="rgb(71, 207, 98)" stroke-width="1.177094902174971" x1="498" x2="452" y1="293" y2="435" /><line stroke="rgb(11, 87, 134)" stroke-width="2.7179262772616006" x1="784" x2="420" y1="480" y2="37" /><line stroke="rgb(106, 76, 220)" stroke-width="1.0622842454592683" x1="483" x2="93" y1="364" y2="135" /><line stroke="rgb(202, 193, 45)" stroke-width="1.4789265476581015" x1="267" x2="752" y1="263" y2="450" /><line stroke="rgb(136, 48, 112)" stroke-width="2.0494558121033872" x1="207" x2="180" y1="363" y2="246" /><line stroke="rgb(155, 96, 175)" stroke-width="2.244596323354078" x1="330" x2="153" y1="160" y2="509" /><line stroke="rgb(134, 106, 121)" stroke-width="0.8840398273784207" x1="572" x2="101" y1="19" y2="241" /><line stroke="rgb(95, 181, 148)" stroke-width="1.9547505136800087" x1="255" x2="760" y1="474" y2="412" /><line stroke="rgb(23, 229, 215)" stroke-width="0.8207655654153663" x1="273" x2="234" y1="212" y2="20" /><line stroke="rgb(238, 162, 100)" stroke-width="2.9942865663542997" x1="320" x2="466" y1="51" y2="308" /><line stroke="rgb(218, 143, 89)" stroke-width="0.5561038062926369" x1="577" x2="647" y1="464" y2="468" /><line stroke="rgb(44, 170, 94)" stroke-width="1.0939737818403932" x1="448" x2="733" y1="439" y2="161" /><line stroke="rgb(96, 58, 178)" stroke-width="0.7644026551631316" x1="646" x2="11" y1="30" y2="5" /><line stroke="rgb(151, 112, 215)" stroke-width="0.7181453665902106" x1="538" x2="676" y1="165" y2="517" /><line stroke="rgb(9, 152, 243)" stroke-width="1.2664145120116894" x1="560" x2="770" y1="253" y2="36" /><line stroke="rgb(171, 45, 130)" stroke-width="2.576412989498024" x1="261" x2="471" y1="112" y2="459" /><line stroke="rgb(244, 220, 192)" stroke-width="1.980635571007539" x1="563" x2="757" y1="158" y2="535" /><path d="M806,99 Q300,369 646,108 Q642,85 708,534 C771,134 629,211 210,29 L395,149 C59,257 558,534 93,483" fill="none" stroke="rgb(126, 138, 163)" stroke-width="2.0213803769670844" /><polygon fill="none" points="549,305 358,489 448,377 194,444 473,81 730,134 301,462" stroke="rgb(240, 146, 235)" stroke-width="0.5533621263268083" /><line stroke="rgb(0, 110, 96)" stroke-width="2.50662894393825" x1="675" x2="205" y1="308" y2="310" /><line stroke="rgb(249, 174, 134)" stroke-width="0.8934155228861252" x1="359" x2="645" y1="387" y2="284" /><line stroke="rgb(35, 209, 21)" stroke-width="2.860468940646924" x1="154" x2="609" y1="108" y2="87" /><line stroke="rgb(101, 166, 224)" stroke-width="2.736573387804996" x1="346" x2="39" y1="145" y2="172" /><line stroke="rgb(103, 254, 49)" stroke-width="0.6940084094468066" x1="208" x2="624" y1="400" y2="329" /><line stroke="rgb(192, 112, 235)" stroke-width="2.790659450137387" x1="485" x2="629" y1="468" y2="67" /><polygon fill="none" points="110,55 786,439 448,145" stroke="rgb(132, 34, 254)" stroke-width="2.5260721162044444" /><path d="M750,323 L16,11 C687,426 73,84 265,99 C528,529 83,24 655,468" fill="none" stroke="rgb(50, 248, 14)" stroke-width="2.6412625501647833" /><circle cx="580" cy="97" fill="none" opacity="0.5226675202196671" r="33" stroke="rgb(129, 235, 228)" stroke-width="2.6416635760840212" /><polygon fill="none" points="787,25 268,413 347,231 124,351 87,517 429,67" stroke="rgb(55, 211, 87)" stroke-width="2.1949563700522976" /><rect fill="none" height="23" stroke="rgb(249, 135, 214)" stroke-width="0.8552673769442417" transform="rotate(307 546 276)" width="149" x="412" y="31" /><path d="M102,266 L776,454 L176,517 L412,533 L499,88 Q140,6 148,231" fill="none" stroke="rgb(167, 93, 157)" stroke-width="2.843347856409164" /><line stroke="rgb(72, 62, 136)" stroke-width="1.5736914246065652" x1="551" x2="486" y1="288" y2="332" /><line stroke="rgb(51, 56, 185)" stroke-width="2.0313804669227564" x1="193" x2="140" y1="41" y2="77" /><line stroke="rgb(254, 201, 255)" stroke-width="0.6030719875455541" x1="717" x2="237" y1="174" y2="158" /><line stroke="rgb(42, 220, 142)" stroke-width="0.7489689454262558" x1="233" x2="104" y1="193" y2="460" /><line stroke="rgb(82, 107, 135)" stroke-width="2.737623562107759" x1="231" x2="447" y1="117" y2="53" /><line stroke="rgb(139, 169, 158)" stroke-width="0.543153844270129" x1="128" x2="63" y1="236" y2="126" /><line stroke="rgb(248, 6, 57)" stroke-width="0.936337278507985" x1="494" x2="326" y1="150" y2="69" /><line stroke="rgb(166, 207, 164)" stroke-width="1.1995297097230668" x1="11" x2="408" y1="535" y2="14" /><rect fill="none" height="139" stroke="rgb(158, 165, 254)" stroke-width="2.540893159501426" transform="rotate(263 105 543)" width="70" x="595" y="117" /></svg>