<svg baseProfile="full" height="604px" version="1.1" width="617px" xmlns="http://www.w3.org/2000/svg" xmlns:ev="http://www.w3.org/2001/xml-events" xmlns:xlink="http://www.w3.org/1999/xlink"><defs /><rect fill="rgb(222, 254, 222)" height="604px" width="617px" x="0" y="0" /><rect fill="none" height="72" stroke="rgb(171, 156, 246)" stroke-width="0.987945830489889" transform="rotate(77 129 196)" width="46" x="172" y="480" /><rect fill="none" height="137" stroke="rgb(106, 52, 40)" stroke-width="2.5060350763619126" transform="rotate(141 179 145)" width="144" x="170" y="271" /><polygon fill="none" points="337,296 575,199 287,258 364,446" stroke="rgb(21, 57, 223)" stroke-width="2.712999158538391" /><rect fill="none" height="55" stroke="rgb(142, 142, 210)" stroke-width="1.3367269812909097" transform="rotate(148 346 258)" width="199" x="440" y="167" /><circle cx="206" cy="52" fill="none" opacity="0.6172863755062532" r="53" stroke="rgb(70, 132, 48)" stroke-width="4.624370656849266" /><circle cx="67" cy="305" fill="none" opacity="0.5160261574744284" r="50" stroke="rgb(100, 74, 129)" stroke-width="2.0515113884988923" /><circle cx="459" cy="350" fill="none" opacity="0.5625465435613117" r="151" stroke="rgb(45, 81, 147)" stroke-width="4.641930848847267" /><path d="M126,173 C479,101 260,261 536,379 Q19,527 325,316 L40,111" fill="none" stroke="rgb(65, 61, 16)" stroke-width="0.7700232108394987" /><rect fill="none" height="24" stroke="rgb(83, 48, 17)" stroke-width="4.573046780114273" transform="rotate(41 185 74)" width="77" x="133" y="395" /><polygon fill="none" points="199,292 132,31 18,157 369,208 551,478 442,315 334,183" stroke="rgb(120, 216, 135)" stroke-width="1.0379136389175703" /><rect fill="none" height="176" stroke="rgb(161, 99, 95)" stroke-width="0.9241318798602233" transform="rotate(231 503 49)" width="160" x="222" y="258" /><circle cx="331" cy="81" fill="none" opacity="0.9140034994027981" r="134" stroke="rgb(188, 116, 196)" stroke-width="2.8251357544718525" /><rect fill="none" height="45" stroke="rgb(51, 129, 5)" stroke-width="4.328517641551102" transform="rotate(68 246 506)" width="80" x="64" y="109" /><circle cx="525" cy="158" fill="none" opacity="0.7204699456291724" r="17" stroke="rgb(78, 128, 77)" stroke-width="1.3767737833943232" /><line stroke="rgb(159, 145, 214)" stroke-width="2.8419806633278224" x1="522" x2="171" y1="253" y2="314" /><line stroke="rgb(254, 254, 85)" stroke-width="2.411177791930769" x1="20" x2="528" y1="359" y2="597" /><line stroke="rgb(6, 4, 12)" stroke-width="1.3601367464779237" x1="303" x2="567" y1="391" y2="13" /><circle cx="164" cy="277" fill="none" opacity="0.41631291224964195" r="66" stroke="rgb(118, 167, 148)" stroke-width="1.6865884135878466" /><circle cx="85" cy="511" fill="none" opacity="0.5251685148725943" r="66" stroke="rgb(11, 172, 29)" stroke-width="0.5343781429723722" /><polygon fill="none" points="86,213 259,153 9,567 317,114" stroke="rgb(166, 13, 162)" stroke-width="2.33906194146085" /><path d="M16,21 L452,109 Q123,76 227,75 C568,297 83,67 136,317 Q428,253 419,256" fill="none" stroke="rgb(131, 176, 85)" stroke-width="1.2513708713889857" /><rect fill="none" height="186" stroke="rgb(217, 219, 1)" stroke-width="2.062671128360547" transform="rotate(1 338 210)" width="23" x="380" y="503" /><line stroke="rgb(159, 23, 194)" stroke-width="0.6040489539720085" x1="565" x2="609" y1="399" y2="102" /><line stroke="rgb(119, 63, 170)" stroke-width="0.8253472725734413" x1="59" x2="79" y1="271" y2="400" /><line stroke="rgb(189, 200, 59)" stroke-width="0.6628391979758017" x1="13" x2="261" y1="99" y2="288" /><path d="M200,287 Q478,257 54,183 Q507,82 314,543 C534,493 489,106 595,203 Q88,215 110,100 L611,418 Q595,371 83,230 C446,109 512,41 107,127" fill="none" stroke="rgb(198, 236, 157)" stroke-width="1.961960526966601" /><path d="M275,156 L356,333 C353,508 58,47 1,47 C95,54 527,548 402,253 L460,49" fill="none" stroke="rgb(77, 48, 247)" stroke-width="1.716797401829604" /><path d="M417,242 C136,57 612,110 468,402 C404,238 87,497 68,186 C71,227 17,261 403,398 Q450,505 285,223 L573,491 C413,576 301,599 478,498" fill="none" stroke="rgb(141, 202, 210)" stroke-width="0.6694885455963258" /><polygon fill="none" points="584,425 185,312 320,195" stroke="rgb(6, 67, 133)" stroke-width="2.6028637017296834" /><line stroke="rgb(118, 112, 222)" stroke-width="1.3231565323245869" x1="504" x2="183" y1="209" y2="476" /><line stroke="rgb(225, 212, 139)" stroke-width="0.9309879474538253" x1="328" x2="512" y1="372" y2="580" /><line stroke="rgb(205, 78, 160)" stroke-width="1.0821659648832542" x1="562" x2="313" y1="349" y2="119" /><line stroke="rgb(226, 132, 54)" stroke-width="1.2264467742505474" x1="131" x2="85" y1="311" y2="94" /><polygon fill="none" points="431,59 532,106 611,420 482,40 30,502 226,528 307,532 595,14" stroke="rgb(203, 220, 39)" stroke-width="2.9503902574077085" /><line stroke="rgb(143, 28, 255)" stroke-width="1.7224503028213063" x1="543" x2="410" y1="195" y2="466" /><line stroke="rgb(208, 27, 217)" stroke-width="2.3797469641696636" x1="17" x2="325" y1="298" y2="95" /><line stroke="rgb(205, 236, 59)" stroke-width="2.5888321625977997" x1="367" x2="309" y1="542" y2="296" /><circle cx="166" cy="274" fill="none" opacity="0.4902015190056469" r="117" stroke="rgb(79, 15, 229)" stroke-width="3.4320837285283456" /><circle cx="129" cy="238" fill="none" opacity="0.43444285734366755" r="32" stroke="rgb(212, 246, 36)" stroke-width="4.979484379423317" /><rect fill="none" height="74" stroke="rgb(3, 27, 149)" stroke-width="2.698190078643645" transform="rotate(83 219 372)" width="84" x="201" y="253" /><line stroke="rgb(200, 103, 152)" stroke-width="0.5453824956557427" x1="137" x2="320" y1="419" y2="514" /><line stroke="rgb(99, 172, 183)" stroke-width="1.5726832071992387" x1="358" x2="446" y1="42" y2="69" /><line stroke="rgb(82, 94, 15)" stroke-width="1.1098716399418844" x1="512" x2="379" y1="39" y2="355" /><line stroke="rgb(78, 10, 211)" stroke-width="2.281266398326054" x1="188" x2="474" y1="320" y2="441" /><line stroke="rgb(33, 68, 34)" stroke-width="1.4164801226444532" x1="571" x2="304" y1="244" y2="586" /><line stroke="rgb(249, 100, 128)" stroke-width="0.7154793985395276" x1="431" x2="3" y1="0" y2="466" /><line stroke="rgb(95, 51, 59)" stroke-width="1.6346510387890008" x1="48" x2="194" y1="534" y2="265" /><line stroke="rgb(78, 80, 120)" stroke-width="1.3245839695011004" x1="357" x2="1" y1="392" y2="60" /><line stroke="rgb(97, 61, 105)" stroke-width="1.5784060212567432" x1="47" x2="240" y1="551" y2="423" /><line stroke="rgb(115, 144, 209)" stroke-width="1.185271231721064" x1="202" x2="251" y1="464" y2="198" /><path d="M598,239 L135,143 Q24,36 351,20 Q554,97 258,516 Q512,152 524,72" fill="none" stroke="rgb(19, 58, 11)" stroke-width="2.7571762426966133" /><path d="M241,534 Q77,451 387,588 C55,548 376,369 74,201 L530,327 C255,37 577,321 546,554 Q346,546 430,302" fill="none" stroke="rgb(7, 156, 159)" stroke-width="1.3619379465356134" /><polygon fill="none" points="186,36 145,568 0,37 224,383" stroke="rgb(37, 181, 21)" stroke-width="2.6611756454471696" /><circle cx="78" cy="385" fill="none" opacity="0.45126664749082623" r="69" stroke="rgb(4, 96, 110)" stroke-width="4.903480464911866" /><rect fill="none" height="170" stroke="rgb(63, 52, 153)" stroke-width="2.6148980956075234" transform="rotate(301 613 551)" width="85" x="378" y="292" /><circle cx="288" cy="276" fill="none" opacity="0.9278300211383979" r="145" stroke="rgb(7, 189, 122)" stroke-width="4.70357705499343" /><rect fill="none" height="192" stroke="rgb(32, 117, 225)" stroke-width="2.0380517047255253" transform="rotate(138 81 121)" width="136" x="204" y="324" /><circle cx="377" cy="110" fill="none" opacity="0.7540867813863384" r="75" stroke="rgb(161, 113, 118)" stroke-width="0.7020631159136409" /><circle cx="327" cy="229" fill="none" opacity="0.3490379243352926" r="35" stroke="rgb(134, 215, 215)" stroke-width="1.4284182437425161" /><line stroke="rgb(60, 65, 247)" stroke-width="0.6917446643561138" x1="47" x2="55" y1="113" y2="320" /><line stroke="rgb(216, 125, 42)" stroke-width="0.7374843116330152" x1="484" x2="168" y1="438" y2="553" /><line stroke="rgb(204, 46, 178)" stroke-width="1.5864139521931326" x1="134" x2="10" y1="427" y2="233" /><line stroke="rgb(182, 252, 139)" stroke-width="2.9369112863923976" x1="469" x2="459" y1="314" y2="499" /><line stroke="rgb(95, 144, 11)" stroke-width="0.6683548705658835" x1="419" x2="327" y1="178" y2="47" /><line stroke="rgb(27, 138, 86)" stroke-width="1.9613256439292852" x1="140" x2="518" y1="50" y2="243" /><line stroke="rgb(212, 197, 215)" stroke-width="2.268849809381676" x1="348" x2="21" y1="270" y2="539" /><line stroke="rgb(221, 58, 132)" stroke-width="1.2163862593932615" x1="75" x2="112" y1="406" y2="359" /><polygon fill="none" points="59,286 445,192 87,187" stroke="rgb(150, 117, 32)" stroke-width="1.0464643745227438" /><circle cx="519" cy="242" fill="none" opacity="0.7854726452162908" r="52" stroke="rgb(220, 142, 170)" stroke-width="1.4211987105067645" /><line stroke="rgb(227, 48, 204)" stroke-width="2.501812591604775" x1="87" x2="185" y1="237" y2="433" /><line stroke="rgb(184, 26, 125)" stroke-width="1.3302336086032462" x1="537" x2="550" y1="76" y2="334" /><line stroke="rgb(177, 4, 176)" stroke-width="2.155849020026146" x1="258" x2="28" y1="20" y2="601" /><line stroke="rgb(236, 125, 202)" stroke-width="0.6261710257999447" x1="83" x2="48" y1="203" y2="404" /><line stroke="rgb(248, 232, 40)" stroke-width="2.709921887182608" x1="196" x2="379" y1="534" y2="68" /><line stroke="rgb(168, 122, 246)" stroke-width="2.987305949095808" x1="394" x2="557" y1="500" y2="422" /><line stroke="rgb(13, 165, 154)" stroke-width="1.1209343182677216" x1="129" x2="345" y1="251" y2="402" /><path d="M461,87 L589,366 L69,557 C185,226 502,570 221,531 Q302,204 612,548 Q205,471 123,567 L421,405 Q159,439 274,490" fill="none" stroke="rgb(47, 71, 96)" stroke-width="2.6900619300856614" /><line stroke="rgb(177, 118, 209)" stroke-width="1.8183737559458686" x1="386" x2="194" y1="553" y2="505" /><line stroke="rgb(146, 112, 239)" stroke-width="2.9734772646501453" x1="154" x2="612" y1="355" y2="562" /><line stroke="rgb(119, 120, 0)" stroke-width="2.417038997391969" x1="490" x2="596" y1="566" y2="383" /><line stroke="rgb(9, 189, 12)" stroke-width="1.5924456594710608" x1="288" x2="414" y1="298" y2="558" /><line stroke="rgb(74, 63, 245)" stroke-width="2.0454076563770247" x1="44" x2="161" y1="498" y2="514" /><line stroke="rgb(160, 177, 179)" stroke-width="2.9513267281551485" x1="491" x2="131" y1="152" y2="232" /><polygon fill="none" points="425,267 513,55 358,547 157,242" stroke="rgb(36, 61, 117)" stroke-width="2.7644016617164455" /></svg>