<svg baseProfile="full" height="590px" version="1.1" width="819px" xmlns="http://www.w3.org/2000/svg" xmlns:ev="http://www.w3.org/2001/xml-events" xmlns:xlink="http://www.w3.org/1999/xlink"><defs /><rect fill="rgb(242, 200, 204)" height="590px" width="819px" x="0" y="0" /><rect fill="none" height="28" stroke="rgb(29, 125, 105)" stroke-width="4.871851842787161" transform="rotate(331 651 214)" width="115" x="142" y="228" /><polygon fill="none" points="51,125 214,163 297,505 698,305 602,386 308,355 771,145" stroke="rgb(57, 31, 189)" stroke-width="3.2212181611999275" /><circle cx="91" cy="392" fill="none" opacity="0.6990908478962103" r="97" stroke="rgb(97, 68, 205)" stroke-width="3.439961661509361" /><rect fill="none" height="155" stroke="rgb(2, 42, 205)" stroke-width="4.805543750840668" transform="rotate(170 599 217)" width="176" x="663" y="140" /><polygon fill="none" points="113,535 321,560 417,158 388,439" stroke="rgb(204, 43, 100)" stroke-width="3.8368465034538732" /><circle cx="651" cy="420" fill="none" opacity="0.6561015736564515" r="108" stroke="rgb(208, 103, 233)" stroke-width="4.583527780420383" /><path d="M265,138 Q354,248 290,332 Q136,307 594,328 Q213,344 692,486" fill="none" stroke="rgb(227, 100, 49)" stroke-width="1.757911597050537" /><circle cx="299" cy="200" fill="none" opacity="0.3023870795233839" r="16" stroke="rgb(107, 233, 75)" stroke-width="1.335750544624979" /><circle cx="536" cy="146" fill="none" opacity="0.39007082021907746" r="124" stroke="rgb(49, 135, 191)" stroke-width="2.025465793081485" /><rect fill="none" height="59" stroke="rgb(140, 84, 163)" stroke-width="1.7659247851282391" transform="rotate(11 147 57)" width="74" x="519" y="170" /><line stroke="rgb(230, 193, 214)" stroke-width="1.5882969193636707" x1="372" x2="160" y1="497" y2="554" /><line stroke="rgb(251, 112, 193)" stroke-width="0.7300396882791705" x1="643" x2="549" y1="376" y2="520" /><line stroke="rgb(58, 216, 143)" stroke-width="2.501343341807159" x1="766" x2="729" y1="522" y2="557" /><line stroke="rgb(226, 25, 152)" stroke-width="2.8640909273130446" x1="255" x2="356" y1="147" y2="545" /><line stroke="rgb(95, 29, 44)" stroke-width="1.92566042208284" x1="736" x2="622" y1="455" y2="55" /><line stroke="rgb(86, 126, 94)" stroke-width="1.742301816360614" x1="818" x2="6" y1="417" y2="480" /><line stroke="rgb(186, 162, 175)" stroke-width="0.8826355678199517" x1="658" x2="157" y1="188" y2="55" /><line stroke="rgb(151, 1, 145)" stroke-width="1.940504435750006" x1="105" x2="788" y1="23" y2="570" /><line stroke="rgb(110, 36, 22)" stroke-width="0.6977794624676268" x1="443" x2="55" y1="250" y2="63" /><circle cx="681" cy="500" fill="none" opacity="0.7994615348225752" r="80" stroke="rgb(79, 229, 130)" stroke-width="4.144704344705552" /><circle cx="325" cy="497" fill="none" opacity="0.7029129157860681" r="71" stroke="rgb(198, 166, 133)" stroke-width="1.394141928836358" /><circle cx="716" cy="325" fill="none" opacity="0.3905322239857809" r="146" stroke="rgb(177, 217, 248)" stroke-width="4.050574970780923" /><circle cx="62" cy="307" fill="none" opacity="0.6309582102052131" r="143" stroke="rgb(125, 7, 51)" stroke-width="3.9396062825735405" /><path d="M282,10 Q563,46 448,451 C21,39 658,408 183,196 L46,136" fill="none" stroke="rgb(101, 118, 225)" stroke-width="2.42324174234344" /><line stroke="rgb(185, 79, 208)" stroke-width="0.8318229394304404" x1="289" x2="585" y1="482" y2="517" /><line stroke="rgb(13, 64, 19)" stroke-width="2.059410971208363" x1="539" x2="213" y1="219" y2="10" /><line stroke="rgb(8, 13, 52)" stroke-width="2.0511921839036287" x1="402" x2="348" y1="210" y2="524" /><line stroke="rgb(124, 110, 174)" stroke-width="0.9784625546165727" x1="291" x2="551" y1="49" y2="162" /><line stroke="rgb(251, 77, 53)" stroke-width="1.2402724883335943" x1="161" x2="298" y1="295" y2="284" /><line stroke="rgb(247, 213, 153)" stroke-width="2.789207032630912" x1="421" x2="784" y1="136" y2="167" /><line stroke="rgb(100, 104, 35)" stroke-width="2.710330065196111" x1="691" x2="271" y1="348" y2="5" /><circle cx="164" cy="213" fill="none" opacity="0.8055007882238308" r="124" stroke="rgb(105, 217, 86)" stroke-width="2.0667352111948234" /><line stroke="rgb(99, 77, 210)" stroke-width="2.951485007606884" x1="224" x2="797" y1="397" y2="39" /><line stroke="rgb(230, 203, 180)" stroke-width="0.7137960418416079" x1="57" x2="483" y1="385" y2="96" /><line stroke="rgb(0, 135, 225)" stroke-width="2.2292889530102205" x1="111" x2="435" y1="180" y2="129" /><line stroke="rgb(30, 21, 101)" stroke-width="2.8359971077089767" x1="334" x2="144" y1="440" y2="488" /><line stroke="rgb(117, 106, 74)" stroke-width="2.4971834681647698" x1="669" x2="647" y1="71" y2="524" /><line stroke="rgb(112, 169, 32)" stroke-width="2.8806146027828494" x1="461" x2="528" y1="395" y2="454" /><line stroke="rgb(169, 194, 77)" stroke-width="2.262138818656161" x1="527" x2="519" y1="543" y2="129" /><line stroke="rgb(216, 1, 164)" stroke-width="1.7151977229263773" x1="356" x2="290" y1="77" y2="174" /><line stroke="rgb(24, 161, 168)" stroke-width="1.243375785533928" x1="644" x2="525" y1="19" y2="490" /><line stroke="rgb(233, 198, 236)" stroke-width="1.8246338278920096" x1="409" x2="565" y1="191" y2="2" /><rect fill="none" height="50" stroke="rgb(186, 221, 219)" stroke-width="3.2899460580462163" transform="rotate(296 547 179)" width="62" x="366" y="19" /><rect fill="none" height="123" stroke="rgb(232, 228, 94)" stroke-width="2.052698389481019" transform="rotate(133 230 3)" width="116" x="112" y="275" /></svg>