<svg baseProfile="full" height="506px" version="1.1" width="911px" xmlns="http://www.w3.org/2000/svg" xmlns:ev="http://www.w3.org/2001/xml-events" xmlns:xlink="http://www.w3.org/1999/xlink"><defs /><rect fill="rgb(214, 245, 230)" height="506px" width="911px" x="0" y="0" /><path d="M636,120 C77,327 857,332 535,98 L587,109 L436,31 C875,42 384,68 666,110 Q664,114 360,180 L61,465" fill="none" stroke="rgb(109, 28, 73)" stroke-width="2.576399820086402" /><line stroke="rgb(73, 47, 88)" stroke-width="2.2110340667989714" x1="776" x2="651" y1="406" y2="166" /><line stroke="rgb(164, 209, 231)" stroke-width="2.631494102569379" x1="747" x2="264" y1="424" y2="205" /><line stroke="rgb(207, 221, 21)" stroke-width="0.8671030764520139" x1="107" x2="43" y1="57" y2="228" /><line stroke="rgb(132, 142, 95)" stroke-width="2.4064910377654067" x1="237" x2="70" y1="99" y2="80" /><line stroke="rgb(197, 37, 15)" stroke-width="1.7573047099854886" x1="142" x2="74" y1="23" y2="362" /><line stroke="rgb(186, 74, 115)" stroke-width="0.7790500023538239" x1="601" x2="161" y1="341" y2="8" /><rect fill="none" height="43" stroke="rgb(180, 192, 118)" stroke-width="3.2875698539023572" transform="rotate(96 218 451)" width="185" x="700" y="139" /><rect fill="none" height="63" stroke="rgb(240, 56, 179)" stroke-width="2.110169422495466" transform="rotate(223 875 31)" width="159" x="73" y="51" /><polygon fill="none" points="260,65 690,468 473,480 381,75" stroke="rgb(73, 231, 156)" stroke-width="2.636039061839049" /><path d="M525,49 C671,228 805,290 486,296 Q715,286 721,339 L617,157 L867,231" fill="none" stroke="rgb(209, 49, 187)" stroke-width="2.3742508977052665" /><line stroke="rgb(203, 211, 133)" stroke-width="0.7665973464787572" x1="865" x2="492" y1="326" y2="333" /><line stroke="rgb(64, 208, 8)" stroke-width="2.870346347858037" x1="17" x2="729" y1="472" y2="215" /><line stroke="rgb(113, 124, 75)" stroke-width="1.4602352025424423" x1="383" x2="289" y1="305" y2="171" /><line stroke="rgb(127, 61, 14)" stroke-width="0.5397680995893884" x1="522" x2="758" y1="351" y2="40" /><line stroke="rgb(255, 31, 17)" stroke-width="2.4941232920871266" x1="306" x2="505" y1="252" y2="235" /><line stroke="rgb(252, 220, 136)" stroke-width="2.36530693895229" x1="592" x2="665" y1="175" y2="432" /><line stroke="rgb(176, 64, 112)" stroke-width="1.667708881116465" x1="582" x2="326" y1="114" y2="302" /><line stroke="rgb(47, 62, 32)" stroke-width="2.6705735319146773" x1="722" x2="209" y1="267" y2="219" /><line stroke="rgb(47, 127, 236)" stroke-width="2.944743939475216" x1="240" x2="754" y1="392" y2="132" /><line stroke="rgb(108, 205, 25)" stroke-width="1.9499815966138394" x1="53" x2="400" y1="351" y2="137" /><path d="M532,21 C324,356 206,436 459,423 Q67,483 422,139 L281,167 L794,411" fill="none" stroke="rgb(60, 236, 33)" stroke-width="1.7853995952568698" /><polygon fill="none" points="388,402 639,158 865,380 118,440" stroke="rgb(198, 184, 36)" stroke-width="1.6662407948016102" /><path d="M220,468 L886,362 Q97,309 538,65 C173,474 182,108 144,450 C168,422 672,180 822,58 Q50,215 152,298 Q25,133 82,493 Q351,129 406,62" fill="none" stroke="rgb(93, 154, 58)" stroke-width="2.1642196095420534" /><rect fill="none" height="200" stroke="rgb(0, 97, 109)" stroke-width="2.7592633382864586" transform="rotate(227 286 440)" width="81" x="342" y="113" /><path d="M309,290 C119,52 591,344 248,273 Q554,502 799,334 Q344,489 368,174 L528,270" fill="none" stroke="rgb(228, 137, 14)" stroke-width="2.2445342441360245" /><path d="M578,413 L105,482 L250,16 Q407,423 814,350 L511,134 Q710,307 79,334" fill="none" stroke="rgb(220, 104, 84)" stroke-width="1.7060227451753676" /><circle cx="204" cy="302" fill="none" opacity="0.8844404632161837" r="98" stroke="rgb(139, 77, 246)" stroke-width="4.694082996480337" /></svg>