<svg baseProfile="full" height="448px" version="1.1" width="727px" xmlns="http://www.w3.org/2000/svg" xmlns:ev="http://www.w3.org/2001/xml-events" xmlns:xlink="http://www.w3.org/1999/xlink"><defs /><rect fill="rgb(213, 216, 219)" height="448px" width="727px" x="0" y="0" /><line stroke="rgb(174, 79, 69)" stroke-width="2.92678391752906" x1="536" x2="408" y1="1" y2="117" /><line stroke="rgb(44, 232, 85)" stroke-width="0.7943159123550307" x1="271" x2="647" y1="254" y2="72" /><line stroke="rgb(172, 69, 219)" stroke-width="2.0150997445060943" x1="523" x2="620" y1="324" y2="361" /><line stroke="rgb(59, 116, 97)" stroke-width="1.6384271234320253" x1="124" x2="86" y1="384" y2="168" /><line stroke="rgb(209, 147, 119)" stroke-width="1.5887929116194965" x1="362" x2="579" y1="363" y2="269" /><line stroke="rgb(178, 65, 240)" stroke-width="1.4180892080881216" x1="619" x2="610" y1="133" y2="313" /><line stroke="rgb(201, 215, 63)" stroke-width="0.9484073672657842" x1="390" x2="8" y1="303" y2="34" /><line stroke="rgb(181, 194, 147)" stroke-width="2.154545960176651" x1="425" x2="727" y1="6" y2="379" /><line stroke="rgb(75, 132, 132)" stroke-width="2.5474554550395534" x1="571" x2="34" y1="172" y2="97" /><line stroke="rgb(127, 183, 250)" stroke-width="2.2234580500156205" x1="654" x2="312" y1="87" y2="63" /><line stroke="rgb(21, 115, 239)" stroke-width="1.0180170051049682" x1="696" x2="188" y1="27" y2="105" /><line stroke="rgb(239, 201, 60)" stroke-width="1.8690414393498793" x1="54" x2="78" y1="279" y2="165" /><path d="M670,427 Q404,297 479,215 C468,144 684,264 496,398 C396,34 502,11 224,265 Q727,169 686,324 L582,138 Q606,290 626,250 Q721,221 352,57" fill="none" stroke="rgb(84, 111, 199)" stroke-width="0.5080149453415714" /><polygon fill="none" points="498,391 704,263 51,17 303,58" stroke="rgb(190, 25, 68)" stroke-width="3.731477406126312" /><line stroke="rgb(6, 63, 4)" stroke-width="0.6699080379916273" x1="95" x2="658" y1="271" y2="355" /><line stroke="rgb(101, 187, 64)" stroke-width="2.2392323439740367" x1="517" x2="266" y1="327" y2="9" /><line stroke="rgb(175, 52, 153)" stroke-width="2.215513275485298" x1="82" x2="7" y1="401" y2="130" /><rect fill="none" height="66" stroke="rgb(159, 1, 66)" stroke-width="0.6542317638439625" transform="rotate(150 653 8)" width="160" x="30" y="333" /><rect fill="none" height="138" stroke="rgb(204, 168, 121)" stroke-width="2.697601994846318" transform="rotate(110 11 108)" width="56" x="308" y="177" /><circle cx="178" cy="332" fill="none" opacity="0.6774823387996045" r="47" stroke="rgb(85, 14, 36)" stroke-width="4.759894072435336" /><path d="M93,144 L180,293 Q73,249 562,279 L477,179 Q490,164 432,134 C65,331 199,416 381,210" fill="none" stroke="rgb(68, 18, 176)" stroke-width="2.5639952646357704" /><rect fill="none" height="192" stroke="rgb(206, 47, 192)" stroke-width="3.090863156956048" transform="rotate(255 33 68)" width="85" x="491" y="141" /><rect fill="none" height="45" stroke="rgb(216, 240, 120)" stroke-width="3.6702539400966754" transform="rotate(188 569 81)" width="132" x="107" y="278" /><circle cx="514" cy="216" fill="none" opacity="0.8334981616203765" r="101" stroke="rgb(128, 24, 153)" stroke-width="2.2210331163118546" /><polygon fill="none" points="4,124 165,363 673,54" stroke="rgb(161, 18, 253)" stroke-width="3.9397888449876444" /><path d="M599,202 C199,93 56,33 374,89 L611,264 C579,435 400,23 264,99" fill="none" stroke="rgb(88, 37, 237)" stroke-width="1.872275519110263" /><path d="M41,237 Q211,354 356,27 Q650,381 351,246 L25,135 Q533,390 196,402" fill="none" stroke="rgb(93, 112, 10)" stroke-width="2.995077852347359" /><polygon fill="none" points="495,211 542,291 198,30 568,310 231,215" stroke="rgb(118, 187, 57)" stroke-width="0.5429571975082593" /><line stroke="rgb(152, 30, 72)" stroke-width="0.7004950102156106" x1="693" x2="677" y1="5" y2="12" /><line stroke="rgb(18, 70, 93)" stroke-width="1.0643853539460313" x1="365" x2="213" y1="17" y2="351" /><line stroke="rgb(2, 114, 162)" stroke-width="1.298232241254167" x1="449" x2="506" y1="434" y2="282" /><line stroke="rgb(228, 21, 116)" stroke-width="1.9803365102600727" x1="709" x2="553" y1="287" y2="262" /><line stroke="rgb(65, 141, 156)" stroke-width="0.8583464969733061" x1="97" x2="507" y1="15" y2="297" /><line stroke="rgb(238, 11, 19)" stroke-width="2.5707028104429264" x1="535" x2="582" y1="317" y2="372" /><line stroke="rgb(202, 28, 207)" stroke-width="1.0736657203841111" x1="313" x2="230" y1="393" y2="321" /><line stroke="rgb(179, 151, 23)" stroke-width="2.1380018670652863" x1="719" x2="141" y1="237" y2="169" /><line stroke="rgb(53, 51, 237)" stroke-width="2.4086689898626696" x1="551" x2="93" y1="394" y2="92" /><path d="M270,8 L167,151 Q381,306 191,365 Q363,392 614,362 L54,371" fill="none" stroke="rgb(246, 212, 50)" stroke-width="2.3907752076728004" /><polygon fill="none" points="258,391 304,206 16,297 244,130 477,258 603,168 175,379" stroke="rgb(214, 154, 123)" stroke-width="3.564204312683612" /><rect fill="none" height="81" stroke="rgb(217, 132, 231)" stroke-width="4.1021324864732325" transform="rotate(257 555 290)" width="95" x="267" y="293" /><path d="M40,413 C48,272 368,22 312,110 L464,171 L195,303 C427,93 123,155 304,337 L117,178 C117,219 514,228 163,149" fill="none" stroke="rgb(105, 36, 100)" stroke-width="0.6214100745582891" /><polygon fill="none" points="718,285 364,202 449,247 296,292 550,291 628,108" stroke="rgb(149, 146, 238)" stroke-width="3.1300515350805225" /><path d="M239,433 Q666,159 413,145 C546,444 166,402 660,257 C132,207 662,26 415,236 C142,429 668,159 140,224 L292,211 Q571,5 536,359 C477,249 197,228 654,138" fill="none" stroke="rgb(39, 242, 36)" stroke-width="1.7433428911221587" /><line stroke="rgb(109, 95, 43)" stroke-width="2.570306931725133" x1="418" x2="195" y1="172" y2="410" /><line stroke="rgb(28, 227, 14)" stroke-width="0.8213913654643865" x1="671" x2="23" y1="312" y2="199" /><line stroke="rgb(176, 125, 170)" stroke-width="0.7566884770445934" x1="292" x2="582" y1="374" y2="313" /><line stroke="rgb(218, 23, 94)" stroke-width="2.0595780285974397" x1="692" x2="193" y1="246" y2="249" /><line stroke="rgb(230, 91, 250)" stroke-width="1.527426861001204" x1="95" x2="197" y1="412" y2="26" /><circle cx="118" cy="130" fill="none" opacity="0.9278649429710379" r="61" stroke="rgb(240, 241, 117)" stroke-width="3.9334081696776435" /><circle cx="610" cy="90" fill="none" opacity="0.7835610094441117" r="93" stroke="rgb(114, 237, 179)" stroke-width="0.7089769100025547" /><rect fill="none" height="133" stroke="rgb(120, 76, 65)" stroke-width="3.893191220535166" transform="rotate(275 437 374)" width="173" x="460" y="44" /><line stroke="rgb(133, 143, 68)" stroke-width="2.597503966938653" x1="408" x2="650" y1="139" y2="244" /><line stroke="rgb(112, 194, 169)" stroke-width="0.5065715892872298" x1="362" x2="215" y1="226" y2="1" /><line stroke="rgb(241, 156, 93)" stroke-width="0.8922966941157477" x1="370" x2="78" y1="155" y2="23" /><line stroke="rgb(40, 250, 20)" stroke-width="2.933968693443475" x1="693" x2="32" y1="108" y2="292" /><line stroke="rgb(222, 253, 47)" stroke-width="2.7312530136705364" x1="481" x2="510" y1="199" y2="397" /><line stroke="rgb(4, 235, 195)" stroke-width="0.9619732062917117" x1="322" x2="622" y1="100" y2="53" /><line stroke="rgb(26, 46, 55)" stroke-width="2.03310017570657" x1="618" x2="233" y1="238" y2="81" /><line stroke="rgb(71, 127, 97)" stroke-width="1.8113569239765213" x1="53" x2="521" y1="62" y2="16" /><line stroke="rgb(90, 138, 66)" stroke-width="2.3068342778864386" x1="520" x2="131" y1="346" y2="155" /><line stroke="rgb(212, 20, 186)" stroke-width="1.2014049348553717" x1="460" x2="267" y1="272" y2="231" /><line stroke="rgb(101, 72, 12)" stroke-width="1.1074692911983357" x1="393" x2="247" y1="306" y2="63" /><line stroke="rgb(91, 147, 169)" stroke-width="1.6054237731906826" x1="167" x2="224" y1="371" y2="341" /><line stroke="rgb(53, 193, 222)" stroke-width="2.4710588374867832" x1="646" x2="96" y1="408" y2="262" /><line stroke="rgb(148, 105, 100)" stroke-width="2.779753375649821" x1="296" x2="520" y1="356" y2="263" /><line stroke="rgb(165, 234, 47)" stroke-width="1.2959007978965977" x1="300" x2="540" y1="90" y2="94" /><line stroke="rgb(200, 241, 229)" stroke-width="1.7363462957206697" x1="554" x2="478" y1="306" y2="244" /><line stroke="rgb(202, 240, 52)" stroke-width="2.6253290950843957" x1="212" x2="297" y1="68" y2="252" /><line stroke="rgb(54, 29, 248)" stroke-width="1.0006054293535833" x1="565" x2="476" y1="347" y2="98" /><polygon fill="none" points="444,289 670,174 205,119 700,358 714,430 107,323 343,279 285,15" stroke="rgb(134, 57, 240)" stroke-width="3.6843827459880076" /><circle cx="660" cy="52" fill="none" opacity="0.8106140845134362" r="58" stroke="rgb(41, 170, 216)" stroke-width="3.0049956108053313" /><path d="M201,42 Q470,346 623,54 C511,270 287,130 70,212 C35,97 550,9 417,69 Q540,345 79,309" fill="none" stroke="rgb(120, 238, 206)" stroke-width="1.9968553251483496" /><rect fill="none" height="71" stroke="rgb(149, 235, 178)" stroke-width="0.6418001418044679" transform="rotate(283 507 100)" width="33" x="91" y="289" /><polygon fill="none" points="307,417 71,189 602,106 310,132" stroke="rgb(12, 123, 112)" stroke-width="2.7674149007515885" /><path d="M368,357 L128,274 L614,79 L372,34 Q382,196 687,103 C280,240 453,175 706,51 Q533,340 324,54" fill="none" stroke="rgb(221, 34, 247)" stroke-width="2.0417704758369988" /><circle cx="361" cy="129" fill="none" opacity="0.6244185795782872" r="66" stroke="rgb(23, 129, 217)" stroke-width="3.510288532134787" /><polygon fill="none" points="183,171 137,407 104,352 354,93 699,109 83,48 186,312" stroke="rgb(91, 19, 132)" stroke-width="3.635782293895256" /><circle cx="203" cy="315" fill="none" opacity="0.37460748218401874" r="45" stroke="rgb(196, 253, 80)" stroke-width="0.5400736436271991" /><rect fill="none" height="164" stroke="rgb(135, 217, 44)" stroke-width="3.9685554696826904" transform="rotate(46 430 317)" width="33" x="439" y="203" /><circle cx="529" cy="296" fill="none" opacity="0.8538588399311047" r="48" stroke="rgb(81, 27, 115)" stroke-width="1.4946320099347474" /><polygon fill="none" points="331,77 353,324 349,51" stroke="rgb(17, 239, 165)" stroke-width="3.82457916942674" /><polygon fill="none" points="315,95 608,104 401,316" stroke="rgb(9, 91, 115)" stroke-width="2.521123198019884" /><rect fill="none" height="63" stroke="rgb(150, 78, 206)" stroke-width="2.0368963441612227" transform="rotate(245 46 389)" width="190" x="583" y="80" /><line stroke="rgb(15, 19, 72)" stroke-width="1.8465459003814928" x1="211" x2="292" y1="330" y2="98" /><line stroke="rgb(151, 17, 73)" stroke-width="1.359012544060642" x1="104" x2="475" y1="112" y2="326" /><line stroke="rgb(38, 121, 215)" stroke-width="0.5684820591439295" x1="387" x2="409" y1="91" y2="414" /><rect fill="none" height="136" stroke="rgb(70, 207, 4)" stroke-width="3.492699878769816" transform="rotate(151 239 376)" width="122" x="414" y="93" /><polygon fill="none" points="271,362 449,167 71,102" stroke="rgb(220, 247, 116)" stroke-width="1.5399059212549866" /><line stroke="rgb(121, 28, 169)" stroke-width="1.4711536964116823" x1="242" x2="311" y1="220" y2="166" /><line stroke="rgb(157, 225, 191)" stroke-width="2.1068620086367114" x1="355" x2="300" y1="184" y2="31" /><line stroke="rgb(55, 8, 70)" stroke-width="2.054326523302887" x1="221" x2="61" y1="299" y2="55" /><line stroke="rgb(137, 140, 184)" stroke-width="2.4513784832717493" x1="493" x2="581" y1="273" y2="265" /><line stroke="rgb(187, 144, 179)" stroke-width="2.7925966152692028" x1="522" x2="78" y1="437" y2="28" /><circle cx="442" cy="215" fill="none" opacity="0.5490935394501727" r="100" stroke="rgb(53, 227, 204)" stroke-width="2.2479724599227033" /></svg>