<svg baseProfile="full" height="574px" version="1.1" width="1065px" xmlns="http://www.w3.org/2000/svg" xmlns:ev="http://www.w3.org/2001/xml-events" xmlns:xlink="http://www.w3.org/1999/xlink"><defs /><rect fill="rgb(203, 222, 230)" height="574px" width="1065px" x="0" y="0" /><rect fill="none" height="34" stroke="rgb(247, 63, 79)" stroke-width="2.14303515860371" transform="rotate(213 80 448)" width="136" x="384" y="217" /><line stroke="rgb(5, 69, 226)" stroke-width="1.292801891149293" x1="857" x2="648" y1="500" y2="280" /><line stroke="rgb(12, 242, 26)" stroke-width="2.1862376913981625" x1="822" x2="125" y1="269" y2="166" /><line stroke="rgb(122, 47, 76)" stroke-width="2.0292074559146984" x1="310" x2="1063" y1="482" y2="243" /><line stroke="rgb(118, 88, 227)" stroke-width="0.958080647426018" x1="993" x2="892" y1="238" y2="206" /><line stroke="rgb(145, 131, 123)" stroke-width="2.509115196709735" x1="702" x2="788" y1="35" y2="321" /><line stroke="rgb(231, 193, 31)" stroke-width="1.6626775706339563" x1="189" x2="735" y1="85" y2="505" /><line stroke="rgb(16, 231, 1)" stroke-width="1.9121446596203302" x1="560" x2="3" y1="293" y2="144" /><line stroke="rgb(225, 186, 26)" stroke-width="1.3873514288371063" x1="725" x2="1022" y1="464" y2="300" /><line stroke="rgb(213, 42, 178)" stroke-width="1.945836977867073" x1="233" x2="336" y1="143" y2="310" /><line stroke="rgb(48, 239, 205)" stroke-width="1.1863573254485194" x1="944" x2="900" y1="505" y2="111" /><path d="M915,34 Q154,28 531,526 Q621,134 652,395 Q578,218 323,391" fill="none" stroke="rgb(252, 193, 169)" stroke-width="1.8417104230864898" /><rect fill="none" height="126" stroke="rgb(162, 175, 141)" stroke-width="4.092607361359867" transform="rotate(62 353 78)" width="146" x="193" y="444" /><path d="M95,6 L502,8 C804,368 150,372 564,424 C859,176 87,469 621,519 L907,75 Q742,392 829,217 L491,37" fill="none" stroke="rgb(183, 158, 24)" stroke-width="0.8636461610271704" /><circle cx="994" cy="213" fill="none" opacity="0.7982499535160088" r="131" stroke="rgb(177, 244, 240)" stroke-width="2.088286880167788" /><circle cx="243" cy="223" fill="none" opacity="0.8552280226277154" r="103" stroke="rgb(119, 212, 110)" stroke-width="2.3636893972735447" /><line stroke="rgb(88, 144, 128)" stroke-width="2.7544946133038355" x1="974" x2="25" y1="537" y2="178" /><line stroke="rgb(215, 156, 1)" stroke-width="1.7372910144250768" x1="592" x2="11" y1="388" y2="512" /><line stroke="rgb(238, 230, 125)" stroke-width="2.708769785262015" x1="954" x2="811" y1="355" y2="486" /><line stroke="rgb(177, 199, 102)" stroke-width="2.0915218056445215" x1="454" x2="523" y1="403" y2="258" /><line stroke="rgb(146, 222, 3)" stroke-width="2.529962510318957" x1="881" x2="33" y1="402" y2="247" /><line stroke="rgb(186, 72, 55)" stroke-width="1.0791641732294268" x1="766" x2="433" y1="551" y2="68" /><line stroke="rgb(88, 255, 110)" stroke-width="2.159644203065174" x1="884" x2="629" y1="327" y2="449" /><polygon fill="none" points="429,470 246,163 999,281 469,117 920,472 503,30 535,432" stroke="rgb(232, 72, 78)" stroke-width="1.1137857511404854" /><path d="M723,131 C97,418 179,195 834,297 C575,558 856,471 417,183 Q133,425 24,440 C758,207 46,106 58,98" fill="none" stroke="rgb(149, 22, 129)" stroke-width="0.9670298715634186" /><path d="M506,9 C927,335 169,221 526,167 L442,27 Q398,501 498,273" fill="none" stroke="rgb(255, 45, 195)" stroke-width="1.4556202047283304" /><line stroke="rgb(249, 177, 179)" stroke-width="1.7913870215301668" x1="18" x2="81" y1="383" y2="353" /><line stroke="rgb(210, 181, 219)" stroke-width="2.3185310273788837" x1="1052" x2="585" y1="547" y2="113" /><line stroke="rgb(157, 81, 240)" stroke-width="1.0899450884172595" x1="334" x2="779" y1="160" y2="159" /><line stroke="rgb(18, 95, 148)" stroke-width="0.669190878337868" x1="964" x2="469" y1="273" y2="414" /><line stroke="rgb(233, 81, 85)" stroke-width="1.5276588483163305" x1="902" x2="88" y1="146" y2="406" /><line stroke="rgb(99, 117, 216)" stroke-width="2.002657712921402" x1="632" x2="386" y1="347" y2="553" /><line stroke="rgb(247, 227, 128)" stroke-width="2.424357889924085" x1="1016" x2="518" y1="86" y2="292" /><circle cx="464" cy="212" fill="none" opacity="0.5785108316353988" r="136" stroke="rgb(195, 83, 240)" stroke-width="4.454953169887249" /><line stroke="rgb(101, 222, 83)" stroke-width="1.4408015682832378" x1="826" x2="238" y1="184" y2="558" /><line stroke="rgb(246, 18, 168)" stroke-width="2.4074717808368353" x1="39" x2="134" y1="371" y2="240" /><line stroke="rgb(42, 115, 16)" stroke-width="1.0486636665164872" x1="594" x2="417" y1="483" y2="202" /><line stroke="rgb(199, 220, 174)" stroke-width="2.781428121615021" x1="914" x2="521" y1="522" y2="569" /><line stroke="rgb(89, 206, 108)" stroke-width="2.065174061146064" x1="824" x2="187" y1="284" y2="324" /><line stroke="rgb(181, 181, 36)" stroke-width="2.0481489956357146" x1="257" x2="987" y1="404" y2="518" /><line stroke="rgb(187, 17, 130)" stroke-width="1.8700721779320286" x1="265" x2="783" y1="124" y2="450" /><line stroke="rgb(110, 67, 203)" stroke-width="1.4945243469327245" x1="423" x2="121" y1="504" y2="248" /><line stroke="rgb(89, 3, 133)" stroke-width="1.5792829665193429" x1="634" x2="309" y1="483" y2="52" /><line stroke="rgb(141, 25, 69)" stroke-width="0.6404872056530913" x1="414" x2="894" y1="273" y2="438" /><line stroke="rgb(227, 10, 194)" stroke-width="1.6998566361931533" x1="344" x2="57" y1="559" y2="166" /><line stroke="rgb(212, 52, 8)" stroke-width="1.021699463009441" x1="94" x2="529" y1="285" y2="432" /><line stroke="rgb(46, 71, 253)" stroke-width="2.462571877958537" x1="663" x2="700" y1="177" y2="448" /><line stroke="rgb(178, 203, 191)" stroke-width="2.3373576067299586" x1="3" x2="721" y1="376" y2="569" /><line stroke="rgb(58, 74, 66)" stroke-width="1.9056935660346332" x1="176" x2="918" y1="256" y2="0" /><line stroke="rgb(116, 192, 57)" stroke-width="2.615122592491679" x1="402" x2="669" y1="58" y2="104" /><line stroke="rgb(13, 133, 161)" stroke-width="0.9058717598387457" x1="36" x2="958" y1="69" y2="471" /><line stroke="rgb(125, 160, 112)" stroke-width="2.2583560539853726" x1="1054" x2="285" y1="213" y2="12" /><line stroke="rgb(169, 25, 131)" stroke-width="1.1333907548847333" x1="765" x2="338" y1="143" y2="215" /><line stroke="rgb(152, 102, 183)" stroke-width="1.028357237962552" x1="722" x2="213" y1="190" y2="50" /><line stroke="rgb(124, 121, 46)" stroke-width="1.3294390492339416" x1="15" x2="27" y1="49" y2="320" /><line stroke="rgb(255, 178, 28)" stroke-width="1.7709249049364604" x1="186" x2="381" y1="562" y2="296" /><line stroke="rgb(141, 163, 155)" stroke-width="1.7702875774551334" x1="333" x2="582" y1="262" y2="125" /><rect fill="none" height="52" stroke="rgb(127, 235, 166)" stroke-width="0.8093744508054701" transform="rotate(0 50 289)" width="152" x="709" y="190" /><polygon fill="none" points="276,51 798,353 853,112 502,183 612,474" stroke="rgb(109, 70, 234)" stroke-width="3.3357329526078274" /><polygon fill="none" points="866,45 498,86 29,273 608,73 1039,319 460,336" stroke="rgb(202, 164, 2)" stroke-width="2.0432790375027317" /><path d="M635,433 L403,133 C474,57 18,160 836,510 C319,69 828,301 24,236 Q28,486 1004,454 L475,404 C1060,83 774,536 21,227" fill="none" stroke="rgb(180, 214, 211)" stroke-width="0.5066559000612929" /><polygon fill="none" points="940,116 489,566 679,280 254,488 275,146 732,336 112,495 901,462" stroke="rgb(163, 63, 21)" stroke-width="2.6260085490716953" /><line stroke="rgb(148, 197, 202)" stroke-width="0.6564018723343599" x1="773" x2="566" y1="218" y2="367" /><line stroke="rgb(202, 139, 115)" stroke-width="1.3918741338723346" x1="683" x2="945" y1="293" y2="169" /><line stroke="rgb(121, 5, 217)" stroke-width="2.0989273156405166" x1="799" x2="280" y1="354" y2="545" /><line stroke="rgb(125, 161, 24)" stroke-width="2.0623518653698456" x1="527" x2="1009" y1="8" y2="6" /><rect fill="none" height="46" stroke="rgb(252, 180, 180)" stroke-width="3.1898871706052083" transform="rotate(223 452 235)" width="108" x="706" y="206" /><circle cx="816" cy="234" fill="none" opacity="0.7413634437292428" r="93" stroke="rgb(150, 165, 196)" stroke-width="3.1781355526620656" /><circle cx="86" cy="140" fill="none" opacity="0.6545727847706315" r="126" stroke="rgb(16, 173, 144)" stroke-width="2.4580046371459727" /><rect fill="none" height="117" stroke="rgb(216, 35, 247)" stroke-width="4.589770833374533" transform="rotate(144 851 548)" width="123" x="347" y="241" /><rect fill="none" height="119" stroke="rgb(241, 14, 157)" stroke-width="2.963180640905622" transform="rotate(196 906 2)" width="122" x="116" y="399" /><rect fill="none" height="47" stroke="rgb(45, 165, 122)" stroke-width="3.278678860583022" transform="rotate(155 921 451)" width="114" x="308" y="44" /><circle cx="518" cy="287" fill="none" opacity="0.8880049756115889" r="127" stroke="rgb(146, 115, 163)" stroke-width="4.287832566192373" /><rect fill="none" height="155" stroke="rgb(198, 6, 22)" stroke-width="4.207047555065666" transform="rotate(97 399 413)" width="181" x="304" y="187" /><line stroke="rgb(198, 215, 81)" stroke-width="1.472523382659454" x1="873" x2="424" y1="227" y2="569" /><line stroke="rgb(147, 163, 187)" stroke-width="1.821440998884501" x1="610" x2="197" y1="542" y2="31" /><line stroke="rgb(169, 65, 63)" stroke-width="1.2945231214011008" x1="432" x2="310" y1="286" y2="279" /><line stroke="rgb(184, 182, 0)" stroke-width="0.8901727913723291" x1="329" x2="1042" y1="108" y2="31" /><line stroke="rgb(128, 76, 122)" stroke-width="2.6994152615032396" x1="50" x2="1038" y1="383" y2="437" /><line stroke="rgb(165, 237, 191)" stroke-width="1.016301503590688" x1="47" x2="1048" y1="301" y2="527" /><circle cx="84" cy="401" fill="none" opacity="0.46162485185922086" r="138" stroke="rgb(118, 212, 187)" stroke-width="1.5013302196901317" /><circle cx="508" cy="173" fill="none" opacity="0.7747907178430182" r="97" stroke="rgb(236, 21, 47)" stroke-width="4.999066018143183" /><polygon fill="none" points="971,177 556,524 492,157 714,485 241,231 613,506 1046,200 460,128" stroke="rgb(25, 68, 217)" stroke-width="1.0055678943158581" /><line stroke="rgb(147, 215, 224)" stroke-width="1.8028467442134726" x1="709" x2="864" y1="521" y2="228" /><line stroke="rgb(100, 201, 33)" stroke-width="0.5949558784712392" x1="399" x2="871" y1="132" y2="534" /><line stroke="rgb(149, 21, 85)" stroke-width="1.8304325378754311" x1="921" x2="704" y1="45" y2="542" /><line stroke="rgb(2, 104, 178)" stroke-width="2.723480159393362" x1="442" x2="693" y1="344" y2="114" /><line stroke="rgb(5, 208, 117)" stroke-width="1.621596029666414" x1="225" x2="603" y1="379" y2="333" /><line stroke="rgb(113, 136, 205)" stroke-width="0.8277469417899581" x1="925" x2="869" y1="499" y2="518" /><line stroke="rgb(210, 119, 75)" stroke-width="2.279066711266422" x1="835" x2="212" y1="406" y2="159" /><line stroke="rgb(92, 63, 132)" stroke-width="1.5590147575170383" x1="211" x2="767" y1="407" y2="214" /><line stroke="rgb(83, 142, 197)" stroke-width="1.9569945024260267" x1="944" x2="986" y1="567" y2="364" /><circle cx="591" cy="152" fill="none" opacity="0.7748793779110486" r="110" stroke="rgb(38, 155, 192)" stroke-width="3.8904760150945594" /><rect fill="none" height="192" stroke="rgb(254, 98, 91)" stroke-width="1.0777255415857376" transform="rotate(35 906 204)" width="92" x="791" y="167" /><rect fill="none" height="116" stroke="rgb(218, 127, 158)" stroke-width="3.430588173134915" transform="rotate(300 948 205)" width="20" x="61" y="114" /><circle cx="477" cy="372" fill="none" opacity="0.9667352167953702" r="106" stroke="rgb(165, 44, 195)" stroke-width="2.133305018586264" /></svg>