<svg baseProfile="full" height="716px" version="1.1" width="779px" xmlns="http://www.w3.org/2000/svg" xmlns:ev="http://www.w3.org/2001/xml-events" xmlns:xlink="http://www.w3.org/1999/xlink"><defs /><rect fill="rgb(201, 230, 235)" height="716px" width="779px" x="0" y="0" /><polygon fill="none" points="311,328 527,553 658,306 353,254 255,66 61,354" stroke="rgb(46, 151, 30)" stroke-width="3.0330144079153705" /><polygon fill="none" points="1,65 709,156 11,94 18,523" stroke="rgb(12, 135, 194)" stroke-width="3.8890382486539106" /><circle cx="60" cy="364" fill="none" opacity="0.9229056776770741" r="16" stroke="rgb(146, 123, 185)" stroke-width="4.285553156280093" /><line stroke="rgb(39, 143, 228)" stroke-width="2.6695088266418314" x1="621" x2="767" y1="62" y2="635" /><line stroke="rgb(184, 167, 80)" stroke-width="1.6195799025632545" x1="666" x2="474" y1="284" y2="84" /><line stroke="rgb(15, 20, 6)" stroke-width="1.5789156298687321" x1="189" x2="173" y1="175" y2="104" /><line stroke="rgb(177, 247, 134)" stroke-width="0.7150184925104373" x1="127" x2="668" y1="307" y2="492" /><circle cx="54" cy="403" fill="none" opacity="0.7811200701117782" r="33" stroke="rgb(130, 203, 51)" stroke-width="4.128966406300731" /><polygon fill="none" points="481,342 200,177 717,135 585,273 750,449 33,373 686,550" stroke="rgb(117, 89, 64)" stroke-width="2.2904419572650885" /><path d="M724,451 C166,597 705,89 75,332 Q102,573 21,216 Q571,71 433,223 C515,428 244,677 35,564 L608,663" fill="none" stroke="rgb(189, 86, 211)" stroke-width="0.528963623568782" /><rect fill="none" height="196" stroke="rgb(103, 55, 195)" stroke-width="4.967168190445057" transform="rotate(326 742 715)" width="41" x="138" y="523" /><line stroke="rgb(67, 206, 29)" stroke-width="1.2196524128640065" x1="687" x2="482" y1="376" y2="487" /><line stroke="rgb(192, 112, 220)" stroke-width="2.074453355794329" x1="729" x2="66" y1="705" y2="486" /><line stroke="rgb(176, 49, 177)" stroke-width="2.040114456888897" x1="138" x2="85" y1="473" y2="562" /><line stroke="rgb(218, 215, 45)" stroke-width="0.7835252300174662" x1="381" x2="444" y1="416" y2="45" /><line stroke="rgb(184, 54, 249)" stroke-width="0.651642791934572" x1="778" x2="604" y1="26" y2="497" /><line stroke="rgb(184, 109, 54)" stroke-width="2.8179399437703454" x1="32" x2="427" y1="117" y2="199" /><line stroke="rgb(14, 246, 223)" stroke-width="2.4129041369286828" x1="338" x2="448" y1="192" y2="114" /><line stroke="rgb(58, 240, 116)" stroke-width="1.101322691638937" x1="8" x2="649" y1="546" y2="23" /><line stroke="rgb(36, 131, 60)" stroke-width="1.1761037351199517" x1="738" x2="29" y1="593" y2="703" /><line stroke="rgb(170, 254, 235)" stroke-width="1.9733852961913123" x1="203" x2="248" y1="618" y2="244" /><line stroke="rgb(83, 4, 24)" stroke-width="1.5413509746462015" x1="290" x2="57" y1="679" y2="171" /><line stroke="rgb(98, 21, 82)" stroke-width="2.7307702367395876" x1="38" x2="585" y1="691" y2="458" /><line stroke="rgb(137, 116, 80)" stroke-width="1.4791755327992289" x1="110" x2="767" y1="505" y2="536" /><line stroke="rgb(136, 98, 239)" stroke-width="1.6662162585764397" x1="680" x2="289" y1="114" y2="1" /><line stroke="rgb(40, 251, 229)" stroke-width="0.5860108928564585" x1="733" x2="667" y1="177" y2="69" /><line stroke="rgb(55, 42, 118)" stroke-width="1.1222021856794955" x1="373" x2="169" y1="547" y2="658" /><line stroke="rgb(215, 68, 58)" stroke-width="1.7342271176788802" x1="573" x2="458" y1="169" y2="485" /><line stroke="rgb(247, 75, 130)" stroke-width="2.9099063380825054" x1="495" x2="229" y1="310" y2="149" /><path d="M365,527 C688,357 698,275 359,538 C112,361 687,339 242,522 Q622,51 192,337 L470,552 L674,467 Q531,579 268,652 L79,116" fill="none" stroke="rgb(115, 183, 249)" stroke-width="2.0910901301147167" /><circle cx="218" cy="50" fill="none" opacity="0.6568759658214409" r="78" stroke="rgb(184, 82, 246)" stroke-width="4.889992944618443" /><rect fill="none" height="79" stroke="rgb(233, 28, 12)" stroke-width="1.3376888322243192" transform="rotate(136 356 275)" width="99" x="193" y="340" /><circle cx="665" cy="339" fill="none" opacity="0.37694234005187816" r="160" stroke="rgb(238, 215, 95)" stroke-width="3.3914529563555127" /><line stroke="rgb(146, 200, 183)" stroke-width="2.546839965960674" x1="507" x2="595" y1="433" y2="138" /><line stroke="rgb(165, 60, 167)" stroke-width="2.746337564887855" x1="633" x2="362" y1="26" y2="267" /><line stroke="rgb(171, 173, 126)" stroke-width="2.3539861944740776" x1="597" x2="204" y1="621" y2="668" /><line stroke="rgb(51, 199, 243)" stroke-width="0.6295296384231021" x1="442" x2="121" y1="190" y2="422" /><line stroke="rgb(136, 235, 0)" stroke-width="1.3614436949135673" x1="321" x2="78" y1="432" y2="501" /><line stroke="rgb(86, 52, 87)" stroke-width="2.3610638662874974" x1="480" x2="530" y1="563" y2="269" /><line stroke="rgb(3, 135, 2)" stroke-width="1.2988643799192638" x1="525" x2="307" y1="376" y2="594" /><line stroke="rgb(28, 102, 106)" stroke-width="1.8024391459922002" x1="472" x2="576" y1="703" y2="605" /><line stroke="rgb(13, 80, 91)" stroke-width="2.8652967399700224" x1="529" x2="501" y1="110" y2="188" /><path d="M92,349 C73,153 623,241 189,365 Q433,655 148,61 L637,547 C525,128 425,644 349,500 Q718,267 769,691 C581,365 380,618 643,16 L675,419" fill="none" stroke="rgb(25, 182, 92)" stroke-width="2.373435989389179" /><line stroke="rgb(148, 1, 180)" stroke-width="2.4678237686918276" x1="491" x2="503" y1="372" y2="608" /><line stroke="rgb(107, 55, 134)" stroke-width="2.1508960342197216" x1="155" x2="369" y1="33" y2="664" /><line stroke="rgb(178, 174, 184)" stroke-width="0.6942875272089859" x1="71" x2="638" y1="651" y2="157" /><line stroke="rgb(97, 247, 51)" stroke-width="2.988323344034889" x1="8" x2="493" y1="527" y2="414" /><polygon fill="none" points="394,55 160,358 41,186 145,289" stroke="rgb(33, 43, 223)" stroke-width="0.5938697920389296" /><circle cx="245" cy="557" fill="none" opacity="0.9639559099717467" r="123" stroke="rgb(155, 143, 190)" stroke-width="4.981308342422121" /><line stroke="rgb(128, 14, 200)" stroke-width="1.6074333218939154" x1="90" x2="683" y1="591" y2="461" /><line stroke="rgb(147, 183, 177)" stroke-width="1.8178928277670452" x1="200" x2="172" y1="426" y2="403" /><line stroke="rgb(99, 100, 180)" stroke-width="0.5504186763513365" x1="96" x2="250" y1="447" y2="146" /><line stroke="rgb(154, 156, 36)" stroke-width="2.8365600497273604" x1="465" x2="138" y1="553" y2="0" /><line stroke="rgb(124, 151, 26)" stroke-width="2.021533186061945" x1="3" x2="261" y1="420" y2="623" /><line stroke="rgb(35, 205, 130)" stroke-width="2.718449449378172" x1="702" x2="739" y1="270" y2="515" /><line stroke="rgb(243, 170, 224)" stroke-width="1.2291352323355527" x1="667" x2="511" y1="577" y2="400" /><line stroke="rgb(9, 12, 233)" stroke-width="0.8570188950386061" x1="270" x2="398" y1="317" y2="311" /><line stroke="rgb(106, 97, 161)" stroke-width="1.428758609732224" x1="462" x2="283" y1="634" y2="357" /><line stroke="rgb(54, 32, 166)" stroke-width="2.0516890936946304" x1="686" x2="541" y1="656" y2="34" /><rect fill="none" height="112" stroke="rgb(178, 221, 185)" stroke-width="4.604400240148538" transform="rotate(9 317 564)" width="104" x="623" y="301" /><path d="M510,711 C304,649 636,236 369,664 Q375,625 60,308 L138,453 Q411,674 266,461" fill="none" stroke="rgb(185, 111, 228)" stroke-width="2.617793586426721" /><path d="M643,207 C130,419 216,502 427,386 L522,471 L413,449" fill="none" stroke="rgb(27, 201, 169)" stroke-width="2.596359314010929" /><circle cx="354" cy="437" fill="none" opacity="0.8278148376098577" r="127" stroke="rgb(61, 116, 204)" stroke-width="3.377437154932313" /><line stroke="rgb(45, 183, 28)" stroke-width="2.5761878807394503" x1="190" x2="488" y1="396" y2="669" /><line stroke="rgb(168, 178, 204)" stroke-width="2.7122277070442684" x1="365" x2="546" y1="248" y2="48" /><line stroke="rgb(176, 204, 99)" stroke-width="2.109132294785427" x1="153" x2="726" y1="387" y2="580" /><line stroke="rgb(129, 140, 147)" stroke-width="1.987052335407988" x1="686" x2="222" y1="489" y2="304" /><line stroke="rgb(104, 224, 15)" stroke-width="0.9746629474342858" x1="147" x2="643" y1="381" y2="511" /><line stroke="rgb(69, 179, 124)" stroke-width="0.5152722463663457" x1="72" x2="477" y1="112" y2="589" /><line stroke="rgb(255, 255, 174)" stroke-width="2.1665330288033804" x1="85" x2="290" y1="261" y2="370" /><line stroke="rgb(124, 151, 178)" stroke-width="0.5315006294290985" x1="261" x2="343" y1="162" y2="696" /><line stroke="rgb(124, 164, 21)" stroke-width="2.6312123839456465" x1="100" x2="215" y1="573" y2="585" /><rect fill="none" height="168" stroke="rgb(19, 194, 136)" stroke-width="3.5055344151216867" transform="rotate(122 210 552)" width="167" x="415" y="265" /><rect fill="none" height="43" stroke="rgb(210, 6, 111)" stroke-width="3.5164545218439835" transform="rotate(139 205 429)" width="94" x="185" y="365" /><polygon fill="none" points="230,230 133,544 347,117 130,93 170,494" stroke="rgb(206, 244, 121)" stroke-width="0.9644044717853297" /><polygon fill="none" points="34,175 215,624 317,177 209,258 73,207 413,429 64,450" stroke="rgb(8, 37, 29)" stroke-width="3.4815076159774527" /><circle cx="528" cy="114" fill="none" opacity="0.8084910076845968" r="157" stroke="rgb(200, 62, 159)" stroke-width="4.942744475924477" /><line stroke="rgb(195, 12, 46)" stroke-width="2.7094339015897297" x1="40" x2="595" y1="611" y2="603" /><line stroke="rgb(91, 126, 153)" stroke-width="2.827075219884373" x1="702" x2="279" y1="83" y2="14" /><line stroke="rgb(253, 174, 109)" stroke-width="1.2958876026219586" x1="260" x2="540" y1="190" y2="416" /><polygon fill="none" points="319,174 74,1 352,176" stroke="rgb(55, 117, 133)" stroke-width="3.0933446340153634" /><circle cx="99" cy="391" fill="none" opacity="0.43324852988687934" r="148" stroke="rgb(255, 159, 170)" stroke-width="1.897646377941501" /></svg>