<svg baseProfile="full" height="486px" version="1.1" width="913px" xmlns="http://www.w3.org/2000/svg" xmlns:ev="http://www.w3.org/2001/xml-events" xmlns:xlink="http://www.w3.org/1999/xlink"><defs /><rect fill="rgb(204, 217, 205)" height="486px" width="913px" x="0" y="0" /><rect fill="none" height="79" stroke="rgb(78, 131, 196)" stroke-width="0.6341078490010588" transform="rotate(137 820 19)" width="142" x="433" y="195" /><polygon fill="none" points="283,255 98,124 385,65 521,463 670,359 147,403 402,295 80,190" stroke="rgb(6, 102, 203)" stroke-width="2.097430762975275" /><path d="M326,118 L38,207 L479,90 Q471,387 660,111 Q904,402 542,237" fill="none" stroke="rgb(7, 103, 250)" stroke-width="1.3919160553771146" /><polygon fill="none" points="177,333 489,397 791,262" stroke="rgb(76, 184, 143)" stroke-width="3.1583482120660893" /><polygon fill="none" points="378,334 95,134 500,368 661,132 188,394 508,266 858,31 117,117" stroke="rgb(143, 29, 251)" stroke-width="1.5477414521147868" /><line stroke="rgb(19, 104, 57)" stroke-width="1.2122595703770784" x1="562" x2="480" y1="304" y2="416" /><line stroke="rgb(86, 140, 248)" stroke-width="2.269851564002022" x1="71" x2="343" y1="81" y2="161" /><line stroke="rgb(78, 146, 233)" stroke-width="1.2039675429319896" x1="92" x2="669" y1="373" y2="68" /><line stroke="rgb(19, 217, 25)" stroke-width="1.4085244058542514" x1="893" x2="272" y1="90" y2="97" /><line stroke="rgb(0, 51, 171)" stroke-width="0.9163298801337625" x1="375" x2="667" y1="391" y2="424" /><line stroke="rgb(77, 236, 142)" stroke-width="1.491555127006628" x1="521" x2="566" y1="433" y2="453" /><line stroke="rgb(22, 168, 69)" stroke-width="2.016489497970842" x1="776" x2="542" y1="290" y2="380" /><line stroke="rgb(145, 84, 193)" stroke-width="0.7457255711556086" x1="516" x2="730" y1="133" y2="332" /><line stroke="rgb(217, 50, 184)" stroke-width="1.979775638258872" x1="240" x2="502" y1="244" y2="134" /><line stroke="rgb(214, 51, 189)" stroke-width="2.593620163912319" x1="200" x2="614" y1="260" y2="459" /><line stroke="rgb(17, 137, 14)" stroke-width="0.5947304528657236" x1="774" x2="67" y1="174" y2="127" /><line stroke="rgb(98, 63, 121)" stroke-width="0.5664978673126839" x1="668" x2="686" y1="388" y2="478" /><line stroke="rgb(171, 222, 74)" stroke-width="1.7165565826368898" x1="624" x2="254" y1="92" y2="294" /><line stroke="rgb(229, 40, 101)" stroke-width="0.7107097600065322" x1="733" x2="244" y1="469" y2="41" /><circle cx="654" cy="188" fill="none" opacity="0.9038123269756282" r="116" stroke="rgb(219, 253, 30)" stroke-width="3.9143249054936367" /><rect fill="none" height="121" stroke="rgb(176, 221, 26)" stroke-width="3.40339867294698" transform="rotate(115 507 71)" width="112" x="278" y="87" /><path d="M613,16 L725,137 C277,329 31,16 782,3 Q765,91 671,434 L135,366 L645,85 C469,460 161,486 189,416" fill="none" stroke="rgb(242, 52, 145)" stroke-width="1.674229518448855" /><rect fill="none" height="184" stroke="rgb(100, 58, 40)" stroke-width="4.0637238960771676" transform="rotate(330 486 53)" width="162" x="290" y="115" /><polygon fill="none" points="530,364 270,262 4,324 4,419 120,147 687,417 217,130 187,478" stroke="rgb(48, 74, 204)" stroke-width="2.7837087071812645" /><polygon fill="none" points="530,60 406,212 765,87 61,17" stroke="rgb(47, 71, 225)" stroke-width="0.5485366225015473" /><path d="M742,253 Q806,393 734,317 L310,447 L188,420 Q414,418 454,429 C395,472 562,461 80,25 L607,246" fill="none" stroke="rgb(10, 167, 213)" stroke-width="1.4511057913955347" /><polygon fill="none" points="578,271 522,78 53,297 599,407" stroke="rgb(95, 110, 77)" stroke-width="1.6792487982528725" /><polygon fill="none" points="249,72 421,369 372,481 874,364 701,110" stroke="rgb(129, 194, 210)" stroke-width="0.8266507419729713" /><circle cx="583" cy="409" fill="none" opacity="0.4155946864970314" r="90" stroke="rgb(254, 228, 11)" stroke-width="1.1594621950121313" /><path d="M515,141 Q26,279 750,276 Q425,15 10,409 Q779,447 565,367 L523,158" fill="none" stroke="rgb(77, 104, 229)" stroke-width="2.841627766728021" /><path d="M661,396 L687,109 Q744,401 436,249 C261,201 499,340 832,69 Q611,103 445,378" fill="none" stroke="rgb(77, 240, 204)" stroke-width="2.798612847845218" /><polygon fill="none" points="602,28 364,23 826,28 451,125 875,94 223,72" stroke="rgb(0, 72, 79)" stroke-width="3.3698414502686713" /><line stroke="rgb(233, 83, 21)" stroke-width="1.5162451732452003" x1="363" x2="636" y1="142" y2="52" /><line stroke="rgb(88, 70, 245)" stroke-width="2.67393813881663" x1="201" x2="880" y1="453" y2="120" /><line stroke="rgb(228, 2, 56)" stroke-width="1.1371214866065198" x1="739" x2="230" y1="345" y2="51" /><line stroke="rgb(139, 168, 194)" stroke-width="2.7438915956136003" x1="105" x2="649" y1="331" y2="203" /><line stroke="rgb(236, 226, 144)" stroke-width="0.7390946565716212" x1="329" x2="720" y1="331" y2="123" /><line stroke="rgb(184, 73, 71)" stroke-width="2.488989212913805" x1="809" x2="378" y1="217" y2="10" /><line stroke="rgb(24, 35, 113)" stroke-width="2.031516810670895" x1="618" x2="244" y1="172" y2="162" /><circle cx="710" cy="423" fill="none" opacity="0.9815996562240865" r="111" stroke="rgb(137, 245, 255)" stroke-width="1.3541126041484044" /></svg>