<svg baseProfile="full" height="665px" version="1.1" width="746px" xmlns="http://www.w3.org/2000/svg" xmlns:ev="http://www.w3.org/2001/xml-events" xmlns:xlink="http://www.w3.org/1999/xlink"><defs /><rect fill="rgb(219, 237, 225)" height="665px" width="746px" x="0" y="0" /><circle cx="518" cy="468" fill="none" opacity="0.4044372192843556" r="29" stroke="rgb(153, 173, 153)" stroke-width="1.291026464616335" /><polygon fill="none" points="312,32 577,283 659,124 107,555 334,567 7,129 48,653 169,571" stroke="rgb(200, 126, 217)" stroke-width="2.4310962164655674" /><line stroke="rgb(193, 186, 29)" stroke-width="2.069465421918008" x1="578" x2="500" y1="604" y2="597" /><line stroke="rgb(55, 115, 53)" stroke-width="0.650472299206047" x1="242" x2="105" y1="540" y2="423" /><line stroke="rgb(170, 121, 238)" stroke-width="1.151041353962042" x1="475" x2="86" y1="512" y2="229" /><line stroke="rgb(111, 219, 235)" stroke-width="2.983985805516751" x1="71" x2="493" y1="611" y2="195" /><path d="M270,190 L554,32 Q496,558 156,468 L667,21 C166,271 322,397 203,12 C86,255 489,459 258,439" fill="none" stroke="rgb(123, 233, 156)" stroke-width="1.4833431869563056" /><polygon fill="none" points="75,486 238,425 665,61 541,75" stroke="rgb(33, 131, 36)" stroke-width="2.512907703093006" /><polygon fill="none" points="83,665 37,328 483,331 338,201 125,651" stroke="rgb(30, 29, 224)" stroke-width="1.5238001495174935" /><path d="M731,527 L126,393 C4,96 493,310 459,640 Q740,370 146,411 Q14,446 35,158 Q547,383 51,132" fill="none" stroke="rgb(105, 106, 65)" stroke-width="1.7872928259108454" /><line stroke="rgb(112, 240, 219)" stroke-width="1.9772412099897547" x1="100" x2="521" y1="8" y2="245" /><line stroke="rgb(175, 198, 250)" stroke-width="2.218449240922703" x1="174" x2="713" y1="322" y2="423" /><line stroke="rgb(149, 224, 70)" stroke-width="1.4332520024756636" x1="29" x2="701" y1="563" y2="435" /><line stroke="rgb(101, 188, 86)" stroke-width="1.705738322059716" x1="518" x2="205" y1="654" y2="51" /><line stroke="rgb(115, 160, 129)" stroke-width="0.9130350072217526" x1="2" x2="560" y1="437" y2="123" /><line stroke="rgb(180, 169, 181)" stroke-width="2.049572182971676" x1="175" x2="419" y1="460" y2="627" /><line stroke="rgb(76, 0, 115)" stroke-width="2.2797719595930417" x1="481" x2="530" y1="328" y2="82" /><line stroke="rgb(107, 183, 76)" stroke-width="1.4660202658863815" x1="126" x2="33" y1="563" y2="647" /><path d="M463,195 C665,55 485,452 282,598 Q374,584 572,453 L271,381" fill="none" stroke="rgb(109, 162, 58)" stroke-width="1.5090080131368668" /><rect fill="none" height="74" stroke="rgb(125, 65, 236)" stroke-width="3.3852908740173953" transform="rotate(113 366 134)" width="51" x="298" y="146" /><polygon fill="none" points="533,638 621,172 340,58 268,471 359,567 437,288 200,424" stroke="rgb(176, 152, 156)" stroke-width="2.8798998397041844" /><circle cx="146" cy="341" fill="none" opacity="0.72050574590329" r="96" stroke="rgb(17, 187, 133)" stroke-width="2.488750781132943" /><polygon fill="none" points="296,663 527,172 189,518 122,653 542,35" stroke="rgb(181, 51, 122)" stroke-width="2.948681106835846" /><rect fill="none" height="122" stroke="rgb(232, 196, 81)" stroke-width="4.768769700991545" transform="rotate(88 54 236)" width="48" x="185" y="145" /><polygon fill="none" points="455,413 219,185 425,558 177,601 38,361 581,343 711,457 470,482" stroke="rgb(255, 141, 195)" stroke-width="0.8129897428037263" /><polygon fill="none" points="337,580 138,234 612,338 543,444 417,313 334,119" stroke="rgb(135, 134, 138)" stroke-width="3.8776331942727102" /><line stroke="rgb(155, 174, 61)" stroke-width="1.1115323289231622" x1="137" x2="18" y1="276" y2="175" /><line stroke="rgb(133, 96, 16)" stroke-width="1.9223021971487435" x1="198" x2="73" y1="231" y2="483" /><line stroke="rgb(241, 49, 88)" stroke-width="1.5480340001869093" x1="137" x2="515" y1="301" y2="401" /><line stroke="rgb(205, 121, 228)" stroke-width="1.068153086751801" x1="419" x2="737" y1="658" y2="229" /><line stroke="rgb(24, 30, 234)" stroke-width="0.9956811935474106" x1="727" x2="126" y1="152" y2="642" /><line stroke="rgb(216, 19, 167)" stroke-width="1.9295795466364272" x1="360" x2="612" y1="276" y2="121" /><line stroke="rgb(163, 192, 42)" stroke-width="0.9714228278201884" x1="464" x2="357" y1="268" y2="509" /><line stroke="rgb(247, 21, 221)" stroke-width="0.589774681118247" x1="45" x2="40" y1="178" y2="607" /><line stroke="rgb(82, 79, 58)" stroke-width="2.097575742337356" x1="432" x2="633" y1="310" y2="173" /><line stroke="rgb(69, 117, 213)" stroke-width="2.6262795139725266" x1="729" x2="203" y1="155" y2="44" /><path d="M272,589 L397,643 C383,54 546,113 310,241 C685,279 318,300 638,62" fill="none" stroke="rgb(92, 93, 15)" stroke-width="0.5682891454701418" /><polygon fill="none" points="228,335 141,639 722,347" stroke="rgb(20, 59, 204)" stroke-width="3.387892640008629" /><circle cx="204" cy="72" fill="none" opacity="0.5208530762909064" r="165" stroke="rgb(173, 150, 247)" stroke-width="2.0480866016975754" /><circle cx="323" cy="567" fill="none" opacity="0.6598393038810262" r="132" stroke="rgb(124, 192, 177)" stroke-width="1.438253443178942" /><circle cx="378" cy="203" fill="none" opacity="0.6797437778132907" r="124" stroke="rgb(215, 194, 241)" stroke-width="3.249660959539375" /><line stroke="rgb(5, 131, 58)" stroke-width="2.0393021675664675" x1="73" x2="76" y1="10" y2="123" /><line stroke="rgb(147, 162, 18)" stroke-width="1.6073809027166144" x1="444" x2="726" y1="164" y2="371" /><line stroke="rgb(19, 246, 63)" stroke-width="2.2524188305562705" x1="116" x2="232" y1="546" y2="166" /><line stroke="rgb(248, 153, 145)" stroke-width="1.1501379426078588" x1="516" x2="176" y1="577" y2="38" /><circle cx="692" cy="609" fill="none" opacity="0.6247364801116561" r="79" stroke="rgb(218, 31, 4)" stroke-width="3.758120179120337" /><path d="M573,296 Q98,652 268,89 L542,113 C542,241 113,31 108,164 C512,418 669,268 696,107 L132,595 Q384,17 321,214 L681,568" fill="none" stroke="rgb(36, 97, 83)" stroke-width="2.650593797924207" /><line stroke="rgb(175, 89, 65)" stroke-width="0.8510262277621723" x1="499" x2="372" y1="165" y2="81" /><line stroke="rgb(39, 153, 15)" stroke-width="2.863593626123945" x1="296" x2="554" y1="599" y2="131" /><line stroke="rgb(162, 193, 162)" stroke-width="0.7454525356897599" x1="34" x2="474" y1="504" y2="331" /><line stroke="rgb(79, 33, 97)" stroke-width="1.9641825659566146" x1="130" x2="702" y1="65" y2="195" /><line stroke="rgb(45, 107, 163)" stroke-width="1.2177189447139611" x1="2" x2="71" y1="651" y2="248" /><line stroke="rgb(211, 213, 24)" stroke-width="0.5841697863283802" x1="661" x2="242" y1="392" y2="473" /><line stroke="rgb(196, 140, 59)" stroke-width="0.6244470551048447" x1="603" x2="92" y1="9" y2="219" /><line stroke="rgb(46, 198, 228)" stroke-width="2.2731147812666226" x1="350" x2="152" y1="414" y2="342" /><circle cx="70" cy="283" fill="none" opacity="0.3288288826210885" r="65" stroke="rgb(189, 178, 209)" stroke-width="2.4807785723815035" /><line stroke="rgb(99, 252, 233)" stroke-width="1.4965787768783954" x1="513" x2="200" y1="64" y2="27" /><line stroke="rgb(15, 202, 30)" stroke-width="1.23675223756174" x1="343" x2="416" y1="520" y2="26" /><line stroke="rgb(115, 235, 114)" stroke-width="0.8919311671243244" x1="391" x2="282" y1="149" y2="615" /><circle cx="141" cy="152" fill="none" opacity="0.8351780538878326" r="154" stroke="rgb(5, 31, 164)" stroke-width="4.149731660448249" /><path d="M118,574 L377,425 Q380,625 403,390 C131,630 394,506 312,450 L44,243 Q217,544 586,76" fill="none" stroke="rgb(146, 213, 8)" stroke-width="2.399569915480721" /><line stroke="rgb(15, 211, 51)" stroke-width="0.5794641404651117" x1="377" x2="336" y1="387" y2="215" /><line stroke="rgb(86, 245, 131)" stroke-width="2.6124358314712537" x1="560" x2="450" y1="68" y2="66" /><line stroke="rgb(251, 13, 55)" stroke-width="2.9159034393825323" x1="224" x2="611" y1="469" y2="449" /><line stroke="rgb(179, 77, 143)" stroke-width="1.428049507923259" x1="164" x2="214" y1="546" y2="453" /><line stroke="rgb(28, 136, 189)" stroke-width="0.6601614284678674" x1="645" x2="727" y1="196" y2="645" /><line stroke="rgb(60, 21, 136)" stroke-width="1.891592294386934" x1="622" x2="531" y1="614" y2="72" /><line stroke="rgb(222, 32, 101)" stroke-width="0.7920423220964943" x1="71" x2="577" y1="330" y2="450" /><line stroke="rgb(208, 238, 166)" stroke-width="1.4847296326565118" x1="500" x2="234" y1="562" y2="46" /><line stroke="rgb(190, 59, 109)" stroke-width="0.9140001886142991" x1="692" x2="40" y1="572" y2="609" /><line stroke="rgb(101, 114, 151)" stroke-width="1.2623796201406523" x1="515" x2="465" y1="162" y2="409" /><circle cx="209" cy="290" fill="none" opacity="0.7111394426013946" r="52" stroke="rgb(149, 11, 232)" stroke-width="1.5344430697704485" /><polygon fill="none" points="218,159 181,324 32,587 338,620 2,504 446,611 420,300 594,145" stroke="rgb(34, 233, 221)" stroke-width="0.852301738657183" /><polygon fill="none" points="31,65 396,95 15,20 91,84 743,302 411,421" stroke="rgb(13, 152, 202)" stroke-width="1.8865969008935024" /><path d="M464,293 L77,372 Q333,490 581,626 Q305,550 638,103 C2,276 674,151 643,532 C311,286 636,119 242,461 L116,485" fill="none" stroke="rgb(168, 160, 12)" stroke-width="1.4819456928900125" /><rect fill="none" height="163" stroke="rgb(168, 190, 175)" stroke-width="3.053265736382207" transform="rotate(345 330 248)" width="71" x="321" y="565" /><polygon fill="none" points="156,238 542,336 679,421 468,347" stroke="rgb(249, 216, 185)" stroke-width="3.1335098531688024" /><circle cx="276" cy="302" fill="none" opacity="0.655651234703531" r="52" stroke="rgb(103, 220, 196)" stroke-width="2.1838310159514824" /><line stroke="rgb(155, 220, 229)" stroke-width="2.368896768342906" x1="59" x2="670" y1="210" y2="534" /><line stroke="rgb(215, 141, 134)" stroke-width="1.9509209527889022" x1="623" x2="375" y1="309" y2="71" /><line stroke="rgb(9, 135, 45)" stroke-width="0.6134824660741335" x1="552" x2="187" y1="314" y2="84" /><circle cx="228" cy="448" fill="none" opacity="0.8366928080735669" r="160" stroke="rgb(156, 0, 229)" stroke-width="3.8279376876662043" /><circle cx="495" cy="391" fill="none" opacity="0.7444474585353253" r="132" stroke="rgb(83, 150, 164)" stroke-width="2.471284340224746" /><circle cx="238" cy="267" fill="none" opacity="0.3926258755420811" r="24" stroke="rgb(10, 63, 65)" stroke-width="0.6063986347959973" /><path d="M420,441 L32,592 L370,418 L225,101 Q136,171 270,449 L508,645 Q442,68 280,425 L303,331" fill="none" stroke="rgb(102, 183, 103)" stroke-width="2.0150443533498983" /><circle cx="139" cy="277" fill="none" opacity="0.34635407780952066" r="15" stroke="rgb(235, 179, 92)" stroke-width="3.0296191246530078" /><polygon fill="none" points="588,632 516,648 531,395 102,665" stroke="rgb(108, 79, 251)" stroke-width="1.5602901997963476" /><path d="M85,115 L688,661 L297,548 Q529,253 714,17 Q698,456 546,313" fill="none" stroke="rgb(241, 100, 194)" stroke-width="1.8548464361943289" /><line stroke="rgb(66, 189, 51)" stroke-width="1.876018532484923" x1="222" x2="275" y1="46" y2="74" /><line stroke="rgb(205, 88, 154)" stroke-width="0.9684681026805859" x1="479" x2="652" y1="289" y2="304" /><line stroke="rgb(63, 117, 64)" stroke-width="1.3481757619794463" x1="710" x2="99" y1="88" y2="150" /><line stroke="rgb(168, 101, 227)" stroke-width="1.985165086806278" x1="274" x2="405" y1="26" y2="237" /><line stroke="rgb(201, 109, 123)" stroke-width="0.8821695950696508" x1="429" x2="303" y1="520" y2="298" /><line stroke="rgb(227, 118, 39)" stroke-width="1.4394719746092859" x1="323" x2="232" y1="622" y2="392" /><line stroke="rgb(229, 5, 98)" stroke-width="2.5560356839931786" x1="612" x2="479" y1="255" y2="466" /><line stroke="rgb(245, 181, 6)" stroke-width="0.8539725510043554" x1="254" x2="549" y1="317" y2="607" /><line stroke="rgb(181, 60, 17)" stroke-width="1.5740875290811067" x1="620" x2="613" y1="297" y2="29" /><line stroke="rgb(6, 207, 141)" stroke-width="1.6468463301534544" x1="469" x2="47" y1="649" y2="656" /><rect fill="none" height="81" stroke="rgb(174, 180, 214)" stroke-width="2.798420608835353" transform="rotate(92 149 305)" width="166" x="182" y="371" /><line stroke="rgb(80, 224, 66)" stroke-width="2.1643088435827096" x1="319" x2="657" y1="88" y2="184" /><line stroke="rgb(171, 143, 124)" stroke-width="2.0475802761506765" x1="488" x2="697" y1="170" y2="0" /><line stroke="rgb(147, 234, 15)" stroke-width="1.771419807062528" x1="53" x2="79" y1="651" y2="371" /><line stroke="rgb(145, 78, 185)" stroke-width="1.80673943234114" x1="581" x2="501" y1="123" y2="394" /><line stroke="rgb(63, 250, 202)" stroke-width="2.640809811670571" x1="663" x2="32" y1="639" y2="280" /><line stroke="rgb(155, 179, 117)" stroke-width="2.3284621330219517" x1="420" x2="233" y1="43" y2="377" /><line stroke="rgb(171, 151, 200)" stroke-width="1.6423178769642486" x1="446" x2="507" y1="631" y2="501" /><line stroke="rgb(6, 32, 180)" stroke-width="1.4903328703674177" x1="547" x2="698" y1="183" y2="305" /><polygon fill="none" points="497,92 477,223 46,432" stroke="rgb(255, 249, 242)" stroke-width="2.529506780681215" /></svg>