<svg baseProfile="full" height="526px" version="1.1" width="650px" xmlns="http://www.w3.org/2000/svg" xmlns:ev="http://www.w3.org/2001/xml-events" xmlns:xlink="http://www.w3.org/1999/xlink"><defs /><rect fill="rgb(228, 218, 200)" height="526px" width="650px" x="0" y="0" /><path d="M381,108 L254,357 Q650,83 32,224 C427,98 107,0 253,243 C213,418 464,161 94,258 Q639,86 418,227 Q462,63 257,73 Q267,374 454,353" fill="none" stroke="rgb(238, 178, 211)" stroke-width="1.859436581968009" /><circle cx="342" cy="269" fill="none" opacity="0.4250575014332799" r="15" stroke="rgb(165, 150, 148)" stroke-width="1.565937225580656" /><path d="M433,454 L46,526 L561,364 Q207,516 588,288" fill="none" stroke="rgb(126, 190, 29)" stroke-width="2.7932392922908234" /><polygon fill="none" points="26,517 102,275 151,158 515,365 237,193 99,481" stroke="rgb(3, 123, 91)" stroke-width="2.948721167252787" /><rect fill="none" height="81" stroke="rgb(196, 40, 247)" stroke-width="1.446272514097263" transform="rotate(6 360 370)" width="40" x="214" y="159" /><path d="M492,233 C22,175 640,269 549,88 L116,410 Q52,378 51,256 L250,476 C627,366 277,141 632,449 Q257,101 162,342" fill="none" stroke="rgb(79, 40, 173)" stroke-width="1.5695192852140043" /><polygon fill="none" points="111,496 207,243 374,234 176,378 386,15 246,172 464,129" stroke="rgb(226, 66, 76)" stroke-width="0.5628984995892927" /><rect fill="none" height="146" stroke="rgb(57, 161, 80)" stroke-width="0.8331381533789326" transform="rotate(102 549 351)" width="140" x="204" y="246" /><circle cx="444" cy="229" fill="none" opacity="0.4243480416929406" r="55" stroke="rgb(67, 226, 182)" stroke-width="3.279063634223304" /><rect fill="none" height="52" stroke="rgb(67, 242, 140)" stroke-width="4.950872987765942" transform="rotate(121 613 266)" width="64" x="531" y="416" /><circle cx="237" cy="131" fill="none" opacity="0.9267652368000003" r="55" stroke="rgb(52, 95, 212)" stroke-width="1.628394001363295" /><rect fill="none" height="132" stroke="rgb(148, 142, 138)" stroke-width="0.9429272453415383" transform="rotate(126 573 141)" width="27" x="207" y="342" /><polygon fill="none" points="426,234 295,21 394,246 512,325 144,18 608,358" stroke="rgb(26, 125, 171)" stroke-width="2.033344974939933" /><rect fill="none" height="82" stroke="rgb(42, 164, 67)" stroke-width="2.180376354520183" transform="rotate(328 279 326)" width="119" x="291" y="43" /><polygon fill="none" points="559,423 543,168 12,323 614,162 315,221 378,157 183,151" stroke="rgb(53, 123, 23)" stroke-width="1.909311995418912" /><path d="M319,266 L405,370 Q509,150 279,5 C300,96 466,221 328,235 L47,273 C22,466 22,198 553,24 Q450,507 154,284" fill="none" stroke="rgb(40, 9, 175)" stroke-width="2.5120933403004315" /><rect fill="none" height="140" stroke="rgb(103, 14, 222)" stroke-width="1.0759196730282063" transform="rotate(182 222 352)" width="83" x="528" y="232" /><line stroke="rgb(242, 158, 69)" stroke-width="2.369409882764537" x1="426" x2="270" y1="139" y2="422" /><line stroke="rgb(135, 226, 253)" stroke-width="2.9328526983477348" x1="360" x2="592" y1="267" y2="227" /><line stroke="rgb(90, 57, 191)" stroke-width="1.723046489842252" x1="143" x2="355" y1="37" y2="110" /><rect fill="none" height="128" stroke="rgb(185, 233, 236)" stroke-width="1.3862649496539015" transform="rotate(146 513 23)" width="48" x="374" y="87" /><polygon fill="none" points="368,449 143,4 379,40 275,292 15,165 291,144 478,279 450,48" stroke="rgb(35, 134, 230)" stroke-width="2.554871775504802" /><polygon fill="none" points="565,272 252,124 339,478 551,174 404,48 90,196" stroke="rgb(71, 137, 62)" stroke-width="0.9985441054824993" /><path d="M557,448 Q564,166 5,97 L553,93 Q644,348 265,370 C343,44 535,231 18,453 L81,21" fill="none" stroke="rgb(18, 62, 141)" stroke-width="0.935562333048713" /><rect fill="none" height="108" stroke="rgb(113, 25, 172)" stroke-width="0.775873787316692" transform="rotate(59 432 387)" width="88" x="199" y="26" /><line stroke="rgb(22, 197, 184)" stroke-width="2.178234501295376" x1="557" x2="369" y1="381" y2="182" /><line stroke="rgb(209, 114, 134)" stroke-width="2.072925758918502" x1="125" x2="568" y1="64" y2="285" /><line stroke="rgb(180, 0, 72)" stroke-width="2.9503310778622858" x1="339" x2="494" y1="123" y2="344" /><line stroke="rgb(176, 121, 3)" stroke-width="2.314918120748077" x1="529" x2="478" y1="144" y2="488" /><line stroke="rgb(96, 214, 161)" stroke-width="2.6362635305735718" x1="155" x2="144" y1="154" y2="53" /><path d="M640,121 Q177,105 171,465 Q256,523 537,278 C459,254 193,203 442,251" fill="none" stroke="rgb(179, 82, 225)" stroke-width="1.219636050191672" /><path d="M293,213 L291,461 Q428,190 405,272 Q442,18 81,243 L13,406 Q417,329 97,295 Q321,35 179,151 C181,87 295,234 500,19" fill="none" stroke="rgb(2, 254, 93)" stroke-width="0.8359191318804511" /></svg>