<svg baseProfile="full" height="550px" version="1.1" width="1157px" xmlns="http://www.w3.org/2000/svg" xmlns:ev="http://www.w3.org/2001/xml-events" xmlns:xlink="http://www.w3.org/1999/xlink"><defs /><rect fill="rgb(220, 228, 250)" height="550px" width="1157px" x="0" y="0" /><circle cx="778" cy="210" fill="none" opacity="0.6088832279971186" r="70" stroke="rgb(228, 184, 99)" stroke-width="0.8839814049379611" /><polygon fill="none" points="373,405 612,232 70,261 761,391 74,381 947,146 188,370" stroke="rgb(243, 14, 178)" stroke-width="3.6168716569665094" /><line stroke="rgb(78, 143, 168)" stroke-width="1.8823610035021203" x1="266" x2="617" y1="416" y2="238" /><line stroke="rgb(228, 73, 54)" stroke-width="0.8802946932945703" x1="563" x2="538" y1="392" y2="363" /><line stroke="rgb(188, 75, 166)" stroke-width="1.624105243681335" x1="474" x2="167" y1="196" y2="133" /><polygon fill="none" points="602,195 845,381 126,348 330,353 79,335" stroke="rgb(131, 234, 236)" stroke-width="3.1434760174772367" /><polygon fill="none" points="1090,26 704,264 328,11 980,73 865,337 1150,45" stroke="rgb(44, 143, 11)" stroke-width="2.2830922741218713" /><line stroke="rgb(113, 68, 14)" stroke-width="1.2555710418425563" x1="879" x2="171" y1="203" y2="77" /><line stroke="rgb(99, 101, 104)" stroke-width="1.3299872646477393" x1="47" x2="974" y1="123" y2="530" /><line stroke="rgb(201, 162, 196)" stroke-width="2.5198296135588114" x1="894" x2="229" y1="64" y2="368" /><line stroke="rgb(110, 118, 237)" stroke-width="1.201420609323093" x1="64" x2="476" y1="155" y2="146" /><line stroke="rgb(44, 8, 171)" stroke-width="0.6803498407623259" x1="1137" x2="684" y1="192" y2="435" /><line stroke="rgb(13, 28, 87)" stroke-width="2.1110339247466623" x1="903" x2="963" y1="295" y2="100" /><line stroke="rgb(91, 85, 54)" stroke-width="1.2323824199150035" x1="547" x2="950" y1="66" y2="147" /><line stroke="rgb(96, 215, 142)" stroke-width="0.7419228947670704" x1="1114" x2="291" y1="311" y2="134" /><circle cx="305" cy="287" fill="none" opacity="0.7884860274678243" r="100" stroke="rgb(218, 83, 232)" stroke-width="3.319695278040833" /><rect fill="none" height="157" stroke="rgb(114, 41, 248)" stroke-width="4.467490596708947" transform="rotate(240 732 70)" width="144" x="116" y="221" /><rect fill="none" height="80" stroke="rgb(89, 82, 177)" stroke-width="4.166414126569737" transform="rotate(69 861 289)" width="61" x="248" y="100" /><line stroke="rgb(33, 37, 234)" stroke-width="1.6697177838005135" x1="977" x2="551" y1="35" y2="548" /><line stroke="rgb(87, 92, 116)" stroke-width="1.771116063007813" x1="794" x2="877" y1="126" y2="245" /><line stroke="rgb(87, 241, 116)" stroke-width="0.7594231972900143" x1="426" x2="945" y1="169" y2="116" /><line stroke="rgb(119, 185, 138)" stroke-width="1.2536173347706818" x1="4" x2="932" y1="470" y2="183" /><circle cx="583" cy="477" fill="none" opacity="0.7151376834428026" r="85" stroke="rgb(121, 147, 151)" stroke-width="1.1985100065079908" /><rect fill="none" height="60" stroke="rgb(230, 120, 229)" stroke-width="4.333273940177392" transform="rotate(201 595 530)" width="28" x="289" y="394" /><line stroke="rgb(128, 118, 199)" stroke-width="2.308005883811338" x1="578" x2="629" y1="377" y2="65" /><line stroke="rgb(6, 107, 164)" stroke-width="2.1076275463191525" x1="568" x2="1057" y1="278" y2="209" /><line stroke="rgb(224, 86, 211)" stroke-width="2.0064729166973283" x1="924" x2="494" y1="41" y2="4" /><line stroke="rgb(238, 172, 150)" stroke-width="2.9529569307580728" x1="519" x2="18" y1="176" y2="222" /><line stroke="rgb(101, 163, 104)" stroke-width="1.4524365367680199" x1="504" x2="944" y1="313" y2="232" /><line stroke="rgb(62, 199, 192)" stroke-width="1.1268716321986256" x1="603" x2="61" y1="286" y2="474" /><line stroke="rgb(58, 18, 138)" stroke-width="2.7303082588081464" x1="982" x2="254" y1="266" y2="305" /><line stroke="rgb(139, 52, 110)" stroke-width="1.1095719674368951" x1="221" x2="266" y1="177" y2="137" /></svg>