<svg baseProfile="full" height="675px" version="1.1" width="606px" xmlns="http://www.w3.org/2000/svg" xmlns:ev="http://www.w3.org/2001/xml-events" xmlns:xlink="http://www.w3.org/1999/xlink"><defs /><rect fill="rgb(245, 253, 201)" height="675px" width="606px" x="0" y="0" /><path d="M83,647 L61,265 C130,344 31,2 478,350 L356,571 L360,509" fill="none" stroke="rgb(120, 92, 255)" stroke-width="1.0069958867421955" /><rect fill="none" height="190" stroke="rgb(54, 243, 166)" stroke-width="4.987559806227386" transform="rotate(174 159 522)" width="78" x="349" y="114" /><line stroke="rgb(152, 180, 188)" stroke-width="2.3171671314367988" x1="345" x2="161" y1="460" y2="163" /><line stroke="rgb(155, 44, 104)" stroke-width="1.8548874744971613" x1="334" x2="136" y1="500" y2="386" /><line stroke="rgb(22, 148, 238)" stroke-width="2.4550452495528794" x1="374" x2="0" y1="44" y2="546" /><line stroke="rgb(92, 98, 248)" stroke-width="0.646143498445801" x1="489" x2="588" y1="316" y2="63" /><line stroke="rgb(168, 25, 124)" stroke-width="1.547468558558509" x1="4" x2="20" y1="294" y2="480" /><line stroke="rgb(253, 145, 77)" stroke-width="2.057061213957998" x1="450" x2="213" y1="52" y2="583" /><line stroke="rgb(168, 213, 201)" stroke-width="0.5357013517283344" x1="443" x2="31" y1="604" y2="211" /><line stroke="rgb(62, 225, 131)" stroke-width="2.9610620010212063" x1="495" x2="101" y1="26" y2="368" /><circle cx="549" cy="269" fill="none" opacity="0.5967364273955335" r="111" stroke="rgb(114, 61, 246)" stroke-width="3.512494825724868" /><line stroke="rgb(116, 24, 254)" stroke-width="1.1167818471761235" x1="430" x2="87" y1="452" y2="254" /><line stroke="rgb(201, 141, 235)" stroke-width="2.7621850429876704" x1="579" x2="316" y1="436" y2="132" /><line stroke="rgb(153, 2, 178)" stroke-width="2.2554423486779367" x1="72" x2="546" y1="51" y2="279" /><line stroke="rgb(52, 183, 241)" stroke-width="2.0642292739778116" x1="364" x2="544" y1="215" y2="382" /><line stroke="rgb(25, 105, 89)" stroke-width="1.3104423225006059" x1="572" x2="303" y1="505" y2="352" /><line stroke="rgb(128, 211, 136)" stroke-width="0.7429125116764739" x1="400" x2="39" y1="381" y2="61" /><line stroke="rgb(146, 203, 71)" stroke-width="2.271130040939375" x1="565" x2="220" y1="548" y2="578" /><line stroke="rgb(72, 211, 178)" stroke-width="1.3515192000105354" x1="276" x2="277" y1="531" y2="418" /><line stroke="rgb(194, 118, 69)" stroke-width="1.3423628275060224" x1="448" x2="405" y1="468" y2="139" /><line stroke="rgb(146, 28, 52)" stroke-width="2.7647714624620163" x1="586" x2="276" y1="554" y2="337" /><rect fill="none" height="27" stroke="rgb(78, 72, 71)" stroke-width="3.1132804038545925" transform="rotate(266 346 544)" width="83" x="388" y="574" /><rect fill="none" height="68" stroke="rgb(134, 60, 91)" stroke-width="3.002802759678206" transform="rotate(175 335 161)" width="67" x="258" y="572" /><rect fill="none" height="66" stroke="rgb(106, 99, 191)" stroke-width="1.44099286261528" transform="rotate(41 491 483)" width="26" x="87" y="100" /><polygon fill="none" points="309,554 359,191 533,584 346,535 599,477 236,672 530,12 509,668" stroke="rgb(149, 137, 7)" stroke-width="2.1422060927925988" /><rect fill="none" height="43" stroke="rgb(48, 97, 254)" stroke-width="3.0117614287761745" transform="rotate(349 585 98)" width="105" x="62" y="468" /><path d="M18,266 L24,543 L121,411 C540,469 432,133 212,215" fill="none" stroke="rgb(130, 178, 123)" stroke-width="2.745023214794774" /><rect fill="none" height="144" stroke="rgb(153, 166, 206)" stroke-width="1.0117885405854428" transform="rotate(324 570 223)" width="54" x="120" y="30" /><circle cx="342" cy="133" fill="none" opacity="0.9824236430352937" r="87" stroke="rgb(193, 198, 95)" stroke-width="4.9417119027845775" /><circle cx="420" cy="351" fill="none" opacity="0.8459584713472323" r="102" stroke="rgb(173, 253, 122)" stroke-width="2.6097625438348984" /><polygon fill="none" points="426,16 579,51 551,95 299,360 569,624 199,495" stroke="rgb(207, 96, 113)" stroke-width="1.7814507416054586" /><line stroke="rgb(173, 168, 194)" stroke-width="1.4305444939296401" x1="138" x2="469" y1="31" y2="541" /><line stroke="rgb(73, 79, 134)" stroke-width="0.5198081473925033" x1="201" x2="225" y1="335" y2="436" /><line stroke="rgb(24, 220, 172)" stroke-width="2.6363262123852604" x1="61" x2="73" y1="632" y2="428" /><line stroke="rgb(217, 128, 220)" stroke-width="1.3619318612144364" x1="86" x2="147" y1="478" y2="0" /><line stroke="rgb(109, 238, 218)" stroke-width="0.531167047831143" x1="95" x2="186" y1="198" y2="597" /><line stroke="rgb(226, 109, 10)" stroke-width="2.009301735152838" x1="431" x2="186" y1="597" y2="195" /><line stroke="rgb(107, 67, 48)" stroke-width="0.5387524710063305" x1="175" x2="305" y1="105" y2="438" /><line stroke="rgb(59, 79, 17)" stroke-width="1.3146014051573427" x1="192" x2="546" y1="664" y2="176" /><line stroke="rgb(155, 19, 84)" stroke-width="1.7030453612384284" x1="354" x2="511" y1="83" y2="364" /><line stroke="rgb(221, 171, 148)" stroke-width="1.7992044282383293" x1="93" x2="596" y1="464" y2="288" /><path d="M484,341 C83,528 98,314 410,48 Q94,563 539,106 C343,654 329,380 453,638 L521,516 L334,339 C514,553 504,367 472,333 C266,9 364,335 55,30" fill="none" stroke="rgb(237, 26, 145)" stroke-width="1.2442480026553133" /><line stroke="rgb(89, 227, 227)" stroke-width="1.1870602464568814" x1="276" x2="409" y1="73" y2="451" /><line stroke="rgb(217, 172, 249)" stroke-width="2.121824412868781" x1="513" x2="138" y1="649" y2="31" /><line stroke="rgb(181, 247, 56)" stroke-width="1.772452353385234" x1="170" x2="116" y1="634" y2="515" /><line stroke="rgb(180, 78, 173)" stroke-width="2.6108571845029585" x1="362" x2="487" y1="144" y2="628" /><line stroke="rgb(64, 42, 213)" stroke-width="2.7657900812064438" x1="285" x2="236" y1="585" y2="176" /><line stroke="rgb(76, 52, 168)" stroke-width="0.6209893926537753" x1="425" x2="275" y1="176" y2="661" /><line stroke="rgb(162, 64, 96)" stroke-width="0.5284438388365824" x1="549" x2="199" y1="139" y2="597" /><path d="M111,150 C132,438 242,86 586,150 L442,455 C560,561 41,469 586,410 L97,592 L471,189" fill="none" stroke="rgb(193, 250, 152)" stroke-width="1.7046723900528498" /><polygon fill="none" points="33,288 408,433 291,454 259,556 465,559 264,79 265,510" stroke="rgb(217, 84, 104)" stroke-width="1.4805614033849068" /><polygon fill="none" points="15,66 491,58 395,409 354,571 375,127 294,449" stroke="rgb(136, 124, 192)" stroke-width="1.0831566176452014" /><polygon fill="none" points="135,645 561,202 72,138 450,333 438,171" stroke="rgb(93, 238, 180)" stroke-width="2.8192268334114274" /><path d="M7,671 C253,78 601,566 143,149 C409,111 287,514 367,274 Q530,504 480,275 Q466,265 327,229 C331,116 277,286 440,399 C26,277 402,84 596,181 Q303,163 163,661" fill="none" stroke="rgb(79, 254, 103)" stroke-width="0.7885253408262276" /><path d="M586,327 C122,565 495,322 216,169 Q173,267 515,392 L57,243 C223,116 298,195 364,5 L552,649" fill="none" stroke="rgb(118, 3, 114)" stroke-width="1.492190473173749" /><rect fill="none" height="174" stroke="rgb(107, 130, 22)" stroke-width="1.6265030258850879" transform="rotate(182 102 17)" width="170" x="276" y="304" /><rect fill="none" height="140" stroke="rgb(231, 82, 199)" stroke-width="3.804389408980015" transform="rotate(303 176 426)" width="73" x="92" y="294" /><line stroke="rgb(61, 25, 127)" stroke-width="2.471888268710802" x1="271" x2="407" y1="80" y2="347" /><line stroke="rgb(96, 8, 132)" stroke-width="2.597465112733607" x1="37" x2="394" y1="546" y2="628" /><line stroke="rgb(165, 62, 237)" stroke-width="1.3426442745428522" x1="485" x2="398" y1="402" y2="399" /><line stroke="rgb(221, 29, 213)" stroke-width="1.7419177383518865" x1="387" x2="323" y1="398" y2="125" /><line stroke="rgb(171, 174, 79)" stroke-width="1.2169630819675998" x1="548" x2="235" y1="9" y2="661" /><line stroke="rgb(82, 194, 189)" stroke-width="2.828904643583604" x1="295" x2="604" y1="403" y2="418" /><line stroke="rgb(77, 7, 249)" stroke-width="2.9330709583556716" x1="451" x2="127" y1="252" y2="656" /><line stroke="rgb(130, 191, 125)" stroke-width="2.6191000439889636" x1="128" x2="313" y1="258" y2="588" /><line stroke="rgb(144, 32, 192)" stroke-width="1.832182995253318" x1="13" x2="248" y1="33" y2="291" /><line stroke="rgb(47, 11, 21)" stroke-width="0.9191321593987485" x1="275" x2="435" y1="117" y2="26" /><line stroke="rgb(85, 211, 26)" stroke-width="1.6391411153496533" x1="484" x2="27" y1="234" y2="217" /><line stroke="rgb(53, 253, 42)" stroke-width="2.1272482694998747" x1="573" x2="470" y1="622" y2="447" /><line stroke="rgb(70, 231, 55)" stroke-width="0.596146502084077" x1="31" x2="163" y1="474" y2="223" /><line stroke="rgb(230, 122, 32)" stroke-width="2.0274135007493648" x1="117" x2="520" y1="34" y2="608" /><line stroke="rgb(211, 244, 112)" stroke-width="1.1439206823938273" x1="223" x2="60" y1="376" y2="51" /><line stroke="rgb(145, 104, 229)" stroke-width="1.7443847039440779" x1="229" x2="591" y1="669" y2="335" /><line stroke="rgb(37, 210, 60)" stroke-width="2.477147161267698" x1="141" x2="142" y1="174" y2="568" /><line stroke="rgb(52, 243, 97)" stroke-width="2.739674115345095" x1="433" x2="434" y1="640" y2="222" /><line stroke="rgb(106, 247, 73)" stroke-width="2.119233979182768" x1="98" x2="391" y1="383" y2="22" /><line stroke="rgb(160, 241, 103)" stroke-width="1.9332344513759023" x1="236" x2="439" y1="188" y2="374" /><line stroke="rgb(246, 59, 15)" stroke-width="1.5768394997939426" x1="514" x2="279" y1="535" y2="380" /><line stroke="rgb(172, 242, 108)" stroke-width="2.5487100706975854" x1="98" x2="527" y1="87" y2="443" /><line stroke="rgb(106, 73, 94)" stroke-width="1.7509171778839536" x1="434" x2="334" y1="503" y2="69" /><line stroke="rgb(15, 250, 193)" stroke-width="1.550917453086135" x1="187" x2="327" y1="85" y2="434" /><line stroke="rgb(92, 235, 20)" stroke-width="1.3637637473302862" x1="514" x2="112" y1="393" y2="447" /><line stroke="rgb(138, 252, 208)" stroke-width="1.820741412024181" x1="227" x2="273" y1="126" y2="66" /><line stroke="rgb(228, 219, 233)" stroke-width="1.3891151340004453" x1="208" x2="340" y1="642" y2="574" /><line stroke="rgb(230, 235, 251)" stroke-width="0.5938071135015452" x1="421" x2="595" y1="80" y2="209" /><line stroke="rgb(117, 250, 41)" stroke-width="1.4085215062499818" x1="210" x2="176" y1="454" y2="348" /><line stroke="rgb(227, 198, 146)" stroke-width="2.4494485503164443" x1="6" x2="370" y1="243" y2="264" /><rect fill="none" height="184" stroke="rgb(178, 201, 250)" stroke-width="4.22364710752888" transform="rotate(163 369 446)" width="171" x="458" y="219" /><path d="M582,472 C463,336 495,49 317,515 L449,555 L144,526 L501,258 L234,73 Q512,224 532,456" fill="none" stroke="rgb(179, 14, 81)" stroke-width="0.5713757790243613" /><polygon fill="none" points="507,66 335,183 191,571 553,175 503,82 95,617 237,578" stroke="rgb(213, 171, 184)" stroke-width="0.8651562168140526" /><polygon fill="none" points="323,331 147,434 439,376 130,405" stroke="rgb(18, 254, 176)" stroke-width="3.5562533924774296" /><path d="M325,588 L201,597 Q10,268 390,3 C585,46 190,522 528,218 Q475,339 565,477 L564,13 Q581,263 80,654" fill="none" stroke="rgb(160, 194, 86)" stroke-width="2.9012269277839455" /><rect fill="none" height="183" stroke="rgb(56, 183, 111)" stroke-width="2.437201605593085" transform="rotate(356 506 223)" width="44" x="351" y="371" /><polygon fill="none" points="550,362 175,487 148,418 381,393 250,578 81,478" stroke="rgb(26, 8, 250)" stroke-width="1.758309847971564" /></svg>