<svg baseProfile="full" height="483px" version="1.1" width="1015px" xmlns="http://www.w3.org/2000/svg" xmlns:ev="http://www.w3.org/2001/xml-events" xmlns:xlink="http://www.w3.org/1999/xlink"><defs /><rect fill="rgb(230, 209, 227)" height="483px" width="1015px" x="0" y="0" /><rect fill="none" height="25" stroke="rgb(110, 130, 130)" stroke-width="4.19782389649837" transform="rotate(289 743 257)" width="126" x="46" y="142" /><path d="M597,398 C803,166 871,170 467,101 Q820,319 131,312 Q653,451 601,364 Q675,104 147,95 Q736,49 935,171" fill="none" stroke="rgb(109, 233, 120)" stroke-width="2.147613171701045" /><polygon fill="none" points="390,61 800,386 897,275 148,381 687,142 386,151 106,198 880,355" stroke="rgb(223, 27, 155)" stroke-width="3.894461015758801" /><rect fill="none" height="158" stroke="rgb(91, 195, 20)" stroke-width="4.665742810788768" transform="rotate(35 162 251)" width="61" x="523" y="2" /><polygon fill="none" points="154,32 452,351 388,431 415,326" stroke="rgb(92, 194, 129)" stroke-width="2.186520475942501" /><path d="M726,33 L869,160 L683,398 C176,89 987,58 836,8 C164,46 199,289 872,128 Q454,146 314,442 C3,446 298,69 821,233 Q155,29 335,117" fill="none" stroke="rgb(0, 103, 71)" stroke-width="0.7447555684995978" /><rect fill="none" height="123" stroke="rgb(57, 225, 252)" stroke-width="2.218165170060046" transform="rotate(154 239 16)" width="141" x="840" y="379" /><circle cx="86" cy="198" fill="none" opacity="0.35548374634684243" r="111" stroke="rgb(59, 244, 177)" stroke-width="4.711800921095086" /><path d="M813,378 L243,370 L124,79 Q226,266 815,361 L94,195" fill="none" stroke="rgb(219, 83, 19)" stroke-width="1.3815820924229747" /><path d="M743,67 C90,289 917,135 693,476 Q807,89 672,237 Q447,37 595,122 Q0,370 364,238 L500,478 L586,58 C994,277 209,100 1012,291" fill="none" stroke="rgb(99, 124, 219)" stroke-width="1.9063654696376438" /><path d="M314,149 C973,91 924,108 757,273 Q331,215 871,278 Q580,65 863,387 C700,355 651,269 496,281 C536,420 20,378 219,403 C89,154 754,312 972,15" fill="none" stroke="rgb(4, 51, 134)" stroke-width="1.008504757226652" /><rect fill="none" height="157" stroke="rgb(73, 178, 15)" stroke-width="4.964246608727715" transform="rotate(274 830 208)" width="172" x="708" y="102" /><circle cx="72" cy="265" fill="none" opacity="0.9300489023522638" r="97" stroke="rgb(118, 197, 235)" stroke-width="3.3549712796110405" /><circle cx="362" cy="327" fill="none" opacity="0.9748018155294986" r="39" stroke="rgb(157, 74, 97)" stroke-width="2.7056874334127787" /><line stroke="rgb(133, 43, 176)" stroke-width="2.4631092089725533" x1="752" x2="399" y1="47" y2="95" /><line stroke="rgb(184, 163, 225)" stroke-width="2.534415474866412" x1="701" x2="532" y1="185" y2="439" /><line stroke="rgb(170, 19, 135)" stroke-width="1.9308399145177184" x1="853" x2="459" y1="465" y2="14" /><line stroke="rgb(198, 19, 191)" stroke-width="1.5434845673637716" x1="591" x2="512" y1="425" y2="141" /><polygon fill="none" points="231,244 484,422 655,355 318,355 92,10 696,123 939,197 783,252" stroke="rgb(60, 181, 4)" stroke-width="2.2352995584172044" /><rect fill="none" height="86" stroke="rgb(36, 201, 129)" stroke-width="1.7460786358104081" transform="rotate(67 993 84)" width="62" x="451" y="300" /><rect fill="none" height="199" stroke="rgb(234, 174, 38)" stroke-width="3.005748990596344" transform="rotate(117 10 345)" width="42" x="290" y="166" /><path d="M633,110 Q813,151 581,83 L851,295 Q54,389 574,244 Q669,157 721,78 Q282,144 816,77 C766,132 374,419 839,242" fill="none" stroke="rgb(8, 231, 59)" stroke-width="2.2500961066529017" /><line stroke="rgb(49, 210, 37)" stroke-width="2.5944521071385926" x1="897" x2="692" y1="86" y2="97" /><line stroke="rgb(5, 80, 1)" stroke-width="1.0271158210364577" x1="565" x2="377" y1="425" y2="256" /><line stroke="rgb(241, 33, 184)" stroke-width="1.6627412389586287" x1="865" x2="611" y1="307" y2="78" /><line stroke="rgb(189, 150, 239)" stroke-width="1.1859408319541958" x1="510" x2="994" y1="124" y2="377" /><line stroke="rgb(190, 200, 90)" stroke-width="0.6747912889396277" x1="294" x2="633" y1="56" y2="60" /><line stroke="rgb(121, 158, 154)" stroke-width="1.6456695005329673" x1="952" x2="562" y1="477" y2="392" /><line stroke="rgb(212, 178, 65)" stroke-width="2.1452307499362746" x1="970" x2="591" y1="183" y2="232" /><path d="M756,241 Q479,191 228,279 C569,6 83,382 108,388 Q766,356 60,365" fill="none" stroke="rgb(90, 239, 56)" stroke-width="0.7646237173570132" /><rect fill="none" height="129" stroke="rgb(17, 201, 77)" stroke-width="2.0060641040223364" transform="rotate(22 928 265)" width="96" x="331" y="336" /><line stroke="rgb(73, 216, 22)" stroke-width="1.8904568701163313" x1="884" x2="627" y1="55" y2="419" /><line stroke="rgb(205, 189, 98)" stroke-width="0.6596934565601873" x1="138" x2="294" y1="244" y2="465" /><line stroke="rgb(237, 17, 118)" stroke-width="1.965152015006167" x1="909" x2="582" y1="81" y2="142" /><line stroke="rgb(249, 249, 127)" stroke-width="0.8713974268561382" x1="842" x2="776" y1="452" y2="64" /><line stroke="rgb(229, 185, 255)" stroke-width="0.9526363658193668" x1="887" x2="775" y1="319" y2="444" /><line stroke="rgb(102, 10, 234)" stroke-width="2.6854005917724986" x1="944" x2="957" y1="67" y2="173" /><circle cx="120" cy="111" fill="none" opacity="0.48282320443080995" r="29" stroke="rgb(134, 34, 115)" stroke-width="4.697903625151102" /><path d="M215,298 C793,263 588,462 856,362 C268,51 603,183 777,233 Q765,388 151,334 Q761,239 28,98 Q86,60 560,449 C202,134 19,383 158,389 C769,301 643,392 158,197" fill="none" stroke="rgb(142, 117, 50)" stroke-width="2.3083436206761943" /></svg>