<svg baseProfile="full" height="604px" version="1.1" width="728px" xmlns="http://www.w3.org/2000/svg" xmlns:ev="http://www.w3.org/2001/xml-events" xmlns:xlink="http://www.w3.org/1999/xlink"><defs /><rect fill="rgb(201, 207, 230)" height="604px" width="728px" x="0" y="0" /><rect fill="none" height="74" stroke="rgb(92, 167, 186)" stroke-width="4.6639404925154055" transform="rotate(209 45 219)" width="96" x="621" y="396" /><polygon fill="none" points="305,363 87,41 728,205" stroke="rgb(224, 0, 248)" stroke-width="1.9724800515263723" /><polygon fill="none" points="255,196 647,411 431,492 472,171" stroke="rgb(61, 225, 138)" stroke-width="1.0122853308541315" /><line stroke="rgb(60, 12, 66)" stroke-width="2.5408083041465153" x1="159" x2="640" y1="379" y2="328" /><line stroke="rgb(101, 85, 39)" stroke-width="1.2416193208129682" x1="271" x2="484" y1="78" y2="327" /><line stroke="rgb(13, 25, 56)" stroke-width="1.9234320437994832" x1="611" x2="221" y1="73" y2="594" /><path d="M249,85 C388,550 230,233 291,414 L258,503 Q311,248 557,162" fill="none" stroke="rgb(23, 79, 147)" stroke-width="2.323458862016975" /><path d="M72,339 L234,550 Q607,188 385,560 C588,478 406,577 640,363 L439,578 C676,27 201,269 197,10" fill="none" stroke="rgb(190, 114, 162)" stroke-width="0.9115237726508816" /><path d="M182,201 Q647,75 673,1 L306,186 C688,282 536,5 195,13 L638,603" fill="none" stroke="rgb(219, 135, 43)" stroke-width="1.6941873755877737" /><rect fill="none" height="188" stroke="rgb(163, 32, 21)" stroke-width="2.331668559960068" transform="rotate(76 140 404)" width="102" x="88" y="9" /><rect fill="none" height="113" stroke="rgb(12, 50, 31)" stroke-width="2.5410994497125365" transform="rotate(142 396 335)" width="120" x="116" y="213" /><circle cx="563" cy="190" fill="none" opacity="0.3798235282000676" r="93" stroke="rgb(226, 166, 200)" stroke-width="0.731069916696442" /><rect fill="none" height="24" stroke="rgb(102, 204, 23)" stroke-width="3.4990396607370373" transform="rotate(149 266 383)" width="20" x="69" y="297" /><circle cx="236" cy="252" fill="none" opacity="0.7414456906572283" r="146" stroke="rgb(221, 66, 164)" stroke-width="0.6654991933642879" /><path d="M50,455 C376,507 105,229 266,593 C696,348 93,202 210,397 C361,139 359,49 717,241 C630,313 386,228 50,25 L389,108" fill="none" stroke="rgb(15, 99, 18)" stroke-width="0.5750244980859999" /><line stroke="rgb(111, 96, 4)" stroke-width="2.319732931101583" x1="87" x2="88" y1="410" y2="594" /><line stroke="rgb(141, 242, 81)" stroke-width="1.222483638456317" x1="209" x2="431" y1="33" y2="328" /><line stroke="rgb(82, 132, 61)" stroke-width="2.108966651456541" x1="36" x2="29" y1="465" y2="567" /><line stroke="rgb(166, 203, 228)" stroke-width="1.9222599975184915" x1="164" x2="709" y1="272" y2="126" /><line stroke="rgb(123, 124, 122)" stroke-width="1.421682628432757" x1="386" x2="94" y1="54" y2="73" /><line stroke="rgb(205, 15, 105)" stroke-width="1.5650195598367764" x1="330" x2="595" y1="170" y2="559" /><line stroke="rgb(247, 85, 166)" stroke-width="0.6276878450674102" x1="610" x2="529" y1="400" y2="163" /><line stroke="rgb(200, 177, 112)" stroke-width="1.0492815242753761" x1="421" x2="122" y1="113" y2="317" /><line stroke="rgb(181, 219, 227)" stroke-width="2.465947576416805" x1="471" x2="343" y1="328" y2="593" /><line stroke="rgb(3, 191, 183)" stroke-width="2.3649918252312636" x1="604" x2="190" y1="114" y2="22" /><path d="M68,491 L343,153 L633,521 L185,240 L104,161 L644,464 Q460,591 466,34" fill="none" stroke="rgb(75, 161, 169)" stroke-width="2.4412427362025255" /><path d="M342,510 Q385,129 682,264 L142,598 L179,541" fill="none" stroke="rgb(74, 209, 185)" stroke-width="0.9997931861991706" /><polygon fill="none" points="356,469 567,451 409,356 408,350 18,259" stroke="rgb(149, 220, 187)" stroke-width="2.190424231210063" /><rect fill="none" height="125" stroke="rgb(6, 130, 22)" stroke-width="3.1962422007588565" transform="rotate(154 248 329)" width="27" x="544" y="277" /><polygon fill="none" points="382,94 646,406 153,508 631,218 12,255 685,519 285,162 218,217" stroke="rgb(210, 68, 245)" stroke-width="3.3387043552027187" /><circle cx="182" cy="548" fill="none" opacity="0.4052706055728349" r="118" stroke="rgb(148, 149, 125)" stroke-width="2.917886088378633" /><line stroke="rgb(33, 8, 56)" stroke-width="1.201986131838186" x1="484" x2="302" y1="261" y2="357" /><line stroke="rgb(242, 14, 151)" stroke-width="0.6807355117145795" x1="612" x2="180" y1="271" y2="21" /><line stroke="rgb(9, 175, 86)" stroke-width="2.6074747658580653" x1="655" x2="456" y1="232" y2="384" /><polygon fill="none" points="9,434 443,94 91,371 191,218 311,319 65,189 648,407 669,0" stroke="rgb(231, 79, 134)" stroke-width="0.6721381923071965" /><line stroke="rgb(185, 178, 175)" stroke-width="1.580437445299509" x1="148" x2="381" y1="203" y2="272" /><line stroke="rgb(99, 39, 171)" stroke-width="1.323792967394471" x1="501" x2="717" y1="248" y2="245" /><line stroke="rgb(227, 226, 29)" stroke-width="1.5163255865211154" x1="673" x2="487" y1="353" y2="530" /><line stroke="rgb(172, 76, 147)" stroke-width="2.0087087627511586" x1="330" x2="231" y1="538" y2="176" /><line stroke="rgb(96, 105, 161)" stroke-width="2.049255036796738" x1="279" x2="141" y1="364" y2="140" /><line stroke="rgb(219, 91, 203)" stroke-width="2.876107898609049" x1="538" x2="496" y1="212" y2="213" /><rect fill="none" height="108" stroke="rgb(164, 52, 138)" stroke-width="4.542222235234073" transform="rotate(281 169 568)" width="199" x="552" y="233" /><polygon fill="none" points="178,246 30,75 207,226 533,10 44,604 673,519" stroke="rgb(227, 109, 70)" stroke-width="1.9073793312941896" /><path d="M71,414 L356,253 Q549,510 661,165 L523,491 L667,85" fill="none" stroke="rgb(91, 101, 238)" stroke-width="1.61716118605238" /><circle cx="603" cy="235" fill="none" opacity="0.6926652036117091" r="71" stroke="rgb(165, 175, 31)" stroke-width="3.8208328077291744" /><circle cx="191" cy="176" fill="none" opacity="0.7723162229082567" r="105" stroke="rgb(85, 250, 25)" stroke-width="4.5288694595045715" /><line stroke="rgb(216, 166, 188)" stroke-width="1.6956544921799848" x1="193" x2="568" y1="403" y2="444" /><line stroke="rgb(183, 14, 139)" stroke-width="1.5136246421051545" x1="406" x2="517" y1="7" y2="233" /><line stroke="rgb(221, 243, 113)" stroke-width="2.5726781603516575" x1="53" x2="329" y1="374" y2="371" /><line stroke="rgb(30, 181, 238)" stroke-width="2.9618873757498956" x1="50" x2="288" y1="216" y2="147" /><line stroke="rgb(240, 152, 83)" stroke-width="0.5716073870232217" x1="323" x2="196" y1="275" y2="285" /><line stroke="rgb(91, 231, 139)" stroke-width="0.8535028711890396" x1="141" x2="607" y1="514" y2="381" /><line stroke="rgb(206, 123, 105)" stroke-width="1.711956867265682" x1="358" x2="10" y1="40" y2="36" /><line stroke="rgb(216, 87, 241)" stroke-width="2.276406767560886" x1="703" x2="210" y1="188" y2="130" /><line stroke="rgb(121, 36, 59)" stroke-width="1.7558441020370927" x1="40" x2="616" y1="242" y2="75" /><line stroke="rgb(51, 25, 175)" stroke-width="2.0196140676781336" x1="196" x2="572" y1="600" y2="524" /><line stroke="rgb(202, 43, 77)" stroke-width="0.9946840479228773" x1="284" x2="608" y1="459" y2="331" /><line stroke="rgb(17, 194, 241)" stroke-width="2.662521765909936" x1="500" x2="570" y1="301" y2="283" /><polygon fill="none" points="545,406 534,248 541,291 350,231 355,141 360,222 690,451" stroke="rgb(7, 168, 146)" stroke-width="2.981114049875801" /><path d="M357,367 L653,339 L32,81 Q329,477 336,570" fill="none" stroke="rgb(177, 214, 149)" stroke-width="1.9108678052409256" /><circle cx="402" cy="213" fill="none" opacity="0.9937058009416542" r="146" stroke="rgb(37, 145, 77)" stroke-width="4.610243858693776" /><rect fill="none" height="124" stroke="rgb(196, 255, 45)" stroke-width="4.383415353571159" transform="rotate(236 170 597)" width="110" x="406" y="48" /><line stroke="rgb(64, 175, 198)" stroke-width="0.8026039010854897" x1="461" x2="346" y1="106" y2="128" /><line stroke="rgb(87, 219, 220)" stroke-width="0.9250003302407274" x1="309" x2="710" y1="185" y2="0" /><line stroke="rgb(94, 45, 220)" stroke-width="2.7946988303982447" x1="81" x2="16" y1="93" y2="561" /><line stroke="rgb(38, 89, 87)" stroke-width="1.6551451360241518" x1="659" x2="491" y1="255" y2="419" /><line stroke="rgb(239, 133, 192)" stroke-width="2.714507305429178" x1="296" x2="126" y1="127" y2="31" /><line stroke="rgb(142, 50, 97)" stroke-width="2.0312730486345822" x1="200" x2="390" y1="32" y2="18" /><line stroke="rgb(226, 17, 92)" stroke-width="2.0617212006194237" x1="510" x2="229" y1="366" y2="488" /><line stroke="rgb(164, 13, 138)" stroke-width="2.2564940459833807" x1="572" x2="342" y1="397" y2="439" /><line stroke="rgb(43, 156, 237)" stroke-width="0.828248920711226" x1="362" x2="550" y1="337" y2="354" /><line stroke="rgb(21, 239, 21)" stroke-width="2.843876613491029" x1="541" x2="491" y1="78" y2="24" /><line stroke="rgb(83, 215, 79)" stroke-width="2.654773960510479" x1="582" x2="350" y1="526" y2="181" /><line stroke="rgb(168, 156, 225)" stroke-width="2.0882732334783185" x1="289" x2="20" y1="593" y2="256" /><rect fill="none" height="97" stroke="rgb(111, 49, 231)" stroke-width="3.968272240052278" transform="rotate(341 375 27)" width="58" x="488" y="471" /><circle cx="565" cy="553" fill="none" opacity="0.5163557678352548" r="20" stroke="rgb(124, 120, 20)" stroke-width="1.74438401677724" /><rect fill="none" height="121" stroke="rgb(215, 52, 44)" stroke-width="1.5068376440341913" transform="rotate(230 534 580)" width="143" x="117" y="195" /><rect fill="none" height="84" stroke="rgb(164, 206, 60)" stroke-width="2.4614651092772837" transform="rotate(61 507 173)" width="167" x="208" y="288" /><polygon fill="none" points="303,396 237,315 33,545 363,582 577,182 622,560 403,245 423,600" stroke="rgb(172, 97, 251)" stroke-width="3.055859406797526" /><line stroke="rgb(84, 24, 177)" stroke-width="2.597977644696766" x1="656" x2="636" y1="178" y2="442" /><line stroke="rgb(191, 55, 248)" stroke-width="2.650086419531295" x1="409" x2="83" y1="505" y2="457" /><line stroke="rgb(47, 200, 205)" stroke-width="2.7804839733105524" x1="441" x2="477" y1="111" y2="351" /><line stroke="rgb(101, 156, 192)" stroke-width="1.6452034208371433" x1="347" x2="326" y1="148" y2="280" /><line stroke="rgb(84, 130, 212)" stroke-width="1.8529358106849523" x1="671" x2="721" y1="419" y2="302" /><line stroke="rgb(141, 204, 27)" stroke-width="2.982273887588688" x1="231" x2="562" y1="205" y2="223" /><line stroke="rgb(149, 139, 159)" stroke-width="2.4404798935648815" x1="705" x2="560" y1="409" y2="8" /><line stroke="rgb(120, 22, 163)" stroke-width="0.94543264938604" x1="8" x2="435" y1="59" y2="209" /><line stroke="rgb(140, 148, 1)" stroke-width="1.66548615250584" x1="334" x2="516" y1="318" y2="538" /><line stroke="rgb(75, 121, 209)" stroke-width="2.463749739659196" x1="529" x2="652" y1="189" y2="530" /><polygon fill="none" points="541,67 153,277 511,35 11,161 342,60 189,298" stroke="rgb(49, 244, 211)" stroke-width="2.191235622561658" /></svg>