<svg baseProfile="full" height="473px" version="1.1" width="1129px" xmlns="http://www.w3.org/2000/svg" xmlns:ev="http://www.w3.org/2001/xml-events" xmlns:xlink="http://www.w3.org/1999/xlink"><defs /><rect fill="rgb(217, 254, 215)" height="473px" width="1129px" x="0" y="0" /><path d="M381,450 L449,160 Q1101,404 1028,423 L469,216 Q159,114 46,265 C331,102 736,391 358,292 Q890,180 754,158 Q588,173 718,296" fill="none" stroke="rgb(31, 202, 159)" stroke-width="2.0737206971385125" /><circle cx="71" cy="395" fill="none" opacity="0.41223176956148866" r="43" stroke="rgb(42, 253, 235)" stroke-width="3.663488753340688" /><polygon fill="none" points="1083,144 836,458 596,419" stroke="rgb(28, 246, 119)" stroke-width="3.0324163915052327" /><line stroke="rgb(43, 156, 173)" stroke-width="2.1203498698344436" x1="1074" x2="239" y1="463" y2="391" /><line stroke="rgb(186, 30, 225)" stroke-width="1.8595258322512742" x1="457" x2="755" y1="459" y2="374" /><line stroke="rgb(64, 206, 130)" stroke-width="1.5686647696293354" x1="92" x2="979" y1="353" y2="411" /><line stroke="rgb(201, 219, 52)" stroke-width="0.5835180376435596" x1="130" x2="268" y1="77" y2="381" /><line stroke="rgb(19, 84, 109)" stroke-width="1.8328949960107137" x1="1074" x2="67" y1="27" y2="424" /><line stroke="rgb(81, 104, 20)" stroke-width="2.9495370973013872" x1="1066" x2="763" y1="456" y2="234" /><line stroke="rgb(200, 83, 165)" stroke-width="2.6884796503612822" x1="256" x2="186" y1="4" y2="121" /><line stroke="rgb(154, 225, 164)" stroke-width="1.4995669377446266" x1="57" x2="328" y1="349" y2="59" /><line stroke="rgb(21, 36, 76)" stroke-width="2.5643160308616846" x1="957" x2="704" y1="456" y2="452" /><line stroke="rgb(42, 254, 205)" stroke-width="1.4968469227514118" x1="945" x2="971" y1="44" y2="256" /><polygon fill="none" points="1128,104 521,29 779,335 193,252 974,140 631,202" stroke="rgb(25, 148, 200)" stroke-width="1.5634323705050903" /><line stroke="rgb(177, 66, 251)" stroke-width="2.25853757602368" x1="771" x2="585" y1="133" y2="65" /><line stroke="rgb(233, 242, 209)" stroke-width="2.144747804890896" x1="125" x2="276" y1="158" y2="393" /><line stroke="rgb(41, 183, 113)" stroke-width="2.1980379502248244" x1="132" x2="285" y1="190" y2="286" /><line stroke="rgb(152, 202, 39)" stroke-width="0.8398401856231292" x1="498" x2="835" y1="462" y2="203" /><line stroke="rgb(227, 79, 61)" stroke-width="2.190745405416497" x1="812" x2="38" y1="411" y2="87" /><line stroke="rgb(18, 167, 175)" stroke-width="2.618359626776803" x1="792" x2="865" y1="153" y2="34" /><path d="M808,420 L1117,218 C995,154 894,180 523,167 L283,325" fill="none" stroke="rgb(26, 164, 74)" stroke-width="2.947547030812132" /><polygon fill="none" points="814,434 1018,207 429,145 625,300 230,347 119,26 789,445" stroke="rgb(48, 15, 128)" stroke-width="2.7838842918429068" /><line stroke="rgb(99, 208, 222)" stroke-width="1.9289075311928159" x1="679" x2="413" y1="175" y2="172" /><line stroke="rgb(117, 102, 33)" stroke-width="1.2038116902045548" x1="1050" x2="211" y1="330" y2="255" /><line stroke="rgb(13, 104, 219)" stroke-width="0.8671315691428656" x1="799" x2="1077" y1="191" y2="70" /><line stroke="rgb(130, 204, 146)" stroke-width="2.260607159925865" x1="539" x2="114" y1="247" y2="370" /><line stroke="rgb(15, 80, 197)" stroke-width="0.53069793594287" x1="867" x2="202" y1="221" y2="190" /><line stroke="rgb(15, 1, 181)" stroke-width="1.6205551175520567" x1="810" x2="95" y1="114" y2="151" /><line stroke="rgb(178, 246, 105)" stroke-width="2.4234236343125204" x1="984" x2="1035" y1="472" y2="42" /><circle cx="773" cy="89" fill="none" opacity="0.9740441795685373" r="110" stroke="rgb(190, 244, 176)" stroke-width="4.7811001805354465" /><circle cx="971" cy="340" fill="none" opacity="0.5258088292017167" r="85" stroke="rgb(0, 253, 190)" stroke-width="4.036345659624164" /><line stroke="rgb(150, 198, 201)" stroke-width="1.596225436926761" x1="851" x2="547" y1="244" y2="81" /><line stroke="rgb(248, 245, 172)" stroke-width="1.9167300573190702" x1="285" x2="612" y1="340" y2="135" /><line stroke="rgb(196, 188, 183)" stroke-width="2.7185726194843234" x1="1062" x2="875" y1="315" y2="248" /><line stroke="rgb(142, 239, 37)" stroke-width="0.7562409751531378" x1="63" x2="285" y1="60" y2="341" /><line stroke="rgb(65, 235, 7)" stroke-width="1.4897884644204271" x1="454" x2="508" y1="424" y2="417" /><line stroke="rgb(29, 157, 2)" stroke-width="2.408112612012454" x1="48" x2="324" y1="84" y2="191" /><line stroke="rgb(209, 192, 43)" stroke-width="2.2375930309259915" x1="777" x2="1013" y1="184" y2="90" /><line stroke="rgb(94, 230, 233)" stroke-width="0.7736021747827405" x1="25" x2="252" y1="167" y2="451" /><line stroke="rgb(209, 134, 62)" stroke-width="1.5711791620390796" x1="692" x2="469" y1="87" y2="69" /><line stroke="rgb(191, 64, 79)" stroke-width="1.1375317146484802" x1="206" x2="431" y1="408" y2="195" /><polygon fill="none" points="838,68 731,87 269,91 775,66 1062,338" stroke="rgb(61, 9, 214)" stroke-width="2.8264842611619523" /><line stroke="rgb(191, 54, 118)" stroke-width="2.294213750896556" x1="841" x2="867" y1="407" y2="309" /><line stroke="rgb(30, 220, 88)" stroke-width="1.2973168438242861" x1="600" x2="151" y1="220" y2="267" /><line stroke="rgb(129, 146, 215)" stroke-width="1.2685142468652093" x1="341" x2="389" y1="394" y2="174" /><line stroke="rgb(80, 80, 122)" stroke-width="0.7400214661437852" x1="683" x2="616" y1="416" y2="101" /><line stroke="rgb(94, 98, 34)" stroke-width="0.7144045179744138" x1="902" x2="509" y1="189" y2="310" /><line stroke="rgb(59, 14, 6)" stroke-width="1.3300275819304883" x1="437" x2="1098" y1="14" y2="304" /><line stroke="rgb(181, 94, 14)" stroke-width="2.843159942872923" x1="897" x2="209" y1="190" y2="99" /><line stroke="rgb(193, 239, 26)" stroke-width="2.3322228437214383" x1="1101" x2="1104" y1="152" y2="388" /><line stroke="rgb(148, 213, 187)" stroke-width="1.8378948854747896" x1="86" x2="866" y1="359" y2="239" /><line stroke="rgb(117, 82, 201)" stroke-width="2.505995995556498" x1="732" x2="131" y1="179" y2="172" /><line stroke="rgb(233, 249, 83)" stroke-width="1.6471051001035317" x1="1100" x2="576" y1="8" y2="35" /><line stroke="rgb(243, 106, 124)" stroke-width="1.4465827071342607" x1="741" x2="45" y1="329" y2="471" /><line stroke="rgb(187, 144, 188)" stroke-width="2.750116356495521" x1="913" x2="1028" y1="345" y2="80" /><line stroke="rgb(151, 247, 150)" stroke-width="1.648826347002427" x1="290" x2="178" y1="343" y2="238" /><line stroke="rgb(57, 184, 244)" stroke-width="2.5750833624583382" x1="817" x2="425" y1="387" y2="170" /><line stroke="rgb(92, 162, 205)" stroke-width="2.6265558841192647" x1="495" x2="932" y1="193" y2="382" /><rect fill="none" height="143" stroke="rgb(200, 95, 106)" stroke-width="2.4356301320734177" transform="rotate(206 982 34)" width="193" x="277" y="303" /><circle cx="92" cy="220" fill="none" opacity="0.5006568595911532" r="54" stroke="rgb(9, 143, 125)" stroke-width="1.6494939944624953" /><path d="M44,229 L617,189 L2,386 L1037,74 L381,439 C138,430 851,59 255,132 C400,321 142,272 24,332" fill="none" stroke="rgb(175, 214, 158)" stroke-width="1.7605622155795813" /><rect fill="none" height="41" stroke="rgb(169, 247, 52)" stroke-width="4.438084046197168" transform="rotate(305 160 176)" width="173" x="32" y="304" /><circle cx="893" cy="180" fill="none" opacity="0.31651249836247963" r="29" stroke="rgb(0, 253, 26)" stroke-width="3.2536153196230275" /><circle cx="471" cy="208" fill="none" opacity="0.7080653231823537" r="17" stroke="rgb(167, 110, 97)" stroke-width="4.613773694607311" /><line stroke="rgb(136, 202, 61)" stroke-width="2.541979496350191" x1="810" x2="229" y1="154" y2="449" /><line stroke="rgb(163, 172, 244)" stroke-width="2.8620694082399356" x1="904" x2="1003" y1="292" y2="37" /><line stroke="rgb(122, 58, 18)" stroke-width="2.4065222776132043" x1="78" x2="790" y1="261" y2="451" /><line stroke="rgb(74, 213, 60)" stroke-width="1.0438178783294125" x1="748" x2="1106" y1="345" y2="26" /><rect fill="none" height="91" stroke="rgb(242, 230, 200)" stroke-width="3.8818718007929025" transform="rotate(32 1046 36)" width="37" x="612" y="69" /><path d="M289,72 C403,438 569,177 596,372 L828,5 L624,231" fill="none" stroke="rgb(175, 228, 242)" stroke-width="2.452374178961263" /><polygon fill="none" points="562,235 613,90 1063,385 1103,164 746,154 195,166 278,142" stroke="rgb(245, 189, 147)" stroke-width="1.1368493431739337" /><line stroke="rgb(232, 232, 212)" stroke-width="1.4195903724682788" x1="656" x2="67" y1="98" y2="399" /><line stroke="rgb(91, 119, 238)" stroke-width="0.9157846435726356" x1="222" x2="1008" y1="462" y2="244" /><line stroke="rgb(173, 71, 3)" stroke-width="1.1087700597944128" x1="447" x2="1023" y1="149" y2="222" /><line stroke="rgb(135, 41, 253)" stroke-width="0.9145715180957275" x1="837" x2="109" y1="168" y2="384" /><line stroke="rgb(168, 50, 15)" stroke-width="1.059730368884746" x1="3" x2="771" y1="238" y2="314" /><line stroke="rgb(224, 28, 168)" stroke-width="2.52191377867639" x1="364" x2="871" y1="324" y2="62" /><line stroke="rgb(12, 172, 72)" stroke-width="1.5530426185527666" x1="291" x2="241" y1="419" y2="355" /><line stroke="rgb(10, 68, 230)" stroke-width="0.8224183525593125" x1="39" x2="310" y1="454" y2="201" /><line stroke="rgb(241, 52, 153)" stroke-width="0.9483370761578909" x1="569" x2="356" y1="403" y2="0" /><line stroke="rgb(186, 244, 199)" stroke-width="0.5138230320243447" x1="1075" x2="683" y1="139" y2="441" /><line stroke="rgb(172, 64, 210)" stroke-width="1.1743000687972664" x1="353" x2="319" y1="221" y2="447" /><line stroke="rgb(153, 100, 150)" stroke-width="1.377065776482529" x1="31" x2="1067" y1="99" y2="103" /><line stroke="rgb(235, 243, 23)" stroke-width="0.9062813565885206" x1="175" x2="651" y1="454" y2="256" /><line stroke="rgb(35, 11, 14)" stroke-width="1.7762820736767506" x1="538" x2="532" y1="291" y2="213" /><circle cx="278" cy="104" fill="none" opacity="0.9295442235251121" r="78" stroke="rgb(244, 184, 29)" stroke-width="4.134716185707719" /><rect fill="none" height="149" stroke="rgb(226, 75, 0)" stroke-width="3.627659674293001" transform="rotate(143 323 473)" width="171" x="309" y="38" /><path d="M962,35 Q458,198 1062,119 Q59,173 962,258 C813,351 505,240 581,200" fill="none" stroke="rgb(178, 91, 19)" stroke-width="2.0097793799611106" /><line stroke="rgb(110, 67, 131)" stroke-width="2.735077642594785" x1="5" x2="89" y1="322" y2="5" /><line stroke="rgb(246, 95, 194)" stroke-width="1.4249577719505426" x1="924" x2="392" y1="310" y2="267" /><line stroke="rgb(245, 62, 127)" stroke-width="0.5631177831343144" x1="127" x2="760" y1="53" y2="403" /><line stroke="rgb(87, 240, 231)" stroke-width="0.6913720092577484" x1="919" x2="566" y1="291" y2="447" /><polygon fill="none" points="607,441 668,68 320,79" stroke="rgb(207, 168, 198)" stroke-width="3.0710195941026877" /><circle cx="207" cy="87" fill="none" opacity="0.35949537479161875" r="70" stroke="rgb(208, 251, 232)" stroke-width="2.7205948374987163" /><polygon fill="none" points="40,122 908,440 673,431 259,268 1114,139 478,282 519,18" stroke="rgb(239, 26, 3)" stroke-width="1.8014618627635306" /><polygon fill="none" points="1023,469 483,339 542,19 772,413" stroke="rgb(131, 227, 37)" stroke-width="3.245083973020857" /><line stroke="rgb(175, 77, 254)" stroke-width="1.4857348671773083" x1="954" x2="816" y1="279" y2="237" /><line stroke="rgb(11, 58, 121)" stroke-width="2.126141308608874" x1="738" x2="599" y1="321" y2="394" /><line stroke="rgb(75, 50, 68)" stroke-width="2.7979336288368897" x1="844" x2="442" y1="105" y2="361" /><line stroke="rgb(170, 52, 186)" stroke-width="2.7151340535442" x1="343" x2="851" y1="169" y2="43" /><line stroke="rgb(234, 61, 230)" stroke-width="1.5706333864544209" x1="449" x2="519" y1="248" y2="268" /><line stroke="rgb(53, 142, 107)" stroke-width="2.281720983944586" x1="1123" x2="663" y1="427" y2="290" /><line stroke="rgb(59, 106, 79)" stroke-width="0.8869522650872431" x1="489" x2="636" y1="268" y2="277" /><line stroke="rgb(11, 189, 122)" stroke-width="2.975006837153195" x1="369" x2="839" y1="194" y2="388" /><line stroke="rgb(22, 48, 168)" stroke-width="2.5253135811151775" x1="491" x2="134" y1="224" y2="448" /><line stroke="rgb(101, 247, 152)" stroke-width="2.290082725362848" x1="330" x2="743" y1="249" y2="386" /><polygon fill="none" points="729,7 612,318 977,462 319,298 1098,80 1050,124 229,332 205,357" stroke="rgb(217, 94, 159)" stroke-width="1.4715592464252822" /></svg>