<svg baseProfile="full" height="651px" version="1.1" width="611px" xmlns="http://www.w3.org/2000/svg" xmlns:ev="http://www.w3.org/2001/xml-events" xmlns:xlink="http://www.w3.org/1999/xlink"><defs /><rect fill="rgb(255, 242, 252)" height="651px" width="611px" x="0" y="0" /><path d="M424,627 Q47,575 544,7 L201,607 L271,429 L148,402 Q268,468 399,407" fill="none" stroke="rgb(93, 139, 180)" stroke-width="1.8017115099854581" /><polygon fill="none" points="296,595 170,274 150,298 313,236 89,541 409,81 384,197" stroke="rgb(21, 88, 107)" stroke-width="0.6430355613351132" /><line stroke="rgb(115, 101, 56)" stroke-width="1.4040118259577086" x1="279" x2="341" y1="303" y2="36" /><line stroke="rgb(235, 111, 159)" stroke-width="2.4174435361949937" x1="242" x2="591" y1="196" y2="370" /><line stroke="rgb(203, 155, 2)" stroke-width="0.8103201487936891" x1="599" x2="241" y1="511" y2="408" /><line stroke="rgb(200, 22, 104)" stroke-width="1.3809745288901976" x1="483" x2="254" y1="44" y2="179" /><line stroke="rgb(228, 243, 239)" stroke-width="1.2761175910900788" x1="45" x2="328" y1="299" y2="483" /><line stroke="rgb(133, 102, 230)" stroke-width="1.6067969393309742" x1="404" x2="228" y1="470" y2="630" /><line stroke="rgb(7, 81, 233)" stroke-width="2.18042354707854" x1="245" x2="490" y1="469" y2="441" /><line stroke="rgb(193, 226, 246)" stroke-width="2.754645872426439" x1="132" x2="397" y1="323" y2="451" /><line stroke="rgb(141, 88, 78)" stroke-width="2.429876190435893" x1="486" x2="318" y1="186" y2="458" /><rect fill="none" height="95" stroke="rgb(70, 17, 112)" stroke-width="4.659724218129138" transform="rotate(134 13 128)" width="69" x="112" y="360" /><path d="M553,372 Q475,310 45,495 Q123,18 159,44 L395,165 Q287,141 164,298 Q477,139 316,29" fill="none" stroke="rgb(170, 249, 122)" stroke-width="0.6683747972196512" /><polygon fill="none" points="102,151 431,261 406,343 389,109" stroke="rgb(25, 181, 96)" stroke-width="1.714057618893853" /><circle cx="170" cy="93" fill="none" opacity="0.3146327369116542" r="48" stroke="rgb(55, 53, 200)" stroke-width="2.904596332759332" /><circle cx="309" cy="271" fill="none" opacity="0.3972269459592587" r="125" stroke="rgb(62, 113, 155)" stroke-width="0.7926668439716762" /><polygon fill="none" points="160,105 547,19 608,525 188,560 5,116 190,321 87,641 563,121" stroke="rgb(171, 77, 179)" stroke-width="3.9135329027833032" /><circle cx="243" cy="593" fill="none" opacity="0.8428208941410631" r="77" stroke="rgb(131, 1, 2)" stroke-width="3.5951182233161076" /><path d="M81,563 Q515,615 467,129 Q591,56 96,207 L219,310 Q131,35 276,365" fill="none" stroke="rgb(3, 146, 225)" stroke-width="1.7058037513227742" /><rect fill="none" height="32" stroke="rgb(92, 222, 197)" stroke-width="2.461926625662792" transform="rotate(214 525 629)" width="77" x="364" y="531" /><circle cx="542" cy="436" fill="none" opacity="0.41536244604726535" r="81" stroke="rgb(96, 67, 34)" stroke-width="1.1253244414002999" /><rect fill="none" height="154" stroke="rgb(145, 112, 12)" stroke-width="0.6653631094279043" transform="rotate(186 561 283)" width="89" x="413" y="353" /><path d="M520,401 Q83,583 61,52 Q295,578 210,58 Q361,410 241,601" fill="none" stroke="rgb(15, 30, 70)" stroke-width="2.4799243551199397" /><circle cx="141" cy="362" fill="none" opacity="0.9402411666256327" r="116" stroke="rgb(71, 2, 139)" stroke-width="2.0113794860440777" /><circle cx="520" cy="420" fill="none" opacity="0.6534508873665055" r="117" stroke="rgb(130, 66, 239)" stroke-width="0.6033432656720099" /><path d="M394,649 Q388,498 107,559 Q36,471 599,495 Q209,224 434,464 L1,407 Q486,600 172,490 Q414,631 462,20 C371,40 317,92 357,599" fill="none" stroke="rgb(231, 82, 5)" stroke-width="0.6467625099433029" /><path d="M517,503 Q141,432 75,333 Q22,369 428,330 L48,394 Q362,252 407,466 C236,251 594,165 73,407 L520,2" fill="none" stroke="rgb(255, 23, 142)" stroke-width="0.6834133401694118" /><polygon fill="none" points="85,179 390,537 518,461 338,234" stroke="rgb(174, 168, 201)" stroke-width="1.7404329877762656" /><path d="M501,576 L569,222 Q29,24 501,298 Q293,409 290,631 L113,295 Q199,603 534,166 Q147,444 74,298" fill="none" stroke="rgb(36, 75, 133)" stroke-width="2.9856318087824993" /><rect fill="none" height="93" stroke="rgb(251, 131, 248)" stroke-width="2.36316963591248" transform="rotate(253 308 363)" width="133" x="467" y="495" /><circle cx="546" cy="74" fill="none" opacity="0.5260216073014949" r="36" stroke="rgb(15, 102, 166)" stroke-width="4.634239847399828" /><line stroke="rgb(128, 109, 255)" stroke-width="1.015274754074421" x1="252" x2="31" y1="1" y2="27" /><line stroke="rgb(132, 105, 210)" stroke-width="1.3409540533769386" x1="33" x2="536" y1="308" y2="245" /><line stroke="rgb(90, 46, 58)" stroke-width="0.5849752372333262" x1="595" x2="595" y1="599" y2="188" /><line stroke="rgb(174, 200, 5)" stroke-width="0.6876634244793829" x1="127" x2="462" y1="396" y2="185" /><line stroke="rgb(8, 132, 212)" stroke-width="2.3380732242663314" x1="499" x2="433" y1="100" y2="301" /><line stroke="rgb(93, 89, 132)" stroke-width="1.6521224793867533" x1="384" x2="2" y1="26" y2="536" /><polygon fill="none" points="104,625 261,211 304,448" stroke="rgb(40, 80, 48)" stroke-width="3.75631755920681" /><rect fill="none" height="73" stroke="rgb(135, 209, 249)" stroke-width="4.288974334730935" transform="rotate(79 227 508)" width="149" x="144" y="256" /><path d="M210,191 C201,492 328,420 133,252 C501,196 215,521 179,147 Q432,89 548,614 C108,649 172,393 6,113 Q293,351 151,234 Q415,577 52,380 Q422,169 199,616" fill="none" stroke="rgb(56, 231, 7)" stroke-width="2.492520601382787" /><circle cx="97" cy="430" fill="none" opacity="0.39409526455464333" r="60" stroke="rgb(243, 142, 43)" stroke-width="1.7239272427908952" /><circle cx="71" cy="280" fill="none" opacity="0.5361101281425322" r="107" stroke="rgb(89, 249, 95)" stroke-width="2.2810363740243256" /><rect fill="none" height="47" stroke="rgb(184, 200, 214)" stroke-width="3.8353966974343594" transform="rotate(303 183 313)" width="160" x="430" y="276" /><line stroke="rgb(29, 227, 147)" stroke-width="1.7170303674801382" x1="249" x2="401" y1="313" y2="556" /><line stroke="rgb(14, 242, 191)" stroke-width="2.1822611655429256" x1="240" x2="194" y1="141" y2="0" /><line stroke="rgb(59, 193, 111)" stroke-width="0.9788891752204469" x1="252" x2="474" y1="462" y2="288" /><line stroke="rgb(86, 149, 191)" stroke-width="0.83237563535946" x1="343" x2="337" y1="186" y2="600" /><line stroke="rgb(209, 55, 207)" stroke-width="2.4065520473954995" x1="93" x2="71" y1="261" y2="427" /><line stroke="rgb(51, 157, 33)" stroke-width="2.9486136947165464" x1="588" x2="338" y1="32" y2="581" /><line stroke="rgb(232, 185, 124)" stroke-width="2.4524485981506894" x1="207" x2="483" y1="533" y2="197" /><line stroke="rgb(143, 30, 47)" stroke-width="2.476031954275293" x1="575" x2="485" y1="184" y2="77" /><line stroke="rgb(66, 66, 148)" stroke-width="2.4441809993029446" x1="218" x2="551" y1="566" y2="241" /><line stroke="rgb(124, 112, 139)" stroke-width="1.5175222168557931" x1="383" x2="14" y1="419" y2="353" /><line stroke="rgb(171, 88, 224)" stroke-width="1.054972938863056" x1="0" x2="23" y1="222" y2="610" /><line stroke="rgb(137, 128, 166)" stroke-width="1.8499395989809646" x1="93" x2="427" y1="588" y2="85" /><line stroke="rgb(145, 147, 53)" stroke-width="1.0238608131082787" x1="409" x2="577" y1="282" y2="84" /><polygon fill="none" points="336,551 403,402 363,278 13,187" stroke="rgb(6, 116, 4)" stroke-width="2.6008111574491153" /><circle cx="54" cy="232" fill="none" opacity="0.4108001298333461" r="50" stroke="rgb(217, 1, 231)" stroke-width="1.1308960999304956" /><path d="M609,503 L358,5 L261,71 Q244,460 308,644" fill="none" stroke="rgb(231, 116, 145)" stroke-width="0.551792473638911" /></svg>