<svg baseProfile="full" height="418px" version="1.1" width="835px" xmlns="http://www.w3.org/2000/svg" xmlns:ev="http://www.w3.org/2001/xml-events" xmlns:xlink="http://www.w3.org/1999/xlink"><defs /><rect fill="rgb(218, 247, 212)" height="418px" width="835px" x="0" y="0" /><polygon fill="none" points="728,109 52,369 646,84 602,234 479,167 42,55" stroke="rgb(210, 83, 175)" stroke-width="3.51937530050672" /><line stroke="rgb(91, 181, 118)" stroke-width="2.8256673583767355" x1="216" x2="417" y1="252" y2="116" /><line stroke="rgb(56, 192, 29)" stroke-width="1.7117156156926658" x1="264" x2="485" y1="107" y2="116" /><line stroke="rgb(10, 165, 129)" stroke-width="2.0457368199796804" x1="805" x2="134" y1="82" y2="276" /><circle cx="471" cy="122" fill="none" opacity="0.707127479554288" r="17" stroke="rgb(152, 195, 141)" stroke-width="4.358812156440935" /><path d="M739,236 C724,283 356,289 697,31 L437,326 Q583,123 531,170 L447,274" fill="none" stroke="rgb(245, 120, 7)" stroke-width="2.0481563657268724" /><rect fill="none" height="44" stroke="rgb(11, 120, 164)" stroke-width="3.0334383598758423" transform="rotate(35 796 357)" width="151" x="659" y="8" /><path d="M327,304 L335,22 L46,140 Q278,94 399,298 Q813,214 199,249 L634,126 L30,362" fill="none" stroke="rgb(122, 5, 92)" stroke-width="1.0173829382210746" /><polygon fill="none" points="611,332 365,317 820,186 806,74 73,134" stroke="rgb(188, 209, 21)" stroke-width="0.6856251030678824" /><rect fill="none" height="182" stroke="rgb(103, 205, 46)" stroke-width="1.3841811290623827" transform="rotate(108 802 315)" width="61" x="538" y="121" /><circle cx="100" cy="281" fill="none" opacity="0.8934761912693334" r="46" stroke="rgb(121, 140, 161)" stroke-width="1.2061814184803727" /><circle cx="332" cy="67" fill="none" opacity="0.7563230805049435" r="21" stroke="rgb(124, 57, 71)" stroke-width="2.852275333593648" /><line stroke="rgb(143, 31, 110)" stroke-width="2.388168241348747" x1="553" x2="293" y1="209" y2="400" /><line stroke="rgb(89, 86, 206)" stroke-width="2.3595297897439895" x1="506" x2="770" y1="196" y2="67" /><line stroke="rgb(110, 77, 129)" stroke-width="1.7893523203580206" x1="153" x2="327" y1="215" y2="334" /><line stroke="rgb(18, 191, 40)" stroke-width="2.4839266929294386" x1="726" x2="218" y1="123" y2="395" /><line stroke="rgb(33, 88, 125)" stroke-width="1.5696707821803109" x1="518" x2="594" y1="78" y2="260" /><line stroke="rgb(112, 5, 223)" stroke-width="0.6548859106285292" x1="189" x2="151" y1="167" y2="148" /><line stroke="rgb(62, 19, 60)" stroke-width="2.947088301828772" x1="612" x2="337" y1="215" y2="56" /><line stroke="rgb(183, 35, 67)" stroke-width="1.8689063146248215" x1="504" x2="545" y1="266" y2="45" /><line stroke="rgb(66, 180, 233)" stroke-width="1.3613761582499584" x1="468" x2="323" y1="70" y2="242" /><path d="M333,303 Q11,6 148,402 L240,365 C256,203 607,80 490,331 L197,291 L465,357 L15,223 L641,17" fill="none" stroke="rgb(115, 100, 219)" stroke-width="1.2339870390551184" /><rect fill="none" height="90" stroke="rgb(233, 143, 113)" stroke-width="0.8928907834171121" transform="rotate(355 231 267)" width="195" x="382" y="186" /><circle cx="760" cy="133" fill="none" opacity="0.3398615098317744" r="59" stroke="rgb(52, 43, 157)" stroke-width="1.5466973684186098" /><line stroke="rgb(55, 182, 192)" stroke-width="2.835741004330752" x1="44" x2="513" y1="249" y2="205" /><line stroke="rgb(71, 13, 69)" stroke-width="2.8181891407551687" x1="750" x2="819" y1="10" y2="184" /><line stroke="rgb(54, 13, 224)" stroke-width="2.3196851758864074" x1="253" x2="628" y1="22" y2="86" /><line stroke="rgb(112, 101, 85)" stroke-width="2.436733411595254" x1="652" x2="305" y1="325" y2="388" /><line stroke="rgb(203, 182, 131)" stroke-width="1.0008485517666155" x1="37" x2="49" y1="205" y2="215" /><rect fill="none" height="110" stroke="rgb(97, 205, 246)" stroke-width="1.3373171515139952" transform="rotate(338 137 157)" width="190" x="234" y="30" /><line stroke="rgb(205, 139, 148)" stroke-width="0.7786531386682817" x1="466" x2="3" y1="57" y2="245" /><line stroke="rgb(16, 225, 87)" stroke-width="1.6885769398174262" x1="586" x2="687" y1="127" y2="249" /><line stroke="rgb(233, 99, 39)" stroke-width="1.4276130050923723" x1="462" x2="35" y1="404" y2="96" /><line stroke="rgb(254, 158, 116)" stroke-width="2.618086545064796" x1="650" x2="683" y1="183" y2="119" /><line stroke="rgb(9, 227, 124)" stroke-width="2.355529280043555" x1="555" x2="442" y1="270" y2="174" /><line stroke="rgb(61, 254, 141)" stroke-width="1.2981184967193136" x1="605" x2="63" y1="410" y2="359" /><line stroke="rgb(44, 155, 233)" stroke-width="0.5094913565092508" x1="429" x2="77" y1="181" y2="416" /></svg>