<svg baseProfile="full" height="509px" version="1.1" width="802px" xmlns="http://www.w3.org/2000/svg" xmlns:ev="http://www.w3.org/2001/xml-events" xmlns:xlink="http://www.w3.org/1999/xlink"><defs /><rect fill="rgb(240, 252, 205)" height="509px" width="802px" x="0" y="0" /><path d="M583,140 C774,373 758,432 434,237 L485,507 C124,411 492,189 666,193 Q769,454 331,238 Q38,317 551,136" fill="none" stroke="rgb(179, 193, 239)" stroke-width="0.984363071665199" /><circle cx="574" cy="319" fill="none" opacity="0.9844516984428018" r="121" stroke="rgb(142, 246, 185)" stroke-width="2.4636116674182285" /><circle cx="362" cy="401" fill="none" opacity="0.36891149380632315" r="101" stroke="rgb(204, 196, 21)" stroke-width="2.8346631468841723" /><line stroke="rgb(51, 226, 225)" stroke-width="1.9022163795549967" x1="613" x2="434" y1="404" y2="85" /><line stroke="rgb(169, 208, 166)" stroke-width="0.6787846409312457" x1="516" x2="673" y1="121" y2="395" /><line stroke="rgb(4, 168, 19)" stroke-width="1.265464213268309" x1="56" x2="90" y1="285" y2="90" /><line stroke="rgb(225, 105, 164)" stroke-width="2.051572768363559" x1="478" x2="131" y1="49" y2="207" /><rect fill="none" height="164" stroke="rgb(105, 109, 4)" stroke-width="2.3698326042885247" transform="rotate(254 184 264)" width="27" x="413" y="50" /><path d="M433,352 L81,499 C684,506 146,196 522,196 C336,468 240,119 643,467" fill="none" stroke="rgb(247, 89, 190)" stroke-width="2.9800457618405374" /><polygon fill="none" points="6,493 566,210 262,449" stroke="rgb(92, 174, 105)" stroke-width="2.6974568958612846" /><path d="M187,26 C360,62 550,85 360,310 C486,148 706,151 7,205 C155,417 83,62 400,364 C714,171 671,277 227,23 Q608,363 647,88 Q310,395 309,66 Q797,336 403,205" fill="none" stroke="rgb(169, 108, 121)" stroke-width="1.4630416645210307" /><circle cx="430" cy="288" fill="none" opacity="0.6706643358347674" r="97" stroke="rgb(1, 154, 133)" stroke-width="1.7867722352692248" /><circle cx="334" cy="84" fill="none" opacity="0.3772638630847495" r="11" stroke="rgb(54, 211, 73)" stroke-width="4.927313589331393" /><path d="M755,500 C403,424 208,322 448,398 L356,479 C147,303 276,265 332,435 L136,352 C240,127 216,103 162,56" fill="none" stroke="rgb(202, 106, 246)" stroke-width="1.561708480275002" /><circle cx="195" cy="58" fill="none" opacity="0.9001062781147173" r="19" stroke="rgb(180, 92, 223)" stroke-width="2.739981505313571" /><polygon fill="none" points="656,34 224,490 773,216 634,155 414,343" stroke="rgb(161, 213, 146)" stroke-width="1.1887358962394416" /><polygon fill="none" points="379,93 521,340 741,410" stroke="rgb(64, 146, 86)" stroke-width="3.034797013283116" /><circle cx="676" cy="69" fill="none" opacity="0.37460011347222294" r="92" stroke="rgb(221, 141, 161)" stroke-width="0.9489572909368214" /><line stroke="rgb(22, 178, 97)" stroke-width="1.119848995899357" x1="88" x2="204" y1="133" y2="281" /><line stroke="rgb(222, 21, 221)" stroke-width="2.464293187871589" x1="502" x2="718" y1="160" y2="424" /><line stroke="rgb(158, 154, 3)" stroke-width="1.2475481725671442" x1="690" x2="278" y1="343" y2="184" /><line stroke="rgb(64, 140, 189)" stroke-width="2.223884721317407" x1="768" x2="50" y1="352" y2="392" /><line stroke="rgb(176, 144, 214)" stroke-width="2.9921029322982062" x1="32" x2="620" y1="60" y2="370" /><line stroke="rgb(127, 1, 135)" stroke-width="1.633434366549508" x1="468" x2="300" y1="107" y2="328" /><line stroke="rgb(156, 98, 243)" stroke-width="1.0296406553919746" x1="636" x2="691" y1="77" y2="241" /><line stroke="rgb(143, 169, 158)" stroke-width="1.9623347739463322" x1="122" x2="379" y1="197" y2="385" /><line stroke="rgb(62, 203, 123)" stroke-width="0.6153126088211178" x1="649" x2="90" y1="500" y2="160" /><line stroke="rgb(11, 190, 150)" stroke-width="0.8656452617836683" x1="310" x2="109" y1="97" y2="348" /><line stroke="rgb(173, 113, 221)" stroke-width="1.362726848623124" x1="663" x2="222" y1="63" y2="340" /><line stroke="rgb(20, 224, 85)" stroke-width="2.5656571777409347" x1="785" x2="681" y1="469" y2="405" /><line stroke="rgb(209, 205, 135)" stroke-width="0.9368076225221451" x1="391" x2="390" y1="417" y2="16" /><line stroke="rgb(18, 0, 191)" stroke-width="1.3072929136467257" x1="315" x2="583" y1="328" y2="92" /><line stroke="rgb(161, 33, 141)" stroke-width="2.762000219158395" x1="704" x2="578" y1="312" y2="353" /><line stroke="rgb(53, 140, 38)" stroke-width="2.0602448363132737" x1="233" x2="392" y1="413" y2="382" /><line stroke="rgb(21, 39, 179)" stroke-width="2.4773517283643325" x1="268" x2="207" y1="467" y2="412" /><line stroke="rgb(13, 180, 109)" stroke-width="2.204602624461022" x1="743" x2="610" y1="141" y2="179" /><line stroke="rgb(149, 144, 91)" stroke-width="2.7742960693690963" x1="353" x2="141" y1="470" y2="135" /><path d="M223,68 L35,130 Q554,164 255,7 C652,451 62,13 774,140 L706,154 C419,177 602,110 802,188 L500,103 C318,110 590,151 146,43" fill="none" stroke="rgb(219, 43, 94)" stroke-width="2.3561847358934345" /><path d="M463,75 Q257,405 505,37 L738,114 L592,109 Q750,457 414,81 C405,381 656,144 27,298 C78,157 777,147 490,404" fill="none" stroke="rgb(32, 204, 20)" stroke-width="1.7308047316547222" /><path d="M696,175 L291,375 C96,387 467,103 484,103 Q148,390 772,453 C514,406 62,88 47,178 L569,434 Q299,373 697,53 Q463,212 43,369" fill="none" stroke="rgb(152, 99, 70)" stroke-width="0.7013211824108709" /><circle cx="417" cy="268" fill="none" opacity="0.4192629737459382" r="50" stroke="rgb(82, 195, 101)" stroke-width="1.7094392204758064" /><line stroke="rgb(201, 172, 239)" stroke-width="2.469984110616837" x1="390" x2="617" y1="473" y2="82" /><line stroke="rgb(194, 101, 43)" stroke-width="2.148120227993524" x1="789" x2="169" y1="163" y2="322" /><line stroke="rgb(233, 237, 144)" stroke-width="2.5031331292699313" x1="39" x2="270" y1="448" y2="76" /><line stroke="rgb(37, 74, 243)" stroke-width="2.110673192655853" x1="20" x2="522" y1="18" y2="250" /><line stroke="rgb(7, 219, 45)" stroke-width="2.0972145921808147" x1="438" x2="500" y1="380" y2="150" /></svg>