<svg baseProfile="full" height="500px" version="1.1" width="757px" xmlns="http://www.w3.org/2000/svg" xmlns:ev="http://www.w3.org/2001/xml-events" xmlns:xlink="http://www.w3.org/1999/xlink"><defs /><rect fill="rgb(250, 247, 220)" height="500px" width="757px" x="0" y="0" /><circle cx="707" cy="73" fill="none" opacity="0.8133192265269436" r="117" stroke="rgb(37, 180, 43)" stroke-width="0.6289230445808962" /><polygon fill="none" points="247,353 460,490 345,199 271,301 570,468 147,71" stroke="rgb(118, 13, 30)" stroke-width="1.2148404223768428" /><path d="M613,378 Q294,206 351,241 L629,482 L71,301 L371,333 C21,129 309,392 515,185 Q546,96 184,383 L651,332" fill="none" stroke="rgb(174, 139, 129)" stroke-width="1.8687661963833317" /><line stroke="rgb(37, 153, 198)" stroke-width="1.8917860669229476" x1="205" x2="18" y1="194" y2="46" /><line stroke="rgb(212, 155, 171)" stroke-width="0.9114920520653709" x1="662" x2="753" y1="359" y2="428" /><line stroke="rgb(27, 15, 32)" stroke-width="2.4914930098646804" x1="423" x2="473" y1="73" y2="219" /><circle cx="602" cy="276" fill="none" opacity="0.42979108918806563" r="125" stroke="rgb(136, 251, 15)" stroke-width="2.3181851071521518" /><rect fill="none" height="141" stroke="rgb(52, 186, 18)" stroke-width="4.898086126283485" transform="rotate(99 446 410)" width="155" x="184" y="347" /><polygon fill="none" points="666,239 439,459 529,53 44,336 41,216 369,495 618,43 366,208" stroke="rgb(167, 232, 10)" stroke-width="3.505062290008513" /><polygon fill="none" points="24,366 641,90 386,172 227,312 483,195" stroke="rgb(25, 138, 135)" stroke-width="3.045289164969556" /><polygon fill="none" points="125,171 339,118 503,126 58,378" stroke="rgb(43, 106, 197)" stroke-width="2.8838646882935772" /><line stroke="rgb(248, 213, 22)" stroke-width="1.275466400420355" x1="570" x2="319" y1="70" y2="410" /><line stroke="rgb(148, 246, 233)" stroke-width="0.6964378115666063" x1="346" x2="647" y1="487" y2="384" /><line stroke="rgb(25, 115, 202)" stroke-width="2.6959528499239536" x1="147" x2="484" y1="214" y2="195" /><line stroke="rgb(81, 23, 138)" stroke-width="2.0539122794641926" x1="435" x2="419" y1="500" y2="154" /><line stroke="rgb(205, 198, 4)" stroke-width="2.1480362878782127" x1="446" x2="405" y1="186" y2="43" /><line stroke="rgb(39, 156, 49)" stroke-width="2.7806295846768516" x1="737" x2="623" y1="314" y2="152" /><rect fill="none" height="23" stroke="rgb(148, 5, 45)" stroke-width="4.106768870309411" transform="rotate(181 142 255)" width="166" x="103" y="276" /><line stroke="rgb(4, 186, 81)" stroke-width="1.3516325783157033" x1="587" x2="24" y1="86" y2="218" /><line stroke="rgb(0, 228, 245)" stroke-width="2.5433339161287134" x1="492" x2="720" y1="35" y2="413" /><line stroke="rgb(240, 84, 68)" stroke-width="2.981546219178565" x1="442" x2="126" y1="287" y2="38" /><line stroke="rgb(45, 185, 213)" stroke-width="1.4912100171718552" x1="747" x2="40" y1="147" y2="472" /><line stroke="rgb(210, 153, 174)" stroke-width="0.8948735922063634" x1="266" x2="717" y1="268" y2="69" /><line stroke="rgb(32, 49, 132)" stroke-width="2.375682624726383" x1="338" x2="750" y1="20" y2="274" /><line stroke="rgb(52, 205, 169)" stroke-width="2.723361396086278" x1="507" x2="258" y1="470" y2="491" /><line stroke="rgb(149, 198, 249)" stroke-width="0.654310993500312" x1="626" x2="39" y1="34" y2="378" /><line stroke="rgb(92, 90, 111)" stroke-width="1.770191584941129" x1="669" x2="502" y1="346" y2="442" /><line stroke="rgb(168, 45, 166)" stroke-width="1.5443087374329014" x1="657" x2="505" y1="147" y2="407" /><circle cx="50" cy="118" fill="none" opacity="0.5600717126080492" r="13" stroke="rgb(100, 64, 121)" stroke-width="1.8744961574154377" /></svg>