<svg baseProfile="full" height="793px" version="1.1" width="659px" xmlns="http://www.w3.org/2000/svg" xmlns:ev="http://www.w3.org/2001/xml-events" xmlns:xlink="http://www.w3.org/1999/xlink"><defs /><rect fill="rgb(247, 247, 235)" height="793px" width="659px" x="0" y="0" /><rect fill="none" height="100" stroke="rgb(102, 13, 58)" stroke-width="0.9858661554162822" transform="rotate(196 483 89)" width="130" x="108" y="515" /><rect fill="none" height="25" stroke="rgb(201, 247, 140)" stroke-width="3.2848769238311295" transform="rotate(211 109 269)" width="92" x="299" y="466" /><polygon fill="none" points="192,329 325,793 513,178 461,720" stroke="rgb(58, 40, 38)" stroke-width="2.23188551003787" /><polygon fill="none" points="637,282 317,122 144,486 8,377" stroke="rgb(148, 152, 214)" stroke-width="2.585891405887441" /><rect fill="none" height="103" stroke="rgb(23, 211, 18)" stroke-width="2.073645413680721" transform="rotate(304 334 394)" width="86" x="407" y="92" /><path d="M335,780 C55,314 651,548 599,756 Q205,358 453,377 Q300,441 418,480" fill="none" stroke="rgb(155, 137, 91)" stroke-width="1.1063493346694815" /><path d="M525,774 Q557,768 437,537 C471,289 198,662 565,765 L155,259 Q351,737 121,686 C641,117 520,356 565,576" fill="none" stroke="rgb(70, 12, 89)" stroke-width="1.9268287751411604" /><line stroke="rgb(24, 246, 143)" stroke-width="2.2784510803764144" x1="219" x2="426" y1="695" y2="500" /><line stroke="rgb(60, 178, 187)" stroke-width="0.8978845366381276" x1="130" x2="40" y1="161" y2="516" /><line stroke="rgb(38, 92, 52)" stroke-width="2.4189257034617975" x1="103" x2="162" y1="564" y2="416" /><line stroke="rgb(212, 223, 176)" stroke-width="1.434666572973908" x1="644" x2="440" y1="143" y2="111" /><line stroke="rgb(210, 127, 118)" stroke-width="2.13957728766147" x1="542" x2="138" y1="438" y2="68" /><line stroke="rgb(134, 0, 122)" stroke-width="2.3389578343089683" x1="507" x2="171" y1="351" y2="546" /><line stroke="rgb(86, 189, 65)" stroke-width="2.14168709085237" x1="355" x2="491" y1="728" y2="298" /><line stroke="rgb(127, 133, 130)" stroke-width="2.1516070029230656" x1="125" x2="650" y1="412" y2="244" /><line stroke="rgb(149, 54, 57)" stroke-width="1.4372347813152924" x1="536" x2="226" y1="576" y2="457" /><polygon fill="none" points="279,371 245,593 162,435" stroke="rgb(192, 27, 50)" stroke-width="3.17940488392612" /><line stroke="rgb(123, 97, 175)" stroke-width="1.0893723647210423" x1="446" x2="508" y1="440" y2="588" /><line stroke="rgb(59, 226, 144)" stroke-width="0.8652657590888051" x1="544" x2="80" y1="252" y2="428" /><line stroke="rgb(53, 19, 213)" stroke-width="1.4767237290455355" x1="262" x2="196" y1="368" y2="483" /><line stroke="rgb(135, 63, 232)" stroke-width="1.622874124718265" x1="94" x2="296" y1="663" y2="167" /><circle cx="207" cy="106" fill="none" opacity="0.5672853341858872" r="111" stroke="rgb(169, 123, 142)" stroke-width="4.990860647138156" /><rect fill="none" height="182" stroke="rgb(200, 237, 90)" stroke-width="2.741982222203453" transform="rotate(44 345 357)" width="108" x="151" y="234" /><path d="M565,93 Q411,393 418,537 L212,768 C422,48 46,77 400,468 L266,654" fill="none" stroke="rgb(222, 22, 14)" stroke-width="1.7877622682305987" /><polygon fill="none" points="350,258 36,167 201,578 83,710" stroke="rgb(11, 53, 226)" stroke-width="3.195113363223813" /><circle cx="315" cy="475" fill="none" opacity="0.8930746429985599" r="110" stroke="rgb(133, 19, 164)" stroke-width="2.2520257855645256" /><path d="M97,510 L127,711 L555,431 C27,285 612,730 144,663 L546,362 L60,148 L119,566 C71,321 378,100 350,13" fill="none" stroke="rgb(67, 211, 246)" stroke-width="2.038208654355966" /><line stroke="rgb(184, 56, 167)" stroke-width="1.3225890555198219" x1="300" x2="255" y1="279" y2="74" /><line stroke="rgb(148, 23, 72)" stroke-width="2.410513613610634" x1="250" x2="61" y1="671" y2="264" /><line stroke="rgb(163, 73, 12)" stroke-width="2.2461691255888123" x1="31" x2="288" y1="650" y2="541" /><line stroke="rgb(71, 244, 186)" stroke-width="0.6608665576296795" x1="347" x2="374" y1="188" y2="341" /><line stroke="rgb(165, 190, 33)" stroke-width="2.5968698193239255" x1="556" x2="68" y1="271" y2="252" /><line stroke="rgb(174, 69, 207)" stroke-width="2.40797900618779" x1="271" x2="368" y1="530" y2="492" /><line stroke="rgb(241, 59, 121)" stroke-width="1.8950770323044146" x1="386" x2="314" y1="187" y2="468" /><polygon fill="none" points="340,256 50,686 513,231 85,543 124,446 13,156" stroke="rgb(239, 241, 243)" stroke-width="1.619564140074403" /><path d="M529,355 C657,633 289,113 46,777 L602,692 C489,49 606,178 523,97" fill="none" stroke="rgb(49, 38, 10)" stroke-width="1.0258053555742193" /><circle cx="166" cy="158" fill="none" opacity="0.7977609321082682" r="86" stroke="rgb(64, 135, 61)" stroke-width="3.791460426132625" /><path d="M94,671 Q115,697 280,48 Q618,271 369,292 C179,70 270,236 185,212 L145,626 Q469,772 616,359" fill="none" stroke="rgb(77, 75, 92)" stroke-width="0.9653181776833983" /><polygon fill="none" points="395,183 14,479 99,730 537,440" stroke="rgb(153, 212, 212)" stroke-width="2.3863679840946714" /><rect fill="none" height="63" stroke="rgb(93, 156, 62)" stroke-width="3.413013291350649" transform="rotate(26 465 768)" width="199" x="465" y="547" /><polygon fill="none" points="516,587 506,176 399,232 283,54 392,509 286,409 292,5 1,121" stroke="rgb(244, 203, 201)" stroke-width="3.775700670835957" /><line stroke="rgb(154, 44, 60)" stroke-width="2.5623696862885446" x1="469" x2="118" y1="734" y2="751" /><line stroke="rgb(31, 139, 8)" stroke-width="1.9871985168830084" x1="170" x2="368" y1="578" y2="758" /><line stroke="rgb(238, 190, 83)" stroke-width="1.3830850982470453" x1="255" x2="184" y1="664" y2="590" /><line stroke="rgb(121, 246, 77)" stroke-width="2.4905480686478985" x1="214" x2="586" y1="688" y2="483" /><line stroke="rgb(168, 58, 125)" stroke-width="1.59597390600745" x1="472" x2="638" y1="605" y2="394" /><line stroke="rgb(117, 223, 167)" stroke-width="1.9952892099638908" x1="43" x2="390" y1="53" y2="437" /><line stroke="rgb(83, 13, 218)" stroke-width="1.3523606669830983" x1="316" x2="69" y1="634" y2="336" /><line stroke="rgb(104, 67, 97)" stroke-width="0.5458353576508952" x1="268" x2="525" y1="760" y2="668" /><circle cx="347" cy="576" fill="none" opacity="0.993592253839181" r="30" stroke="rgb(220, 1, 32)" stroke-width="2.7342053795178147" /><polygon fill="none" points="100,48 611,131 85,709 13,160" stroke="rgb(16, 212, 228)" stroke-width="2.3381221223222486" /><line stroke="rgb(141, 193, 244)" stroke-width="1.8660093575211847" x1="50" x2="167" y1="451" y2="424" /><line stroke="rgb(43, 105, 43)" stroke-width="1.7656011871984632" x1="417" x2="602" y1="353" y2="162" /><line stroke="rgb(205, 34, 113)" stroke-width="1.3143970978227977" x1="296" x2="197" y1="696" y2="7" /><line stroke="rgb(158, 77, 92)" stroke-width="1.1404475842239112" x1="154" x2="618" y1="559" y2="457" /><line stroke="rgb(213, 150, 99)" stroke-width="2.225376336289101" x1="66" x2="607" y1="60" y2="167" /><line stroke="rgb(37, 243, 4)" stroke-width="2.1558403287059433" x1="473" x2="649" y1="374" y2="555" /><line stroke="rgb(39, 90, 251)" stroke-width="2.0716594239952237" x1="625" x2="430" y1="405" y2="508" /><line stroke="rgb(46, 51, 58)" stroke-width="1.8347789941307109" x1="338" x2="133" y1="172" y2="27" /><line stroke="rgb(138, 154, 191)" stroke-width="0.6968639968701669" x1="654" x2="474" y1="571" y2="341" /><line stroke="rgb(117, 26, 39)" stroke-width="1.6744823082192064" x1="598" x2="211" y1="413" y2="176" /><line stroke="rgb(237, 210, 182)" stroke-width="2.5683726487450773" x1="443" x2="119" y1="645" y2="357" /><line stroke="rgb(91, 76, 235)" stroke-width="0.7344845504351081" x1="394" x2="218" y1="255" y2="591" /><line stroke="rgb(224, 182, 215)" stroke-width="2.798770910387741" x1="322" x2="438" y1="782" y2="573" /><line stroke="rgb(119, 177, 255)" stroke-width="2.4198865777364964" x1="340" x2="607" y1="128" y2="61" /><circle cx="439" cy="190" fill="none" opacity="0.48204915353533306" r="35" stroke="rgb(248, 231, 193)" stroke-width="3.274161257943229" /><rect fill="none" height="77" stroke="rgb(208, 170, 76)" stroke-width="1.7890521506683634" transform="rotate(137 41 416)" width="71" x="248" y="465" /><polygon fill="none" points="328,289 462,658 286,642 656,545 419,339 584,676 50,576" stroke="rgb(55, 136, 89)" stroke-width="3.0753865238757707" /><line stroke="rgb(162, 45, 25)" stroke-width="1.6651234531203223" x1="599" x2="645" y1="686" y2="4" /><line stroke="rgb(189, 140, 199)" stroke-width="0.7659299008131297" x1="222" x2="636" y1="182" y2="49" /><line stroke="rgb(83, 42, 76)" stroke-width="2.9142646981052303" x1="58" x2="87" y1="472" y2="198" /><line stroke="rgb(149, 16, 104)" stroke-width="0.9644308023697044" x1="496" x2="184" y1="696" y2="188" /><line stroke="rgb(89, 7, 16)" stroke-width="2.2468762619541582" x1="543" x2="56" y1="563" y2="260" /><line stroke="rgb(18, 45, 103)" stroke-width="2.2941418822145616" x1="344" x2="599" y1="313" y2="256" /><line stroke="rgb(229, 47, 45)" stroke-width="2.472139082216978" x1="333" x2="348" y1="295" y2="311" /><line stroke="rgb(181, 150, 119)" stroke-width="2.4732966250692985" x1="492" x2="63" y1="754" y2="339" /><line stroke="rgb(120, 120, 98)" stroke-width="2.8375175981779486" x1="120" x2="444" y1="271" y2="657" /><line stroke="rgb(247, 96, 248)" stroke-width="1.3399413950892887" x1="62" x2="55" y1="230" y2="368" /><path d="M108,301 L86,671 L584,745 L385,433 C57,451 142,792 285,470 C431,59 139,487 395,441 C432,262 1,314 119,121 L463,386" fill="none" stroke="rgb(10, 238, 153)" stroke-width="2.640781225680985" /><path d="M10,232 L40,456 Q94,343 375,241 Q153,677 387,516" fill="none" stroke="rgb(224, 43, 80)" stroke-width="0.7767992147733525" /><circle cx="586" cy="569" fill="none" opacity="0.44098510802667257" r="134" stroke="rgb(69, 165, 132)" stroke-width="2.551443475352871" /><circle cx="198" cy="403" fill="none" opacity="0.5434650353204097" r="43" stroke="rgb(158, 137, 234)" stroke-width="2.729283464168415" /><rect fill="none" height="192" stroke="rgb(129, 33, 164)" stroke-width="3.600478567542831" transform="rotate(349 597 352)" width="70" x="223" y="4" /><rect fill="none" height="190" stroke="rgb(102, 249, 11)" stroke-width="4.851552319791457" transform="rotate(140 445 116)" width="92" x="200" y="194" /></svg>