<svg baseProfile="full" height="438px" version="1.1" width="838px" xmlns="http://www.w3.org/2000/svg" xmlns:ev="http://www.w3.org/2001/xml-events" xmlns:xlink="http://www.w3.org/1999/xlink"><defs /><rect fill="rgb(253, 254, 221)" height="438px" width="838px" x="0" y="0" /><rect fill="none" height="42" stroke="rgb(104, 253, 164)" stroke-width="2.626943975524658" transform="rotate(328 11 215)" width="128" x="97" y="205" /><rect fill="none" height="113" stroke="rgb(169, 198, 228)" stroke-width="3.1797928185774333" transform="rotate(94 629 215)" width="116" x="205" y="100" /><path d="M121,216 L532,276 Q467,213 785,166 Q87,268 745,215 Q635,43 72,136 C168,401 7,142 150,134 Q459,333 580,283 L453,230" fill="none" stroke="rgb(253, 212, 161)" stroke-width="2.580909464293092" /><circle cx="600" cy="380" fill="none" opacity="0.8172897222086741" r="84" stroke="rgb(89, 94, 142)" stroke-width="0.8113594668744353" /><polygon fill="none" points="312,255 164,64 310,122 246,125 193,208 299,40" stroke="rgb(185, 109, 180)" stroke-width="0.5144125351517167" /><line stroke="rgb(99, 66, 39)" stroke-width="2.16783987261673" x1="797" x2="571" y1="408" y2="354" /><line stroke="rgb(102, 199, 149)" stroke-width="1.9443872858277027" x1="513" x2="122" y1="361" y2="177" /><line stroke="rgb(182, 203, 121)" stroke-width="2.668956566029513" x1="32" x2="330" y1="108" y2="57" /><line stroke="rgb(213, 249, 90)" stroke-width="2.3119008897527764" x1="733" x2="468" y1="265" y2="430" /><line stroke="rgb(31, 112, 93)" stroke-width="2.822023212189738" x1="491" x2="831" y1="106" y2="274" /><polygon fill="none" points="152,261 630,232 68,248 169,366 22,133" stroke="rgb(127, 222, 223)" stroke-width="3.6758680193315114" /><line stroke="rgb(53, 123, 177)" stroke-width="0.8450050459705154" x1="604" x2="625" y1="71" y2="328" /><line stroke="rgb(31, 223, 13)" stroke-width="2.238540949045774" x1="701" x2="72" y1="421" y2="287" /><line stroke="rgb(150, 220, 159)" stroke-width="0.5921597320909842" x1="473" x2="590" y1="351" y2="269" /><line stroke="rgb(57, 240, 162)" stroke-width="1.9130754191333899" x1="569" x2="608" y1="436" y2="376" /><line stroke="rgb(94, 151, 139)" stroke-width="2.369059097942334" x1="237" x2="524" y1="114" y2="178" /><line stroke="rgb(95, 4, 5)" stroke-width="0.9495156567493608" x1="75" x2="428" y1="414" y2="306" /><line stroke="rgb(217, 135, 253)" stroke-width="1.641826424405775" x1="377" x2="724" y1="291" y2="84" /><line stroke="rgb(165, 126, 242)" stroke-width="1.953131219453424" x1="324" x2="107" y1="187" y2="296" /><path d="M479,435 Q269,419 558,306 C213,163 667,281 758,423 Q438,376 696,243 L426,8 C685,347 819,199 86,423 Q567,270 520,223 L837,78" fill="none" stroke="rgb(148, 62, 76)" stroke-width="0.9230006355672683" /><circle cx="450" cy="107" fill="none" opacity="0.9651963268379922" r="22" stroke="rgb(128, 131, 196)" stroke-width="3.5063529712827135" /><circle cx="291" cy="217" fill="none" opacity="0.9604763457224941" r="97" stroke="rgb(230, 226, 98)" stroke-width="2.6392945533006347" /><rect fill="none" height="134" stroke="rgb(156, 19, 54)" stroke-width="4.653281273967119" transform="rotate(139 310 426)" width="74" x="623" y="294" /><path d="M640,424 Q97,95 454,264 C650,163 753,319 487,49 Q358,407 680,354 C520,375 553,246 584,298 Q663,365 821,76 Q593,379 36,126" fill="none" stroke="rgb(44, 155, 98)" stroke-width="2.725575823267662" /><line stroke="rgb(240, 85, 75)" stroke-width="2.970185484200617" x1="550" x2="379" y1="115" y2="308" /><line stroke="rgb(186, 233, 185)" stroke-width="2.3539726837337125" x1="115" x2="330" y1="5" y2="120" /><line stroke="rgb(147, 155, 97)" stroke-width="0.9967726601249556" x1="441" x2="758" y1="137" y2="345" /><line stroke="rgb(43, 92, 253)" stroke-width="2.123659616644658" x1="217" x2="302" y1="17" y2="20" /><line stroke="rgb(236, 210, 142)" stroke-width="2.609465628878628" x1="652" x2="514" y1="67" y2="114" /><line stroke="rgb(212, 156, 65)" stroke-width="2.2198565243535335" x1="753" x2="15" y1="325" y2="147" /><line stroke="rgb(181, 117, 240)" stroke-width="1.2087478628245676" x1="745" x2="806" y1="227" y2="400" /><rect fill="none" height="170" stroke="rgb(101, 26, 40)" stroke-width="3.97267306096643" transform="rotate(106 558 401)" width="96" x="115" y="197" /><polygon fill="none" points="275,62 587,242 538,70 538,97 294,282" stroke="rgb(53, 93, 61)" stroke-width="2.6654871905278927" /><line stroke="rgb(173, 80, 32)" stroke-width="1.9603701228450825" x1="541" x2="486" y1="2" y2="271" /><line stroke="rgb(146, 217, 84)" stroke-width="0.578046430127864" x1="357" x2="487" y1="283" y2="177" /><line stroke="rgb(223, 124, 108)" stroke-width="2.551640588176005" x1="349" x2="368" y1="220" y2="69" /><line stroke="rgb(248, 98, 5)" stroke-width="1.7725310198910158" x1="409" x2="763" y1="222" y2="235" /><line stroke="rgb(147, 2, 147)" stroke-width="1.3330663439810826" x1="358" x2="210" y1="145" y2="430" /><line stroke="rgb(197, 223, 19)" stroke-width="1.371415957321233" x1="573" x2="475" y1="101" y2="316" /><line stroke="rgb(36, 196, 39)" stroke-width="2.3819950746165026" x1="54" x2="760" y1="56" y2="109" /><line stroke="rgb(64, 201, 111)" stroke-width="1.9392208375293325" x1="497" x2="695" y1="49" y2="389" /><line stroke="rgb(255, 150, 162)" stroke-width="1.6201659276528892" x1="670" x2="136" y1="297" y2="403" /><line stroke="rgb(137, 2, 191)" stroke-width="1.7162219413265634" x1="193" x2="600" y1="215" y2="289" /><polygon fill="none" points="641,272 828,37 5,146 360,85 547,277" stroke="rgb(50, 164, 24)" stroke-width="3.3169616992132" /><path d="M82,85 L496,343 Q829,155 575,98 Q732,103 492,83 C289,41 805,256 663,177 L575,113" fill="none" stroke="rgb(249, 80, 106)" stroke-width="2.8817155693112597" /><path d="M414,345 L385,268 Q23,42 793,296 C575,299 273,66 614,255 L325,177 Q577,332 454,9 Q816,416 698,241" fill="none" stroke="rgb(216, 69, 243)" stroke-width="2.1667400526637355" /><polygon fill="none" points="462,404 46,83 708,81 811,223" stroke="rgb(23, 33, 69)" stroke-width="1.3333958507104904" /><polygon fill="none" points="25,345 757,296 506,80 5,152 4,322 481,296" stroke="rgb(35, 56, 124)" stroke-width="1.8330591159907952" /><circle cx="94" cy="266" fill="none" opacity="0.981180122217076" r="85" stroke="rgb(33, 245, 25)" stroke-width="2.2530099423991743" /><rect fill="none" height="80" stroke="rgb(242, 189, 156)" stroke-width="1.627872562492943" transform="rotate(278 524 54)" width="25" x="700" y="5" /><circle cx="357" cy="81" fill="none" opacity="0.904079323638556" r="91" stroke="rgb(162, 86, 144)" stroke-width="2.2292456451134326" /><path d="M758,223 Q20,105 410,271 L448,52 C405,165 210,214 196,111 C662,72 360,434 742,283 C602,420 555,147 416,283" fill="none" stroke="rgb(36, 73, 164)" stroke-width="2.544797061338475" /><circle cx="679" cy="200" fill="none" opacity="0.3447390796920121" r="71" stroke="rgb(246, 186, 185)" stroke-width="1.8187202193611338" /><line stroke="rgb(184, 163, 207)" stroke-width="1.6679410701576924" x1="497" x2="545" y1="390" y2="58" /><line stroke="rgb(95, 113, 189)" stroke-width="2.162146342032847" x1="755" x2="460" y1="339" y2="50" /><line stroke="rgb(177, 167, 192)" stroke-width="0.7876298462684507" x1="534" x2="195" y1="236" y2="121" /><line stroke="rgb(206, 229, 164)" stroke-width="1.8676680303585764" x1="92" x2="218" y1="302" y2="98" /><line stroke="rgb(192, 126, 136)" stroke-width="1.514539822654776" x1="295" x2="201" y1="125" y2="374" /><line stroke="rgb(171, 95, 184)" stroke-width="0.6552071908971389" x1="322" x2="680" y1="418" y2="49" /><line stroke="rgb(9, 60, 251)" stroke-width="2.5844183963853533" x1="616" x2="308" y1="365" y2="388" /><line stroke="rgb(49, 134, 245)" stroke-width="2.5422580313882497" x1="240" x2="536" y1="50" y2="258" /><circle cx="402" cy="331" fill="none" opacity="0.6664061900572776" r="15" stroke="rgb(206, 141, 35)" stroke-width="1.450918961300713" /><rect fill="none" height="67" stroke="rgb(54, 104, 157)" stroke-width="1.537478400377191" transform="rotate(213 788 284)" width="22" x="140" y="183" /><circle cx="704" cy="369" fill="none" opacity="0.4206627320907267" r="109" stroke="rgb(32, 57, 194)" stroke-width="0.7390527688961592" /><circle cx="718" cy="328" fill="none" opacity="0.9260179201976648" r="82" stroke="rgb(65, 39, 230)" stroke-width="3.916505266592073" /><line stroke="rgb(94, 163, 216)" stroke-width="2.7939090163328566" x1="417" x2="769" y1="274" y2="402" /><line stroke="rgb(42, 165, 149)" stroke-width="1.547628128472501" x1="668" x2="294" y1="24" y2="147" /><line stroke="rgb(157, 182, 119)" stroke-width="1.9154297389358648" x1="288" x2="513" y1="398" y2="56" /><line stroke="rgb(179, 160, 163)" stroke-width="2.0399559173224655" x1="672" x2="164" y1="365" y2="275" /><line stroke="rgb(246, 91, 69)" stroke-width="0.86553957811829" x1="211" x2="319" y1="432" y2="180" /><line stroke="rgb(113, 192, 240)" stroke-width="1.9275994486341783" x1="459" x2="432" y1="56" y2="163" /><line stroke="rgb(90, 220, 150)" stroke-width="1.5379822083936276" x1="707" x2="107" y1="366" y2="137" /><line stroke="rgb(5, 197, 232)" stroke-width="1.3726025146168868" x1="636" x2="444" y1="155" y2="217" /><line stroke="rgb(38, 246, 160)" stroke-width="2.9229177471103043" x1="24" x2="569" y1="45" y2="405" /><path d="M750,384 Q116,169 507,131 L79,118 Q648,415 447,227 C670,90 653,273 117,328 L48,67 Q367,2 707,29 L507,428" fill="none" stroke="rgb(195, 136, 205)" stroke-width="2.225695210358748" /><circle cx="301" cy="363" fill="none" opacity="0.6142274466941737" r="101" stroke="rgb(211, 233, 162)" stroke-width="2.796761498311051" /><line stroke="rgb(6, 227, 102)" stroke-width="2.4744477773478035" x1="27" x2="810" y1="273" y2="372" /><line stroke="rgb(142, 208, 205)" stroke-width="1.8941983720756121" x1="37" x2="477" y1="278" y2="113" /><line stroke="rgb(52, 249, 68)" stroke-width="2.6927806220544874" x1="588" x2="422" y1="157" y2="158" /><line stroke="rgb(95, 239, 17)" stroke-width="0.614723289176689" x1="813" x2="774" y1="158" y2="17" /><line stroke="rgb(59, 189, 91)" stroke-width="2.4212106681374803" x1="757" x2="663" y1="174" y2="130" /><line stroke="rgb(45, 60, 40)" stroke-width="0.6873531011389973" x1="713" x2="770" y1="103" y2="40" /><line stroke="rgb(33, 106, 249)" stroke-width="2.173247174099355" x1="250" x2="225" y1="188" y2="65" /><line stroke="rgb(65, 198, 241)" stroke-width="1.6888743781754143" x1="768" x2="236" y1="331" y2="337" /><polygon fill="none" points="341,204 67,382 526,272 206,52 522,152" stroke="rgb(14, 24, 78)" stroke-width="2.3148692844208756" /><circle cx="172" cy="66" fill="none" opacity="0.7841139391228709" r="34" stroke="rgb(113, 87, 247)" stroke-width="4.344450218941763" /><rect fill="none" height="179" stroke="rgb(246, 238, 169)" stroke-width="2.8784385545927296" transform="rotate(164 455 402)" width="171" x="514" y="205" /></svg>