<svg baseProfile="full" height="717px" version="1.1" width="882px" xmlns="http://www.w3.org/2000/svg" xmlns:ev="http://www.w3.org/2001/xml-events" xmlns:xlink="http://www.w3.org/1999/xlink"><defs /><rect fill="rgb(206, 209, 206)" height="717px" width="882px" x="0" y="0" /><rect fill="none" height="165" stroke="rgb(202, 51, 65)" stroke-width="1.5626486235854125" transform="rotate(77 203 333)" width="67" x="327" y="461" /><rect fill="none" height="84" stroke="rgb(221, 107, 2)" stroke-width="1.509512278955029" transform="rotate(333 832 609)" width="199" x="339" y="36" /><line stroke="rgb(100, 118, 138)" stroke-width="1.3819581281716184" x1="33" x2="339" y1="0" y2="673" /><line stroke="rgb(109, 146, 124)" stroke-width="0.5176301158125833" x1="72" x2="666" y1="480" y2="128" /><line stroke="rgb(97, 141, 61)" stroke-width="2.829981772197208" x1="435" x2="746" y1="72" y2="678" /><line stroke="rgb(48, 123, 109)" stroke-width="1.1311282788202854" x1="846" x2="70" y1="287" y2="628" /><line stroke="rgb(43, 153, 234)" stroke-width="1.1766788167034652" x1="112" x2="467" y1="618" y2="114" /><line stroke="rgb(31, 10, 183)" stroke-width="2.690168966714934" x1="745" x2="318" y1="205" y2="392" /><line stroke="rgb(112, 5, 234)" stroke-width="2.9174561754920063" x1="42" x2="106" y1="117" y2="600" /><line stroke="rgb(80, 57, 179)" stroke-width="0.9306247616206862" x1="786" x2="783" y1="714" y2="556" /><line stroke="rgb(131, 150, 148)" stroke-width="1.0187905207833496" x1="645" x2="325" y1="452" y2="578" /><line stroke="rgb(70, 255, 252)" stroke-width="1.9193664330601536" x1="112" x2="282" y1="405" y2="596" /><line stroke="rgb(80, 202, 195)" stroke-width="2.677869731697488" x1="609" x2="205" y1="691" y2="716" /><line stroke="rgb(19, 132, 33)" stroke-width="2.4605059375588585" x1="577" x2="436" y1="494" y2="541" /><line stroke="rgb(165, 201, 145)" stroke-width="0.8501945168533588" x1="171" x2="367" y1="262" y2="194" /><line stroke="rgb(235, 166, 215)" stroke-width="2.370120172685188" x1="63" x2="769" y1="18" y2="67" /><path d="M517,404 L348,243 Q654,276 383,637 L876,413 L58,238 L443,311 Q550,261 555,517" fill="none" stroke="rgb(171, 199, 26)" stroke-width="2.564480961667025" /><line stroke="rgb(159, 193, 190)" stroke-width="2.3859570152143084" x1="582" x2="411" y1="317" y2="27" /><line stroke="rgb(77, 176, 28)" stroke-width="1.0661607609295982" x1="668" x2="64" y1="133" y2="410" /><line stroke="rgb(38, 186, 112)" stroke-width="2.908824190962962" x1="842" x2="432" y1="123" y2="15" /><line stroke="rgb(42, 79, 232)" stroke-width="1.1777767455546955" x1="357" x2="47" y1="310" y2="161" /><line stroke="rgb(54, 52, 7)" stroke-width="0.7431897828804628" x1="150" x2="46" y1="248" y2="52" /><line stroke="rgb(227, 64, 110)" stroke-width="2.202031659050723" x1="117" x2="422" y1="288" y2="235" /><line stroke="rgb(142, 107, 158)" stroke-width="2.490751712365472" x1="830" x2="387" y1="587" y2="582" /><line stroke="rgb(183, 84, 67)" stroke-width="1.4870147789820827" x1="767" x2="722" y1="81" y2="114" /><line stroke="rgb(31, 247, 51)" stroke-width="2.007824837744993" x1="800" x2="447" y1="585" y2="407" /><line stroke="rgb(100, 225, 253)" stroke-width="1.7565754225084815" x1="391" x2="874" y1="488" y2="695" /><path d="M792,141 L667,181 L53,39 L840,249 C85,77 12,62 122,566 L201,236 C660,34 660,87 16,124" fill="none" stroke="rgb(191, 229, 58)" stroke-width="1.0428682550998" /><circle cx="447" cy="429" fill="none" opacity="0.7284500219101314" r="170" stroke="rgb(125, 232, 24)" stroke-width="1.608151452717188" /><polygon fill="none" points="187,566 93,259 223,68 304,42" stroke="rgb(60, 220, 112)" stroke-width="2.5806004955521473" /><circle cx="301" cy="527" fill="none" opacity="0.7480430150738193" r="72" stroke="rgb(187, 101, 35)" stroke-width="1.4478403696838056" /><circle cx="94" cy="269" fill="none" opacity="0.6319381439821511" r="41" stroke="rgb(186, 230, 61)" stroke-width="1.0460031686864306" /><line stroke="rgb(106, 140, 80)" stroke-width="1.5231831760337422" x1="125" x2="518" y1="150" y2="405" /><line stroke="rgb(31, 41, 41)" stroke-width="2.7620769997765806" x1="745" x2="414" y1="209" y2="25" /><line stroke="rgb(5, 206, 188)" stroke-width="2.7609786039064277" x1="109" x2="490" y1="272" y2="440" /><polygon fill="none" points="225,559 96,165 171,479 668,115 170,81 675,42" stroke="rgb(111, 31, 247)" stroke-width="1.1527402632669417" /><path d="M381,709 Q137,229 430,715 L71,608 Q750,506 342,276" fill="none" stroke="rgb(80, 200, 76)" stroke-width="0.5446149474459325" /><path d="M321,0 L803,363 C652,298 611,660 440,257 C707,239 698,184 258,84 Q781,547 229,443 C672,269 59,543 61,675" fill="none" stroke="rgb(53, 18, 43)" stroke-width="2.31820586179556" /><polygon fill="none" points="8,48 34,661 510,370 155,522 178,660" stroke="rgb(61, 10, 32)" stroke-width="0.9116932935468985" /><circle cx="368" cy="550" fill="none" opacity="0.48150204715854256" r="151" stroke="rgb(41, 231, 229)" stroke-width="0.6122426636322182" /><rect fill="none" height="95" stroke="rgb(205, 107, 66)" stroke-width="2.5028562274140604" transform="rotate(120 659 181)" width="152" x="651" y="212" /><rect fill="none" height="195" stroke="rgb(60, 26, 218)" stroke-width="2.7454773979486005" transform="rotate(239 675 612)" width="40" x="586" y="602" /><polygon fill="none" points="804,232 210,150 234,575" stroke="rgb(230, 235, 70)" stroke-width="3.812995136600368" /><rect fill="none" height="124" stroke="rgb(253, 148, 166)" stroke-width="0.6570751386850349" transform="rotate(244 13 393)" width="146" x="126" y="36" /><rect fill="none" height="80" stroke="rgb(12, 89, 235)" stroke-width="4.845084890235341" transform="rotate(73 329 368)" width="99" x="372" y="64" /><path d="M790,333 Q534,304 559,436 Q288,394 510,453 C45,583 346,292 271,235" fill="none" stroke="rgb(163, 74, 245)" stroke-width="1.4075902130372935" /><circle cx="190" cy="349" fill="none" opacity="0.7733823288455485" r="152" stroke="rgb(84, 57, 127)" stroke-width="1.42113115158791" /></svg>