<svg baseProfile="full" height="516px" version="1.1" width="974px" xmlns="http://www.w3.org/2000/svg" xmlns:ev="http://www.w3.org/2001/xml-events" xmlns:xlink="http://www.w3.org/1999/xlink"><defs /><rect fill="rgb(230, 206, 243)" height="516px" width="974px" x="0" y="0" /><rect fill="none" height="179" stroke="rgb(185, 87, 133)" stroke-width="1.4617917693314728" transform="rotate(290 559 418)" width="42" x="36" y="393" /><path d="M492,468 L679,50 L202,221 L906,494 C384,15 495,458 265,332 L592,365" fill="none" stroke="rgb(217, 5, 111)" stroke-width="2.1713327512630594" /><polygon fill="none" points="341,136 146,361 765,398 18,494 108,438 249,429 56,191" stroke="rgb(207, 46, 60)" stroke-width="1.6020131064428074" /><circle cx="70" cy="211" fill="none" opacity="0.710423915988746" r="92" stroke="rgb(152, 121, 120)" stroke-width="1.4977822469482114" /><path d="M786,71 L205,305 L666,57 C916,468 903,300 368,407 L249,233 L531,409 L99,81" fill="none" stroke="rgb(231, 112, 22)" stroke-width="1.5492046774011479" /><polygon fill="none" points="760,129 705,420 574,32 20,315" stroke="rgb(19, 235, 170)" stroke-width="3.8888813294764972" /><circle cx="427" cy="428" fill="none" opacity="0.7100570004514778" r="47" stroke="rgb(130, 116, 129)" stroke-width="4.643118968843142" /><rect fill="none" height="36" stroke="rgb(34, 82, 63)" stroke-width="2.342163413191062" transform="rotate(207 889 484)" width="141" x="284" y="258" /><line stroke="rgb(186, 57, 136)" stroke-width="2.8906008450865857" x1="46" x2="291" y1="258" y2="220" /><line stroke="rgb(81, 29, 155)" stroke-width="2.6852555054964573" x1="213" x2="813" y1="304" y2="384" /><line stroke="rgb(87, 238, 214)" stroke-width="2.3598739403763433" x1="132" x2="246" y1="174" y2="508" /><line stroke="rgb(49, 107, 228)" stroke-width="1.7804256009443589" x1="595" x2="447" y1="72" y2="117" /><line stroke="rgb(231, 128, 60)" stroke-width="0.859481607487163" x1="879" x2="428" y1="157" y2="384" /><line stroke="rgb(128, 238, 174)" stroke-width="2.6375656086166837" x1="293" x2="894" y1="32" y2="437" /><line stroke="rgb(90, 173, 138)" stroke-width="1.0685543691191581" x1="437" x2="196" y1="59" y2="417" /><line stroke="rgb(68, 124, 5)" stroke-width="1.6735902048178048" x1="275" x2="507" y1="231" y2="125" /><line stroke="rgb(239, 122, 222)" stroke-width="2.4564893452080874" x1="522" x2="218" y1="372" y2="366" /><path d="M795,353 C659,464 5,200 822,137 L935,135 C385,176 942,467 187,57 C812,78 246,276 827,12 C125,123 169,253 576,398" fill="none" stroke="rgb(157, 222, 228)" stroke-width="0.5466088340287942" /><line stroke="rgb(163, 102, 218)" stroke-width="0.7821967574873274" x1="110" x2="533" y1="200" y2="503" /><line stroke="rgb(242, 92, 62)" stroke-width="0.8395929789346869" x1="450" x2="860" y1="427" y2="294" /><line stroke="rgb(30, 103, 221)" stroke-width="1.7471384007115462" x1="47" x2="732" y1="247" y2="425" /><line stroke="rgb(50, 46, 99)" stroke-width="2.6067030554785675" x1="586" x2="311" y1="62" y2="71" /><line stroke="rgb(176, 65, 136)" stroke-width="1.8533108568002075" x1="448" x2="952" y1="492" y2="188" /><line stroke="rgb(22, 204, 51)" stroke-width="1.7030645464054632" x1="435" x2="733" y1="128" y2="11" /><line stroke="rgb(23, 165, 144)" stroke-width="1.1818470360993854" x1="956" x2="307" y1="509" y2="13" /><line stroke="rgb(219, 250, 16)" stroke-width="0.6534753812232964" x1="195" x2="297" y1="295" y2="210" /><line stroke="rgb(59, 8, 53)" stroke-width="1.3621705676151907" x1="571" x2="42" y1="180" y2="165" /><line stroke="rgb(137, 97, 41)" stroke-width="1.4097948379746028" x1="381" x2="390" y1="103" y2="220" /><line stroke="rgb(49, 203, 233)" stroke-width="2.3278347729484614" x1="783" x2="913" y1="227" y2="185" /><line stroke="rgb(67, 85, 119)" stroke-width="1.1805198470465925" x1="907" x2="940" y1="300" y2="5" /><line stroke="rgb(160, 184, 96)" stroke-width="1.554645182299772" x1="514" x2="818" y1="514" y2="327" /><line stroke="rgb(94, 36, 34)" stroke-width="1.314524043021576" x1="411" x2="739" y1="44" y2="320" /><line stroke="rgb(134, 62, 15)" stroke-width="1.4105079978326323" x1="799" x2="590" y1="516" y2="278" /><line stroke="rgb(161, 253, 139)" stroke-width="2.171848731045027" x1="824" x2="39" y1="212" y2="347" /><circle cx="306" cy="328" fill="none" opacity="0.3478652570842352" r="97" stroke="rgb(179, 96, 169)" stroke-width="2.5970067263324474" /><circle cx="274" cy="354" fill="none" opacity="0.8973513411237453" r="129" stroke="rgb(122, 118, 178)" stroke-width="2.2846862007193316" /><polygon fill="none" points="907,171 694,277 694,291 121,431 723,400 626,38 881,351" stroke="rgb(189, 184, 82)" stroke-width="1.4666122408474949" /><line stroke="rgb(24, 74, 155)" stroke-width="1.0612443739638309" x1="260" x2="597" y1="392" y2="501" /><line stroke="rgb(225, 118, 222)" stroke-width="2.9118149439133294" x1="865" x2="41" y1="157" y2="474" /><line stroke="rgb(146, 159, 71)" stroke-width="2.354215277119673" x1="155" x2="283" y1="72" y2="216" /><line stroke="rgb(109, 238, 40)" stroke-width="1.4389945437400027" x1="775" x2="716" y1="309" y2="487" /><line stroke="rgb(126, 39, 235)" stroke-width="0.7339773305431841" x1="726" x2="655" y1="486" y2="211" /><line stroke="rgb(53, 18, 102)" stroke-width="1.8826767096903811" x1="449" x2="933" y1="423" y2="359" /><line stroke="rgb(241, 251, 253)" stroke-width="2.5864239027418723" x1="3" x2="585" y1="442" y2="333" /><line stroke="rgb(63, 200, 200)" stroke-width="1.2544704695951652" x1="451" x2="90" y1="11" y2="270" /><line stroke="rgb(133, 156, 191)" stroke-width="2.039377853865842" x1="658" x2="364" y1="479" y2="504" /><rect fill="none" height="28" stroke="rgb(169, 14, 153)" stroke-width="3.2867457894374876" transform="rotate(173 928 184)" width="69" x="478" y="104" /><polygon fill="none" points="471,285 420,150 778,189 498,180 163,201" stroke="rgb(253, 196, 190)" stroke-width="3.5817064933967018" /><rect fill="none" height="187" stroke="rgb(144, 198, 6)" stroke-width="1.5259710878442139" transform="rotate(302 88 490)" width="105" x="255" y="135" /><circle cx="274" cy="232" fill="none" opacity="0.6994084561303515" r="49" stroke="rgb(221, 120, 59)" stroke-width="2.1622367653614423" /><circle cx="604" cy="380" fill="none" opacity="0.7484254093994478" r="14" stroke="rgb(223, 17, 176)" stroke-width="0.570405197262361" /><path d="M692,286 C724,331 503,61 366,40 Q293,329 553,474 Q863,457 469,188" fill="none" stroke="rgb(195, 102, 63)" stroke-width="0.8734548394645867" /><line stroke="rgb(160, 155, 220)" stroke-width="1.2010229766745448" x1="27" x2="103" y1="138" y2="225" /><line stroke="rgb(222, 247, 5)" stroke-width="2.851798466694515" x1="932" x2="33" y1="44" y2="378" /><line stroke="rgb(169, 251, 215)" stroke-width="0.6945276140391303" x1="729" x2="417" y1="63" y2="459" /><path d="M687,482 L129,204 L391,487 L374,27 L96,239 C602,388 59,293 277,232" fill="none" stroke="rgb(228, 185, 113)" stroke-width="1.0666644225965098" /><circle cx="819" cy="440" fill="none" opacity="0.8562002193845979" r="99" stroke="rgb(93, 206, 15)" stroke-width="4.262679912012176" /><rect fill="none" height="30" stroke="rgb(254, 81, 104)" stroke-width="1.6972842776627655" transform="rotate(266 699 462)" width="75" x="165" y="250" /><circle cx="70" cy="270" fill="none" opacity="0.4256032911571787" r="88" stroke="rgb(206, 235, 89)" stroke-width="4.240079991514443" /><polygon fill="none" points="707,455 853,515 630,463 584,461 167,455 776,380 531,120 561,415" stroke="rgb(100, 227, 54)" stroke-width="1.795543867538655" /><circle cx="718" cy="238" fill="none" opacity="0.9662174652266335" r="34" stroke="rgb(28, 21, 206)" stroke-width="0.9532910920554836" /><rect fill="none" height="128" stroke="rgb(135, 237, 25)" stroke-width="2.4666766895754604" transform="rotate(94 632 128)" width="27" x="114" y="346" /><line stroke="rgb(33, 161, 76)" stroke-width="2.9086814361628646" x1="804" x2="308" y1="18" y2="147" /><line stroke="rgb(171, 75, 27)" stroke-width="2.101527381979147" x1="762" x2="232" y1="76" y2="237" /><line stroke="rgb(75, 110, 150)" stroke-width="2.2376376638378144" x1="92" x2="616" y1="13" y2="418" /><line stroke="rgb(156, 169, 148)" stroke-width="2.732377613812058" x1="94" x2="590" y1="434" y2="427" /><line stroke="rgb(89, 209, 12)" stroke-width="2.1437414917937385" x1="313" x2="283" y1="294" y2="511" /><line stroke="rgb(175, 241, 115)" stroke-width="0.5570158705749901" x1="126" x2="725" y1="445" y2="61" /><line stroke="rgb(83, 131, 192)" stroke-width="0.5175643512448531" x1="789" x2="965" y1="333" y2="487" /><polygon fill="none" points="506,483 646,383 444,198 169,271 328,300" stroke="rgb(94, 137, 166)" stroke-width="2.9188705790438623" /><polygon fill="none" points="963,452 660,195 372,424 373,495 575,498" stroke="rgb(171, 237, 94)" stroke-width="3.3774460091859613" /><rect fill="none" height="116" stroke="rgb(37, 162, 116)" stroke-width="1.2811312254655394" transform="rotate(180 60 12)" width="63" x="781" y="309" /><circle cx="340" cy="188" fill="none" opacity="0.8485392218385999" r="41" stroke="rgb(196, 246, 237)" stroke-width="1.9329482738732207" /><polygon fill="none" points="700,110 640,24 798,327 328,281 449,513 632,458 631,179 96,283" stroke="rgb(123, 7, 255)" stroke-width="1.7301341265311023" /><polygon fill="none" points="270,422 404,389 550,101 427,475 680,389" stroke="rgb(120, 76, 81)" stroke-width="1.8958114418959395" /><polygon fill="none" points="316,126 784,289 199,49 507,380" stroke="rgb(228, 184, 155)" stroke-width="0.5155868461051611" /><line stroke="rgb(43, 128, 166)" stroke-width="0.861467009774965" x1="849" x2="862" y1="166" y2="173" /><line stroke="rgb(134, 40, 94)" stroke-width="1.7274641789287297" x1="9" x2="121" y1="477" y2="328" /><line stroke="rgb(80, 48, 81)" stroke-width="2.310709073150509" x1="946" x2="483" y1="41" y2="417" /><line stroke="rgb(188, 115, 143)" stroke-width="1.4809273730401715" x1="700" x2="494" y1="352" y2="420" /><line stroke="rgb(84, 166, 43)" stroke-width="1.7439614498064788" x1="89" x2="132" y1="73" y2="340" /><line stroke="rgb(78, 255, 222)" stroke-width="2.826213600722995" x1="807" x2="139" y1="126" y2="308" /><line stroke="rgb(32, 159, 147)" stroke-width="1.4652899266456267" x1="304" x2="182" y1="254" y2="416" /><line stroke="rgb(200, 33, 123)" stroke-width="1.4620901148853187" x1="23" x2="392" y1="435" y2="128" /><line stroke="rgb(127, 4, 11)" stroke-width="2.518713836544403" x1="799" x2="224" y1="491" y2="275" /><line stroke="rgb(119, 35, 93)" stroke-width="2.888581847838178" x1="361" x2="879" y1="112" y2="395" /><line stroke="rgb(229, 47, 35)" stroke-width="1.014532221901837" x1="554" x2="948" y1="80" y2="36" /><line stroke="rgb(71, 6, 171)" stroke-width="1.059982504636006" x1="828" x2="257" y1="173" y2="351" /><line stroke="rgb(192, 48, 60)" stroke-width="0.5495381775212169" x1="37" x2="353" y1="303" y2="333" /><line stroke="rgb(228, 107, 55)" stroke-width="0.5330220222026703" x1="162" x2="710" y1="490" y2="329" /><line stroke="rgb(89, 135, 47)" stroke-width="2.408054236142808" x1="335" x2="75" y1="59" y2="265" /><circle cx="339" cy="369" fill="none" opacity="0.5506029832426669" r="109" stroke="rgb(224, 159, 121)" stroke-width="4.779662221563441" /><polygon fill="none" points="196,503 398,20 920,302 671,364 870,462 399,450" stroke="rgb(88, 82, 22)" stroke-width="2.6135579503710775" /></svg>