<svg baseProfile="full" height="513px" version="1.1" width="835px" xmlns="http://www.w3.org/2000/svg" xmlns:ev="http://www.w3.org/2001/xml-events" xmlns:xlink="http://www.w3.org/1999/xlink"><defs /><rect fill="rgb(229, 207, 209)" height="513px" width="835px" x="0" y="0" /><rect fill="none" height="32" stroke="rgb(236, 104, 37)" stroke-width="4.434556035433207" transform="rotate(320 399 500)" width="197" x="16" y="215" /><rect fill="none" height="85" stroke="rgb(254, 82, 140)" stroke-width="3.7474750344682746" transform="rotate(88 682 97)" width="113" x="145" y="71" /><rect fill="none" height="92" stroke="rgb(103, 115, 58)" stroke-width="1.9310593565715917" transform="rotate(202 686 478)" width="125" x="258" y="172" /><line stroke="rgb(169, 16, 35)" stroke-width="2.9218377622169465" x1="604" x2="614" y1="375" y2="180" /><line stroke="rgb(132, 212, 12)" stroke-width="2.6599445848500536" x1="795" x2="215" y1="162" y2="137" /><line stroke="rgb(95, 14, 137)" stroke-width="1.8931358191328846" x1="579" x2="232" y1="51" y2="63" /><line stroke="rgb(10, 81, 164)" stroke-width="0.9137004068001051" x1="579" x2="34" y1="258" y2="29" /><line stroke="rgb(94, 206, 135)" stroke-width="2.239494000646763" x1="235" x2="81" y1="285" y2="108" /><line stroke="rgb(117, 188, 47)" stroke-width="1.819788595493879" x1="290" x2="400" y1="266" y2="334" /><line stroke="rgb(226, 36, 129)" stroke-width="2.0747553026732657" x1="473" x2="371" y1="333" y2="283" /><line stroke="rgb(151, 11, 222)" stroke-width="1.1522858181049287" x1="623" x2="522" y1="251" y2="491" /><line stroke="rgb(143, 136, 203)" stroke-width="1.4217468253542496" x1="668" x2="541" y1="495" y2="83" /><circle cx="440" cy="95" fill="none" opacity="0.8476078015747455" r="68" stroke="rgb(44, 129, 227)" stroke-width="2.388123408817956" /><line stroke="rgb(2, 155, 116)" stroke-width="1.6363352419255714" x1="673" x2="208" y1="511" y2="397" /><line stroke="rgb(166, 42, 186)" stroke-width="0.6444154845286096" x1="203" x2="754" y1="421" y2="163" /><line stroke="rgb(54, 136, 122)" stroke-width="2.4081016663550354" x1="3" x2="816" y1="332" y2="471" /><line stroke="rgb(126, 137, 148)" stroke-width="2.093462609621391" x1="597" x2="595" y1="294" y2="280" /><line stroke="rgb(16, 57, 39)" stroke-width="2.3024024383177846" x1="291" x2="178" y1="362" y2="4" /><line stroke="rgb(45, 221, 66)" stroke-width="1.0686763619018689" x1="582" x2="447" y1="379" y2="14" /><line stroke="rgb(196, 226, 17)" stroke-width="2.411389165711041" x1="645" x2="760" y1="292" y2="168" /><polygon fill="none" points="709,113 42,190 828,182 32,157 833,347 447,185 358,468" stroke="rgb(214, 181, 217)" stroke-width="3.9660851460654256" /><line stroke="rgb(172, 108, 95)" stroke-width="2.381498632791323" x1="432" x2="278" y1="159" y2="132" /><line stroke="rgb(109, 130, 15)" stroke-width="2.3866891838282043" x1="299" x2="604" y1="438" y2="386" /><line stroke="rgb(79, 1, 33)" stroke-width="1.5482331524012163" x1="521" x2="363" y1="487" y2="134" /><line stroke="rgb(175, 3, 78)" stroke-width="1.519196100113135" x1="249" x2="407" y1="441" y2="54" /><line stroke="rgb(214, 105, 192)" stroke-width="1.5136900140634688" x1="159" x2="756" y1="509" y2="31" /><line stroke="rgb(143, 58, 110)" stroke-width="1.525253482421932" x1="597" x2="504" y1="397" y2="365" /><line stroke="rgb(23, 100, 213)" stroke-width="2.715290737658824" x1="156" x2="442" y1="83" y2="13" /><line stroke="rgb(4, 198, 7)" stroke-width="1.378271087873108" x1="482" x2="266" y1="134" y2="118" /><polygon fill="none" points="466,297 285,277 7,52 61,40" stroke="rgb(16, 90, 198)" stroke-width="0.7057961238580054" /><path d="M83,307 L745,480 Q418,97 88,39 Q22,318 352,432 C427,312 760,471 271,493 C266,218 469,4 810,190" fill="none" stroke="rgb(94, 64, 146)" stroke-width="1.7367852611560304" /><rect fill="none" height="193" stroke="rgb(194, 27, 240)" stroke-width="3.7957663825685994" transform="rotate(139 186 484)" width="23" x="27" y="44" /><path d="M699,285 Q74,46 357,175 C303,444 0,453 255,275 L568,308 Q48,319 292,180" fill="none" stroke="rgb(126, 230, 72)" stroke-width="0.8221083941347053" /><polygon fill="none" points="152,128 451,51 552,280 377,59 478,235 389,379 826,471" stroke="rgb(173, 16, 247)" stroke-width="3.6149950260628136" /><circle cx="692" cy="262" fill="none" opacity="0.7784087319436297" r="91" stroke="rgb(95, 20, 36)" stroke-width="0.7624569279147022" /><line stroke="rgb(12, 24, 209)" stroke-width="2.168783517537876" x1="698" x2="253" y1="222" y2="510" /><line stroke="rgb(223, 199, 114)" stroke-width="1.1512365098710668" x1="427" x2="544" y1="166" y2="106" /><line stroke="rgb(180, 183, 13)" stroke-width="2.214275188720099" x1="342" x2="453" y1="147" y2="138" /><path d="M38,110 C561,362 17,312 405,105 L459,430 Q578,299 381,287 C485,207 434,448 740,382 Q564,99 47,420 L539,61 Q670,24 297,59" fill="none" stroke="rgb(204, 204, 144)" stroke-width="1.989833764599008" /><circle cx="208" cy="262" fill="none" opacity="0.6577123271256116" r="17" stroke="rgb(108, 92, 176)" stroke-width="1.5500745439887909" /><line stroke="rgb(179, 8, 116)" stroke-width="2.5630508152542735" x1="466" x2="536" y1="347" y2="420" /><line stroke="rgb(81, 243, 56)" stroke-width="1.8446667378376755" x1="575" x2="273" y1="239" y2="94" /><line stroke="rgb(46, 34, 184)" stroke-width="1.5461428812183908" x1="656" x2="90" y1="135" y2="422" /><line stroke="rgb(218, 247, 176)" stroke-width="0.8747549035088613" x1="157" x2="722" y1="279" y2="506" /><line stroke="rgb(250, 77, 94)" stroke-width="1.1644198541340651" x1="444" x2="165" y1="442" y2="78" /><line stroke="rgb(93, 94, 198)" stroke-width="1.3040227801841524" x1="168" x2="323" y1="125" y2="418" /><line stroke="rgb(20, 39, 138)" stroke-width="2.7730176817914374" x1="188" x2="414" y1="81" y2="500" /><line stroke="rgb(10, 145, 235)" stroke-width="2.9544267827403528" x1="301" x2="631" y1="172" y2="501" /><line stroke="rgb(132, 252, 208)" stroke-width="2.8937003083701125" x1="554" x2="555" y1="211" y2="498" /><line stroke="rgb(216, 182, 199)" stroke-width="1.1676257443948683" x1="377" x2="473" y1="127" y2="203" /><path d="M176,287 C349,275 400,292 10,239 C543,505 668,41 57,197 L353,455 L230,228 C717,458 167,298 207,441 L36,425 C778,150 411,64 417,160" fill="none" stroke="rgb(210, 114, 205)" stroke-width="1.5673931136143178" /><rect fill="none" height="136" stroke="rgb(100, 37, 77)" stroke-width="1.016792610919259" transform="rotate(274 466 143)" width="108" x="701" y="365" /><rect fill="none" height="128" stroke="rgb(95, 201, 147)" stroke-width="1.2761638385186622" transform="rotate(97 327 161)" width="91" x="300" y="350" /><circle cx="84" cy="183" fill="none" opacity="0.5905725103626165" r="65" stroke="rgb(168, 199, 70)" stroke-width="4.171854173882262" /><rect fill="none" height="179" stroke="rgb(195, 205, 25)" stroke-width="3.4023669257005347" transform="rotate(250 205 300)" width="200" x="469" y="387" /><line stroke="rgb(143, 139, 34)" stroke-width="0.6815309717511532" x1="107" x2="559" y1="64" y2="31" /><line stroke="rgb(65, 4, 162)" stroke-width="1.3589048375422639" x1="67" x2="817" y1="166" y2="302" /><line stroke="rgb(189, 46, 145)" stroke-width="0.9367282246405482" x1="688" x2="408" y1="102" y2="309" /><line stroke="rgb(151, 17, 221)" stroke-width="1.3947708531244922" x1="25" x2="346" y1="282" y2="184" /><line stroke="rgb(7, 67, 71)" stroke-width="1.298046694195535" x1="415" x2="245" y1="465" y2="311" /><line stroke="rgb(82, 184, 144)" stroke-width="1.3677250234868703" x1="605" x2="489" y1="255" y2="222" /><polygon fill="none" points="158,87 255,440 557,89 153,88" stroke="rgb(114, 229, 56)" stroke-width="0.8452095441009497" /><path d="M665,97 Q47,290 50,452 Q718,335 354,458 L715,423 Q821,461 10,222 C195,66 290,137 589,387" fill="none" stroke="rgb(10, 243, 120)" stroke-width="2.0221179651109997" /><path d="M61,393 L324,93 C81,417 616,344 252,3 C257,183 786,280 214,115 L554,145 Q732,414 64,59 C98,318 219,354 232,108 Q727,137 370,49" fill="none" stroke="rgb(194, 27, 16)" stroke-width="0.8068764475915473" /><rect fill="none" height="112" stroke="rgb(33, 104, 9)" stroke-width="0.8747494020578732" transform="rotate(252 362 274)" width="56" x="331" y="112" /><circle cx="630" cy="388" fill="none" opacity="0.7770935908047628" r="46" stroke="rgb(159, 29, 16)" stroke-width="2.5903599917112476" /><circle cx="322" cy="208" fill="none" opacity="0.40233789746415893" r="42" stroke="rgb(152, 89, 201)" stroke-width="3.1805675426388516" /><line stroke="rgb(136, 107, 128)" stroke-width="2.5946049604684944" x1="200" x2="563" y1="300" y2="93" /><line stroke="rgb(45, 134, 228)" stroke-width="1.5023074718638791" x1="405" x2="674" y1="46" y2="427" /><line stroke="rgb(164, 165, 190)" stroke-width="0.6968301108527487" x1="709" x2="734" y1="149" y2="74" /><line stroke="rgb(203, 186, 240)" stroke-width="2.0867135413978177" x1="749" x2="385" y1="104" y2="268" /><line stroke="rgb(149, 18, 206)" stroke-width="2.8197994197795864" x1="601" x2="194" y1="404" y2="22" /><line stroke="rgb(158, 39, 203)" stroke-width="2.999802157621992" x1="465" x2="649" y1="126" y2="465" /><line stroke="rgb(24, 40, 12)" stroke-width="2.3707079379099643" x1="588" x2="808" y1="408" y2="123" /><line stroke="rgb(5, 82, 4)" stroke-width="0.756129689801779" x1="659" x2="189" y1="328" y2="459" /><path d="M326,506 L281,506 L676,449 Q312,86 735,164 C607,82 822,280 44,246" fill="none" stroke="rgb(230, 225, 55)" stroke-width="1.6333229514834067" /><circle cx="696" cy="311" fill="none" opacity="0.6801357460162629" r="82" stroke="rgb(159, 224, 201)" stroke-width="2.4231130942648296" /><circle cx="321" cy="249" fill="none" opacity="0.6599105130658374" r="39" stroke="rgb(202, 181, 162)" stroke-width="1.3219713271413565" /><line stroke="rgb(204, 40, 124)" stroke-width="0.6375275209656344" x1="799" x2="484" y1="120" y2="400" /><line stroke="rgb(201, 100, 246)" stroke-width="0.6097948299068283" x1="573" x2="761" y1="43" y2="479" /><line stroke="rgb(79, 78, 218)" stroke-width="1.8806008117720232" x1="632" x2="616" y1="405" y2="188" /><line stroke="rgb(106, 50, 89)" stroke-width="1.4768586807638249" x1="296" x2="165" y1="291" y2="501" /><line stroke="rgb(2, 189, 209)" stroke-width="2.25175389195277" x1="5" x2="765" y1="234" y2="185" /><line stroke="rgb(74, 47, 27)" stroke-width="2.3329200294996943" x1="46" x2="642" y1="73" y2="52" /><line stroke="rgb(219, 103, 121)" stroke-width="1.6847637425832378" x1="159" x2="122" y1="80" y2="467" /><line stroke="rgb(154, 239, 203)" stroke-width="1.4289347942064918" x1="339" x2="479" y1="160" y2="430" /><line stroke="rgb(23, 3, 174)" stroke-width="1.7838888204609222" x1="664" x2="172" y1="140" y2="180" /><path d="M440,202 Q344,228 275,429 C770,486 468,32 560,166 C510,21 554,435 580,389 Q526,158 444,398 L308,452" fill="none" stroke="rgb(239, 229, 49)" stroke-width="0.5094533895740373" /><circle cx="102" cy="173" fill="none" opacity="0.976827257597628" r="55" stroke="rgb(220, 39, 43)" stroke-width="2.325984356700017" /><polygon fill="none" points="509,87 376,462 536,214 302,174 410,178 472,380 634,412" stroke="rgb(142, 98, 158)" stroke-width="2.644431569376451" /><rect fill="none" height="116" stroke="rgb(200, 52, 2)" stroke-width="4.1476253724207135" transform="rotate(229 573 236)" width="135" x="287" y="407" /><rect fill="none" height="171" stroke="rgb(152, 34, 156)" stroke-width="1.8453182082037907" transform="rotate(37 395 291)" width="121" x="6" y="84" /><rect fill="none" height="25" stroke="rgb(162, 235, 220)" stroke-width="3.498206272505781" transform="rotate(8 427 105)" width="165" x="193" y="18" /><line stroke="rgb(199, 7, 90)" stroke-width="1.7756681740676314" x1="711" x2="534" y1="189" y2="361" /><line stroke="rgb(27, 57, 133)" stroke-width="1.534132551209828" x1="421" x2="440" y1="78" y2="11" /><line stroke="rgb(78, 135, 171)" stroke-width="0.9798052135545627" x1="363" x2="117" y1="174" y2="231" /><line stroke="rgb(192, 223, 218)" stroke-width="2.699953804953247" x1="804" x2="675" y1="229" y2="404" /><line stroke="rgb(56, 86, 18)" stroke-width="0.8740620575494804" x1="360" x2="100" y1="416" y2="174" /><line stroke="rgb(124, 252, 0)" stroke-width="2.9571032231983327" x1="224" x2="686" y1="508" y2="228" /><rect fill="none" height="162" stroke="rgb(119, 171, 219)" stroke-width="1.7378588743486127" transform="rotate(45 615 382)" width="33" x="279" y="197" /><line stroke="rgb(86, 47, 187)" stroke-width="1.4135749325282305" x1="631" x2="155" y1="46" y2="242" /><line stroke="rgb(64, 206, 81)" stroke-width="1.8788754252775892" x1="278" x2="447" y1="100" y2="210" /><line stroke="rgb(23, 166, 46)" stroke-width="2.860262005553904" x1="625" x2="234" y1="206" y2="407" /><line stroke="rgb(155, 26, 72)" stroke-width="2.2648989030862654" x1="400" x2="817" y1="321" y2="38" /><line stroke="rgb(159, 198, 47)" stroke-width="1.4915270488688992" x1="418" x2="473" y1="223" y2="403" /><line stroke="rgb(192, 196, 250)" stroke-width="1.6574207051795127" x1="160" x2="604" y1="369" y2="176" /><line stroke="rgb(51, 244, 165)" stroke-width="1.4029624388997166" x1="670" x2="833" y1="96" y2="166" /><line stroke="rgb(38, 35, 254)" stroke-width="1.7058785691023521" x1="605" x2="203" y1="226" y2="90" /><polygon fill="none" points="46,139 21,372 275,140 628,171 328,453 322,350" stroke="rgb(23, 21, 155)" stroke-width="1.9146360962721238" /></svg>