<svg baseProfile="full" height="583px" version="1.1" width="1058px" xmlns="http://www.w3.org/2000/svg" xmlns:ev="http://www.w3.org/2001/xml-events" xmlns:xlink="http://www.w3.org/1999/xlink"><defs /><rect fill="rgb(231, 215, 236)" height="583px" width="1058px" x="0" y="0" /><line stroke="rgb(64, 175, 179)" stroke-width="2.8596876669897187" x1="705" x2="410" y1="241" y2="422" /><line stroke="rgb(26, 34, 84)" stroke-width="1.8379571264057795" x1="545" x2="534" y1="274" y2="501" /><line stroke="rgb(109, 217, 117)" stroke-width="0.5223326110430783" x1="1002" x2="728" y1="308" y2="128" /><line stroke="rgb(61, 16, 160)" stroke-width="1.6092882430635167" x1="109" x2="534" y1="510" y2="404" /><line stroke="rgb(15, 153, 130)" stroke-width="1.2553482359447425" x1="855" x2="745" y1="106" y2="502" /><line stroke="rgb(114, 29, 108)" stroke-width="1.2302416868795927" x1="53" x2="431" y1="568" y2="494" /><line stroke="rgb(231, 118, 69)" stroke-width="0.5469258814102904" x1="1030" x2="632" y1="352" y2="269" /><line stroke="rgb(17, 120, 110)" stroke-width="2.3615068402936243" x1="531" x2="926" y1="208" y2="514" /><circle cx="635" cy="86" fill="none" opacity="0.7859141554285642" r="14" stroke="rgb(56, 59, 51)" stroke-width="1.0632466599409307" /><polygon fill="none" points="978,425 548,61 886,478 491,258 907,576" stroke="rgb(238, 245, 189)" stroke-width="2.384126465262267" /><polygon fill="none" points="573,453 183,77 467,57 56,7 519,66 514,457 5,54 981,581" stroke="rgb(229, 96, 53)" stroke-width="3.2217717492872833" /><polygon fill="none" points="54,90 140,43 914,356 73,100 292,60 1056,181 1051,160 201,559" stroke="rgb(88, 126, 143)" stroke-width="0.8311893831622872" /><polygon fill="none" points="454,184 235,72 398,150 993,450 331,124 1027,576 797,391 1009,97" stroke="rgb(23, 162, 203)" stroke-width="2.4429711543076413" /><line stroke="rgb(221, 148, 114)" stroke-width="1.7862612142759438" x1="35" x2="714" y1="430" y2="378" /><line stroke="rgb(142, 212, 163)" stroke-width="2.296092703568393" x1="886" x2="769" y1="124" y2="71" /><line stroke="rgb(99, 16, 234)" stroke-width="0.6812503934897847" x1="882" x2="104" y1="512" y2="225" /><line stroke="rgb(153, 108, 9)" stroke-width="2.4741336424184004" x1="234" x2="650" y1="135" y2="360" /><polygon fill="none" points="86,312 992,206 229,119 670,56 228,39 502,42 504,503 362,24" stroke="rgb(114, 121, 238)" stroke-width="1.2202868420522963" /><path d="M1058,194 C224,339 180,145 662,68 C575,547 777,28 210,125 C830,355 174,94 246,256 C39,211 843,222 725,313 L166,401 Q687,496 932,392 L275,378" fill="none" stroke="rgb(76, 198, 81)" stroke-width="2.6664645653789307" /><circle cx="920" cy="294" fill="none" opacity="0.5892306015895472" r="80" stroke="rgb(179, 33, 153)" stroke-width="4.649505985465703" /><rect fill="none" height="109" stroke="rgb(66, 129, 185)" stroke-width="3.8838994112955865" transform="rotate(114 183 206)" width="43" x="643" y="234" /><rect fill="none" height="37" stroke="rgb(91, 143, 136)" stroke-width="0.6457857816725145" transform="rotate(101 383 192)" width="84" x="318" y="279" /><rect fill="none" height="180" stroke="rgb(92, 116, 14)" stroke-width="1.8259347751165695" transform="rotate(111 551 512)" width="93" x="614" y="68" /><circle cx="627" cy="413" fill="none" opacity="0.9547692189809003" r="79" stroke="rgb(33, 13, 154)" stroke-width="4.010584246567233" /><path d="M189,78 Q800,439 760,471 L1056,173 C689,406 563,548 110,321 L213,342 L677,149 C823,409 199,505 48,184" fill="none" stroke="rgb(139, 74, 56)" stroke-width="0.8239066019011172" /><path d="M13,532 L58,533 L976,249 Q420,388 899,360" fill="none" stroke="rgb(118, 142, 102)" stroke-width="2.7189445201683533" /><line stroke="rgb(52, 241, 106)" stroke-width="0.5787837597961414" x1="970" x2="825" y1="453" y2="110" /><line stroke="rgb(165, 181, 27)" stroke-width="2.7397171581357944" x1="935" x2="1022" y1="58" y2="441" /><line stroke="rgb(137, 111, 66)" stroke-width="1.6310407402455178" x1="626" x2="776" y1="200" y2="513" /><line stroke="rgb(73, 241, 103)" stroke-width="0.8938196356733301" x1="246" x2="629" y1="384" y2="140" /><line stroke="rgb(255, 169, 120)" stroke-width="2.026567038901489" x1="579" x2="625" y1="319" y2="149" /><line stroke="rgb(190, 224, 134)" stroke-width="2.331583844142324" x1="807" x2="754" y1="314" y2="53" /><line stroke="rgb(228, 62, 124)" stroke-width="2.3374301506693578" x1="403" x2="928" y1="319" y2="397" /><line stroke="rgb(117, 203, 167)" stroke-width="1.0441662502365843" x1="647" x2="882" y1="273" y2="489" /><line stroke="rgb(221, 234, 27)" stroke-width="1.716068500124601" x1="580" x2="476" y1="409" y2="561" /><line stroke="rgb(164, 244, 162)" stroke-width="1.8172360988308662" x1="507" x2="617" y1="2" y2="577" /><line stroke="rgb(0, 165, 195)" stroke-width="0.7506427653399304" x1="943" x2="660" y1="45" y2="294" /><line stroke="rgb(8, 54, 218)" stroke-width="1.2103529512162334" x1="309" x2="1042" y1="316" y2="286" /><line stroke="rgb(37, 20, 21)" stroke-width="2.263923845870526" x1="246" x2="389" y1="119" y2="299" /><rect fill="none" height="173" stroke="rgb(99, 99, 245)" stroke-width="4.230595248348985" transform="rotate(321 918 14)" width="42" x="564" y="95" /><path d="M313,220 C81,483 306,244 201,10 C15,68 374,497 895,65 Q936,210 560,540 C989,151 256,574 258,118 L390,278 Q184,372 436,235" fill="none" stroke="rgb(91, 218, 140)" stroke-width="0.7113603843843528" /><line stroke="rgb(237, 112, 69)" stroke-width="0.8430388295771023" x1="322" x2="883" y1="210" y2="412" /><line stroke="rgb(166, 144, 122)" stroke-width="0.8708192238166106" x1="171" x2="360" y1="467" y2="348" /><line stroke="rgb(93, 76, 243)" stroke-width="2.141919125170042" x1="634" x2="987" y1="334" y2="118" /><line stroke="rgb(229, 166, 224)" stroke-width="1.831126830997841" x1="1035" x2="663" y1="497" y2="184" /><line stroke="rgb(175, 85, 227)" stroke-width="2.7941193759828953" x1="961" x2="315" y1="432" y2="322" /><line stroke="rgb(21, 55, 1)" stroke-width="1.3671270515787775" x1="617" x2="146" y1="537" y2="112" /><rect fill="none" height="150" stroke="rgb(233, 32, 248)" stroke-width="1.6501224948193978" transform="rotate(191 812 12)" width="53" x="776" y="153" /><circle cx="492" cy="165" fill="none" opacity="0.5514761028280251" r="61" stroke="rgb(71, 211, 209)" stroke-width="1.8201019006019534" /><rect fill="none" height="136" stroke="rgb(93, 67, 201)" stroke-width="2.6990808123536647" transform="rotate(76 14 116)" width="162" x="141" y="457" /><path d="M871,142 L325,297 L649,222 Q804,200 9,458 C184,306 417,333 567,192 Q197,448 347,125 C260,512 495,424 705,337 C9,337 483,155 174,255" fill="none" stroke="rgb(221, 166, 162)" stroke-width="1.4117640825773923" /><circle cx="77" cy="95" fill="none" opacity="0.3739660480871726" r="50" stroke="rgb(201, 40, 19)" stroke-width="2.817029096063542" /><line stroke="rgb(18, 152, 157)" stroke-width="2.664634589954485" x1="553" x2="483" y1="567" y2="393" /><line stroke="rgb(192, 14, 125)" stroke-width="1.045415135692298" x1="372" x2="753" y1="542" y2="565" /><line stroke="rgb(66, 231, 13)" stroke-width="2.9510454943083677" x1="896" x2="3" y1="247" y2="196" /><line stroke="rgb(163, 76, 206)" stroke-width="1.4324777462138445" x1="175" x2="378" y1="346" y2="436" /><path d="M165,145 L160,366 L975,82 C720,184 489,411 833,362 L797,107" fill="none" stroke="rgb(248, 71, 209)" stroke-width="1.3864352777639968" /><path d="M66,118 C7,426 1034,297 371,183 Q63,230 525,534 L1039,84 L439,524" fill="none" stroke="rgb(9, 22, 154)" stroke-width="2.6086985649752243" /><path d="M821,564 L335,390 C1057,462 684,464 879,433 Q712,243 160,472 L479,26 L873,499" fill="none" stroke="rgb(49, 133, 66)" stroke-width="2.3102396717842004" /><line stroke="rgb(26, 77, 160)" stroke-width="1.4936235327582112" x1="151" x2="624" y1="212" y2="548" /><line stroke="rgb(230, 139, 75)" stroke-width="0.5578141868317175" x1="395" x2="878" y1="443" y2="156" /><line stroke="rgb(205, 18, 14)" stroke-width="0.7847239064579837" x1="926" x2="77" y1="347" y2="170" /><line stroke="rgb(188, 204, 126)" stroke-width="2.8603398716827924" x1="639" x2="421" y1="438" y2="171" /><line stroke="rgb(48, 71, 120)" stroke-width="2.6040662453399657" x1="549" x2="696" y1="209" y2="252" /><line stroke="rgb(189, 117, 251)" stroke-width="1.111299628803451" x1="600" x2="39" y1="299" y2="553" /><line stroke="rgb(173, 208, 223)" stroke-width="0.5438855822713385" x1="468" x2="478" y1="531" y2="36" /><line stroke="rgb(217, 11, 114)" stroke-width="0.5211807134655353" x1="785" x2="905" y1="1" y2="399" /><line stroke="rgb(93, 48, 179)" stroke-width="0.6082953282778792" x1="427" x2="45" y1="3" y2="122" /><line stroke="rgb(65, 95, 74)" stroke-width="1.2111981535919008" x1="111" x2="669" y1="325" y2="132" /><line stroke="rgb(221, 68, 191)" stroke-width="1.9978912459415574" x1="684" x2="524" y1="334" y2="317" /><line stroke="rgb(231, 87, 251)" stroke-width="2.78560780805021" x1="337" x2="585" y1="430" y2="296" /><line stroke="rgb(172, 87, 159)" stroke-width="2.770798377634478" x1="64" x2="69" y1="426" y2="268" /><line stroke="rgb(252, 146, 97)" stroke-width="0.941680466230856" x1="684" x2="966" y1="248" y2="15" /><line stroke="rgb(118, 86, 196)" stroke-width="1.6187921904688598" x1="249" x2="693" y1="388" y2="486" /><rect fill="none" height="101" stroke="rgb(175, 111, 113)" stroke-width="3.06292640658655" transform="rotate(252 157 291)" width="189" x="305" y="275" /><circle cx="943" cy="243" fill="none" opacity="0.9990692009181332" r="20" stroke="rgb(135, 118, 232)" stroke-width="4.969687383728137" /><rect fill="none" height="102" stroke="rgb(103, 254, 69)" stroke-width="4.531907458785183" transform="rotate(109 94 396)" width="52" x="687" y="278" /><rect fill="none" height="136" stroke="rgb(76, 175, 34)" stroke-width="4.72026155287636" transform="rotate(201 131 420)" width="30" x="512" y="123" /><path d="M388,322 L568,277 C1037,349 683,314 266,521 L1013,522" fill="none" stroke="rgb(22, 49, 198)" stroke-width="0.587649078419747" /><rect fill="none" height="190" stroke="rgb(203, 124, 33)" stroke-width="3.703674148996479" transform="rotate(10 439 16)" width="144" x="480" y="312" /></svg>