<svg baseProfile="full" height="427px" version="1.1" width="734px" xmlns="http://www.w3.org/2000/svg" xmlns:ev="http://www.w3.org/2001/xml-events" xmlns:xlink="http://www.w3.org/1999/xlink"><defs /><rect fill="rgb(212, 220, 223)" height="427px" width="734px" x="0" y="0" /><circle cx="364" cy="191" fill="none" opacity="0.655670729986737" r="39" stroke="rgb(230, 105, 91)" stroke-width="3.5054338621147663" /><polygon fill="none" points="497,82 240,215 322,312 107,308 100,386" stroke="rgb(24, 209, 153)" stroke-width="0.8682274385001041" /><rect fill="none" height="93" stroke="rgb(239, 252, 8)" stroke-width="1.8596609121842567" transform="rotate(296 247 248)" width="106" x="89" y="15" /><rect fill="none" height="100" stroke="rgb(140, 60, 29)" stroke-width="3.789594895422649" transform="rotate(241 724 133)" width="130" x="393" y="95" /><circle cx="127" cy="332" fill="none" opacity="0.7539028886616683" r="98" stroke="rgb(116, 17, 253)" stroke-width="0.8607637506888723" /><path d="M532,266 L514,114 Q697,302 656,110 C707,301 499,153 162,247 Q306,194 518,62 L666,369" fill="none" stroke="rgb(228, 136, 50)" stroke-width="0.8800835005956329" /><path d="M677,296 Q493,51 471,318 L117,17 Q175,180 315,67 Q712,381 218,345 L345,218 C683,376 477,92 87,406 L373,345" fill="none" stroke="rgb(124, 206, 120)" stroke-width="1.6383650915575036" /><polygon fill="none" points="554,345 707,156 34,167 439,37 339,160 145,124 325,198" stroke="rgb(38, 176, 60)" stroke-width="1.73196940767929" /><circle cx="82" cy="59" fill="none" opacity="0.41585721798586717" r="102" stroke="rgb(96, 2, 96)" stroke-width="4.297413861863943" /><line stroke="rgb(96, 153, 24)" stroke-width="0.7604720628578114" x1="717" x2="629" y1="251" y2="212" /><line stroke="rgb(213, 33, 204)" stroke-width="2.172193642817516" x1="402" x2="215" y1="82" y2="258" /><line stroke="rgb(27, 204, 103)" stroke-width="2.666561857506" x1="286" x2="263" y1="18" y2="172" /><line stroke="rgb(93, 10, 151)" stroke-width="0.7433341318888482" x1="464" x2="618" y1="405" y2="90" /><line stroke="rgb(1, 141, 163)" stroke-width="0.9541862914136935" x1="356" x2="579" y1="247" y2="391" /><polygon fill="none" points="158,427 429,36 656,143" stroke="rgb(123, 16, 246)" stroke-width="2.376358016224999" /><circle cx="540" cy="317" fill="none" opacity="0.4758407515771162" r="75" stroke="rgb(218, 85, 75)" stroke-width="0.6478527613689269" /><line stroke="rgb(214, 109, 138)" stroke-width="0.578481773422639" x1="144" x2="556" y1="427" y2="301" /><line stroke="rgb(125, 158, 156)" stroke-width="0.893112113220532" x1="204" x2="149" y1="55" y2="330" /><line stroke="rgb(234, 100, 193)" stroke-width="2.6798454805424843" x1="517" x2="281" y1="230" y2="105" /><circle cx="184" cy="92" fill="none" opacity="0.5305687182099301" r="29" stroke="rgb(17, 201, 150)" stroke-width="2.372551634458768" /><line stroke="rgb(220, 25, 21)" stroke-width="2.1045339907974796" x1="288" x2="208" y1="62" y2="241" /><line stroke="rgb(73, 82, 43)" stroke-width="1.0711922239959135" x1="48" x2="123" y1="324" y2="184" /><line stroke="rgb(124, 124, 117)" stroke-width="2.322111355709727" x1="348" x2="168" y1="317" y2="96" /><circle cx="248" cy="216" fill="none" opacity="0.6636372990908586" r="100" stroke="rgb(53, 104, 153)" stroke-width="1.1820941939914906" /><line stroke="rgb(100, 48, 252)" stroke-width="1.1560961829715308" x1="10" x2="507" y1="295" y2="116" /><line stroke="rgb(101, 165, 127)" stroke-width="2.7894111901726975" x1="116" x2="630" y1="147" y2="328" /><line stroke="rgb(29, 218, 255)" stroke-width="1.6474195540790686" x1="587" x2="12" y1="248" y2="121" /><line stroke="rgb(160, 81, 182)" stroke-width="1.696421877717798" x1="177" x2="358" y1="21" y2="5" /><line stroke="rgb(245, 254, 170)" stroke-width="2.9060432488625207" x1="558" x2="540" y1="148" y2="330" /><line stroke="rgb(201, 86, 32)" stroke-width="2.5978048489572685" x1="563" x2="33" y1="1" y2="22" /><path d="M246,117 L435,344 L678,98 Q541,171 248,50" fill="none" stroke="rgb(28, 243, 145)" stroke-width="2.1338156925365768" /><circle cx="245" cy="64" fill="none" opacity="0.7920182883727197" r="60" stroke="rgb(45, 231, 220)" stroke-width="3.3417311400991836" /><line stroke="rgb(252, 199, 159)" stroke-width="2.566667337693627" x1="56" x2="649" y1="172" y2="134" /><line stroke="rgb(221, 146, 58)" stroke-width="2.7931590077583035" x1="357" x2="263" y1="109" y2="282" /><line stroke="rgb(142, 85, 4)" stroke-width="2.3216357391592197" x1="39" x2="177" y1="82" y2="32" /><polygon fill="none" points="646,418 270,176 534,420 8,245 468,158 700,65" stroke="rgb(42, 165, 119)" stroke-width="0.6312463266442996" /><path d="M353,186 L328,303 L202,13 Q229,306 314,317" fill="none" stroke="rgb(47, 45, 179)" stroke-width="1.9470441580466944" /><polygon fill="none" points="240,334 205,262 248,230 66,172" stroke="rgb(184, 82, 66)" stroke-width="2.1545209476932254" /><line stroke="rgb(39, 99, 147)" stroke-width="0.8634032635860418" x1="456" x2="96" y1="138" y2="135" /><line stroke="rgb(194, 149, 201)" stroke-width="1.542759126603727" x1="139" x2="299" y1="98" y2="427" /><line stroke="rgb(245, 177, 241)" stroke-width="2.19323373640487" x1="9" x2="383" y1="368" y2="89" /><line stroke="rgb(118, 146, 242)" stroke-width="1.6890325397991477" x1="484" x2="60" y1="258" y2="0" /><line stroke="rgb(240, 240, 165)" stroke-width="0.525788879263054" x1="166" x2="492" y1="307" y2="340" /><line stroke="rgb(240, 25, 150)" stroke-width="1.1875454319974725" x1="561" x2="543" y1="46" y2="228" /><line stroke="rgb(35, 238, 162)" stroke-width="2.827015627734283" x1="27" x2="323" y1="198" y2="169" /><line stroke="rgb(135, 27, 18)" stroke-width="1.3791046930350312" x1="480" x2="207" y1="299" y2="373" /><line stroke="rgb(77, 134, 72)" stroke-width="2.872006610317567" x1="308" x2="112" y1="380" y2="123" /><rect fill="none" height="22" stroke="rgb(237, 7, 52)" stroke-width="3.725522140942584" transform="rotate(11 59 215)" width="55" x="587" y="289" /><circle cx="571" cy="96" fill="none" opacity="0.8912477923941833" r="41" stroke="rgb(251, 68, 241)" stroke-width="3.253031673590249" /></svg>